<?xml version="1.0" standalone="no"?>
<!DOCTYPE svg PUBLIC "-//W3C//DTD SVG 1.1//EN" "http://www.w3.org/Graphics/SVG/1.1/DTD/svg11.dtd" >
<svg xmlns="http://www.w3.org/2000/svg" xmlns:xlink="http://www.w3.org/1999/xlink" version="1.1">
<metadata>
Created by FontForge 20170910 at Mon Jul  3 22:36:19 2017
 By Jimmy Wärting
Copyright \(c\)2016. Neue Hans Kendrick is a trademark of Alfredo Marco Pradil. All rights reserved.
</metadata>
<defs>
<font id="NeueHansKendrick-LightItalic" horiz-adv-x="0" >
  <font-face 
    font-family="Neue Hans Kendrick Light Italic"
    font-weight="300"
    font-style="italic"
    font-stretch="normal"
    units-per-em="2048"
    panose-1="0 0 4 0 0 0 0 0 0 0"
    ascent="1536"
    descent="-512"
    x-height="963"
    cap-height="1536"
    bbox="-1618 -620.339 2758.76 2590"
    underline-thickness="87"
    underline-position="-100"
    slope="-10"
    stemh="141"
    stemv="141"
    unicode-range="U+0020-FB02"
  />
<missing-glyph horiz-adv-x="975" 
d="M-6 0l271 1536h817l-270 -1536h-818zM121 109h600l233 1318h-600z" />
    <glyph glyph-name="fi" unicode="fi" horiz-adv-x="1087" 
d="M436 963h559l-168 -963h-135l146 837h-424l-146 -837h-137l147 837h-162l21 126h162l59 324c28 168 150 272 306 272c55 0 103 -14 125 -33l-15 -130c-24 22 -66 34 -98 34c-92 0 -170 -72 -187 -170zM986 1340c58 0 99 -47 89 -108c-10 -49 -56 -88 -104 -88
c-59 0 -100 49 -91 108c9 51 57 88 106 88z" />
    <glyph glyph-name="fl" unicode="fl" horiz-adv-x="1110" 
d="M489 1260l-52 -297h259l-21 -126h-260l-147 -837h-137l148 837h-163l21 126h164l57 324c28 168 150 272 306 272c55 0 103 -14 125 -33l-15 -130c-24 22 -66 34 -98 34c-92 0 -170 -72 -187 -170zM981 1536h136l-270 -1536h-136z" />
    <glyph glyph-name="f_f" unicode="ff" horiz-adv-x="1153" 
d="M1211 1430c-92 0 -170 -72 -187 -170l-52 -297h259l-21 -126h-260l-147 -837h-137l148 837h-399l-147 -837h-137l148 837h-163l21 126h164l57 324c28 168 150 272 306 272c55 0 103 -14 125 -33l-15 -130c-24 22 -66 34 -98 34c-92 0 -170 -72 -187 -170l-52 -297h399
l57 324c28 168 150 272 306 272c55 0 103 -14 125 -33l-15 -130c-24 22 -66 34 -98 34z" />
    <glyph glyph-name="f_f_i" unicode="ffi" horiz-adv-x="1636" 
d="M159 0l147 837h-162l21 126h162l59 324c28 168 150 272 306 272c55 0 103 -14 125 -33l-15 -130c-24 22 -66 34 -98 34c-92 0 -169 -72 -186 -170l-54 -297h398l59 324c28 168 150 272 305 272c56 0 104 -14 126 -33l-15 -130c-25 22 -66 34 -98 34
c-92 0 -170 -72 -187 -170l-54 -297h545l-168 -963h-134l146 837h-410l-147 -837h-136l146 837h-398l-146 -837h-137zM1520 1144c-59 0 -101 49 -92 108c10 51 57 88 106 88c58 0 100 -47 89 -108c-9 -49 -55 -88 -103 -88z" />
    <glyph glyph-name="f_f_l" unicode="ffl" horiz-adv-x="1645" 
d="M1024 1260l-52 -297h259l-21 -126h-260l-147 -837h-137l148 837h-399l-147 -837h-137l148 837h-163l21 126h164l57 324c28 168 150 272 306 272c55 0 103 -14 125 -33l-15 -130c-24 22 -66 34 -98 34c-92 0 -170 -72 -187 -170l-52 -297h399l57 324
c28 168 150 272 306 272c55 0 103 -14 125 -33l-15 -130c-24 22 -66 34 -98 34c-92 0 -170 -72 -187 -170zM1516 1536h136l-270 -1536h-136z" />
    <glyph glyph-name=".notdef" horiz-adv-x="975" 
d="M-6 0l271 1536h817l-270 -1536h-818zM121 109h600l233 1318h-600z" />
    <glyph glyph-name="space" unicode=" " horiz-adv-x="527" 
 />
    <glyph glyph-name="exclam" unicode="!" horiz-adv-x="622" 
d="M227 424l196 1112h136l-196 -1112h-136zM226 -20c-59 0 -102 52 -91 111c9 51 59 91 108 91c59 0 102 -50 91 -111c-9 -49 -59 -91 -108 -91z" />
    <glyph glyph-name="quotedbl" unicode="&#x22;" horiz-adv-x="949" 
d="M320 895l114 641h130l-112 -641h-132zM640 895l116 641h131l-114 -641h-133z" />
    <glyph glyph-name="numbersign" unicode="#" horiz-adv-x="1459" 
d="M237 0l116 364h-288l32 106h289l162 498h-290l35 104h285l118 365h104l-114 -365h396l116 365h106l-117 -365h291l-36 -104h-287l-158 -498h287l-33 -106h-287l-119 -364h-105l117 364h-400l-114 -364h-106zM493 470h396l160 498h-398z" />
    <glyph glyph-name="dollar" unicode="$" horiz-adv-x="1307" 
d="M768 1430c-155 0 -311 -94 -341 -267c-31 -174 108 -243 261 -315c195 -83 414 -170 361 -462c-40 -233 -223 -366 -426 -398l-30 -168h-134l28 161c-197 11 -351 111 -440 242l113 93c77 -131 194 -210 358 -210c193 0 363 113 394 294c31 183 -128 253 -293 332
c-186 82 -377 177 -331 441c43 243 256 382 477 383l29 165h135l-32 -179c123 -29 209 -100 274 -190l-95 -82c-97 125 -186 160 -308 160z" />
    <glyph glyph-name="percent" unicode="%" horiz-adv-x="1504" 
d="M445 956c-171 0 -286 140 -255 313c28 159 181 287 342 287c169 0 282 -138 253 -307c-29 -163 -181 -293 -340 -293zM93 0l1163 1537h150l-1158 -1537h-155zM445 1071c107 0 211 90 230 198c16 95 -46 174 -144 174c-108 0 -214 -89 -231 -194
c-18 -100 47 -178 145 -178zM980 -17c-171 0 -284 140 -254 310c29 161 180 288 340 288c169 0 286 -138 255 -307c-28 -161 -181 -291 -341 -291zM980 96c110 0 212 89 231 198c18 97 -48 174 -146 174c-108 0 -210 -87 -229 -194c-18 -99 46 -178 144 -178z" />
    <glyph glyph-name="ampersand" unicode="&#x26;" horiz-adv-x="1439" 
d="M463 -24c-255 0 -400 186 -354 443c35 212 195 321 432 479c-87 136 -121 239 -101 348c30 171 179 297 359 297c191 0 301 -134 270 -310c-27 -155 -159 -251 -334 -371l258 -426l251 274l96 -82l-276 -297l197 -327l-171 -10l-137 227c-167 -154 -324 -245 -490 -245z
M659 954c141 93 260 168 282 294c17 104 -50 168 -146 171c-115 3 -208 -77 -229 -194c-17 -94 26 -163 93 -271zM459 111c144 0 282 93 425 225l-273 448c-188 -121 -344 -222 -373 -385c-26 -152 66 -288 221 -288z" />
    <glyph glyph-name="quotesingle" unicode="'" horiz-adv-x="629" 
d="M323 910l111 626h133l-111 -626h-133z" />
    <glyph glyph-name="parenleft" unicode="(" horiz-adv-x="619" 
d="M371 -455c-225 162 -325 546 -227 1106c97 543 326 935 606 1095l54 -92c-251 -149 -461 -504 -553 -1022c-92 -517 -11 -857 190 -1006z" />
    <glyph glyph-name="parenright" unicode=")" horiz-adv-x="619" 
d="M-73 -461l-55 93c252 149 459 493 552 1019c90 510 12 860 -188 1009l69 80c225 -160 324 -556 226 -1108c-97 -551 -324 -932 -604 -1093z" />
    <glyph glyph-name="asterisk" unicode="*" horiz-adv-x="952" 
d="M431 949l-68 43l198 236l-289 -9l15 81l288 -14l-116 241l75 38l88 -246l173 246l69 -38l-199 -241l288 14l-14 -81l-289 9l118 -236l-76 -43l-86 249z" />
    <glyph glyph-name="plus" unicode="+" horiz-adv-x="1181" 
d="M526 196v412h-412v130h412v411h130v-411h411v-130h-411v-412h-130z" />
    <glyph glyph-name="comma" unicode="," horiz-adv-x="624" 
d="M284 182c59 0 101 -52 91 -111c-3 -18 -11 -35 -23 -49l-209 -390h-109l183 362c-31 19 -49 55 -41 97c7 49 58 91 108 91z" />
    <glyph glyph-name="hyphen" unicode="-" horiz-adv-x="1052" 
d="M157 427l21 109h716l-20 -109h-717z" />
    <glyph glyph-name="period" unicode="." horiz-adv-x="626" 
d="M234 -20c-59 0 -102 50 -91 111c8 49 59 91 108 91c59 0 101 -52 92 -111c-10 -52 -59 -91 -109 -91z" />
    <glyph glyph-name="slash" unicode="/" horiz-adv-x="1155" 
d="M-176 -348l1440 2048h136l-1437 -2048h-139z" />
    <glyph glyph-name="zero" unicode="0" horiz-adv-x="1270" 
d="M557 -20c-318 0 -499 346 -418 798c78 442 354 778 676 778c331 0 496 -346 417 -798c-79 -442 -370 -778 -675 -778zM560 105c246 0 464 279 535 673c70 400 -62 638 -283 638c-233 0 -462 -249 -534 -658c-69 -384 44 -653 282 -653z" />
    <glyph glyph-name="one" unicode="1" horiz-adv-x="1270" 
d="M545 0l245 1395h-322l25 141h463l-270 -1536h-141z" />
    <glyph glyph-name="two" unicode="2" horiz-adv-x="1270" 
d="M1178 1128c-47 -291 -319 -544 -833 -987h739l-24 -141h-1048l-1 18c852 733 993 915 1028 1115c33 183 -82 283 -245 284c-189 1 -342 -129 -378 -314l-150 12c52 270 281 446 540 443c253 -3 415 -166 372 -430z" />
    <glyph glyph-name="three" unicode="3" horiz-adv-x="1270" 
d="M539 -20c-286 0 -483 188 -437 451l140 -9c-33 -188 100 -309 301 -309c214 0 399 135 434 337c35 194 -97 314 -305 314h-153l23 133h138c169 0 307 124 334 278c26 144 -63 248 -228 248c-169 0 -309 -110 -334 -254l-140 10c40 224 249 377 480 377
c239 0 402 -162 361 -393c-27 -150 -130 -264 -282 -323c179 -57 279 -212 243 -416c-46 -266 -299 -444 -575 -444z" />
    <glyph glyph-name="four" unicode="4" horiz-adv-x="1270" 
d="M1218 457l-26 -133h-280l-57 -324h-141l57 324h-746l15 92l910 1120h175l-190 -1079h283zM795 457l158 901l-715 -901h557z" />
    <glyph glyph-name="five" unicode="5" horiz-adv-x="1270" 
d="M1242 1399h-663l-163 -486c98 71 216 103 325 103c287 0 466 -218 414 -518c-52 -297 -310 -515 -610 -515c-239 0 -450 138 -441 412l147 -10c8 -192 156 -265 300 -265c225 0 414 170 452 391c39 220 -91 375 -289 375c-120 0 -251 -57 -342 -152l-154 3l271 798h777z
" />
    <glyph glyph-name="six" unicode="6" horiz-adv-x="1270" 
d="M756 1019c230 0 458 -207 414 -509c-42 -285 -315 -526 -600 -526c-301 0 -507 222 -466 511c19 136 96 258 192 360l677 681h180l-554 -542c44 16 93 25 157 25zM1035 528c30 221 -114 370 -318 370c-245 0 -446 -190 -477 -420c-28 -214 113 -357 332 -357
c231 0 434 185 463 407z" />
    <glyph glyph-name="seven" unicode="7" horiz-adv-x="1270" 
d="M291 1536h1072l-13 -88l-1074 -1448h-173l1053 1401h-889z" />
    <glyph glyph-name="eight" unicode="8" horiz-adv-x="1270" 
d="M557 -20c-274 0 -454 208 -408 470c32 184 170 337 344 405c-108 65 -153 187 -126 333c36 207 231 368 450 368c227 0 373 -171 334 -387c-25 -144 -112 -263 -241 -323c148 -74 231 -231 198 -416c-45 -252 -285 -450 -551 -450zM700 897c151 0 292 121 319 271
c26 143 -66 254 -207 254c-153 0 -293 -121 -322 -273c-24 -141 68 -252 210 -252zM559 105c194 0 377 161 411 354c34 185 -87 329 -271 329c-193 0 -375 -155 -409 -349c-33 -183 86 -334 269 -334z" />
    <glyph glyph-name="nine" unicode="9" horiz-adv-x="1270" 
d="M689 1552c301 0 507 -222 466 -511c-19 -136 -96 -258 -192 -360l-677 -681h-180l554 542c-44 -16 -93 -25 -157 -25c-230 0 -458 207 -414 509c42 285 315 526 600 526zM1019 1058c28 214 -113 357 -332 357c-231 0 -434 -185 -463 -407c-30 -221 114 -370 318 -370
c245 0 446 190 477 420z" />
    <glyph glyph-name="colon" unicode=":" horiz-adv-x="613" 
d="M380 842c-59 0 -102 50 -92 111c8 49 59 91 108 91c60 0 101 -52 92 -111c-9 -51 -58 -91 -108 -91zM228 -20c-60 0 -103 50 -92 111c8 49 59 91 108 91c60 0 101 -52 92 -111c-9 -52 -59 -91 -108 -91z" />
    <glyph glyph-name="semicolon" unicode=";" horiz-adv-x="615" 
d="M411 1044c60 0 101 -52 92 -111c-9 -51 -59 -91 -108 -91c-61 0 -103 50 -92 111c8 49 57 91 108 91zM259 182c59 0 101 -52 92 -111c-3 -18 -11 -35 -22 -49l-211 -390h-108l182 362c-31 19 -49 55 -41 97c8 49 59 91 108 91z" />
    <glyph glyph-name="less" unicode="&#x3c;" horiz-adv-x="1359" 
d="M1227 1346v-143l-994 -501l994 -502v-147l-1131 572v154z" />
    <glyph glyph-name="equal" unicode="=" horiz-adv-x="1239" 
d="M266 806v130h706v-130h-706zM266 403v129h706v-129h-706z" />
    <glyph glyph-name="greater" unicode="&#x3e;" horiz-adv-x="1359" 
d="M133 1346l1130 -567v-154l-1130 -572v147l994 502l-994 501v143z" />
    <glyph glyph-name="question" unicode="?" horiz-adv-x="1016" 
d="M422 423l25 143c66 370 411 230 472 575c28 166 -73 281 -249 281c-172 0 -324 -122 -364 -282l-122 10c47 229 253 392 488 392c256 0 409 -177 365 -420c-68 -386 -420 -302 -463 -548l-26 -151h-126zM424 -20c-59 0 -102 50 -92 111c8 49 59 91 108 91
c61 0 101 -52 92 -111c-9 -52 -57 -91 -108 -91z" />
    <glyph glyph-name="at" unicode="@" horiz-adv-x="1747" 
d="M770 -220c-391 0 -698 281 -616 744c75 425 453 735 885 735c377 0 654 -234 581 -651c-58 -333 -261 -467 -436 -467c-120 0 -172 75 -163 159l-4 -10c-63 -78 -170 -144 -282 -144c-172 0 -259 131 -226 320c41 233 232 432 450 432c115 0 188 -56 207 -132l5 5l40 105
l102 -6c-49 -142 -116 -325 -154 -433c-45 -118 -53 -195 46 -195c122 0 262 116 308 374c60 337 -134 541 -475 541c-388 0 -700 -273 -767 -654c-71 -400 188 -621 507 -621c224 0 406 64 574 190l57 -85c-186 -141 -402 -207 -639 -207zM756 252c167 0 286 168 323 310
c38 133 15 232 -118 232c-162 0 -299 -177 -330 -352c-16 -92 7 -190 125 -190z" />
    <glyph glyph-name="A" unicode="A" horiz-adv-x="1335" 
d="M1061 0l-54 262h-749l-147 -262h-160l909 1573l356 -1573h-155zM332 394h647l-175 841z" />
    <glyph glyph-name="B" unicode="B" horiz-adv-x="1354" 
d="M1278 1121c-27 -159 -128 -280 -269 -341c161 -52 250 -195 215 -387c-40 -229 -248 -393 -478 -393h-607l270 1536h520c231 0 393 -175 349 -415zM1139 1129c29 155 -78 266 -238 266h-380l-97 -559h368c161 0 319 128 347 293zM1090 428c27 155 -77 272 -238 272h-451
l-97 -559h440c161 0 317 123 346 287z" />
    <glyph glyph-name="C" unicode="C" horiz-adv-x="1516" 
d="M810 -20c-441 0 -735 357 -657 798c75 431 484 778 916 778c226 0 414 -94 533 -246l-114 -87c-95 120 -244 193 -425 193c-363 0 -709 -293 -773 -658c-63 -355 172 -638 525 -638c189 0 371 78 513 204l89 -103c-168 -149 -384 -241 -607 -241z" />
    <glyph glyph-name="D" unicode="D" horiz-adv-x="1496" 
d="M139 0l270 1536h403c423 0 711 -349 635 -778c-73 -419 -472 -758 -896 -758h-412zM303 141h261c351 0 682 275 746 637c63 352 -164 617 -515 617h-272z" />
    <glyph glyph-name="E" unicode="E" horiz-adv-x="1148" 
d="M1211 1400h-686l-99 -564h601l-25 -136h-600l-99 -564h686l-23 -136h-827l270 1536h827z" />
    <glyph glyph-name="F" unicode="F" horiz-adv-x="1105" 
d="M1211 1400h-686l-99 -564h601l-25 -136h-599l-123 -700h-141l270 1536h827z" />
    <glyph glyph-name="G" unicode="G" horiz-adv-x="1631" 
d="M906 666l23 133h606l-140 -799h-125l13 123c-147 -90 -318 -143 -471 -143c-443 0 -737 355 -658 798c76 433 483 778 916 778c206 0 405 -93 523 -234l-111 -93c-98 120 -252 187 -417 187c-365 0 -709 -292 -774 -658c-62 -357 171 -638 526 -638c173 0 354 73 492 190
l62 356h-465z" />
    <glyph glyph-name="H" unicode="H" horiz-adv-x="1603" 
d="M1426 1536h141l-271 -1536h-140l123 698h-876l-123 -698h-141l270 1536h141l-123 -697h876z" />
    <glyph glyph-name="I" unicode="I" horiz-adv-x="586" 
d="M139 0l270 1536h141l-270 -1536h-141z" />
    <glyph glyph-name="J" unicode="J" horiz-adv-x="1002" 
d="M245 -20c-115 0 -216 29 -296 81l80 121c59 -45 152 -65 230 -65c214 0 370 162 404 359l187 1060h141l-192 -1092c-49 -276 -273 -464 -554 -464z" />
    <glyph glyph-name="K" unicode="K" horiz-adv-x="1256" 
d="M1391 1536l-810 -755l558 -781h-175l-550 762l-134 -762h-141l270 1536h141l-129 -736l786 736h184z" />
    <glyph glyph-name="L" unicode="L" horiz-adv-x="972" 
d="M305 141h578l-24 -141h-720l270 1536h141z" />
    <glyph glyph-name="M" unicode="M" horiz-adv-x="1869" 
d="M930 478l915 1140l-285 -1618h-140l201 1146l-732 -922l-409 924l-201 -1148h-141l284 1612z" />
    <glyph glyph-name="N" unicode="N" horiz-adv-x="1584" 
d="M1548 1536l-282 -1596l-776 1273l-212 -1213h-141l281 1598l777 -1273l214 1211h139z" />
    <glyph glyph-name="O" unicode="O" horiz-adv-x="1776" 
d="M810 -20c-441 0 -735 357 -657 798c75 431 484 778 916 778c441 0 735 -357 657 -798c-76 -431 -485 -778 -916 -778zM815 120c365 0 709 293 774 658c62 355 -170 638 -526 638c-363 0 -709 -293 -773 -658c-63 -355 172 -638 525 -638z" />
    <glyph glyph-name="P" unicode="P" horiz-adv-x="1335" 
d="M1026 1536c236 0 395 -195 353 -433c-41 -231 -257 -411 -492 -411h-487l-120 -692h-141l270 1536h617zM1241 1121c29 165 -78 279 -242 279h-476l-99 -574h464c164 0 321 115 353 295z" />
    <glyph glyph-name="Q" unicode="Q" horiz-adv-x="1827" 
d="M1069 1556c441 0 735 -357 657 -798c-32 -180 -121 -345 -246 -476l179 -211l-109 -96l-175 211c-161 -128 -361 -206 -565 -206c-441 0 -735 357 -657 798c75 431 484 778 916 778zM1589 778c62 355 -170 638 -526 638c-363 0 -709 -293 -773 -658
c-63 -355 172 -638 525 -638c171 0 338 65 474 171l-149 180l103 90l148 -175c100 109 172 245 198 392z" />
    <glyph glyph-name="R" unicode="R" horiz-adv-x="1388" 
d="M1026 1536c236 0 395 -195 353 -433c-36 -204 -209 -369 -411 -404l238 -699h-147l-239 692h-420l-120 -692h-141l270 1536h617zM1241 1121c29 165 -78 279 -242 279h-476l-99 -574h464c164 0 321 115 353 295z" />
    <glyph glyph-name="S" unicode="S" horiz-adv-x="1129" 
d="M496 -20c-214 0 -382 104 -476 243l113 93c77 -131 194 -210 358 -210c193 0 363 113 394 294c31 183 -128 253 -293 332c-186 82 -377 177 -331 441c43 244 258 383 480 383c195 0 318 -86 403 -204l-95 -82c-97 125 -186 160 -308 160c-155 0 -311 -94 -341 -267
c-31 -174 108 -243 261 -315c195 -83 414 -170 361 -462c-47 -271 -286 -406 -526 -406z" />
    <glyph glyph-name="T" unicode="T" horiz-adv-x="1056" 
d="M1214 1537l-25 -141h-429l-245 -1396h-141l245 1396h-429l25 141h999z" />
    <glyph glyph-name="U" unicode="U" horiz-adv-x="1513" 
d="M676 -20c-331 0 -538 230 -485 531l182 1025h141l-179 -1014c-42 -232 106 -402 346 -402c250 0 469 180 511 412l177 1004h141l-183 -1035c-54 -301 -329 -521 -651 -521z" />
    <glyph glyph-name="V" unicode="V" horiz-adv-x="1335" 
d="M1328 1536h158l-911 -1573l-353 1573h151l260 -1241z" />
    <glyph glyph-name="W" unicode="W" horiz-adv-x="1920" 
d="M2071 1536l-911 -1575l-164 728l-421 -728l-353 1575h148l265 -1245l322 573l-151 672h144l105 -498l280 498h151l-393 -680l119 -565l703 1245h156z" />
    <glyph glyph-name="X" unicode="X" horiz-adv-x="1291" 
d="M1424 1536l-647 -763l383 -773h-166l-311 660l-545 -660h-176l662 781l-376 755h166l304 -642l534 642h172z" />
    <glyph glyph-name="Y" unicode="Y" horiz-adv-x="1247" 
d="M1416 1536l-679 -811l-128 -725h-141l128 727l-392 809h172l315 -663l550 663h175z" />
    <glyph glyph-name="Z" unicode="Z" horiz-adv-x="1338" 
d="M1458 1536l-1203 -1395h955l-24 -141h-1227l1200 1395h-881l25 141h1155z" />
    <glyph glyph-name="bracketleft" unicode="[" horiz-adv-x="627" 
d="M38 -512l403 2284h385l-19 -108h-264l-364 -2068h264l-21 -108h-384z" />
    <glyph glyph-name="backslash" unicode="\" horiz-adv-x="1148" 
d="M903 -348l-718 2048h131l717 -2048h-130z" />
    <glyph glyph-name="bracketright" unicode="]" horiz-adv-x="627" 
d="M-148 -512l21 108h264l364 2068h-264l18 108h385l-403 -2284h-385z" />
    <glyph glyph-name="asciicircum" unicode="^" horiz-adv-x="1434" 
d="M1334 406h-115l-334 1017l-691 -1017h-125l770 1130h126z" />
    <glyph glyph-name="underscore" unicode="_" horiz-adv-x="1501" 
d="M126 -160l18 109h1024l-18 -109h-1024z" />
    <glyph glyph-name="grave" unicode="`" horiz-adv-x="487" 
d="M504 1147l-289 289l93 89l258 -317z" />
    <glyph glyph-name="a" unicode="a" horiz-adv-x="1261" 
d="M1032 963h136l-168 -963h-136l27 160c-101 -109 -243 -178 -404 -178c-266 0 -455 228 -406 509c48 272 306 490 563 490c169 0 293 -75 358 -192zM508 115c208 0 404 168 442 376c36 199 -94 357 -293 357c-207 0 -405 -169 -442 -376c-36 -199 95 -357 293 -357z" />
    <glyph glyph-name="b" unicode="b" horiz-adv-x="1261" 
d="M774 981c266 0 455 -228 406 -509c-48 -272 -306 -490 -563 -490c-170 0 -293 75 -358 193l-30 -175h-136l270 1536h136l-127 -731c101 108 242 176 402 176zM1047 491c35 199 -96 357 -294 357c-208 0 -404 -169 -442 -376c-36 -199 95 -357 293 -357
c208 0 405 168 443 376z" />
    <glyph glyph-name="c" unicode="c" horiz-adv-x="1105" 
d="M503 -18c-284 0 -472 226 -423 509c49 273 305 490 579 490c207 0 361 -120 412 -291l-130 -47c-37 124 -141 204 -285 204c-213 0 -405 -165 -442 -375c-36 -202 90 -357 292 -357c154 0 294 90 375 215l118 -68c-109 -170 -299 -280 -496 -280z" />
    <glyph glyph-name="d" unicode="d" horiz-adv-x="1263" 
d="M1135 1536h136l-271 -1536h-136l27 160c-101 -109 -243 -178 -404 -178c-266 0 -455 228 -406 509c48 272 306 490 563 490c171 0 295 -76 360 -195zM508 115c208 0 404 168 442 376c36 199 -94 357 -293 357c-207 0 -405 -169 -442 -376c-36 -199 95 -357 293 -357z" />
    <glyph glyph-name="e" unicode="e" horiz-adv-x="1143" 
d="M659 981c279 0 471 -216 423 -492l-4 -22h-872v-1c-33 -202 101 -361 299 -361c131 0 258 67 345 170l111 -59c-114 -149 -283 -234 -457 -234c-286 0 -472 228 -423 509c48 272 304 490 578 490zM657 857c-177 0 -342 -116 -416 -279h717c-6 164 -130 279 -301 279z" />
    <glyph glyph-name="f" unicode="f" horiz-adv-x="618" 
d="M676 1430c-92 0 -170 -72 -187 -170l-52 -297h259l-21 -126h-260l-147 -837h-137l148 837h-163l21 126h164l57 324c28 168 150 272 306 272c55 0 103 -14 125 -33l-15 -130c-24 22 -66 34 -98 34z" />
    <glyph glyph-name="g" unicode="g" horiz-adv-x="1261" 
d="M1029 963h138l-169 -964c-49 -277 -307 -494 -581 -494c-197 0 -352 115 -410 278l121 66c38 -128 149 -210 293 -210c207 0 405 168 440 371l25 140c-96 -103 -229 -168 -386 -168c-281 0 -469 228 -420 509c49 273 305 490 576 490c166 0 283 -71 344 -184zM506 115
c207 0 406 170 442 376c36 199 -96 356 -292 356c-210 0 -405 -168 -442 -375c-35 -197 93 -357 292 -357z" />
    <glyph glyph-name="h" unicode="h" horiz-adv-x="1058" 
d="M641 981c196 0 327 -161 294 -354l-111 -627h-136l110 627c22 130 -58 228 -178 228c-123 0 -242 -92 -277 -208l-114 -647h-136l270 1536h137l-115 -655c71 62 162 100 256 100z" />
    <glyph glyph-name="i" unicode="i" horiz-adv-x="488" 
d="M372 1144c-59 0 -101 49 -91 108c9 51 56 88 106 88c57 0 99 -47 88 -108c-9 -49 -55 -88 -103 -88zM93 0l168 963h134l-168 -963h-134z" />
    <glyph glyph-name="j" unicode="j" horiz-adv-x="492" 
d="M374 1144c-59 0 -101 49 -91 108c9 51 56 88 106 88c57 0 99 -47 88 -108c-9 -49 -55 -88 -103 -88zM9 -481l254 1444h134l-254 -1444h-134z" />
    <glyph glyph-name="k" unicode="k" horiz-adv-x="972" 
d="M993 963l-515 -441l408 -522h-180l-389 499l-88 -499h-136l270 1536h137l-177 -1001l479 428h191z" />
    <glyph glyph-name="l" unicode="l" horiz-adv-x="492" 
d="M93 0l270 1536h136l-270 -1536h-136z" />
    <glyph glyph-name="m" unicode="m" horiz-adv-x="1607" 
d="M1188 981c199 0 329 -163 294 -366l-108 -615h-136l109 624c23 130 -53 223 -168 223c-120 0 -234 -93 -266 -213l-3 -19l-108 -615h-137l110 624c23 130 -53 223 -170 223c-127 0 -246 -104 -269 -235l-107 -612h-136l168 963h136l-17 -95c70 69 158 113 248 113
c107 0 201 -60 251 -153c78 94 191 153 309 153z" />
    <glyph glyph-name="n" unicode="n" horiz-adv-x="1066" 
d="M646 981c197 0 330 -161 297 -354l-110 -627h-137l110 627c22 130 -59 228 -181 228c-132 0 -255 -99 -285 -220l-111 -635h-136l168 963h136l-15 -84c74 64 167 102 264 102z" />
    <glyph glyph-name="o" unicode="o" horiz-adv-x="1163" 
d="M503 -18c-284 0 -472 228 -423 509c47 272 305 490 579 490c283 0 471 -228 422 -509c-47 -272 -305 -490 -578 -490zM506 115c207 0 404 168 442 376c36 199 -96 356 -292 356c-210 0 -405 -168 -442 -375c-36 -199 93 -357 292 -357z" />
    <glyph glyph-name="p" unicode="p" horiz-adv-x="1263" 
d="M776 981c266 0 455 -228 406 -509c-48 -272 -305 -490 -562 -490c-171 0 -295 76 -360 195l-117 -669h-136l256 1455h136l-27 -160c101 109 243 178 404 178zM1049 491c35 199 -96 357 -294 357c-208 0 -404 -169 -442 -376c-35 -199 95 -357 293 -357
c208 0 405 168 443 376z" />
    <glyph glyph-name="q" unicode="q" horiz-adv-x="1261" 
d="M1032 963h136l-256 -1455h-136l113 650c-101 -108 -242 -176 -402 -176c-266 0 -455 228 -406 509c48 272 306 490 563 490c170 0 293 -75 358 -193zM508 115c208 0 404 168 442 376c36 199 -94 357 -293 357c-207 0 -405 -169 -442 -376c-36 -199 95 -357 293 -357z" />
    <glyph glyph-name="r" unicode="r" horiz-adv-x="708" 
d="M655 981c60 0 107 -18 138 -38l-60 -113c-33 15 -67 24 -104 24c-139 0 -272 -120 -308 -326l-92 -528h-136l168 963h136l-28 -154c71 107 169 172 286 172z" />
    <glyph glyph-name="s" unicode="s" horiz-adv-x="857" 
d="M350 -18c-165 0 -277 70 -345 133l91 105c55 -64 151 -115 261 -115c125 0 226 64 244 167c17 101 -75 130 -181 168c-139 41 -295 89 -261 278c30 176 196 263 367 263c112 0 214 -39 287 -101l-89 -98c-72 61 -146 78 -211 78c-115 0 -210 -54 -227 -149
c-19 -100 90 -125 203 -165c133 -38 275 -95 242 -284c-32 -180 -184 -280 -381 -280z" />
    <glyph glyph-name="t" unicode="t" horiz-adv-x="603" 
d="M661 963l-22 -126h-206l-147 -837h-138l146 837h-208l21 126h209l61 346h139l-61 -346h206z" />
    <glyph glyph-name="u" unicode="u" horiz-adv-x="1031" 
d="M435 -18c-222 0 -348 151 -310 368l107 613h137l-106 -609c-26 -147 50 -239 175 -239c137 0 257 103 283 249l104 599h137l-109 -623c-37 -218 -206 -358 -418 -358z" />
    <glyph glyph-name="v" unicode="v" horiz-adv-x="926" 
d="M849 963h150l-629 -1002l-275 1002h143l180 -713z" />
    <glyph glyph-name="w" unicode="w" horiz-adv-x="1469" 
d="M1531 963l-561 -1009l-197 744l-462 -744l-205 1009h146l127 -676l445 729l189 -734l367 681h151z" />
    <glyph glyph-name="x" unicode="x" horiz-adv-x="1020" 
d="M-61 0l488 481l-313 482h161l248 -383l387 383h171l-488 -482l313 -481h-161l-247 382l-386 -382h-173z" />
    <glyph glyph-name="y" unicode="y" horiz-adv-x="958" 
d="M868 963h156l-840 -1455h-149l285 501l-219 954h150l172 -805z" />
    <glyph glyph-name="z" unicode="z" horiz-adv-x="932" 
d="M960 963l-724 -837h576l-21 -126h-833l721 837h-538l22 126h797z" />
    <glyph glyph-name="braceleft" unicode="{" horiz-adv-x="570" 
d="M250 -514c-114 0 -183 111 -158 255l87 500c32 183 39 272 -87 340l8 97c150 70 186 166 218 349l89 497c25 147 122 246 237 246h84l-17 -99h-48c-83 0 -134 -75 -153 -190l-87 -494c-27 -146 -61 -272 -213 -363c112 -87 110 -218 84 -365l-87 -496
c-21 -115 -5 -175 78 -175h58l-18 -102h-75z" />
    <glyph glyph-name="bar" unicode="|" horiz-adv-x="631" 
d="M129 -307l326 1843h94l-325 -1843h-95z" />
    <glyph glyph-name="braceright" unicode="}" horiz-adv-x="572" 
d="M-106 -514l18 102h48c83 0 133 70 153 186l87 495c27 147 61 274 213 365c-113 87 -110 217 -84 363l87 494c19 116 5 180 -78 180h-58l17 99h74c114 0 186 -109 159 -257l-88 -497c-32 -182 -36 -272 89 -341l-8 -97c-151 -69 -187 -164 -219 -348l-87 -499
c-26 -144 -125 -245 -240 -245h-83z" />
    <glyph glyph-name="asciitilde" unicode="~" horiz-adv-x="1419" 
d="M927 355c-137 0 -216 91 -271 154c-50 58 -92 93 -154 93c-107 0 -173 -100 -173 -224h-122c-8 205 116 346 297 346c114 0 182 -60 254 -149c44 -53 87 -99 160 -99c98 0 175 88 170 222h122c12 -195 -111 -343 -283 -343z" />
    <glyph glyph-name="exclamdown" unicode="&#xa1;" horiz-adv-x="634" 
d="M391 842c-59 0 -103 50 -92 111c8 49 59 91 108 91c59 0 101 -52 92 -111c-10 -51 -59 -91 -108 -91zM73 -512l197 1112h137l-198 -1112h-136z" />
    <glyph glyph-name="cent" unicode="&#xa2;" horiz-adv-x="1236" 
d="M842 1436l-46 -261h-91l46 261h91zM631 239c124 23 234 103 302 208l118 -68c-99 -155 -266 -260 -444 -277l-18 -104h-92l18 103c-261 20 -430 238 -383 507c49 273 305 490 579 490c207 0 361 -120 412 -291l-130 -47c-37 124 -141 204 -285 204
c-213 0 -405 -165 -442 -375c-35 -195 82 -347 272 -356l5 29h92z" />
    <glyph glyph-name="sterling" unicode="&#xa3;" horiz-adv-x="1469" 
d="M982 1412c-195 0 -350 -137 -384 -333l-47 -264h381l-23 -126h-380l-98 -556h743l-23 -133h-1051l22 124l165 6l98 559h-165l24 126h163l48 274c48 275 267 467 533 467c194 0 354 -135 384 -315l-145 -51c-7 133 -116 222 -245 222z" />
    <glyph glyph-name="currency" unicode="&#xa4;" horiz-adv-x="1377" 
d="M687 306c-95 0 -190 32 -268 94l-103 -105l-76 81l103 102c-61 77 -92 170 -92 265s31 190 93 266l-102 99l76 82l103 -105c78 63 174 96 270 96c93 0 186 -32 263 -94l102 101l78 -76l-102 -101c62 -78 94 -173 94 -268c0 -94 -32 -189 -94 -267l102 -100l-77 -81
l-103 105c-77 -62 -172 -94 -267 -94zM687 415c182 0 329 147 329 328s-148 327 -328 327c-183 0 -330 -148 -330 -330s148 -325 329 -325z" />
    <glyph glyph-name="yen" unicode="&#xa5;" horiz-adv-x="1541" 
d="M761 725l-1 -4h446l-28 -118h-439l-33 -190h431l-29 -118h-423l-52 -295h-141l52 295h-419l29 118h411l33 190h-405l29 118h397l1 6l-392 809h172l315 -663l550 663h175z" />
    <glyph glyph-name="brokenbar" unicode="&#xa6;" horiz-adv-x="631" 
d="M324 799l131 737h94l-131 -737h-94zM129 -307l131 737h95l-131 -737h-95z" />
    <glyph glyph-name="section" unicode="&#xa7;" horiz-adv-x="1187" 
d="M419 -620c-176 6 -305 99 -366 207l124 80c42 -89 130 -142 248 -146c154 -5 312 75 346 245c80 379 -699 282 -590 799c29 126 97 223 197 296c-83 67 -140 167 -106 325c52 246 269 380 492 372c176 -6 304 -99 363 -207l-122 -80c-42 89 -131 142 -247 146
c-156 5 -312 -77 -347 -245c-81 -379 697 -281 589 -799c-27 -126 -94 -225 -196 -296c83 -68 139 -167 106 -325c-52 -246 -270 -380 -491 -372zM675 163c91 44 166 123 186 230c46 216 -174 280 -354 382c-92 -43 -166 -121 -186 -230c-47 -216 174 -280 354 -382z" />
    <glyph glyph-name="dieresis" unicode="&#xa8;" horiz-adv-x="847" 
d="M370 1144c-59 0 -102 50 -91 109c9 53 58 92 108 92c58 0 101 -49 91 -111c-9 -50 -59 -90 -108 -90zM730 1144c-60 0 -103 50 -92 109c9 53 58 92 108 92c60 0 102 -49 91 -111c-9 -50 -57 -90 -107 -90z" />
    <glyph glyph-name="copyright" unicode="&#xa9;" horiz-adv-x="1861" 
d="M930 -20c-434 0 -788 354 -788 788s354 788 788 788s789 -354 789 -788s-355 -788 -789 -788zM930 65c392 0 705 312 705 703s-313 703 -705 703c-390 0 -703 -312 -703 -703s313 -703 703 -703zM931 328c-244 0 -441 196 -441 440c0 245 197 440 441 440
c113 0 233 -50 312 -131l-59 -57c-65 67 -159 106 -253 106c-199 0 -359 -157 -359 -358c0 -199 160 -356 359 -356c94 0 188 39 253 106l59 -59c-79 -81 -199 -131 -312 -131z" />
    <glyph glyph-name="ordfeminine" unicode="&#xaa;" horiz-adv-x="917" 
d="M829 1536h98l-109 -615h-97l23 125c-65 -83 -161 -137 -267 -137c-176 0 -295 147 -265 329c31 172 191 310 357 310c115 0 199 -61 236 -153zM490 995c135 0 262 109 286 243c22 123 -60 221 -185 221c-133 0 -261 -108 -284 -240c-22 -125 60 -224 183 -224z" />
    <glyph glyph-name="guillemotleft" unicode="&#xab;" horiz-adv-x="936" 
d="M308 104l-248 377l376 377h126l-381 -377l242 -377h-115zM662 104l-247 377l375 377h129l-380 -377l242 -377h-119z" />
    <glyph glyph-name="logicalnot" unicode="&#xac;" horiz-adv-x="1618" 
d="M1231 239v524h-1112v122h1233v-646h-121z" />
    <glyph glyph-name="uni00AD" unicode="&#xad;" horiz-adv-x="1055" 
d="M157 418l22 118h717l-22 -118h-717z" />
    <glyph glyph-name="registered" unicode="&#xae;" horiz-adv-x="1861" 
d="M930 1556c434 0 789 -354 789 -788s-355 -788 -789 -788s-788 354 -788 788s354 788 788 788zM930 65c392 0 705 312 705 703s-313 703 -705 703c-390 0 -703 -312 -703 -703s313 -703 703 -703zM1281 991c0 -118 -73 -217 -177 -256l212 -464h-102l-203 446h-6h-253
v-446h-94v994h347c154 0 276 -122 276 -274zM997 808c106 0 190 70 190 182c0 108 -84 184 -190 184h-245v-366h245z" />
    <glyph glyph-name="macron" unicode="&#xaf;" horiz-adv-x="973" 
d="M304 1242l17 96h635l-18 -96h-634z" />
    <glyph glyph-name="degree" unicode="&#xb0;" horiz-adv-x="1009" 
d="M503 1076c-174 0 -316 144 -316 316c0 174 142 316 316 316c173 0 316 -142 316 -316c0 -172 -143 -316 -316 -316zM503 1154c132 0 238 106 238 238s-106 238 -238 238s-238 -106 -238 -238s106 -238 238 -238z" />
    <glyph glyph-name="uni00B2" unicode="&#xb2;" horiz-adv-x="705" 
d="M753 1277c-21 -143 -124 -257 -455 -539h390l-22 -124h-611l8 71c471 413 542 499 560 597c18 103 -41 142 -111 142c-97 1 -170 -66 -188 -159l-134 10c32 172 163 275 326 274c161 0 263 -102 237 -272z" />
    <glyph glyph-name="uni00B3" unicode="&#xb3;" horiz-adv-x="697" 
d="M725 1302c-14 -77 -61 -138 -128 -175c80 -49 125 -138 105 -246c-28 -156 -176 -279 -339 -279c-165 0 -280 119 -251 278l134 -9c-15 -83 42 -141 123 -141c96 0 185 77 201 174c17 87 -38 147 -128 147h-89l20 116h71c73 0 145 64 159 140c12 68 -32 114 -99 114
c-74 0 -141 -54 -152 -121l-132 12c26 141 148 236 286 236c147 0 243 -110 219 -246z" />
    <glyph glyph-name="acute" unicode="&#xb4;" horiz-adv-x="492" 
d="M225 1147l-48 61l364 318l66 -89z" />
    <glyph glyph-name="uni00B5" unicode="&#xb5;" horiz-adv-x="1182" 
d="M951 963h137l-168 -963h-137l25 145c-85 -100 -207 -163 -333 -163c-109 0 -199 46 -257 119l-102 -582h-107l254 1444h138l-103 -593c-26 -150 70 -266 216 -266c158 0 309 126 335 276z" />
    <glyph glyph-name="paragraph" unicode="&#xb6;" horiz-adv-x="1154" 
d="M392 -307l205 1157h-68c-225 0 -347 126 -307 354c39 218 193 332 419 332h158l-326 -1843h-81zM665 -307l326 1843h81l-326 -1843h-81z" />
    <glyph glyph-name="periodcentered" unicode="&#xb7;" horiz-adv-x="602" 
d="M340 653c-50 0 -87 41 -77 94c7 40 48 75 88 75c50 0 88 -45 79 -94c-8 -44 -50 -75 -90 -75z" />
    <glyph glyph-name="cedilla" unicode="&#xb8;" horiz-adv-x="614" 
d="M146 -532c-95 0 -191 60 -221 132l78 25c24 -43 88 -72 139 -72c73 0 142 59 154 133c16 93 -66 131 -190 88l-67 48l119 182h91l-98 -143c147 30 251 -60 228 -195c-20 -111 -121 -198 -233 -198z" />
    <glyph glyph-name="uni00B9" unicode="&#xb9;" horiz-adv-x="450" 
d="M197 614l140 798h-137l22 124h272l-162 -922h-135z" />
    <glyph glyph-name="ordmasculine" unicode="&#xba;" horiz-adv-x="819" 
d="M493 909c-187 0 -313 147 -282 329c31 172 198 310 375 310c190 0 315 -149 282 -329c-30 -173 -195 -310 -375 -310zM489 995c134 0 262 109 285 243c23 123 -60 221 -184 221c-134 0 -261 -108 -285 -240c-22 -125 60 -224 184 -224z" />
    <glyph glyph-name="guillemotright" unicode="&#xbb;" horiz-adv-x="933" 
d="M14 104l380 377l-242 377h116l247 -377l-375 -377h-126zM368 104l381 377l-243 377h119l247 -377l-375 -377h-129z" />
    <glyph glyph-name="onequarter" unicode="&#xbc;" horiz-adv-x="1688" 
d="M1410 1536h148l-1341 -1536h-151zM392 614h-134l141 798h-137l22 124h272zM1572 922l-105 -604h89l-22 -123h-89l-34 -195h-135l34 195h-443l14 85l512 642h179zM1331 318l80 458l-354 -458h274z" />
    <glyph glyph-name="onehalf" unicode="&#xbd;" horiz-adv-x="1747" 
d="M1410 1536h148l-1341 -1536h-151zM392 614h-134l141 798h-137l22 124h272zM1656 663c-21 -143 -124 -257 -454 -539h389l-21 -124h-611l8 71c471 413 541 499 560 597c18 103 -42 142 -111 142c-98 1 -170 -66 -189 -159l-133 10c31 172 162 275 325 274
c162 0 264 -102 237 -272z" />
    <glyph glyph-name="threequarters" unicode="&#xbe;" horiz-adv-x="1911" 
d="M743 881c-27 -155 -175 -279 -338 -279c-165 0 -280 119 -252 278l134 -9c-14 -83 42 -140 123 -140c96 0 185 76 202 173c16 87 -39 148 -129 148h-88l20 115h70c74 0 146 64 160 140c10 69 -34 114 -101 114c-74 0 -139 -54 -151 -121l-131 12c25 142 148 236 285 236
c147 0 243 -109 219 -246c-13 -76 -60 -138 -127 -175c80 -48 124 -137 104 -246zM1635 1536h149l-1342 -1536h-150zM1798 922l-106 -604h90l-22 -123h-90l-34 -195h-134l34 195h-443l14 85l512 642h179zM1557 318l80 459l-354 -459h274z" />
    <glyph glyph-name="questiondown" unicode="&#xbf;" horiz-adv-x="1016" 
d="M588 844c-61 0 -102 52 -91 111c8 52 56 92 107 92c60 0 103 -51 92 -112c-9 -49 -59 -91 -108 -91zM356 -516c-256 0 -409 177 -367 420c69 386 421 302 465 548l26 151h126l-26 -143c-65 -370 -410 -230 -471 -575c-29 -166 73 -281 249 -281c172 0 323 122 364 282
l122 -10c-48 -229 -253 -392 -488 -392z" />
    <glyph glyph-name="Agrave" unicode="&#xc0;" horiz-adv-x="1335" 
d="M966 1720l-62 -61l-289 289l93 89zM1061 0l-54 262h-749l-147 -262h-160l909 1573l356 -1573h-155zM332 394h647l-175 841z" />
    <glyph glyph-name="Aacute" unicode="&#xc1;" horiz-adv-x="1335" 
d="M1225 1949l-382 -290l-48 61l364 318zM-49 0l909 1573l356 -1573h-155l-54 262h-749l-147 -262h-160zM332 394h647l-175 841z" />
    <glyph glyph-name="Acircumflex" unicode="&#xc2;" horiz-adv-x="1335" 
d="M928 1918l-244 -255l-69 43l253 306h140l149 -306l-78 -43zM1061 0l-54 262h-749l-147 -262h-160l909 1573l356 -1573h-155zM332 394h647l-175 841z" />
    <glyph glyph-name="Atilde" unicode="&#xc3;" horiz-adv-x="1335" 
d="M779 1825c-78 0 -131 -76 -148 -167l-102 10c25 143 114 259 247 259c97 0 137 -61 167 -117c15 -29 38 -55 86 -55c71 0 125 62 143 166l100 -10c-28 -155 -118 -259 -247 -259c-103 0 -139 66 -166 117c-19 35 -39 56 -80 56zM-49 0l909 1573l356 -1573h-155l-54 262
h-749l-147 -262h-160zM332 394h647l-175 841z" />
    <glyph glyph-name="Adieresis" unicode="&#xc4;" horiz-adv-x="1335" 
d="M709 1655c-59 0 -102 51 -91 110c8 53 58 92 107 92c60 0 103 -50 92 -112c-9 -50 -58 -90 -108 -90zM1069 1655c-60 0 -103 51 -92 110c9 53 59 92 108 92c61 0 102 -50 91 -112c-9 -50 -56 -90 -107 -90zM1061 0l-54 262h-749l-147 -262h-160l909 1573l356 -1573h-155z
M332 394h647l-175 841z" />
    <glyph glyph-name="Aring" unicode="&#xc5;" horiz-adv-x="1335" 
d="M891 1667c-117 0 -198 98 -179 214c20 109 124 195 232 195c116 0 195 -97 174 -214c-18 -107 -120 -195 -227 -195zM789 1862c-11 -68 31 -118 97 -118c74 0 145 60 158 137c12 65 -30 119 -94 119c-76 0 -147 -64 -161 -138zM1061 0l-54 262h-749l-147 -262h-160
l909 1573l356 -1573h-155zM332 394h647l-175 841z" />
    <glyph glyph-name="AE" unicode="&#xc6;" horiz-adv-x="1768" 
d="M1829 1395h-688l-99 -556h602l-25 -141h-602l-97 -557h688l-24 -141h-826l65 373h-497l-213 -373h-163l888 1536h1016zM847 507l159 907h-86l-518 -907h445z" />
    <glyph glyph-name="Ccedilla" unicode="&#xc7;" horiz-adv-x="1505" 
d="M1069 1556c226 0 414 -94 533 -246l-114 -87c-95 120 -244 193 -425 193c-363 0 -709 -293 -773 -658c-63 -355 172 -638 525 -638c189 0 371 78 513 204l89 -103c-164 -145 -373 -236 -589 -241l-82 -119c147 30 251 -60 228 -195c-20 -111 -121 -198 -233 -198
c-95 0 -191 60 -221 132l78 25c24 -43 88 -72 139 -72c73 0 142 59 154 133c16 93 -66 131 -190 88l-67 48l105 161c-401 36 -660 378 -586 795c75 431 484 778 916 778z" />
    <glyph glyph-name="Egrave" unicode="&#xc8;" horiz-adv-x="1148" 
d="M931 1720l-62 -61l-289 289l93 89zM1211 1400h-686l-99 -564h601l-25 -136h-600l-99 -564h686l-23 -136h-827l270 1536h827z" />
    <glyph glyph-name="Eacute" unicode="&#xc9;" horiz-adv-x="1148" 
d="M1190 1949l-382 -290l-48 61l364 318zM1211 1400h-686l-99 -564h601l-25 -136h-600l-99 -564h686l-23 -136h-827l270 1536h827z" />
    <glyph glyph-name="Ecircumflex" unicode="&#xca;" horiz-adv-x="1148" 
d="M893 1918l-244 -255l-69 43l253 306h140l149 -306l-78 -43zM1211 1400h-686l-99 -564h601l-25 -136h-600l-99 -564h686l-23 -136h-827l270 1536h827z" />
    <glyph glyph-name="Edieresis" unicode="&#xcb;" horiz-adv-x="1148" 
d="M674 1655c-59 0 -102 51 -91 110c8 53 58 92 107 92c60 0 103 -50 92 -112c-9 -50 -58 -90 -108 -90zM1034 1655c-60 0 -103 51 -92 110c9 53 59 92 108 92c61 0 102 -50 91 -112c-9 -50 -56 -90 -107 -90zM1211 1400h-686l-99 -564h601l-25 -136h-600l-99 -564h686
l-23 -136h-827l270 1536h827z" />
    <glyph glyph-name="Igrave" unicode="&#xcc;" horiz-adv-x="586" 
d="M525 1659l-289 289l93 89l258 -317zM139 0l270 1536h141l-270 -1536h-141z" />
    <glyph glyph-name="Iacute" unicode="&#xcd;" horiz-adv-x="586" 
d="M464 1659l-48 61l364 318l66 -89zM139 0l270 1536h141l-270 -1536h-141z" />
    <glyph glyph-name="Icircumflex" unicode="&#xce;" horiz-adv-x="586" 
d="M305 1663l-69 43l253 306h140l149 -306l-78 -43l-151 255zM139 0l270 1536h141l-270 -1536h-141z" />
    <glyph glyph-name="Idieresis" unicode="&#xcf;" horiz-adv-x="586" 
d="M330 1655c-59 0 -102 51 -91 110c8 53 58 92 107 92c60 0 103 -50 92 -112c-9 -50 -58 -90 -108 -90zM690 1655c-60 0 -103 51 -92 110c9 53 59 92 108 92c61 0 102 -50 91 -112c-9 -50 -56 -90 -107 -90zM139 0l270 1536h141l-270 -1536h-141z" />
    <glyph glyph-name="Eth" unicode="&#xd0;" horiz-adv-x="1496" 
d="M812 1536c423 0 711 -349 635 -778c-73 -419 -472 -758 -896 -758h-412l125 711h-160l17 99h160l128 726h403zM1310 778c63 352 -164 617 -515 617h-272l-103 -585h281l-17 -99h-281l-100 -570h261c351 0 682 275 746 637z" />
    <glyph glyph-name="Ntilde" unicode="&#xd1;" horiz-adv-x="1584" 
d="M894 1825c-78 0 -131 -76 -148 -167l-102 10c25 143 114 259 247 259c97 0 137 -61 167 -117c15 -29 38 -55 86 -55c71 0 125 62 143 166l100 -10c-28 -155 -118 -259 -247 -259c-103 0 -139 66 -166 117c-19 35 -39 56 -80 56zM1548 1536l-282 -1596l-776 1273
l-212 -1213h-141l281 1598l777 -1273l214 1211h139z" />
    <glyph glyph-name="Ograve" unicode="&#xd2;" horiz-adv-x="1776" 
d="M1121 1659l-289 289l93 89l258 -317zM810 -20c-441 0 -735 357 -657 798c75 431 484 778 916 778c441 0 735 -357 657 -798c-76 -431 -485 -778 -916 -778zM815 120c365 0 709 293 774 658c62 355 -170 638 -526 638c-363 0 -709 -293 -773 -658
c-63 -355 172 -638 525 -638z" />
    <glyph glyph-name="Oacute" unicode="&#xd3;" horiz-adv-x="1776" 
d="M1060 1659l-48 61l364 318l66 -89zM810 -20c-441 0 -735 357 -657 798c75 431 484 778 916 778c441 0 735 -357 657 -798c-76 -431 -485 -778 -916 -778zM815 120c365 0 709 293 774 658c62 355 -170 638 -526 638c-363 0 -709 -293 -773 -658
c-63 -355 172 -638 525 -638z" />
    <glyph glyph-name="Ocircumflex" unicode="&#xd4;" horiz-adv-x="1776" 
d="M901 1663l-69 43l253 306h140l149 -306l-78 -43l-151 255zM810 -20c-441 0 -735 357 -657 798c75 431 484 778 916 778c441 0 735 -357 657 -798c-76 -431 -485 -778 -916 -778zM815 120c365 0 709 293 774 658c62 355 -170 638 -526 638c-363 0 -709 -293 -773 -658
c-63 -355 172 -638 525 -638z" />
    <glyph glyph-name="Otilde" unicode="&#xd5;" horiz-adv-x="1776" 
d="M1242 1652c-103 0 -139 66 -166 117c-19 35 -39 56 -80 56c-78 0 -131 -76 -148 -167l-102 10c25 143 114 259 247 259c97 0 137 -61 167 -117c15 -29 38 -55 86 -55c71 0 125 62 143 166l100 -10c-28 -155 -118 -259 -247 -259zM810 -20c-441 0 -735 357 -657 798
c75 431 484 778 916 778c441 0 735 -357 657 -798c-76 -431 -485 -778 -916 -778zM815 120c365 0 709 293 774 658c62 355 -170 638 -526 638c-363 0 -709 -293 -773 -658c-63 -355 172 -638 525 -638z" />
    <glyph glyph-name="Odieresis" unicode="&#xd6;" horiz-adv-x="1776" 
d="M926 1655c-59 0 -102 51 -91 110c8 53 58 92 107 92c60 0 103 -50 92 -112c-9 -50 -58 -90 -108 -90zM1286 1655c-60 0 -103 51 -92 110c9 53 59 92 108 92c61 0 102 -50 91 -112c-9 -50 -56 -90 -107 -90zM810 -20c-441 0 -735 357 -657 798c75 431 484 778 916 778
c441 0 735 -357 657 -798c-76 -431 -485 -778 -916 -778zM815 120c365 0 709 293 774 658c62 355 -170 638 -526 638c-363 0 -709 -293 -773 -658c-63 -355 172 -638 525 -638z" />
    <glyph glyph-name="multiply" unicode="&#xd7;" horiz-adv-x="1047" 
d="M246 287l-90 91l276 277l-276 275l90 91l278 -275l276 275l91 -92l-277 -274l277 -276l-91 -92l-276 276z" />
    <glyph glyph-name="Oslash" unicode="&#xd8;" horiz-adv-x="1776" 
d="M1545 1373c151 -146 225 -367 181 -615c-76 -431 -485 -778 -916 -778c-147 0 -278 40 -384 109l-143 -164l-99 63l151 173c-152 147 -226 368 -182 617c75 431 484 778 916 778c148 0 280 -40 387 -111l143 164l95 -65zM290 758c-35 -197 22 -372 140 -488l931 1066
c-83 51 -184 80 -298 80c-363 0 -709 -293 -773 -658zM1589 778c34 196 -21 371 -138 487l-930 -1067c82 -50 182 -78 294 -78c365 0 709 293 774 658z" />
    <glyph glyph-name="Ugrave" unicode="&#xd9;" horiz-adv-x="1513" 
d="M987 1659l-289 289l93 89l258 -317zM676 -20c-331 0 -538 230 -485 531l182 1025h141l-179 -1014c-42 -232 106 -402 346 -402c250 0 469 180 511 412l177 1004h141l-183 -1035c-54 -301 -329 -521 -651 -521z" />
    <glyph glyph-name="Uacute" unicode="&#xda;" horiz-adv-x="1513" 
d="M926 1659l-48 61l364 318l66 -89zM676 -20c-331 0 -538 230 -485 531l182 1025h141l-179 -1014c-42 -232 106 -402 346 -402c250 0 469 180 511 412l177 1004h141l-183 -1035c-54 -301 -329 -521 -651 -521z" />
    <glyph glyph-name="Ucircumflex" unicode="&#xdb;" horiz-adv-x="1513" 
d="M767 1663l-69 43l253 306h140l149 -306l-78 -43l-151 255zM676 -20c-331 0 -538 230 -485 531l182 1025h141l-179 -1014c-42 -232 106 -402 346 -402c250 0 469 180 511 412l177 1004h141l-183 -1035c-54 -301 -329 -521 -651 -521z" />
    <glyph glyph-name="Udieresis" unicode="&#xdc;" horiz-adv-x="1513" 
d="M792 1655c-59 0 -102 51 -91 110c8 53 58 92 107 92c60 0 103 -50 92 -112c-9 -50 -58 -90 -108 -90zM1152 1655c-60 0 -103 51 -92 110c9 53 59 92 108 92c61 0 102 -50 91 -112c-9 -50 -56 -90 -107 -90zM676 -20c-331 0 -538 230 -485 531l182 1025h141l-179 -1014
c-42 -232 106 -402 346 -402c250 0 469 180 511 412l177 1004h141l-183 -1035c-54 -301 -329 -521 -651 -521z" />
    <glyph glyph-name="Yacute" unicode="&#xdd;" horiz-adv-x="1247" 
d="M1177 1949l-382 -290l-48 61l364 318zM1416 1536l-679 -811l-128 -725h-141l128 727l-392 809h172l315 -663l550 663h175z" />
    <glyph glyph-name="Thorn" unicode="&#xde;" horiz-adv-x="1245" 
d="M900 1325c233 0 392 -195 350 -435c-41 -227 -257 -409 -489 -409h-403l-84 -481h-136l232 1325h2l35 201h136l-35 -201h392zM1114 913c27 161 -73 276 -240 276h-390l-101 -572h380c168 0 320 125 351 296z" />
    <glyph glyph-name="germandbls" unicode="&#xdf;" horiz-adv-x="1270" 
d="M1211 1113c-25 -141 -113 -262 -232 -337c142 -67 222 -216 191 -393c-41 -227 -242 -383 -459 -383h-214l24 141h183c148 0 303 99 333 268c29 163 -80 290 -251 290h-131l20 117h49c166 0 328 138 360 313c29 165 -78 285 -261 285c-197 0 -370 -136 -401 -312
l-194 -1102h-136l196 1112c42 249 272 424 535 424c268 0 430 -181 388 -423z" />
    <glyph glyph-name="agrave" unicode="&#xe0;" horiz-adv-x="1261" 
d="M773 1147l-62 -61l-289 289l93 89zM1032 963h136l-168 -963h-136l27 160c-101 -109 -243 -178 -404 -178c-266 0 -455 228 -406 509c48 272 306 490 563 490c169 0 293 -75 358 -192zM508 115c208 0 404 168 442 376c36 199 -94 357 -293 357c-207 0 -405 -169 -442 -376
c-36 -199 95 -357 293 -357z" />
    <glyph glyph-name="aacute" unicode="&#xe1;" horiz-adv-x="1261" 
d="M1032 1376l-382 -290l-48 61l364 318zM1032 963h136l-168 -963h-136l27 160c-101 -109 -243 -178 -404 -178c-266 0 -455 228 -406 509c48 272 306 490 563 490c169 0 293 -75 358 -192zM508 115c208 0 404 168 442 376c36 199 -94 357 -293 357
c-207 0 -405 -169 -442 -376c-36 -199 95 -357 293 -357z" />
    <glyph glyph-name="acircumflex" unicode="&#xe2;" horiz-adv-x="1261" 
d="M735 1345l-244 -255l-69 43l253 306h140l149 -306l-78 -43zM1032 963h136l-168 -963h-136l27 160c-101 -109 -243 -178 -404 -178c-266 0 -455 228 -406 509c48 272 306 490 563 490c169 0 293 -75 358 -192zM508 115c208 0 404 168 442 376c36 199 -94 357 -293 357
c-207 0 -405 -169 -442 -376c-36 -199 95 -357 293 -357z" />
    <glyph glyph-name="atilde" unicode="&#xe3;" horiz-adv-x="1261" 
d="M586 1252c-78 0 -131 -76 -148 -167l-102 10c25 143 114 259 247 259c97 0 137 -61 167 -117c15 -29 38 -55 86 -55c71 0 125 62 143 166l100 -10c-28 -155 -118 -259 -247 -259c-103 0 -139 66 -166 117c-19 35 -39 56 -80 56zM1032 963h136l-168 -963h-136l27 160
c-101 -109 -243 -178 -404 -178c-266 0 -455 228 -406 509c48 272 306 490 563 490c169 0 293 -75 358 -192zM508 115c208 0 404 168 442 376c36 199 -94 357 -293 357c-207 0 -405 -169 -442 -376c-36 -199 95 -357 293 -357z" />
    <glyph glyph-name="adieresis" unicode="&#xe4;" horiz-adv-x="1261" 
d="M527 1144c-59 0 -102 50 -91 109c9 53 58 92 108 92c58 0 101 -49 91 -111c-9 -50 -59 -90 -108 -90zM887 1144c-60 0 -103 50 -92 109c9 53 58 92 108 92c60 0 102 -49 91 -111c-9 -50 -57 -90 -107 -90zM1032 963h136l-168 -963h-136l27 160
c-101 -109 -243 -178 -404 -178c-266 0 -455 228 -406 509c48 272 306 490 563 490c169 0 293 -75 358 -192zM508 115c208 0 404 168 442 376c36 199 -94 357 -293 357c-207 0 -405 -169 -442 -376c-36 -199 95 -357 293 -357z" />
    <glyph glyph-name="aring" unicode="&#xe5;" horiz-adv-x="1261" 
d="M723 1147c-118 0 -199 99 -178 214c18 109 122 195 230 195c116 0 195 -96 176 -214c-19 -107 -122 -195 -228 -195zM622 1342c-12 -68 29 -117 95 -117c74 0 146 60 160 136c11 65 -30 120 -96 120c-75 0 -146 -65 -159 -139zM1032 963h136l-168 -963h-136l27 160
c-101 -109 -243 -178 -404 -178c-266 0 -455 228 -406 509c48 272 306 490 563 490c169 0 293 -75 358 -192zM508 115c208 0 404 168 442 376c36 199 -94 357 -293 357c-207 0 -405 -169 -442 -376c-36 -199 95 -357 293 -357z" />
    <glyph glyph-name="ae" unicode="&#xe6;" horiz-adv-x="1813" 
d="M1329 981c279 0 471 -216 423 -492l-4 -22h-872v-1c-33 -202 101 -361 299 -361c131 0 258 67 345 170l111 -59c-114 -149 -283 -234 -457 -234c-167 0 -300 78 -372 199c-146 -123 -314 -200 -443 -200c-211 0 -337 129 -305 314c32 181 195 291 544 291h179
c1 4 3 8 4 12l6 37c26 140 -58 235 -199 235c-118 0 -240 -69 -287 -159l-127 53c71 131 239 218 416 218c160 0 278 -72 321 -185c110 112 261 184 418 184zM1327 857c-171 0 -330 -108 -408 -262l-3 -17h712c-6 164 -130 279 -301 279zM366 102c113 0 264 80 388 199
c-12 54 -14 113 -5 175h-172c-261 0 -369 -84 -391 -203c-18 -105 53 -171 180 -171z" />
    <glyph glyph-name="ccedilla" unicode="&#xe7;" horiz-adv-x="1105" 
d="M506 115c154 0 294 90 375 215l118 -68c-103 -161 -279 -268 -464 -279l-84 -122c147 30 251 -60 228 -195c-20 -111 -121 -198 -233 -198c-95 0 -191 60 -221 132l78 25c24 -43 88 -72 139 -72c73 0 142 59 154 133c16 93 -66 131 -190 88l-67 48l107 163
c-252 28 -412 243 -366 506c49 273 305 490 579 490c207 0 361 -120 412 -291l-130 -47c-37 124 -141 204 -285 204c-213 0 -405 -165 -442 -375c-36 -202 90 -357 292 -357z" />
    <glyph glyph-name="egrave" unicode="&#xe8;" horiz-adv-x="1143" 
d="M784 1159l-62 -61l-289 289l93 89zM659 981c279 0 471 -216 423 -492l-4 -22h-872v-1c-33 -202 101 -361 299 -361c131 0 258 67 345 170l111 -59c-114 -149 -283 -234 -457 -234c-286 0 -472 228 -423 509c48 272 304 490 578 490zM657 857c-177 0 -342 -116 -416 -279
h717c-6 164 -130 279 -301 279z" />
    <glyph glyph-name="eacute" unicode="&#xe9;" horiz-adv-x="1143" 
d="M1043 1388l-382 -290l-48 61l364 318zM659 981c279 0 471 -216 423 -492l-4 -22h-872v-1c-33 -202 101 -361 299 -361c131 0 258 67 345 170l111 -59c-114 -149 -283 -234 -457 -234c-286 0 -472 228 -423 509c48 272 304 490 578 490zM657 857
c-177 0 -342 -116 -416 -279h717c-6 164 -130 279 -301 279z" />
    <glyph glyph-name="ecircumflex" unicode="&#xea;" horiz-adv-x="1143" 
d="M746 1357l-244 -255l-69 43l253 306h140l149 -306l-78 -43zM659 981c279 0 471 -216 423 -492l-4 -22h-872v-1c-33 -202 101 -361 299 -361c131 0 258 67 345 170l111 -59c-114 -149 -283 -234 -457 -234c-286 0 -472 228 -423 509c48 272 304 490 578 490zM657 857
c-177 0 -342 -116 -416 -279h717c-6 164 -130 279 -301 279z" />
    <glyph glyph-name="edieresis" unicode="&#xeb;" horiz-adv-x="1143" 
d="M538 1156c-59 0 -102 50 -91 109c9 53 58 92 108 92c58 0 101 -49 91 -111c-9 -50 -59 -90 -108 -90zM898 1156c-60 0 -103 50 -92 109c9 53 58 92 108 92c60 0 102 -49 91 -111c-9 -50 -57 -90 -107 -90zM659 981c279 0 471 -216 423 -492l-4 -22h-872v-1
c-33 -202 101 -361 299 -361c131 0 258 67 345 170l111 -59c-114 -149 -283 -234 -457 -234c-286 0 -472 228 -423 509c48 272 304 490 578 490zM657 857c-177 0 -342 -116 -416 -279h717c-6 164 -130 279 -301 279z" />
    <glyph glyph-name="igrave" unicode="&#xec;" horiz-adv-x="489" 
d="M375 1085l-289 289l93 89l258 -317zM93 0l168 963h136l-168 -963h-136z" />
    <glyph glyph-name="iacute" unicode="&#xed;" horiz-adv-x="489" 
d="M314 1085l-48 61l364 318l66 -89zM93 0l168 963h136l-168 -963h-136z" />
    <glyph glyph-name="icircumflex" unicode="&#xee;" horiz-adv-x="489" 
d="M155 1089l-69 43l253 306h140l149 -306l-78 -43l-151 255zM93 0l168 963h136l-168 -963h-136z" />
    <glyph glyph-name="idieresis" unicode="&#xef;" horiz-adv-x="489" 
d="M191 1143c-59 0 -102 50 -91 109c9 53 58 92 108 92c58 0 101 -49 91 -111c-9 -50 -59 -90 -108 -90zM551 1143c-60 0 -103 50 -92 109c9 53 58 92 108 92c60 0 102 -49 91 -111c-9 -50 -57 -90 -107 -90zM93 0l168 963h136l-168 -963h-136z" />
    <glyph glyph-name="eth" unicode="&#xf0;" horiz-adv-x="1217" 
d="M900 1308c179 -177 263 -484 201 -844l-2 1l-1 -7c-48 -283 -307 -476 -586 -476c-288 0 -483 228 -434 509c48 272 312 490 591 490c136 0 251 -55 329 -143c-18 172 -79 304 -170 393l-134 -141l-62 51l135 140c-81 57 -180 86 -290 87l28 101c129 0 243 -40 337 -110
l111 115l58 -49zM971 491c36 207 -99 372 -304 372c-218 0 -422 -175 -460 -391c-35 -208 99 -373 307 -373c215 0 419 175 457 392z" />
    <glyph glyph-name="ntilde" unicode="&#xf1;" horiz-adv-x="1066" 
d="M946 1348l100 -10c-28 -155 -118 -259 -247 -259c-103 0 -139 66 -166 117c-19 35 -39 56 -80 56c-78 0 -131 -76 -148 -167l-102 10c25 143 114 259 247 259c97 0 137 -61 167 -117c15 -29 38 -55 86 -55c71 0 125 62 143 166zM646 981c197 0 330 -161 297 -354
l-110 -627h-137l110 627c22 130 -59 228 -181 228c-132 0 -255 -99 -285 -220l-111 -635h-136l168 963h136l-15 -84c74 64 167 102 264 102z" />
    <glyph glyph-name="ograve" unicode="&#xf2;" horiz-adv-x="1163" 
d="M711 1086l-289 289l93 89l258 -317zM503 -18c-284 0 -472 228 -423 509c47 272 305 490 579 490c283 0 471 -228 422 -509c-47 -272 -305 -490 -578 -490zM506 115c207 0 404 168 442 376c36 199 -96 356 -292 356c-210 0 -405 -168 -442 -375c-36 -199 93 -357 292 -357
z" />
    <glyph glyph-name="oacute" unicode="&#xf3;" horiz-adv-x="1163" 
d="M650 1086l-48 61l364 318l66 -89zM503 -18c-284 0 -472 228 -423 509c47 272 305 490 579 490c283 0 471 -228 422 -509c-47 -272 -305 -490 -578 -490zM506 115c207 0 404 168 442 376c36 199 -96 356 -292 356c-210 0 -405 -168 -442 -375c-36 -199 93 -357 292 -357z
" />
    <glyph glyph-name="ocircumflex" unicode="&#xf4;" horiz-adv-x="1163" 
d="M491 1090l-69 43l253 306h140l149 -306l-78 -43l-151 255zM503 -18c-284 0 -472 228 -423 509c47 272 305 490 579 490c283 0 471 -228 422 -509c-47 -272 -305 -490 -578 -490zM506 115c207 0 404 168 442 376c36 199 -96 356 -292 356c-210 0 -405 -168 -442 -375
c-36 -199 93 -357 292 -357z" />
    <glyph glyph-name="otilde" unicode="&#xf5;" horiz-adv-x="1163" 
d="M832 1079c-103 0 -139 66 -166 117c-19 35 -39 56 -80 56c-78 0 -131 -76 -148 -167l-102 10c25 143 114 259 247 259c97 0 137 -61 167 -117c15 -29 38 -55 86 -55c71 0 125 62 143 166l100 -10c-28 -155 -118 -259 -247 -259zM503 -18c-284 0 -472 228 -423 509
c47 272 305 490 579 490c283 0 471 -228 422 -509c-47 -272 -305 -490 -578 -490zM506 115c207 0 404 168 442 376c36 199 -96 356 -292 356c-210 0 -405 -168 -442 -375c-36 -199 93 -357 292 -357z" />
    <glyph glyph-name="odieresis" unicode="&#xf6;" horiz-adv-x="1163" 
d="M527 1144c-59 0 -102 50 -91 109c9 53 58 92 108 92c58 0 101 -49 91 -111c-9 -50 -59 -90 -108 -90zM887 1144c-60 0 -103 50 -92 109c9 53 58 92 108 92c60 0 102 -49 91 -111c-9 -50 -57 -90 -107 -90zM503 -18c-284 0 -472 228 -423 509c47 272 305 490 579 490
c283 0 471 -228 422 -509c-47 -272 -305 -490 -578 -490zM506 115c207 0 404 168 442 376c36 199 -96 356 -292 356c-210 0 -405 -168 -442 -375c-36 -199 93 -357 292 -357z" />
    <glyph glyph-name="divide" unicode="&#xf7;" horiz-adv-x="943" 
d="M468 923c-55 0 -104 45 -104 105c0 57 49 106 104 106c58 0 108 -49 108 -106c0 -60 -50 -105 -108 -105zM118 608v130h706v-130h-706zM468 213c-55 0 -104 45 -104 106c0 56 49 104 104 104c58 0 108 -48 108 -104c0 -61 -50 -106 -108 -106z" />
    <glyph glyph-name="oslash" unicode="&#xf8;" horiz-adv-x="1163" 
d="M969 860c94 -93 139 -232 112 -388c-47 -272 -305 -490 -578 -490c-93 0 -175 24 -242 67l-149 -171l-71 45l154 177c-96 93 -142 234 -115 391c47 272 305 490 579 490c94 0 178 -25 245 -69l149 170l68 -47zM214 472c-20 -108 9 -204 72 -269l527 604
c-45 26 -98 40 -157 40c-210 0 -405 -168 -442 -375zM948 491c19 106 -9 200 -70 265l-526 -603c43 -24 96 -38 154 -38c207 0 404 168 442 376z" />
    <glyph glyph-name="ugrave" unicode="&#xf9;" horiz-adv-x="1031" 
d="M643 1086l-289 289l93 89l258 -317zM435 -18c-222 0 -348 151 -310 368l107 613h137l-106 -609c-26 -147 50 -239 175 -239c137 0 257 103 283 249l104 599h137l-109 -623c-37 -218 -206 -358 -418 -358z" />
    <glyph glyph-name="uacute" unicode="&#xfa;" horiz-adv-x="1031" 
d="M582 1086l-48 61l364 318l66 -89zM435 -18c-222 0 -348 151 -310 368l107 613h137l-106 -609c-26 -147 50 -239 175 -239c137 0 257 103 283 249l104 599h137l-109 -623c-37 -218 -206 -358 -418 -358z" />
    <glyph glyph-name="ucircumflex" unicode="&#xfb;" horiz-adv-x="1031" 
d="M423 1090l-69 43l253 306h140l149 -306l-78 -43l-151 255zM435 -18c-222 0 -348 151 -310 368l107 613h137l-106 -609c-26 -147 50 -239 175 -239c137 0 257 103 283 249l104 599h137l-109 -623c-37 -218 -206 -358 -418 -358z" />
    <glyph glyph-name="udieresis" unicode="&#xfc;" horiz-adv-x="1031" 
d="M459 1144c-59 0 -102 50 -91 109c9 53 58 92 108 92c58 0 101 -49 91 -111c-9 -50 -59 -90 -108 -90zM819 1144c-60 0 -103 50 -92 109c9 53 58 92 108 92c60 0 102 -49 91 -111c-9 -50 -57 -90 -107 -90zM435 -18c-222 0 -348 151 -310 368l107 613h137l-106 -609
c-26 -147 50 -239 175 -239c137 0 257 103 283 249l104 599h137l-109 -623c-37 -218 -206 -358 -418 -358z" />
    <glyph glyph-name="yacute" unicode="&#xfd;" horiz-adv-x="958" 
d="M918 1376l-382 -290l-48 61l364 318zM868 963h156l-840 -1455h-149l285 501l-219 954h150l172 -805z" />
    <glyph glyph-name="thorn" unicode="&#xfe;" horiz-adv-x="1254" 
d="M767 981c267 0 455 -228 406 -509c-48 -272 -305 -490 -562 -490c-165 0 -287 72 -354 184l-112 -647h-137l357 2017h136l-127 -721c102 102 239 166 393 166zM1039 491c36 199 -95 356 -291 356c-208 0 -405 -168 -443 -375c-36 -199 95 -357 294 -357
c206 0 403 168 440 376z" />
    <glyph glyph-name="ydieresis" unicode="&#xff;" horiz-adv-x="958" 
d="M413 1144c-59 0 -102 50 -91 109c9 53 58 92 108 92c58 0 101 -49 91 -111c-9 -50 -59 -90 -108 -90zM773 1144c-60 0 -103 50 -92 109c9 53 58 92 108 92c60 0 102 -49 91 -111c-9 -50 -57 -90 -107 -90zM868 963h156l-840 -1455h-149l285 501l-219 954h150l172 -805z
" />
    <glyph glyph-name="Amacron" unicode="&#x100;" horiz-adv-x="1335" 
d="M1231 1850l-18 -96h-634l17 96h635zM-49 0l909 1573l356 -1573h-155l-54 262h-749l-147 -262h-160zM332 394h647l-175 841z" />
    <glyph glyph-name="amacron" unicode="&#x101;" horiz-adv-x="1261" 
d="M1038 1277l-18 -96h-634l17 96h635zM1032 963h136l-168 -963h-136l27 160c-101 -109 -243 -178 -404 -178c-266 0 -455 228 -406 509c48 272 306 490 563 490c169 0 293 -75 358 -192zM508 115c208 0 404 168 442 376c36 199 -94 357 -293 357
c-207 0 -405 -169 -442 -376c-36 -199 95 -357 293 -357z" />
    <glyph glyph-name="Abreve" unicode="&#x102;" horiz-adv-x="1335" 
d="M898 1717c-194 0 -319 126 -286 306h110c-21 -125 39 -216 173 -216c146 0 249 102 270 216h110c-33 -190 -191 -306 -377 -306zM-49 0l909 1573l356 -1573h-155l-54 262h-749l-147 -262h-160zM332 394h647l-175 841z" />
    <glyph glyph-name="abreve" unicode="&#x103;" horiz-adv-x="1261" 
d="M705 1144c-194 0 -319 126 -286 306h110c-21 -125 39 -216 173 -216c146 0 249 102 270 216h110c-33 -190 -191 -306 -377 -306zM1032 963h136l-168 -963h-136l27 160c-101 -109 -243 -178 -404 -178c-266 0 -455 228 -406 509c48 272 306 490 563 490
c169 0 293 -75 358 -192zM508 115c208 0 404 168 442 376c36 199 -94 357 -293 357c-207 0 -405 -169 -442 -376c-36 -199 95 -357 293 -357z" />
    <glyph glyph-name="Aogonek" unicode="&#x104;" horiz-adv-x="1335" 
d="M1218 -332l56 -100c-87 -73 -176 -100 -269 -97c-138 5 -214 87 -190 219c21 125 131 234 270 310h-24l-54 262h-749l-147 -262h-160l909 1573l356 -1572l2 -1c-138 -65 -280 -172 -304 -301c-13 -77 27 -113 99 -113c70 0 144 30 205 82zM332 394h647l-175 841z" />
    <glyph glyph-name="aogonek" unicode="&#x105;" horiz-adv-x="1261" 
d="M795 -414c70 0 144 30 205 82l56 -100c-87 -73 -176 -100 -269 -97c-138 5 -214 87 -190 219c21 125 131 234 270 310h-3l27 160c-101 -109 -243 -178 -404 -178c-266 0 -455 228 -406 509c48 272 306 490 563 490c169 0 293 -75 358 -192l30 174h136l-168 -963
c-138 -65 -280 -172 -304 -301c-13 -77 27 -113 99 -113zM508 115c208 0 404 168 442 376c36 199 -94 357 -293 357c-207 0 -405 -169 -442 -376c-36 -199 95 -357 293 -357z" />
    <glyph glyph-name="Cacute" unicode="&#x106;" horiz-adv-x="1505" 
d="M1061 1659l-48 61l364 318l66 -89zM810 -20c-441 0 -735 357 -657 798c75 431 484 778 916 778c226 0 414 -94 533 -246l-114 -87c-95 120 -244 193 -425 193c-363 0 -709 -293 -773 -658c-63 -355 172 -638 525 -638c189 0 371 78 513 204l89 -103
c-168 -149 -384 -241 -607 -241z" />
    <glyph glyph-name="cacute" unicode="&#x107;" horiz-adv-x="1105" 
d="M651 1086l-48 61l364 318l66 -89zM503 -18c-284 0 -472 226 -423 509c49 273 305 490 579 490c207 0 361 -120 412 -291l-130 -47c-37 124 -141 204 -285 204c-213 0 -405 -165 -442 -375c-36 -202 90 -357 292 -357c154 0 294 90 375 215l118 -68
c-109 -170 -299 -280 -496 -280z" />
    <glyph glyph-name="Cdotaccent" unicode="&#x10a;" horiz-adv-x="1505" 
d="M1120 1723c-59 0 -102 50 -93 109c11 53 58 92 108 92c59 0 104 -49 91 -111c-7 -50 -57 -90 -106 -90zM810 -20c-441 0 -735 357 -657 798c75 431 484 778 916 778c226 0 414 -94 533 -246l-114 -87c-95 120 -244 193 -425 193c-363 0 -709 -293 -773 -658
c-63 -355 172 -638 525 -638c189 0 371 78 513 204l89 -103c-168 -149 -384 -241 -607 -241z" />
    <glyph glyph-name="cdotaccent" unicode="&#x10b;" horiz-adv-x="1105" 
d="M710 1150c-59 0 -102 50 -93 109c11 53 58 92 108 92c59 0 104 -49 91 -111c-7 -50 -57 -90 -106 -90zM503 -18c-284 0 -472 226 -423 509c49 273 305 490 579 490c207 0 361 -120 412 -291l-130 -47c-37 124 -141 204 -285 204c-213 0 -405 -165 -442 -375
c-36 -202 90 -357 292 -357c154 0 294 90 375 215l118 -68c-109 -170 -299 -280 -496 -280z" />
    <glyph glyph-name="Ccaron" unicode="&#x10c;" horiz-adv-x="1505" 
d="M1035 1698l-147 305l81 45l148 -257l242 257l71 -45l-255 -305h-140zM810 -20c-441 0 -735 357 -657 798c75 431 484 778 916 778c226 0 414 -94 533 -246l-114 -87c-95 120 -244 193 -425 193c-363 0 -709 -293 -773 -658c-63 -355 172 -638 525 -638
c189 0 371 78 513 204l89 -103c-168 -149 -384 -241 -607 -241z" />
    <glyph glyph-name="ccaron" unicode="&#x10d;" horiz-adv-x="1105" 
d="M625 1125l-147 305l81 45l148 -257l242 257l71 -45l-255 -305h-140zM503 -18c-284 0 -472 226 -423 509c49 273 305 490 579 490c207 0 361 -120 412 -291l-130 -47c-37 124 -141 204 -285 204c-213 0 -405 -165 -442 -375c-36 -202 90 -357 292 -357
c154 0 294 90 375 215l118 -68c-109 -170 -299 -280 -496 -280z" />
    <glyph glyph-name="Dcaron" unicode="&#x10e;" horiz-adv-x="1496" 
d="M774 1698l-147 305l81 45l148 -257l242 257l71 -45l-255 -305h-140zM139 0l270 1536h403c423 0 711 -349 635 -778c-73 -419 -472 -758 -896 -758h-412zM303 141h261c351 0 682 275 746 637c63 352 -164 617 -515 617h-272z" />
    <glyph glyph-name="dcaron" unicode="&#x10f;" horiz-adv-x="1263" 
d="M1636 1556c63 0 93 -34 93 -77c0 -23 -7 -49 -25 -73l-294 -399h-111l258 362c-31 14 -50 55 -35 106c18 44 70 81 114 81zM1004 786l131 750h136l-271 -1536h-136l27 160c-101 -109 -243 -178 -404 -178c-266 0 -455 228 -406 509c48 272 306 490 563 490
c171 0 295 -76 360 -195zM508 115c208 0 404 168 442 376c36 199 -94 357 -293 357c-207 0 -405 -169 -442 -376c-36 -199 95 -357 293 -357z" />
    <glyph glyph-name="Dcroat" unicode="&#x110;" horiz-adv-x="1496" 
d="M812 1536c423 0 711 -349 635 -778c-73 -419 -472 -758 -896 -758h-412l125 711h-160l17 99h160l128 726h403zM1310 778c63 352 -164 617 -515 617h-272l-103 -585h281l-17 -99h-281l-100 -570h261c351 0 682 275 746 637z" />
    <glyph glyph-name="dcroat" unicode="&#x111;" horiz-adv-x="1263" 
d="M1371 1286l-17 -99h-145l-209 -1187h-136l27 160c-101 -109 -243 -178 -404 -178c-266 0 -455 228 -406 509c48 272 306 490 563 490c171 0 295 -76 360 -195l70 401h-300l17 99h300l44 250h136l-44 -250h144zM508 115c208 0 404 168 442 376c36 199 -94 357 -293 357
c-207 0 -405 -169 -442 -376c-36 -199 95 -357 293 -357z" />
    <glyph glyph-name="Emacron" unicode="&#x112;" horiz-adv-x="1148" 
d="M1196 1850l-18 -96h-634l17 96h635zM1211 1400h-686l-99 -564h601l-25 -136h-600l-99 -564h686l-23 -136h-827l270 1536h827z" />
    <glyph glyph-name="emacron" unicode="&#x113;" horiz-adv-x="1143" 
d="M1049 1289l-18 -96h-634l17 96h635zM659 981c279 0 471 -216 423 -492l-4 -22h-872v-1c-33 -202 101 -361 299 -361c131 0 258 67 345 170l111 -59c-114 -149 -283 -234 -457 -234c-286 0 -472 228 -423 509c48 272 304 490 578 490zM657 857c-177 0 -342 -116 -416 -279
h717c-6 164 -130 279 -301 279z" />
    <glyph glyph-name="Edotaccent" unicode="&#x116;" horiz-adv-x="1148" 
d="M867 1723c-59 0 -102 50 -93 109c11 53 58 92 108 92c59 0 104 -49 91 -111c-7 -50 -57 -90 -106 -90zM1211 1400h-686l-99 -564h601l-25 -136h-600l-99 -564h686l-23 -136h-827l270 1536h827z" />
    <glyph glyph-name="edotaccent" unicode="&#x117;" horiz-adv-x="1143" 
d="M720 1162c-59 0 -102 50 -93 109c11 53 58 92 108 92c59 0 104 -49 91 -111c-7 -50 -57 -90 -106 -90zM659 981c279 0 471 -216 423 -492l-4 -22h-872v-1c-33 -202 101 -361 299 -361c131 0 258 67 345 170l111 -59c-114 -149 -283 -234 -457 -234
c-286 0 -472 228 -423 509c48 272 304 490 578 490zM657 857c-177 0 -342 -116 -416 -279h717c-6 164 -130 279 -301 279z" />
    <glyph glyph-name="Eogonek" unicode="&#x118;" horiz-adv-x="1148" 
d="M1211 1400h-686l-99 -564h601l-25 -136h-600l-99 -564h686l-23 -136c-138 -65 -280 -172 -304 -301c-13 -77 27 -113 99 -113c70 0 144 30 205 82l56 -100c-87 -73 -176 -100 -269 -97c-138 5 -214 87 -190 219c21 125 131 234 270 310h-694l270 1536h827z" />
    <glyph glyph-name="eogonek" unicode="&#x119;" horiz-adv-x="1143" 
d="M659 981c279 0 471 -216 423 -492l-4 -22h-872v-1c-33 -202 101 -361 299 -361c131 0 258 67 345 170l111 -59c-78 -101 -181 -173 -293 -209c-88 -61 -160 -139 -176 -227c-13 -77 27 -113 99 -113c70 0 144 30 205 82l56 -100c-87 -73 -176 -100 -269 -97
c-138 5 -214 87 -190 219c13 78 61 150 129 211h-18c-286 0 -472 228 -423 509c48 272 304 490 578 490zM657 857c-177 0 -342 -116 -416 -279h717c-6 164 -130 279 -301 279z" />
    <glyph glyph-name="Ecaron" unicode="&#x11a;" horiz-adv-x="1148" 
d="M922 1698h-140l-147 305l81 45l148 -257l242 257l71 -45zM1211 1400h-686l-99 -564h601l-25 -136h-600l-99 -564h686l-23 -136h-827l270 1536h827z" />
    <glyph glyph-name="ecaron" unicode="&#x11b;" horiz-adv-x="1143" 
d="M775 1137h-140l-147 305l81 45l148 -257l242 257l71 -45zM659 981c279 0 471 -216 423 -492l-4 -22h-872v-1c-33 -202 101 -361 299 -361c131 0 258 67 345 170l111 -59c-114 -149 -283 -234 -457 -234c-286 0 -472 228 -423 509c48 272 304 490 578 490zM657 857
c-177 0 -342 -116 -416 -279h717c-6 164 -130 279 -301 279z" />
    <glyph glyph-name="Gbreve" unicode="&#x11e;" horiz-adv-x="1631" 
d="M1149 1717c-194 0 -319 126 -286 306h110c-21 -125 39 -216 173 -216c146 0 249 102 270 216h110c-33 -190 -191 -306 -377 -306zM906 666l23 133h606l-140 -799h-125l13 123c-147 -90 -318 -143 -471 -143c-443 0 -737 355 -658 798c76 433 483 778 916 778
c206 0 405 -93 523 -234l-111 -93c-98 120 -252 187 -417 187c-365 0 -709 -292 -774 -658c-62 -357 171 -638 526 -638c173 0 354 73 492 190l62 356h-465z" />
    <glyph glyph-name="gbreve" unicode="&#x11f;" horiz-adv-x="1261" 
d="M705 1144c-194 0 -319 126 -286 306h110c-21 -125 39 -216 173 -216c146 0 249 102 270 216h110c-33 -190 -191 -306 -377 -306zM1029 963h138l-169 -964c-49 -277 -307 -494 -581 -494c-197 0 -352 115 -410 278l121 66c38 -128 149 -210 293 -210
c207 0 405 168 440 371l25 140c-96 -103 -229 -168 -386 -168c-281 0 -469 228 -420 509c49 273 305 490 576 490c166 0 283 -71 344 -184zM506 115c207 0 406 170 442 376c36 199 -96 356 -292 356c-210 0 -405 -168 -442 -375c-35 -197 93 -357 292 -357z" />
    <glyph glyph-name="Gdotaccent" unicode="&#x120;" horiz-adv-x="1631" 
d="M1153 1723c-59 0 -102 50 -93 109c11 53 58 92 108 92c59 0 104 -49 91 -111c-7 -50 -57 -90 -106 -90zM906 666l23 133h606l-140 -799h-125l13 123c-147 -90 -318 -143 -471 -143c-443 0 -737 355 -658 798c76 433 483 778 916 778c206 0 405 -93 523 -234l-111 -93
c-98 120 -252 187 -417 187c-365 0 -709 -292 -774 -658c-62 -357 171 -638 526 -638c173 0 354 73 492 190l62 356h-465z" />
    <glyph glyph-name="gdotaccent" unicode="&#x121;" horiz-adv-x="1261" 
d="M709 1150c-59 0 -102 50 -93 109c11 53 58 92 108 92c59 0 104 -49 91 -111c-7 -50 -57 -90 -106 -90zM1029 963h138l-169 -964c-49 -277 -307 -494 -581 -494c-197 0 -352 115 -410 278l121 66c38 -128 149 -210 293 -210c207 0 405 168 440 371l25 140
c-96 -103 -229 -168 -386 -168c-281 0 -469 228 -420 509c49 273 305 490 576 490c166 0 283 -71 344 -184zM506 115c207 0 406 170 442 376c36 199 -96 356 -292 356c-210 0 -405 -168 -442 -375c-35 -197 93 -357 292 -357z" />
    <glyph glyph-name="Gcommaaccent" unicode="&#x122;" horiz-adv-x="1631" 
d="M906 666l23 133h606l-140 -799h-125l13 123c-147 -90 -318 -143 -471 -143c-443 0 -737 355 -658 798c76 433 483 778 916 778c206 0 405 -93 523 -234l-111 -93c-98 120 -252 187 -417 187c-365 0 -709 -292 -774 -658c-62 -357 171 -638 526 -638c173 0 354 73 492 190
l62 356h-465zM541 -513l255 420l112 -48l-290 -404z" />
    <glyph glyph-name="gcommaaccent" unicode="&#x123;" horiz-adv-x="1261" 
d="M698 1098c-64 0 -101 49 -88 112c0 8 4 21 8 34l221 404h93l-179 -356c38 -14 62 -56 53 -103c-9 -49 -59 -91 -108 -91zM1029 963h138l-169 -964c-49 -277 -307 -494 -581 -494c-197 0 -352 115 -410 278l121 66c38 -128 149 -210 293 -210c207 0 405 168 440 371
l25 140c-96 -103 -229 -168 -386 -168c-281 0 -469 228 -420 509c49 273 305 490 576 490c166 0 283 -71 344 -184zM506 115c207 0 406 170 442 376c36 199 -96 356 -292 356c-210 0 -405 -168 -442 -375c-35 -197 93 -357 292 -357z" />
    <glyph glyph-name="Hbar" unicode="&#x126;" horiz-adv-x="1603" 
d="M1660 1246l-18 -99h-144l-202 -1147h-140l123 698h-876l-123 -698h-141l202 1147h-149l17 99h149l51 290h141l-51 -290h876l51 290h141l-51 -290h144zM1303 839l55 308h-876l-55 -308h876z" />
    <glyph glyph-name="hbar" unicode="&#x127;" horiz-adv-x="1058" 
d="M641 981c196 0 327 -161 294 -354l-111 -627h-136l110 627c22 130 -58 228 -178 228c-123 0 -242 -92 -277 -208l-114 -647h-136l209 1189h-138l17 99h138l44 248h137l-44 -248h305l-17 -99h-305l-54 -308c71 62 162 100 256 100z" />
    <glyph glyph-name="Itilde" unicode="&#x128;" horiz-adv-x="586" 
d="M646 1652c-103 0 -139 66 -166 117c-19 35 -39 56 -80 56c-78 0 -131 -76 -148 -167l-102 10c25 143 114 259 247 259c97 0 137 -61 167 -117c15 -29 38 -55 86 -55c71 0 125 62 143 166l100 -10c-28 -155 -118 -259 -247 -259zM139 0l270 1536h141l-270 -1536h-141z" />
    <glyph glyph-name="itilde" unicode="&#x129;" horiz-adv-x="489" 
d="M496 1078c-103 0 -139 66 -166 117c-19 35 -39 56 -80 56c-78 0 -131 -76 -148 -167l-102 10c25 143 114 259 247 259c97 0 137 -61 167 -117c15 -29 38 -55 86 -55c71 0 125 62 143 166l100 -10c-28 -155 -118 -259 -247 -259zM93 0l168 963h136l-168 -963h-136z" />
    <glyph glyph-name="Imacron" unicode="&#x12a;" horiz-adv-x="586" 
d="M200 1754l17 96h635l-18 -96h-634zM139 0l270 1536h141l-270 -1536h-141z" />
    <glyph glyph-name="imacron" unicode="&#x12b;" horiz-adv-x="489" 
d="M50 1180l17 96h635l-18 -96h-634zM93 0l168 963h136l-168 -963h-136z" />
    <glyph glyph-name="Iogonek" unicode="&#x12e;" horiz-adv-x="586" 
d="M75 -414c70 0 144 30 205 82l56 -100c-87 -73 -176 -100 -269 -97c-138 5 -214 87 -190 219c21 125 131 234 270 310h-8l270 1536h141l-270 -1536c-138 -65 -280 -172 -304 -301c-13 -77 27 -113 99 -113z" />
    <glyph glyph-name="iogonek" unicode="&#x12f;" horiz-adv-x="489" 
d="M388 1350c59 0 104 -49 91 -111c-7 -50 -57 -90 -106 -90c-59 0 -102 50 -93 109c11 53 58 92 108 92zM229 0c-138 -65 -280 -172 -304 -301c-13 -77 27 -113 99 -113c70 0 144 30 205 82l56 -100c-87 -73 -176 -100 -269 -97c-138 5 -214 87 -190 219
c21 125 131 234 270 310h-3l168 963h136z" />
    <glyph glyph-name="Idotaccent" unicode="&#x130;" horiz-adv-x="586" 
d="M523 1723c-59 0 -102 50 -93 109c11 53 58 92 108 92c59 0 104 -49 91 -111c-7 -50 -57 -90 -106 -90zM139 0l270 1536h141l-270 -1536h-141z" />
    <glyph glyph-name="dotlessi" unicode="&#x131;" horiz-adv-x="489" 
d="M93 0l168 963h136l-168 -963h-136z" />
    <glyph glyph-name="Kcommaaccent" unicode="&#x136;" horiz-adv-x="1256" 
d="M1391 1536l-810 -755l558 -781h-175l-550 762l-134 -762h-141l270 1536h141l-129 -736l786 736h184zM252 -513l255 420l112 -48l-290 -404z" />
    <glyph glyph-name="kcommaaccent" unicode="&#x137;" horiz-adv-x="972" 
d="M993 963l-515 -441l408 -522h-180l-389 499l-88 -499h-136l270 1536h137l-177 -1001l479 428h191zM126 -513l255 420l112 -48l-290 -404z" />
    <glyph glyph-name="Lacute" unicode="&#x139;" horiz-adv-x="972" 
d="M846 1949l-382 -290l-48 61l364 318zM305 141h578l-24 -141h-720l270 1536h141z" />
    <glyph glyph-name="lacute" unicode="&#x13a;" horiz-adv-x="492" 
d="M416 1659l-48 61l364 318l66 -89zM93 0l270 1536h136l-270 -1536h-136z" />
    <glyph glyph-name="Lcommaaccent" unicode="&#x13b;" horiz-adv-x="972" 
d="M305 141h578l-24 -141h-720l270 1536h141zM211 -513l255 420l112 -48l-290 -404z" />
    <glyph glyph-name="lcommaaccent" unicode="&#x13c;" horiz-adv-x="492" 
d="M93 0l270 1536h136l-270 -1536h-136zM-50 -545l-77 32l255 420l112 -48z" />
    <glyph glyph-name="Lcaron" unicode="&#x13d;" horiz-adv-x="972" 
d="M1010 1556c63 0 93 -34 93 -77c0 -23 -7 -49 -25 -73l-294 -399h-111l258 362c-31 14 -50 55 -35 106c18 44 70 81 114 81zM550 1536l-245 -1395h578l-24 -141h-720l270 1536h141z" />
    <glyph glyph-name="lcaron" unicode="&#x13e;" horiz-adv-x="531" 
d="M534 1007l258 362c-31 14 -50 55 -35 106c18 44 70 81 114 81c63 0 93 -34 93 -77c0 -23 -7 -49 -25 -73l-294 -399h-111zM93 0l270 1536h136l-270 -1536h-136z" />
    <glyph glyph-name="Ldot" unicode="&#x13f;" horiz-adv-x="979" 
d="M550 1536l-245 -1395h578l-24 -141h-720l270 1536h141zM822 1012c50 0 88 -45 79 -94c-8 -44 -50 -75 -90 -75c-50 0 -87 41 -77 94c7 40 48 75 88 75z" />
    <glyph glyph-name="ldot" unicode="&#x140;" horiz-adv-x="551" 
d="M93 0l270 1536h136l-270 -1536h-136zM546 735c-50 0 -87 41 -77 94c7 40 48 75 88 75c50 0 88 -45 79 -94c-8 -44 -50 -75 -90 -75z" />
    <glyph glyph-name="Lslash" unicode="&#x141;" horiz-adv-x="972" 
d="M305 141h578l-24 -141h-720l107 611l-120 -80l19 127l124 82l140 796h141l-121 -690l322 214l-19 -127l-326 -216z" />
    <glyph glyph-name="lslash" unicode="&#x142;" horiz-adv-x="565" 
d="M562 908l-20 -123l-151 -96l-121 -689h-136l104 592l-163 -104l20 121l165 105l144 822h136l-127 -724z" />
    <glyph glyph-name="Nacute" unicode="&#x143;" horiz-adv-x="1584" 
d="M1340 1949l-382 -290l-48 61l364 318zM1548 1536l-282 -1596l-776 1273l-212 -1213h-141l281 1598l777 -1273l214 1211h139z" />
    <glyph glyph-name="nacute" unicode="&#x144;" horiz-adv-x="1066" 
d="M999 1376l-382 -290l-48 61l364 318zM646 981c197 0 330 -161 297 -354l-110 -627h-137l110 627c22 130 -59 228 -181 228c-132 0 -255 -99 -285 -220l-111 -635h-136l168 963h136l-15 -84c74 64 167 102 264 102z" />
    <glyph glyph-name="Ncommaaccent" unicode="&#x145;" horiz-adv-x="1584" 
d="M1409 1536h139l-282 -1596l-776 1273l-212 -1213h-141l281 1598l777 -1273zM425 -513l255 420l112 -48l-290 -404z" />
    <glyph glyph-name="ncommaaccent" unicode="&#x146;" horiz-adv-x="1066" 
d="M646 981c197 0 330 -161 297 -354l-110 -627h-137l110 627c22 130 -59 228 -181 228c-132 0 -255 -99 -285 -220l-111 -635h-136l168 963h136l-15 -84c74 64 167 102 264 102zM178 -513l255 420l112 -48l-290 -404z" />
    <glyph glyph-name="Ncaron" unicode="&#x147;" horiz-adv-x="1584" 
d="M1072 1698h-140l-147 305l81 45l148 -257l242 257l71 -45zM1548 1536l-282 -1596l-776 1273l-212 -1213h-141l281 1598l777 -1273l214 1211h139z" />
    <glyph glyph-name="ncaron" unicode="&#x148;" horiz-adv-x="1066" 
d="M731 1125h-140l-147 305l81 45l148 -257l242 257l71 -45zM646 981c197 0 330 -161 297 -354l-110 -627h-137l110 627c22 130 -59 228 -181 228c-132 0 -255 -99 -285 -220l-111 -635h-136l168 963h136l-15 -84c74 64 167 102 264 102z" />
    <glyph glyph-name="Eng" unicode="&#x14a;" horiz-adv-x="1686" 
d="M1650 1536l-271 -1536h-2l-18 -108c-31 -178 -109 -308 -332 -308h-52l12 101c142 -3 210 42 239 210l20 114l2 1l-741 1285l-227 -1295h-141l270 1536h125l748 -1294l228 1294h140z" />
    <glyph glyph-name="eng" unicode="&#x14b;" horiz-adv-x="1065" 
d="M505 -425l12 125c129 -8 146 117 178 300l111 627c21 130 -60 228 -182 228c-131 0 -255 -99 -284 -220l-111 -635h-137l168 963h137l-16 -91c71 66 166 109 263 109c197 0 332 -159 299 -354l-112 -627c-51 -292 -88 -430 -326 -425z" />
    <glyph glyph-name="Omacron" unicode="&#x14c;" horiz-adv-x="1776" 
d="M796 1754l17 96h635l-18 -96h-634zM810 -20c-441 0 -735 357 -657 798c75 431 484 778 916 778c441 0 735 -357 657 -798c-76 -431 -485 -778 -916 -778zM815 120c365 0 709 293 774 658c62 355 -170 638 -526 638c-363 0 -709 -293 -773 -658
c-63 -355 172 -638 525 -638z" />
    <glyph glyph-name="omacron" unicode="&#x14d;" horiz-adv-x="1163" 
d="M386 1181l17 96h635l-18 -96h-634zM503 -18c-284 0 -472 228 -423 509c47 272 305 490 579 490c283 0 471 -228 422 -509c-47 -272 -305 -490 -578 -490zM506 115c207 0 404 168 442 376c36 199 -96 356 -292 356c-210 0 -405 -168 -442 -375c-36 -199 93 -357 292 -357z
" />
    <glyph glyph-name="Ohungarumlaut" unicode="&#x150;" horiz-adv-x="1776" 
d="M902 1721l-60 79l356 269l60 -78zM1247 1721l-60 79l356 269l61 -78zM810 -20c-441 0 -735 357 -657 798c75 431 484 778 916 778c441 0 735 -357 657 -798c-76 -431 -485 -778 -916 -778zM815 120c365 0 709 293 774 658c62 355 -170 638 -526 638
c-363 0 -709 -293 -773 -658c-63 -355 172 -638 525 -638z" />
    <glyph glyph-name="ohungarumlaut" unicode="&#x151;" horiz-adv-x="1163" 
d="M492 1148l-60 79l356 269l60 -78zM837 1148l-60 79l356 269l61 -78zM503 -18c-284 0 -472 228 -423 509c47 272 305 490 579 490c283 0 471 -228 422 -509c-47 -272 -305 -490 -578 -490zM506 115c207 0 404 168 442 376c36 199 -96 356 -292 356
c-210 0 -405 -168 -442 -375c-36 -199 93 -357 292 -357z" />
    <glyph glyph-name="OE" unicode="&#x152;" horiz-adv-x="2464" 
d="M2528 1400h-690l-99 -564h604l-25 -136h-603l-99 -564h690l-24 -136h-807l61 346c-176 -220 -447 -366 -726 -366c-441 0 -735 357 -657 798c75 431 484 778 916 778c288 0 513 -152 613 -380l63 360h808zM815 116c365 0 714 296 778 662c63 357 -173 642 -528 642
c-368 0 -715 -296 -780 -662c-62 -357 172 -642 530 -642z" />
    <glyph glyph-name="oe" unicode="&#x153;" horiz-adv-x="2022" 
d="M1539 981c279 0 460 -216 422 -492l-5 -22h-871v-1c-33 -202 101 -361 299 -361c131 0 258 67 345 170l111 -59c-114 -149 -283 -234 -457 -234c-193 0 -340 104 -401 258c-109 -154 -291 -258 -479 -258c-284 0 -472 228 -423 509c47 272 305 490 579 490
c191 0 339 -104 400 -258c109 154 290 258 480 258zM1537 857c-178 0 -343 -116 -417 -279h717c-10 164 -130 279 -300 279zM505 109c210 0 411 171 449 382c36 202 -97 363 -297 363c-213 0 -414 -172 -452 -382c-36 -202 97 -363 300 -363z" />
    <glyph glyph-name="Racute" unicode="&#x154;" horiz-adv-x="1388" 
d="M1186 1949l-382 -290l-48 61l364 318zM1026 1536c236 0 395 -195 353 -433c-36 -204 -209 -369 -411 -404l238 -699h-147l-239 692h-420l-120 -692h-141l270 1536h617zM1241 1121c29 165 -78 279 -242 279h-476l-99 -574h464c164 0 321 115 353 295z" />
    <glyph glyph-name="racute" unicode="&#x155;" horiz-adv-x="708" 
d="M473 1086l-48 61l364 318l66 -89zM655 981c60 0 107 -18 138 -38l-60 -113c-33 15 -67 24 -104 24c-139 0 -272 -120 -308 -326l-92 -528h-136l168 963h136l-28 -154c71 107 169 172 286 172z" />
    <glyph glyph-name="Rcommaaccent" unicode="&#x156;" horiz-adv-x="1388" 
d="M1026 1536c236 0 395 -195 353 -433c-36 -204 -209 -369 -411 -404l238 -699h-147l-239 692h-420l-120 -692h-141l270 1536h617zM1241 1121c29 165 -78 279 -242 279h-476l-99 -574h464c164 0 321 115 353 295zM261 -513l255 420l112 -48l-290 -404z" />
    <glyph glyph-name="rcommaaccent" unicode="&#x157;" horiz-adv-x="708" 
d="M655 981c60 0 107 -18 138 -38l-60 -113c-33 15 -67 24 -104 24c-139 0 -272 -120 -308 -326l-92 -528h-136l168 963h136l-28 -154c71 107 169 172 286 172zM-20 -545l-77 32l255 420l112 -48z" />
    <glyph glyph-name="Rcaron" unicode="&#x158;" horiz-adv-x="1388" 
d="M918 1698h-140l-147 305l81 45l148 -257l242 257l71 -45zM1026 1536c236 0 395 -195 353 -433c-36 -204 -209 -369 -411 -404l238 -699h-147l-239 692h-420l-120 -692h-141l270 1536h617zM1241 1121c29 165 -78 279 -242 279h-476l-99 -574h464c164 0 321 115 353 295z
" />
    <glyph glyph-name="rcaron" unicode="&#x159;" horiz-adv-x="708" 
d="M447 1125l-147 305l81 45l148 -257l242 257l71 -45l-255 -305h-140zM655 981c60 0 107 -18 138 -38l-60 -113c-33 15 -67 24 -104 24c-139 0 -272 -120 -308 -326l-92 -528h-136l168 963h136l-28 -154c71 107 169 172 286 172z" />
    <glyph glyph-name="Sacute" unicode="&#x15a;" horiz-adv-x="1129" 
d="M743 1659l-48 61l364 318l66 -89zM496 -20c-214 0 -382 104 -476 243l113 93c77 -131 194 -210 358 -210c193 0 363 113 394 294c31 183 -128 253 -293 332c-186 82 -377 177 -331 441c43 244 258 383 480 383c195 0 318 -86 403 -204l-95 -82c-97 125 -186 160 -308 160
c-155 0 -311 -94 -341 -267c-31 -174 108 -243 261 -315c195 -83 414 -170 361 -462c-47 -271 -286 -406 -526 -406z" />
    <glyph glyph-name="sacute" unicode="&#x15b;" horiz-adv-x="857" 
d="M504 1086l-48 61l364 318l66 -89zM350 -18c-165 0 -277 70 -345 133l91 105c55 -64 151 -115 261 -115c125 0 226 64 244 167c17 101 -75 130 -181 168c-139 41 -295 89 -261 278c30 176 196 263 367 263c112 0 214 -39 287 -101l-89 -98c-72 61 -146 78 -211 78
c-115 0 -210 -54 -227 -149c-19 -100 90 -125 203 -165c133 -38 275 -95 242 -284c-32 -180 -184 -280 -381 -280z" />
    <glyph glyph-name="Scedilla" unicode="&#x15e;" horiz-adv-x="1129" 
d="M741 1430c-155 0 -311 -94 -341 -267c-31 -174 108 -243 261 -315c195 -83 414 -170 361 -462c-47 -271 -286 -406 -525 -406l-82 -119c147 30 251 -60 228 -195c-20 -111 -121 -198 -233 -198c-95 0 -191 60 -221 132l78 25c24 -43 88 -72 139 -72c73 0 142 59 154 133
c16 93 -66 131 -190 88l-67 48l107 164c-173 23 -309 117 -390 237l113 93c77 -131 194 -210 358 -210c193 0 363 113 394 294c31 183 -128 253 -293 332c-186 82 -377 177 -331 441c43 244 258 383 480 383c195 0 318 -86 403 -204l-95 -82c-97 125 -186 160 -308 160z" />
    <glyph glyph-name="scedilla" unicode="&#x15f;" horiz-adv-x="857" 
d="M489 546c133 -38 275 -95 242 -284c-30 -169 -166 -267 -345 -279l-84 -122c147 30 251 -60 228 -195c-20 -111 -121 -198 -233 -198c-95 0 -191 60 -221 132l78 25c24 -43 88 -72 139 -72c73 0 142 59 154 133c16 93 -66 131 -190 88l-67 48l106 163
c-136 13 -231 74 -291 130l91 105c55 -64 151 -115 261 -115c125 0 226 64 244 167c17 101 -75 130 -181 168c-139 41 -295 89 -261 278c30 176 196 263 367 263c112 0 214 -39 287 -101l-89 -98c-72 61 -146 78 -211 78c-115 0 -210 -54 -227 -149
c-19 -100 90 -125 203 -165z" />
    <glyph glyph-name="Scaron" unicode="&#x160;" horiz-adv-x="1129" 
d="M717 1698l-147 305l81 45l148 -257l242 257l71 -45l-255 -305h-140zM496 -20c-214 0 -382 104 -476 243l113 93c77 -131 194 -210 358 -210c193 0 363 113 394 294c31 183 -128 253 -293 332c-186 82 -377 177 -331 441c43 244 258 383 480 383c195 0 318 -86 403 -204
l-95 -82c-97 125 -186 160 -308 160c-155 0 -311 -94 -341 -267c-31 -174 108 -243 261 -315c195 -83 414 -170 361 -462c-47 -271 -286 -406 -526 -406z" />
    <glyph glyph-name="scaron" unicode="&#x161;" horiz-adv-x="857" 
d="M478 1125l-147 305l81 45l148 -257l242 257l71 -45l-255 -305h-140zM350 -18c-165 0 -277 70 -345 133l91 105c55 -64 151 -115 261 -115c125 0 226 64 244 167c17 101 -75 130 -181 168c-139 41 -295 89 -261 278c30 176 196 263 367 263c112 0 214 -39 287 -101
l-89 -98c-72 61 -146 78 -211 78c-115 0 -210 -54 -227 -149c-19 -100 90 -125 203 -165c133 -38 275 -95 242 -284c-32 -180 -184 -280 -381 -280z" />
    <glyph glyph-name="uni0162" unicode="&#x162;" horiz-adv-x="1056" 
d="M515 0h-27l-95 -139c147 30 251 -60 228 -195c-20 -111 -121 -198 -233 -198c-95 0 -191 60 -221 132l78 25c24 -43 88 -72 139 -72c73 0 142 59 154 133c16 93 -66 131 -190 88l-67 48l116 178h-23l245 1396h-429l25 141h999l-25 -141h-429z" />
    <glyph glyph-name="uni0163" unicode="&#x163;" horiz-adv-x="603" 
d="M286 0h-23l-95 -139c147 30 251 -60 228 -195c-20 -111 -121 -198 -233 -198c-95 0 -191 60 -221 132l78 25c24 -43 88 -72 139 -72c73 0 142 59 154 133c16 93 -66 131 -190 88l-67 48l116 178h-24l146 837h-208l21 126h209l61 346h139l-61 -346h206l-22 -126h-206z" />
    <glyph glyph-name="Tcaron" unicode="&#x164;" horiz-adv-x="1056" 
d="M813 1698h-140l-147 305l81 45l148 -257l242 257l71 -45zM1214 1537l-25 -141h-429l-245 -1396h-141l245 1396h-429l25 141h999z" />
    <glyph glyph-name="tcaron" unicode="&#x165;" horiz-adv-x="603" 
d="M922 1658c63 0 93 -34 93 -77c0 -23 -7 -49 -25 -73l-294 -399h-111l258 362c-31 14 -50 55 -35 106c18 44 70 81 114 81zM516 1309l-61 -346h206l-22 -126h-206l-147 -837h-138l146 837h-208l21 126h209l61 346h139z" />
    <glyph glyph-name="Tbar" unicode="&#x166;" horiz-adv-x="1056" 
d="M1189 1396h-429l-103 -586h217l-17 -99h-217l-125 -711h-141l125 711h-222l17 99h222l103 586h-429l25 141h999z" />
    <glyph glyph-name="tbar" unicode="&#x167;" horiz-adv-x="603" 
d="M639 837h-206l-56 -317h162l-14 -99h-165l-74 -421h-138l74 421h-163l14 99h166l55 317h-208l21 126h209l61 346h139l-61 -346h206z" />
    <glyph glyph-name="Utilde" unicode="&#x168;" horiz-adv-x="1513" 
d="M1108 1652c-103 0 -139 66 -166 117c-19 35 -39 56 -80 56c-78 0 -131 -76 -148 -167l-102 10c25 143 114 259 247 259c97 0 137 -61 167 -117c15 -29 38 -55 86 -55c71 0 125 62 143 166l100 -10c-28 -155 -118 -259 -247 -259zM676 -20c-331 0 -538 230 -485 531
l182 1025h141l-179 -1014c-42 -232 106 -402 346 -402c250 0 469 180 511 412l177 1004h141l-183 -1035c-54 -301 -329 -521 -651 -521z" />
    <glyph glyph-name="utilde" unicode="&#x169;" horiz-adv-x="1031" 
d="M764 1079c-103 0 -139 66 -166 117c-19 35 -39 56 -80 56c-78 0 -131 -76 -148 -167l-102 10c25 143 114 259 247 259c97 0 137 -61 167 -117c15 -29 38 -55 86 -55c71 0 125 62 143 166l100 -10c-28 -155 -118 -259 -247 -259zM435 -18c-222 0 -348 151 -310 368
l107 613h137l-106 -609c-26 -147 50 -239 175 -239c137 0 257 103 283 249l104 599h137l-109 -623c-37 -218 -206 -358 -418 -358z" />
    <glyph glyph-name="Umacron" unicode="&#x16a;" horiz-adv-x="1513" 
d="M662 1754l17 96h635l-18 -96h-634zM676 -20c-331 0 -538 230 -485 531l182 1025h141l-179 -1014c-42 -232 106 -402 346 -402c250 0 469 180 511 412l177 1004h141l-183 -1035c-54 -301 -329 -521 -651 -521z" />
    <glyph glyph-name="umacron" unicode="&#x16b;" horiz-adv-x="1031" 
d="M318 1181l17 96h635l-18 -96h-634zM435 -18c-222 0 -348 151 -310 368l107 613h137l-106 -609c-26 -147 50 -239 175 -239c137 0 257 103 283 249l104 599h137l-109 -623c-37 -218 -206 -358 -418 -358z" />
    <glyph glyph-name="Uring" unicode="&#x16e;" horiz-adv-x="1513" 
d="M974 1667c-117 0 -198 98 -179 214c20 109 124 195 232 195c116 0 195 -97 174 -214c-18 -107 -120 -195 -227 -195zM969 1744c74 0 145 60 158 137c12 65 -30 119 -94 119c-76 0 -147 -64 -161 -138c-11 -68 31 -118 97 -118zM676 -20c-331 0 -538 230 -485 531
l182 1025h141l-179 -1014c-42 -232 106 -402 346 -402c250 0 469 180 511 412l177 1004h141l-183 -1035c-54 -301 -329 -521 -651 -521z" />
    <glyph glyph-name="uring" unicode="&#x16f;" horiz-adv-x="1031" 
d="M655 1147c-118 0 -199 99 -178 214c18 109 122 195 230 195c116 0 195 -96 176 -214c-19 -107 -122 -195 -228 -195zM649 1225c74 0 146 60 160 136c11 65 -30 120 -96 120c-75 0 -146 -65 -159 -139c-12 -68 29 -117 95 -117zM435 -18c-222 0 -348 151 -310 368l107 613
h137l-106 -609c-26 -147 50 -239 175 -239c137 0 257 103 283 249l104 599h137l-109 -623c-37 -218 -206 -358 -418 -358z" />
    <glyph glyph-name="Uhungarumlaut" unicode="&#x170;" horiz-adv-x="1513" 
d="M768 1721l-60 79l356 269l60 -78zM1113 1721l-60 79l356 269l61 -78zM676 -20c-331 0 -538 230 -485 531l182 1025h141l-179 -1014c-42 -232 106 -402 346 -402c250 0 469 180 511 412l177 1004h141l-183 -1035c-54 -301 -329 -521 -651 -521z" />
    <glyph glyph-name="uhungarumlaut" unicode="&#x171;" horiz-adv-x="1031" 
d="M424 1148l-60 79l356 269l60 -78zM769 1148l-60 79l356 269l61 -78zM435 -18c-222 0 -348 151 -310 368l107 613h137l-106 -609c-26 -147 50 -239 175 -239c137 0 257 103 283 249l104 599h137l-109 -623c-37 -218 -206 -358 -418 -358z" />
    <glyph glyph-name="Uogonek" unicode="&#x172;" horiz-adv-x="1513" 
d="M1369 1536h141l-183 -1035c-46 -255 -250 -452 -507 -506c-125 -66 -244 -165 -266 -282c-13 -77 27 -113 99 -113c70 0 144 30 205 82l56 -100c-87 -73 -176 -100 -269 -97c-138 5 -214 87 -190 219c18 107 102 203 213 276c-326 3 -530 232 -477 531l182 1025h141
l-179 -1014c-42 -232 106 -402 346 -402c250 0 469 180 511 412z" />
    <glyph glyph-name="uogonek" unicode="&#x173;" horiz-adv-x="1031" 
d="M825 963h137l-109 -623c-33 -194 -171 -327 -351 -353c-129 -66 -255 -167 -277 -288c-13 -77 27 -113 99 -113c70 0 144 30 205 82l56 -100c-87 -73 -176 -100 -269 -97c-138 5 -214 87 -190 219c20 117 118 221 246 296c-182 26 -281 168 -247 364l107 613h137
l-106 -609c-26 -147 50 -239 175 -239c137 0 257 103 283 249z" />
    <glyph glyph-name="Wcircumflex" unicode="&#x174;" horiz-adv-x="1920" 
d="M1215 1918l-244 -255l-69 43l253 306h140l149 -306l-78 -43zM2071 1536l-911 -1575l-164 728l-421 -728l-353 1575h148l265 -1245l322 573l-151 672h144l105 -498l280 498h151l-393 -680l119 -565l703 1245h156z" />
    <glyph glyph-name="wcircumflex" unicode="&#x175;" horiz-adv-x="1469" 
d="M864 1345l-244 -255l-69 43l253 306h140l149 -306l-78 -43zM1531 963l-561 -1009l-197 744l-462 -744l-205 1009h146l127 -676l445 729l189 -734l367 681h151z" />
    <glyph glyph-name="Ycircumflex" unicode="&#x176;" horiz-adv-x="1247" 
d="M880 1918l-244 -255l-69 43l253 306h140l149 -306l-78 -43zM1416 1536l-679 -811l-128 -725h-141l128 727l-392 809h172l315 -663l550 663h175z" />
    <glyph glyph-name="ycircumflex" unicode="&#x177;" horiz-adv-x="958" 
d="M621 1345l-244 -255l-69 43l253 306h140l149 -306l-78 -43zM868 963h156l-840 -1455h-149l285 501l-219 954h150l172 -805z" />
    <glyph glyph-name="Ydieresis" unicode="&#x178;" horiz-adv-x="1247" 
d="M661 1655c-59 0 -102 51 -91 110c8 53 58 92 107 92c60 0 103 -50 92 -112c-9 -50 -58 -90 -108 -90zM1021 1655c-60 0 -103 51 -92 110c9 53 59 92 108 92c61 0 102 -50 91 -112c-9 -50 -56 -90 -107 -90zM1416 1536l-679 -811l-128 -725h-141l128 727l-392 809h172
l315 -663l550 663h175z" />
    <glyph glyph-name="Zacute" unicode="&#x179;" horiz-adv-x="1338" 
d="M1231 1949l-382 -290l-48 61l364 318zM1458 1536l-1203 -1395h955l-24 -141h-1227l1200 1395h-881l25 141h1155z" />
    <glyph glyph-name="zacute" unicode="&#x17a;" horiz-adv-x="932" 
d="M931 1376l-382 -290l-48 61l364 318zM960 963l-724 -837h576l-21 -126h-833l721 837h-538l22 126h797z" />
    <glyph glyph-name="Zdotaccent" unicode="&#x17b;" horiz-adv-x="1338" 
d="M908 1723c-59 0 -102 50 -93 109c11 53 58 92 108 92c59 0 104 -49 91 -111c-7 -50 -57 -90 -106 -90zM1458 1536l-1203 -1395h955l-24 -141h-1227l1200 1395h-881l25 141h1155z" />
    <glyph glyph-name="zdotaccent" unicode="&#x17c;" horiz-adv-x="932" 
d="M608 1150c-59 0 -102 50 -93 109c11 53 58 92 108 92c59 0 104 -49 91 -111c-7 -50 -57 -90 -106 -90zM960 963l-724 -837h576l-21 -126h-833l721 837h-538l22 126h797z" />
    <glyph glyph-name="Zcaron" unicode="&#x17d;" horiz-adv-x="1338" 
d="M963 1698h-140l-147 305l81 45l148 -257l242 257l71 -45zM1458 1536l-1203 -1395h955l-24 -141h-1227l1200 1395h-881l25 141h1155z" />
    <glyph glyph-name="zcaron" unicode="&#x17e;" horiz-adv-x="932" 
d="M663 1125h-140l-147 305l81 45l148 -257l242 257l71 -45zM960 963l-724 -837h576l-21 -126h-833l721 837h-538l22 126h797z" />
    <glyph glyph-name="florin" unicode="&#x192;" horiz-adv-x="1013" 
d="M794 1431c-104 0 -187 -77 -205 -186l-35 -221h286l-18 -130h-289l-225 -1406h-150l222 1406h-172l20 130h173l38 242c26 163 177 290 340 290c54 0 109 -15 133 -34l-15 -125c-26 22 -68 34 -103 34z" />
    <glyph glyph-name="Ohorn" unicode="&#x1a0;" horiz-adv-x="1776" 
d="M1820 1498h118l-18 -107c-31 -178 -121 -238 -213 -238c-5 0 -10 0 -16 1c46 -117 60 -252 35 -396c-76 -431 -485 -778 -916 -778c-441 0 -735 357 -657 798c75 431 484 778 916 778c268 0 481 -132 590 -334h6c77 0 120 80 132 150zM1589 778c62 355 -170 638 -526 638
c-363 0 -709 -293 -773 -658c-63 -355 172 -638 525 -638c365 0 709 293 774 658z" />
    <glyph glyph-name="ohorn" unicode="&#x1a1;" horiz-adv-x="1163" 
d="M1232 1008h118l-18 -107c-31 -178 -121 -238 -213 -238c-14 0 -28 1 -43 4c15 -60 17 -126 5 -195c-47 -272 -305 -490 -578 -490c-284 0 -472 228 -423 509c47 272 305 490 579 490c186 0 332 -99 395 -247c9 -1 16 -2 23 -2c77 0 120 80 132 150zM948 491
c36 199 -96 356 -292 356c-210 0 -405 -168 -442 -375c-36 -199 93 -357 292 -357c207 0 404 168 442 376z" />
    <glyph glyph-name="Uhorn" unicode="&#x1af;" horiz-adv-x="1513" 
d="M1675 1636h118l-18 -107c-31 -178 -121 -238 -213 -238c-29 0 -61 6 -93 16l-142 -806c-54 -301 -329 -521 -651 -521c-331 0 -538 230 -485 531l182 1025h141l-179 -1014c-42 -232 106 -402 346 -402c250 0 469 180 511 412l177 1004h141l-30 -170c16 -4 29 -6 40 -6
c77 0 120 80 132 150z" />
    <glyph glyph-name="uhorn" unicode="&#x1b0;" horiz-adv-x="1031" 
d="M1134 981h118l-18 -107c-31 -178 -121 -238 -213 -238c-35 0 -74 8 -112 23l-56 -319c-37 -218 -206 -358 -418 -358c-222 0 -348 151 -310 368l107 613h137l-106 -609c-26 -147 50 -239 175 -239c137 0 257 103 283 249l104 599h137l-43 -244c24 -10 45 -14 60 -14
c77 0 120 80 132 150z" />
    <glyph glyph-name="uni01CD" unicode="&#x1cd;" horiz-adv-x="1335" 
d="M957 1698h-140l-147 305l81 45l148 -257l242 257l71 -45zM1061 0l-54 262h-749l-147 -262h-160l909 1573l356 -1573h-155zM332 394h647l-175 841z" />
    <glyph glyph-name="uni01CE" unicode="&#x1ce;" horiz-adv-x="1261" 
d="M764 1125h-140l-147 305l81 45l148 -257l242 257l71 -45zM1032 963h136l-168 -963h-136l27 160c-101 -109 -243 -178 -404 -178c-266 0 -455 228 -406 509c48 272 306 490 563 490c169 0 293 -75 358 -192zM508 115c208 0 404 168 442 376c36 199 -94 357 -293 357
c-207 0 -405 -169 -442 -376c-36 -199 95 -357 293 -357z" />
    <glyph glyph-name="uni01CF" unicode="&#x1cf;" horiz-adv-x="586" 
d="M438 1698l-147 305l81 45l148 -257l242 257l71 -45l-255 -305h-140zM139 0l270 1536h141l-270 -1536h-141z" />
    <glyph glyph-name="uni01D0" unicode="&#x1d0;" horiz-adv-x="489" 
d="M288 1124l-147 305l81 45l148 -257l242 257l71 -45l-255 -305h-140zM93 0l168 963h136l-168 -963h-136z" />
    <glyph glyph-name="uni01D1" unicode="&#x1d1;" horiz-adv-x="1776" 
d="M1034 1698l-147 305l81 45l148 -257l242 257l71 -45l-255 -305h-140zM810 -20c-441 0 -735 357 -657 798c75 431 484 778 916 778c441 0 735 -357 657 -798c-76 -431 -485 -778 -916 -778zM815 120c365 0 709 293 774 658c62 355 -170 638 -526 638
c-363 0 -709 -293 -773 -658c-63 -355 172 -638 525 -638z" />
    <glyph glyph-name="uni01D2" unicode="&#x1d2;" horiz-adv-x="1163" 
d="M624 1125l-147 305l81 45l148 -257l242 257l71 -45l-255 -305h-140zM503 -18c-284 0 -472 228 -423 509c47 272 305 490 579 490c283 0 471 -228 422 -509c-47 -272 -305 -490 -578 -490zM506 115c207 0 404 168 442 376c36 199 -96 356 -292 356
c-210 0 -405 -168 -442 -375c-36 -199 93 -357 292 -357z" />
    <glyph glyph-name="uni01D3" unicode="&#x1d3;" horiz-adv-x="1513" 
d="M900 1698l-147 305l81 45l148 -257l242 257l71 -45l-255 -305h-140zM676 -20c-331 0 -538 230 -485 531l182 1025h141l-179 -1014c-42 -232 106 -402 346 -402c250 0 469 180 511 412l177 1004h141l-183 -1035c-54 -301 -329 -521 -651 -521z" />
    <glyph glyph-name="uni01D4" unicode="&#x1d4;" horiz-adv-x="1031" 
d="M556 1125l-147 305l81 45l148 -257l242 257l71 -45l-255 -305h-140zM435 -18c-222 0 -348 151 -310 368l107 613h137l-106 -609c-26 -147 50 -239 175 -239c137 0 257 103 283 249l104 599h137l-109 -623c-37 -218 -206 -358 -418 -358z" />
    <glyph glyph-name="uni01D5" unicode="&#x1d5;" horiz-adv-x="1513" 
d="M719 2075l17 96h635l-18 -96h-634zM792 1655c-59 0 -102 51 -91 110c8 53 58 92 107 92c60 0 103 -50 92 -112c-9 -50 -58 -90 -108 -90zM1152 1655c-60 0 -103 51 -92 110c9 53 59 92 108 92c61 0 102 -50 91 -112c-9 -50 -56 -90 -107 -90zM676 -20
c-331 0 -538 230 -485 531l182 1025h141l-179 -1014c-42 -232 106 -402 346 -402c250 0 469 180 511 412l177 1004h141l-183 -1035c-54 -301 -329 -521 -651 -521z" />
    <glyph glyph-name="uni01D6" unicode="&#x1d6;" horiz-adv-x="1031" 
d="M386 1563l17 96h635l-18 -96h-634zM459 1144c-59 0 -102 50 -91 109c9 53 58 92 108 92c58 0 101 -49 91 -111c-9 -50 -59 -90 -108 -90zM819 1144c-60 0 -103 50 -92 109c9 53 58 92 108 92c60 0 102 -49 91 -111c-9 -50 -57 -90 -107 -90zM435 -18
c-222 0 -348 151 -310 368l107 613h137l-106 -609c-26 -147 50 -239 175 -239c137 0 257 103 283 249l104 599h137l-109 -623c-37 -218 -206 -358 -418 -358z" />
    <glyph glyph-name="uni01D7" unicode="&#x1d7;" horiz-adv-x="1513" 
d="M983 1980l-48 61l364 318l66 -89zM792 1655c-59 0 -102 51 -91 110c8 53 58 92 107 92c60 0 103 -50 92 -112c-9 -50 -58 -90 -108 -90zM1152 1655c-60 0 -103 51 -92 110c9 53 59 92 108 92c61 0 102 -50 91 -112c-9 -50 -56 -90 -107 -90zM676 -20
c-331 0 -538 230 -485 531l182 1025h141l-179 -1014c-42 -232 106 -402 346 -402c250 0 469 180 511 412l177 1004h141l-183 -1035c-54 -301 -329 -521 -651 -521z" />
    <glyph glyph-name="uni01D8" unicode="&#x1d8;" horiz-adv-x="1031" 
d="M650 1468l-48 61l364 318l66 -89zM459 1144c-59 0 -102 50 -91 109c9 53 58 92 108 92c58 0 101 -49 91 -111c-9 -50 -59 -90 -108 -90zM819 1144c-60 0 -103 50 -92 109c9 53 58 92 108 92c60 0 102 -49 91 -111c-9 -50 -57 -90 -107 -90zM435 -18
c-222 0 -348 151 -310 368l107 613h137l-106 -609c-26 -147 50 -239 175 -239c137 0 257 103 283 249l104 599h137l-109 -623c-37 -218 -206 -358 -418 -358z" />
    <glyph glyph-name="uni01D9" unicode="&#x1d9;" horiz-adv-x="1513" 
d="M957 2019l-147 305l81 45l148 -257l242 257l71 -45l-255 -305h-140zM792 1655c-59 0 -102 51 -91 110c8 53 58 92 107 92c60 0 103 -50 92 -112c-9 -50 -58 -90 -108 -90zM1152 1655c-60 0 -103 51 -92 110c9 53 59 92 108 92c61 0 102 -50 91 -112
c-9 -50 -56 -90 -107 -90zM676 -20c-331 0 -538 230 -485 531l182 1025h141l-179 -1014c-42 -232 106 -402 346 -402c250 0 469 180 511 412l177 1004h141l-183 -1035c-54 -301 -329 -521 -651 -521z" />
    <glyph glyph-name="uni01DA" unicode="&#x1da;" horiz-adv-x="1031" 
d="M624 1507l-147 305l81 45l148 -257l242 257l71 -45l-255 -305h-140zM459 1144c-59 0 -102 50 -91 109c9 53 58 92 108 92c58 0 101 -49 91 -111c-9 -50 -59 -90 -108 -90zM819 1144c-60 0 -103 50 -92 109c9 53 58 92 108 92c60 0 102 -49 91 -111
c-9 -50 -57 -90 -107 -90zM435 -18c-222 0 -348 151 -310 368l107 613h137l-106 -609c-26 -147 50 -239 175 -239c137 0 257 103 283 249l104 599h137l-109 -623c-37 -218 -206 -358 -418 -358z" />
    <glyph glyph-name="uni01DB" unicode="&#x1db;" horiz-adv-x="1513" 
d="M1044 1980l-289 289l93 89l258 -317zM792 1655c-59 0 -102 51 -91 110c8 53 58 92 107 92c60 0 103 -50 92 -112c-9 -50 -58 -90 -108 -90zM1152 1655c-60 0 -103 51 -92 110c9 53 59 92 108 92c61 0 102 -50 91 -112c-9 -50 -56 -90 -107 -90zM676 -20
c-331 0 -538 230 -485 531l182 1025h141l-179 -1014c-42 -232 106 -402 346 -402c250 0 469 180 511 412l177 1004h141l-183 -1035c-54 -301 -329 -521 -651 -521z" />
    <glyph glyph-name="uni01DC" unicode="&#x1dc;" horiz-adv-x="1031" 
d="M711 1468l-289 289l93 89l258 -317zM459 1144c-59 0 -102 50 -91 109c9 53 58 92 108 92c58 0 101 -49 91 -111c-9 -50 -59 -90 -108 -90zM819 1144c-60 0 -103 50 -92 109c9 53 58 92 108 92c60 0 102 -49 91 -111c-9 -50 -57 -90 -107 -90zM435 -18
c-222 0 -348 151 -310 368l107 613h137l-106 -609c-26 -147 50 -239 175 -239c137 0 257 103 283 249l104 599h137l-109 -623c-37 -218 -206 -358 -418 -358z" />
    <glyph glyph-name="Scommaaccent" unicode="&#x218;" horiz-adv-x="1129" 
d="M496 -20c-214 0 -382 104 -476 243l113 93c77 -131 194 -210 358 -210c193 0 363 113 394 294c31 183 -128 253 -293 332c-186 82 -377 177 -331 441c43 244 258 383 480 383c195 0 318 -86 403 -204l-95 -82c-97 125 -186 160 -308 160c-155 0 -311 -94 -341 -267
c-31 -174 108 -243 261 -315c195 -83 414 -170 361 -462c-47 -271 -286 -406 -526 -406zM254 -545l-77 32l255 420l112 -48z" />
    <glyph glyph-name="scommaaccent" unicode="&#x219;" horiz-adv-x="857" 
d="M350 -18c-165 0 -277 70 -345 133l91 105c55 -64 151 -115 261 -115c125 0 226 64 244 167c17 101 -75 130 -181 168c-139 41 -295 89 -261 278c30 176 196 263 367 263c112 0 214 -39 287 -101l-89 -98c-72 61 -146 78 -211 78c-115 0 -210 -54 -227 -149
c-19 -100 90 -125 203 -165c133 -38 275 -95 242 -284c-32 -180 -184 -280 -381 -280zM141 -545l-77 32l255 420l112 -48z" />
    <glyph glyph-name="uni021A" unicode="&#x21a;" horiz-adv-x="1056" 
d="M1214 1537l-25 -141h-429l-245 -1396h-141l245 1396h-429l25 141h999zM155 -513l255 420l112 -48l-290 -404z" />
    <glyph glyph-name="uni021B" unicode="&#x21b;" horiz-adv-x="603" 
d="M661 963l-22 -126h-206l-147 -837h-138l146 837h-208l21 126h209l61 346h139l-61 -346h206zM-70 -513l255 420l112 -48l-290 -404z" />
    <glyph glyph-name="uni0237" unicode="&#x237;" horiz-adv-x="493" 
d="M0 -512l262 1475h136l-262 -1475h-136z" />
    <glyph glyph-name="circumflex" unicode="&#x2c6;" horiz-adv-x="700" 
d="M281 1187l-69 43l253 306h140l149 -306l-78 -43l-151 255z" />
    <glyph glyph-name="caron" unicode="&#x2c7;" horiz-adv-x="702" 
d="M405 1186l-147 305l81 45l148 -257l242 257l71 -45l-255 -305h-140z" />
    <glyph glyph-name="breve" unicode="&#x2d8;" horiz-adv-x="882" 
d="M575 1205c-194 0 -318 126 -285 321h110c-22 -140 39 -231 173 -231c146 0 248 102 269 231h110c-33 -205 -190 -321 -377 -321z" />
    <glyph glyph-name="dotaccent" unicode="&#x2d9;" horiz-adv-x="485" 
d="M384 1226c-59 0 -102 50 -93 109c11 53 58 92 108 92c59 0 104 -49 91 -111c-7 -50 -57 -90 -106 -90z" />
    <glyph glyph-name="ring" unicode="&#x2da;" horiz-adv-x="652" 
d="M454 1147c-118 0 -199 99 -178 214c18 109 122 195 230 195c116 0 195 -96 176 -214c-19 -107 -122 -195 -228 -195zM448 1225c74 0 146 60 160 136c11 65 -30 120 -96 120c-75 0 -146 -65 -159 -139c-12 -68 29 -117 95 -117z" />
    <glyph glyph-name="ogonek" unicode="&#x2db;" horiz-adv-x="625" 
d="M148 -531c-137 5 -214 87 -189 219c24 145 157 256 322 354l80 -44c-138 -65 -280 -172 -303 -301c-13 -77 27 -113 98 -113c70 0 145 30 206 82l56 -100c-87 -73 -177 -100 -270 -97z" />
    <glyph glyph-name="tilde" unicode="&#x2dc;" horiz-adv-x="965" 
d="M772 1267c-96 0 -144 57 -168 118c-25 41 -50 55 -82 55c-75 0 -130 -76 -147 -167l-102 10c27 151 121 259 245 259c90 0 141 -53 167 -118c21 -30 42 -54 86 -54c71 0 127 62 145 166l100 -10c-26 -149 -116 -259 -244 -259z" />
    <glyph glyph-name="hungarumlaut" unicode="&#x2dd;" horiz-adv-x="492" 
d="M225 1147l-48 61l364 318l66 -89z" />
    <glyph glyph-name="gravecomb" unicode="&#x300;" 
d="M17 1147l-289 289l93 89l258 -317z" />
    <glyph glyph-name="acutecomb" unicode="&#x301;" 
d="M-267 1147l-48 61l364 318l66 -89z" />
    <glyph glyph-name="uni0302" unicode="&#x302;" 
d="M-419 1187l-69 43l253 306h140l149 -306l-78 -43l-151 255z" />
    <glyph glyph-name="tildecomb" unicode="&#x303;" 
d="M-196 1267c-103 0 -139 66 -166 117c-19 35 -39 56 -80 56c-78 0 -131 -76 -148 -167l-102 10c25 143 114 259 247 259c97 0 137 -61 167 -117c15 -29 38 -55 86 -55c71 0 125 62 143 166l100 -10c-28 -155 -118 -259 -247 -259z" />
    <glyph glyph-name="uni0304" unicode="&#x304;" 
d="M-669 1242l17 96h635l-18 -96h-634z" />
    <glyph glyph-name="uni0306" unicode="&#x306;" 
d="M-308 1205c-194 0 -319 126 -286 306h110c-21 -125 39 -216 173 -216c146 0 249 102 270 216h110c-33 -190 -191 -306 -377 -306z" />
    <glyph glyph-name="uni0307" unicode="&#x307;" 
d="M-101 1226c-59 0 -102 50 -93 109c11 53 58 92 108 92c59 0 104 -49 91 -111c-7 -50 -57 -90 -106 -90z" />
    <glyph glyph-name="uni0308" unicode="&#x308;" 
d="M-477 1144c-59 0 -102 50 -91 109c9 53 58 92 108 92c58 0 101 -49 91 -111c-9 -50 -59 -90 -108 -90zM-117 1144c-60 0 -103 50 -92 109c9 53 58 92 108 92c60 0 102 -49 91 -111c-9 -50 -57 -90 -107 -90z" />
    <glyph glyph-name="hookabovecomb" unicode="&#x309;" 
d="M-249 1070l19 142c90 19 158 60 172 139c9 49 -20 88 -80 88c-46 0 -80 -15 -113 -36l-52 85c50 34 107 52 157 52c124 0 209 -89 188 -209c-14 -77 -73 -146 -180 -176l-19 -85h-92z" />
    <glyph glyph-name="uni030A" unicode="&#x30a;" 
d="M-198 1147c-118 0 -199 99 -178 214c18 109 122 195 230 195c116 0 195 -96 176 -214c-19 -107 -122 -195 -228 -195zM-204 1225c74 0 146 60 160 136c11 65 -30 120 -96 120c-75 0 -146 -65 -159 -139c-12 -68 29 -117 95 -117z" />
    <glyph glyph-name="uni030B" unicode="&#x30b;" 
d="M-586 1209l-60 79l356 269l60 -78zM-241 1209l-60 79l356 269l61 -78z" />
    <glyph glyph-name="uni030C" unicode="&#x30c;" 
d="M-297 1186l-147 305l81 45l148 -257l242 257l71 -45l-255 -305h-140z" />
    <glyph glyph-name="uni0312" unicode="&#x312;" 
d="M-93 1292c38 -14 62 -56 53 -103c-9 -49 -59 -91 -108 -91c-64 0 -101 49 -88 112c0 8 4 21 8 34l221 404h93z" />
    <glyph glyph-name="uni031B" unicode="&#x31b;" 
d="M-265 791c-60 0 -132 24 -188 63l58 34c35 -21 67 -28 88 -28c77 0 120 80 132 150l23 126h118l-18 -107c-31 -178 -121 -238 -213 -238z" />
    <glyph glyph-name="dotbelowcomb" unicode="&#x323;" 
d="M-408 -512c-59 0 -102 50 -91 111c9 50 58 92 108 92c59 0 102 -52 91 -111c-9 -52 -58 -92 -108 -92z" />
    <glyph glyph-name="uni0326" unicode="&#x326;" 
d="M-434 -308l-77 32l255 420l112 -48z" />
    <glyph glyph-name="uni0327" unicode="&#x327;" 
d="M-468 -532c-95 0 -191 60 -221 132l78 25c24 -43 88 -72 139 -72c73 0 142 59 154 133c16 93 -66 131 -190 88l-67 48l119 182h91l-98 -143c147 30 251 -60 228 -195c-20 -111 -121 -198 -233 -198z" />
    <glyph glyph-name="uni0328" unicode="&#x328;" 
d="M-477 -531c-138 5 -214 87 -190 219c25 145 169 269 341 345l62 -35c-138 -65 -280 -172 -304 -301c-13 -77 27 -113 99 -113c70 0 144 30 205 82l56 -100c-87 -73 -176 -100 -269 -97z" />
    <glyph glyph-name="uni0335" unicode="&#x335;" 
d="M-747 482l17 99h580l-17 -99h-580z" />
    <glyph glyph-name="uni0336" unicode="&#x336;" 
d="M-1618 483l17 99h1451l-18 -99h-1450z" />
    <glyph glyph-name="uni0337" unicode="&#x337;" 
d="M-628 255l19 127l606 402l-19 -127z" />
    <glyph glyph-name="uni0338" unicode="&#x338;" 
d="M-1199 -73l-99 63l1415 1621l95 -65z" />
    <glyph glyph-name="uni0394" unicode="&#x394;" horiz-adv-x="1459" 
d="M993 1536l345 -1536h-1390l888 1536h157zM177 125h982l-270 1250z" />
    <glyph glyph-name="uni03A9" unicode="&#x3a9;" horiz-adv-x="1807" 
d="M33 0l20 117h353l9 19c-145 127 -258 368 -205 674c73 413 442 727 875 727c459 0 693 -355 625 -741c-53 -300 -255 -551 -437 -666l-5 -13h358l-20 -117h-591l10 88c220 103 469 353 530 704c52 301 -94 627 -470 627c-368 0 -665 -295 -728 -651
c-57 -329 95 -583 276 -684l-10 -84h-590z" />
    <glyph glyph-name="uni03BC" unicode="&#x3bc;" horiz-adv-x="1182" 
d="M951 963h137l-168 -963h-137l25 145c-85 -100 -207 -163 -333 -163c-109 0 -199 46 -257 119l-102 -582h-107l254 1444h138l-103 -593c-26 -150 70 -266 216 -266c158 0 309 126 335 276z" />
    <glyph glyph-name="pi" unicode="&#x3c0;" horiz-adv-x="1240" 
d="M69 5c112 195 246 561 312 837c-142 -5 -199 -19 -262 -49l-9 120c58 30 147 50 306 50h878l-35 -126h-184l-99 -556c-26 -147 -32 -225 -23 -286l-126 10c-15 39 -9 132 14 269l100 563l-432 -3c-55 -243 -196 -667 -308 -839z" />
    <glyph glyph-name="Wgrave" unicode="&#x1e80;" horiz-adv-x="1920" 
d="M1253 1720l-62 -61l-289 289l93 89zM2071 1536l-911 -1575l-164 728l-421 -728l-353 1575h148l265 -1245l322 573l-151 672h144l105 -498l280 498h151l-393 -680l119 -565l703 1245h156z" />
    <glyph glyph-name="wgrave" unicode="&#x1e81;" horiz-adv-x="1469" 
d="M902 1147l-62 -61l-289 289l93 89zM1531 963l-561 -1009l-197 744l-462 -744l-205 1009h146l127 -676l445 729l189 -734l367 681h151z" />
    <glyph glyph-name="Wacute" unicode="&#x1e82;" horiz-adv-x="1920" 
d="M1512 1949l-382 -290l-48 61l364 318zM2071 1536l-911 -1575l-164 728l-421 -728l-353 1575h148l265 -1245l322 573l-151 672h144l105 -498l280 498h151l-393 -680l119 -565l703 1245h156z" />
    <glyph glyph-name="wacute" unicode="&#x1e83;" horiz-adv-x="1469" 
d="M1161 1376l-382 -290l-48 61l364 318zM1531 963l-561 -1009l-197 744l-462 -744l-205 1009h146l127 -676l445 729l189 -734l367 681h151z" />
    <glyph glyph-name="Wdieresis" unicode="&#x1e84;" horiz-adv-x="1920" 
d="M996 1655c-59 0 -102 51 -91 110c8 53 58 92 107 92c60 0 103 -50 92 -112c-9 -50 -58 -90 -108 -90zM1356 1655c-60 0 -103 51 -92 110c9 53 59 92 108 92c61 0 102 -50 91 -112c-9 -50 -56 -90 -107 -90zM2071 1536l-911 -1575l-164 728l-421 -728l-353 1575h148
l265 -1245l322 573l-151 672h144l105 -498l280 498h151l-393 -680l119 -565l703 1245h156z" />
    <glyph glyph-name="wdieresis" unicode="&#x1e85;" horiz-adv-x="1469" 
d="M656 1144c-59 0 -102 50 -91 109c9 53 58 92 108 92c58 0 101 -49 91 -111c-9 -50 -59 -90 -108 -90zM1016 1144c-60 0 -103 50 -92 109c9 53 58 92 108 92c60 0 102 -49 91 -111c-9 -50 -57 -90 -107 -90zM1531 963l-561 -1009l-197 744l-462 -744l-205 1009h146
l127 -676l445 729l189 -734l367 681h151z" />
    <glyph glyph-name="uni1EA0" unicode="&#x1ea0;" horiz-adv-x="1335" 
d="M1216 0h-155l-54 262h-749l-147 -262h-160l909 1573zM332 394h647l-175 841zM551 -152c59 0 102 -52 91 -111c-9 -52 -58 -92 -108 -92c-59 0 -102 50 -91 111c9 50 58 92 108 92z" />
    <glyph glyph-name="uni1EA1" unicode="&#x1ea1;" horiz-adv-x="1261" 
d="M1032 963h136l-168 -963h-136l27 160c-101 -109 -243 -178 -404 -178c-266 0 -455 228 -406 509c48 272 306 490 563 490c169 0 293 -75 358 -192zM508 115c208 0 404 168 442 376c36 199 -94 357 -293 357c-207 0 -405 -169 -442 -376c-36 -199 95 -357 293 -357z
M510 -152c59 0 102 -52 91 -111c-9 -52 -58 -92 -108 -92c-59 0 -102 50 -91 111c9 50 58 92 108 92z" />
    <glyph glyph-name="uni1EA2" unicode="&#x1ea2;" horiz-adv-x="1335" 
d="M942 2012c-46 0 -80 -15 -113 -36l-52 85c50 34 107 52 157 52c124 0 209 -89 188 -209c-14 -77 -73 -146 -180 -176l-19 -85h-92l19 142c90 19 158 60 172 139c9 49 -20 88 -80 88zM1061 0l-54 262h-749l-147 -262h-160l909 1573l356 -1573h-155zM332 394h647l-175 841z
" />
    <glyph glyph-name="uni1EA3" unicode="&#x1ea3;" horiz-adv-x="1261" 
d="M749 1439c-46 0 -80 -15 -113 -36l-52 85c50 34 107 52 157 52c124 0 209 -89 188 -209c-14 -77 -73 -146 -180 -176l-19 -85h-92l19 142c90 19 158 60 172 139c9 49 -20 88 -80 88zM1032 963h136l-168 -963h-136l27 160c-101 -109 -243 -178 -404 -178
c-266 0 -455 228 -406 509c48 272 306 490 563 490c169 0 293 -75 358 -192zM508 115c208 0 404 168 442 376c36 199 -94 357 -293 357c-207 0 -405 -169 -442 -376c-36 -199 95 -357 293 -357z" />
    <glyph glyph-name="uni1EA4" unicode="&#x1ea4;" horiz-adv-x="1335" 
d="M1306 2425l-382 -290l-48 61l364 318zM928 1918l-245 -255l-69 43l253 306h140l149 -306l-78 -43zM-49 0l909 1573l356 -1573h-155l-54 262h-749l-147 -262h-160zM332 394h647l-175 841z" />
    <glyph glyph-name="uni1EA5" unicode="&#x1ea5;" horiz-adv-x="1261" 
d="M1113 1852l-382 -290l-48 61l364 318zM735 1345l-245 -255l-69 43l253 306h140l149 -306l-78 -43zM1032 963h136l-168 -963h-136l27 160c-101 -109 -243 -178 -404 -178c-266 0 -455 228 -406 509c48 272 306 490 563 490c169 0 293 -75 358 -192zM508 115
c208 0 404 168 442 376c36 199 -94 357 -293 357c-207 0 -405 -169 -442 -376c-36 -199 95 -357 293 -357z" />
    <glyph glyph-name="uni1EA6" unicode="&#x1ea6;" horiz-adv-x="1335" 
d="M1047 2196l-62 -61l-290 289l94 89zM928 1918l-244 -255l-69 43l252 306h140l149 -306l-78 -43zM1061 0l-54 262h-749l-147 -262h-160l909 1573l356 -1573h-155zM332 394h647l-175 841z" />
    <glyph glyph-name="uni1EA7" unicode="&#x1ea7;" horiz-adv-x="1261" 
d="M854 1623l-62 -61l-290 289l94 89zM735 1345l-244 -255l-69 43l252 306h140l149 -306l-78 -43zM1032 963h136l-168 -963h-136l27 160c-101 -109 -243 -178 -404 -178c-266 0 -455 228 -406 509c48 272 306 490 563 490c169 0 293 -75 358 -192zM508 115
c208 0 404 168 442 376c36 199 -94 357 -293 357c-207 0 -405 -169 -442 -376c-36 -199 95 -357 293 -357z" />
    <glyph glyph-name="uni1EA8" unicode="&#x1ea8;" horiz-adv-x="1335" 
d="M1023 2488c-45 0 -80 -14 -111 -35l-54 84c51 34 108 53 159 53c124 0 207 -90 186 -209c-12 -77 -72 -147 -179 -177l-19 -84h-93l20 141c89 19 159 61 172 139c8 49 -20 88 -81 88zM929 1918l-245 -255l-69 43l253 306h140l149 -306l-78 -43zM1061 0l-54 262h-749
l-147 -262h-160l909 1573l356 -1573h-155zM332 394h647l-175 841z" />
    <glyph glyph-name="uni1EA9" unicode="&#x1ea9;" horiz-adv-x="1261" 
d="M830 1915c-45 0 -80 -14 -111 -35l-54 84c51 34 108 53 159 53c124 0 207 -90 186 -209c-12 -77 -72 -147 -179 -177l-19 -84h-93l20 141c89 19 159 61 172 139c8 49 -20 88 -81 88zM736 1345l-245 -255l-69 43l253 306h140l149 -306l-78 -43zM1032 963h136l-168 -963
h-136l27 160c-101 -109 -243 -178 -404 -178c-266 0 -455 228 -406 509c48 272 306 490 563 490c169 0 293 -75 358 -192zM508 115c208 0 404 168 442 376c36 199 -94 357 -293 357c-207 0 -405 -169 -442 -376c-36 -199 95 -357 293 -357z" />
    <glyph glyph-name="uni1EAA" unicode="&#x1eaa;" horiz-adv-x="1335" 
d="M1254 2397l101 -11c-25 -148 -116 -258 -245 -258c-95 0 -143 56 -168 118c-23 41 -48 54 -80 54c-75 0 -132 -76 -147 -167l-102 11c25 150 119 259 243 259c91 0 142 -54 169 -119c19 -30 40 -54 84 -54c71 0 127 62 145 167zM1079 1663l-150 255l-245 -255l-69 43
l253 306h140l149 -306zM-49 0l909 1573l356 -1573h-155l-54 262h-749l-147 -262h-160zM332 394h647l-175 841z" />
    <glyph glyph-name="uni1EAB" unicode="&#x1eab;" horiz-adv-x="1261" 
d="M669 1727c-75 0 -132 -76 -147 -167l-102 11c25 150 119 259 243 259c91 0 142 -54 169 -119c19 -30 40 -54 84 -54c71 0 127 62 145 167l101 -11c-25 -148 -116 -258 -245 -258c-95 0 -143 56 -168 118c-23 41 -48 54 -80 54zM675 1439h140l149 -306l-78 -43l-150 255
l-245 -255l-69 43zM1032 963h136l-168 -963h-136l27 160c-101 -109 -243 -178 -404 -178c-266 0 -455 228 -406 509c48 272 306 490 563 490c169 0 293 -75 358 -192zM508 115c208 0 404 168 442 376c36 199 -94 357 -293 357c-207 0 -405 -169 -442 -376
c-36 -199 95 -357 293 -357z" />
    <glyph glyph-name="uni1EAC" unicode="&#x1eac;" horiz-adv-x="1335" 
d="M928 1918l-244 -255l-69 43l253 306h140l149 -306l-78 -43zM1216 0h-155l-54 262h-749l-147 -262h-160l909 1573zM332 394h647l-175 841zM551 -152c59 0 102 -52 91 -111c-9 -52 -58 -92 -108 -92c-59 0 -102 50 -91 111c9 50 58 92 108 92z" />
    <glyph glyph-name="uni1EAD" unicode="&#x1ead;" horiz-adv-x="1261" 
d="M735 1345l-244 -255l-69 43l253 306h140l149 -306l-78 -43zM1032 963h136l-168 -963h-136l27 160c-101 -109 -243 -178 -404 -178c-266 0 -455 228 -406 509c48 272 306 490 563 490c169 0 293 -75 358 -192zM508 115c208 0 404 168 442 376c36 199 -94 357 -293 357
c-207 0 -405 -169 -442 -376c-36 -199 95 -357 293 -357zM510 -152c59 0 102 -52 91 -111c-9 -52 -58 -92 -108 -92c-59 0 -102 50 -91 111c9 50 58 92 108 92z" />
    <glyph glyph-name="uni1EAE" unicode="&#x1eae;" horiz-adv-x="1335" 
d="M1306 2408l-382 -290l-48 61l364 318zM895 1807c146 0 249 102 270 216h110c-33 -190 -191 -306 -377 -306c-194 0 -319 126 -286 306h110c-21 -125 39 -216 173 -216zM-49 0l909 1573l356 -1573h-155l-54 262h-749l-147 -262h-160zM332 394h647l-175 841z" />
    <glyph glyph-name="uni1EAF" unicode="&#x1eaf;" horiz-adv-x="1261" 
d="M1113 1835l-382 -290l-48 61l364 318zM705 1144c-194 0 -319 126 -286 306h110c-21 -125 39 -216 173 -216c146 0 249 102 270 216h110c-33 -190 -191 -306 -377 -306zM1032 963h136l-168 -963h-136l27 160c-101 -109 -243 -178 -404 -178c-266 0 -455 228 -406 509
c48 272 306 490 563 490c169 0 293 -75 358 -192zM508 115c208 0 404 168 442 376c36 199 -94 357 -293 357c-207 0 -405 -169 -442 -376c-36 -199 95 -357 293 -357z" />
    <glyph glyph-name="uni1EB0" unicode="&#x1eb0;" horiz-adv-x="1335" 
d="M1047 2179l-62 -61l-289 289l93 89zM898 1717c-194 0 -319 126 -286 306h110c-21 -125 39 -216 173 -216c146 0 249 102 270 216h110c-33 -190 -191 -306 -377 -306zM-49 0l909 1573l356 -1573h-155l-54 262h-749l-147 -262h-160zM332 394h647l-175 841z" />
    <glyph glyph-name="uni1EB1" unicode="&#x1eb1;" horiz-adv-x="1261" 
d="M854 1606l-62 -61l-289 289l93 89zM705 1144c-194 0 -319 126 -286 306h110c-21 -125 39 -216 173 -216c146 0 249 102 270 216h110c-33 -190 -191 -306 -377 -306zM1032 963h136l-168 -963h-136l27 160c-101 -109 -243 -178 -404 -178c-266 0 -455 228 -406 509
c48 272 306 490 563 490c169 0 293 -75 358 -192zM508 115c208 0 404 168 442 376c36 199 -94 357 -293 357c-207 0 -405 -169 -442 -376c-36 -199 95 -357 293 -357z" />
    <glyph glyph-name="uni1EB2" unicode="&#x1eb2;" horiz-adv-x="1335" 
d="M1023 2471c-46 0 -80 -15 -113 -36l-52 85c50 34 107 52 157 52c124 0 209 -89 188 -209c-14 -77 -73 -146 -180 -176l-19 -85h-92l19 142c90 19 158 60 172 139c9 49 -20 88 -80 88zM898 1717c-194 0 -319 126 -286 306h110c-21 -125 39 -216 173 -216
c146 0 249 102 270 216h110c-33 -190 -191 -306 -377 -306zM-49 0l909 1573l356 -1573h-155l-54 262h-749l-147 -262h-160zM332 394h647l-175 841z" />
    <glyph glyph-name="uni1EB3" unicode="&#x1eb3;" horiz-adv-x="1261" 
d="M830 1898c-46 0 -80 -15 -113 -36l-52 85c50 34 107 52 157 52c124 0 209 -89 188 -209c-14 -77 -73 -146 -180 -176l-19 -85h-92l19 142c90 19 158 60 172 139c9 49 -20 88 -80 88zM705 1144c-194 0 -319 126 -286 306h110c-21 -125 39 -216 173 -216
c146 0 249 102 270 216h110c-33 -190 -191 -306 -377 -306zM1032 963h136l-168 -963h-136l27 160c-101 -109 -243 -178 -404 -178c-266 0 -455 228 -406 509c48 272 306 490 563 490c169 0 293 -75 358 -192zM508 115c208 0 404 168 442 376c36 199 -94 357 -293 357
c-207 0 -405 -169 -442 -376c-36 -199 95 -357 293 -357z" />
    <glyph glyph-name="uni1EB4" unicode="&#x1eb4;" horiz-adv-x="1335" 
d="M860 2284c-78 0 -131 -76 -148 -167l-102 10c25 143 114 259 247 259c97 0 137 -61 167 -117c15 -29 38 -55 86 -55c71 0 125 62 143 166l100 -10c-28 -155 -118 -259 -247 -259c-103 0 -139 66 -166 117c-19 35 -39 56 -80 56zM895 1807c146 0 249 102 270 216h110
c-33 -190 -191 -306 -377 -306c-194 0 -319 126 -286 306h110c-21 -125 39 -216 173 -216zM-49 0l909 1573l356 -1573h-155l-54 262h-749l-147 -262h-160zM332 394h647l-175 841z" />
    <glyph glyph-name="uni1EB5" unicode="&#x1eb5;" horiz-adv-x="1261" 
d="M667 1711c-78 0 -131 -76 -148 -167l-102 10c25 143 114 259 247 259c97 0 137 -61 167 -117c15 -29 38 -55 86 -55c71 0 125 62 143 166l100 -10c-28 -155 -118 -259 -247 -259c-103 0 -139 66 -166 117c-19 35 -39 56 -80 56zM705 1144c-194 0 -319 126 -286 306h110
c-21 -125 39 -216 173 -216c146 0 249 102 270 216h110c-33 -190 -191 -306 -377 -306zM1032 963h136l-168 -963h-136l27 160c-101 -109 -243 -178 -404 -178c-266 0 -455 228 -406 509c48 272 306 490 563 490c169 0 293 -75 358 -192zM508 115c208 0 404 168 442 376
c36 199 -94 357 -293 357c-207 0 -405 -169 -442 -376c-36 -199 95 -357 293 -357z" />
    <glyph glyph-name="uni1EB6" unicode="&#x1eb6;" horiz-adv-x="1335" 
d="M898 1717c-194 0 -319 126 -286 306h110c-21 -125 39 -216 173 -216c146 0 249 102 270 216h110c-33 -190 -191 -306 -377 -306zM-49 0l909 1573l356 -1573h-155l-54 262h-749l-147 -262h-160zM332 394h647l-175 841zM551 -152c59 0 102 -52 91 -111
c-9 -52 -58 -92 -108 -92c-59 0 -102 50 -91 111c9 50 58 92 108 92z" />
    <glyph glyph-name="uni1EB7" unicode="&#x1eb7;" horiz-adv-x="1261" 
d="M705 1144c-194 0 -319 126 -286 306h110c-21 -125 39 -216 173 -216c146 0 249 102 270 216h110c-33 -190 -191 -306 -377 -306zM1032 963h136l-168 -963h-136l27 160c-101 -109 -243 -178 -404 -178c-266 0 -455 228 -406 509c48 272 306 490 563 490
c169 0 293 -75 358 -192zM508 115c208 0 404 168 442 376c36 199 -94 357 -293 357c-207 0 -405 -169 -442 -376c-36 -199 95 -357 293 -357zM510 -152c59 0 102 -52 91 -111c-9 -52 -58 -92 -108 -92c-59 0 -102 50 -91 111c9 50 58 92 108 92z" />
    <glyph glyph-name="uni1EB8" unicode="&#x1eb8;" horiz-adv-x="1148" 
d="M1211 1400h-686l-99 -564h601l-25 -136h-600l-99 -564h686l-23 -136h-827l270 1536h827zM516 -152c59 0 102 -52 91 -111c-9 -52 -58 -92 -108 -92c-59 0 -102 50 -91 111c9 50 58 92 108 92z" />
    <glyph glyph-name="uni1EB9" unicode="&#x1eb9;" horiz-adv-x="1143" 
d="M659 981c279 0 471 -216 423 -492l-4 -22h-872v-1c-33 -202 101 -361 299 -361c131 0 258 67 345 170l111 -59c-114 -149 -283 -234 -457 -234c-286 0 -472 228 -423 509c48 272 304 490 578 490zM657 857c-177 0 -342 -116 -416 -279h717c-6 164 -130 279 -301 279z
M469 -152c59 0 102 -52 91 -111c-9 -52 -58 -92 -108 -92c-59 0 -102 50 -91 111c9 50 58 92 108 92z" />
    <glyph glyph-name="uni1EBA" unicode="&#x1eba;" horiz-adv-x="1148" 
d="M907 2012c-46 0 -80 -15 -113 -36l-52 85c50 34 107 52 157 52c124 0 209 -89 188 -209c-14 -77 -73 -146 -180 -176l-19 -85h-92l19 142c90 19 158 60 172 139c9 49 -20 88 -80 88zM1211 1400h-686l-99 -564h601l-25 -136h-600l-99 -564h686l-23 -136h-827l270 1536h827
z" />
    <glyph glyph-name="uni1EBB" unicode="&#x1ebb;" horiz-adv-x="1143" 
d="M760 1451c-46 0 -80 -15 -113 -36l-52 85c50 34 107 52 157 52c124 0 209 -89 188 -209c-14 -77 -73 -146 -180 -176l-19 -85h-92l19 142c90 19 158 60 172 139c9 49 -20 88 -80 88zM659 981c279 0 471 -216 423 -492l-4 -22h-872v-1c-33 -202 101 -361 299 -361
c131 0 258 67 345 170l111 -59c-114 -149 -283 -234 -457 -234c-286 0 -472 228 -423 509c48 272 304 490 578 490zM657 857c-177 0 -342 -116 -416 -279h717c-6 164 -130 279 -301 279z" />
    <glyph glyph-name="uni1EBC" unicode="&#x1ebc;" horiz-adv-x="1148" 
d="M744 1825c-78 0 -131 -76 -148 -167l-102 10c25 143 114 259 247 259c97 0 137 -61 167 -117c15 -29 38 -55 86 -55c71 0 125 62 143 166l100 -10c-28 -155 -118 -259 -247 -259c-103 0 -139 66 -166 117c-19 35 -39 56 -80 56zM139 0l270 1536h827l-25 -136h-686
l-99 -564h601l-25 -136h-600l-99 -564h686l-23 -136h-827z" />
    <glyph glyph-name="uni1EBD" unicode="&#x1ebd;" horiz-adv-x="1143" 
d="M597 1264c-78 0 -131 -76 -148 -167l-102 10c25 143 114 259 247 259c97 0 137 -61 167 -117c15 -29 38 -55 86 -55c71 0 125 62 143 166l100 -10c-28 -155 -118 -259 -247 -259c-103 0 -139 66 -166 117c-19 35 -39 56 -80 56zM659 981c279 0 471 -216 423 -492l-4 -22
h-872v-1c-33 -202 101 -361 299 -361c131 0 258 67 345 170l111 -59c-114 -149 -283 -234 -457 -234c-286 0 -472 228 -423 509c48 272 304 490 578 490zM657 857c-177 0 -342 -116 -416 -279h717c-6 164 -130 279 -301 279z" />
    <glyph glyph-name="uni1EBE" unicode="&#x1ebe;" horiz-adv-x="1148" 
d="M1271 2425l-382 -290l-48 61l364 318zM893 1918l-245 -255l-69 43l253 306h140l149 -306l-78 -43zM139 0l270 1536h827l-25 -136h-686l-99 -564h601l-25 -136h-600l-99 -564h686l-23 -136h-827z" />
    <glyph glyph-name="uni1EBF" unicode="&#x1ebf;" horiz-adv-x="1143" 
d="M1124 1864l-382 -290l-48 61l364 318zM746 1357l-245 -255l-69 43l253 306h140l149 -306l-78 -43zM659 981c279 0 471 -216 423 -492l-4 -22h-872v-1c-33 -202 101 -361 299 -361c131 0 258 67 345 170l111 -59c-114 -149 -283 -234 -457 -234c-286 0 -472 228 -423 509
c48 272 304 490 578 490zM657 857c-177 0 -342 -116 -416 -279h717c-6 164 -130 279 -301 279z" />
    <glyph glyph-name="uni1EC0" unicode="&#x1ec0;" horiz-adv-x="1148" 
d="M1012 2196l-62 -61l-290 289l94 89zM893 1918l-244 -255l-69 43l252 306h140l149 -306l-78 -43zM1211 1400h-686l-99 -564h601l-25 -136h-600l-99 -564h686l-23 -136h-827l270 1536h827z" />
    <glyph glyph-name="uni1EC1" unicode="&#x1ec1;" horiz-adv-x="1143" 
d="M865 1635l-62 -61l-290 289l94 89zM746 1357l-244 -255l-69 43l252 306h140l149 -306l-78 -43zM659 981c279 0 471 -216 423 -492l-4 -22h-872v-1c-33 -202 101 -361 299 -361c131 0 258 67 345 170l111 -59c-114 -149 -283 -234 -457 -234c-286 0 -472 228 -423 509
c48 272 304 490 578 490zM657 857c-177 0 -342 -116 -416 -279h717c-6 164 -130 279 -301 279z" />
    <glyph glyph-name="uni1EC2" unicode="&#x1ec2;" horiz-adv-x="1148" 
d="M988 2488c-45 0 -80 -14 -111 -35l-54 84c51 34 108 53 159 53c124 0 207 -90 186 -209c-12 -77 -72 -147 -179 -177l-19 -84h-93l20 141c89 19 159 61 172 139c8 49 -20 88 -81 88zM894 1918l-245 -255l-69 43l253 306h140l149 -306l-78 -43zM1211 1400h-686l-99 -564
h601l-25 -136h-600l-99 -564h686l-23 -136h-827l270 1536h827z" />
    <glyph glyph-name="uni1EC3" unicode="&#x1ec3;" horiz-adv-x="1143" 
d="M841 1927c-45 0 -80 -14 -111 -35l-54 84c51 34 108 53 159 53c124 0 207 -90 186 -209c-12 -77 -72 -147 -179 -177l-19 -84h-93l20 141c89 19 159 61 172 139c8 49 -20 88 -81 88zM747 1357l-245 -255l-69 43l253 306h140l149 -306l-78 -43zM659 981
c279 0 471 -216 423 -492l-4 -22h-872v-1c-33 -202 101 -361 299 -361c131 0 258 67 345 170l111 -59c-114 -149 -283 -234 -457 -234c-286 0 -472 228 -423 509c48 272 304 490 578 490zM657 857c-177 0 -342 -116 -416 -279h717c-6 164 -130 279 -301 279z" />
    <glyph glyph-name="uni1EC4" unicode="&#x1ec4;" horiz-adv-x="1148" 
d="M827 2300c-75 0 -132 -76 -147 -167l-102 11c25 150 119 259 243 259c91 0 142 -54 169 -119c19 -30 40 -54 84 -54c71 0 127 62 145 167l101 -11c-25 -148 -116 -258 -245 -258c-95 0 -143 56 -168 118c-23 41 -48 54 -80 54zM833 2012h140l149 -306l-78 -43l-150 255
l-245 -255l-69 43zM139 0l270 1536h827l-25 -136h-686l-99 -564h601l-25 -136h-600l-99 -564h686l-23 -136h-827z" />
    <glyph glyph-name="uni1EC5" unicode="&#x1ec5;" horiz-adv-x="1143" 
d="M680 1739c-75 0 -132 -76 -147 -167l-102 11c25 150 119 259 243 259c91 0 142 -54 169 -119c19 -30 40 -54 84 -54c71 0 127 62 145 167l101 -11c-25 -148 -116 -258 -245 -258c-95 0 -143 56 -168 118c-23 41 -48 54 -80 54zM686 1451h140l149 -306l-78 -43l-150 255
l-245 -255l-69 43zM659 981c279 0 471 -216 423 -492l-4 -22h-872v-1c-33 -202 101 -361 299 -361c131 0 258 67 345 170l111 -59c-114 -149 -283 -234 -457 -234c-286 0 -472 228 -423 509c48 272 304 490 578 490zM657 857c-177 0 -342 -116 -416 -279h717
c-6 164 -130 279 -301 279z" />
    <glyph glyph-name="uni1EC6" unicode="&#x1ec6;" horiz-adv-x="1148" 
d="M893 1918l-244 -255l-69 43l253 306h140l149 -306l-78 -43zM1211 1400h-686l-99 -564h601l-25 -136h-600l-99 -564h686l-23 -136h-827l270 1536h827zM516 -152c59 0 102 -52 91 -111c-9 -52 -58 -92 -108 -92c-59 0 -102 50 -91 111c9 50 58 92 108 92z" />
    <glyph glyph-name="uni1EC7" unicode="&#x1ec7;" horiz-adv-x="1143" 
d="M746 1357l-244 -255l-69 43l253 306h140l149 -306l-78 -43zM659 981c279 0 471 -216 423 -492l-4 -22h-872v-1c-33 -202 101 -361 299 -361c131 0 258 67 345 170l111 -59c-114 -149 -283 -234 -457 -234c-286 0 -472 228 -423 509c48 272 304 490 578 490zM657 857
c-177 0 -342 -116 -416 -279h717c-6 164 -130 279 -301 279zM469 -152c59 0 102 -52 91 -111c-9 -52 -58 -92 -108 -92c-59 0 -102 50 -91 111c9 50 58 92 108 92z" />
    <glyph glyph-name="uni1EC8" unicode="&#x1ec8;" horiz-adv-x="586" 
d="M452 1643l19 142c90 19 158 60 172 139c9 49 -20 88 -80 88c-46 0 -80 -15 -113 -36l-52 85c50 34 107 52 157 52c124 0 209 -89 188 -209c-14 -77 -73 -146 -180 -176l-19 -85h-92zM139 0l270 1536h141l-270 -1536h-141z" />
    <glyph glyph-name="uni1EC9" unicode="&#x1ec9;" horiz-adv-x="489" 
d="M302 1069l19 142c90 19 158 60 172 139c9 49 -20 88 -80 88c-46 0 -80 -15 -113 -36l-52 85c50 34 107 52 157 52c124 0 209 -89 188 -209c-14 -77 -73 -146 -180 -176l-19 -85h-92zM93 0l168 963h136l-168 -963h-136z" />
    <glyph glyph-name="uni1ECA" unicode="&#x1eca;" horiz-adv-x="586" 
d="M139 0l270 1536h141l-270 -1536h-141zM155 -355c-59 0 -102 50 -91 111c9 50 58 92 108 92c59 0 102 -52 91 -111c-9 -52 -58 -92 -108 -92z" />
    <glyph glyph-name="uni1ECB" unicode="&#x1ecb;" horiz-adv-x="488" 
d="M372 1144c-59 0 -101 49 -91 108c9 51 56 88 106 88c57 0 99 -47 88 -108c-9 -49 -55 -88 -103 -88zM93 0l168 963h134l-168 -963h-134zM75 -512c-59 0 -102 50 -91 111c9 50 58 92 108 92c59 0 102 -52 91 -111c-9 -52 -58 -92 -108 -92z" />
    <glyph glyph-name="uni1ECC" unicode="&#x1ecc;" horiz-adv-x="1776" 
d="M810 -20c-441 0 -735 357 -657 798c75 431 484 778 916 778c441 0 735 -357 657 -798c-76 -431 -485 -778 -916 -778zM815 120c365 0 709 293 774 658c62 355 -170 638 -526 638c-363 0 -709 -293 -773 -658c-63 -355 172 -638 525 -638zM751 -355c-59 0 -102 50 -91 111
c9 50 58 92 108 92c59 0 102 -52 91 -111c-9 -52 -58 -92 -108 -92z" />
    <glyph glyph-name="uni1ECD" unicode="&#x1ecd;" horiz-adv-x="1163" 
d="M503 -18c-284 0 -472 228 -423 509c47 272 305 490 579 490c283 0 471 -228 422 -509c-47 -272 -305 -490 -578 -490zM506 115c207 0 404 168 442 376c36 199 -96 356 -292 356c-210 0 -405 -168 -442 -375c-36 -199 93 -357 292 -357zM444 -355c-59 0 -102 50 -91 111
c9 50 58 92 108 92c59 0 102 -52 91 -111c-9 -52 -58 -92 -108 -92z" />
    <glyph glyph-name="uni1ECE" unicode="&#x1ece;" horiz-adv-x="1776" 
d="M1048 1643l19 142c90 19 158 60 172 139c9 49 -20 88 -80 88c-46 0 -80 -15 -113 -36l-52 85c50 34 107 52 157 52c124 0 209 -89 188 -209c-14 -77 -73 -146 -180 -176l-19 -85h-92zM810 -20c-441 0 -735 357 -657 798c75 431 484 778 916 778c441 0 735 -357 657 -798
c-76 -431 -485 -778 -916 -778zM815 120c365 0 709 293 774 658c62 355 -170 638 -526 638c-363 0 -709 -293 -773 -658c-63 -355 172 -638 525 -638z" />
    <glyph glyph-name="uni1ECF" unicode="&#x1ecf;" horiz-adv-x="1163" 
d="M638 1070l19 142c90 19 158 60 172 139c9 49 -20 88 -80 88c-46 0 -80 -15 -113 -36l-52 85c50 34 107 52 157 52c124 0 209 -89 188 -209c-14 -77 -73 -146 -180 -176l-19 -85h-92zM503 -18c-284 0 -472 228 -423 509c47 272 305 490 579 490c283 0 471 -228 422 -509
c-47 -272 -305 -490 -578 -490zM506 115c207 0 404 168 442 376c36 199 -96 356 -292 356c-210 0 -405 -168 -442 -375c-36 -199 93 -357 292 -357z" />
    <glyph glyph-name="uni1ED0" unicode="&#x1ed0;" horiz-adv-x="1776" 
d="M1141 2135l-48 61l364 318l66 -89zM900 1663l-69 43l253 306h140l149 -306l-78 -43l-150 255zM810 -20c-441 0 -735 357 -657 798c75 431 484 778 916 778c441 0 735 -357 657 -798c-76 -431 -485 -778 -916 -778zM815 120c365 0 709 293 774 658
c62 355 -170 638 -526 638c-363 0 -709 -293 -773 -658c-63 -355 172 -638 525 -638z" />
    <glyph glyph-name="uni1ED1" unicode="&#x1ed1;" horiz-adv-x="1163" 
d="M731 1562l-48 61l364 318l66 -89zM490 1090l-69 43l253 306h140l149 -306l-78 -43l-150 255zM503 -18c-284 0 -472 228 -423 509c47 272 305 490 579 490c283 0 471 -228 422 -509c-47 -272 -305 -490 -578 -490zM506 115c207 0 404 168 442 376c36 199 -96 356 -292 356
c-210 0 -405 -168 -442 -375c-36 -199 93 -357 292 -357z" />
    <glyph glyph-name="uni1ED2" unicode="&#x1ed2;" horiz-adv-x="1776" 
d="M1202 2135l-290 289l94 89l258 -317zM901 1663l-69 43l252 306h140l149 -306l-78 -43l-150 255zM810 -20c-441 0 -735 357 -657 798c75 431 484 778 916 778c441 0 735 -357 657 -798c-76 -431 -485 -778 -916 -778zM815 120c365 0 709 293 774 658
c62 355 -170 638 -526 638c-363 0 -709 -293 -773 -658c-63 -355 172 -638 525 -638z" />
    <glyph glyph-name="uni1ED3" unicode="&#x1ed3;" horiz-adv-x="1163" 
d="M792 1562l-290 289l94 89l258 -317zM491 1090l-69 43l252 306h140l149 -306l-78 -43l-150 255zM503 -18c-284 0 -472 228 -423 509c47 272 305 490 579 490c283 0 471 -228 422 -509c-47 -272 -305 -490 -578 -490zM506 115c207 0 404 168 442 376
c36 199 -96 356 -292 356c-210 0 -405 -168 -442 -375c-36 -199 93 -357 292 -357z" />
    <glyph glyph-name="uni1ED4" unicode="&#x1ed4;" horiz-adv-x="1776" 
d="M1129 2120l20 141c89 19 159 61 172 139c8 49 -20 88 -81 88c-45 0 -80 -14 -111 -35l-54 84c51 34 108 53 159 53c124 0 207 -90 186 -209c-12 -77 -72 -147 -179 -177l-19 -84h-93zM901 1663l-69 43l253 306h140l149 -306l-78 -43l-150 255zM810 -20
c-441 0 -735 357 -657 798c75 431 484 778 916 778c441 0 735 -357 657 -798c-76 -431 -485 -778 -916 -778zM815 120c365 0 709 293 774 658c62 355 -170 638 -526 638c-363 0 -709 -293 -773 -658c-63 -355 172 -638 525 -638z" />
    <glyph glyph-name="uni1ED5" unicode="&#x1ed5;" horiz-adv-x="1163" 
d="M719 1547l20 141c89 19 159 61 172 139c8 49 -20 88 -81 88c-45 0 -80 -14 -111 -35l-54 84c51 34 108 53 159 53c124 0 207 -90 186 -209c-12 -77 -72 -147 -179 -177l-19 -84h-93zM491 1090l-69 43l253 306h140l149 -306l-78 -43l-150 255zM503 -18
c-284 0 -472 228 -423 509c47 272 305 490 579 490c283 0 471 -228 422 -509c-47 -272 -305 -490 -578 -490zM506 115c207 0 404 168 442 376c36 199 -96 356 -292 356c-210 0 -405 -168 -442 -375c-36 -199 93 -357 292 -357z" />
    <glyph glyph-name="uni1ED6" unicode="&#x1ed6;" horiz-adv-x="1776" 
d="M1327 2128c-95 0 -143 56 -168 118c-23 41 -48 54 -80 54c-75 0 -132 -76 -147 -167l-102 11c25 150 119 259 243 259c91 0 142 -54 169 -119c19 -30 40 -54 84 -54c71 0 127 62 145 167l101 -11c-25 -148 -116 -258 -245 -258zM901 1663l-69 43l253 306h140l149 -306
l-78 -43l-150 255zM810 -20c-441 0 -735 357 -657 798c75 431 484 778 916 778c441 0 735 -357 657 -798c-76 -431 -485 -778 -916 -778zM815 120c365 0 709 293 774 658c62 355 -170 638 -526 638c-363 0 -709 -293 -773 -658c-63 -355 172 -638 525 -638z" />
    <glyph glyph-name="uni1ED7" unicode="&#x1ed7;" horiz-adv-x="1163" 
d="M917 1555c-95 0 -143 56 -168 118c-23 41 -48 54 -80 54c-75 0 -132 -76 -147 -167l-102 11c25 150 119 259 243 259c91 0 142 -54 169 -119c19 -30 40 -54 84 -54c71 0 127 62 145 167l101 -11c-25 -148 -116 -258 -245 -258zM491 1090l-69 43l253 306h140l149 -306
l-78 -43l-150 255zM503 -18c-284 0 -472 228 -423 509c47 272 305 490 579 490c283 0 471 -228 422 -509c-47 -272 -305 -490 -578 -490zM506 115c207 0 404 168 442 376c36 199 -96 356 -292 356c-210 0 -405 -168 -442 -375c-36 -199 93 -357 292 -357z" />
    <glyph glyph-name="uni1ED8" unicode="&#x1ed8;" horiz-adv-x="1776" 
d="M901 1663l-69 43l253 306h140l149 -306l-78 -43l-151 255zM810 -20c-441 0 -735 357 -657 798c75 431 484 778 916 778c441 0 735 -357 657 -798c-76 -431 -485 -778 -916 -778zM815 120c365 0 709 293 774 658c62 355 -170 638 -526 638c-363 0 -709 -293 -773 -658
c-63 -355 172 -638 525 -638zM751 -355c-59 0 -102 50 -91 111c9 50 58 92 108 92c59 0 102 -52 91 -111c-9 -52 -58 -92 -108 -92z" />
    <glyph glyph-name="uni1ED9" unicode="&#x1ed9;" horiz-adv-x="1163" 
d="M491 1090l-69 43l253 306h140l149 -306l-78 -43l-151 255zM503 -18c-284 0 -472 228 -423 509c47 272 305 490 579 490c283 0 471 -228 422 -509c-47 -272 -305 -490 -578 -490zM506 115c207 0 404 168 442 376c36 199 -96 356 -292 356c-210 0 -405 -168 -442 -375
c-36 -199 93 -357 292 -357zM444 -355c-59 0 -102 50 -91 111c9 50 58 92 108 92c59 0 102 -52 91 -111c-9 -52 -58 -92 -108 -92z" />
    <glyph glyph-name="uni1EDA" unicode="&#x1eda;" horiz-adv-x="1776" 
d="M1442 1949l-382 -290l-48 61l364 318zM1820 1498h118l-18 -107c-31 -178 -121 -238 -213 -238c-5 0 -10 0 -16 1c46 -117 60 -252 35 -396c-76 -431 -485 -778 -916 -778c-441 0 -735 357 -657 798c75 431 484 778 916 778c268 0 481 -132 590 -334h6
c77 0 120 80 132 150zM1589 778c62 355 -170 638 -526 638c-363 0 -709 -293 -773 -658c-63 -355 172 -638 525 -638c365 0 709 293 774 658z" />
    <glyph glyph-name="uni1EDB" unicode="&#x1edb;" horiz-adv-x="1163" 
d="M1032 1376l-382 -290l-48 61l364 318zM1232 1008h118l-18 -107c-31 -178 -121 -238 -213 -238c-14 0 -28 1 -43 4c15 -60 17 -126 5 -195c-47 -272 -305 -490 -578 -490c-284 0 -472 228 -423 509c47 272 305 490 579 490c186 0 332 -99 395 -247c9 -1 16 -2 23 -2
c77 0 120 80 132 150zM948 491c36 199 -96 356 -292 356c-210 0 -405 -168 -442 -375c-36 -199 93 -357 292 -357c207 0 404 168 442 376z" />
    <glyph glyph-name="uni1EDC" unicode="&#x1edc;" horiz-adv-x="1776" 
d="M1183 1720l-62 -61l-289 289l93 89zM1820 1498h118l-18 -107c-31 -178 -121 -238 -213 -238c-5 0 -10 0 -16 1c46 -117 60 -252 35 -396c-76 -431 -485 -778 -916 -778c-441 0 -735 357 -657 798c75 431 484 778 916 778c268 0 481 -132 590 -334h6c77 0 120 80 132 150z
M1589 778c62 355 -170 638 -526 638c-363 0 -709 -293 -773 -658c-63 -355 172 -638 525 -638c365 0 709 293 774 658z" />
    <glyph glyph-name="uni1EDD" unicode="&#x1edd;" horiz-adv-x="1163" 
d="M773 1147l-62 -61l-289 289l93 89zM1232 1008h118l-18 -107c-31 -178 -121 -238 -213 -238c-14 0 -28 1 -43 4c15 -60 17 -126 5 -195c-47 -272 -305 -490 -578 -490c-284 0 -472 228 -423 509c47 272 305 490 579 490c186 0 332 -99 395 -247c9 -1 16 -2 23 -2
c77 0 120 80 132 150zM948 491c36 199 -96 356 -292 356c-210 0 -405 -168 -442 -375c-36 -199 93 -357 292 -357c207 0 404 168 442 376z" />
    <glyph glyph-name="uni1EDE" unicode="&#x1ede;" horiz-adv-x="1776" 
d="M1159 2012c-46 0 -80 -15 -113 -36l-52 85c50 34 107 52 157 52c124 0 209 -89 188 -209c-14 -77 -73 -146 -180 -176l-19 -85h-92l19 142c90 19 158 60 172 139c9 49 -20 88 -80 88zM1820 1498h118l-18 -107c-31 -178 -121 -238 -213 -238c-5 0 -10 0 -16 1
c46 -117 60 -252 35 -396c-76 -431 -485 -778 -916 -778c-441 0 -735 357 -657 798c75 431 484 778 916 778c268 0 481 -132 590 -334h6c77 0 120 80 132 150zM1589 778c62 355 -170 638 -526 638c-363 0 -709 -293 -773 -658c-63 -355 172 -638 525 -638
c365 0 709 293 774 658z" />
    <glyph glyph-name="uni1EDF" unicode="&#x1edf;" horiz-adv-x="1163" 
d="M749 1439c-46 0 -80 -15 -113 -36l-52 85c50 34 107 52 157 52c124 0 209 -89 188 -209c-14 -77 -73 -146 -180 -176l-19 -85h-92l19 142c90 19 158 60 172 139c9 49 -20 88 -80 88zM1232 1008h118l-18 -107c-31 -178 -121 -238 -213 -238c-14 0 -28 1 -43 4
c15 -60 17 -126 5 -195c-47 -272 -305 -490 -578 -490c-284 0 -472 228 -423 509c47 272 305 490 579 490c186 0 332 -99 395 -247c9 -1 16 -2 23 -2c77 0 120 80 132 150zM948 491c36 199 -96 356 -292 356c-210 0 -405 -168 -442 -375c-36 -199 93 -357 292 -357
c207 0 404 168 442 376z" />
    <glyph glyph-name="uni1EE0" unicode="&#x1ee0;" horiz-adv-x="1776" 
d="M996 1825c-78 0 -131 -76 -148 -167l-102 10c25 143 114 259 247 259c97 0 137 -61 167 -117c15 -29 38 -55 86 -55c71 0 125 62 143 166l100 -10c-28 -155 -118 -259 -247 -259c-103 0 -139 66 -166 117c-19 35 -39 56 -80 56zM1820 1498h118l-18 -107
c-31 -178 -121 -238 -213 -238c-5 0 -10 0 -16 1c46 -117 60 -252 35 -396c-76 -431 -485 -778 -916 -778c-441 0 -735 357 -657 798c75 431 484 778 916 778c268 0 481 -132 590 -334h6c77 0 120 80 132 150zM1589 778c62 355 -170 638 -526 638
c-363 0 -709 -293 -773 -658c-63 -355 172 -638 525 -638c365 0 709 293 774 658z" />
    <glyph glyph-name="uni1EE1" unicode="&#x1ee1;" horiz-adv-x="1163" 
d="M586 1252c-78 0 -131 -76 -148 -167l-102 10c25 143 114 259 247 259c97 0 137 -61 167 -117c15 -29 38 -55 86 -55c71 0 125 62 143 166l100 -10c-28 -155 -118 -259 -247 -259c-103 0 -139 66 -166 117c-19 35 -39 56 -80 56zM1232 1008h118l-18 -107
c-31 -178 -121 -238 -213 -238c-14 0 -28 1 -43 4c15 -60 17 -126 5 -195c-47 -272 -305 -490 -578 -490c-284 0 -472 228 -423 509c47 272 305 490 579 490c186 0 332 -99 395 -247c9 -1 16 -2 23 -2c77 0 120 80 132 150zM948 491c36 199 -96 356 -292 356
c-210 0 -405 -168 -442 -375c-36 -199 93 -357 292 -357c207 0 404 168 442 376z" />
    <glyph glyph-name="uni1EE2" unicode="&#x1ee2;" horiz-adv-x="1776" 
d="M1820 1498h118l-18 -107c-31 -178 -121 -238 -213 -238c-5 0 -10 0 -16 1c46 -117 60 -252 35 -396c-76 -431 -485 -778 -916 -778c-441 0 -735 357 -657 798c75 431 484 778 916 778c268 0 481 -132 590 -334h6c77 0 120 80 132 150zM1589 778c62 355 -170 638 -526 638
c-363 0 -709 -293 -773 -658c-63 -355 172 -638 525 -638c365 0 709 293 774 658zM768 -152c59 0 102 -52 91 -111c-9 -52 -58 -92 -108 -92c-59 0 -102 50 -91 111c9 50 58 92 108 92z" />
    <glyph glyph-name="uni1EE3" unicode="&#x1ee3;" horiz-adv-x="1163" 
d="M1232 1008h118l-18 -107c-31 -178 -121 -238 -213 -238c-14 0 -28 1 -43 4c15 -60 17 -126 5 -195c-47 -272 -305 -490 -578 -490c-284 0 -472 228 -423 509c47 272 305 490 579 490c186 0 332 -99 395 -247c9 -1 16 -2 23 -2c77 0 120 80 132 150zM948 491
c36 199 -96 356 -292 356c-210 0 -405 -168 -442 -375c-36 -199 93 -357 292 -357c207 0 404 168 442 376zM461 -152c59 0 102 -52 91 -111c-9 -52 -58 -92 -108 -92c-59 0 -102 50 -91 111c9 50 58 92 108 92z" />
    <glyph glyph-name="uni1EE4" unicode="&#x1ee4;" horiz-adv-x="1513" 
d="M676 -20c-331 0 -538 230 -485 531l182 1025h141l-179 -1014c-42 -232 106 -402 346 -402c250 0 469 180 511 412l177 1004h141l-183 -1035c-54 -301 -329 -521 -651 -521zM617 -355c-59 0 -102 50 -91 111c9 50 58 92 108 92c59 0 102 -52 91 -111
c-9 -52 -58 -92 -108 -92z" />
    <glyph glyph-name="uni1EE5" unicode="&#x1ee5;" horiz-adv-x="1031" 
d="M435 -18c-222 0 -348 151 -310 368l107 613h137l-106 -609c-26 -147 50 -239 175 -239c137 0 257 103 283 249l104 599h137l-109 -623c-37 -218 -206 -358 -418 -358zM372 -355c-59 0 -102 50 -91 111c9 50 58 92 108 92c59 0 102 -52 91 -111c-9 -52 -58 -92 -108 -92z
" />
    <glyph glyph-name="uni1EE6" unicode="&#x1ee6;" horiz-adv-x="1513" 
d="M914 1643l19 142c90 19 158 60 172 139c9 49 -20 88 -80 88c-46 0 -80 -15 -113 -36l-52 85c50 34 107 52 157 52c124 0 209 -89 188 -209c-14 -77 -73 -146 -180 -176l-19 -85h-92zM676 -20c-331 0 -538 230 -485 531l182 1025h141l-179 -1014
c-42 -232 106 -402 346 -402c250 0 469 180 511 412l177 1004h141l-183 -1035c-54 -301 -329 -521 -651 -521z" />
    <glyph glyph-name="uni1EE7" unicode="&#x1ee7;" horiz-adv-x="1031" 
d="M570 1070l19 142c90 19 158 60 172 139c9 49 -20 88 -80 88c-46 0 -80 -15 -113 -36l-52 85c50 34 107 52 157 52c124 0 209 -89 188 -209c-14 -77 -73 -146 -180 -176l-19 -85h-92zM435 -18c-222 0 -348 151 -310 368l107 613h137l-106 -609c-26 -147 50 -239 175 -239
c137 0 257 103 283 249l104 599h137l-109 -623c-37 -218 -206 -358 -418 -358z" />
    <glyph glyph-name="uni1EE8" unicode="&#x1ee8;" horiz-adv-x="1513" 
d="M1308 1949l-382 -290l-48 61l364 318zM1675 1636h118l-18 -107c-31 -178 -121 -238 -213 -238c-29 0 -61 6 -93 16l-142 -806c-54 -301 -329 -521 -651 -521c-331 0 -538 230 -485 531l182 1025h141l-179 -1014c-42 -232 106 -402 346 -402c250 0 469 180 511 412
l177 1004h141l-30 -170c16 -4 29 -6 40 -6c77 0 120 80 132 150z" />
    <glyph glyph-name="uni1EE9" unicode="&#x1ee9;" horiz-adv-x="1031" 
d="M964 1376l-382 -290l-48 61l364 318zM1134 981h118l-18 -107c-31 -178 -121 -238 -213 -238c-35 0 -74 8 -112 23l-56 -319c-37 -218 -206 -358 -418 -358c-222 0 -348 151 -310 368l107 613h137l-106 -609c-26 -147 50 -239 175 -239c137 0 257 103 283 249l104 599h137
l-43 -244c24 -10 45 -14 60 -14c77 0 120 80 132 150z" />
    <glyph glyph-name="uni1EEA" unicode="&#x1eea;" horiz-adv-x="1513" 
d="M1049 1720l-62 -61l-289 289l93 89zM1675 1636h118l-18 -107c-31 -178 -121 -238 -213 -238c-29 0 -61 6 -93 16l-142 -806c-54 -301 -329 -521 -651 -521c-331 0 -538 230 -485 531l182 1025h141l-179 -1014c-42 -232 106 -402 346 -402c250 0 469 180 511 412l177 1004
h141l-30 -170c16 -4 29 -6 40 -6c77 0 120 80 132 150z" />
    <glyph glyph-name="uni1EEB" unicode="&#x1eeb;" horiz-adv-x="1031" 
d="M705 1147l-62 -61l-289 289l93 89zM1134 981h118l-18 -107c-31 -178 -121 -238 -213 -238c-35 0 -74 8 -112 23l-56 -319c-37 -218 -206 -358 -418 -358c-222 0 -348 151 -310 368l107 613h137l-106 -609c-26 -147 50 -239 175 -239c137 0 257 103 283 249l104 599h137
l-43 -244c24 -10 45 -14 60 -14c77 0 120 80 132 150z" />
    <glyph glyph-name="uni1EEC" unicode="&#x1eec;" horiz-adv-x="1513" 
d="M1025 2012c-46 0 -80 -15 -113 -36l-52 85c50 34 107 52 157 52c124 0 209 -89 188 -209c-14 -77 -73 -146 -180 -176l-19 -85h-92l19 142c90 19 158 60 172 139c9 49 -20 88 -80 88zM1675 1636h118l-18 -107c-31 -178 -121 -238 -213 -238c-29 0 -61 6 -93 16l-142 -806
c-54 -301 -329 -521 -651 -521c-331 0 -538 230 -485 531l182 1025h141l-179 -1014c-42 -232 106 -402 346 -402c250 0 469 180 511 412l177 1004h141l-30 -170c16 -4 29 -6 40 -6c77 0 120 80 132 150z" />
    <glyph glyph-name="uni1EED" unicode="&#x1eed;" horiz-adv-x="1031" 
d="M681 1439c-46 0 -80 -15 -113 -36l-52 85c50 34 107 52 157 52c124 0 209 -89 188 -209c-14 -77 -73 -146 -180 -176l-19 -85h-92l19 142c90 19 158 60 172 139c9 49 -20 88 -80 88zM1134 981h118l-18 -107c-31 -178 -121 -238 -213 -238c-35 0 -74 8 -112 23l-56 -319
c-37 -218 -206 -358 -418 -358c-222 0 -348 151 -310 368l107 613h137l-106 -609c-26 -147 50 -239 175 -239c137 0 257 103 283 249l104 599h137l-43 -244c24 -10 45 -14 60 -14c77 0 120 80 132 150z" />
    <glyph glyph-name="uni1EEE" unicode="&#x1eee;" horiz-adv-x="1513" 
d="M862 1825c-78 0 -131 -76 -148 -167l-102 10c25 143 114 259 247 259c97 0 137 -61 167 -117c15 -29 38 -55 86 -55c71 0 125 62 143 166l100 -10c-28 -155 -118 -259 -247 -259c-103 0 -139 66 -166 117c-19 35 -39 56 -80 56zM1675 1636h118l-18 -107
c-31 -178 -121 -238 -213 -238c-29 0 -61 6 -93 16l-142 -806c-54 -301 -329 -521 -651 -521c-331 0 -538 230 -485 531l182 1025h141l-179 -1014c-42 -232 106 -402 346 -402c250 0 469 180 511 412l177 1004h141l-30 -170c16 -4 29 -6 40 -6c77 0 120 80 132 150z" />
    <glyph glyph-name="uni1EEF" unicode="&#x1eef;" horiz-adv-x="1031" 
d="M518 1252c-78 0 -131 -76 -148 -167l-102 10c25 143 114 259 247 259c97 0 137 -61 167 -117c15 -29 38 -55 86 -55c71 0 125 62 143 166l100 -10c-28 -155 -118 -259 -247 -259c-103 0 -139 66 -166 117c-19 35 -39 56 -80 56zM1134 981h118l-18 -107
c-31 -178 -121 -238 -213 -238c-35 0 -74 8 -112 23l-56 -319c-37 -218 -206 -358 -418 -358c-222 0 -348 151 -310 368l107 613h137l-106 -609c-26 -147 50 -239 175 -239c137 0 257 103 283 249l104 599h137l-43 -244c24 -10 45 -14 60 -14c77 0 120 80 132 150z" />
    <glyph glyph-name="uni1EF0" unicode="&#x1ef0;" horiz-adv-x="1513" 
d="M1675 1636h118l-18 -107c-31 -178 -121 -238 -213 -238c-29 0 -61 6 -93 16l-142 -806c-54 -301 -329 -521 -651 -521c-331 0 -538 230 -485 531l182 1025h141l-179 -1014c-42 -232 106 -402 346 -402c250 0 469 180 511 412l177 1004h141l-30 -170c16 -4 29 -6 40 -6
c77 0 120 80 132 150zM634 -152c59 0 102 -52 91 -111c-9 -52 -58 -92 -108 -92c-59 0 -102 50 -91 111c9 50 58 92 108 92z" />
    <glyph glyph-name="uni1EF1" unicode="&#x1ef1;" horiz-adv-x="1031" 
d="M1134 981h118l-18 -107c-31 -178 -121 -238 -213 -238c-35 0 -74 8 -112 23l-56 -319c-37 -218 -206 -358 -418 -358c-222 0 -348 151 -310 368l107 613h137l-106 -609c-26 -147 50 -239 175 -239c137 0 257 103 283 249l104 599h137l-43 -244c24 -10 45 -14 60 -14
c77 0 120 80 132 150zM389 -152c59 0 102 -52 91 -111c-9 -52 -58 -92 -108 -92c-59 0 -102 50 -91 111c9 50 58 92 108 92z" />
    <glyph glyph-name="Ygrave" unicode="&#x1ef2;" horiz-adv-x="1247" 
d="M918 1720l-62 -61l-289 289l93 89zM1416 1536l-679 -811l-128 -725h-141l128 727l-392 809h172l315 -663l550 663h175z" />
    <glyph glyph-name="ygrave" unicode="&#x1ef3;" horiz-adv-x="958" 
d="M659 1147l-62 -61l-289 289l93 89zM868 963h156l-840 -1455h-149l285 501l-219 954h150l172 -805z" />
    <glyph glyph-name="uni1EF4" unicode="&#x1ef4;" horiz-adv-x="1247" 
d="M1416 1536l-679 -811l-128 -725h-141l128 727l-392 809h172l315 -663l550 663h175zM504 -152c59 0 102 -52 91 -111c-9 -52 -58 -92 -108 -92c-59 0 -102 50 -91 111c9 50 58 92 108 92z" />
    <glyph glyph-name="uni1EF5" unicode="&#x1ef5;" horiz-adv-x="958" 
d="M868 963h156l-840 -1455h-149l285 501l-219 954h150l172 -805zM559 -295c59 0 102 -52 91 -111c-9 -52 -58 -92 -108 -92c-59 0 -102 50 -91 111c9 50 58 92 108 92z" />
    <glyph glyph-name="uni1EF6" unicode="&#x1ef6;" horiz-adv-x="1247" 
d="M894 2012c-46 0 -80 -15 -113 -36l-52 85c50 34 107 52 157 52c124 0 209 -89 188 -209c-14 -77 -73 -146 -180 -176l-19 -85h-92l19 142c90 19 158 60 172 139c9 49 -20 88 -80 88zM1416 1536l-679 -811l-128 -725h-141l128 727l-392 809h172l315 -663l550 663h175z" />
    <glyph glyph-name="uni1EF7" unicode="&#x1ef7;" horiz-adv-x="958" 
d="M635 1439c-46 0 -80 -15 -113 -36l-52 85c50 34 107 52 157 52c124 0 209 -89 188 -209c-14 -77 -73 -146 -180 -176l-19 -85h-92l19 142c90 19 158 60 172 139c9 49 -20 88 -80 88zM868 963h156l-840 -1455h-149l285 501l-219 954h150l172 -805z" />
    <glyph glyph-name="uni1EF8" unicode="&#x1ef8;" horiz-adv-x="1247" 
d="M731 1825c-78 0 -131 -76 -148 -167l-102 10c25 143 114 259 247 259c97 0 137 -61 167 -117c15 -29 38 -55 86 -55c71 0 125 62 143 166l100 -10c-28 -155 -118 -259 -247 -259c-103 0 -139 66 -166 117c-19 35 -39 56 -80 56zM1416 1536l-679 -811l-128 -725h-141
l128 727l-392 809h172l315 -663l550 663h175z" />
    <glyph glyph-name="uni1EF9" unicode="&#x1ef9;" horiz-adv-x="958" 
d="M472 1252c-78 0 -131 -76 -148 -167l-102 10c25 143 114 259 247 259c97 0 137 -61 167 -117c15 -29 38 -55 86 -55c71 0 125 62 143 166l100 -10c-28 -155 -118 -259 -247 -259c-103 0 -139 66 -166 117c-19 35 -39 56 -80 56zM868 963h156l-840 -1455h-149l285 501
l-219 954h150l172 -805z" />
    <glyph glyph-name="endash" unicode="&#x2013;" horiz-adv-x="1359" 
d="M157 427l21 109h1024l-21 -109h-1024z" />
    <glyph glyph-name="emdash" unicode="&#x2014;" horiz-adv-x="2048" 
d="M-10 427l20 109h2048l-20 -109h-2048z" />
    <glyph glyph-name="quoteleft" unicode="&#x2018;" horiz-adv-x="552" 
d="M341 988c-59 0 -102 51 -92 111c4 19 12 36 23 49l210 388h108l-183 -361c30 -18 49 -54 42 -96c-10 -49 -59 -91 -108 -91z" />
    <glyph glyph-name="quoteright" unicode="&#x2019;" horiz-adv-x="553" 
d="M490 1556c60 0 101 -52 92 -111c-3 -18 -11 -34 -22 -48l-210 -390h-109l183 361c-31 19 -49 55 -41 97c9 49 58 91 107 91z" />
    <glyph glyph-name="quotesinglbase" unicode="&#x201a;" horiz-adv-x="553" 
d="M248 182c60 0 101 -52 92 -111c-3 -18 -11 -35 -23 -49l-209 -390h-109l183 362c-31 19 -49 55 -42 97c8 49 59 91 108 91z" />
    <glyph glyph-name="quotedblleft" unicode="&#x201c;" horiz-adv-x="884" 
d="M343 988c-59 0 -102 51 -92 110c0 3 8 27 12 35l221 403h108l-189 -358c33 -15 55 -54 48 -99c-10 -50 -59 -91 -108 -91zM674 988c-60 0 -103 51 -92 110c0 3 6 22 11 35l222 403h108l-189 -358c32 -15 55 -54 47 -99c-9 -50 -58 -91 -107 -91z" />
    <glyph glyph-name="quotedblright" unicode="&#x201d;" horiz-adv-x="883" 
d="M488 1556c60 0 103 -51 92 -110c0 -3 -6 -22 -11 -35l-222 -403h-108l189 358c-32 15 -55 54 -47 99c9 50 58 91 107 91zM819 1556c59 0 102 -51 92 -110c0 -3 -8 -27 -12 -35l-221 -403h-108l189 358c-33 15 -55 54 -48 99c10 50 59 91 108 91z" />
    <glyph glyph-name="quotedblbase" unicode="&#x201e;" horiz-adv-x="870" 
d="M340 71c-3 -18 -11 -35 -23 -49l-209 -390h-109l183 362c-31 19 -49 55 -42 97c8 49 59 91 108 91c60 0 101 -52 92 -111zM565 182c60 0 101 -52 92 -111c-3 -19 -11 -36 -23 -50l-210 -389h-108l183 361c-32 19 -50 56 -42 98c8 49 59 91 108 91z" />
    <glyph glyph-name="dagger" unicode="&#x2020;" horiz-adv-x="958" 
d="M970 957l-17 -96h-363l-213 -1209h-96l213 1209h-355l17 96h355l73 415h96l-73 -415h363z" />
    <glyph glyph-name="daggerdbl" unicode="&#x2021;" horiz-adv-x="1046" 
d="M996 861h-363l-122 -692h363l-17 -94h-362l-75 -423h-96l75 423h-356l17 94h355l122 692h-355l17 96h355l73 415h96l-73 -415h363z" />
    <glyph glyph-name="bullet" unicode="&#x2022;" horiz-adv-x="838" 
d="M419 430c-129 0 -224 106 -199 241c21 121 141 223 261 223c128 0 222 -113 200 -242c-23 -127 -143 -222 -262 -222z" />
    <glyph glyph-name="ellipsis" unicode="&#x2026;" horiz-adv-x="1729" 
d="M234 -20c-59 0 -102 50 -91 111c8 49 59 91 108 91c59 0 101 -52 92 -111c-10 -52 -59 -91 -109 -91zM782 -20c-60 0 -103 50 -92 111c8 49 59 91 108 91c60 0 101 -52 92 -111c-9 -52 -59 -91 -108 -91zM1338 -20c-60 0 -103 50 -92 111c8 49 59 91 108 91
c60 0 101 -52 92 -111c-9 -52 -59 -91 -108 -91z" />
    <glyph glyph-name="perthousand" unicode="&#x2030;" horiz-adv-x="2105" 
d="M445 956c-171 0 -286 140 -255 313c28 159 181 287 342 287c169 0 282 -138 253 -307c-29 -163 -181 -293 -340 -293zM93 0l1163 1537h150l-1158 -1537h-155zM445 1071c107 0 211 90 230 198c16 95 -46 174 -144 174c-108 0 -214 -89 -231 -194
c-18 -100 47 -178 145 -178zM980 -17c-171 0 -284 140 -254 310c29 161 180 288 340 288c169 0 286 -138 255 -307c-28 -161 -181 -291 -341 -291zM1663 -17c-171 0 -285 140 -254 310c29 161 181 288 341 288c168 0 284 -138 254 -307c-27 -161 -181 -291 -341 -291z
M980 96c110 0 212 89 231 198c18 97 -48 174 -146 174c-108 0 -210 -87 -229 -194c-18 -99 46 -178 144 -178zM1664 96c109 0 211 89 230 198c18 97 -48 174 -145 174c-109 0 -211 -87 -230 -194c-17 -99 46 -178 145 -178z" />
    <glyph glyph-name="guilsinglleft" unicode="&#x2039;" horiz-adv-x="579" 
d="M308 104l-248 377l376 377h126l-381 -377l242 -377h-115z" />
    <glyph glyph-name="guilsinglright" unicode="&#x203a;" horiz-adv-x="575" 
d="M14 104l380 377l-242 377h116l247 -377l-375 -377h-126z" />
    <glyph glyph-name="fraction" unicode="&#x2044;" horiz-adv-x="500" 
d="M-446 0l1344 1536h148l-1341 -1536h-151z" />
    <glyph glyph-name="Euro" unicode="&#x20ac;" horiz-adv-x="1825" 
d="M1141 1556c226 0 414 -94 533 -246l-114 -87c-95 120 -244 193 -425 193c-281 0 -552 -176 -690 -425h798l-31 -118h-820c-13 -37 -23 -76 -30 -115c-6 -36 -10 -72 -10 -106h802l-31 -117h-761c47 -243 250 -415 525 -415c189 0 371 78 513 204l89 -103
c-168 -149 -384 -241 -607 -241c-356 0 -617 233 -662 555h-110l31 117h72c0 41 4 83 12 126c6 32 13 64 22 95h-48l31 118h61c150 327 492 565 850 565z" />
    <glyph glyph-name="uni2113" unicode="&#x2113;" horiz-adv-x="1214" 
d="M1040 348l67 -72c-144 -194 -314 -286 -500 -286c-276 0 -362 207 -338 414c0 4 -4 9 0 13c-47 -32 -107 -75 -161 -114l-40 93c78 56 153 101 221 152l112 618c72 405 281 516 446 516c213 0 280 -174 246 -365c-48 -277 -303 -540 -669 -818l-13 -56
c-44 -242 84 -341 224 -341c171 0 326 134 405 246zM538 1175l-98 -532c273 225 504 449 545 683c26 144 0 251 -141 251c-102 0 -253 -99 -306 -402z" />
    <glyph glyph-name="uni2116" unicode="&#x2116;" horiz-adv-x="2847" 
d="M1216 325l214 1211h139l-282 -1596l-776 1273l-212 -1213h-141l281 1598zM2329 1370c283 0 471 -228 422 -509c-47 -272 -305 -490 -578 -490c-284 0 -472 228 -423 509c47 272 305 490 579 490zM2618 880c36 199 -96 356 -292 356c-210 0 -405 -168 -442 -375
c-36 -199 93 -357 292 -357c207 0 404 168 442 376zM1693 0l18 105h923l-18 -105h-923z" />
    <glyph glyph-name="trademark" unicode="&#x2122;" horiz-adv-x="1696" 
d="M656 1456h-198l-114 -640h-90l114 640h-198l15 80h485zM1396 1536h97l-127 -720h-89l102 576l-342 -405l-205 406l-101 -577h-90l127 720h95l195 -397z" />
    <glyph glyph-name="estimated" unicode="&#x212e;" horiz-adv-x="1987" 
d="M1012 -18c-484 0 -875 352 -875 784c0 438 391 790 875 790c485 0 876 -352 876 -790v-21h-1417c-8 0 -12 -2 -12 -8v-430c0 -18 8 -35 18 -49c137 -141 328 -233 537 -233c227 0 428 102 565 262h125c-156 -185 -410 -305 -692 -305zM471 788h1088c6 0 8 9 8 15v430
c0 18 -6 39 -21 51c-137 135 -323 225 -532 225c-207 0 -396 -92 -535 -231c-12 -14 -20 -33 -20 -53v-422c0 -6 4 -15 12 -15z" />
    <glyph glyph-name="arrowleft" unicode="&#x2190;" horiz-adv-x="1791" 
d="M1629 850v-247h-1038v-261l-498 385l498 386v-263h1038z" />
    <glyph glyph-name="arrowup" unicode="&#x2191;" horiz-adv-x="910" 
d="M333 0v1038h-263l386 498l385 -498h-261v-1038h-247z" />
    <glyph glyph-name="arrowright" unicode="&#x2192;" horiz-adv-x="1797" 
d="M162 850h1038v263l498 -386l-498 -385v261h-1038v247z" />
    <glyph glyph-name="arrowdown" unicode="&#x2193;" horiz-adv-x="910" 
d="M333 1536h247v-1038h261l-385 -498l-386 498h263v1038z" />
    <glyph glyph-name="arrowboth" unicode="&#x2194;" horiz-adv-x="2208" 
d="M588 295l-498 387l498 385v-260l1024 -2v260l497 -385l-497 -385v262l-1024 2v-264z" />
    <glyph glyph-name="arrowupdn" unicode="&#x2195;" horiz-adv-x="979" 
d="M489 -145l-385 497h263v672h-263l385 498l385 -498h-260v-672h260z" />
    <glyph glyph-name="uni2196" unicode="&#x2196;" horiz-adv-x="1395" 
d="M1319 314l-174 -174l-734 734l-185 -185l-79 624l624 -79l-185 -186z" />
    <glyph glyph-name="uni2197" unicode="&#x2197;" horiz-adv-x="1395" 
d="M76 314l733 734l-185 186l624 79l-79 -624l-185 185l-734 -734z" />
    <glyph glyph-name="uni2198" unicode="&#x2198;" horiz-adv-x="1395" 
d="M77 1222l174 174l734 -734l185 185l79 -624l-624 79l185 186z" />
    <glyph glyph-name="uni2199" unicode="&#x2199;" horiz-adv-x="1395" 
d="M1318 1222l-733 -734l185 -186l-624 -79l79 624l185 -185l734 734z" />
    <glyph glyph-name="partialdiff" unicode="&#x2202;" horiz-adv-x="1154" 
d="M368 1443c350 45 622 -300 620 -771c-2 -372 -211 -656 -482 -656c-313 0 -458 261 -333 599c117 315 394 438 651 316c-64 265 -237 422 -456 396v116zM851 672c1 45 -1 88 -5 129c-221 146 -444 56 -548 -222c-94 -258 4 -458 210 -458c185 0 339 238 343 551z" />
    <glyph glyph-name="emptyset" unicode="&#x2205;" horiz-adv-x="1565" 
d="M1238 1005c98 -109 157 -252 157 -409c0 -338 -275 -612 -613 -612c-157 0 -300 59 -408 156l-88 -88l-47 47l88 88c-98 108 -157 252 -157 409c0 338 274 612 612 612c157 0 300 -59 409 -156l88 88l47 -47zM288 596c0 -125 46 -239 122 -326l698 699
c-87 76 -201 122 -326 122c-274 0 -494 -221 -494 -495zM782 101c275 0 495 221 495 495c0 125 -46 239 -122 326l-698 -699c86 -76 200 -122 325 -122z" />
    <glyph glyph-name="product" unicode="&#x220f;" horiz-adv-x="1658" 
d="M386 0v1316h-143v124h1311v-124h-143v-1316h-124v1316h-777v-1316h-124z" />
    <glyph glyph-name="summation" unicode="&#x2211;" horiz-adv-x="1592" 
d="M229 -242v95l756 745l-756 745v97h1171v-132h-944l709 -710l-709 -710h944v-130h-1171z" />
    <glyph glyph-name="minus" unicode="&#x2212;" horiz-adv-x="1224" 
d="M259 608v130h706v-130h-706z" />
    <glyph glyph-name="radical" unicode="&#x221a;" horiz-adv-x="1410" 
d="M446 -160l-235 725h-136v115h218l210 -643l729 1523l106 -44l-801 -1676h-91z" />
    <glyph glyph-name="infinity" unicode="&#x221e;" horiz-adv-x="1708" 
d="M477 299c-157 0 -276 127 -282 297c6 170 125 297 282 297c118 0 250 -76 375 -211c123 135 258 211 375 211c162 0 276 -121 282 -297c-6 -176 -120 -297 -282 -297c-117 0 -252 76 -375 210c-125 -134 -257 -210 -375 -210zM477 414c86 0 192 65 299 182
c-107 117 -213 182 -299 182c-90 0 -165 -80 -168 -182c3 -102 78 -182 168 -182zM1227 414c91 0 163 76 168 182c-5 105 -77 182 -168 182c-88 0 -194 -65 -299 -182c105 -117 211 -182 299 -182z" />
    <glyph glyph-name="integral" unicode="&#x222b;" horiz-adv-x="899" 
d="M65 -457v141c223 0 320 96 320 313v1158c0 172 119 293 270 293c61 0 128 -18 185 -66l-75 -109c-32 29 -68 40 -103 40c-78 0 -140 -59 -140 -167v-1146c0 -294 -175 -457 -457 -457z" />
    <glyph glyph-name="approxequal" unicode="&#x2248;" horiz-adv-x="1433" 
d="M934 652c-137 0 -215 90 -271 154c-50 56 -92 92 -154 92c-106 0 -173 -96 -173 -223h-122c-2 207 119 346 297 346c111 0 178 -59 254 -150c43 -50 86 -99 160 -99c98 0 171 89 170 222h123c2 -196 -112 -342 -284 -342zM934 244c-137 0 -213 88 -271 152
c-49 55 -88 93 -154 93c-106 -2 -173 -97 -173 -223h-122c-2 207 119 347 297 347c111 0 179 -58 254 -151c41 -50 86 -99 160 -99c98 0 171 88 170 222h123c2 -195 -112 -341 -284 -341z" />
    <glyph glyph-name="lessequal" unicode="&#x2264;" horiz-adv-x="1420" 
d="M1263 1410v-144l-989 -463l989 -466v-147l-1130 535v156zM133 0v105h1130v-105h-1130z" />
    <glyph glyph-name="greaterequal" unicode="&#x2265;" horiz-adv-x="1420" 
d="M157 1410l1130 -529v-156l-1130 -535v147l989 466l-989 463v144zM157 0v105h1130v-105h-1130z" />
    <glyph glyph-name="lozenge" unicode="&#x25ca;" horiz-adv-x="1383" 
d="M692 106l-618 617l618 618l617 -616zM694 264l457 461l-457 459l-462 -461z" />
    <glyph glyph-name="uniF8FF" unicode="&#xf8ff;" horiz-adv-x="1840" 
d="M920 0c-428 0 -778 350 -778 778c0 430 350 778 778 778c430 0 778 -348 778 -778c0 -428 -348 -778 -778 -778zM920 74c389 0 705 317 705 704c0 389 -316 705 -705 705c-387 0 -704 -316 -704 -705c0 -387 317 -704 704 -704zM1328 444c-9 0 -19 5 -25 13l-297 295
c-14 16 -14 39 0 53l297 297c14 14 37 14 51 0c15 -15 15 -39 0 -53l-270 -271l270 -270c15 -14 13 -35 0 -51c-6 -8 -16 -13 -26 -13zM513 444c-21 0 -37 17 -37 37v594c0 21 16 37 37 37c20 0 36 -16 36 -37v-594c0 -20 -16 -37 -36 -37zM920 444c-20 0 -37 17 -37 37v594
c0 21 17 37 37 37c21 0 37 -16 37 -37v-594c0 -20 -16 -37 -37 -37zM623 741c-20 0 -37 17 -37 37c0 21 17 37 37 37h186c21 0 37 -16 37 -37c0 -20 -16 -37 -37 -37h-186z" />
    <glyph glyph-name="Lcaron.ss01" horiz-adv-x="972" 
d="M550 1536l-245 -1395h578l-24 -141h-720l270 1536h141zM1128 1536l-353 -573h-109l302 573h160z" />
    <glyph glyph-name="Lcaron.ss02" horiz-adv-x="972" 
d="M550 1536l-245 -1395h578l-24 -141h-720l270 1536h141zM1128 1536l-353 -573h-109l302 573h160z" />
    <glyph glyph-name="i.loclTRK" horiz-adv-x="489" 
d="M373 1149c-59 0 -102 50 -93 109c11 53 58 92 108 92c59 0 104 -49 91 -111c-7 -50 -57 -90 -106 -90zM93 0l168 963h136l-168 -963h-136z" />
    <glyph glyph-name="a.ss01" horiz-adv-x="1018" 
d="M567 982c232 0 364 -156 324 -386l-105 -596h-128l22 126c-98 -93 -211 -145 -343 -145c-192 0 -323 109 -290 293c27 158 160 272 520 306l195 18l2 9c29 163 -52 253 -200 253c-118 0 -221 -55 -316 -131l-61 111c84 69 223 142 380 142zM347 99c142 0 272 79 365 212
l31 177l-144 -15c-326 -32 -402 -117 -421 -215c-18 -108 50 -159 169 -159z" />
    <glyph glyph-name="aacute.ss01" horiz-adv-x="1018" 
d="M941 1376l-382 -290l-48 61l364 318zM567 982c232 0 364 -156 324 -386l-105 -596h-128l22 126c-98 -93 -211 -145 -343 -145c-192 0 -323 109 -290 293c27 158 160 272 520 306l195 18l2 9c29 163 -52 253 -200 253c-118 0 -221 -55 -316 -131l-61 111
c84 69 223 142 380 142zM347 99c142 0 272 79 365 212l31 177l-144 -15c-326 -32 -402 -117 -421 -215c-18 -108 50 -159 169 -159z" />
    <glyph glyph-name="abreve.ss01" horiz-adv-x="1018" 
d="M614 1144c-194 0 -319 126 -286 306h110c-21 -125 39 -216 173 -216c146 0 249 102 270 216h110c-33 -190 -191 -306 -377 -306zM567 982c232 0 364 -156 324 -386l-105 -596h-128l22 126c-98 -93 -211 -145 -343 -145c-192 0 -323 109 -290 293c27 158 160 272 520 306
l195 18l2 9c29 163 -52 253 -200 253c-118 0 -221 -55 -316 -131l-61 111c84 69 223 142 380 142zM347 99c142 0 272 79 365 212l31 177l-144 -15c-326 -32 -402 -117 -421 -215c-18 -108 50 -159 169 -159z" />
    <glyph glyph-name="uni1EAF.ss01" horiz-adv-x="1018" 
d="M1022 1835l-382 -290l-48 61l364 318zM611 1234c146 0 249 102 270 216h110c-33 -190 -191 -306 -377 -306c-194 0 -319 126 -286 306h110c-21 -125 39 -216 173 -216zM567 982c232 0 364 -156 324 -386l-105 -596h-128l22 126c-98 -93 -211 -145 -343 -145
c-192 0 -323 109 -290 293c27 158 160 272 520 306l195 18l2 9c29 163 -52 253 -200 253c-118 0 -221 -55 -316 -131l-61 111c84 69 223 142 380 142zM347 99c142 0 272 79 365 212l31 177l-144 -15c-326 -32 -402 -117 -421 -215c-18 -108 50 -159 169 -159z" />
    <glyph glyph-name="uni1EB7.ss01" horiz-adv-x="1018" 
d="M614 1144c-194 0 -319 126 -286 306h110c-21 -125 39 -216 173 -216c146 0 249 102 270 216h110c-33 -190 -191 -306 -377 -306zM567 982c232 0 364 -156 324 -386l-105 -596h-128l22 126c-98 -93 -211 -145 -343 -145c-192 0 -323 109 -290 293c27 158 160 272 520 306
l195 18l2 9c29 163 -52 253 -200 253c-118 0 -221 -55 -316 -131l-61 111c84 69 223 142 380 142zM347 99c142 0 272 79 365 212l31 177l-144 -15c-326 -32 -402 -117 -421 -215c-18 -108 50 -159 169 -159zM371 -152c59 0 102 -52 91 -111c-9 -52 -58 -92 -108 -92
c-59 0 -102 50 -91 111c9 50 58 92 108 92z" />
    <glyph glyph-name="uni1EB1.ss01" horiz-adv-x="1018" 
d="M763 1606l-62 -61l-289 289l93 89zM614 1144c-194 0 -319 126 -286 306h110c-21 -125 39 -216 173 -216c146 0 249 102 270 216h110c-33 -190 -191 -306 -377 -306zM567 982c232 0 364 -156 324 -386l-105 -596h-128l22 126c-98 -93 -211 -145 -343 -145
c-192 0 -323 109 -290 293c27 158 160 272 520 306l195 18l2 9c29 163 -52 253 -200 253c-118 0 -221 -55 -316 -131l-61 111c84 69 223 142 380 142zM347 99c142 0 272 79 365 212l31 177l-144 -15c-326 -32 -402 -117 -421 -215c-18 -108 50 -159 169 -159z" />
    <glyph glyph-name="uni1EB3.ss01" horiz-adv-x="1018" 
d="M739 1898c-46 0 -80 -15 -113 -36l-52 85c50 34 107 52 157 52c124 0 209 -89 188 -209c-14 -77 -73 -146 -180 -176l-19 -85h-92l19 142c90 19 158 60 172 139c9 49 -20 88 -80 88zM614 1144c-194 0 -319 126 -286 306h110c-21 -125 39 -216 173 -216
c146 0 249 102 270 216h110c-33 -190 -191 -306 -377 -306zM567 982c232 0 364 -156 324 -386l-105 -596h-128l22 126c-98 -93 -211 -145 -343 -145c-192 0 -323 109 -290 293c27 158 160 272 520 306l195 18l2 9c29 163 -52 253 -200 253c-118 0 -221 -55 -316 -131
l-61 111c84 69 223 142 380 142zM347 99c142 0 272 79 365 212l31 177l-144 -15c-326 -32 -402 -117 -421 -215c-18 -108 50 -159 169 -159z" />
    <glyph glyph-name="uni1EB5.ss01" horiz-adv-x="1018" 
d="M576 1711c-78 0 -131 -76 -148 -167l-102 10c25 143 114 259 247 259c97 0 137 -61 167 -117c15 -29 38 -55 86 -55c71 0 125 62 143 166l100 -10c-28 -155 -118 -259 -247 -259c-103 0 -139 66 -166 117c-19 35 -39 56 -80 56zM611 1234c146 0 249 102 270 216h110
c-33 -190 -191 -306 -377 -306c-194 0 -319 126 -286 306h110c-21 -125 39 -216 173 -216zM567 982c232 0 364 -156 324 -386l-105 -596h-128l22 126c-98 -93 -211 -145 -343 -145c-192 0 -323 109 -290 293c27 158 160 272 520 306l195 18l2 9c29 163 -52 253 -200 253
c-118 0 -221 -55 -316 -131l-61 111c84 69 223 142 380 142zM347 99c142 0 272 79 365 212l31 177l-144 -15c-326 -32 -402 -117 -421 -215c-18 -108 50 -159 169 -159z" />
    <glyph glyph-name="uni01CE.ss01" horiz-adv-x="1018" 
d="M673 1125h-140l-147 305l81 45l148 -257l242 257l71 -45zM567 982c232 0 364 -156 324 -386l-105 -596h-128l22 126c-98 -93 -211 -145 -343 -145c-192 0 -323 109 -290 293c27 158 160 272 520 306l195 18l2 9c29 163 -52 253 -200 253c-118 0 -221 -55 -316 -131
l-61 111c84 69 223 142 380 142zM347 99c142 0 272 79 365 212l31 177l-144 -15c-326 -32 -402 -117 -421 -215c-18 -108 50 -159 169 -159z" />
    <glyph glyph-name="acircumflex.ss01" horiz-adv-x="1018" 
d="M644 1345l-244 -255l-69 43l253 306h140l149 -306l-78 -43zM567 982c232 0 364 -156 324 -386l-105 -596h-128l22 126c-98 -93 -211 -145 -343 -145c-192 0 -323 109 -290 293c27 158 160 272 520 306l195 18l2 9c29 163 -52 253 -200 253c-118 0 -221 -55 -316 -131
l-61 111c84 69 223 142 380 142zM347 99c142 0 272 79 365 212l31 177l-144 -15c-326 -32 -402 -117 -421 -215c-18 -108 50 -159 169 -159z" />
    <glyph glyph-name="adieresis.ss01" horiz-adv-x="1018" 
d="M436 1144c-59 0 -102 50 -91 109c9 53 58 92 108 92c58 0 101 -49 91 -111c-9 -50 -59 -90 -108 -90zM812 1345c60 0 102 -49 91 -111c-9 -50 -57 -90 -107 -90c-60 0 -103 50 -92 109c9 53 58 92 108 92zM567 982c232 0 364 -156 324 -386l-105 -596h-128l22 126
c-98 -93 -211 -145 -343 -145c-192 0 -323 109 -290 293c27 158 160 272 520 306l195 18l2 9c29 163 -52 253 -200 253c-118 0 -221 -55 -316 -131l-61 111c84 69 223 142 380 142zM347 99c142 0 272 79 365 212l31 177l-144 -15c-326 -32 -402 -117 -421 -215
c-18 -108 50 -159 169 -159z" />
    <glyph glyph-name="agrave.ss01" horiz-adv-x="1018" 
d="M682 1147l-62 -61l-289 289l93 89zM567 982c232 0 364 -156 324 -386l-105 -596h-128l22 126c-98 -93 -211 -145 -343 -145c-192 0 -323 109 -290 293c27 158 160 272 520 306l195 18l2 9c29 163 -52 253 -200 253c-118 0 -221 -55 -316 -131l-61 111
c84 69 223 142 380 142zM347 99c142 0 272 79 365 212l31 177l-144 -15c-326 -32 -402 -117 -421 -215c-18 -108 50 -159 169 -159z" />
    <glyph glyph-name="amacron.ss01" horiz-adv-x="1018" 
d="M312 1277h635l-18 -96h-634zM567 982c232 0 364 -156 324 -386l-105 -596h-128l22 126c-98 -93 -211 -145 -343 -145c-192 0 -323 109 -290 293c27 158 160 272 520 306l195 18l2 9c29 163 -52 253 -200 253c-118 0 -221 -55 -316 -131l-61 111c84 69 223 142 380 142z
M347 99c142 0 272 79 365 212l31 177l-144 -15c-326 -32 -402 -117 -421 -215c-18 -108 50 -159 169 -159z" />
    <glyph glyph-name="aogonek.ss01" horiz-adv-x="1018" 
d="M786 0c-138 -65 -280 -172 -304 -301c-13 -77 27 -113 99 -113c70 0 144 30 205 82l56 -100c-87 -73 -176 -100 -269 -97c-138 5 -214 87 -190 219c22 126 134 236 276 313l21 123c-98 -93 -211 -145 -343 -145c-192 0 -323 109 -290 293c27 158 160 272 520 306l195 18
l2 9c29 163 -52 253 -200 253c-118 0 -221 -55 -316 -131l-61 111c84 69 223 142 380 142c232 0 364 -156 324 -386zM347 99c142 0 272 79 365 212l31 177l-144 -15c-326 -32 -402 -117 -421 -215c-18 -108 50 -159 169 -159z" />
    <glyph glyph-name="aring.ss01" horiz-adv-x="1018" 
d="M632 1147c-118 0 -199 99 -178 214c18 109 122 195 230 195c116 0 195 -96 176 -214c-19 -107 -122 -195 -228 -195zM531 1342c-12 -68 29 -117 95 -117c74 0 146 60 160 136c11 65 -30 120 -96 120c-75 0 -146 -65 -159 -139zM567 982c232 0 364 -156 324 -386
l-105 -596h-128l22 126c-98 -93 -211 -145 -343 -145c-192 0 -323 109 -290 293c27 158 160 272 520 306l195 18l2 9c29 163 -52 253 -200 253c-118 0 -221 -55 -316 -131l-61 111c84 69 223 142 380 142zM347 99c142 0 272 79 365 212l31 177l-144 -15
c-326 -32 -402 -117 -421 -215c-18 -108 50 -159 169 -159z" />
    <glyph glyph-name="atilde.ss01" horiz-adv-x="1018" 
d="M495 1252c-78 0 -131 -76 -148 -167l-102 10c25 143 114 259 247 259c97 0 137 -61 167 -117c15 -29 38 -55 86 -55c71 0 125 62 143 166l100 -10c-28 -155 -118 -259 -247 -259c-103 0 -139 66 -166 117c-19 35 -39 56 -80 56zM567 982c232 0 364 -156 324 -386
l-105 -596h-128l22 126c-98 -93 -211 -145 -343 -145c-192 0 -323 109 -290 293c27 158 160 272 520 306l195 18l2 9c29 163 -52 253 -200 253c-118 0 -221 -55 -316 -131l-61 111c84 69 223 142 380 142zM347 99c142 0 272 79 365 212l31 177l-144 -15
c-326 -32 -402 -117 -421 -215c-18 -108 50 -159 169 -159z" />
    <glyph glyph-name="dcaron.ss01" horiz-adv-x="1263" 
d="M1004 786l131 750h136l-271 -1536h-136l27 160c-101 -109 -243 -178 -404 -178c-266 0 -455 228 -406 509c48 272 306 490 563 490c171 0 295 -76 360 -195zM1594 1536h160l-353 -573h-109zM508 115c208 0 404 168 442 376c36 199 -94 357 -293 357
c-207 0 -405 -169 -442 -376c-36 -199 95 -357 293 -357z" />
    <glyph glyph-name="gcommaaccent.ss01" horiz-adv-x="1261" 
d="M1017 1535l-218 -406h-157l270 406h105zM1029 963h138l-169 -964c-49 -277 -307 -494 -581 -494c-197 0 -352 115 -410 278l121 66c38 -128 149 -210 293 -210c207 0 405 168 440 371l25 140c-96 -103 -229 -168 -386 -168c-281 0 -469 228 -420 509
c49 273 305 490 576 490c166 0 283 -71 344 -184zM506 115c207 0 406 170 442 376c36 199 -96 356 -292 356c-210 0 -405 -168 -442 -375c-35 -197 93 -357 292 -357z" />
    <glyph glyph-name="lcaron.ss01" horiz-adv-x="492" 
d="M93 0l270 1536h136l-270 -1536h-136zM527 963l302 573h160l-353 -573h-109z" />
    <glyph glyph-name="tcaron.ss01" horiz-adv-x="603" 
d="M880 1638h160l-353 -573h-109zM516 1309l-61 -346h206l-22 -126h-206l-147 -837h-138l146 837h-208l21 126h209l61 346h139z" />
    <glyph glyph-name="dcaron.ss02" horiz-adv-x="1263" 
d="M1004 786l131 750h136l-271 -1536h-136l27 160c-101 -109 -243 -178 -404 -178c-266 0 -455 228 -406 509c48 272 306 490 563 490c171 0 295 -76 360 -195zM1594 1536h160l-353 -573h-109zM508 115c208 0 404 168 442 376c36 199 -94 357 -293 357
c-207 0 -405 -169 -442 -376c-36 -199 95 -357 293 -357z" />
    <glyph glyph-name="gcommaaccent.ss02" horiz-adv-x="1261" 
d="M1017 1535l-218 -406h-157l270 406h105zM1029 963h138l-169 -964c-49 -277 -307 -494 -581 -494c-197 0 -352 115 -410 278l121 66c38 -128 149 -210 293 -210c207 0 405 168 440 371l25 140c-96 -103 -229 -168 -386 -168c-281 0 -469 228 -420 509
c49 273 305 490 576 490c166 0 283 -71 344 -184zM506 115c207 0 406 170 442 376c36 199 -96 356 -292 356c-210 0 -405 -168 -442 -375c-35 -197 93 -357 292 -357z" />
    <glyph glyph-name="lcaron.ss02" horiz-adv-x="492" 
d="M93 0l270 1536h136l-270 -1536h-136zM527 963l302 573h160l-353 -573h-109z" />
    <glyph glyph-name="tcaron.ss02" horiz-adv-x="603" 
d="M880 1638h160l-353 -573h-109zM516 1309l-61 -346h206l-22 -126h-206l-147 -837h-138l146 837h-208l21 126h209l61 346h139z" />
    <glyph glyph-name="f_t" horiz-adv-x="1168" 
d="M1227 963l-22 -126h-206l-147 -837h-138l146 837h-445l-147 -837h-137l148 837h-163l21 126h164l57 324c28 168 150 272 306 272c55 0 103 -14 125 -33l-15 -130c-24 22 -66 34 -98 34c-92 0 -170 -72 -187 -170l-52 -297h445l61 346h139l-61 -346h206z" />
    <glyph glyph-name="t_t" horiz-adv-x="1148" 
d="M1207 963l-22 -126h-206l-147 -837h-138l146 837h-407l-147 -837h-138l146 837h-208l21 126h209l61 346h139l-61 -346h407l61 346h139l-61 -346h206z" />
    <glyph glyph-name="zero.lf" horiz-adv-x="1327" 
d="M585 -20c-317 0 -498 346 -417 798c77 442 353 778 676 778c331 0 496 -346 417 -798c-79 -442 -371 -778 -676 -778zM589 105c246 0 464 279 534 673c70 400 -62 638 -283 638c-232 0 -461 -249 -533 -658c-69 -384 44 -653 282 -653z" />
    <glyph glyph-name="one.lf" horiz-adv-x="697" 
d="M259 0l245 1395h-322l25 141h463l-271 -1536h-140z" />
    <glyph glyph-name="two.lf" horiz-adv-x="1160" 
d="M1123 1128c-47 -291 -319 -544 -834 -987h740l-24 -141h-1048l-2 18c852 733 994 915 1029 1115c33 183 -82 283 -246 284c-189 1 -342 -129 -378 -314l-150 12c53 270 282 446 541 443c253 -3 415 -166 372 -430z" />
    <glyph glyph-name="three.lf" horiz-adv-x="1175" 
d="M492 -20c-286 0 -483 188 -437 451l140 -9c-33 -188 99 -309 301 -309c214 0 398 135 434 337c35 194 -97 314 -305 314h-153l23 133h138c169 0 307 124 334 278c26 144 -63 248 -228 248c-169 0 -309 -110 -335 -254l-139 10c40 224 249 377 479 377
c240 0 403 -162 361 -393c-26 -150 -129 -264 -281 -323c179 -57 279 -212 242 -416c-46 -266 -298 -444 -574 -444z" />
    <glyph glyph-name="four.lf" horiz-adv-x="1231" 
d="M1199 457l-25 -133h-281l-57 -324h-141l57 324h-746l16 92l909 1120h175l-190 -1079h283zM776 457l158 901l-715 -901h557z" />
    <glyph glyph-name="five.lf" horiz-adv-x="1225" 
d="M1218 1399h-663l-163 -486c98 71 216 103 325 103c288 0 467 -218 414 -518c-52 -297 -310 -515 -609 -515c-239 0 -451 138 -441 412l146 -10c8 -192 156 -265 301 -265c225 0 413 170 451 391c40 220 -90 375 -288 375c-121 0 -251 -57 -343 -152l-153 3l270 798h778z
" />
    <glyph glyph-name="six.lf" horiz-adv-x="1198" 
d="M721 1019c229 0 458 -207 414 -509c-42 -285 -316 -526 -600 -526c-302 0 -507 222 -466 511c19 136 95 258 192 360l676 681h180l-552 -542c43 16 92 25 156 25zM1000 528c30 221 -114 370 -318 370c-245 0 -446 -190 -477 -420c-28 -214 113 -357 332 -357
c231 0 433 185 463 407z" />
    <glyph glyph-name="seven.lf" horiz-adv-x="1134" 
d="M222 1536h1073l-14 -88l-1073 -1448h-173l1053 1401h-889z" />
    <glyph glyph-name="eight.lf" horiz-adv-x="1164" 
d="M503 -20c-274 0 -454 208 -408 470c32 184 170 337 344 405c-108 65 -153 187 -126 333c36 207 231 368 450 368c227 0 373 -171 334 -387c-25 -144 -112 -263 -241 -323c148 -74 231 -231 198 -416c-45 -252 -285 -450 -551 -450zM646 897c151 0 292 121 319 271
c26 143 -66 254 -207 254c-153 0 -293 -121 -322 -273c-24 -141 68 -252 210 -252zM505 105c194 0 377 161 411 354c34 185 -87 329 -271 329c-193 0 -375 -155 -409 -349c-33 -183 86 -334 269 -334z" />
    <glyph glyph-name="nine.lf" horiz-adv-x="1199" 
d="M648 1552c301 0 507 -222 466 -511c-19 -136 -96 -258 -192 -360l-677 -681h-180l554 542c-44 -16 -93 -25 -157 -25c-230 0 -458 207 -414 509c42 285 315 526 600 526zM978 1058c28 214 -113 357 -332 357c-231 0 -434 -185 -463 -407c-30 -221 114 -370 318 -370
c245 0 446 190 477 420z" />
    <glyph glyph-name="zero.dnom" horiz-adv-x="805" 
d="M324 -12c-206 0 -310 198 -261 483c49 274 213 463 409 463c205 0 311 -199 261 -483c-48 -275 -214 -463 -409 -463zM329 118c117 0 236 148 271 353c35 195 -23 333 -130 333c-121 0 -237 -148 -273 -353c-34 -196 21 -333 132 -333z" />
    <glyph glyph-name="one.dnom" horiz-adv-x="450" 
d="M89 0l140 798h-137l22 124h272l-162 -922h-135z" />
    <glyph glyph-name="two.dnom" horiz-adv-x="705" 
d="M645 663c-21 -143 -124 -257 -455 -539h390l-22 -124h-611l8 71c471 413 542 499 560 597c18 103 -41 142 -111 142c-97 1 -170 -66 -188 -159l-134 10c32 172 163 275 326 274c161 0 263 -102 237 -272z" />
    <glyph glyph-name="three.dnom" horiz-adv-x="697" 
d="M617 688c-14 -77 -61 -138 -128 -175c80 -49 125 -138 105 -246c-28 -156 -176 -279 -339 -279c-165 0 -280 119 -251 278l134 -9c-15 -83 42 -141 123 -141c96 0 185 77 201 174c17 87 -38 147 -128 147h-89l20 116h71c73 0 145 64 159 140c12 68 -32 114 -99 114
c-74 0 -141 -54 -152 -121l-132 12c26 141 148 236 286 236c147 0 243 -110 219 -246z" />
    <glyph glyph-name="four.dnom" horiz-adv-x="735" 
d="M653 922l-106 -604h89l-22 -123h-89l-34 -195h-135l34 195h-442l14 85l512 642h179zM411 318l80 457l-353 -457h273z" />
    <glyph glyph-name="five.dnom" horiz-adv-x="783" 
d="M731 799h-399l-76 -233c46 31 114 56 189 56c163 0 271 -128 237 -315c-34 -190 -196 -319 -375 -319c-158 0 -287 96 -278 251l139 -4c10 -83 74 -117 147 -117c111 0 211 85 232 205c19 110 -45 184 -141 184c-65 0 -135 -36 -184 -89l-140 8l170 495h501z" />
    <glyph glyph-name="six.dnom" horiz-adv-x="712" 
d="M399 620c153 -7 277 -140 250 -314c-26 -175 -192 -313 -367 -316c-188 -3 -320 136 -291 317c11 76 51 148 107 210l390 405h163l-297 -302c14 1 29 1 45 0zM520 325c15 106 -56 182 -160 179c-123 -3 -221 -99 -237 -216c-14 -106 53 -178 161 -176
c119 3 221 99 236 213z" />
    <glyph glyph-name="seven.dnom" horiz-adv-x="636" 
d="M104 922h622l-14 -95l-602 -827h-162l593 800h-458z" />
    <glyph glyph-name="eight.dnom" horiz-adv-x="740" 
d="M292 -12c-179 0 -293 129 -264 292c19 107 94 193 192 237c-52 41 -76 110 -63 191c23 128 143 226 283 226c148 0 242 -108 218 -246c-13 -78 -60 -144 -126 -181c82 -48 124 -139 105 -246c-26 -155 -175 -273 -345 -273zM373 550c79 0 153 63 168 143
c12 71 -32 125 -101 125c-80 0 -155 -64 -169 -145c-13 -70 32 -123 102 -123zM294 106c100 0 195 84 212 185c16 90 -42 159 -132 159c-100 0 -194 -79 -212 -178c-16 -92 42 -166 132 -166z" />
    <glyph glyph-name="nine.dnom" horiz-adv-x="713" 
d="M424 931c188 0 324 -135 292 -317c-15 -76 -50 -145 -109 -209l-388 -405h-165l295 301c-13 -1 -27 -1 -42 1c-153 9 -280 139 -251 314s194 315 368 315zM583 633c18 106 -51 176 -160 176c-119 0 -218 -98 -237 -212c-18 -107 55 -179 159 -179c122 0 220 99 238 215z
" />
    <glyph glyph-name="zero.numr" horiz-adv-x="805" 
d="M434 611c-206 0 -310 198 -261 483c49 274 213 463 409 463c205 0 311 -199 261 -483c-48 -275 -214 -463 -409 -463zM439 741c117 0 236 148 271 353c35 195 -23 333 -130 333c-121 0 -237 -148 -273 -353c-34 -196 21 -333 132 -333z" />
    <glyph glyph-name="one.numr" horiz-adv-x="450" 
d="M197 614l140 798h-137l22 124h272l-162 -922h-135z" />
    <glyph glyph-name="two.numr" horiz-adv-x="705" 
d="M753 1277c-21 -143 -124 -257 -455 -539h390l-22 -124h-611l8 71c471 413 542 499 560 597c18 103 -41 142 -111 142c-97 1 -170 -66 -188 -159l-134 10c32 172 163 275 326 274c161 0 263 -102 237 -272z" />
    <glyph glyph-name="three.numr" horiz-adv-x="697" 
d="M725 1302c-14 -77 -61 -138 -128 -175c80 -49 125 -138 105 -246c-28 -156 -176 -279 -339 -279c-165 0 -280 119 -251 278l134 -9c-15 -83 42 -141 123 -141c96 0 185 77 201 174c17 87 -38 147 -128 147h-89l20 116h71c73 0 145 64 159 140c12 68 -32 114 -99 114
c-74 0 -141 -54 -152 -121l-132 12c26 141 148 236 286 236c147 0 243 -110 219 -246z" />
    <glyph glyph-name="four.numr" horiz-adv-x="735" 
d="M761 1536l-106 -604h89l-22 -123h-89l-34 -195h-135l34 195h-442l14 85l512 642h179zM519 932l80 457l-353 -457h273z" />
    <glyph glyph-name="five.numr" horiz-adv-x="783" 
d="M839 1413h-399l-76 -233c46 31 114 56 189 56c163 0 271 -128 237 -315c-34 -190 -196 -319 -375 -319c-158 0 -287 96 -278 251l139 -4c10 -83 74 -117 147 -117c111 0 211 85 232 205c19 110 -45 184 -141 184c-65 0 -135 -36 -184 -89l-140 8l170 495h501z" />
    <glyph glyph-name="six.numr" horiz-adv-x="712" 
d="M507 1234c153 -7 277 -140 250 -314c-26 -175 -192 -313 -367 -316c-188 -3 -320 136 -291 317c11 76 51 148 107 210l390 405h163l-297 -302c14 1 29 1 45 0zM628 939c15 106 -56 182 -160 179c-123 -3 -221 -99 -237 -216c-14 -106 53 -178 161 -176
c119 3 221 99 236 213z" />
    <glyph glyph-name="seven.numr" horiz-adv-x="636" 
d="M212 1536h622l-14 -95l-602 -827h-162l593 800h-458z" />
    <glyph glyph-name="eight.numr" horiz-adv-x="740" 
d="M400 602c-179 0 -293 129 -264 292c19 107 94 193 192 237c-52 41 -76 110 -63 191c23 128 143 226 283 226c148 0 242 -108 218 -246c-13 -78 -60 -144 -126 -181c82 -48 124 -139 105 -246c-26 -155 -175 -273 -345 -273zM481 1164c79 0 153 63 168 143
c12 71 -32 125 -101 125c-80 0 -155 -64 -169 -145c-13 -70 32 -123 102 -123zM402 720c100 0 195 84 212 185c16 90 -42 159 -132 159c-100 0 -194 -79 -212 -178c-16 -92 42 -166 132 -166z" />
    <glyph glyph-name="nine.numr" horiz-adv-x="713" 
d="M532 1545c188 0 324 -135 292 -317c-15 -76 -50 -145 -109 -209l-388 -405h-165l295 301c-13 -1 -27 -1 -42 1c-153 9 -280 139 -251 314s194 315 368 315zM691 1247c18 106 -51 176 -160 176c-119 0 -218 -98 -237 -212c-18 -107 55 -179 159 -179c122 0 220 99 238 215
z" />
    <glyph glyph-name="comma.ss01" horiz-adv-x="629" 
d="M44 -368l218 614h156l-269 -614h-105z" />
    <glyph glyph-name="semicolon.ss01" horiz-adv-x="629" 
d="M419 842c-60 0 -102 50 -91 111c7 49 57 91 108 91c59 0 101 -52 91 -111c-9 -51 -58 -91 -108 -91zM8 -368l218 614h156l-269 -614h-105z" />
    <glyph glyph-name="comma.ss02" horiz-adv-x="629" 
d="M44 -368l218 614h156l-269 -614h-105z" />
    <glyph glyph-name="semicolon.ss02" horiz-adv-x="629" 
d="M419 842c-60 0 -102 50 -91 111c7 49 57 91 108 91c59 0 101 -52 91 -111c-9 -51 -58 -91 -108 -91zM8 -368l218 614h156l-269 -614h-105z" />
    <glyph glyph-name="quotedblbase.ss01" horiz-adv-x="870" 
d="M340 71c-3 -18 -11 -35 -23 -49l-209 -390h-109l183 362c-31 19 -49 55 -42 97c8 49 59 91 108 91c60 0 101 -52 92 -111zM565 182c60 0 101 -52 92 -111c-3 -19 -11 -36 -23 -50l-210 -389h-108l183 361c-32 19 -50 56 -42 98c8 49 59 91 108 91z" />
    <glyph glyph-name="quotedblleft.ss01" horiz-adv-x="891" 
d="M211 922l270 614h106l-218 -614h-158zM543 922l270 614h106l-218 -614h-158z" />
    <glyph glyph-name="quotedblright.ss01" horiz-adv-x="891" 
d="M236 922l218 614h158l-269 -614h-107zM568 922l218 614h158l-270 -614h-106z" />
    <glyph glyph-name="quoteleft.ss01" horiz-adv-x="558" 
d="M211 922l270 614h105l-218 -614h-157z" />
    <glyph glyph-name="quoteright.ss01" horiz-adv-x="559" 
d="M236 922l218 614h158l-269 -614h-107z" />
    <glyph glyph-name="quotesinglbase.ss01" horiz-adv-x="554" 
d="M62 -368l110 614h155l-161 -614h-104z" />
    <glyph glyph-name="quotedblleft.ss02" horiz-adv-x="891" 
d="M211 922l270 614h106l-218 -614h-158zM543 922l270 614h106l-218 -614h-158z" />
    <glyph glyph-name="quotedblright.ss02" horiz-adv-x="891" 
d="M236 922l218 614h158l-269 -614h-107zM568 922l218 614h158l-270 -614h-106z" />
    <glyph glyph-name="quoteleft.ss02" horiz-adv-x="559" 
d="M211 922l270 614h106l-218 -614h-158z" />
    <glyph glyph-name="quoteright.ss02" horiz-adv-x="559" 
d="M236 922l218 614h158l-269 -614h-107z" />
    <glyph glyph-name="quotesinglbase.ss02" horiz-adv-x="554" 
d="M62 -368l110 614h155l-161 -614h-104z" />
    <glyph glyph-name="caroncomb.alt" 
d="M-329 1007l258 362c-31 14 -50 55 -35 106c18 44 70 81 114 81c63 0 93 -34 93 -77c0 -23 -7 -49 -25 -73l-294 -399h-111z" />
    <glyph glyph-name="uni0308.case" 
d="M-487 1082c-59 0 -102 51 -91 110c8 53 58 92 107 92c60 0 103 -50 92 -112c-9 -50 -58 -90 -108 -90zM-127 1082c-60 0 -103 51 -92 110c9 53 59 92 108 92c61 0 102 -50 91 -112c-9 -50 -56 -90 -107 -90z" />
    <glyph glyph-name="uni030A.case" 
d="M-207 1094c-117 0 -198 98 -179 214c20 109 124 195 232 195c116 0 195 -97 174 -214c-18 -107 -120 -195 -227 -195zM-212 1171c74 0 145 60 158 137c12 65 -30 119 -94 119c-76 0 -147 -64 -161 -138c-11 -68 31 -118 97 -118z" />
    <glyph glyph-name="caroncomb.alt.ss01" 
d="M-330 963l302 573h160l-353 -573h-109z" />
    <glyph glyph-name="uni03060301" 
d="M-282 1606l-48 61l364 318l66 -89zM-308 1205c-194 0 -319 126 -286 306h110c-21 -125 39 -216 173 -216c146 0 249 102 270 216h110c-33 -190 -191 -306 -377 -306z" />
    <glyph glyph-name="uni03060300" 
d="M-221 1606l-289 289l93 89l258 -317zM-308 1205c-194 0 -319 126 -286 306h110c-21 -125 39 -216 173 -216c146 0 249 102 270 216h110c-33 -190 -191 -306 -377 -306z" />
    <glyph glyph-name="uni03060309" 
d="M-294 1590l19 142c90 19 158 60 172 139c9 49 -20 88 -80 88c-46 0 -80 -15 -113 -36l-52 85c50 34 107 52 157 52c124 0 209 -89 188 -209c-14 -77 -73 -146 -180 -176l-19 -85h-92zM-308 1205c-194 0 -319 126 -286 306h110c-21 -125 39 -216 173 -216
c146 0 249 102 270 216h110c-33 -190 -191 -306 -377 -306z" />
    <glyph glyph-name="uni03060303" 
d="M-134 1599c-103 0 -139 66 -166 117c-19 35 -39 56 -80 56c-78 0 -131 -76 -148 -167l-102 10c25 143 114 259 247 259c97 0 137 -61 167 -117c15 -29 38 -55 86 -55c71 0 125 62 143 166l100 -10c-28 -155 -118 -259 -247 -259zM-342 1205c-194 0 -319 126 -286 306h110
c-21 -125 39 -216 173 -216c146 0 249 102 270 216h110c-33 -190 -191 -306 -377 -306z" />
    <glyph glyph-name="uni03020301" 
d="M-175 1659l-48 61l364 318l66 -89zM-416 1187l-69 43l253 306h140l149 -306l-78 -43l-150 255z" />
    <glyph glyph-name="uni03020300" 
d="M-50 1659l-290 289l94 89l258 -317zM-351 1187l-69 43l252 306h140l149 -306l-78 -43l-150 255z" />
    <glyph glyph-name="uni03020309" 
d="M-167 1644l20 141c89 19 159 61 172 139c8 49 -20 88 -81 88c-45 0 -80 -14 -111 -35l-54 84c51 34 108 53 159 53c124 0 207 -90 186 -209c-12 -77 -72 -147 -179 -177l-19 -84h-93zM-395 1187l-69 43l253 306h140l149 -306l-78 -43l-150 255z" />
    <glyph glyph-name="uni03020303" 
d="M-58 1652c-95 0 -143 56 -168 118c-23 41 -48 54 -80 54c-75 0 -132 -76 -147 -167l-102 11c25 150 119 259 243 259c91 0 142 -54 169 -119c19 -30 40 -54 84 -54c71 0 127 62 145 167l101 -11c-25 -148 -116 -258 -245 -258zM-484 1187l-69 43l253 306h140l149 -306
l-78 -43l-150 255z" />
    </font>
</defs>
</svg>
