<?xml version="1.0" standalone="no"?>
<!DOCTYPE svg PUBLIC "-//W3C//DTD SVG 1.1//EN" "http://www.w3.org/Graphics/SVG/1.1/DTD/svg11.dtd" >
<svg xmlns="http://www.w3.org/2000/svg" xmlns:xlink="http://www.w3.org/1999/xlink" version="1.1">
<metadata>
Created by FontForge 20170910 at Mon Jul  3 22:36:19 2017
 By Jimmy Wärting
Copyright \(c\)2016. Neue Hans Kendrick is a trademark of Alfredo Marco Pradil. All rights reserved.
</metadata>
<defs>
<font id="NeueHansKendrick-MediumItalic" horiz-adv-x="0" >
  <font-face 
    font-family="Neue Hans Kendrick Medium It"
    font-weight="500"
    font-style="italic"
    font-stretch="normal"
    units-per-em="2048"
    panose-1="0 0 6 0 0 0 0 0 0 0"
    ascent="1536"
    descent="-512"
    x-height="963"
    cap-height="1536"
    bbox="-1643 -620.327 2791.01 2625"
    underline-thickness="121"
    underline-position="-100"
    slope="-10"
    stemh="222"
    stemv="236"
    unicode-range="U+0020-FB02"
  />
<missing-glyph horiz-adv-x="1014" 
d="M-19 0l270 1536h883l-270 -1536h-883zM185 174h535l210 1188h-535z" />
    <glyph glyph-name="fi" unicode="fi" horiz-adv-x="1205" 
d="M519 963h614l-168 -963h-226l135 774h-388l-135 -774h-229l136 774h-162l33 189h161l51 277c34 201 173 320 361 320c71 0 127 -16 150 -35l-24 -202c-24 23 -65 32 -97 32c-84 0 -154 -67 -170 -158zM1084 1405c81 0 139 -67 124 -152c-12 -66 -74 -119 -140 -119
c-83 0 -140 69 -127 152c12 68 76 119 143 119z" />
    <glyph glyph-name="fl" unicode="fl" horiz-adv-x="1235" 
d="M561 1197l-41 -234h241l-32 -189h-242l-136 -774h-229l137 774h-163l33 189h163l49 277c34 201 173 320 361 320c71 0 127 -16 150 -35l-24 -202c-24 23 -65 32 -97 32c-84 0 -154 -67 -170 -158zM1034 1536h228l-270 -1536h-228z" />
    <glyph glyph-name="f_f" unicode="ff" horiz-adv-x="1362" 
d="M561 1197l-41 -234h241l-32 -189h-242l-136 -774h-229l137 774h-163l33 189h163l49 277c34 201 173 320 361 320c71 0 127 -16 150 -35l-24 -202c-24 23 -65 32 -97 32c-84 0 -154 -67 -170 -158zM1402 1355c-84 0 -154 -67 -170 -158l-41 -234h241l-32 -189h-242
l-136 -774h-229l137 774h-163l33 189h163l49 277c34 201 173 320 361 320c71 0 127 -16 150 -35l-24 -202c-24 23 -65 32 -97 32z" />
    <glyph glyph-name="f_f_i" unicode="ffi" horiz-adv-x="1822" 
d="M150 0l135 774h-167l33 189h166l51 277c34 201 173 320 361 320c71 0 127 -16 150 -35l-24 -202c-24 23 -64 32 -97 32c-84 0 -154 -67 -170 -158l-42 -234h369l51 277c34 201 174 320 361 320c71 0 127 -16 150 -35l-24 -202c-24 23 -64 32 -97 32
c-84 0 -154 -67 -170 -158l-42 -234h606l-168 -963h-226l135 774h-380l-135 -774h-228l135 774h-370l-135 -774h-228zM1684 1134c-82 0 -139 69 -126 152c12 68 76 119 143 119c81 0 139 -67 124 -152c-12 -66 -74 -119 -141 -119z" />
    <glyph glyph-name="f_f_l" unicode="ffl" horiz-adv-x="1906" 
d="M561 1197l-41 -234h241l-32 -189h-242l-136 -774h-229l137 774h-163l33 189h163l49 277c34 201 173 320 361 320c71 0 127 -16 150 -35l-24 -202c-24 23 -65 32 -97 32c-84 0 -154 -67 -170 -158zM1232 1197l-41 -234h241l-32 -189h-242l-136 -774h-229l137 774h-163
l33 189h163l49 277c34 201 173 320 361 320c71 0 127 -16 150 -35l-24 -202c-24 23 -65 32 -97 32c-84 0 -154 -67 -170 -158zM1705 1536h228l-270 -1536h-228z" />
    <glyph glyph-name=".notdef" horiz-adv-x="1014" 
d="M-19 0l270 1536h883l-270 -1536h-883zM185 174h535l210 1188h-535z" />
    <glyph glyph-name="space" unicode=" " horiz-adv-x="506" 
 />
    <glyph glyph-name="exclam" unicode="!" horiz-adv-x="648" 
d="M203 476l187 1060h228l-187 -1060h-228zM245 -20c-84 0 -142 71 -128 155c12 69 78 124 146 124c84 0 143 -71 128 -157c-13 -67 -78 -122 -146 -122z" />
    <glyph glyph-name="quotedbl" unicode="&#x22;" horiz-adv-x="1022" 
d="M300 889l99 647h215l-125 -647h-189zM675 889l104 647h217l-130 -647h-191z" />
    <glyph glyph-name="numbersign" unicode="#" horiz-adv-x="1541" 
d="M231 0l111 349h-289l52 165h288l144 439h-292l57 163h285l113 353h164l-110 -353h365l112 353h167l-113 -353h292l-56 -163h-287l-139 -439h287l-52 -165h-286l-115 -349h-165l111 349h-369l-108 -349h-167zM562 514h365l141 439h-368z" />
    <glyph glyph-name="dollar" unicode="$" horiz-adv-x="1332" 
d="M736 887c203 -84 419 -177 364 -483c-42 -239 -230 -380 -445 -415l-28 -160h-213l29 159c-193 30 -333 140 -405 250l181 152c73 -132 177 -205 327 -205c166 0 299 94 324 240c26 148 -111 204 -266 278c-185 82 -386 175 -338 454c41 230 234 374 452 396l28 157h213
l-31 -173c128 -35 219 -112 285 -202l-158 -133c-93 125 -183 153 -281 153c-131 0 -252 -79 -274 -212c-25 -137 96 -193 236 -256z" />
    <glyph glyph-name="percent" unicode="%" horiz-adv-x="1628" 
d="M444 885c-194 0 -324 159 -289 355c31 175 200 316 377 316c192 0 321 -157 287 -350c-32 -177 -199 -321 -375 -321zM117 0l1160 1536h230l-1156 -1536h-234zM444 1064c95 0 187 79 204 176c12 76 -38 139 -116 139c-96 0 -190 -78 -206 -173c-13 -79 38 -142 118 -142z
M1101 -16c-194 0 -323 158 -289 352c32 176 200 317 376 317c192 0 322 -157 288 -350c-31 -176 -198 -319 -375 -319zM1101 161c96 0 187 79 204 175c14 78 -39 140 -117 140c-96 0 -188 -78 -205 -173c-14 -79 38 -142 118 -142z" />
    <glyph glyph-name="ampersand" unicode="&#x26;" horiz-adv-x="1486" 
d="M485 -23c-270 0 -439 185 -390 464c34 203 170 305 412 469c-78 115 -110 211 -89 325c32 185 195 320 390 320c210 0 339 -146 304 -342c-27 -153 -148 -245 -312 -357l205 -344l262 268l134 -134l-288 -293l212 -354l-262 -2l-119 194c-149 -128 -299 -214 -459 -214z
M684 993c115 79 215 136 234 246c14 81 -41 127 -113 129c-95 3 -179 -63 -197 -165c-13 -80 29 -133 76 -210zM480 178c123 0 247 93 358 186l-227 372c-143 -93 -292 -181 -319 -329c-21 -122 65 -229 188 -229z" />
    <glyph glyph-name="quotesingle" unicode="'" horiz-adv-x="645" 
d="M299 889l101 647h218l-129 -647h-190z" />
    <glyph glyph-name="parenleft" unicode="(" horiz-adv-x="660" 
d="M362 -457c-227 178 -330 577 -233 1136c96 534 328 938 614 1115l104 -157c-235 -146 -442 -496 -530 -991c-86 -485 -11 -821 176 -966z" />
    <glyph glyph-name="parenright" unicode=")" horiz-adv-x="660" 
d="M-18 -468l-104 159c235 145 440 486 529 988c84 478 12 822 -174 969l131 136c226 -177 328 -587 230 -1138c-95 -542 -326 -935 -612 -1114z" />
    <glyph glyph-name="asterisk" unicode="*" horiz-adv-x="973" 
d="M431 873l-103 65l208 241l-296 -19l21 124l296 -21l-125 244l113 62l83 -260l175 260l105 -62l-210 -244l296 21l-21 -124l-296 19l128 -241l-116 -65l-82 261z" />
    <glyph glyph-name="plus" unicode="+" horiz-adv-x="1199" 
d="M503 193v397h-397v193h397v397h193v-397h397v-193h-397v-397h-193z" />
    <glyph glyph-name="comma" unicode="," horiz-adv-x="629" 
d="M288 259c84 0 142 -73 128 -157c-4 -25 -16 -48 -32 -67l-230 -411h-145l184 380c-38 27 -60 76 -50 131c10 67 78 124 145 124z" />
    <glyph glyph-name="hyphen" unicode="-" horiz-adv-x="1019" 
d="M136 395l30 172h717l-31 -172h-716z" />
    <glyph glyph-name="period" unicode="." horiz-adv-x="637" 
d="M245 -20c-83 0 -142 70 -127 155c11 67 79 124 146 124c83 0 141 -73 127 -157c-12 -68 -78 -122 -146 -122z" />
    <glyph glyph-name="slash" unicode="/" horiz-adv-x="1247" 
d="M-180 -373l1452 2079h221l-1449 -2079h-224z" />
    <glyph glyph-name="zero" unicode="0" horiz-adv-x="1282" 
d="M569 -20c-341 0 -519 333 -435 805c80 454 343 771 682 771c353 0 517 -333 435 -805c-82 -454 -359 -771 -682 -771zM575 184c208 0 384 239 449 601c63 359 -36 553 -214 553c-196 0 -382 -210 -448 -587c-62 -344 19 -567 213 -567z" />
    <glyph glyph-name="one" unicode="1" horiz-adv-x="1282" 
d="M504 0l232 1318h-309l39 218h541l-270 -1536h-233z" />
    <glyph glyph-name="two" unicode="2" horiz-adv-x="1282" 
d="M1205 1117c-49 -282 -295 -527 -742 -899h650l-38 -218h-1059l10 99c802 687 918 858 950 1041c27 148 -72 211 -190 211c-161 0 -282 -110 -309 -270l-240 17c51 286 284 462 562 461c279 -2 452 -174 406 -442z" />
    <glyph glyph-name="three" unicode="3" horiz-adv-x="1282" 
d="M554 -20c-305 0 -527 172 -475 467l232 -14c-29 -165 84 -245 247 -245c194 0 341 111 372 285c29 161 -79 246 -255 246h-146l35 197h118c142 0 266 99 290 241c22 119 -49 193 -185 193c-144 0 -261 -83 -283 -213l-230 16c44 253 267 403 516 403
c269 0 448 -172 405 -416c-27 -149 -130 -255 -263 -309c156 -48 263 -186 224 -403c-48 -275 -300 -448 -602 -448z" />
    <glyph glyph-name="four" unicode="4" horiz-adv-x="1282" 
d="M1249 522l-38 -211h-256l-55 -311h-232l55 311h-709l29 176l828 1049h300l-179 -1014h257zM302 522h458l136 776z" />
    <glyph glyph-name="five" unicode="5" horiz-adv-x="1282" 
d="M1267 1322h-662l-128 -386c96 67 207 96 306 96c275 0 459 -205 403 -520c-55 -316 -323 -530 -622 -530c-275 0 -501 171 -467 464l240 -8c-1 -169 117 -232 242 -232c178 0 335 136 369 331c33 180 -69 298 -220 298c-110 0 -232 -61 -312 -156l-245 7l296 850h839z
" />
    <glyph glyph-name="six" unicode="6" horiz-adv-x="1282" 
d="M791 1018c230 0 450 -210 405 -510c-44 -290 -327 -526 -618 -526c-314 0 -529 228 -485 530c18 126 84 245 189 360l640 664h280l-521 -529c33 7 69 11 110 11zM973 540c20 179 -93 296 -262 296c-211 0 -370 -159 -393 -355c-19 -172 90 -283 273 -283
c199 0 361 154 382 342z" />
    <glyph glyph-name="seven" unicode="7" horiz-adv-x="1282" 
d="M286 1536h1097l-27 -163l-995 -1373h-276l977 1323h-813z" />
    <glyph glyph-name="eight" unicode="8" horiz-adv-x="1282" 
d="M568 -20c-298 0 -489 214 -441 489c30 173 152 316 313 389c-90 72 -122 186 -97 322c37 213 239 376 474 376c250 0 406 -179 365 -410c-23 -130 -93 -238 -205 -302c132 -83 202 -231 170 -408c-45 -258 -293 -456 -579 -456zM710 919c129 0 245 102 265 232
c18 113 -55 200 -168 200c-130 0 -247 -103 -268 -234c-17 -112 57 -198 171 -198zM579 184c166 0 316 137 341 303c24 149 -73 261 -223 261c-164 0 -312 -128 -338 -294c-23 -149 72 -270 220 -270z" />
    <glyph glyph-name="nine" unicode="9" horiz-adv-x="1282" 
d="M694 1554c314 0 529 -228 485 -530c-18 -126 -84 -245 -189 -360l-640 -664h-280l521 529c-33 -7 -69 -11 -110 -11c-230 0 -450 210 -405 510c44 290 327 526 618 526zM954 1055c19 172 -90 283 -273 283c-199 0 -361 -154 -382 -342c-20 -179 93 -296 262 -296
c211 0 370 159 393 355z" />
    <glyph glyph-name="colon" unicode=":" horiz-adv-x="618" 
d="M375 765c-83 0 -143 71 -127 157c10 66 78 122 145 122c84 0 142 -72 128 -155c-12 -69 -79 -124 -146 -124zM236 -20c-83 0 -142 70 -127 155c10 67 78 124 145 124c84 0 142 -73 128 -157c-12 -68 -78 -122 -146 -122z" />
    <glyph glyph-name="semicolon" unicode=";" horiz-adv-x="616" 
d="M405 1044c83 0 142 -72 128 -155c-12 -69 -79 -124 -146 -124c-85 0 -143 71 -128 157c11 66 77 122 146 122zM266 259c84 0 142 -73 128 -157c-4 -25 -16 -48 -32 -67l-230 -411h-145l184 380c-38 27 -60 76 -50 131c10 67 78 124 145 124z" />
    <glyph glyph-name="less" unicode="&#x3c;" horiz-adv-x="1348" 
d="M1220 1423v-213l-931 -470l931 -470v-217l-1131 572v231z" />
    <glyph glyph-name="equal" unicode="=" horiz-adv-x="1268" 
d="M237 805v193h795v-193h-795zM237 378v192h795v-192h-795z" />
    <glyph glyph-name="greater" unicode="&#x3e;" horiz-adv-x="1348" 
d="M128 1423l1130 -567v-231l-1130 -572v217l931 470l-931 470v213z" />
    <glyph glyph-name="question" unicode="?" horiz-adv-x="1076" 
d="M422 455l22 126c67 383 414 244 468 553c23 132 -67 222 -214 222c-162 0 -300 -118 -330 -271l-200 16c47 264 270 447 533 447c278 0 451 -192 406 -447c-68 -383 -418 -299 -458 -530l-20 -116h-207zM464 -20c-84 0 -143 70 -128 155c11 68 78 124 146 124
c85 0 141 -72 127 -157c-12 -68 -76 -122 -145 -122z" />
    <glyph glyph-name="at" unicode="@" horiz-adv-x="1751" 
d="M1035 1282c382 0 693 -232 614 -675c-59 -336 -275 -486 -464 -486c-120 0 -176 66 -178 138c-42 -58 -139 -136 -266 -136c-192 0 -283 148 -248 350c39 221 227 447 469 447c117 0 191 -61 208 -128l2 8l36 92l145 -8c-50 -136 -100 -267 -152 -412
c-47 -118 -72 -206 19 -206c114 0 238 140 276 359c60 334 -143 510 -459 510c-375 0 -672 -276 -735 -638c-66 -371 155 -591 497 -591c207 0 369 60 508 159l81 -127c-179 -125 -388 -180 -598 -180c-460 0 -736 318 -656 775c77 432 474 749 901 749zM1075 587
c22 99 10 193 -107 193c-156 0 -282 -185 -311 -346c-11 -68 -5 -170 108 -170c174 0 283 189 310 323z" />
    <glyph glyph-name="A" unicode="A" horiz-adv-x="1372" 
d="M1028 0l-45 242h-678l-131 -242h-260l881 1536h149l342 -1536h-258zM417 449h528l-135 727z" />
    <glyph glyph-name="B" unicode="B" horiz-adv-x="1377" 
d="M1319 1104c-27 -157 -118 -267 -250 -326c150 -57 231 -188 196 -384c-42 -242 -254 -394 -495 -394h-656l270 1536h553c257 0 429 -172 382 -432zM1089 1109c23 125 -59 209 -193 209h-322l-77 -446h310c138 0 258 101 282 237zM1044 450c21 119 -53 214 -200 214h-383
l-77 -446h378c139 0 259 96 282 232z" />
    <glyph glyph-name="C" unicode="C" horiz-adv-x="1510" 
d="M800 -20c-445 0 -741 360 -662 805c75 428 480 771 908 771c241 0 438 -106 555 -274l-198 -133c-79 113 -208 178 -366 178c-317 0 -613 -254 -667 -576c-51 -300 139 -536 440 -536c168 0 330 71 454 186l162 -159c-169 -161 -394 -262 -626 -262z" />
    <glyph glyph-name="D" unicode="D" horiz-adv-x="1511" 
d="M114 0l270 1536h447c455 0 720 -352 644 -785c-73 -415 -444 -751 -899 -751h-462zM387 221h205c318 0 591 242 647 564c54 304 -121 530 -439 530h-220z" />
    <glyph glyph-name="E" unicode="E" horiz-adv-x="1187" 
d="M1232 1319h-651l-78 -442h566l-40 -218h-564l-78 -442h651l-37 -217h-887l270 1536h887z" />
    <glyph glyph-name="F" unicode="F" horiz-adv-x="1142" 
d="M1232 1319h-651l-77 -442h565l-40 -218h-564l-115 -659h-236l270 1536h887z" />
    <glyph glyph-name="G" unicode="G" horiz-adv-x="1634" 
d="M894 625l37 209h632l-145 -834h-183l-3 124c-133 -100 -288 -144 -430 -144c-446 0 -742 358 -662 805c75 429 479 771 909 771c224 0 429 -106 544 -261l-190 -139c-81 112 -217 172 -363 172c-320 0 -612 -252 -669 -577c-54 -307 136 -543 440 -543
c162 0 327 66 444 183l40 234h-401z" />
    <glyph glyph-name="H" unicode="H" horiz-adv-x="1622" 
d="M1374 1536h236l-270 -1536h-236l116 658h-754l-116 -658h-236l270 1536h237l-116 -656h754z" />
    <glyph glyph-name="I" unicode="I" horiz-adv-x="632" 
d="M114 0l270 1536h237l-271 -1536h-236z" />
    <glyph glyph-name="J" unicode="J" horiz-adv-x="1051" 
d="M290 -20c-142 0 -256 36 -341 95l129 192c56 -45 147 -67 221 -67c189 0 321 145 352 327l178 1009h237l-189 -1067c-50 -287 -281 -489 -587 -489z" />
    <glyph glyph-name="K" unicode="K" horiz-adv-x="1389" 
d="M1533 1536l-787 -758l533 -778h-300l-498 740l-131 -740h-236l270 1536h237l-127 -720l733 720h306z" />
    <glyph glyph-name="L" unicode="L" horiz-adv-x="1012" 
d="M390 221h544l-39 -221h-781l270 1536h237z" />
    <glyph glyph-name="M" unicode="M" horiz-adv-x="1872" 
d="M1722 1536h162l-270 -1536h-234l177 1010l-672 -836l-380 837l-177 -1011h-236l270 1536h160l429 -948z" />
    <glyph glyph-name="N" unicode="N" horiz-adv-x="1577" 
d="M1354 1536h235l-270 -1536h-92l-716 1042l-183 -1042h-236l270 1536h91l718 -1040z" />
    <glyph glyph-name="O" unicode="O" horiz-adv-x="1746" 
d="M800 -20c-444 0 -740 360 -662 805c75 427 481 771 909 771c445 0 741 -360 662 -805c-75 -427 -481 -771 -909 -771zM814 211c320 0 610 253 664 574c51 303 -140 540 -444 540c-319 0 -610 -253 -664 -574c-51 -303 141 -540 444 -540z" />
    <glyph glyph-name="P" unicode="P" horiz-adv-x="1369" 
d="M1026 1536c271 0 437 -206 392 -459c-42 -238 -261 -419 -529 -419h-425l-114 -658h-236l270 1536h642zM1193 1100c22 129 -62 219 -197 219h-417l-79 -452h396c146 0 270 83 297 233z" />
    <glyph glyph-name="Q" unicode="Q" horiz-adv-x="1793" 
d="M1047 1556c445 0 741 -360 662 -805c-30 -170 -112 -326 -227 -453l164 -187l-167 -145l-157 189c-153 -110 -335 -175 -522 -175c-444 0 -740 360 -662 805c75 427 481 771 909 771zM1481 785c51 303 -140 540 -447 540c-322 0 -614 -253 -667 -574
c-51 -303 141 -540 447 -540c132 0 258 42 365 114l-143 172l154 135l145 -165c74 90 126 199 146 318z" />
    <glyph glyph-name="R" unicode="R" horiz-adv-x="1419" 
d="M1038 1536c259 0 425 -206 380 -459c-35 -200 -196 -360 -394 -406l235 -671h-250l-226 658h-319l-114 -658h-236l270 1536h654zM1193 1101c22 129 -52 218 -194 218h-420l-79 -452h380c158 0 286 85 313 234z" />
    <glyph glyph-name="S" unicode="S" horiz-adv-x="1164" 
d="M522 -20c-247 0 -426 129 -510 258l181 152c73 -132 177 -205 327 -205c166 0 299 94 324 240c26 148 -111 204 -266 278c-185 82 -386 175 -338 454c45 251 270 399 511 399c211 0 346 -99 436 -221l-158 -133c-93 125 -183 153 -281 153c-131 0 -252 -79 -274 -212
c-25 -137 96 -193 236 -256c203 -84 419 -177 364 -483c-49 -278 -296 -424 -552 -424z" />
    <glyph glyph-name="T" unicode="T" horiz-adv-x="1118" 
d="M1272 1536l-40 -221h-408l-231 -1315h-236l232 1315h-410l40 221h1053z" />
    <glyph glyph-name="U" unicode="U" horiz-adv-x="1535" 
d="M692 -20c-353 0 -578 229 -523 540l180 1016h237l-176 -991c-36 -207 88 -344 290 -344c219 0 410 153 447 360l172 975h236l-183 -1032c-55 -311 -341 -524 -680 -524z" />
    <glyph glyph-name="V" unicode="V" horiz-adv-x="1360" 
d="M1292 1536h262l-882 -1536h-150l-340 1536h252l228 -1143z" />
    <glyph glyph-name="W" unicode="W" horiz-adv-x="2013" 
d="M1948 1536h260l-873 -1536h-164l-140 610l-355 -610h-168l-326 1536h250l226 -1193l308 554l-147 639h240l71 -344l191 344h250l-379 -650l112 -544z" />
    <glyph glyph-name="X" unicode="X" horiz-adv-x="1378" 
d="M1516 1536l-644 -759l386 -777h-270l-272 590l-481 -590h-286l670 792l-371 744h271l256 -556l459 556h282z" />
    <glyph glyph-name="Y" unicode="Y" horiz-adv-x="1335" 
d="M1508 1536l-681 -813l-127 -723h-236l128 727l-393 809h274l272 -589l483 589h280z" />
    <glyph glyph-name="Z" unicode="Z" horiz-adv-x="1352" 
d="M1500 1536l-1 -23l-1108 -1292h839l-39 -221h-1247l2 31l1100 1284h-784l39 221h1199z" />
    <glyph glyph-name="bracketleft" unicode="[" horiz-adv-x="683" 
d="M14 -512l410 2320h463l-29 -166h-264l-350 -1987h264l-31 -167h-463z" />
    <glyph glyph-name="backslash" unicode="\" horiz-adv-x="1235" 
d="M905 -373l-719 2079h212l717 -2079h-210z" />
    <glyph glyph-name="bracketright" unicode="]" horiz-adv-x="683" 
d="M-146 -512l30 167h264l351 1987h-264l29 166h463l-410 -2320h-463z" />
    <glyph glyph-name="asciicircum" unicode="^" horiz-adv-x="1485" 
d="M1397 406h-185l-313 951l-645 -951h-201l771 1130h205z" />
    <glyph glyph-name="underscore" unicode="_" horiz-adv-x="1453" 
d="M90 -223l30 172h1024l-30 -172h-1024z" />
    <glyph glyph-name="grave" unicode="`" horiz-adv-x="497" 
d="M499 1137l-297 289l138 131l250 -330z" />
    <glyph glyph-name="a" unicode="a" horiz-adv-x="1255" 
d="M954 963h229l-168 -963h-216l17 127c-86 -86 -201 -146 -348 -146c-262 0 -447 224 -396 518c49 276 295 484 541 484c155 0 258 -65 318 -159zM526 188c171 0 328 139 356 311c26 155 -76 278 -231 278c-170 0 -328 -139 -356 -311c-25 -155 77 -278 231 -278z" />
    <glyph glyph-name="b" unicode="b" horiz-adv-x="1255" 
d="M787 983c262 0 448 -224 397 -517c-49 -277 -296 -485 -542 -485c-162 0 -265 70 -323 168l-30 -149h-216l270 1536h228l-119 -688c84 80 196 135 335 135zM960 499c26 155 -76 278 -231 278c-170 0 -327 -139 -355 -311c-26 -155 76 -278 230 -278
c170 0 329 139 356 311z" />
    <glyph glyph-name="c" unicode="c" horiz-adv-x="1090" 
d="M501 -18c-295 0 -483 228 -433 516c48 270 299 483 579 483c215 0 372 -128 419 -306l-206 -69c-30 102 -112 164 -225 164c-173 0 -325 -133 -352 -305c-25 -155 72 -272 230 -272c128 0 241 77 302 179l184 -101c-107 -178 -297 -289 -498 -289z" />
    <glyph glyph-name="d" unicode="d" horiz-adv-x="1257" 
d="M1057 1536h228l-270 -1536h-216l17 127c-86 -86 -201 -146 -348 -146c-262 0 -447 224 -396 518c49 276 295 484 541 484c157 0 260 -66 319 -162zM526 188c171 0 328 139 356 311c26 155 -76 278 -231 278c-170 0 -328 -139 -356 -311c-25 -155 77 -278 231 -278z" />
    <glyph glyph-name="e" unicode="e" horiz-adv-x="1130" 
d="M647 982c285 0 475 -210 424 -498l-6 -41h-782c-19 -164 76 -272 226 -272c111 0 219 57 290 145l180 -86c-108 -158 -280 -248 -471 -248c-308 0 -488 230 -438 515c47 270 295 485 577 485zM647 796c-133 0 -249 -76 -314 -193h526c-14 111 -90 193 -212 193z" />
    <glyph glyph-name="f" unicode="f" horiz-adv-x="691" 
d="M731 1355c-84 0 -154 -67 -170 -158l-41 -234h241l-32 -189h-242l-136 -774h-229l137 774h-163l33 189h163l49 277c34 201 173 320 361 320c71 0 127 -16 150 -35l-24 -202c-24 23 -65 32 -97 32z" />
    <glyph glyph-name="g" unicode="g" horiz-adv-x="1260" 
d="M956 963h229l-167 -953c-55 -311 -308 -510 -598 -510c-184 0 -358 94 -436 254l164 122c54 -112 156 -172 271 -172c177 0 340 136 373 322l15 88c-80 -79 -187 -133 -325 -133c-279 0 -463 224 -411 518c50 277 294 484 555 484c154 0 251 -63 307 -156zM525 188
c169 0 329 140 355 311c26 155 -77 278 -230 278c-171 0 -328 -139 -356 -311c-24 -154 75 -278 231 -278z" />
    <glyph glyph-name="h" unicode="h" horiz-adv-x="1113" 
d="M709 981c200 0 332 -165 298 -364l-109 -617h-228l105 595c19 117 -46 185 -140 185c-106 0 -197 -74 -226 -167l-108 -613h-228l269 1536h229l-114 -648c73 61 162 93 252 93z" />
    <glyph glyph-name="i" unicode="i" horiz-adv-x="539" 
d="M402 1134c-83 0 -140 69 -127 152c12 68 76 119 143 119c81 0 139 -67 124 -152c-12 -66 -74 -119 -140 -119zM73 0l168 963h226l-168 -963h-226z" />
    <glyph glyph-name="j" unicode="j" horiz-adv-x="544" 
d="M404 1134c-83 0 -141 69 -128 152c13 68 76 119 144 119c81 0 139 -67 124 -152c-13 -66 -75 -119 -140 -119zM-11 -481l254 1444h226l-254 -1444h-226z" />
    <glyph glyph-name="k" unicode="k" horiz-adv-x="1091" 
d="M1125 963l-495 -444l379 -519h-288l-337 473l-83 -473h-228l270 1536h228l-172 -981l429 408h297z" />
    <glyph glyph-name="l" unicode="l" horiz-adv-x="544" 
d="M73 0l270 1536h228l-270 -1536h-228z" />
    <glyph glyph-name="m" unicode="m" horiz-adv-x="1659" 
d="M1245 981c212 0 342 -170 307 -378l-106 -603h-228l104 591c20 112 -39 183 -129 183c-103 0 -186 -78 -214 -171l-106 -603h-228l105 594c19 109 -39 180 -131 180c-110 0 -199 -92 -217 -196l-101 -578h-228l168 963h228l-15 -85c66 64 148 103 234 103
c108 0 202 -58 254 -147c77 90 185 147 303 147z" />
    <glyph glyph-name="n" unicode="n" horiz-adv-x="1113" 
d="M709 981c200 0 332 -165 298 -364l-109 -617h-228l105 595c19 117 -46 185 -140 185c-108 0 -201 -77 -228 -174l-106 -606h-228l168 963h228l-13 -75c73 61 163 93 253 93z" />
    <glyph glyph-name="o" unicode="o" horiz-adv-x="1148" 
d="M501 -18c-295 0 -483 230 -433 516c47 269 299 483 579 483c292 0 481 -230 431 -516c-47 -269 -299 -483 -577 -483zM506 190c166 0 325 134 356 308c28 156 -71 275 -221 275c-169 0 -326 -134 -357 -308c-29 -158 69 -275 222 -275z" />
    <glyph glyph-name="p" unicode="p" horiz-adv-x="1257" 
d="M790 982c261 0 447 -225 395 -519c-48 -275 -295 -484 -541 -484c-157 0 -260 67 -319 163l-110 -634h-228l256 1455h216l-17 -127c85 86 201 146 348 146zM962 497c23 155 -81 278 -235 278c-171 0 -326 -139 -351 -312c-24 -155 79 -277 234 -277
c170 0 326 138 352 311z" />
    <glyph glyph-name="q" unicode="q" horiz-adv-x="1255" 
d="M967 963h216l-256 -1455h-229l106 606c-85 -80 -197 -135 -336 -135c-262 0 -447 225 -396 518c48 276 295 485 541 485c162 0 265 -70 323 -168zM526 186c170 0 328 138 356 311c25 155 -76 278 -231 278c-170 0 -328 -139 -356 -312c-26 -155 76 -277 231 -277z" />
    <glyph glyph-name="r" unicode="r" horiz-adv-x="773" 
d="M702 982c69 0 116 -24 150 -49l-101 -187c-34 18 -67 27 -102 27c-120 0 -232 -108 -266 -305l-82 -468h-228l168 963h228l-28 -144c59 94 149 163 261 163z" />
    <glyph glyph-name="s" unicode="s" horiz-adv-x="908" 
d="M382 -19c-183 0 -304 69 -384 129l125 156c60 -56 164 -102 261 -102c106 0 186 52 200 132c13 76 -75 87 -183 124c-139 36 -297 91 -262 288c32 184 214 274 406 274c133 0 248 -43 329 -103l-122 -142c-70 51 -159 73 -224 73c-97 0 -168 -44 -180 -112
c-14 -73 91 -88 195 -121c160 -39 290 -104 255 -298c-34 -193 -196 -298 -416 -298z" />
    <glyph glyph-name="t" unicode="t" horiz-adv-x="668" 
d="M724 963l-33 -189h-190l-136 -774h-229l135 774h-192l32 189h193l61 346h230l-61 -346h190z" />
    <glyph glyph-name="u" unicode="u" horiz-adv-x="1073" 
d="M460 -19c-261 0 -392 154 -352 384l105 598h228l-103 -593c-22 -123 33 -185 127 -185c111 0 207 78 229 201l100 577h228l-107 -614c-40 -230 -209 -368 -455 -368z" />
    <glyph glyph-name="v" unicode="v" horiz-adv-x="1001" 
d="M834 963h247l-592 -963h-145l-252 963h240l137 -642z" />
    <glyph glyph-name="w" unicode="w" horiz-adv-x="1522" 
d="M1366 963h236l-512 -963h-177l-123 647l-354 -647h-176l-168 963h230l99 -646l351 646h143l122 -650z" />
    <glyph glyph-name="x" unicode="x" horiz-adv-x="1118" 
d="M-70 0l491 481l-314 482h266l206 -326l328 326h281l-492 -482l315 -481h-268l-205 325l-325 -325h-283z" />
    <glyph glyph-name="y" unicode="y" horiz-adv-x="1035" 
d="M860 963h248l-839 -1455h-242l288 506l-222 949h248l136 -718z" />
    <glyph glyph-name="z" unicode="z" horiz-adv-x="966" 
d="M997 963l-632 -774h488l-33 -189h-862l631 774h-461l33 189h836z" />
    <glyph glyph-name="braceleft" unicode="{" horiz-adv-x="631" 
d="M296 -503c-154 0 -239 136 -210 298l84 485c35 201 30 248 -91 306l11 147c141 57 181 116 216 317l86 484c29 165 144 283 299 283h114l-30 -176h-53c-74 0 -127 -62 -144 -165l-81 -459c-30 -167 -68 -288 -246 -366c137 -74 145 -203 116 -370l-81 -462
c-19 -104 -7 -145 72 -145h69l-32 -177h-99z" />
    <glyph glyph-name="bar" unicode="|" horiz-adv-x="623" 
d="M100 -307l325 1843h146l-326 -1843h-145z" />
    <glyph glyph-name="braceright" unicode="}" horiz-adv-x="632" 
d="M-113 -503l31 177h54c78 0 125 57 143 161l81 462c30 167 69 287 246 366c-138 73 -145 202 -116 370l82 459c17 103 1 149 -73 149h-69l30 176h100c155 0 241 -134 211 -299l-85 -484c-35 -201 -29 -249 92 -307l-11 -146c-143 -59 -182 -115 -217 -317l-85 -485
c-28 -162 -145 -282 -299 -282h-115z" />
    <glyph glyph-name="asciitilde" unicode="~" horiz-adv-x="1393" 
d="M907 328c-154 0 -239 104 -290 157c-43 46 -75 65 -115 65c-96 0 -145 -97 -144 -204h-180c-12 227 117 384 328 384c119 0 187 -52 261 -147c33 -39 67 -79 125 -79c81 0 147 77 139 202h179c20 -214 -112 -378 -303 -378z" />
    <glyph glyph-name="exclamdown" unicode="&#xa1;" horiz-adv-x="662" 
d="M397 765c-84 0 -143 71 -127 157c10 67 77 122 145 122c84 0 142 -71 128 -155c-12 -69 -78 -124 -146 -124zM40 -512l189 1060h228l-189 -1060h-228z" />
    <glyph glyph-name="cent" unicode="&#xa2;" horiz-adv-x="1208" 
d="M848 1436l-47 -263h-138l46 263h139zM562 310c128 0 241 77 302 179l184 -101c-96 -160 -258 -265 -436 -285l-18 -105h-139l19 106c-251 36 -403 249 -357 511c48 270 299 483 579 483c215 0 372 -128 419 -306l-206 -69c-30 102 -112 164 -225 164
c-173 0 -325 -133 -352 -305c-25 -155 72 -272 230 -272z" />
    <glyph glyph-name="sterling" unicode="&#xa3;" horiz-adv-x="1525" 
d="M594 648l-78 -440h728l-36 -208h-1117l31 182l168 16l79 450h-165l35 193h164l37 211c51 298 289 504 574 504c218 0 400 -154 426 -359l-224 -76c3 125 -95 210 -212 210c-175 0 -311 -122 -342 -295l-34 -195h381l-35 -193h-380z" />
    <glyph glyph-name="currency" unicode="&#xa4;" horiz-adv-x="1384" 
d="M690 274c-93 0 -185 28 -263 83l-108 -109l-122 129l107 105c-55 78 -82 168 -82 261s27 185 82 262l-105 103l122 129l108 -109c78 57 172 85 265 85c91 0 182 -28 260 -84l105 106l124 -123l-105 -105c56 -78 83 -171 83 -264c0 -92 -27 -185 -83 -263l105 -103
l-122 -129l-107 109c-78 -55 -171 -83 -264 -83zM690 447c167 0 296 135 296 297s-133 294 -296 294c-164 0 -296 -135 -296 -299c0 -166 136 -292 296 -292z" />
    <glyph glyph-name="yen" unicode="&#xa5;" horiz-adv-x="1577" 
d="M1509 1536l-661 -789h375l-44 -169h-376l-28 -159h361l-42 -164h-348l-45 -255h-236l45 255h-399l42 164h386l28 159h-372l43 169h345l-383 789h274l272 -589l483 589h280z" />
    <glyph glyph-name="brokenbar" unicode="&#xa6;" horiz-adv-x="623" 
d="M294 799l131 737h146l-131 -737h-146zM100 -307l131 737h145l-131 -737h-145z" />
    <glyph glyph-name="section" unicode="&#xa7;" horiz-adv-x="1211" 
d="M432 -620c-186 6 -327 103 -399 222l185 126c46 -89 126 -133 225 -136c130 -4 255 63 283 201c69 323 -686 217 -572 761c28 120 91 219 193 297c-71 64 -121 163 -88 318c55 258 284 397 517 389c186 -6 324 -104 395 -222l-183 -126c-46 89 -127 133 -224 136
c-130 4 -255 -63 -284 -201c-69 -323 685 -217 572 -761c-27 -120 -90 -221 -192 -297c69 -66 118 -163 86 -318c-55 -258 -282 -397 -514 -389zM656 219c88 30 158 107 177 202c35 163 -126 220 -282 298c-89 -31 -160 -106 -178 -202c-35 -164 125 -220 283 -298z" />
    <glyph glyph-name="dieresis" unicode="&#xa8;" horiz-adv-x="896" 
d="M379 1136c-77 0 -133 66 -119 146c11 64 73 112 135 112c78 0 134 -64 119 -146c-11 -62 -72 -112 -135 -112zM778 1136c-78 0 -133 66 -119 146c10 64 71 112 134 112c79 0 133 -64 119 -146c-11 -62 -70 -112 -134 -112z" />
    <glyph glyph-name="copyright" unicode="&#xa9;" horiz-adv-x="1820" 
d="M910 -20c-434 0 -788 354 -788 788s354 788 788 788s789 -354 789 -788s-355 -788 -789 -788zM910 107c370 0 663 292 663 661s-293 661 -663 661c-369 0 -661 -292 -661 -661s292 -661 661 -661zM913 330c-243 0 -438 195 -438 438c0 244 195 438 438 438
c121 0 244 -56 322 -142l-98 -84c-55 62 -138 99 -224 99c-172 0 -308 -134 -308 -311c0 -174 136 -309 308 -309c86 0 169 37 224 99l98 -85c-78 -87 -201 -143 -322 -143z" />
    <glyph glyph-name="ordfeminine" unicode="&#xaa;" horiz-adv-x="899" 
d="M795 1536h133l-108 -614h-128l20 111c-60 -75 -147 -124 -245 -124c-177 0 -296 150 -264 336c30 169 184 303 345 303c107 0 185 -53 224 -136zM501 1032c116 0 223 96 239 213c14 100 -55 178 -155 178c-117 0 -225 -94 -240 -211c-15 -100 55 -180 156 -180z" />
    <glyph glyph-name="guillemotleft" unicode="&#xab;" horiz-adv-x="1040" 
d="M296 104l-248 377l374 377h194l-382 -377l241 -377h-179zM716 104l-248 377l374 377h197l-381 -377l241 -377h-183z" />
    <glyph glyph-name="logicalnot" unicode="&#xac;" horiz-adv-x="1631" 
d="M1223 213v524h-1112v174h1283v-698h-171z" />
    <glyph glyph-name="uni00AD" unicode="&#xad;" horiz-adv-x="1022" 
d="M136 387l32 180h717l-33 -180h-716z" />
    <glyph glyph-name="registered" unicode="&#xae;" horiz-adv-x="1820" 
d="M910 1556c434 0 789 -354 789 -788s-355 -788 -789 -788s-788 354 -788 788s354 788 788 788zM910 107c370 0 663 292 663 661s-293 661 -663 661c-369 0 -661 -292 -661 -661s292 -661 661 -661zM1263 971c0 -113 -65 -207 -160 -248l188 -427h-152l-174 405h-194v-405
h-141v945h362c152 0 271 -121 271 -270zM771 1111v-283h203c84 0 150 52 150 140c0 86 -66 143 -150 143h-203z" />
    <glyph glyph-name="macron" unicode="&#xaf;" horiz-adv-x="940" 
d="M284 1222l25 143h635l-25 -143h-635z" />
    <glyph glyph-name="degree" unicode="&#xb0;" horiz-adv-x="951" 
d="M475 1081c-174 0 -313 140 -313 313s139 313 313 313c172 0 313 -140 313 -313s-141 -313 -313 -313zM475 1195c111 0 199 88 199 199s-88 199 -199 199s-199 -88 -199 -199s88 -199 199 -199z" />
    <glyph glyph-name="uni00B2" unicode="&#xb2;" horiz-adv-x="711" 
d="M761 1260c-24 -141 -135 -283 -369 -480h312l-30 -166h-619l7 80c447 389 512 493 529 583c16 91 -37 110 -84 108c-90 -1 -145 -68 -156 -138l-177 16c28 178 166 287 336 287c176 0 281 -114 251 -290z" />
    <glyph glyph-name="uni00B3" unicode="&#xb3;" horiz-adv-x="696" 
d="M733 1284c-12 -69 -50 -125 -107 -162c70 -52 106 -136 88 -240c-28 -156 -177 -280 -345 -280c-174 0 -295 121 -267 281l179 -14c-11 -62 32 -96 89 -96c82 0 157 65 171 148c12 66 -28 100 -101 100h-96l27 158h70c59 0 120 55 131 120c9 50 -23 80 -72 80
c-62 0 -114 -42 -123 -91l-175 19c27 147 151 241 297 241c158 0 260 -114 234 -264z" />
    <glyph glyph-name="acute" unicode="&#xb4;" horiz-adv-x="500" 
d="M242 1134l-73 94l358 329l99 -131z" />
    <glyph glyph-name="uni00B5" unicode="&#xb5;" horiz-adv-x="1213" 
d="M912 963h226l-168 -963h-226l20 114c-83 -82 -191 -132 -302 -132c-83 0 -155 26 -211 71l-94 -534h-168l147 836l3 20l104 588h228l-101 -577c-21 -119 51 -205 163 -205c134 0 260 102 281 221z" />
    <glyph glyph-name="paragraph" unicode="&#xb6;" horiz-adv-x="1170" 
d="M359 -307l205 1157h-45c-226 0 -350 129 -309 361c38 214 189 325 414 325h181l-326 -1843h-120zM671 -307l326 1843h120l-325 -1843h-121z" />
    <glyph glyph-name="periodcentered" unicode="&#xb7;" horiz-adv-x="597" 
d="M338 624c-68 0 -119 56 -106 130c10 52 63 98 116 98c68 0 120 -62 108 -131c-10 -57 -65 -97 -118 -97z" />
    <glyph glyph-name="cedilla" unicode="&#xb8;" horiz-adv-x="603" 
d="M144 -532c-107 0 -204 71 -226 152l110 26c18 -38 68 -60 106 -60c62 0 123 52 134 117c14 75 -57 97 -166 53l-92 60l128 188h128l-102 -130c141 26 241 -68 218 -205c-21 -113 -124 -201 -238 -201z" />
    <glyph glyph-name="uni00B9" unicode="&#xb9;" horiz-adv-x="466" 
d="M185 614l133 755h-132l30 167h309l-162 -922h-178z" />
    <glyph glyph-name="ordmasculine" unicode="&#xba;" horiz-adv-x="805" 
d="M492 909c-195 0 -324 150 -293 336c31 169 195 303 374 303c196 0 327 -150 294 -336c-31 -169 -194 -303 -375 -303zM490 1032c117 0 224 96 240 213c14 100 -55 178 -155 178c-117 0 -225 -94 -240 -211c-15 -100 55 -180 155 -180z" />
    <glyph glyph-name="guillemotright" unicode="&#xbb;" horiz-adv-x="1036" 
d="M-3 104l382 377l-241 377h179l248 -377l-374 -377h-194zM417 104l382 377l-242 377h183l248 -377l-374 -377h-197z" />
    <glyph glyph-name="onequarter" unicode="&#xbc;" horiz-adv-x="1755" 
d="M1391 1536h195l-1341 -1536h-197zM400 614h-178l135 756h-131l29 166h309zM1652 922l-99 -561h80l-29 -166h-80l-34 -195h-179l34 195h-438l17 112l489 615h239zM1163 361h211l64 366z" />
    <glyph glyph-name="onehalf" unicode="&#xbd;" horiz-adv-x="1774" 
d="M1391 1536h195l-1341 -1536h-197zM400 614h-178l135 756h-131l29 166h309zM1681 660c-15 -157 -146 -301 -395 -494h338l-29 -166h-620l7 80c447 389 518 493 529 583c11 84 -36 110 -92 108c-82 -1 -137 -68 -148 -138l-177 16c29 178 157 287 335 287
c164 0 272 -107 252 -276z" />
    <glyph glyph-name="threequarters" unicode="&#xbe;" horiz-adv-x="1951" 
d="M742 882c-28 -156 -177 -280 -345 -280c-175 0 -296 121 -267 281l179 -14c-11 -61 31 -96 88 -96c83 0 157 65 171 148c13 66 -28 100 -100 100h-96l27 158h69c60 0 121 56 132 121c8 50 -25 79 -73 79c-63 0 -114 -42 -123 -90l-174 18c26 148 151 241 296 241
c158 0 261 -114 235 -263c-12 -69 -50 -125 -107 -163c70 -51 106 -136 88 -240zM1609 1536h195l-1342 -1536h-197zM1870 922l-99 -561h80l-30 -166h-79l-34 -195h-179l34 195h-438l17 112l489 615h239zM1381 361h211l64 366z" />
    <glyph glyph-name="questiondown" unicode="&#xbf;" horiz-adv-x="1075" 
d="M606 767c-85 0 -143 72 -128 157c12 68 77 123 146 123c84 0 143 -71 128 -156c-12 -68 -78 -124 -146 -124zM386 -522c-277 0 -451 192 -406 447c67 383 418 299 459 530l21 116h206l-23 -126c-68 -383 -413 -243 -468 -553c-23 -132 68 -222 215 -222
c162 0 299 118 330 271l200 -16c-49 -264 -270 -447 -534 -447z" />
    <glyph glyph-name="Agrave" unicode="&#xc0;" horiz-adv-x="1372" 
d="M998 1739l-91 -90l-297 289l138 131zM1028 0l-45 242h-678l-131 -242h-260l881 1536h149l342 -1536h-258zM417 449h528l-135 727z" />
    <glyph glyph-name="Aacute" unicode="&#xc1;" horiz-adv-x="1372" 
d="M1253 1938l-384 -292l-73 94l358 329zM1028 0l-45 242h-678l-131 -242h-260l881 1536h149l342 -1536h-258zM417 449h528l-135 727z" />
    <glyph glyph-name="Acircumflex" unicode="&#xc2;" horiz-adv-x="1372" 
d="M935 1869l-250 -224l-97 64l270 298h182l172 -298l-109 -64zM1028 0l-45 242h-678l-131 -242h-260l881 1536h149l342 -1536h-258zM417 449h528l-135 727z" />
    <glyph glyph-name="Atilde" unicode="&#xc3;" horiz-adv-x="1372" 
d="M795 1799c-69 0 -116 -77 -132 -162l-134 16c28 160 121 286 265 286c94 0 134 -55 166 -108c18 -29 38 -56 81 -56c64 0 109 62 126 162l133 -16c-30 -170 -123 -286 -260 -286c-103 0 -141 57 -170 108c-22 34 -38 56 -75 56zM795 1536h149l342 -1536h-258l-45 242
h-678l-131 -242h-260zM417 449h528l-135 727z" />
    <glyph glyph-name="Adieresis" unicode="&#xc4;" horiz-adv-x="1372" 
d="M709 1648c-78 0 -134 66 -120 145c11 65 73 113 135 113c78 0 134 -64 120 -146c-12 -62 -73 -112 -135 -112zM1107 1648c-78 0 -134 66 -120 145c12 65 73 113 135 113c80 0 134 -64 120 -146c-12 -62 -71 -112 -135 -112zM1028 0l-45 242h-678l-131 -242h-260l881 1536
h149l342 -1536h-258zM417 449h528l-135 727z" />
    <glyph glyph-name="Aring" unicode="&#xc5;" horiz-adv-x="1372" 
d="M911 1667c-134 0 -226 112 -203 245c21 117 134 211 252 211c132 0 221 -110 198 -244c-20 -116 -131 -212 -247 -212zM815 1879c-6 -62 33 -105 93 -105c74 0 141 59 148 138c7 57 -35 107 -93 107c-76 0 -140 -66 -148 -140zM1028 0l-45 242h-678l-131 -242h-260
l881 1536h149l342 -1536h-258zM417 449h528l-135 727z" />
    <glyph glyph-name="AE" unicode="&#xc6;" horiz-adv-x="1880" 
d="M1922 1316h-650l-78 -438h564l-38 -219h-565l-76 -439h650l-38 -220h-875l61 348h-469l-196 -348h-270l887 1536h1132zM912 550l138 785h-87l-442 -785h391z" />
    <glyph glyph-name="Ccedilla" unicode="&#xc7;" horiz-adv-x="1501" 
d="M1426 242c-162 -155 -376 -254 -598 -262l-84 -106c141 26 241 -68 218 -205c-21 -113 -124 -201 -238 -201c-107 0 -204 71 -226 152l110 26c18 -38 68 -60 106 -60c62 0 123 52 134 117c14 75 -57 97 -166 53l-92 60l115 170c-391 47 -640 386 -567 799
c75 428 480 771 908 771c241 0 438 -106 555 -274l-198 -133c-79 113 -208 178 -366 178c-317 0 -613 -254 -667 -576c-51 -300 139 -536 440 -536c168 0 330 71 454 186z" />
    <glyph glyph-name="Egrave" unicode="&#xc8;" horiz-adv-x="1187" 
d="M954 1739l-91 -90l-297 289l138 131zM1232 1319h-651l-78 -442h566l-40 -218h-564l-78 -442h651l-37 -217h-887l270 1536h887z" />
    <glyph glyph-name="Eacute" unicode="&#xc9;" horiz-adv-x="1187" 
d="M1209 1938l-384 -292l-73 94l358 329zM1232 1319h-651l-78 -442h566l-40 -218h-564l-78 -442h651l-37 -217h-887l270 1536h887z" />
    <glyph glyph-name="Ecircumflex" unicode="&#xca;" horiz-adv-x="1187" 
d="M891 1869l-250 -224l-97 64l270 298h182l172 -298l-109 -64zM1232 1319h-651l-78 -442h566l-40 -218h-564l-78 -442h651l-37 -217h-887l270 1536h887z" />
    <glyph glyph-name="Edieresis" unicode="&#xcb;" horiz-adv-x="1187" 
d="M665 1648c-78 0 -134 66 -120 145c11 65 73 113 135 113c78 0 134 -64 120 -146c-12 -62 -73 -112 -135 -112zM1063 1648c-78 0 -134 66 -120 145c12 65 73 113 135 113c80 0 134 -64 120 -146c-12 -62 -71 -112 -135 -112zM1232 1319h-651l-78 -442h566l-40 -218h-564
l-78 -442h651l-37 -217h-887l270 1536h887z" />
    <glyph glyph-name="Igrave" unicode="&#xcc;" horiz-adv-x="632" 
d="M536 1649l-297 289l138 131l250 -330zM114 0l270 1536h237l-271 -1536h-236z" />
    <glyph glyph-name="Iacute" unicode="&#xcd;" horiz-adv-x="632" 
d="M498 1646l-73 94l358 329l99 -131zM114 0l270 1536h237l-271 -1536h-236z" />
    <glyph glyph-name="Icircumflex" unicode="&#xce;" horiz-adv-x="632" 
d="M314 1645l-97 64l270 298h182l172 -298l-109 -64l-168 224zM114 0l270 1536h237l-271 -1536h-236z" />
    <glyph glyph-name="Idieresis" unicode="&#xcf;" horiz-adv-x="632" 
d="M338 1648c-78 0 -134 66 -120 145c11 65 73 113 135 113c78 0 134 -64 120 -146c-12 -62 -73 -112 -135 -112zM736 1648c-78 0 -134 66 -120 145c12 65 73 113 135 113c80 0 134 -64 120 -146c-12 -62 -71 -112 -135 -112zM114 0l270 1536h237l-271 -1536h-236z" />
    <glyph glyph-name="Eth" unicode="&#xd0;" horiz-adv-x="1511" 
d="M831 1536c455 0 720 -352 644 -785c-73 -415 -444 -751 -899 -751h-462l121 687h-154l26 148h154l123 701h447zM1239 785c54 304 -121 530 -439 530h-220l-85 -480h257l-26 -148h-257l-82 -466h205c318 0 591 242 647 564z" />
    <glyph glyph-name="Ntilde" unicode="&#xd1;" horiz-adv-x="1577" 
d="M875 1799c-69 0 -116 -77 -132 -162l-134 16c28 160 121 286 265 286c94 0 134 -55 166 -108c18 -29 38 -56 81 -56c64 0 109 62 126 162l133 -16c-30 -170 -123 -286 -260 -286c-103 0 -141 57 -170 108c-22 34 -38 56 -75 56zM1354 1536h235l-270 -1536h-92l-716 1042
l-183 -1042h-236l270 1536h91l718 -1040z" />
    <glyph glyph-name="Ograve" unicode="&#xd2;" horiz-adv-x="1746" 
d="M1094 1649l-297 289l138 131l250 -330zM800 -20c-444 0 -740 360 -662 805c75 427 481 771 909 771c445 0 741 -360 662 -805c-75 -427 -481 -771 -909 -771zM814 211c320 0 610 253 664 574c51 303 -140 540 -444 540c-319 0 -610 -253 -664 -574
c-51 -303 141 -540 444 -540z" />
    <glyph glyph-name="Oacute" unicode="&#xd3;" horiz-adv-x="1746" 
d="M1056 1646l-73 94l358 329l99 -131zM800 -20c-444 0 -740 360 -662 805c75 427 481 771 909 771c445 0 741 -360 662 -805c-75 -427 -481 -771 -909 -771zM814 211c320 0 610 253 664 574c51 303 -140 540 -444 540c-319 0 -610 -253 -664 -574
c-51 -303 141 -540 444 -540z" />
    <glyph glyph-name="Ocircumflex" unicode="&#xd4;" horiz-adv-x="1746" 
d="M872 1645l-97 64l270 298h182l172 -298l-109 -64l-168 224zM800 -20c-444 0 -740 360 -662 805c75 427 481 771 909 771c445 0 741 -360 662 -805c-75 -427 -481 -771 -909 -771zM814 211c320 0 610 253 664 574c51 303 -140 540 -444 540c-319 0 -610 -253 -664 -574
c-51 -303 141 -540 444 -540z" />
    <glyph glyph-name="Otilde" unicode="&#xd5;" horiz-adv-x="1746" 
d="M1227 1635c-103 0 -141 57 -170 108c-22 34 -38 56 -75 56c-69 0 -116 -77 -132 -162l-134 16c28 160 121 286 265 286c94 0 134 -55 166 -108c18 -29 38 -56 81 -56c64 0 109 62 126 162l133 -16c-30 -170 -123 -286 -260 -286zM800 -20c-444 0 -740 360 -662 805
c75 427 481 771 909 771c445 0 741 -360 662 -805c-75 -427 -481 -771 -909 -771zM814 211c320 0 610 253 664 574c51 303 -140 540 -444 540c-319 0 -610 -253 -664 -574c-51 -303 141 -540 444 -540z" />
    <glyph glyph-name="Odieresis" unicode="&#xd6;" horiz-adv-x="1746" 
d="M896 1648c-78 0 -134 66 -120 145c11 65 73 113 135 113c78 0 134 -64 120 -146c-12 -62 -73 -112 -135 -112zM1294 1648c-78 0 -134 66 -120 145c12 65 73 113 135 113c80 0 134 -64 120 -146c-12 -62 -71 -112 -135 -112zM800 -20c-444 0 -740 360 -662 805
c75 427 481 771 909 771c445 0 741 -360 662 -805c-75 -427 -481 -771 -909 -771zM814 211c320 0 610 253 664 574c51 303 -140 540 -444 540c-319 0 -610 -253 -664 -574c-51 -303 141 -540 444 -540z" />
    <glyph glyph-name="multiply" unicode="&#xd7;" horiz-adv-x="1067" 
d="M265 275l-135 136l267 267l-267 266l135 137l269 -266l266 266l137 -137l-269 -266l269 -267l-137 -136l-266 267z" />
    <glyph glyph-name="Oslash" unicode="&#xd8;" horiz-adv-x="1746" 
d="M1537 1362c146 -148 215 -366 172 -611c-75 -427 -481 -771 -909 -771c-143 0 -271 37 -376 103l-160 -184l-123 79l170 195c-146 148 -216 367 -173 612c75 427 481 771 909 771c144 0 273 -38 378 -104l160 183l120 -80zM370 751c-27 -158 13 -298 100 -396l797 915
c-66 35 -145 55 -233 55c-319 0 -610 -253 -664 -574zM1478 785c27 158 -12 298 -99 395l-796 -914c66 -35 144 -55 231 -55c320 0 610 253 664 574z" />
    <glyph glyph-name="Ugrave" unicode="&#xd9;" horiz-adv-x="1535" 
d="M986 1649l-297 289l138 131l250 -330zM692 -20c-353 0 -578 229 -523 540l180 1016h237l-176 -991c-36 -207 88 -344 290 -344c219 0 410 153 447 360l172 975h236l-183 -1032c-55 -311 -341 -524 -680 -524z" />
    <glyph glyph-name="Uacute" unicode="&#xda;" horiz-adv-x="1535" 
d="M948 1646l-73 94l358 329l99 -131zM692 -20c-353 0 -578 229 -523 540l180 1016h237l-176 -991c-36 -207 88 -344 290 -344c219 0 410 153 447 360l172 975h236l-183 -1032c-55 -311 -341 -524 -680 -524z" />
    <glyph glyph-name="Ucircumflex" unicode="&#xdb;" horiz-adv-x="1535" 
d="M764 1645l-97 64l270 298h182l172 -298l-109 -64l-168 224zM692 -20c-353 0 -578 229 -523 540l180 1016h237l-176 -991c-36 -207 88 -344 290 -344c219 0 410 153 447 360l172 975h236l-183 -1032c-55 -311 -341 -524 -680 -524z" />
    <glyph glyph-name="Udieresis" unicode="&#xdc;" horiz-adv-x="1535" 
d="M788 1648c-78 0 -134 66 -120 145c11 65 73 113 135 113c78 0 134 -64 120 -146c-12 -62 -73 -112 -135 -112zM1186 1648c-78 0 -134 66 -120 145c12 65 73 113 135 113c80 0 134 -64 120 -146c-12 -62 -71 -112 -135 -112zM692 -20c-353 0 -578 229 -523 540l180 1016
h237l-176 -991c-36 -207 88 -344 290 -344c219 0 410 153 447 360l172 975h236l-183 -1032c-55 -311 -341 -524 -680 -524z" />
    <glyph glyph-name="Yacute" unicode="&#xdd;" horiz-adv-x="1335" 
d="M1234 1938l-384 -292l-73 94l358 329zM1508 1536l-681 -813l-127 -723h-236l128 727l-393 809h274l272 -589l483 589h280z" />
    <glyph glyph-name="Thorn" unicode="&#xde;" horiz-adv-x="1282" 
d="M927 1319c243 0 409 -206 364 -462c-42 -232 -261 -416 -504 -416h-369l-76 -441h-229l77 441l41 230l113 648h1l37 212h229l-37 -212h353zM1076 888c21 127 -47 216 -190 216h-350l-79 -448h311c169 0 284 96 308 232z" />
    <glyph glyph-name="germandbls" unicode="&#xdf;" horiz-adv-x="1311" 
d="M1261 1093c-22 -123 -93 -231 -192 -306c121 -83 185 -226 157 -394c-42 -231 -243 -399 -472 -392l-185 -1l38 218h128c117 1 244 81 269 222c23 130 -67 233 -212 233h-108l33 189h33c136 0 274 117 301 259c22 126 -66 214 -212 214c-172 0 -323 -116 -354 -294
l-184 -1041h-228l188 1063c49 289 296 473 579 473c289 0 465 -190 421 -443z" />
    <glyph glyph-name="agrave" unicode="&#xe0;" horiz-adv-x="1255" 
d="M794 1167l-91 -90l-297 289l138 131zM954 963h229l-168 -963h-216l17 127c-86 -86 -201 -146 -348 -146c-262 0 -447 224 -396 518c49 276 295 484 541 484c155 0 258 -65 318 -159zM526 188c171 0 328 139 356 311c26 155 -76 278 -231 278c-170 0 -328 -139 -356 -311
c-25 -155 77 -278 231 -278z" />
    <glyph glyph-name="aacute" unicode="&#xe1;" horiz-adv-x="1255" 
d="M1049 1366l-384 -292l-73 94l358 329zM954 963h229l-168 -963h-216l17 127c-86 -86 -201 -146 -348 -146c-262 0 -447 224 -396 518c49 276 295 484 541 484c155 0 258 -65 318 -159zM526 188c171 0 328 139 356 311c26 155 -76 278 -231 278c-170 0 -328 -139 -356 -311
c-25 -155 77 -278 231 -278z" />
    <glyph glyph-name="acircumflex" unicode="&#xe2;" horiz-adv-x="1255" 
d="M731 1297l-250 -224l-97 64l270 298h182l172 -298l-109 -64zM954 963h229l-168 -963h-216l17 127c-86 -86 -201 -146 -348 -146c-262 0 -447 224 -396 518c49 276 295 484 541 484c155 0 258 -65 318 -159zM526 188c171 0 328 139 356 311c26 155 -76 278 -231 278
c-170 0 -328 -139 -356 -311c-25 -155 77 -278 231 -278z" />
    <glyph glyph-name="atilde" unicode="&#xe3;" horiz-adv-x="1255" 
d="M591 1227c-69 0 -116 -77 -132 -162l-134 16c28 160 121 286 265 286c94 0 134 -55 166 -108c18 -29 38 -56 81 -56c64 0 109 62 126 162l133 -16c-30 -170 -123 -286 -260 -286c-103 0 -141 57 -170 108c-22 34 -38 56 -75 56zM954 963h229l-168 -963h-216l17 127
c-86 -86 -201 -146 -348 -146c-262 0 -447 224 -396 518c49 276 295 484 541 484c155 0 258 -65 318 -159zM526 188c171 0 328 139 356 311c26 155 -76 278 -231 278c-170 0 -328 -139 -356 -311c-25 -155 77 -278 231 -278z" />
    <glyph glyph-name="adieresis" unicode="&#xe4;" horiz-adv-x="1255" 
d="M514 1137c-77 0 -133 66 -119 146c11 64 73 112 135 112c78 0 134 -64 119 -146c-11 -62 -72 -112 -135 -112zM913 1137c-78 0 -133 66 -119 146c10 64 71 112 134 112c79 0 133 -64 119 -146c-11 -62 -70 -112 -134 -112zM954 963h229l-168 -963h-216l17 127
c-86 -86 -201 -146 -348 -146c-262 0 -447 224 -396 518c49 276 295 484 541 484c155 0 258 -65 318 -159zM526 188c171 0 328 139 356 311c26 155 -76 278 -231 278c-170 0 -328 -139 -356 -311c-25 -155 77 -278 231 -278z" />
    <glyph glyph-name="aring" unicode="&#xe5;" horiz-adv-x="1255" 
d="M724 1114c-134 0 -226 112 -201 245c19 116 132 211 250 211c132 0 222 -111 199 -244c-21 -116 -131 -212 -248 -212zM630 1326c-8 -63 31 -105 91 -105c75 0 141 58 149 138c6 57 -34 107 -94 107c-74 0 -139 -66 -146 -140zM954 963h229l-168 -963h-216l17 127
c-86 -86 -201 -146 -348 -146c-262 0 -447 224 -396 518c49 276 295 484 541 484c155 0 258 -65 318 -159zM526 188c171 0 328 139 356 311c26 155 -76 278 -231 278c-170 0 -328 -139 -356 -311c-25 -155 77 -278 231 -278z" />
    <glyph glyph-name="ae" unicode="&#xe6;" horiz-adv-x="1760" 
d="M1277 982c285 0 475 -210 424 -498l-6 -41h-782c-19 -164 76 -272 226 -272c111 0 219 57 290 145l180 -86c-108 -158 -280 -248 -471 -248c-163 0 -289 64 -366 166c-135 -108 -287 -167 -423 -167c-224 0 -345 128 -312 318c32 182 202 286 554 286h132c2 7 5 13 7 20
l5 29c21 116 -41 180 -146 182c-103 2 -199 -56 -239 -135l-191 79c83 145 240 223 430 223c148 0 261 -49 323 -132c102 81 229 131 365 131zM1277 796c-133 0 -249 -76 -314 -193h526c-14 111 -90 193 -212 193zM389 152c94 0 217 61 311 164c-7 37 -10 76 -8 116h-115
c-208 0 -296 -67 -313 -162c-13 -75 36 -118 125 -118z" />
    <glyph glyph-name="ccedilla" unicode="&#xe7;" horiz-adv-x="1090" 
d="M513 193c128 0 241 77 302 179l184 -101c-101 -168 -276 -276 -464 -288l-86 -109c141 26 241 -68 218 -205c-21 -113 -124 -201 -238 -201c-107 0 -204 71 -226 152l110 26c18 -38 68 -60 106 -60c62 0 123 52 134 117c14 75 -57 97 -166 53l-92 60l118 173
c-243 41 -390 251 -345 509c48 270 299 483 579 483c215 0 372 -128 419 -306l-206 -69c-30 102 -112 164 -225 164c-173 0 -325 -133 -352 -305c-25 -155 72 -272 230 -272z" />
    <glyph glyph-name="egrave" unicode="&#xe8;" horiz-adv-x="1130" 
d="M796 1173l-91 -90l-297 289l138 131zM647 982c285 0 475 -210 424 -498l-6 -41h-782c-19 -164 76 -272 226 -272c111 0 219 57 290 145l180 -86c-108 -158 -280 -248 -471 -248c-308 0 -488 230 -438 515c47 270 295 485 577 485zM647 796c-133 0 -249 -76 -314 -193h526
c-14 111 -90 193 -212 193z" />
    <glyph glyph-name="eacute" unicode="&#xe9;" horiz-adv-x="1130" 
d="M1051 1372l-384 -292l-73 94l358 329zM647 982c285 0 475 -210 424 -498l-6 -41h-782c-19 -164 76 -272 226 -272c111 0 219 57 290 145l180 -86c-108 -158 -280 -248 -471 -248c-308 0 -488 230 -438 515c47 270 295 485 577 485zM647 796c-133 0 -249 -76 -314 -193
h526c-14 111 -90 193 -212 193z" />
    <glyph glyph-name="ecircumflex" unicode="&#xea;" horiz-adv-x="1130" 
d="M733 1303l-250 -224l-97 64l270 298h182l172 -298l-109 -64zM647 982c285 0 475 -210 424 -498l-6 -41h-782c-19 -164 76 -272 226 -272c111 0 219 57 290 145l180 -86c-108 -158 -280 -248 -471 -248c-308 0 -488 230 -438 515c47 270 295 485 577 485zM647 796
c-133 0 -249 -76 -314 -193h526c-14 111 -90 193 -212 193z" />
    <glyph glyph-name="edieresis" unicode="&#xeb;" horiz-adv-x="1130" 
d="M516 1143c-77 0 -133 66 -119 146c11 64 73 112 135 112c78 0 134 -64 119 -146c-11 -62 -72 -112 -135 -112zM915 1143c-78 0 -133 66 -119 146c10 64 71 112 134 112c79 0 133 -64 119 -146c-11 -62 -70 -112 -134 -112zM647 982c285 0 475 -210 424 -498l-6 -41h-782
c-19 -164 76 -272 226 -272c111 0 219 57 290 145l180 -86c-108 -158 -280 -248 -471 -248c-308 0 -488 230 -438 515c47 270 295 485 577 485zM647 796c-133 0 -249 -76 -314 -193h526c-14 111 -90 193 -212 193z" />
    <glyph glyph-name="igrave" unicode="&#xec;" horiz-adv-x="541" 
d="M390 1076l-297 289l138 131l250 -330zM73 0l168 963h228l-168 -963h-228z" />
    <glyph glyph-name="iacute" unicode="&#xed;" horiz-adv-x="541" 
d="M352 1073l-73 94l358 329l99 -131zM73 0l168 963h228l-168 -963h-228z" />
    <glyph glyph-name="icircumflex" unicode="&#xee;" horiz-adv-x="541" 
d="M168 1072l-97 64l270 298h182l172 -298l-109 -64l-168 224zM73 0l168 963h228l-168 -963h-228z" />
    <glyph glyph-name="idieresis" unicode="&#xef;" horiz-adv-x="541" 
d="M201 1136c-77 0 -133 66 -119 146c11 64 73 112 135 112c78 0 134 -64 119 -146c-11 -62 -72 -112 -135 -112zM600 1136c-78 0 -133 66 -119 146c10 64 71 112 134 112c79 0 133 -64 119 -146c-11 -62 -70 -112 -134 -112zM73 0l168 963h228l-168 -963h-228z" />
    <glyph glyph-name="eth" unicode="&#xf0;" horiz-adv-x="1197" 
d="M858 1325c192 -172 310 -464 245 -833l-2 1l-2 -11c-53 -311 -306 -500 -589 -500c-299 0 -493 230 -444 516c47 269 305 483 589 483c106 0 198 -31 271 -82c-25 143 -85 247 -169 319l-135 -143l-91 72l130 135c-72 37 -156 60 -247 71l61 140c102 -8 203 -42 293 -100
l113 118l85 -71zM888 498c28 162 -76 290 -237 290c-179 0 -347 -145 -378 -323c-28 -163 76 -289 241 -289c176 0 343 143 374 322z" />
    <glyph glyph-name="ntilde" unicode="&#xf1;" horiz-adv-x="1113" 
d="M580 1226c-69 0 -116 -77 -132 -162l-134 16c28 160 121 286 265 286c94 0 134 -55 166 -108c18 -29 38 -56 81 -56c64 0 109 62 126 162l133 -16c-30 -170 -123 -286 -260 -286c-103 0 -141 57 -170 108c-22 34 -38 56 -75 56zM709 981c200 0 332 -165 298 -364
l-109 -617h-228l105 595c19 117 -46 185 -140 185c-108 0 -201 -77 -228 -174l-106 -606h-228l168 963h228l-13 -75c73 61 163 93 253 93z" />
    <glyph glyph-name="ograve" unicode="&#xf2;" horiz-adv-x="1148" 
d="M693 1075l-297 289l138 131l250 -330zM501 -18c-295 0 -483 230 -433 516c47 269 299 483 579 483c292 0 481 -230 431 -516c-47 -269 -299 -483 -577 -483zM506 190c166 0 325 134 356 308c28 156 -71 275 -221 275c-169 0 -326 -134 -357 -308
c-29 -158 69 -275 222 -275z" />
    <glyph glyph-name="oacute" unicode="&#xf3;" horiz-adv-x="1148" 
d="M655 1072l-73 94l358 329l99 -131zM501 -18c-295 0 -483 230 -433 516c47 269 299 483 579 483c292 0 481 -230 431 -516c-47 -269 -299 -483 -577 -483zM506 190c166 0 325 134 356 308c28 156 -71 275 -221 275c-169 0 -326 -134 -357 -308c-29 -158 69 -275 222 -275z
" />
    <glyph glyph-name="ocircumflex" unicode="&#xf4;" horiz-adv-x="1148" 
d="M471 1071l-97 64l270 298h182l172 -298l-109 -64l-168 224zM501 -18c-295 0 -483 230 -433 516c47 269 299 483 579 483c292 0 481 -230 431 -516c-47 -269 -299 -483 -577 -483zM506 190c166 0 325 134 356 308c28 156 -71 275 -221 275c-169 0 -326 -134 -357 -308
c-29 -158 69 -275 222 -275z" />
    <glyph glyph-name="otilde" unicode="&#xf5;" horiz-adv-x="1148" 
d="M826 1061c-103 0 -141 57 -170 108c-22 34 -38 56 -75 56c-69 0 -116 -77 -132 -162l-134 16c28 160 121 286 265 286c94 0 134 -55 166 -108c18 -29 38 -56 81 -56c64 0 109 62 126 162l133 -16c-30 -170 -123 -286 -260 -286zM501 -18c-295 0 -483 230 -433 516
c47 269 299 483 579 483c292 0 481 -230 431 -516c-47 -269 -299 -483 -577 -483zM506 190c166 0 325 134 356 308c28 156 -71 275 -221 275c-169 0 -326 -134 -357 -308c-29 -158 69 -275 222 -275z" />
    <glyph glyph-name="odieresis" unicode="&#xf6;" horiz-adv-x="1148" 
d="M504 1135c-77 0 -133 66 -119 146c11 64 73 112 135 112c78 0 134 -64 119 -146c-11 -62 -72 -112 -135 -112zM903 1135c-78 0 -133 66 -119 146c10 64 71 112 134 112c79 0 133 -64 119 -146c-11 -62 -70 -112 -134 -112zM501 -18c-295 0 -483 230 -433 516
c47 269 299 483 579 483c292 0 481 -230 431 -516c-47 -269 -299 -483 -577 -483zM506 190c166 0 325 134 356 308c28 156 -71 275 -221 275c-169 0 -326 -134 -357 -308c-29 -158 69 -275 222 -275z" />
    <glyph glyph-name="divide" unicode="&#xf7;" horiz-adv-x="1007" 
d="M498 918c-72 0 -135 58 -135 135c0 74 63 137 135 137c74 0 139 -63 139 -137c0 -77 -65 -135 -139 -135zM106 590v193h795v-193h-795zM498 184c-72 0 -135 58 -135 137c0 72 63 135 135 135c74 0 139 -63 139 -135c0 -79 -65 -137 -139 -137z" />
    <glyph glyph-name="oslash" unicode="&#xf8;" horiz-adv-x="1148" 
d="M965 858c95 -94 141 -235 113 -393c-47 -269 -299 -483 -577 -483c-93 0 -175 23 -243 63l-115 -132l-81 52l120 138c-96 95 -142 236 -114 395c47 269 299 483 579 483c94 0 177 -24 245 -65l115 132l78 -52zM284 465c-14 -79 3 -148 43 -197l420 482
c-31 15 -67 23 -106 23c-169 0 -326 -134 -357 -308zM862 498c14 77 -3 144 -42 194l-418 -481c31 -14 66 -21 104 -21c166 0 325 134 356 308z" />
    <glyph glyph-name="ugrave" unicode="&#xf9;" horiz-adv-x="1073" 
d="M652 1076l-297 289l138 131l250 -330zM460 -19c-261 0 -392 154 -352 384l105 598h228l-103 -593c-22 -123 33 -185 127 -185c111 0 207 78 229 201l100 577h228l-107 -614c-40 -230 -209 -368 -455 -368z" />
    <glyph glyph-name="uacute" unicode="&#xfa;" horiz-adv-x="1073" 
d="M614 1073l-73 94l358 329l99 -131zM460 -19c-261 0 -392 154 -352 384l105 598h228l-103 -593c-22 -123 33 -185 127 -185c111 0 207 78 229 201l100 577h228l-107 -614c-40 -230 -209 -368 -455 -368z" />
    <glyph glyph-name="ucircumflex" unicode="&#xfb;" horiz-adv-x="1073" 
d="M430 1072l-97 64l270 298h182l172 -298l-109 -64l-168 224zM460 -19c-261 0 -392 154 -352 384l105 598h228l-103 -593c-22 -123 33 -185 127 -185c111 0 207 78 229 201l100 577h228l-107 -614c-40 -230 -209 -368 -455 -368z" />
    <glyph glyph-name="udieresis" unicode="&#xfc;" horiz-adv-x="1073" 
d="M463 1136c-77 0 -133 66 -119 146c11 64 73 112 135 112c78 0 134 -64 119 -146c-11 -62 -72 -112 -135 -112zM862 1136c-78 0 -133 66 -119 146c10 64 71 112 134 112c79 0 133 -64 119 -146c-11 -62 -70 -112 -134 -112zM460 -19c-261 0 -392 154 -352 384l105 598h228
l-103 -593c-22 -123 33 -185 127 -185c111 0 207 78 229 201l100 577h228l-107 -614c-40 -230 -209 -368 -455 -368z" />
    <glyph glyph-name="yacute" unicode="&#xfd;" horiz-adv-x="1035" 
d="M965 1365l-384 -292l-73 94l358 329zM860 963h248l-839 -1455h-242l288 506l-222 949h248l136 -718z" />
    <glyph glyph-name="thorn" unicode="&#xfe;" horiz-adv-x="1246" 
d="M774 981c267 0 452 -230 402 -516c-47 -269 -295 -483 -547 -483c-138 0 -243 53 -309 139l-104 -603l-228 1l356 2017h229l-116 -669c86 71 195 114 317 114zM953 498c25 152 -76 273 -228 273c-168 0 -327 -137 -354 -306c-26 -153 77 -274 230 -274
c167 0 324 137 352 307z" />
    <glyph glyph-name="ydieresis" unicode="&#xff;" horiz-adv-x="1035" 
d="M430 1136c-77 0 -133 66 -119 146c11 64 73 112 135 112c78 0 134 -64 119 -146c-11 -62 -72 -112 -135 -112zM829 1136c-78 0 -133 66 -119 146c10 64 71 112 134 112c79 0 133 -64 119 -146c-11 -62 -70 -112 -134 -112zM860 963h248l-839 -1455h-242l288 506l-222 949
h248l136 -718z" />
    <glyph glyph-name="Amacron" unicode="&#x100;" horiz-adv-x="1372" 
d="M1250 1877l-25 -143h-635l25 143h635zM1028 0l-45 242h-678l-131 -242h-260l881 1536h149l342 -1536h-258zM417 449h528l-135 727z" />
    <glyph glyph-name="amacron" unicode="&#x101;" horiz-adv-x="1255" 
d="M1046 1305l-25 -143h-635l25 143h635zM954 963h229l-168 -963h-216l17 127c-86 -86 -201 -146 -348 -146c-262 0 -447 224 -396 518c49 276 295 484 541 484c155 0 258 -65 318 -159zM526 188c171 0 328 139 356 311c26 155 -76 278 -231 278c-170 0 -328 -139 -356 -311
c-25 -155 77 -278 231 -278z" />
    <glyph glyph-name="Abreve" unicode="&#x102;" horiz-adv-x="1372" 
d="M915 1704c-211 0 -343 127 -305 330h153c-19 -117 32 -201 154 -201c144 0 222 100 240 201h154c-38 -219 -197 -330 -396 -330zM795 1536h149l342 -1536h-258l-45 242h-678l-131 -242h-260zM417 449h528l-135 727z" />
    <glyph glyph-name="abreve" unicode="&#x103;" horiz-adv-x="1255" 
d="M711 1132c-211 0 -343 127 -305 330h153c-19 -117 32 -201 154 -201c144 0 222 100 240 201h154c-38 -219 -197 -330 -396 -330zM954 963h229l-168 -963h-216l17 127c-86 -86 -201 -146 -348 -146c-262 0 -447 224 -396 518c49 276 295 484 541 484
c155 0 258 -65 318 -159zM526 188c171 0 328 139 356 311c26 155 -76 278 -231 278c-170 0 -328 -139 -356 -311c-25 -155 77 -278 231 -278z" />
    <glyph glyph-name="Aogonek" unicode="&#x104;" horiz-adv-x="1372" 
d="M1254 -281l79 -139c-95 -82 -205 -112 -303 -106c-154 8 -237 104 -212 244c20 121 121 214 272 282h-62l-45 242h-678l-131 -242h-260l881 1536h149l342 -1535l2 -1c-157 -63 -299 -159 -320 -278c-11 -66 25 -91 85 -91c68 0 143 36 201 88zM417 449h528l-135 727z" />
    <glyph glyph-name="aogonek" unicode="&#x105;" horiz-adv-x="1255" 
d="M780 -369c68 0 143 36 201 88l79 -139c-95 -82 -205 -112 -303 -106c-154 8 -237 104 -212 244c20 121 121 214 272 282h-18l17 127c-86 -86 -201 -146 -348 -146c-262 0 -447 224 -396 518c49 276 295 484 541 484c155 0 258 -65 318 -159l23 139h229l-168 -963
c-157 -63 -299 -159 -320 -278c-11 -66 25 -91 85 -91zM526 188c171 0 328 139 356 311c26 155 -76 278 -231 278c-170 0 -328 -139 -356 -311c-25 -155 77 -278 231 -278z" />
    <glyph glyph-name="Cacute" unicode="&#x106;" horiz-adv-x="1501" 
d="M1066 1646l-73 94l358 329l99 -131zM800 -20c-445 0 -741 360 -662 805c75 428 480 771 908 771c241 0 438 -106 555 -274l-198 -133c-79 113 -208 178 -366 178c-317 0 -613 -254 -667 -576c-51 -300 139 -536 440 -536c168 0 330 71 454 186l162 -159
c-169 -161 -394 -262 -626 -262z" />
    <glyph glyph-name="cacute" unicode="&#x107;" horiz-adv-x="1090" 
d="M647 1073l-73 94l358 329l99 -131zM501 -18c-295 0 -483 228 -433 516c48 270 299 483 579 483c215 0 372 -128 419 -306l-206 -69c-30 102 -112 164 -225 164c-173 0 -325 -133 -352 -305c-25 -155 72 -272 230 -272c128 0 241 77 302 179l184 -101
c-107 -178 -297 -289 -498 -289z" />
    <glyph glyph-name="Cdotaccent" unicode="&#x10a;" horiz-adv-x="1501" 
d="M1112 1696c-76 0 -132 66 -120 144c13 65 73 114 134 114c79 0 135 -65 120 -147c-10 -61 -70 -111 -134 -111zM800 -20c-445 0 -741 360 -662 805c75 428 480 771 908 771c241 0 438 -106 555 -274l-198 -133c-79 113 -208 178 -366 178c-317 0 -613 -254 -667 -576
c-51 -300 139 -536 440 -536c168 0 330 71 454 186l162 -159c-169 -161 -394 -262 -626 -262z" />
    <glyph glyph-name="cdotaccent" unicode="&#x10b;" horiz-adv-x="1090" 
d="M693 1123c-76 0 -132 66 -120 144c13 65 73 114 134 114c79 0 135 -65 120 -147c-10 -61 -70 -111 -134 -111zM501 -18c-295 0 -483 228 -433 516c48 270 299 483 579 483c215 0 372 -128 419 -306l-206 -69c-30 102 -112 164 -225 164c-173 0 -325 -133 -352 -305
c-25 -155 72 -272 230 -272c128 0 241 77 302 179l184 -101c-107 -178 -297 -289 -498 -289z" />
    <glyph glyph-name="Ccaron" unicode="&#x10c;" horiz-adv-x="1501" 
d="M1006 1686l-169 298l109 63l168 -224l250 224l96 -63l-273 -298h-181zM800 -20c-445 0 -741 360 -662 805c75 428 480 771 908 771c241 0 438 -106 555 -274l-198 -133c-79 113 -208 178 -366 178c-317 0 -613 -254 -667 -576c-51 -300 139 -536 440 -536
c168 0 330 71 454 186l162 -159c-169 -161 -394 -262 -626 -262z" />
    <glyph glyph-name="ccaron" unicode="&#x10d;" horiz-adv-x="1090" 
d="M587 1113l-169 298l109 63l168 -224l250 224l96 -63l-273 -298h-181zM501 -18c-295 0 -483 228 -433 516c48 270 299 483 579 483c215 0 372 -128 419 -306l-206 -69c-30 102 -112 164 -225 164c-173 0 -325 -133 -352 -305c-25 -155 72 -272 230 -272
c128 0 241 77 302 179l184 -101c-107 -178 -297 -289 -498 -289z" />
    <glyph glyph-name="Dcaron" unicode="&#x10e;" horiz-adv-x="1511" 
d="M775 1686l-169 298l109 63l168 -224l250 224l96 -63l-273 -298h-181zM114 0l270 1536h447c455 0 720 -352 644 -785c-73 -415 -444 -751 -899 -751h-462zM387 221h205c318 0 591 242 647 564c54 304 -121 530 -439 530h-220z" />
    <glyph glyph-name="dcaron" unicode="&#x10f;" horiz-adv-x="1257" 
d="M1634 1557c85 0 132 -52 132 -114c0 -33 -11 -67 -36 -98l-285 -377h-157l236 335c-36 22 -62 79 -42 147c25 59 93 107 152 107zM932 821l125 715h228l-270 -1536h-216l17 127c-86 -86 -201 -146 -348 -146c-262 0 -447 224 -396 518c49 276 295 484 541 484
c157 0 260 -66 319 -162zM526 188c171 0 328 139 356 311c26 155 -76 278 -231 278c-170 0 -328 -139 -356 -311c-25 -155 77 -278 231 -278z" />
    <glyph glyph-name="Dcroat" unicode="&#x110;" horiz-adv-x="1511" 
d="M831 1536c455 0 720 -352 644 -785c-73 -415 -444 -751 -899 -751h-462l121 687h-154l26 148h154l123 701h447zM1239 785c54 304 -121 530 -439 530h-220l-85 -480h257l-26 -148h-257l-82 -466h205c318 0 591 242 647 564z" />
    <glyph glyph-name="dcroat" unicode="&#x111;" horiz-adv-x="1257" 
d="M1381 1322l-26 -148h-134l-206 -1174h-216l17 127c-86 -86 -201 -146 -348 -146c-262 0 -447 224 -396 518c49 276 295 484 541 484c157 0 260 -66 319 -162l62 353h-284l26 148h284l37 214h228l-38 -214h134zM526 188c171 0 328 139 356 311c26 155 -76 278 -231 278
c-170 0 -328 -139 -356 -311c-25 -155 77 -278 231 -278z" />
    <glyph glyph-name="Emacron" unicode="&#x112;" horiz-adv-x="1187" 
d="M1206 1877l-25 -143h-635l25 143h635zM1232 1319h-651l-78 -442h566l-40 -218h-564l-78 -442h651l-37 -217h-887l270 1536h887z" />
    <glyph glyph-name="emacron" unicode="&#x113;" horiz-adv-x="1130" 
d="M1048 1311l-25 -143h-635l25 143h635zM647 982c285 0 475 -210 424 -498l-6 -41h-782c-19 -164 76 -272 226 -272c111 0 219 57 290 145l180 -86c-108 -158 -280 -248 -471 -248c-308 0 -488 230 -438 515c47 270 295 485 577 485zM647 796c-133 0 -249 -76 -314 -193
h526c-14 111 -90 193 -212 193z" />
    <glyph glyph-name="Edotaccent" unicode="&#x116;" horiz-adv-x="1187" 
d="M871 1696c-76 0 -132 66 -120 144c13 65 73 114 134 114c79 0 135 -65 120 -147c-10 -61 -70 -111 -134 -111zM1232 1319h-651l-78 -442h566l-40 -218h-564l-78 -442h651l-37 -217h-887l270 1536h887z" />
    <glyph glyph-name="edotaccent" unicode="&#x117;" horiz-adv-x="1130" 
d="M713 1130c-76 0 -132 66 -120 144c13 65 73 114 134 114c79 0 135 -65 120 -147c-10 -61 -70 -111 -134 -111zM647 982c285 0 475 -210 424 -498l-6 -41h-782c-19 -164 76 -272 226 -272c111 0 219 57 290 145l180 -86c-108 -158 -280 -248 -471 -248
c-308 0 -488 230 -438 515c47 270 295 485 577 485zM647 796c-133 0 -249 -76 -314 -193h526c-14 111 -90 193 -212 193z" />
    <glyph glyph-name="Eogonek" unicode="&#x118;" horiz-adv-x="1187" 
d="M1232 1319h-651l-78 -442h566l-40 -218h-564l-78 -442h651l-37 -217c-157 -63 -299 -159 -320 -278c-11 -66 25 -91 85 -91c68 0 143 36 201 88l79 -139c-95 -82 -205 -112 -303 -106c-154 8 -237 104 -212 244c20 121 121 214 272 282h-689l270 1536h887z" />
    <glyph glyph-name="eogonek" unicode="&#x119;" horiz-adv-x="1130" 
d="M647 982c285 0 475 -210 424 -498l-6 -41h-782c-19 -164 76 -272 226 -272c111 0 219 57 290 145l180 -86c-81 -118 -197 -198 -330 -231c-110 -60 -197 -137 -213 -228c-11 -66 25 -91 85 -91c68 0 143 36 201 88l79 -139c-95 -82 -205 -112 -303 -106
c-154 8 -237 104 -212 244c15 87 71 159 157 219c-268 30 -419 247 -373 511c47 270 295 485 577 485zM647 796c-133 0 -249 -76 -314 -193h526c-14 111 -90 193 -212 193z" />
    <glyph glyph-name="Ecaron" unicode="&#x11a;" horiz-adv-x="1187" 
d="M946 1686h-181l-169 298l109 63l168 -224l250 224l96 -63zM1232 1319h-651l-78 -442h566l-40 -218h-564l-78 -442h651l-37 -217h-887l270 1536h887z" />
    <glyph glyph-name="ecaron" unicode="&#x11b;" horiz-adv-x="1130" 
d="M788 1120h-181l-169 298l109 63l168 -224l250 224l96 -63zM647 982c285 0 475 -210 424 -498l-6 -41h-782c-19 -164 76 -272 226 -272c111 0 219 57 290 145l180 -86c-108 -158 -280 -248 -471 -248c-308 0 -488 230 -438 515c47 270 295 485 577 485zM647 796
c-133 0 -249 -76 -314 -193h526c-14 111 -90 193 -212 193z" />
    <glyph glyph-name="Gbreve" unicode="&#x11e;" horiz-adv-x="1634" 
d="M1129 1704c-211 0 -343 127 -305 330h153c-19 -117 32 -201 154 -201c144 0 222 100 240 201h154c-38 -219 -197 -330 -396 -330zM894 625l37 209h632l-145 -834h-183l-3 124c-133 -100 -288 -144 -430 -144c-446 0 -742 358 -662 805c75 429 479 771 909 771
c224 0 429 -106 544 -261l-190 -139c-81 112 -217 172 -363 172c-320 0 -612 -252 -669 -577c-54 -307 136 -543 440 -543c162 0 327 66 444 183l40 234h-401z" />
    <glyph glyph-name="gbreve" unicode="&#x11f;" horiz-adv-x="1260" 
d="M712 1131c-211 0 -343 127 -305 330h153c-19 -117 32 -201 154 -201c144 0 222 100 240 201h154c-38 -219 -197 -330 -396 -330zM956 963h229l-167 -953c-55 -311 -308 -510 -598 -510c-184 0 -358 94 -436 254l164 122c54 -112 156 -172 271 -172c177 0 340 136 373 322
l15 88c-80 -79 -187 -133 -325 -133c-279 0 -463 224 -411 518c50 277 294 484 555 484c154 0 251 -63 307 -156zM525 188c169 0 329 140 355 311c26 155 -77 278 -230 278c-171 0 -328 -139 -356 -311c-24 -154 75 -278 231 -278z" />
    <glyph glyph-name="Gdotaccent" unicode="&#x120;" horiz-adv-x="1634" 
d="M1129 1696c-76 0 -132 66 -120 144c13 65 73 114 134 114c79 0 135 -65 120 -147c-10 -61 -70 -111 -134 -111zM894 625l37 209h632l-145 -834h-183l-3 124c-133 -100 -288 -144 -430 -144c-446 0 -742 358 -662 805c75 429 479 771 909 771c224 0 429 -106 544 -261
l-190 -139c-81 112 -217 172 -363 172c-320 0 -612 -252 -669 -577c-54 -307 136 -543 440 -543c162 0 327 66 444 183l40 234h-401z" />
    <glyph glyph-name="gdotaccent" unicode="&#x121;" horiz-adv-x="1260" 
d="M712 1123c-76 0 -132 66 -120 144c13 65 73 114 134 114c79 0 135 -65 120 -147c-10 -61 -70 -111 -134 -111zM956 963h229l-167 -953c-55 -311 -308 -510 -598 -510c-184 0 -358 94 -436 254l164 122c54 -112 156 -172 271 -172c177 0 340 136 373 322l15 88
c-80 -79 -187 -133 -325 -133c-279 0 -463 224 -411 518c50 277 294 484 555 484c154 0 251 -63 307 -156zM525 188c169 0 329 140 355 311c26 155 -77 278 -230 278c-171 0 -328 -139 -356 -311c-24 -154 75 -278 231 -278z" />
    <glyph glyph-name="Gcommaaccent" unicode="&#x122;" horiz-adv-x="1634" 
d="M894 625l37 209h632l-145 -834h-183l-3 124c-133 -100 -288 -144 -430 -144c-446 0 -742 358 -662 805c75 429 479 771 909 771c224 0 429 -106 544 -261l-190 -139c-81 112 -217 172 -363 172c-320 0 -612 -252 -669 -577c-54 -307 136 -543 440 -543
c162 0 327 66 444 183l40 234h-401zM462 -550l280 459l169 -79l-336 -430z" />
    <glyph glyph-name="gcommaaccent" unicode="&#x123;" horiz-adv-x="1260" 
d="M704 1078c-87 0 -141 70 -124 158c1 10 7 28 13 46l245 431h126l-179 -369c48 -23 77 -80 65 -142c-12 -67 -78 -124 -146 -124zM956 963h229l-167 -953c-55 -311 -308 -510 -598 -510c-184 0 -358 94 -436 254l164 122c54 -112 156 -172 271 -172c177 0 340 136 373 322
l15 88c-80 -79 -187 -133 -325 -133c-279 0 -463 224 -411 518c50 277 294 484 555 484c154 0 251 -63 307 -156zM525 188c169 0 329 140 355 311c26 155 -77 278 -230 278c-171 0 -328 -139 -356 -311c-24 -154 75 -278 231 -278z" />
    <glyph glyph-name="Hbar" unicode="&#x126;" horiz-adv-x="1622" 
d="M1687 1265l-22 -123h-124l-201 -1142h-236l116 658h-754l-116 -658h-236l201 1142h-126l20 123h127l48 271h237l-48 -271h753l48 271h236l-48 -271h125zM1259 880l46 262h-754l-46 -262h754z" />
    <glyph glyph-name="hbar" unicode="&#x127;" horiz-adv-x="1113" 
d="M709 981c200 0 332 -165 298 -364l-109 -617h-228l105 595c19 117 -46 185 -140 185c-106 0 -197 -74 -226 -167l-108 -613h-228l206 1175h-138l26 148h138l37 213h229l-37 -213h278l-26 -148h-278l-51 -287c73 61 162 93 252 93z" />
    <glyph glyph-name="Itilde" unicode="&#x128;" horiz-adv-x="632" 
d="M669 1635c-103 0 -141 57 -170 108c-22 34 -38 56 -75 56c-69 0 -116 -77 -132 -162l-134 16c28 160 121 286 265 286c94 0 134 -55 166 -108c18 -29 38 -56 81 -56c64 0 109 62 126 162l133 -16c-30 -170 -123 -286 -260 -286zM114 0l270 1536h237l-271 -1536h-236z" />
    <glyph glyph-name="itilde" unicode="&#x129;" horiz-adv-x="541" 
d="M523 1062c-103 0 -141 57 -170 108c-22 34 -38 56 -75 56c-69 0 -116 -77 -132 -162l-134 16c28 160 121 286 265 286c94 0 134 -55 166 -108c18 -29 38 -56 81 -56c64 0 109 62 126 162l133 -16c-30 -170 -123 -286 -260 -286zM73 0l168 963h228l-168 -963h-228z" />
    <glyph glyph-name="Imacron" unicode="&#x12a;" horiz-adv-x="632" 
d="M219 1734l25 143h635l-25 -143h-635zM114 0l270 1536h237l-271 -1536h-236z" />
    <glyph glyph-name="imacron" unicode="&#x12b;" horiz-adv-x="541" 
d="M73 1161l25 143h635l-25 -143h-635zM73 0l168 963h228l-168 -963h-228z" />
    <glyph glyph-name="Iogonek" unicode="&#x12e;" horiz-adv-x="632" 
d="M115 -369c68 0 143 36 201 88l79 -139c-95 -82 -205 -112 -303 -106c-154 8 -237 104 -212 244c20 121 121 214 272 282h-38l270 1536h237l-271 -1536c-157 -63 -299 -159 -320 -278c-11 -66 25 -91 85 -91z" />
    <glyph glyph-name="iogonek" unicode="&#x12f;" horiz-adv-x="541" 
d="M412 1381c79 0 135 -65 120 -147c-10 -61 -70 -111 -134 -111c-76 0 -132 66 -120 144c13 65 73 114 134 114zM301 0c-157 -63 -299 -159 -320 -278c-11 -66 25 -91 85 -91c68 0 143 36 201 88l79 -139c-95 -82 -205 -112 -303 -106c-154 8 -237 104 -212 244
c20 121 121 214 272 282h-30l168 963h228z" />
    <glyph glyph-name="Idotaccent" unicode="&#x130;" horiz-adv-x="632" 
d="M544 1696c-76 0 -132 66 -120 144c13 65 73 114 134 114c79 0 135 -65 120 -147c-10 -61 -70 -111 -134 -111zM114 0l270 1536h237l-271 -1536h-236z" />
    <glyph glyph-name="dotlessi" unicode="&#x131;" horiz-adv-x="541" 
d="M73 0l168 963h228l-168 -963h-228z" />
    <glyph glyph-name="Kcommaaccent" unicode="&#x136;" horiz-adv-x="1389" 
d="M1533 1536l-787 -758l533 -778h-300l-498 740l-131 -740h-236l270 1536h237l-127 -720l733 720h306zM260 -550l280 459l169 -79l-336 -430z" />
    <glyph glyph-name="kcommaaccent" unicode="&#x137;" horiz-adv-x="1091" 
d="M1125 963l-495 -444l379 -519h-288l-337 473l-83 -473h-228l270 1536h228l-172 -981l429 408h297zM135 -550l280 459l169 -79l-336 -430z" />
    <glyph glyph-name="Lacute" unicode="&#x139;" horiz-adv-x="1012" 
d="M883 1938l-384 -292l-73 94l358 329zM390 221h544l-39 -221h-781l270 1536h237z" />
    <glyph glyph-name="lacute" unicode="&#x13a;" horiz-adv-x="544" 
d="M454 1646l-73 94l358 329l99 -131zM73 0l270 1536h228l-270 -1536h-228z" />
    <glyph glyph-name="Lcommaaccent" unicode="&#x13b;" horiz-adv-x="1012" 
d="M390 221h544l-39 -221h-781l270 1536h237zM170 -550l280 459l169 -79l-336 -430z" />
    <glyph glyph-name="lcommaaccent" unicode="&#x13c;" horiz-adv-x="544" 
d="M73 0l270 1536h228l-270 -1536h-228zM-35 -600l-113 50l280 459l169 -79z" />
    <glyph glyph-name="Lcaron" unicode="&#x13d;" horiz-adv-x="1012" 
d="M1022 1557c85 0 132 -52 132 -114c0 -33 -11 -67 -36 -98l-285 -377h-157l236 335c-36 22 -62 79 -42 147c25 59 93 107 152 107zM621 1536l-231 -1315h544l-39 -221h-781l270 1536h237z" />
    <glyph glyph-name="lcaron" unicode="&#x13e;" horiz-adv-x="629" 
d="M570 968l236 335c-36 22 -62 79 -42 147c25 59 93 107 152 107c85 0 132 -52 132 -114c0 -33 -11 -67 -36 -98l-285 -377h-157zM73 0l270 1536h228l-270 -1536h-228z" />
    <glyph glyph-name="Ldot" unicode="&#x13f;" horiz-adv-x="1024" 
d="M621 1536l-231 -1315h544l-39 -221h-781l270 1536h237zM849 1042c68 0 120 -62 108 -131c-10 -57 -65 -97 -118 -97c-68 0 -119 56 -106 130c10 52 63 98 116 98z" />
    <glyph glyph-name="ldot" unicode="&#x140;" horiz-adv-x="709" 
d="M73 0l270 1536h228l-270 -1536h-228zM667 694c-75 0 -131 62 -117 144c11 58 70 109 128 109c76 0 133 -69 120 -145c-11 -63 -72 -108 -131 -108z" />
    <glyph glyph-name="Lslash" unicode="&#x141;" horiz-adv-x="1012" 
d="M390 221h544l-39 -221h-781l97 553l-123 -81l29 180l126 83l141 801h237l-110 -625l323 212l-29 -181l-326 -213z" />
    <glyph glyph-name="lslash" unicode="&#x142;" horiz-adv-x="626" 
d="M658 973l-30 -169l-154 -95l-125 -709h-228l97 552l-170 -105l31 170l169 104l143 815h228l-116 -658z" />
    <glyph glyph-name="Nacute" unicode="&#x143;" horiz-adv-x="1577" 
d="M1333 1938l-384 -292l-73 94l358 329zM1354 1536h235l-270 -1536h-92l-716 1042l-183 -1042h-236l270 1536h91l718 -1040z" />
    <glyph glyph-name="nacute" unicode="&#x144;" horiz-adv-x="1113" 
d="M1038 1365l-384 -292l-73 94l358 329zM709 981c200 0 332 -165 298 -364l-109 -617h-228l105 595c19 117 -46 185 -140 185c-108 0 -201 -77 -228 -174l-106 -606h-228l168 963h228l-13 -75c73 61 163 93 253 93z" />
    <glyph glyph-name="Ncommaaccent" unicode="&#x145;" horiz-adv-x="1577" 
d="M1354 1536h235l-270 -1536h-92l-716 1042l-183 -1042h-236l270 1536h91l718 -1040zM347 -550l280 459l169 -79l-336 -430z" />
    <glyph glyph-name="ncommaaccent" unicode="&#x146;" horiz-adv-x="1113" 
d="M709 981c200 0 332 -165 298 -364l-109 -617h-228l105 595c19 117 -46 185 -140 185c-108 0 -201 -77 -228 -174l-106 -606h-228l168 963h228l-13 -75c73 61 163 93 253 93zM153 -550l280 459l169 -79l-336 -430z" />
    <glyph glyph-name="Ncaron" unicode="&#x147;" horiz-adv-x="1577" 
d="M1070 1686h-181l-169 298l109 63l168 -224l250 224l96 -63zM1354 1536h235l-270 -1536h-92l-716 1042l-183 -1042h-236l270 1536h91l718 -1040z" />
    <glyph glyph-name="ncaron" unicode="&#x148;" horiz-adv-x="1113" 
d="M775 1113h-181l-169 298l109 63l168 -224l250 224l96 -63zM709 981c200 0 332 -165 298 -364l-109 -617h-228l105 595c19 117 -46 185 -140 185c-108 0 -201 -77 -228 -174l-106 -606h-228l168 963h228l-13 -75c73 61 163 93 253 93z" />
    <glyph glyph-name="Eng" unicode="&#x14a;" horiz-adv-x="1733" 
d="M1721 1536l-270 -1536h-2l-11 -65c-44 -251 -147 -386 -446 -386h-58l19 158c141 -1 218 38 252 237l9 56l4 2l-663 1162l-205 -1164h-236l270 1536h232l665 -1161l205 1161h235z" />
    <glyph glyph-name="eng" unicode="&#x14b;" horiz-adv-x="1113" 
d="M458 -470l16 179c139 -2 161 97 196 291l105 595c19 117 -46 185 -140 185c-112 0 -207 -82 -230 -182l-104 -598h-228l168 963h228l-13 -77c73 62 164 95 253 95c200 0 332 -165 298 -364l-109 -617c-56 -346 -130 -471 -440 -470z" />
    <glyph glyph-name="Omacron" unicode="&#x14c;" horiz-adv-x="1746" 
d="M777 1734l25 143h635l-25 -143h-635zM800 -20c-444 0 -740 360 -662 805c75 427 481 771 909 771c445 0 741 -360 662 -805c-75 -427 -481 -771 -909 -771zM814 211c320 0 610 253 664 574c51 303 -140 540 -444 540c-319 0 -610 -253 -664 -574
c-51 -303 141 -540 444 -540z" />
    <glyph glyph-name="omacron" unicode="&#x14d;" horiz-adv-x="1148" 
d="M376 1160l25 143h635l-25 -143h-635zM501 -18c-295 0 -483 230 -433 516c47 269 299 483 579 483c292 0 481 -230 431 -516c-47 -269 -299 -483 -577 -483zM506 190c166 0 325 134 356 308c28 156 -71 275 -221 275c-169 0 -326 -134 -357 -308
c-29 -158 69 -275 222 -275z" />
    <glyph glyph-name="Ohungarumlaut" unicode="&#x150;" horiz-adv-x="1746" 
d="M854 1684l-87 112l387 306l94 -122zM1263 1684l-87 112l386 306l94 -122zM800 -20c-444 0 -740 360 -662 805c75 427 481 771 909 771c445 0 741 -360 662 -805c-75 -427 -481 -771 -909 -771zM814 211c320 0 610 253 664 574c51 303 -140 540 -444 540
c-319 0 -610 -253 -664 -574c-51 -303 141 -540 444 -540z" />
    <glyph glyph-name="ohungarumlaut" unicode="&#x151;" horiz-adv-x="1148" 
d="M453 1110l-87 112l387 306l94 -122zM862 1110l-87 112l386 306l94 -122zM501 -18c-295 0 -483 230 -433 516c47 269 299 483 579 483c292 0 481 -230 431 -516c-47 -269 -299 -483 -577 -483zM506 190c166 0 325 134 356 308c28 156 -71 275 -221 275
c-169 0 -326 -134 -357 -308c-29 -158 69 -275 222 -275z" />
    <glyph glyph-name="OE" unicode="&#x152;" horiz-adv-x="2408" 
d="M2453 1322h-644l-79 -447h559l-39 -214h-557l-79 -447h644l-37 -214h-836l42 242c-169 -161 -395 -262 -627 -262c-444 0 -740 360 -662 805c75 427 481 771 909 771c245 0 445 -109 562 -282l46 262h836zM825 208c318 0 616 256 668 577c49 302 -154 543 -457 543
c-320 0 -617 -256 -669 -577c-49 -302 153 -543 458 -543z" />
    <glyph glyph-name="oe" unicode="&#x153;" horiz-adv-x="1948" 
d="M1465 982c285 0 470 -210 424 -498l-9 -41h-779c-19 -164 76 -272 226 -272c115 0 225 60 295 152l177 -92c-109 -159 -281 -249 -473 -249c-175 0 -308 74 -382 190c-111 -116 -269 -190 -434 -190c-297 0 -493 230 -443 516c47 269 306 483 588 483
c168 0 303 -75 380 -191c108 117 263 192 430 192zM1465 796c-133 0 -249 -76 -313 -193h524c-14 119 -86 193 -211 193zM519 184c170 0 334 140 362 314c25 157 -79 281 -235 281c-174 0 -338 -140 -366 -315c-25 -157 79 -280 239 -280z" />
    <glyph glyph-name="Racute" unicode="&#x154;" horiz-adv-x="1419" 
d="M1224 1938l-384 -292l-73 94l358 329zM1038 1536c259 0 425 -206 380 -459c-35 -200 -196 -360 -394 -406l235 -671h-250l-226 658h-319l-114 -658h-236l270 1536h654zM1193 1101c22 129 -52 218 -194 218h-420l-79 -452h380c158 0 286 85 313 234z" />
    <glyph glyph-name="racute" unicode="&#x155;" horiz-adv-x="773" 
d="M516 1073l-73 94l358 329l99 -131zM702 982c69 0 116 -24 150 -49l-101 -187c-34 18 -67 27 -102 27c-120 0 -232 -108 -266 -305l-82 -468h-228l168 963h228l-28 -144c59 94 149 163 261 163z" />
    <glyph glyph-name="Rcommaaccent" unicode="&#x156;" horiz-adv-x="1419" 
d="M1038 1536c259 0 425 -206 380 -459c-35 -200 -196 -360 -394 -406l235 -671h-250l-226 658h-319l-114 -658h-236l270 1536h654zM1193 1101c22 129 -52 218 -194 218h-420l-79 -452h380c158 0 286 85 313 234zM238 -550l280 459l169 -79l-336 -430z" />
    <glyph glyph-name="rcommaaccent" unicode="&#x157;" horiz-adv-x="773" 
d="M702 982c69 0 116 -24 150 -49l-101 -187c-34 18 -67 27 -102 27c-120 0 -232 -108 -266 -305l-82 -468h-228l168 963h228l-28 -144c59 94 149 163 261 163zM-35 -600l-113 50l280 459l169 -79z" />
    <glyph glyph-name="Rcaron" unicode="&#x158;" horiz-adv-x="1419" 
d="M961 1686h-181l-169 298l109 63l168 -224l250 224l96 -63zM1038 1536c259 0 425 -206 380 -459c-35 -200 -196 -360 -394 -406l235 -671h-250l-226 658h-319l-114 -658h-236l270 1536h654zM1193 1101c22 129 -52 218 -194 218h-420l-79 -452h380c158 0 286 85 313 234z
" />
    <glyph glyph-name="rcaron" unicode="&#x159;" horiz-adv-x="773" 
d="M456 1113l-169 298l109 63l168 -224l250 224l96 -63l-273 -298h-181zM702 982c69 0 116 -24 150 -49l-101 -187c-34 18 -67 27 -102 27c-120 0 -232 -108 -266 -305l-82 -468h-228l168 963h228l-28 -144c59 94 149 163 261 163z" />
    <glyph glyph-name="Sacute" unicode="&#x15a;" horiz-adv-x="1164" 
d="M764 1646l-73 94l358 329l99 -131zM522 -20c-247 0 -426 129 -510 258l181 152c73 -132 177 -205 327 -205c166 0 299 94 324 240c26 148 -111 204 -266 278c-185 82 -386 175 -338 454c45 251 270 399 511 399c211 0 346 -99 436 -221l-158 -133
c-93 125 -183 153 -281 153c-131 0 -252 -79 -274 -212c-25 -137 96 -193 236 -256c203 -84 419 -177 364 -483c-49 -278 -296 -424 -552 -424z" />
    <glyph glyph-name="sacute" unicode="&#x15b;" horiz-adv-x="908" 
d="M529 1076l-73 94l358 329l99 -131zM382 -19c-183 0 -304 69 -384 129l125 156c60 -56 164 -102 261 -102c106 0 186 52 200 132c13 76 -75 87 -183 124c-139 36 -297 91 -262 288c32 184 214 274 406 274c133 0 248 -43 329 -103l-122 -142c-70 51 -159 73 -224 73
c-97 0 -168 -44 -180 -112c-14 -73 91 -88 195 -121c160 -39 290 -104 255 -298c-34 -193 -196 -298 -416 -298z" />
    <glyph glyph-name="Scedilla" unicode="&#x15e;" horiz-adv-x="1164" 
d="M710 887c203 -84 419 -177 364 -483c-48 -272 -286 -418 -536 -424l-84 -107c141 26 241 -68 218 -205c-21 -113 -124 -201 -238 -201c-107 0 -204 71 -226 152l110 26c18 -38 68 -60 106 -60c62 0 123 52 134 117c14 75 -57 97 -166 53l-92 60l118 173
c-193 30 -334 140 -406 250l181 152c73 -132 177 -205 327 -205c166 0 299 94 324 240c26 148 -111 204 -266 278c-185 82 -386 175 -338 454c45 251 270 399 511 399c211 0 346 -99 436 -221l-158 -133c-93 125 -183 153 -281 153c-131 0 -252 -79 -274 -212
c-25 -137 96 -193 236 -256z" />
    <glyph glyph-name="scedilla" unicode="&#x15f;" horiz-adv-x="908" 
d="M543 577c160 -39 290 -104 255 -298c-31 -176 -169 -279 -360 -296l-83 -106c141 26 241 -68 218 -205c-21 -113 -124 -201 -238 -201c-107 0 -204 71 -226 152l110 26c18 -38 68 -60 106 -60c62 0 123 52 134 117c14 75 -57 97 -166 53l-92 60l113 165
c-146 15 -246 74 -316 126l125 156c60 -56 164 -102 261 -102c106 0 186 52 200 132c13 76 -75 87 -183 124c-139 36 -297 91 -262 288c32 184 214 274 406 274c133 0 248 -43 329 -103l-122 -142c-70 51 -159 73 -224 73c-97 0 -168 -44 -180 -112c-14 -73 91 -88 195 -121
z" />
    <glyph glyph-name="Scaron" unicode="&#x160;" horiz-adv-x="1164" 
d="M704 1686l-169 298l109 63l168 -224l250 224l96 -63l-273 -298h-181zM522 -20c-247 0 -426 129 -510 258l181 152c73 -132 177 -205 327 -205c166 0 299 94 324 240c26 148 -111 204 -266 278c-185 82 -386 175 -338 454c45 251 270 399 511 399c211 0 346 -99 436 -221
l-158 -133c-93 125 -183 153 -281 153c-131 0 -252 -79 -274 -212c-25 -137 96 -193 236 -256c203 -84 419 -177 364 -483c-49 -278 -296 -424 -552 -424z" />
    <glyph glyph-name="scaron" unicode="&#x161;" horiz-adv-x="908" 
d="M469 1116l-169 298l109 63l168 -224l250 224l96 -63l-273 -298h-181zM382 -19c-183 0 -304 69 -384 129l125 156c60 -56 164 -102 261 -102c106 0 186 52 200 132c13 76 -75 87 -183 124c-139 36 -297 91 -262 288c32 184 214 274 406 274c133 0 248 -43 329 -103
l-122 -142c-70 51 -159 73 -224 73c-97 0 -168 -44 -180 -112c-14 -73 91 -88 195 -121c160 -39 290 -104 255 -298c-34 -193 -196 -298 -416 -298z" />
    <glyph glyph-name="uni0162" unicode="&#x162;" horiz-adv-x="1118" 
d="M593 0h-56l-99 -126c141 26 241 -68 218 -205c-21 -113 -124 -201 -238 -201c-107 0 -204 71 -226 152l110 26c18 -38 68 -60 106 -60c62 0 123 52 134 117c14 75 -57 97 -166 53l-92 60l125 184h-52l232 1315h-410l40 221h1053l-40 -221h-408z" />
    <glyph glyph-name="uni0163" unicode="&#x163;" horiz-adv-x="668" 
d="M365 0h-51l-99 -126c141 26 241 -68 218 -205c-21 -113 -124 -201 -238 -201c-107 0 -204 71 -226 152l110 26c18 -38 68 -60 106 -60c62 0 123 52 134 117c14 75 -57 97 -166 53l-92 60l125 184h-50l135 774h-192l32 189h193l61 346h230l-61 -346h190l-33 -189h-190z
" />
    <glyph glyph-name="Tcaron" unicode="&#x164;" horiz-adv-x="1118" 
d="M862 1686h-181l-169 298l109 63l168 -224l250 224l96 -63zM1272 1536l-40 -221h-408l-231 -1315h-236l232 1315h-410l40 221h1053z" />
    <glyph glyph-name="tcaron" unicode="&#x165;" horiz-adv-x="668" 
d="M978 1665c85 0 132 -52 132 -114c0 -33 -11 -67 -36 -98l-285 -377h-157l236 335c-36 22 -62 79 -42 147c25 59 93 107 152 107zM595 1309l-61 -346h190l-33 -189h-190l-136 -774h-229l135 774h-192l32 189h193l61 346h230z" />
    <glyph glyph-name="Tbar" unicode="&#x166;" horiz-adv-x="1118" 
d="M1232 1315h-408l-84 -480h201l-26 -148h-201l-121 -687h-236l121 687h-208l26 148h208l85 480h-410l40 221h1053z" />
    <glyph glyph-name="tbar" unicode="&#x167;" horiz-adv-x="668" 
d="M691 774h-190l-46 -262h141l-21 -148h-146l-64 -364h-229l64 364h-143l20 148h149l45 262h-192l32 189h193l61 346h230l-61 -346h190z" />
    <glyph glyph-name="Utilde" unicode="&#x168;" horiz-adv-x="1535" 
d="M1119 1635c-103 0 -141 57 -170 108c-22 34 -38 56 -75 56c-69 0 -116 -77 -132 -162l-134 16c28 160 121 286 265 286c94 0 134 -55 166 -108c18 -29 38 -56 81 -56c64 0 109 62 126 162l133 -16c-30 -170 -123 -286 -260 -286zM692 -20c-353 0 -578 229 -523 540
l180 1016h237l-176 -991c-36 -207 88 -344 290 -344c219 0 410 153 447 360l172 975h236l-183 -1032c-55 -311 -341 -524 -680 -524z" />
    <glyph glyph-name="utilde" unicode="&#x169;" horiz-adv-x="1073" 
d="M785 1062c-103 0 -141 57 -170 108c-22 34 -38 56 -75 56c-69 0 -116 -77 -132 -162l-134 16c28 160 121 286 265 286c94 0 134 -55 166 -108c18 -29 38 -56 81 -56c64 0 109 62 126 162l133 -16c-30 -170 -123 -286 -260 -286zM460 -19c-261 0 -392 154 -352 384
l105 598h228l-103 -593c-22 -123 33 -185 127 -185c111 0 207 78 229 201l100 577h228l-107 -614c-40 -230 -209 -368 -455 -368z" />
    <glyph glyph-name="Umacron" unicode="&#x16a;" horiz-adv-x="1535" 
d="M669 1734l25 143h635l-25 -143h-635zM692 -20c-353 0 -578 229 -523 540l180 1016h237l-176 -991c-36 -207 88 -344 290 -344c219 0 410 153 447 360l172 975h236l-183 -1032c-55 -311 -341 -524 -680 -524z" />
    <glyph glyph-name="umacron" unicode="&#x16b;" horiz-adv-x="1073" 
d="M335 1161l25 143h635l-25 -143h-635zM460 -19c-261 0 -392 154 -352 384l105 598h228l-103 -593c-22 -123 33 -185 127 -185c111 0 207 78 229 201l100 577h228l-107 -614c-40 -230 -209 -368 -455 -368z" />
    <glyph glyph-name="Uring" unicode="&#x16e;" horiz-adv-x="1535" 
d="M990 1667c-134 0 -226 112 -203 245c21 117 134 211 252 211c132 0 221 -110 198 -244c-20 -116 -131 -212 -247 -212zM987 1774c74 0 141 59 148 138c7 57 -35 107 -93 107c-76 0 -140 -66 -148 -140c-6 -62 33 -105 93 -105zM692 -20c-353 0 -578 229 -523 540
l180 1016h237l-176 -991c-36 -207 88 -344 290 -344c219 0 410 153 447 360l172 975h236l-183 -1032c-55 -311 -341 -524 -680 -524z" />
    <glyph glyph-name="uring" unicode="&#x16f;" horiz-adv-x="1073" 
d="M673 1113c-134 0 -226 112 -201 245c19 116 132 211 250 211c132 0 222 -111 199 -244c-21 -116 -131 -212 -248 -212zM670 1220c75 0 141 58 149 138c6 57 -34 107 -94 107c-74 0 -139 -66 -146 -140c-8 -63 31 -105 91 -105zM460 -19c-261 0 -392 154 -352 384l105 598
h228l-103 -593c-22 -123 33 -185 127 -185c111 0 207 78 229 201l100 577h228l-107 -614c-40 -230 -209 -368 -455 -368z" />
    <glyph glyph-name="Uhungarumlaut" unicode="&#x170;" horiz-adv-x="1535" 
d="M746 1684l-87 112l387 306l94 -122zM1155 1684l-87 112l386 306l94 -122zM692 -20c-353 0 -578 229 -523 540l180 1016h237l-176 -991c-36 -207 88 -344 290 -344c219 0 410 153 447 360l172 975h236l-183 -1032c-55 -311 -341 -524 -680 -524z" />
    <glyph glyph-name="uhungarumlaut" unicode="&#x171;" horiz-adv-x="1073" 
d="M412 1111l-87 112l387 306l94 -122zM821 1111l-87 112l386 306l94 -122zM460 -19c-261 0 -392 154 -352 384l105 598h228l-103 -593c-22 -123 33 -185 127 -185c111 0 207 78 229 201l100 577h228l-107 -614c-40 -230 -209 -368 -455 -368z" />
    <glyph glyph-name="Uogonek" unicode="&#x172;" horiz-adv-x="1535" 
d="M1319 1536h236l-183 -1032c-46 -262 -256 -454 -523 -508c-121 -61 -220 -143 -237 -241c-11 -66 25 -91 85 -91c68 0 143 36 201 88l79 -139c-95 -82 -205 -112 -303 -106c-154 8 -237 104 -212 244c16 93 79 170 176 231c-322 22 -521 243 -469 538l180 1016h237
l-176 -991c-36 -207 88 -344 290 -344c219 0 410 153 447 360z" />
    <glyph glyph-name="uogonek" unicode="&#x173;" horiz-adv-x="1073" 
d="M794 963h228l-107 -614c-35 -202 -170 -333 -369 -362c-144 -63 -269 -154 -289 -265c-11 -66 25 -91 85 -91c68 0 143 36 201 88l79 -139c-95 -82 -205 -112 -303 -106c-154 8 -237 104 -212 244c19 115 112 205 251 272c-192 36 -284 177 -250 375l105 598h228
l-103 -593c-22 -123 33 -185 127 -185c111 0 207 78 229 201z" />
    <glyph glyph-name="Wcircumflex" unicode="&#x174;" horiz-adv-x="2013" 
d="M1257 1869l-250 -224l-97 64l270 298h182l172 -298l-109 -64zM1948 1536h260l-873 -1536h-164l-140 610l-355 -610h-168l-326 1536h250l226 -1193l308 554l-147 639h240l71 -344l191 344h250l-379 -650l112 -544z" />
    <glyph glyph-name="wcircumflex" unicode="&#x175;" horiz-adv-x="1522" 
d="M909 1296l-250 -224l-97 64l270 298h182l172 -298l-109 -64zM1366 963h236l-512 -963h-177l-123 647l-354 -647h-176l-168 963h230l99 -646l351 646h143l122 -650z" />
    <glyph glyph-name="Ycircumflex" unicode="&#x176;" horiz-adv-x="1335" 
d="M916 1869l-250 -224l-97 64l270 298h182l172 -298l-109 -64zM1508 1536l-681 -813l-127 -723h-236l128 727l-393 809h274l272 -589l483 589h280z" />
    <glyph glyph-name="ycircumflex" unicode="&#x177;" horiz-adv-x="1035" 
d="M647 1296l-250 -224l-97 64l270 298h182l172 -298l-109 -64zM860 963h248l-839 -1455h-242l288 506l-222 949h248l136 -718z" />
    <glyph glyph-name="Ydieresis" unicode="&#x178;" horiz-adv-x="1335" 
d="M690 1648c-78 0 -134 66 -120 145c11 65 73 113 135 113c78 0 134 -64 120 -146c-12 -62 -73 -112 -135 -112zM1088 1648c-78 0 -134 66 -120 145c12 65 73 113 135 113c80 0 134 -64 120 -146c-12 -62 -71 -112 -135 -112zM1508 1536l-681 -813l-127 -723h-236l128 727
l-393 809h274l272 -589l483 589h280z" />
    <glyph glyph-name="Zacute" unicode="&#x179;" horiz-adv-x="1352" 
d="M1261 1938l-384 -292l-73 94l358 329zM1500 1536l-1 -23l-1108 -1292h839l-39 -221h-1247l2 31l1100 1284h-784l39 221h1199z" />
    <glyph glyph-name="zacute" unicode="&#x17a;" horiz-adv-x="966" 
d="M963 1365l-384 -292l-73 94l358 329zM997 963l-632 -774h488l-33 -189h-862l631 774h-461l33 189h836z" />
    <glyph glyph-name="Zdotaccent" unicode="&#x17b;" horiz-adv-x="1352" 
d="M923 1696c-76 0 -132 66 -120 144c13 65 73 114 134 114c79 0 135 -65 120 -147c-10 -61 -70 -111 -134 -111zM1500 1536l-1 -23l-1108 -1292h839l-39 -221h-1247l2 31l1100 1284h-784l39 221h1199z" />
    <glyph glyph-name="zdotaccent" unicode="&#x17c;" horiz-adv-x="966" 
d="M625 1123c-76 0 -132 66 -120 144c13 65 73 114 134 114c79 0 135 -65 120 -147c-10 -61 -70 -111 -134 -111zM997 963l-632 -774h488l-33 -189h-862l631 774h-461l33 189h836z" />
    <glyph glyph-name="Zcaron" unicode="&#x17d;" horiz-adv-x="1352" 
d="M998 1686h-181l-169 298l109 63l168 -224l250 224l96 -63zM1500 1536l-1 -23l-1108 -1292h839l-39 -221h-1247l2 31l1100 1284h-784l39 221h1199z" />
    <glyph glyph-name="zcaron" unicode="&#x17e;" horiz-adv-x="966" 
d="M700 1113h-181l-169 298l109 63l168 -224l250 224l96 -63zM997 963l-632 -774h488l-33 -189h-862l631 774h-461l33 189h836z" />
    <glyph glyph-name="florin" unicode="&#x192;" horiz-adv-x="1052" 
d="M836 1372c-105 0 -181 -74 -199 -187l-26 -161h279l-29 -194h-281l-214 -1342h-229l212 1342h-172l30 194h172l31 194c31 192 209 338 400 338c65 0 126 -17 150 -36l-22 -181c-26 23 -67 33 -102 33z" />
    <glyph glyph-name="Ohorn" unicode="&#x1a0;" horiz-adv-x="1746" 
d="M1784 1511h153l-22 -132c-33 -184 -134 -242 -224 -242h-12c43 -114 55 -246 30 -386c-75 -427 -481 -771 -909 -771c-444 0 -740 360 -662 805c75 427 481 771 909 771c269 0 484 -132 594 -334c74 9 116 76 123 140zM1478 785c51 303 -140 540 -444 540
c-319 0 -610 -253 -664 -574c-51 -303 141 -540 444 -540c320 0 610 253 664 574z" />
    <glyph glyph-name="ohorn" unicode="&#x1a1;" horiz-adv-x="1148" 
d="M1199 1026h153l-22 -132c-33 -184 -134 -242 -224 -242c-10 0 -20 1 -30 2c12 -59 14 -122 2 -189c-47 -269 -299 -483 -577 -483c-295 0 -483 230 -433 516c47 269 299 483 579 483c190 0 337 -98 402 -245c78 6 123 75 130 141zM862 498c28 156 -71 275 -221 275
c-169 0 -326 -134 -357 -308c-29 -158 69 -275 222 -275c166 0 325 134 356 308z" />
    <glyph glyph-name="Uhorn" unicode="&#x1af;" horiz-adv-x="1535" 
d="M1705 1672h153l-22 -132c-33 -184 -134 -242 -224 -242c-30 0 -63 6 -96 16l-144 -810c-55 -311 -341 -524 -680 -524c-353 0 -578 229 -523 540l180 1016h237l-176 -991c-36 -207 88 -344 290 -344c219 0 410 153 447 360l172 975h236l-27 -153c7 -1 13 -1 17 -1
c84 0 133 72 140 141z" />
    <glyph glyph-name="uhorn" unicode="&#x1b0;" horiz-adv-x="1073" 
d="M1158 962h153l-22 -132c-33 -184 -134 -242 -224 -242c-33 0 -69 7 -105 19l-45 -258c-40 -230 -209 -368 -455 -368c-261 0 -392 154 -352 384l105 598h228l-103 -593c-22 -123 33 -185 127 -185c111 0 207 78 229 201l100 577h228l-50 -288c11 -3 20 -3 26 -3
c84 0 133 72 140 141z" />
    <glyph glyph-name="uni01CD" unicode="&#x1cd;" horiz-adv-x="1372" 
d="M990 1686h-181l-169 298l109 63l168 -224l250 224l96 -63zM1028 0l-45 242h-678l-131 -242h-260l881 1536h149l342 -1536h-258zM417 449h528l-135 727z" />
    <glyph glyph-name="uni01CE" unicode="&#x1ce;" horiz-adv-x="1255" 
d="M786 1114h-181l-169 298l109 63l168 -224l250 224l96 -63zM954 963h229l-168 -963h-216l17 127c-86 -86 -201 -146 -348 -146c-262 0 -447 224 -396 518c49 276 295 484 541 484c155 0 258 -65 318 -159zM526 188c171 0 328 139 356 311c26 155 -76 278 -231 278
c-170 0 -328 -139 -356 -311c-25 -155 77 -278 231 -278z" />
    <glyph glyph-name="uni01CF" unicode="&#x1cf;" horiz-adv-x="632" 
d="M438 1686l-169 298l109 63l168 -224l250 224l96 -63l-273 -298h-181zM114 0l270 1536h237l-271 -1536h-236z" />
    <glyph glyph-name="uni01D0" unicode="&#x1d0;" horiz-adv-x="541" 
d="M292 1113l-169 298l109 63l168 -224l250 224l96 -63l-273 -298h-181zM73 0l168 963h228l-168 -963h-228z" />
    <glyph glyph-name="uni01D1" unicode="&#x1d1;" horiz-adv-x="1746" 
d="M996 1686l-169 298l109 63l168 -224l250 224l96 -63l-273 -298h-181zM800 -20c-444 0 -740 360 -662 805c75 427 481 771 909 771c445 0 741 -360 662 -805c-75 -427 -481 -771 -909 -771zM814 211c320 0 610 253 664 574c51 303 -140 540 -444 540
c-319 0 -610 -253 -664 -574c-51 -303 141 -540 444 -540z" />
    <glyph glyph-name="uni01D2" unicode="&#x1d2;" horiz-adv-x="1148" 
d="M595 1112l-169 298l109 63l168 -224l250 224l96 -63l-273 -298h-181zM501 -18c-295 0 -483 230 -433 516c47 269 299 483 579 483c292 0 481 -230 431 -516c-47 -269 -299 -483 -577 -483zM506 190c166 0 325 134 356 308c28 156 -71 275 -221 275
c-169 0 -326 -134 -357 -308c-29 -158 69 -275 222 -275z" />
    <glyph glyph-name="uni01D3" unicode="&#x1d3;" horiz-adv-x="1535" 
d="M888 1686l-169 298l109 63l168 -224l250 224l96 -63l-273 -298h-181zM692 -20c-353 0 -578 229 -523 540l180 1016h237l-176 -991c-36 -207 88 -344 290 -344c219 0 410 153 447 360l172 975h236l-183 -1032c-55 -311 -341 -524 -680 -524z" />
    <glyph glyph-name="uni01D4" unicode="&#x1d4;" horiz-adv-x="1073" 
d="M554 1113l-169 298l109 63l168 -224l250 224l96 -63l-273 -298h-181zM460 -19c-261 0 -392 154 -352 384l105 598h228l-103 -593c-22 -123 33 -185 127 -185c111 0 207 78 229 201l100 577h228l-107 -614c-40 -230 -209 -368 -455 -368z" />
    <glyph glyph-name="uni01D5" unicode="&#x1d5;" horiz-adv-x="1535" 
d="M735 2104l25 143h635l-25 -143h-635zM788 1648c-78 0 -134 66 -120 145c11 65 73 113 135 113c78 0 134 -64 120 -146c-12 -62 -73 -112 -135 -112zM1186 1648c-78 0 -134 66 -120 145c12 65 73 113 135 113c80 0 134 -64 120 -146c-12 -62 -71 -112 -135 -112zM692 -20
c-353 0 -578 229 -523 540l180 1016h237l-176 -991c-36 -207 88 -344 290 -344c219 0 410 153 447 360l172 975h236l-183 -1032c-55 -311 -341 -524 -680 -524z" />
    <glyph glyph-name="uni01D6" unicode="&#x1d6;" horiz-adv-x="1073" 
d="M411 1592l25 143h635l-25 -143h-635zM463 1136c-77 0 -133 66 -119 146c11 64 73 112 135 112c78 0 134 -64 119 -146c-11 -62 -72 -112 -135 -112zM862 1136c-78 0 -133 66 -119 146c10 64 71 112 134 112c79 0 133 -64 119 -146c-11 -62 -70 -112 -134 -112zM460 -19
c-261 0 -392 154 -352 384l105 598h228l-103 -593c-22 -123 33 -185 127 -185c111 0 207 78 229 201l100 577h228l-107 -614c-40 -230 -209 -368 -455 -368z" />
    <glyph glyph-name="uni01D7" unicode="&#x1d7;" horiz-adv-x="1535" 
d="M1014 2016l-73 94l358 329l99 -131zM788 1648c-78 0 -134 66 -120 145c11 65 73 113 135 113c78 0 134 -64 120 -146c-12 -62 -73 -112 -135 -112zM1186 1648c-78 0 -134 66 -120 145c12 65 73 113 135 113c80 0 134 -64 120 -146c-12 -62 -71 -112 -135 -112zM692 -20
c-353 0 -578 229 -523 540l180 1016h237l-176 -991c-36 -207 88 -344 290 -344c219 0 410 153 447 360l172 975h236l-183 -1032c-55 -311 -341 -524 -680 -524z" />
    <glyph glyph-name="uni01D8" unicode="&#x1d8;" horiz-adv-x="1073" 
d="M690 1504l-73 94l358 329l99 -131zM463 1136c-77 0 -133 66 -119 146c11 64 73 112 135 112c78 0 134 -64 119 -146c-11 -62 -72 -112 -135 -112zM862 1136c-78 0 -133 66 -119 146c10 64 71 112 134 112c79 0 133 -64 119 -146c-11 -62 -70 -112 -134 -112zM460 -19
c-261 0 -392 154 -352 384l105 598h228l-103 -593c-22 -123 33 -185 127 -185c111 0 207 78 229 201l100 577h228l-107 -614c-40 -230 -209 -368 -455 -368z" />
    <glyph glyph-name="uni01D9" unicode="&#x1d9;" horiz-adv-x="1535" 
d="M954 2056l-169 298l109 63l168 -224l250 224l96 -63l-273 -298h-181zM788 1648c-78 0 -134 66 -120 145c11 65 73 113 135 113c78 0 134 -64 120 -146c-12 -62 -73 -112 -135 -112zM1186 1648c-78 0 -134 66 -120 145c12 65 73 113 135 113c80 0 134 -64 120 -146
c-12 -62 -71 -112 -135 -112zM692 -20c-353 0 -578 229 -523 540l180 1016h237l-176 -991c-36 -207 88 -344 290 -344c219 0 410 153 447 360l172 975h236l-183 -1032c-55 -311 -341 -524 -680 -524z" />
    <glyph glyph-name="uni01DA" unicode="&#x1da;" horiz-adv-x="1073" 
d="M630 1544l-169 298l109 63l168 -224l250 224l96 -63l-273 -298h-181zM463 1136c-77 0 -133 66 -119 146c11 64 73 112 135 112c78 0 134 -64 119 -146c-11 -62 -72 -112 -135 -112zM862 1136c-78 0 -133 66 -119 146c10 64 71 112 134 112c79 0 133 -64 119 -146
c-11 -62 -70 -112 -134 -112zM460 -19c-261 0 -392 154 -352 384l105 598h228l-103 -593c-22 -123 33 -185 127 -185c111 0 207 78 229 201l100 577h228l-107 -614c-40 -230 -209 -368 -455 -368z" />
    <glyph glyph-name="uni01DB" unicode="&#x1db;" horiz-adv-x="1535" 
d="M1052 2019l-297 289l138 131l250 -330zM788 1648c-78 0 -134 66 -120 145c11 65 73 113 135 113c78 0 134 -64 120 -146c-12 -62 -73 -112 -135 -112zM1186 1648c-78 0 -134 66 -120 145c12 65 73 113 135 113c80 0 134 -64 120 -146c-12 -62 -71 -112 -135 -112z
M692 -20c-353 0 -578 229 -523 540l180 1016h237l-176 -991c-36 -207 88 -344 290 -344c219 0 410 153 447 360l172 975h236l-183 -1032c-55 -311 -341 -524 -680 -524z" />
    <glyph glyph-name="uni01DC" unicode="&#x1dc;" horiz-adv-x="1073" 
d="M728 1507l-297 289l138 131l250 -330zM463 1136c-77 0 -133 66 -119 146c11 64 73 112 135 112c78 0 134 -64 119 -146c-11 -62 -72 -112 -135 -112zM862 1136c-78 0 -133 66 -119 146c10 64 71 112 134 112c79 0 133 -64 119 -146c-11 -62 -70 -112 -134 -112zM460 -19
c-261 0 -392 154 -352 384l105 598h228l-103 -593c-22 -123 33 -185 127 -185c111 0 207 78 229 201l100 577h228l-107 -614c-40 -230 -209 -368 -455 -368z" />
    <glyph glyph-name="Scommaaccent" unicode="&#x218;" horiz-adv-x="1164" 
d="M522 -20c-247 0 -426 129 -510 258l181 152c73 -132 177 -205 327 -205c166 0 299 94 324 240c26 148 -111 204 -266 278c-185 82 -386 175 -338 454c45 251 270 399 511 399c211 0 346 -99 436 -221l-158 -133c-93 125 -183 153 -281 153c-131 0 -252 -79 -274 -212
c-25 -137 96 -193 236 -256c203 -84 419 -177 364 -483c-49 -278 -296 -424 -552 -424zM268 -601l-113 50l280 459l169 -79z" />
    <glyph glyph-name="scommaaccent" unicode="&#x219;" horiz-adv-x="908" 
d="M382 -19c-183 0 -304 69 -384 129l125 156c60 -56 164 -102 261 -102c106 0 186 52 200 132c13 76 -75 87 -183 124c-139 36 -297 91 -262 288c32 184 214 274 406 274c133 0 248 -43 329 -103l-122 -142c-70 51 -159 73 -224 73c-97 0 -168 -44 -180 -112
c-14 -73 91 -88 195 -121c160 -39 290 -104 255 -298c-34 -193 -196 -298 -416 -298zM169 -597l-113 50l280 459l169 -79z" />
    <glyph glyph-name="uni021A" unicode="&#x21a;" horiz-adv-x="1118" 
d="M1272 1536l-40 -221h-408l-231 -1315h-236l232 1315h-410l40 221h1053zM139 -550l280 459l169 -79l-336 -430z" />
    <glyph glyph-name="uni021B" unicode="&#x21b;" horiz-adv-x="668" 
d="M724 963l-33 -189h-190l-136 -774h-229l135 774h-192l32 189h193l61 346h230l-61 -346h190zM-84 -550l280 459l169 -79l-336 -430z" />
    <glyph glyph-name="uni0237" unicode="&#x237;" horiz-adv-x="546" 
d="M-19 -512l262 1475h228l-262 -1475h-228z" />
    <glyph glyph-name="circumflex" unicode="&#x2c6;" horiz-adv-x="743" 
d="M291 1174l-97 64l270 298h182l172 -298l-109 -64l-168 224z" />
    <glyph glyph-name="caron" unicode="&#x2c7;" horiz-adv-x="747" 
d="M405 1174l-169 298l109 63l168 -224l250 224l96 -63l-273 -298h-181z" />
    <glyph glyph-name="breve" unicode="&#x2d8;" horiz-adv-x="887" 
d="M581 1192c-212 0 -344 127 -306 344h153c-18 -131 32 -215 155 -215c143 0 221 100 240 215h153c-38 -233 -196 -344 -395 -344z" />
    <glyph glyph-name="dotaccent" unicode="&#x2d9;" horiz-adv-x="495" 
d="M389 1198c-76 0 -132 66 -120 144c13 65 73 114 134 114c79 0 135 -65 120 -147c-10 -61 -70 -111 -134 -111z" />
    <glyph glyph-name="ring" unicode="&#x2da;" horiz-adv-x="654" 
d="M455 1113c-134 0 -226 112 -201 245c19 116 132 211 250 211c132 0 222 -111 199 -244c-21 -116 -131 -212 -248 -212zM452 1220c75 0 141 58 149 138c6 57 -34 107 -94 107c-74 0 -139 -66 -146 -140c-8 -63 31 -105 91 -105z" />
    <glyph glyph-name="ogonek" unicode="&#x2db;" horiz-adv-x="655" 
d="M156 -529c-154 8 -237 104 -212 244c25 148 172 255 352 337l119 -55c-158 -63 -299 -159 -321 -278c-11 -66 25 -91 85 -91c68 0 143 36 201 88l80 -139c-95 -82 -206 -112 -304 -106z" />
    <glyph glyph-name="tilde" unicode="&#x2dc;" horiz-adv-x="949" 
d="M759 1242c-102 0 -153 60 -178 129c-24 28 -41 35 -60 35c-68 0 -116 -77 -132 -162l-140 16c30 167 127 286 261 286c100 0 155 -62 179 -129c18 -16 31 -35 63 -35c65 0 112 62 129 162l139 -16c-29 -164 -120 -286 -261 -286z" />
    <glyph glyph-name="hungarumlaut" unicode="&#x2dd;" horiz-adv-x="500" 
d="M242 1134l-73 94l358 329l99 -131z" />
    <glyph glyph-name="gravecomb" unicode="&#x300;" 
d="M2 1137l-297 289l138 131l250 -330z" />
    <glyph glyph-name="acutecomb" unicode="&#x301;" 
d="M-258 1134l-73 94l358 329l99 -131z" />
    <glyph glyph-name="uni0302" unicode="&#x302;" 
d="M-452 1174l-97 64l270 298h182l172 -298l-109 -64l-168 224z" />
    <glyph glyph-name="tildecomb" unicode="&#x303;" 
d="M-189 1242c-103 0 -141 57 -170 108c-22 34 -38 56 -75 56c-69 0 -116 -77 -132 -162l-134 16c28 160 121 286 265 286c94 0 134 -55 166 -108c18 -29 38 -56 81 -56c64 0 109 62 126 162l133 -16c-30 -170 -123 -286 -260 -286z" />
    <glyph glyph-name="uni0304" unicode="&#x304;" 
d="M-656 1222l25 143h635l-25 -143h-635z" />
    <glyph glyph-name="uni0306" unicode="&#x306;" 
d="M-308 1192c-211 0 -343 127 -305 330h153c-19 -117 32 -201 154 -201c144 0 222 100 240 201h154c-38 -219 -197 -330 -396 -330z" />
    <glyph glyph-name="uni0307" unicode="&#x307;" 
d="M-106 1198c-76 0 -132 66 -120 144c13 65 73 114 134 114c79 0 135 -65 120 -147c-10 -61 -70 -111 -134 -111z" />
    <glyph glyph-name="uni0308" unicode="&#x308;" 
d="M-517 1136c-77 0 -133 66 -119 146c11 64 73 112 135 112c78 0 134 -64 119 -146c-11 -62 -72 -112 -135 -112zM-118 1136c-78 0 -133 66 -119 146c10 64 71 112 134 112c79 0 133 -64 119 -146c-11 -62 -70 -112 -134 -112z" />
    <glyph glyph-name="hookabovecomb" unicode="&#x309;" 
d="M-276 1057l23 174c95 18 166 57 176 134c6 44 -22 75 -72 75c-44 0 -84 -18 -119 -45l-69 123c57 41 125 63 187 63c141 0 238 -100 214 -242c-15 -79 -71 -158 -186 -189l-24 -93h-130z" />
    <glyph glyph-name="uni030A" unicode="&#x30a;" 
d="M-199 1113c-134 0 -226 112 -201 245c19 116 132 211 250 211c132 0 222 -111 199 -244c-21 -116 -131 -212 -248 -212zM-202 1220c75 0 141 58 149 138c6 57 -34 107 -94 107c-74 0 -139 -66 -146 -140c-8 -63 31 -105 91 -105z" />
    <glyph glyph-name="uni030B" unicode="&#x30b;" 
d="M-669 1172l-87 112l387 306l94 -122zM-260 1172l-87 112l386 306l94 -122z" />
    <glyph glyph-name="uni030C" unicode="&#x30c;" 
d="M-342 1174l-169 298l109 63l168 -224l250 224l96 -63l-273 -298h-181z" />
    <glyph glyph-name="uni0312" unicode="&#x312;" 
d="M-68 1344c48 -23 77 -80 65 -142c-12 -67 -78 -124 -146 -124c-87 0 -141 70 -124 158c1 10 7 28 13 46l245 431h126z" />
    <glyph glyph-name="uni031B" unicode="&#x31b;" 
d="M-259 778c-67 0 -146 27 -211 73l62 36c37 -23 68 -25 82 -25c84 0 133 72 140 141l20 149h153l-22 -132c-33 -184 -134 -242 -224 -242z" />
    <glyph glyph-name="dotbelowcomb" unicode="&#x323;" 
d="M-408 -504c-78 0 -135 67 -121 148c12 63 74 115 137 115c79 0 135 -68 121 -148c-11 -64 -73 -115 -137 -115z" />
    <glyph glyph-name="uni0326" unicode="&#x326;" 
d="M-447 -295l-113 50l280 459l169 -79z" />
    <glyph glyph-name="uni0327" unicode="&#x327;" 
d="M-459 -532c-107 0 -204 71 -226 152l110 26c18 -38 68 -60 106 -60c62 0 123 52 134 117c14 75 -57 97 -166 53l-92 60l128 188h128l-102 -130c141 26 241 -68 218 -205c-21 -113 -124 -201 -238 -201z" />
    <glyph glyph-name="uni0328" unicode="&#x328;" 
d="M-500 -529c-154 8 -237 104 -212 244c25 148 171 255 382 324l88 -42c-157 -63 -299 -159 -320 -278c-11 -66 25 -91 85 -91c68 0 143 36 201 88l79 -139c-95 -82 -205 -112 -303 -106z" />
    <glyph glyph-name="uni0335" unicode="&#x335;" 
d="M-803 445l26 148h645l-26 -148h-645z" />
    <glyph glyph-name="uni0336" unicode="&#x336;" 
d="M-1643 471l21 123h1491l-22 -123h-1490z" />
    <glyph glyph-name="uni0337" unicode="&#x337;" 
d="M-702 228l28 174l693 456l-28 -175z" />
    <glyph glyph-name="uni0338" unicode="&#x338;" 
d="M-1229 -107l-123 79l1444 1657l120 -80z" />
    <glyph glyph-name="uni0394" unicode="&#x394;" horiz-adv-x="1539" 
d="M1080 1536l346 -1536h-1486l886 1536h254zM310 210h829l-225 1071z" />
    <glyph glyph-name="uni03A9" unicode="&#x3a9;" horiz-adv-x="1776" 
d="M22 0l33 194h292l10 18c-109 114 -204 343 -155 623c70 399 424 706 862 706c475 0 697 -354 630 -736c-44 -251 -207 -486 -366 -605l-6 -6h299l-34 -194h-635l18 148c199 100 409 325 464 645c51 290 -69 550 -372 550c-304 0 -557 -249 -617 -586
c-52 -296 69 -526 230 -615l-17 -142h-636z" />
    <glyph glyph-name="uni03BC" unicode="&#x3bc;" horiz-adv-x="1213" 
d="M912 963h226l-168 -963h-226l20 114c-83 -82 -191 -132 -302 -132c-83 0 -155 26 -211 71l-94 -534h-168l147 836l3 20l104 588h228l-101 -577c-21 -119 51 -205 163 -205c134 0 260 102 281 221z" />
    <glyph glyph-name="pi" unicode="&#x3c0;" horiz-adv-x="1280" 
d="M62 8c107 200 232 547 289 780c-118 -8 -177 -19 -236 -44l-13 164c58 35 159 55 334 55h900l-50 -183h-166l-88 -499c-25 -141 -33 -228 -26 -289l-198 15c-18 39 -12 140 10 274l89 499l-355 -7c-49 -221 -174 -610 -281 -781z" />
    <glyph glyph-name="Wgrave" unicode="&#x1e80;" horiz-adv-x="2013" 
d="M1320 1739l-91 -90l-297 289l138 131zM1948 1536h260l-873 -1536h-164l-140 610l-355 -610h-168l-326 1536h250l226 -1193l308 554l-147 639h240l71 -344l191 344h250l-379 -650l112 -544z" />
    <glyph glyph-name="wgrave" unicode="&#x1e81;" horiz-adv-x="1522" 
d="M972 1166l-91 -90l-297 289l138 131zM1366 963h236l-512 -963h-177l-123 647l-354 -647h-176l-168 963h230l99 -646l351 646h143l122 -650z" />
    <glyph glyph-name="Wacute" unicode="&#x1e82;" horiz-adv-x="2013" 
d="M1575 1938l-384 -292l-73 94l358 329zM1948 1536h260l-873 -1536h-164l-140 610l-355 -610h-168l-326 1536h250l226 -1193l308 554l-147 639h240l71 -344l191 344h250l-379 -650l112 -544z" />
    <glyph glyph-name="wacute" unicode="&#x1e83;" horiz-adv-x="1522" 
d="M1227 1365l-384 -292l-73 94l358 329zM1366 963h236l-512 -963h-177l-123 647l-354 -647h-176l-168 963h230l99 -646l351 646h143l122 -650z" />
    <glyph glyph-name="Wdieresis" unicode="&#x1e84;" horiz-adv-x="2013" 
d="M1031 1648c-78 0 -134 66 -120 145c11 65 73 113 135 113c78 0 134 -64 120 -146c-12 -62 -73 -112 -135 -112zM1429 1648c-78 0 -134 66 -120 145c12 65 73 113 135 113c80 0 134 -64 120 -146c-12 -62 -71 -112 -135 -112zM1948 1536h260l-873 -1536h-164l-140 610
l-355 -610h-168l-326 1536h250l226 -1193l308 554l-147 639h240l71 -344l191 344h250l-379 -650l112 -544z" />
    <glyph glyph-name="wdieresis" unicode="&#x1e85;" horiz-adv-x="1522" 
d="M692 1136c-77 0 -133 66 -119 146c11 64 73 112 135 112c78 0 134 -64 119 -146c-11 -62 -72 -112 -135 -112zM1091 1136c-78 0 -133 66 -119 146c10 64 71 112 134 112c79 0 133 -64 119 -146c-11 -62 -70 -112 -134 -112zM1366 963h236l-512 -963h-177l-123 647
l-354 -647h-176l-168 963h230l99 -646l351 646h143l122 -650z" />
    <glyph glyph-name="uni1EA0" unicode="&#x1ea0;" horiz-adv-x="1372" 
d="M1286 0h-258l-45 242h-678l-131 -242h-260l881 1536h149zM417 449h528l-135 727zM564 -130c79 0 135 -68 121 -148c-11 -64 -73 -115 -137 -115c-78 0 -135 67 -121 148c12 63 74 115 137 115z" />
    <glyph glyph-name="uni1EA1" unicode="&#x1ea1;" horiz-adv-x="1255" 
d="M954 963h229l-168 -963h-216l17 127c-86 -86 -201 -146 -348 -146c-262 0 -447 224 -396 518c49 276 295 484 541 484c155 0 258 -65 318 -159zM526 188c171 0 328 139 356 311c26 155 -76 278 -231 278c-170 0 -328 -139 -356 -311c-25 -155 77 -278 231 -278zM505 -130
c79 0 135 -68 121 -148c-11 -64 -73 -115 -137 -115c-78 0 -135 67 -121 148c12 63 74 115 137 115z" />
    <glyph glyph-name="uni1EA2" unicode="&#x1ea2;" horiz-adv-x="1372" 
d="M950 2013c-44 0 -84 -18 -119 -45l-69 123c57 41 125 63 187 63c141 0 238 -100 214 -242c-15 -79 -71 -158 -186 -189l-24 -93h-130l23 174c95 18 166 57 176 134c6 44 -22 75 -72 75zM1028 0l-45 242h-678l-131 -242h-260l881 1536h149l342 -1536h-258zM417 449h528
l-135 727z" />
    <glyph glyph-name="uni1EA3" unicode="&#x1ea3;" horiz-adv-x="1255" 
d="M746 1441c-44 0 -84 -18 -119 -45l-69 123c57 41 125 63 187 63c141 0 238 -100 214 -242c-15 -79 -71 -158 -186 -189l-24 -93h-130l23 174c95 18 166 57 176 134c6 44 -22 75 -72 75zM954 963h229l-168 -963h-216l17 127c-86 -86 -201 -146 -348 -146
c-262 0 -447 224 -396 518c49 276 295 484 541 484c155 0 258 -65 318 -159zM526 188c171 0 328 139 356 311c26 155 -76 278 -231 278c-170 0 -328 -139 -356 -311c-25 -155 77 -278 231 -278z" />
    <glyph glyph-name="uni1EA4" unicode="&#x1ea4;" horiz-adv-x="1372" 
d="M1333 2409l-384 -292l-74 94l359 329zM935 1869l-250 -224l-97 64l270 298h182l172 -298l-109 -64zM795 1536h149l342 -1536h-258l-45 242h-678l-131 -242h-260zM417 449h528l-135 727z" />
    <glyph glyph-name="uni1EA5" unicode="&#x1ea5;" horiz-adv-x="1255" 
d="M1129 1837l-384 -292l-74 94l359 329zM731 1297l-250 -224l-97 64l270 298h182l172 -298l-109 -64zM954 963h229l-168 -963h-216l17 127c-86 -86 -201 -146 -348 -146c-262 0 -447 224 -396 518c49 276 295 484 541 484c155 0 258 -65 318 -159zM526 188
c171 0 328 139 356 311c26 155 -76 278 -231 278c-170 0 -328 -139 -356 -311c-25 -155 77 -278 231 -278z" />
    <glyph glyph-name="uni1EA6" unicode="&#x1ea6;" horiz-adv-x="1372" 
d="M1078 2210l-92 -90l-295 289l137 131zM936 1869l-251 -224l-97 64l271 298h181l172 -298l-109 -64zM1028 0l-45 242h-678l-131 -242h-260l881 1536h149l342 -1536h-258zM417 449h528l-135 727z" />
    <glyph glyph-name="uni1EA7" unicode="&#x1ea7;" horiz-adv-x="1255" 
d="M874 1638l-92 -90l-295 289l137 131zM732 1297l-251 -224l-97 64l271 298h181l172 -298l-109 -64zM954 963h229l-168 -963h-216l17 127c-86 -86 -201 -146 -348 -146c-262 0 -447 224 -396 518c49 276 295 484 541 484c155 0 258 -65 318 -159zM526 188
c171 0 328 139 356 311c26 155 -76 278 -231 278c-170 0 -328 -139 -356 -311c-25 -155 77 -278 231 -278z" />
    <glyph glyph-name="uni1EA8" unicode="&#x1ea8;" horiz-adv-x="1372" 
d="M1037 2488c-47 0 -88 -20 -123 -48l-71 123c56 40 127 62 188 62c141 0 237 -100 212 -241c-13 -80 -70 -158 -186 -189l-23 -94h-130l22 175c96 17 164 64 176 140c8 41 -12 72 -65 72zM936 1869l-251 -224l-97 64l271 298h181l172 -298l-109 -64zM1028 0l-45 242h-678
l-131 -242h-260l881 1536h149l342 -1536h-258zM417 449h528l-135 727z" />
    <glyph glyph-name="uni1EA9" unicode="&#x1ea9;" horiz-adv-x="1255" 
d="M833 1916c-47 0 -88 -20 -123 -48l-71 123c56 40 127 62 188 62c141 0 237 -100 212 -241c-13 -80 -70 -158 -186 -189l-23 -94h-130l22 175c96 17 164 64 176 140c8 41 -12 72 -65 72zM732 1297l-251 -224l-97 64l271 298h181l172 -298l-109 -64zM954 963h229l-168 -963
h-216l17 127c-86 -86 -201 -146 -348 -146c-262 0 -447 224 -396 518c49 276 295 484 541 484c155 0 258 -65 318 -159zM526 188c171 0 328 139 356 311c26 155 -76 278 -231 278c-170 0 -328 -139 -356 -311c-25 -155 77 -278 231 -278z" />
    <glyph glyph-name="uni1EAA" unicode="&#x1eaa;" horiz-adv-x="1372" 
d="M884 2270c-68 0 -118 -76 -132 -162l-140 16c28 168 125 286 259 286c100 0 155 -62 181 -129c16 -16 30 -35 61 -35c65 0 112 62 130 162l139 -16c-28 -164 -121 -286 -262 -286c-102 0 -153 60 -178 129c-22 28 -39 35 -58 35zM936 1869l-251 -224l-96 64l270 298h182
l171 -298l-108 -64zM795 1536h149l342 -1536h-258l-45 242h-678l-131 -242h-260zM417 449h528l-135 727z" />
    <glyph glyph-name="uni1EAB" unicode="&#x1eab;" horiz-adv-x="1255" 
d="M680 1698c-68 0 -118 -76 -132 -162l-140 16c28 168 125 286 259 286c100 0 155 -62 181 -129c16 -16 30 -35 61 -35c65 0 112 62 130 162l139 -16c-28 -164 -121 -286 -262 -286c-102 0 -153 60 -178 129c-22 28 -39 35 -58 35zM732 1297l-251 -224l-96 64l270 298h182
l171 -298l-108 -64zM954 963h229l-168 -963h-216l17 127c-86 -86 -201 -146 -348 -146c-262 0 -447 224 -396 518c49 276 295 484 541 484c155 0 258 -65 318 -159zM526 188c171 0 328 139 356 311c26 155 -76 278 -231 278c-170 0 -328 -139 -356 -311
c-25 -155 77 -278 231 -278z" />
    <glyph glyph-name="uni1EAC" unicode="&#x1eac;" horiz-adv-x="1372" 
d="M935 1869l-250 -224l-97 64l270 298h182l172 -298l-109 -64zM1286 0h-258l-45 242h-678l-131 -242h-260l881 1536h149zM417 449h528l-135 727zM564 -130c79 0 135 -68 121 -148c-11 -64 -73 -115 -137 -115c-78 0 -135 67 -121 148c12 63 74 115 137 115z" />
    <glyph glyph-name="uni1EAD" unicode="&#x1ead;" horiz-adv-x="1255" 
d="M731 1297l-250 -224l-97 64l270 298h182l172 -298l-109 -64zM954 963h229l-168 -963h-216l17 127c-86 -86 -201 -146 -348 -146c-262 0 -447 224 -396 518c49 276 295 484 541 484c155 0 258 -65 318 -159zM526 188c171 0 328 139 356 311c26 155 -76 278 -231 278
c-170 0 -328 -139 -356 -311c-25 -155 77 -278 231 -278zM505 -130c79 0 135 -68 121 -148c-11 -64 -73 -115 -137 -115c-78 0 -135 67 -121 148c12 63 74 115 137 115z" />
    <glyph glyph-name="uni1EAE" unicode="&#x1eae;" horiz-adv-x="1372" 
d="M1337 2409l-384 -292l-73 94l358 329zM917 1833c144 0 222 100 240 201h154c-38 -219 -197 -330 -396 -330c-211 0 -343 127 -305 330h153c-19 -117 32 -201 154 -201zM795 1536h149l342 -1536h-258l-45 242h-678l-131 -242h-260zM417 449h528l-135 727z" />
    <glyph glyph-name="uni1EAF" unicode="&#x1eaf;" horiz-adv-x="1255" 
d="M1133 1837l-384 -292l-73 94l358 329zM711 1132c-211 0 -343 127 -305 330h153c-19 -117 32 -201 154 -201c144 0 222 100 240 201h154c-38 -219 -197 -330 -396 -330zM954 963h229l-168 -963h-216l17 127c-86 -86 -201 -146 -348 -146c-262 0 -447 224 -396 518
c49 276 295 484 541 484c155 0 258 -65 318 -159zM526 188c171 0 328 139 356 311c26 155 -76 278 -231 278c-170 0 -328 -139 -356 -311c-25 -155 77 -278 231 -278z" />
    <glyph glyph-name="uni1EB0" unicode="&#x1eb0;" horiz-adv-x="1372" 
d="M1082 2210l-91 -90l-297 289l138 131zM915 1704c-211 0 -343 127 -305 330h153c-19 -117 32 -201 154 -201c144 0 222 100 240 201h154c-38 -219 -197 -330 -396 -330zM795 1536h149l342 -1536h-258l-45 242h-678l-131 -242h-260zM417 449h528l-135 727z" />
    <glyph glyph-name="uni1EB1" unicode="&#x1eb1;" horiz-adv-x="1255" 
d="M878 1638l-91 -90l-297 289l138 131zM711 1132c-211 0 -343 127 -305 330h153c-19 -117 32 -201 154 -201c144 0 222 100 240 201h154c-38 -219 -197 -330 -396 -330zM954 963h229l-168 -963h-216l17 127c-86 -86 -201 -146 -348 -146c-262 0 -447 224 -396 518
c49 276 295 484 541 484c155 0 258 -65 318 -159zM526 188c171 0 328 139 356 311c26 155 -76 278 -231 278c-170 0 -328 -139 -356 -311c-25 -155 77 -278 231 -278z" />
    <glyph glyph-name="uni1EB2" unicode="&#x1eb2;" horiz-adv-x="1372" 
d="M1034 2484c-44 0 -84 -18 -119 -45l-69 123c57 41 125 63 187 63c141 0 238 -100 214 -242c-15 -79 -71 -158 -186 -189l-24 -93h-130l23 174c95 18 166 57 176 134c6 44 -22 75 -72 75zM915 1704c-211 0 -343 127 -305 330h153c-19 -117 32 -201 154 -201
c144 0 222 100 240 201h154c-38 -219 -197 -330 -396 -330zM795 1536h149l342 -1536h-258l-45 242h-678l-131 -242h-260zM417 449h528l-135 727z" />
    <glyph glyph-name="uni1EB3" unicode="&#x1eb3;" horiz-adv-x="1255" 
d="M830 1912c-44 0 -84 -18 -119 -45l-69 123c57 41 125 63 187 63c141 0 238 -100 214 -242c-15 -79 -71 -158 -186 -189l-24 -93h-130l23 174c95 18 166 57 176 134c6 44 -22 75 -72 75zM711 1132c-211 0 -343 127 -305 330h153c-19 -117 32 -201 154 -201
c144 0 222 100 240 201h154c-38 -219 -197 -330 -396 -330zM954 963h229l-168 -963h-216l17 127c-86 -86 -201 -146 -348 -146c-262 0 -447 224 -396 518c49 276 295 484 541 484c155 0 258 -65 318 -159zM526 188c171 0 328 139 356 311c26 155 -76 278 -231 278
c-170 0 -328 -139 -356 -311c-25 -155 77 -278 231 -278z" />
    <glyph glyph-name="uni1EB4" unicode="&#x1eb4;" horiz-adv-x="1372" 
d="M879 2270c-69 0 -116 -77 -132 -162l-134 16c28 160 121 286 265 286c94 0 134 -55 166 -108c18 -29 38 -56 81 -56c64 0 109 62 126 162l133 -16c-30 -170 -123 -286 -260 -286c-103 0 -141 57 -170 108c-22 34 -38 56 -75 56zM917 1833c144 0 222 100 240 201h154
c-38 -219 -197 -330 -396 -330c-211 0 -343 127 -305 330h153c-19 -117 32 -201 154 -201zM795 1536h149l342 -1536h-258l-45 242h-678l-131 -242h-260zM417 449h528l-135 727z" />
    <glyph glyph-name="uni1EB5" unicode="&#x1eb5;" horiz-adv-x="1255" 
d="M675 1698c-69 0 -116 -77 -132 -162l-134 16c28 160 121 286 265 286c94 0 134 -55 166 -108c18 -29 38 -56 81 -56c64 0 109 62 126 162l133 -16c-30 -170 -123 -286 -260 -286c-103 0 -141 57 -170 108c-22 34 -38 56 -75 56zM711 1132c-211 0 -343 127 -305 330h153
c-19 -117 32 -201 154 -201c144 0 222 100 240 201h154c-38 -219 -197 -330 -396 -330zM954 963h229l-168 -963h-216l17 127c-86 -86 -201 -146 -348 -146c-262 0 -447 224 -396 518c49 276 295 484 541 484c155 0 258 -65 318 -159zM526 188c171 0 328 139 356 311
c26 155 -76 278 -231 278c-170 0 -328 -139 -356 -311c-25 -155 77 -278 231 -278z" />
    <glyph glyph-name="uni1EB6" unicode="&#x1eb6;" horiz-adv-x="1372" 
d="M915 1704c-211 0 -343 127 -305 330h153c-19 -117 32 -201 154 -201c144 0 222 100 240 201h154c-38 -219 -197 -330 -396 -330zM795 1536h149l342 -1536h-258l-45 242h-678l-131 -242h-260zM417 449h528l-135 727zM564 -130c79 0 135 -68 121 -148
c-11 -64 -73 -115 -137 -115c-78 0 -135 67 -121 148c12 63 74 115 137 115z" />
    <glyph glyph-name="uni1EB7" unicode="&#x1eb7;" horiz-adv-x="1255" 
d="M711 1132c-211 0 -343 127 -305 330h153c-19 -117 32 -201 154 -201c144 0 222 100 240 201h154c-38 -219 -197 -330 -396 -330zM954 963h229l-168 -963h-216l17 127c-86 -86 -201 -146 -348 -146c-262 0 -447 224 -396 518c49 276 295 484 541 484
c155 0 258 -65 318 -159zM526 188c171 0 328 139 356 311c26 155 -76 278 -231 278c-170 0 -328 -139 -356 -311c-25 -155 77 -278 231 -278zM505 -130c79 0 135 -68 121 -148c-11 -64 -73 -115 -137 -115c-78 0 -135 67 -121 148c12 63 74 115 137 115z" />
    <glyph glyph-name="uni1EB8" unicode="&#x1eb8;" horiz-adv-x="1187" 
d="M1232 1319h-651l-78 -442h566l-40 -218h-564l-78 -442h651l-37 -217h-887l270 1536h887zM519 -130c79 0 135 -68 121 -148c-11 -64 -73 -115 -137 -115c-78 0 -135 67 -121 148c12 63 74 115 137 115z" />
    <glyph glyph-name="uni1EB9" unicode="&#x1eb9;" horiz-adv-x="1130" 
d="M647 982c285 0 475 -210 424 -498l-6 -41h-782c-19 -164 76 -272 226 -272c111 0 219 57 290 145l180 -86c-108 -158 -280 -248 -471 -248c-308 0 -488 230 -438 515c47 270 295 485 577 485zM647 796c-133 0 -249 -76 -314 -193h526c-14 111 -90 193 -212 193zM469 -131
c79 0 135 -68 121 -148c-11 -64 -73 -115 -137 -115c-78 0 -135 67 -121 148c12 63 74 115 137 115z" />
    <glyph glyph-name="uni1EBA" unicode="&#x1eba;" horiz-adv-x="1187" 
d="M906 2013c-44 0 -84 -18 -119 -45l-69 123c57 41 125 63 187 63c141 0 238 -100 214 -242c-15 -79 -71 -158 -186 -189l-24 -93h-130l23 174c95 18 166 57 176 134c6 44 -22 75 -72 75zM1232 1319h-651l-78 -442h566l-40 -218h-564l-78 -442h651l-37 -217h-887l270 1536
h887z" />
    <glyph glyph-name="uni1EBB" unicode="&#x1ebb;" horiz-adv-x="1130" 
d="M748 1447c-44 0 -84 -18 -119 -45l-69 123c57 41 125 63 187 63c141 0 238 -100 214 -242c-15 -79 -71 -158 -186 -189l-24 -93h-130l23 174c95 18 166 57 176 134c6 44 -22 75 -72 75zM647 982c285 0 475 -210 424 -498l-6 -41h-782c-19 -164 76 -272 226 -272
c111 0 219 57 290 145l180 -86c-108 -158 -280 -248 -471 -248c-308 0 -488 230 -438 515c47 270 295 485 577 485zM647 796c-133 0 -249 -76 -314 -193h526c-14 111 -90 193 -212 193z" />
    <glyph glyph-name="uni1EBC" unicode="&#x1ebc;" horiz-adv-x="1187" 
d="M751 1799c-69 0 -116 -77 -132 -162l-134 16c28 160 121 286 265 286c94 0 134 -55 166 -108c18 -29 38 -56 81 -56c64 0 109 62 126 162l133 -16c-30 -170 -123 -286 -260 -286c-103 0 -141 57 -170 108c-22 34 -38 56 -75 56zM1232 1319h-651l-78 -442h566l-40 -218
h-564l-78 -442h651l-37 -217h-887l270 1536h887z" />
    <glyph glyph-name="uni1EBD" unicode="&#x1ebd;" horiz-adv-x="1130" 
d="M593 1233c-69 0 -116 -77 -132 -162l-134 16c28 160 121 286 265 286c94 0 134 -55 166 -108c18 -29 38 -56 81 -56c64 0 109 62 126 162l133 -16c-30 -170 -123 -286 -260 -286c-103 0 -141 57 -170 108c-22 34 -38 56 -75 56zM647 982c285 0 475 -210 424 -498l-6 -41
h-782c-19 -164 76 -272 226 -272c111 0 219 57 290 145l180 -86c-108 -158 -280 -248 -471 -248c-308 0 -488 230 -438 515c47 270 295 485 577 485zM647 796c-133 0 -249 -76 -314 -193h526c-14 111 -90 193 -212 193z" />
    <glyph glyph-name="uni1EBE" unicode="&#x1ebe;" horiz-adv-x="1187" 
d="M1289 2409l-384 -292l-74 94l359 329zM891 1869l-250 -224l-97 64l270 298h182l172 -298l-109 -64zM114 0l270 1536h887l-39 -217h-651l-78 -442h566l-40 -218h-564l-78 -442h651l-37 -217h-887z" />
    <glyph glyph-name="uni1EBF" unicode="&#x1ebf;" horiz-adv-x="1130" 
d="M1131 1843l-384 -292l-74 94l359 329zM733 1303l-250 -224l-97 64l270 298h182l172 -298l-109 -64zM647 982c285 0 475 -210 424 -498l-6 -41h-782c-19 -164 76 -272 226 -272c111 0 219 57 290 145l180 -86c-108 -158 -280 -248 -471 -248c-308 0 -488 230 -438 515
c47 270 295 485 577 485zM647 796c-133 0 -249 -76 -314 -193h526c-14 111 -90 193 -212 193z" />
    <glyph glyph-name="uni1EC0" unicode="&#x1ec0;" horiz-adv-x="1187" 
d="M1034 2210l-92 -90l-295 289l137 131zM892 1869l-251 -224l-97 64l271 298h181l172 -298l-109 -64zM1232 1319h-651l-78 -442h566l-40 -218h-564l-78 -442h651l-37 -217h-887l270 1536h887z" />
    <glyph glyph-name="uni1EC1" unicode="&#x1ec1;" horiz-adv-x="1130" 
d="M876 1644l-92 -90l-295 289l137 131zM734 1303l-251 -224l-97 64l271 298h181l172 -298l-109 -64zM647 982c285 0 475 -210 424 -498l-6 -41h-782c-19 -164 76 -272 226 -272c111 0 219 57 290 145l180 -86c-108 -158 -280 -248 -471 -248c-308 0 -488 230 -438 515
c47 270 295 485 577 485zM647 796c-133 0 -249 -76 -314 -193h526c-14 111 -90 193 -212 193z" />
    <glyph glyph-name="uni1EC2" unicode="&#x1ec2;" horiz-adv-x="1187" 
d="M993 2488c-47 0 -88 -20 -123 -48l-71 123c56 40 127 62 188 62c141 0 237 -100 212 -241c-13 -80 -70 -158 -186 -189l-23 -94h-130l22 175c96 17 164 64 176 140c8 41 -12 72 -65 72zM892 1869l-251 -224l-97 64l271 298h181l172 -298l-109 -64zM1232 1319h-651
l-78 -442h566l-40 -218h-564l-78 -442h651l-37 -217h-887l270 1536h887z" />
    <glyph glyph-name="uni1EC3" unicode="&#x1ec3;" horiz-adv-x="1130" 
d="M835 1922c-47 0 -88 -20 -123 -48l-71 123c56 40 127 62 188 62c141 0 237 -100 212 -241c-13 -80 -70 -158 -186 -189l-23 -94h-130l22 175c96 17 164 64 176 140c8 41 -12 72 -65 72zM734 1303l-251 -224l-97 64l271 298h181l172 -298l-109 -64zM647 982
c285 0 475 -210 424 -498l-6 -41h-782c-19 -164 76 -272 226 -272c111 0 219 57 290 145l180 -86c-108 -158 -280 -248 -471 -248c-308 0 -488 230 -438 515c47 270 295 485 577 485zM647 796c-133 0 -249 -76 -314 -193h526c-14 111 -90 193 -212 193z" />
    <glyph glyph-name="uni1EC4" unicode="&#x1ec4;" horiz-adv-x="1187" 
d="M840 2270c-68 0 -118 -76 -132 -162l-140 16c28 168 125 286 259 286c100 0 155 -62 181 -129c16 -16 30 -35 61 -35c65 0 112 62 130 162l139 -16c-28 -164 -121 -286 -262 -286c-102 0 -153 60 -178 129c-22 28 -39 35 -58 35zM892 1869l-251 -224l-96 64l270 298h182
l171 -298l-108 -64zM114 0l270 1536h887l-39 -217h-651l-78 -442h566l-40 -218h-564l-78 -442h651l-37 -217h-887z" />
    <glyph glyph-name="uni1EC5" unicode="&#x1ec5;" horiz-adv-x="1130" 
d="M682 1704c-68 0 -118 -76 -132 -162l-140 16c28 168 125 286 259 286c100 0 155 -62 181 -129c16 -16 30 -35 61 -35c65 0 112 62 130 162l139 -16c-28 -164 -121 -286 -262 -286c-102 0 -153 60 -178 129c-22 28 -39 35 -58 35zM734 1303l-251 -224l-96 64l270 298h182
l171 -298l-108 -64zM647 982c285 0 475 -210 424 -498l-6 -41h-782c-19 -164 76 -272 226 -272c111 0 219 57 290 145l180 -86c-108 -158 -280 -248 -471 -248c-308 0 -488 230 -438 515c47 270 295 485 577 485zM647 796c-133 0 -249 -76 -314 -193h526
c-14 111 -90 193 -212 193z" />
    <glyph glyph-name="uni1EC6" unicode="&#x1ec6;" horiz-adv-x="1187" 
d="M891 1869l-250 -224l-97 64l270 298h182l172 -298l-109 -64zM1232 1319h-651l-78 -442h566l-40 -218h-564l-78 -442h651l-37 -217h-887l270 1536h887zM519 -130c79 0 135 -68 121 -148c-11 -64 -73 -115 -137 -115c-78 0 -135 67 -121 148c12 63 74 115 137 115z" />
    <glyph glyph-name="uni1EC7" unicode="&#x1ec7;" horiz-adv-x="1130" 
d="M733 1303l-250 -224l-97 64l270 298h182l172 -298l-109 -64zM647 982c285 0 475 -210 424 -498l-6 -41h-782c-19 -164 76 -272 226 -272c111 0 219 57 290 145l180 -86c-108 -158 -280 -248 -471 -248c-308 0 -488 230 -438 515c47 270 295 485 577 485zM647 796
c-133 0 -249 -76 -314 -193h526c-14 111 -90 193 -212 193zM469 -131c79 0 135 -68 121 -148c-11 -64 -73 -115 -137 -115c-78 0 -135 67 -121 148c12 63 74 115 137 115z" />
    <glyph glyph-name="uni1EC8" unicode="&#x1ec8;" horiz-adv-x="632" 
d="M452 1630l23 174c95 18 166 57 176 134c6 44 -22 75 -72 75c-44 0 -84 -18 -119 -45l-69 123c57 41 125 63 187 63c141 0 238 -100 214 -242c-15 -79 -71 -158 -186 -189l-24 -93h-130zM114 0l270 1536h237l-271 -1536h-236z" />
    <glyph glyph-name="uni1EC9" unicode="&#x1ec9;" horiz-adv-x="541" 
d="M306 1057l23 174c95 18 166 57 176 134c6 44 -22 75 -72 75c-44 0 -84 -18 -119 -45l-69 123c57 41 125 63 187 63c141 0 238 -100 214 -242c-15 -79 -71 -158 -186 -189l-24 -93h-130zM73 0l168 963h228l-168 -963h-228z" />
    <glyph glyph-name="uni1ECA" unicode="&#x1eca;" horiz-adv-x="632" 
d="M114 0l270 1536h237l-271 -1536h-236zM177 -393c-78 0 -135 67 -121 148c12 63 74 115 137 115c79 0 135 -68 121 -148c-11 -64 -73 -115 -137 -115z" />
    <glyph glyph-name="uni1ECB" unicode="&#x1ecb;" horiz-adv-x="539" 
d="M402 1134c-83 0 -140 69 -127 152c12 68 76 119 143 119c81 0 139 -67 124 -152c-12 -66 -74 -119 -140 -119zM73 0l168 963h226l-168 -963h-226zM88 -504c-78 0 -135 67 -121 148c12 63 74 115 137 115c79 0 135 -68 121 -148c-11 -64 -73 -115 -137 -115z" />
    <glyph glyph-name="uni1ECC" unicode="&#x1ecc;" horiz-adv-x="1746" 
d="M800 -20c-444 0 -740 360 -662 805c75 427 481 771 909 771c445 0 741 -360 662 -805c-75 -427 -481 -771 -909 -771zM814 211c320 0 610 253 664 574c51 303 -140 540 -444 540c-319 0 -610 -253 -664 -574c-51 -303 141 -540 444 -540zM735 -393
c-78 0 -135 67 -121 148c12 63 74 115 137 115c79 0 135 -68 121 -148c-11 -64 -73 -115 -137 -115z" />
    <glyph glyph-name="uni1ECD" unicode="&#x1ecd;" horiz-adv-x="1148" 
d="M501 -18c-295 0 -483 230 -433 516c47 269 299 483 579 483c292 0 481 -230 431 -516c-47 -269 -299 -483 -577 -483zM506 190c166 0 325 134 356 308c28 156 -71 275 -221 275c-169 0 -326 -134 -357 -308c-29 -158 69 -275 222 -275zM436 -393c-78 0 -135 67 -121 148
c12 63 74 115 137 115c79 0 135 -68 121 -148c-11 -64 -73 -115 -137 -115z" />
    <glyph glyph-name="uni1ECE" unicode="&#x1ece;" horiz-adv-x="1746" 
d="M1010 1630l23 174c95 18 166 57 176 134c6 44 -22 75 -72 75c-44 0 -84 -18 -119 -45l-69 123c57 41 125 63 187 63c141 0 238 -100 214 -242c-15 -79 -71 -158 -186 -189l-24 -93h-130zM800 -20c-444 0 -740 360 -662 805c75 427 481 771 909 771
c445 0 741 -360 662 -805c-75 -427 -481 -771 -909 -771zM814 211c320 0 610 253 664 574c51 303 -140 540 -444 540c-319 0 -610 -253 -664 -574c-51 -303 141 -540 444 -540z" />
    <glyph glyph-name="uni1ECF" unicode="&#x1ecf;" horiz-adv-x="1148" 
d="M609 1056l23 174c95 18 166 57 176 134c6 44 -22 75 -72 75c-44 0 -84 -18 -119 -45l-69 123c57 41 125 63 187 63c141 0 238 -100 214 -242c-15 -79 -71 -158 -186 -189l-24 -93h-130zM501 -18c-295 0 -483 230 -433 516c47 269 299 483 579 483
c292 0 481 -230 431 -516c-47 -269 -299 -483 -577 -483zM506 190c166 0 325 134 356 308c28 156 -71 275 -221 275c-169 0 -326 -134 -357 -308c-29 -158 69 -275 222 -275z" />
    <glyph glyph-name="uni1ED0" unicode="&#x1ed0;" horiz-adv-x="1746" 
d="M1136 2117l-74 94l359 329l99 -131zM872 1645l-97 64l270 298h182l172 -298l-109 -64l-168 224zM800 -20c-444 0 -740 360 -662 805c75 427 481 771 909 771c445 0 741 -360 662 -805c-75 -427 -481 -771 -909 -771zM814 211c320 0 610 253 664 574
c51 303 -140 540 -444 540c-319 0 -610 -253 -664 -574c-51 -303 141 -540 444 -540z" />
    <glyph glyph-name="uni1ED1" unicode="&#x1ed1;" horiz-adv-x="1148" 
d="M735 1543l-74 94l359 329l99 -131zM471 1071l-97 64l270 298h182l172 -298l-109 -64l-168 224zM501 -18c-295 0 -483 230 -433 516c47 269 299 483 579 483c292 0 481 -230 431 -516c-47 -269 -299 -483 -577 -483zM506 190c166 0 325 134 356 308
c28 156 -71 275 -221 275c-169 0 -326 -134 -357 -308c-29 -158 69 -275 222 -275z" />
    <glyph glyph-name="uni1ED2" unicode="&#x1ed2;" horiz-adv-x="1746" 
d="M1173 2120l-295 289l137 131l250 -330zM872 1645l-97 64l271 298h181l172 -298l-109 -64l-167 224zM800 -20c-444 0 -740 360 -662 805c75 427 481 771 909 771c445 0 741 -360 662 -805c-75 -427 -481 -771 -909 -771zM814 211c320 0 610 253 664 574
c51 303 -140 540 -444 540c-319 0 -610 -253 -664 -574c-51 -303 141 -540 444 -540z" />
    <glyph glyph-name="uni1ED3" unicode="&#x1ed3;" horiz-adv-x="1148" 
d="M772 1546l-295 289l137 131l250 -330zM471 1071l-97 64l271 298h181l172 -298l-109 -64l-167 224zM501 -18c-295 0 -483 230 -433 516c47 269 299 483 579 483c292 0 481 -230 431 -516c-47 -269 -299 -483 -577 -483zM506 190c166 0 325 134 356 308
c28 156 -71 275 -221 275c-169 0 -326 -134 -357 -308c-29 -158 69 -275 222 -275z" />
    <glyph glyph-name="uni1ED4" unicode="&#x1ed4;" horiz-adv-x="1746" 
d="M1091 2101l22 175c96 17 164 64 176 140c8 41 -12 72 -65 72c-47 0 -88 -20 -123 -48l-71 123c56 40 127 62 188 62c141 0 237 -100 212 -241c-13 -80 -70 -158 -186 -189l-23 -94h-130zM872 1645l-97 64l271 298h181l172 -298l-109 -64l-167 224zM800 -20
c-444 0 -740 360 -662 805c75 427 481 771 909 771c445 0 741 -360 662 -805c-75 -427 -481 -771 -909 -771zM814 211c320 0 610 253 664 574c51 303 -140 540 -444 540c-319 0 -610 -253 -664 -574c-51 -303 141 -540 444 -540z" />
    <glyph glyph-name="uni1ED5" unicode="&#x1ed5;" horiz-adv-x="1148" 
d="M690 1527l22 175c96 17 164 64 176 140c8 41 -12 72 -65 72c-47 0 -88 -20 -123 -48l-71 123c56 40 127 62 188 62c141 0 237 -100 212 -241c-13 -80 -70 -158 -186 -189l-23 -94h-130zM471 1071l-97 64l271 298h181l172 -298l-109 -64l-167 224zM501 -18
c-295 0 -483 230 -433 516c47 269 299 483 579 483c292 0 481 -230 431 -516c-47 -269 -299 -483 -577 -483zM506 190c166 0 325 134 356 308c28 156 -71 275 -221 275c-169 0 -326 -134 -357 -308c-29 -158 69 -275 222 -275z" />
    <glyph glyph-name="uni1ED6" unicode="&#x1ed6;" horiz-adv-x="1746" 
d="M1307 2106c-102 0 -153 60 -178 129c-22 28 -39 35 -58 35c-68 0 -118 -76 -132 -162l-140 16c28 168 125 286 259 286c100 0 155 -62 181 -129c16 -16 30 -35 61 -35c65 0 112 62 130 162l139 -16c-28 -164 -121 -286 -262 -286zM872 1645l-96 64l270 298h182l171 -298
l-108 -64l-168 224zM800 -20c-444 0 -740 360 -662 805c75 427 481 771 909 771c445 0 741 -360 662 -805c-75 -427 -481 -771 -909 -771zM814 211c320 0 610 253 664 574c51 303 -140 540 -444 540c-319 0 -610 -253 -664 -574c-51 -303 141 -540 444 -540z" />
    <glyph glyph-name="uni1ED7" unicode="&#x1ed7;" horiz-adv-x="1148" 
d="M906 1532c-102 0 -153 60 -178 129c-22 28 -39 35 -58 35c-68 0 -118 -76 -132 -162l-140 16c28 168 125 286 259 286c100 0 155 -62 181 -129c16 -16 30 -35 61 -35c65 0 112 62 130 162l139 -16c-28 -164 -121 -286 -262 -286zM471 1071l-96 64l270 298h182l171 -298
l-108 -64l-168 224zM501 -18c-295 0 -483 230 -433 516c47 269 299 483 579 483c292 0 481 -230 431 -516c-47 -269 -299 -483 -577 -483zM506 190c166 0 325 134 356 308c28 156 -71 275 -221 275c-169 0 -326 -134 -357 -308c-29 -158 69 -275 222 -275z" />
    <glyph glyph-name="uni1ED8" unicode="&#x1ed8;" horiz-adv-x="1746" 
d="M872 1645l-97 64l270 298h182l172 -298l-109 -64l-168 224zM800 -20c-444 0 -740 360 -662 805c75 427 481 771 909 771c445 0 741 -360 662 -805c-75 -427 -481 -771 -909 -771zM814 211c320 0 610 253 664 574c51 303 -140 540 -444 540c-319 0 -610 -253 -664 -574
c-51 -303 141 -540 444 -540zM735 -393c-78 0 -135 67 -121 148c12 63 74 115 137 115c79 0 135 -68 121 -148c-11 -64 -73 -115 -137 -115z" />
    <glyph glyph-name="uni1ED9" unicode="&#x1ed9;" horiz-adv-x="1148" 
d="M471 1071l-97 64l270 298h182l172 -298l-109 -64l-168 224zM501 -18c-295 0 -483 230 -433 516c47 269 299 483 579 483c292 0 481 -230 431 -516c-47 -269 -299 -483 -577 -483zM506 190c166 0 325 134 356 308c28 156 -71 275 -221 275c-169 0 -326 -134 -357 -308
c-29 -158 69 -275 222 -275zM436 -393c-78 0 -135 67 -121 148c12 63 74 115 137 115c79 0 135 -68 121 -148c-11 -64 -73 -115 -137 -115z" />
    <glyph glyph-name="uni1EDA" unicode="&#x1eda;" horiz-adv-x="1746" 
d="M1440 1938l-384 -292l-73 94l358 329zM1784 1511h153l-22 -132c-33 -184 -134 -242 -224 -242h-12c43 -114 55 -246 30 -386c-75 -427 -481 -771 -909 -771c-444 0 -740 360 -662 805c75 427 481 771 909 771c269 0 484 -132 594 -334c74 9 116 76 123 140zM1478 785
c51 303 -140 540 -444 540c-319 0 -610 -253 -664 -574c-51 -303 141 -540 444 -540c320 0 610 253 664 574z" />
    <glyph glyph-name="uni1EDB" unicode="&#x1edb;" horiz-adv-x="1148" 
d="M1039 1364l-384 -292l-73 94l358 329zM1199 1026h153l-22 -132c-33 -184 -134 -242 -224 -242c-10 0 -20 1 -30 2c12 -59 14 -122 2 -189c-47 -269 -299 -483 -577 -483c-295 0 -483 230 -433 516c47 269 299 483 579 483c190 0 337 -98 402 -245c78 6 123 75 130 141z
M862 498c28 156 -71 275 -221 275c-169 0 -326 -134 -357 -308c-29 -158 69 -275 222 -275c166 0 325 134 356 308z" />
    <glyph glyph-name="uni1EDC" unicode="&#x1edc;" horiz-adv-x="1746" 
d="M1185 1739l-91 -90l-297 289l138 131zM1784 1511h153l-22 -132c-33 -184 -134 -242 -224 -242h-12c43 -114 55 -246 30 -386c-75 -427 -481 -771 -909 -771c-444 0 -740 360 -662 805c75 427 481 771 909 771c269 0 484 -132 594 -334c74 9 116 76 123 140zM1478 785
c51 303 -140 540 -444 540c-319 0 -610 -253 -664 -574c-51 -303 141 -540 444 -540c320 0 610 253 664 574z" />
    <glyph glyph-name="uni1EDD" unicode="&#x1edd;" horiz-adv-x="1148" 
d="M784 1165l-91 -90l-297 289l138 131zM1199 1026h153l-22 -132c-33 -184 -134 -242 -224 -242c-10 0 -20 1 -30 2c12 -59 14 -122 2 -189c-47 -269 -299 -483 -577 -483c-295 0 -483 230 -433 516c47 269 299 483 579 483c190 0 337 -98 402 -245c78 6 123 75 130 141z
M862 498c28 156 -71 275 -221 275c-169 0 -326 -134 -357 -308c-29 -158 69 -275 222 -275c166 0 325 134 356 308z" />
    <glyph glyph-name="uni1EDE" unicode="&#x1ede;" horiz-adv-x="1746" 
d="M1137 2013c-44 0 -84 -18 -119 -45l-69 123c57 41 125 63 187 63c141 0 238 -100 214 -242c-15 -79 -71 -158 -186 -189l-24 -93h-130l23 174c95 18 166 57 176 134c6 44 -22 75 -72 75zM1784 1511h153l-22 -132c-33 -184 -134 -242 -224 -242h-12
c43 -114 55 -246 30 -386c-75 -427 -481 -771 -909 -771c-444 0 -740 360 -662 805c75 427 481 771 909 771c269 0 484 -132 594 -334c74 9 116 76 123 140zM1478 785c51 303 -140 540 -444 540c-319 0 -610 -253 -664 -574c-51 -303 141 -540 444 -540
c320 0 610 253 664 574z" />
    <glyph glyph-name="uni1EDF" unicode="&#x1edf;" horiz-adv-x="1148" 
d="M736 1439c-44 0 -84 -18 -119 -45l-69 123c57 41 125 63 187 63c141 0 238 -100 214 -242c-15 -79 -71 -158 -186 -189l-24 -93h-130l23 174c95 18 166 57 176 134c6 44 -22 75 -72 75zM1199 1026h153l-22 -132c-33 -184 -134 -242 -224 -242c-10 0 -20 1 -30 2
c12 -59 14 -122 2 -189c-47 -269 -299 -483 -577 -483c-295 0 -483 230 -433 516c47 269 299 483 579 483c190 0 337 -98 402 -245c78 6 123 75 130 141zM862 498c28 156 -71 275 -221 275c-169 0 -326 -134 -357 -308c-29 -158 69 -275 222 -275c166 0 325 134 356 308z
" />
    <glyph glyph-name="uni1EE0" unicode="&#x1ee0;" horiz-adv-x="1746" 
d="M982 1799c-69 0 -116 -77 -132 -162l-134 16c28 160 121 286 265 286c94 0 134 -55 166 -108c18 -29 38 -56 81 -56c64 0 109 62 126 162l133 -16c-30 -170 -123 -286 -260 -286c-103 0 -141 57 -170 108c-22 34 -38 56 -75 56zM1784 1511h153l-22 -132
c-33 -184 -134 -242 -224 -242h-12c43 -114 55 -246 30 -386c-75 -427 -481 -771 -909 -771c-444 0 -740 360 -662 805c75 427 481 771 909 771c269 0 484 -132 594 -334c74 9 116 76 123 140zM1478 785c51 303 -140 540 -444 540c-319 0 -610 -253 -664 -574
c-51 -303 141 -540 444 -540c320 0 610 253 664 574z" />
    <glyph glyph-name="uni1EE1" unicode="&#x1ee1;" horiz-adv-x="1148" 
d="M581 1225c-69 0 -116 -77 -132 -162l-134 16c28 160 121 286 265 286c94 0 134 -55 166 -108c18 -29 38 -56 81 -56c64 0 109 62 126 162l133 -16c-30 -170 -123 -286 -260 -286c-103 0 -141 57 -170 108c-22 34 -38 56 -75 56zM1199 1026h153l-22 -132
c-33 -184 -134 -242 -224 -242c-10 0 -20 1 -30 2c12 -59 14 -122 2 -189c-47 -269 -299 -483 -577 -483c-295 0 -483 230 -433 516c47 269 299 483 579 483c190 0 337 -98 402 -245c78 6 123 75 130 141zM862 498c28 156 -71 275 -221 275c-169 0 -326 -134 -357 -308
c-29 -158 69 -275 222 -275c166 0 325 134 356 308z" />
    <glyph glyph-name="uni1EE2" unicode="&#x1ee2;" horiz-adv-x="1746" 
d="M1784 1511h153l-22 -132c-33 -184 -134 -242 -224 -242h-12c43 -114 55 -246 30 -386c-75 -427 -481 -771 -909 -771c-444 0 -740 360 -662 805c75 427 481 771 909 771c269 0 484 -132 594 -334c74 9 116 76 123 140zM1478 785c51 303 -140 540 -444 540
c-319 0 -610 -253 -664 -574c-51 -303 141 -540 444 -540c320 0 610 253 664 574zM751 -130c79 0 135 -68 121 -148c-11 -64 -73 -115 -137 -115c-78 0 -135 67 -121 148c12 63 74 115 137 115z" />
    <glyph glyph-name="uni1EE3" unicode="&#x1ee3;" horiz-adv-x="1148" 
d="M1199 1026h153l-22 -132c-33 -184 -134 -242 -224 -242c-10 0 -20 1 -30 2c12 -59 14 -122 2 -189c-47 -269 -299 -483 -577 -483c-295 0 -483 230 -433 516c47 269 299 483 579 483c190 0 337 -98 402 -245c78 6 123 75 130 141zM862 498c28 156 -71 275 -221 275
c-169 0 -326 -134 -357 -308c-29 -158 69 -275 222 -275c166 0 325 134 356 308zM452 -130c79 0 135 -68 121 -148c-11 -64 -73 -115 -137 -115c-78 0 -135 67 -121 148c12 63 74 115 137 115z" />
    <glyph glyph-name="uni1EE4" unicode="&#x1ee4;" horiz-adv-x="1535" 
d="M692 -20c-353 0 -578 229 -523 540l180 1016h237l-176 -991c-36 -207 88 -344 290 -344c219 0 410 153 447 360l172 975h236l-183 -1032c-55 -311 -341 -524 -680 -524zM627 -393c-78 0 -135 67 -121 148c12 63 74 115 137 115c79 0 135 -68 121 -148
c-11 -64 -73 -115 -137 -115z" />
    <glyph glyph-name="uni1EE5" unicode="&#x1ee5;" horiz-adv-x="1073" 
d="M460 -19c-261 0 -392 154 -352 384l105 598h228l-103 -593c-22 -123 33 -185 127 -185c111 0 207 78 229 201l100 577h228l-107 -614c-40 -230 -209 -368 -455 -368zM396 -393c-78 0 -135 67 -121 148c12 63 74 115 137 115c79 0 135 -68 121 -148
c-11 -64 -73 -115 -137 -115z" />
    <glyph glyph-name="uni1EE6" unicode="&#x1ee6;" horiz-adv-x="1535" 
d="M902 1630l23 174c95 18 166 57 176 134c6 44 -22 75 -72 75c-44 0 -84 -18 -119 -45l-69 123c57 41 125 63 187 63c141 0 238 -100 214 -242c-15 -79 -71 -158 -186 -189l-24 -93h-130zM692 -20c-353 0 -578 229 -523 540l180 1016h237l-176 -991
c-36 -207 88 -344 290 -344c219 0 410 153 447 360l172 975h236l-183 -1032c-55 -311 -341 -524 -680 -524z" />
    <glyph glyph-name="uni1EE7" unicode="&#x1ee7;" horiz-adv-x="1073" 
d="M568 1057l23 174c95 18 166 57 176 134c6 44 -22 75 -72 75c-44 0 -84 -18 -119 -45l-69 123c57 41 125 63 187 63c141 0 238 -100 214 -242c-15 -79 -71 -158 -186 -189l-24 -93h-130zM460 -19c-261 0 -392 154 -352 384l105 598h228l-103 -593
c-22 -123 33 -185 127 -185c111 0 207 78 229 201l100 577h228l-107 -614c-40 -230 -209 -368 -455 -368z" />
    <glyph glyph-name="uni1EE8" unicode="&#x1ee8;" horiz-adv-x="1535" 
d="M1332 1938l-384 -292l-73 94l358 329zM1705 1672h153l-22 -132c-33 -184 -134 -242 -224 -242c-30 0 -63 6 -96 16l-144 -810c-55 -311 -341 -524 -680 -524c-353 0 -578 229 -523 540l180 1016h237l-176 -991c-36 -207 88 -344 290 -344c219 0 410 153 447 360l172 975
h236l-27 -153c7 -1 13 -1 17 -1c84 0 133 72 140 141z" />
    <glyph glyph-name="uni1EE9" unicode="&#x1ee9;" horiz-adv-x="1073" 
d="M998 1365l-384 -292l-73 94l358 329zM1158 962h153l-22 -132c-33 -184 -134 -242 -224 -242c-33 0 -69 7 -105 19l-45 -258c-40 -230 -209 -368 -455 -368c-261 0 -392 154 -352 384l105 598h228l-103 -593c-22 -123 33 -185 127 -185c111 0 207 78 229 201l100 577h228
l-50 -288c11 -3 20 -3 26 -3c84 0 133 72 140 141z" />
    <glyph glyph-name="uni1EEA" unicode="&#x1eea;" horiz-adv-x="1535" 
d="M1077 1739l-91 -90l-297 289l138 131zM1705 1672h153l-22 -132c-33 -184 -134 -242 -224 -242c-30 0 -63 6 -96 16l-144 -810c-55 -311 -341 -524 -680 -524c-353 0 -578 229 -523 540l180 1016h237l-176 -991c-36 -207 88 -344 290 -344c219 0 410 153 447 360l172 975
h236l-27 -153c7 -1 13 -1 17 -1c84 0 133 72 140 141z" />
    <glyph glyph-name="uni1EEB" unicode="&#x1eeb;" horiz-adv-x="1073" 
d="M743 1166l-91 -90l-297 289l138 131zM1158 962h153l-22 -132c-33 -184 -134 -242 -224 -242c-33 0 -69 7 -105 19l-45 -258c-40 -230 -209 -368 -455 -368c-261 0 -392 154 -352 384l105 598h228l-103 -593c-22 -123 33 -185 127 -185c111 0 207 78 229 201l100 577h228
l-50 -288c11 -3 20 -3 26 -3c84 0 133 72 140 141z" />
    <glyph glyph-name="uni1EEC" unicode="&#x1eec;" horiz-adv-x="1535" 
d="M1029 2013c-44 0 -84 -18 -119 -45l-69 123c57 41 125 63 187 63c141 0 238 -100 214 -242c-15 -79 -71 -158 -186 -189l-24 -93h-130l23 174c95 18 166 57 176 134c6 44 -22 75 -72 75zM1705 1672h153l-22 -132c-33 -184 -134 -242 -224 -242c-30 0 -63 6 -96 16
l-144 -810c-55 -311 -341 -524 -680 -524c-353 0 -578 229 -523 540l180 1016h237l-176 -991c-36 -207 88 -344 290 -344c219 0 410 153 447 360l172 975h236l-27 -153c7 -1 13 -1 17 -1c84 0 133 72 140 141z" />
    <glyph glyph-name="uni1EED" unicode="&#x1eed;" horiz-adv-x="1073" 
d="M695 1440c-44 0 -84 -18 -119 -45l-69 123c57 41 125 63 187 63c141 0 238 -100 214 -242c-15 -79 -71 -158 -186 -189l-24 -93h-130l23 174c95 18 166 57 176 134c6 44 -22 75 -72 75zM1158 962h153l-22 -132c-33 -184 -134 -242 -224 -242c-33 0 -69 7 -105 19
l-45 -258c-40 -230 -209 -368 -455 -368c-261 0 -392 154 -352 384l105 598h228l-103 -593c-22 -123 33 -185 127 -185c111 0 207 78 229 201l100 577h228l-50 -288c11 -3 20 -3 26 -3c84 0 133 72 140 141z" />
    <glyph glyph-name="uni1EEE" unicode="&#x1eee;" horiz-adv-x="1535" 
d="M874 1799c-69 0 -116 -77 -132 -162l-134 16c28 160 121 286 265 286c94 0 134 -55 166 -108c18 -29 38 -56 81 -56c64 0 109 62 126 162l133 -16c-30 -170 -123 -286 -260 -286c-103 0 -141 57 -170 108c-22 34 -38 56 -75 56zM1705 1672h153l-22 -132
c-33 -184 -134 -242 -224 -242c-30 0 -63 6 -96 16l-144 -810c-55 -311 -341 -524 -680 -524c-353 0 -578 229 -523 540l180 1016h237l-176 -991c-36 -207 88 -344 290 -344c219 0 410 153 447 360l172 975h236l-27 -153c7 -1 13 -1 17 -1c84 0 133 72 140 141z" />
    <glyph glyph-name="uni1EEF" unicode="&#x1eef;" horiz-adv-x="1073" 
d="M540 1226c-69 0 -116 -77 -132 -162l-134 16c28 160 121 286 265 286c94 0 134 -55 166 -108c18 -29 38 -56 81 -56c64 0 109 62 126 162l133 -16c-30 -170 -123 -286 -260 -286c-103 0 -141 57 -170 108c-22 34 -38 56 -75 56zM1158 962h153l-22 -132
c-33 -184 -134 -242 -224 -242c-33 0 -69 7 -105 19l-45 -258c-40 -230 -209 -368 -455 -368c-261 0 -392 154 -352 384l105 598h228l-103 -593c-22 -123 33 -185 127 -185c111 0 207 78 229 201l100 577h228l-50 -288c11 -3 20 -3 26 -3c84 0 133 72 140 141z" />
    <glyph glyph-name="uni1EF0" unicode="&#x1ef0;" horiz-adv-x="1535" 
d="M1705 1672h153l-22 -132c-33 -184 -134 -242 -224 -242c-30 0 -63 6 -96 16l-144 -810c-55 -311 -341 -524 -680 -524c-353 0 -578 229 -523 540l180 1016h237l-176 -991c-36 -207 88 -344 290 -344c219 0 410 153 447 360l172 975h236l-27 -153c7 -1 13 -1 17 -1
c84 0 133 72 140 141zM643 -130c79 0 135 -68 121 -148c-11 -64 -73 -115 -137 -115c-78 0 -135 67 -121 148c12 63 74 115 137 115z" />
    <glyph glyph-name="uni1EF1" unicode="&#x1ef1;" horiz-adv-x="1073" 
d="M1158 962h153l-22 -132c-33 -184 -134 -242 -224 -242c-33 0 -69 7 -105 19l-45 -258c-40 -230 -209 -368 -455 -368c-261 0 -392 154 -352 384l105 598h228l-103 -593c-22 -123 33 -185 127 -185c111 0 207 78 229 201l100 577h228l-50 -288c11 -3 20 -3 26 -3
c84 0 133 72 140 141zM412 -130c79 0 135 -68 121 -148c-11 -64 -73 -115 -137 -115c-78 0 -135 67 -121 148c12 63 74 115 137 115z" />
    <glyph glyph-name="Ygrave" unicode="&#x1ef2;" horiz-adv-x="1335" 
d="M979 1739l-91 -90l-297 289l138 131zM1508 1536l-681 -813l-127 -723h-236l128 727l-393 809h274l272 -589l483 589h280z" />
    <glyph glyph-name="ygrave" unicode="&#x1ef3;" horiz-adv-x="1035" 
d="M710 1166l-91 -90l-297 289l138 131zM860 963h248l-839 -1455h-242l288 506l-222 949h248l136 -718z" />
    <glyph glyph-name="uni1EF4" unicode="&#x1ef4;" horiz-adv-x="1335" 
d="M1508 1536l-681 -813l-127 -723h-236l128 727l-393 809h274l272 -589l483 589h280zM545 -130c79 0 135 -68 121 -148c-11 -64 -73 -115 -137 -115c-78 0 -135 67 -121 148c12 63 74 115 137 115z" />
    <glyph glyph-name="uni1EF5" unicode="&#x1ef5;" horiz-adv-x="1035" 
d="M860 963h248l-839 -1455h-242l288 506l-222 949h248l136 -718zM670 -227c79 0 135 -68 121 -148c-11 -64 -73 -115 -137 -115c-78 0 -135 67 -121 148c12 63 74 115 137 115z" />
    <glyph glyph-name="uni1EF6" unicode="&#x1ef6;" horiz-adv-x="1335" 
d="M931 2013c-44 0 -84 -18 -119 -45l-69 123c57 41 125 63 187 63c141 0 238 -100 214 -242c-15 -79 -71 -158 -186 -189l-24 -93h-130l23 174c95 18 166 57 176 134c6 44 -22 75 -72 75zM1508 1536l-681 -813l-127 -723h-236l128 727l-393 809h274l272 -589l483 589h280z
" />
    <glyph glyph-name="uni1EF7" unicode="&#x1ef7;" horiz-adv-x="1035" 
d="M662 1440c-44 0 -84 -18 -119 -45l-69 123c57 41 125 63 187 63c141 0 238 -100 214 -242c-15 -79 -71 -158 -186 -189l-24 -93h-130l23 174c95 18 166 57 176 134c6 44 -22 75 -72 75zM860 963h248l-839 -1455h-242l288 506l-222 949h248l136 -718z" />
    <glyph glyph-name="uni1EF8" unicode="&#x1ef8;" horiz-adv-x="1335" 
d="M776 1799c-69 0 -116 -77 -132 -162l-134 16c28 160 121 286 265 286c94 0 134 -55 166 -108c18 -29 38 -56 81 -56c64 0 109 62 126 162l133 -16c-30 -170 -123 -286 -260 -286c-103 0 -141 57 -170 108c-22 34 -38 56 -75 56zM1508 1536l-681 -813l-127 -723h-236
l128 727l-393 809h274l272 -589l483 589h280z" />
    <glyph glyph-name="uni1EF9" unicode="&#x1ef9;" horiz-adv-x="1035" 
d="M507 1226c-69 0 -116 -77 -132 -162l-134 16c28 160 121 286 265 286c94 0 134 -55 166 -108c18 -29 38 -56 81 -56c64 0 109 62 126 162l133 -16c-30 -170 -123 -286 -260 -286c-103 0 -141 57 -170 108c-22 34 -38 56 -75 56zM860 963h248l-839 -1455h-242l288 506
l-222 949h248l136 -718z" />
    <glyph glyph-name="endash" unicode="&#x2013;" horiz-adv-x="1326" 
d="M136 395l30 172h1024l-30 -172h-1024z" />
    <glyph glyph-name="emdash" unicode="&#x2014;" horiz-adv-x="2048" 
d="M-15 395l30 172h2048l-30 -172h-2048z" />
    <glyph glyph-name="quoteleft" unicode="&#x2018;" horiz-adv-x="565" 
d="M344 902c-84 0 -144 72 -128 156c5 26 16 50 34 69l228 409h145l-185 -379c39 -28 61 -76 51 -132c-12 -67 -78 -123 -145 -123z" />
    <glyph glyph-name="quoteright" unicode="&#x2019;" horiz-adv-x="565" 
d="M485 1557c84 0 142 -72 128 -156c-4 -25 -16 -49 -33 -68l-229 -410h-145l185 379c-39 27 -61 77 -51 132c12 67 78 123 145 123z" />
    <glyph glyph-name="quotesinglbase" unicode="&#x201a;" horiz-adv-x="565" 
d="M256 259c84 0 142 -73 128 -157c-4 -25 -16 -48 -32 -67l-230 -411h-145l185 379c-39 28 -61 77 -51 132c11 67 78 124 145 124z" />
    <glyph glyph-name="quotedblleft" unicode="&#x201c;" horiz-adv-x="975" 
d="M346 902c-84 0 -143 72 -128 156c1 5 9 34 16 48l246 430h145l-191 -375c39 -23 68 -75 57 -136c-12 -67 -78 -123 -145 -123zM755 902c-83 0 -143 72 -127 156c0 5 7 29 15 48l246 430h146l-192 -375c40 -23 68 -75 58 -136c-12 -67 -79 -123 -146 -123z" />
    <glyph glyph-name="quotedblright" unicode="&#x201d;" horiz-adv-x="975" 
d="M484 1556c83 0 143 -72 127 -156c0 -5 -7 -29 -15 -48l-246 -430h-146l192 375c-40 23 -68 75 -58 136c12 67 79 123 146 123zM893 1556c84 0 143 -72 128 -156c-1 -5 -9 -34 -16 -48l-246 -430h-145l191 375c-39 23 -68 75 -57 136c12 67 78 123 145 123z" />
    <glyph glyph-name="quotedblbase" unicode="&#x201e;" horiz-adv-x="960" 
d="M384 102c-4 -25 -16 -48 -32 -67l-230 -411h-145l185 379c-39 28 -61 77 -51 132c11 67 78 124 145 124c84 0 142 -73 128 -157zM651 259c84 0 142 -73 128 -157c-4 -25 -16 -48 -32 -67l-229 -411h-145l184 379c-39 27 -61 77 -51 132c11 67 78 124 145 124z" />
    <glyph glyph-name="dagger" unicode="&#x2020;" horiz-adv-x="973" 
d="M997 990l-27 -149h-349l-209 -1189h-149l209 1189h-343l27 149h343l67 382h149l-67 -382h349z" />
    <glyph glyph-name="daggerdbl" unicode="&#x2021;" horiz-adv-x="1056" 
d="M1011 841h-349l-114 -646h349l-26 -147h-349l-70 -396h-149l70 396h-343l27 147h342l113 646h-342l27 149h342l67 382h150l-68 -382h349z" />
    <glyph glyph-name="bullet" unicode="&#x2022;" horiz-adv-x="880" 
d="M438 383c-162 0 -279 132 -249 301c26 146 172 271 318 271c161 0 277 -141 249 -304c-28 -152 -173 -268 -318 -268z" />
    <glyph glyph-name="ellipsis" unicode="&#x2026;" horiz-adv-x="1863" 
d="M245 -20c-83 0 -142 70 -127 155c11 67 79 124 146 124c83 0 141 -73 127 -157c-12 -68 -78 -122 -146 -122zM854 -20c-83 0 -142 70 -128 155c11 67 79 124 146 124c83 0 142 -73 128 -157c-12 -68 -79 -122 -146 -122zM1471 -20c-83 0 -142 70 -127 155
c11 67 79 124 146 124c83 0 141 -73 127 -157c-12 -68 -78 -122 -146 -122z" />
    <glyph glyph-name="perthousand" unicode="&#x2030;" horiz-adv-x="2324" 
d="M444 885c-194 0 -324 159 -289 355c31 175 200 316 377 316c192 0 321 -157 287 -350c-32 -177 -199 -321 -375 -321zM117 0l1160 1536h230l-1156 -1536h-234zM453 1064c95 0 182 79 192 176c9 76 -45 139 -122 139c-96 0 -185 -78 -194 -173c-10 -79 44 -142 124 -142z
M1101 -16c-194 0 -323 158 -289 352c32 176 200 317 376 317c192 0 322 -157 288 -350c-31 -176 -198 -319 -375 -319zM1858 -16c-194 0 -324 158 -289 352c32 176 200 317 376 317c192 0 322 -157 288 -350c-31 -176 -198 -319 -375 -319zM1110 161c96 0 182 79 193 175
c10 78 -47 140 -124 140c-96 0 -183 -78 -193 -173c-11 -79 44 -142 124 -142zM1868 161c95 0 181 79 192 175c10 78 -46 140 -124 140c-96 0 -182 -78 -193 -173c-10 -79 44 -142 125 -142z" />
    <glyph glyph-name="guilsinglleft" unicode="&#x2039;" horiz-adv-x="616" 
d="M296 104l-248 377l374 377h194l-382 -377l241 -377h-179z" />
    <glyph glyph-name="guilsinglright" unicode="&#x203a;" horiz-adv-x="613" 
d="M-3 104l382 377l-241 377h179l248 -377l-374 -377h-194z" />
    <glyph glyph-name="fraction" unicode="&#x2044;" horiz-adv-x="523" 
d="M-457 0l1343 1536h195l-1341 -1536h-197z" />
    <glyph glyph-name="Euro" unicode="&#x20ac;" horiz-adv-x="1836" 
d="M893 215c168 0 330 71 454 186l162 -159c-169 -161 -394 -262 -626 -262c-348 0 -604 220 -662 528h-124l44 169h68c2 35 5 71 12 108c4 23 9 45 15 67h-48l44 169h67c154 311 484 535 830 535c241 0 438 -106 555 -274l-198 -133c-79 113 -208 178 -366 178
c-220 0 -431 -123 -557 -306h684l-44 -169h-725c-11 -33 -19 -66 -25 -101c-4 -25 -7 -50 -8 -74h711l-44 -169h-645c56 -175 213 -293 426 -293z" />
    <glyph glyph-name="uni2113" unicode="&#x2113;" horiz-adv-x="1235" 
d="M1052 396l91 -110c-158 -215 -343 -297 -527 -297c-277 0 -375 185 -362 393h-4c-42 -29 -93 -66 -142 -99l-55 132c78 54 154 99 222 150l107 573c72 407 281 542 479 542c233 0 308 -184 272 -391c-46 -265 -284 -514 -640 -783l-16 -65c-34 -193 68 -276 190 -276
c157 0 304 123 385 231zM600 1151l-82 -433c233 198 425 400 461 601c22 121 2 206 -109 206c-92 0 -221 -93 -270 -374z" />
    <glyph glyph-name="uni2116" unicode="&#x2116;" horiz-adv-x="2861" 
d="M1190 496l183 1040h235l-270 -1536h-92l-716 1042l-183 -1042h-236l270 1536h91zM2352 1365c292 0 481 -230 431 -516c-47 -269 -299 -483 -577 -483c-295 0 -483 230 -433 516c47 269 299 483 579 483zM2567 882c28 156 -71 275 -221 275c-169 0 -326 -134 -357 -308
c-29 -158 69 -275 222 -275c166 0 325 134 356 308zM1710 0l27 158h924l-27 -158h-924z" />
    <glyph glyph-name="trademark" unicode="&#x2122;" horiz-adv-x="1702" 
d="M650 1426h-190l-107 -608h-125l107 608h-187l19 110h503zM1392 1536h136l-127 -718h-123l91 518l-316 -375l-194 381l-93 -524h-125l127 718h133l179 -366z" />
    <glyph glyph-name="estimated" unicode="&#x212e;" horiz-adv-x="1953" 
d="M993 -18c-484 0 -875 352 -875 784c0 438 391 790 875 790c485 0 876 -352 876 -790v-21h-1417c-8 0 -12 -2 -12 -8v-430c0 -18 8 -35 18 -49c137 -141 328 -233 537 -233c227 0 428 102 565 262h125c-156 -185 -410 -305 -692 -305zM452 788h1087c7 0 9 9 9 15v430
c0 18 -6 39 -21 51c-137 135 -323 225 -532 225c-207 0 -396 -92 -535 -231c-12 -14 -20 -33 -20 -53v-422c0 -6 4 -15 12 -15z" />
    <glyph glyph-name="arrowleft" unicode="&#x2190;" horiz-adv-x="1753" 
d="M1613 850v-248h-1038v-260l-498 385l498 385v-262h1038z" />
    <glyph glyph-name="arrowup" unicode="&#x2191;" horiz-adv-x="887" 
d="M321 0v1038h-262l385 498l385 -498h-260v-1038h-248z" />
    <glyph glyph-name="arrowright" unicode="&#x2192;" horiz-adv-x="1759" 
d="M140 850h1038v262l498 -385l-498 -385v260h-1038v248z" />
    <glyph glyph-name="arrowdown" unicode="&#x2193;" horiz-adv-x="887" 
d="M321 1536h248v-1038h260l-385 -498l-385 498h262v1038z" />
    <glyph glyph-name="arrowboth" unicode="&#x2194;" horiz-adv-x="2178" 
d="M574 295l-498 387l498 385v-260l1024 -2v260l497 -385l-497 -385v262l-1024 2v-264z" />
    <glyph glyph-name="arrowupdn" unicode="&#x2195;" horiz-adv-x="945" 
d="M472 -145l-385 497h262v672h-262l385 498l385 -498h-260v-672h260z" />
    <glyph glyph-name="uni2196" unicode="&#x2196;" horiz-adv-x="1363" 
d="M1299 314l-175 -175l-734 734l-184 -184l-80 624l625 -80l-186 -185z" />
    <glyph glyph-name="uni2197" unicode="&#x2197;" horiz-adv-x="1363" 
d="M64 314l734 734l-186 185l625 80l-80 -624l-184 184l-734 -734z" />
    <glyph glyph-name="uni2198" unicode="&#x2198;" horiz-adv-x="1363" 
d="M64 1222l175 175l734 -734l184 184l80 -624l-625 80l186 185z" />
    <glyph glyph-name="uni2199" unicode="&#x2199;" horiz-adv-x="1363" 
d="M1299 1222l-734 -734l186 -185l-625 -80l80 624l184 -184l734 734z" />
    <glyph glyph-name="partialdiff" unicode="&#x2202;" horiz-adv-x="1185" 
d="M348 1451c389 76 703 -282 697 -779c-5 -386 -227 -665 -527 -665c-331 0 -494 265 -364 617c116 311 385 443 640 350c-68 222 -226 346 -446 302v175zM831 672c1 40 0 80 -3 117c-196 121 -385 35 -475 -219c-85 -242 13 -405 172 -405c151 0 297 195 306 507z" />
    <glyph glyph-name="emptyset" unicode="&#x2205;" horiz-adv-x="1518" 
d="M1223 994c92 -107 148 -246 148 -398c0 -338 -274 -612 -612 -612c-152 0 -291 56 -398 148l-89 -89l-66 66l89 89c-92 107 -148 246 -148 398c0 338 274 612 612 612c152 0 291 -56 398 -148l89 89l66 -66zM334 596c0 -101 35 -194 93 -266l598 598
c-72 58 -165 93 -266 93c-236 0 -425 -189 -425 -425zM759 171c236 0 425 189 425 425c0 101 -35 194 -93 266l-598 -598c72 -58 165 -93 266 -93z" />
    <glyph glyph-name="product" unicode="&#x220f;" horiz-adv-x="1702" 
d="M372 0v1237h-136v203h1380v-203h-136v-1237h-201v1237h-704v-1237h-203z" />
    <glyph glyph-name="summation" unicode="&#x2211;" horiz-adv-x="1605" 
d="M225 -241v153l716 686l-716 686v156h1193v-196h-864l658 -646l-658 -646h864v-193h-1193z" />
    <glyph glyph-name="minus" unicode="&#x2212;" horiz-adv-x="1260" 
d="M232 590v193h795v-193h-795z" />
    <glyph glyph-name="radical" unicode="&#x221a;" horiz-adv-x="1442" 
d="M439 -160l-227 699h-143v167h262l196 -601l700 1465l154 -64l-797 -1666h-145z" />
    <glyph glyph-name="infinity" unicode="&#x221e;" horiz-adv-x="1701" 
d="M474 273c-175 0 -302 135 -309 323c7 188 134 323 309 323c119 0 250 -72 375 -200c123 128 257 200 374 200c183 0 302 -125 308 -323c-6 -198 -125 -323 -308 -323c-117 0 -251 71 -374 199c-125 -127 -256 -199 -375 -199zM474 440c74 0 168 55 264 156
c-96 101 -190 156 -264 156c-77 0 -141 -66 -143 -156c2 -90 66 -156 143 -156zM1223 440c80 0 140 61 143 156c-3 95 -63 156 -143 156c-75 0 -169 -56 -264 -156c95 -100 189 -156 264 -156z" />
    <glyph glyph-name="integral" unicode="&#x222b;" horiz-adv-x="919" 
d="M63 -457v223c208 0 278 71 278 262v1101c0 187 136 319 309 319c72 0 156 -21 217 -76l-99 -176c-32 31 -68 42 -98 42c-58 0 -108 -39 -108 -143v-1080c0 -300 -201 -472 -499 -472z" />
    <glyph glyph-name="approxequal" unicode="&#x2248;" horiz-adv-x="1398" 
d="M911 664c-154 0 -240 103 -289 157c-44 46 -76 64 -116 64c-92 0 -143 -87 -144 -203h-180c0 229 123 385 327 385c110 0 181 -50 263 -149c30 -36 64 -79 125 -79c80 0 137 77 138 202h179c0 -215 -112 -377 -303 -377zM911 208c-154 0 -239 102 -289 156
c-39 42 -66 65 -116 65c-94 -3 -143 -88 -144 -203h-180c0 232 125 386 327 386c108 0 181 -49 263 -149c28 -35 64 -79 125 -79c80 0 137 74 138 202h179c0 -214 -112 -378 -303 -378z" />
    <glyph glyph-name="lessequal" unicode="&#x2264;" horiz-adv-x="1408" 
d="M1255 1474v-213l-917 -406l917 -409v-217l-1130 509v232zM125 0v150h1130v-150h-1130z" />
    <glyph glyph-name="greaterequal" unicode="&#x2265;" horiz-adv-x="1408" 
d="M153 1474l1131 -504v-232l-1131 -509v217l917 409l-917 406v213zM153 0v150h1131v-150h-1131z" />
    <glyph glyph-name="lozenge" unicode="&#x25ca;" horiz-adv-x="1359" 
d="M681 106l-619 617l619 618l616 -616zM682 360l362 365l-362 363l-365 -365z" />
    <glyph glyph-name="uniF8FF" unicode="&#xf8ff;" horiz-adv-x="1800" 
d="M900 0c-428 0 -778 350 -778 778c0 430 350 778 778 778c430 0 778 -348 778 -778c0 -428 -348 -778 -778 -778zM900 74c389 0 704 317 704 704c0 389 -315 705 -704 705c-387 0 -705 -316 -705 -705c0 -387 318 -704 705 -704zM1307 444c-8 0 -18 5 -24 13l-297 295
c-14 16 -14 39 0 53l297 297c14 14 37 14 51 0c14 -15 14 -39 0 -53l-270 -271l270 -270c14 -14 12 -35 0 -51c-6 -8 -16 -13 -27 -13zM492 444c-20 0 -37 17 -37 37v594c0 21 17 37 37 37c21 0 37 -16 37 -37v-594c0 -20 -16 -37 -37 -37zM900 444c-21 0 -37 17 -37 37v594
c0 21 16 37 37 37c20 0 37 -16 37 -37v-594c0 -20 -17 -37 -37 -37zM603 741c-21 0 -37 17 -37 37c0 21 16 37 37 37h186c21 0 37 -16 37 -37c0 -20 -16 -37 -37 -37h-186z" />
    <glyph glyph-name="Lcaron.ss01" horiz-adv-x="1012" 
d="M621 1536l-231 -1315h544l-39 -221h-781l270 1536h237zM1195 1536l-379 -573h-148l285 573h242z" />
    <glyph glyph-name="Lcaron.ss02" horiz-adv-x="1012" 
d="M621 1536l-231 -1315h544l-39 -221h-781l270 1536h237zM1195 1536l-379 -573h-148l285 573h242z" />
    <glyph glyph-name="i.loclTRK" horiz-adv-x="541" 
d="M398 1123c-76 0 -132 66 -120 144c13 65 73 114 134 114c79 0 135 -65 120 -147c-10 -61 -70 -111 -134 -111zM73 0l168 963h228l-168 -963h-228z" />
    <glyph glyph-name="a.ss01" horiz-adv-x="1035" 
d="M569 983c257 0 399 -149 356 -396l-103 -587h-204l11 99c-85 -75 -182 -117 -301 -117c-195 0 -325 112 -291 305c29 166 167 279 534 312l140 13c23 129 -35 193 -155 193c-113 0 -211 -52 -300 -115l-84 164c85 59 226 129 397 129zM377 151c104 0 206 57 280 154
l26 145l-86 -9c-267 -27 -328 -94 -342 -173c-14 -81 35 -117 122 -117z" />
    <glyph glyph-name="aacute.ss01" horiz-adv-x="1035" 
d="M966 1365l-384 -292l-73 94l358 329zM569 983c257 0 399 -149 356 -396l-103 -587h-204l11 99c-85 -75 -182 -117 -301 -117c-195 0 -325 112 -291 305c29 166 167 279 534 312l140 13c23 129 -35 193 -155 193c-113 0 -211 -52 -300 -115l-84 164c85 59 226 129 397 129
zM377 151c104 0 206 57 280 154l26 145l-86 -9c-267 -27 -328 -94 -342 -173c-14 -81 35 -117 122 -117z" />
    <glyph glyph-name="abreve.ss01" horiz-adv-x="1035" 
d="M628 1131c-211 0 -343 127 -305 330h153c-19 -117 32 -201 154 -201c144 0 222 100 240 201h154c-38 -219 -197 -330 -396 -330zM569 983c257 0 399 -149 356 -396l-103 -587h-204l11 99c-85 -75 -182 -117 -301 -117c-195 0 -325 112 -291 305c29 166 167 279 534 312
l140 13c23 129 -35 193 -155 193c-113 0 -211 -52 -300 -115l-84 164c85 59 226 129 397 129zM377 151c104 0 206 57 280 154l26 145l-86 -9c-267 -27 -328 -94 -342 -173c-14 -81 35 -117 122 -117z" />
    <glyph glyph-name="uni1EAF.ss01" horiz-adv-x="1035" 
d="M1050 1836l-384 -292l-73 94l358 329zM630 1260c144 0 222 100 240 201h154c-38 -219 -197 -330 -396 -330c-211 0 -343 127 -305 330h153c-19 -117 32 -201 154 -201zM569 983c257 0 399 -149 356 -396l-103 -587h-204l11 99c-85 -75 -182 -117 -301 -117
c-195 0 -325 112 -291 305c29 166 167 279 534 312l140 13c23 129 -35 193 -155 193c-113 0 -211 -52 -300 -115l-84 164c85 59 226 129 397 129zM377 151c104 0 206 57 280 154l26 145l-86 -9c-267 -27 -328 -94 -342 -173c-14 -81 35 -117 122 -117z" />
    <glyph glyph-name="uni1EB7.ss01" horiz-adv-x="1035" 
d="M628 1131c-211 0 -343 127 -305 330h153c-19 -117 32 -201 154 -201c144 0 222 100 240 201h154c-38 -219 -197 -330 -396 -330zM569 983c257 0 399 -149 356 -396l-103 -587h-204l11 99c-85 -75 -182 -117 -301 -117c-195 0 -325 112 -291 305c29 166 167 279 534 312
l140 13c23 129 -35 193 -155 193c-113 0 -211 -52 -300 -115l-84 164c85 59 226 129 397 129zM377 151c104 0 206 57 280 154l26 145l-86 -9c-267 -27 -328 -94 -342 -173c-14 -81 35 -117 122 -117zM379 -130c79 0 135 -68 121 -148c-11 -64 -73 -115 -137 -115
c-78 0 -135 67 -121 148c12 63 74 115 137 115z" />
    <glyph glyph-name="uni1EB1.ss01" horiz-adv-x="1035" 
d="M795 1637l-91 -90l-297 289l138 131zM628 1131c-211 0 -343 127 -305 330h153c-19 -117 32 -201 154 -201c144 0 222 100 240 201h154c-38 -219 -197 -330 -396 -330zM569 983c257 0 399 -149 356 -396l-103 -587h-204l11 99c-85 -75 -182 -117 -301 -117
c-195 0 -325 112 -291 305c29 166 167 279 534 312l140 13c23 129 -35 193 -155 193c-113 0 -211 -52 -300 -115l-84 164c85 59 226 129 397 129zM377 151c104 0 206 57 280 154l26 145l-86 -9c-267 -27 -328 -94 -342 -173c-14 -81 35 -117 122 -117z" />
    <glyph glyph-name="uni1EB3.ss01" horiz-adv-x="1035" 
d="M747 1911c-44 0 -84 -18 -119 -45l-69 123c57 41 125 63 187 63c141 0 238 -100 214 -242c-15 -79 -71 -158 -186 -189l-24 -93h-130l23 174c95 18 166 57 176 134c6 44 -22 75 -72 75zM628 1131c-211 0 -343 127 -305 330h153c-19 -117 32 -201 154 -201
c144 0 222 100 240 201h154c-38 -219 -197 -330 -396 -330zM569 983c257 0 399 -149 356 -396l-103 -587h-204l11 99c-85 -75 -182 -117 -301 -117c-195 0 -325 112 -291 305c29 166 167 279 534 312l140 13c23 129 -35 193 -155 193c-113 0 -211 -52 -300 -115l-84 164
c85 59 226 129 397 129zM377 151c104 0 206 57 280 154l26 145l-86 -9c-267 -27 -328 -94 -342 -173c-14 -81 35 -117 122 -117z" />
    <glyph glyph-name="uni1EB5.ss01" horiz-adv-x="1035" 
d="M592 1697c-69 0 -116 -77 -132 -162l-134 16c28 160 121 286 265 286c94 0 134 -55 166 -108c18 -29 38 -56 81 -56c64 0 109 62 126 162l133 -16c-30 -170 -123 -286 -260 -286c-103 0 -141 57 -170 108c-22 34 -38 56 -75 56zM630 1260c144 0 222 100 240 201h154
c-38 -219 -197 -330 -396 -330c-211 0 -343 127 -305 330h153c-19 -117 32 -201 154 -201zM569 983c257 0 399 -149 356 -396l-103 -587h-204l11 99c-85 -75 -182 -117 -301 -117c-195 0 -325 112 -291 305c29 166 167 279 534 312l140 13c23 129 -35 193 -155 193
c-113 0 -211 -52 -300 -115l-84 164c85 59 226 129 397 129zM377 151c104 0 206 57 280 154l26 145l-86 -9c-267 -27 -328 -94 -342 -173c-14 -81 35 -117 122 -117z" />
    <glyph glyph-name="uni01CE.ss01" horiz-adv-x="1035" 
d="M703 1113h-181l-169 298l109 63l168 -224l250 224l96 -63zM569 983c257 0 399 -149 356 -396l-103 -587h-204l11 99c-85 -75 -182 -117 -301 -117c-195 0 -325 112 -291 305c29 166 167 279 534 312l140 13c23 129 -35 193 -155 193c-113 0 -211 -52 -300 -115l-84 164
c85 59 226 129 397 129zM377 151c104 0 206 57 280 154l26 145l-86 -9c-267 -27 -328 -94 -342 -173c-14 -81 35 -117 122 -117z" />
    <glyph glyph-name="acircumflex.ss01" horiz-adv-x="1035" 
d="M648 1296l-250 -224l-97 64l270 298h182l172 -298l-109 -64zM569 983c257 0 399 -149 356 -396l-103 -587h-204l11 99c-85 -75 -182 -117 -301 -117c-195 0 -325 112 -291 305c29 166 167 279 534 312l140 13c23 129 -35 193 -155 193c-113 0 -211 -52 -300 -115l-84 164
c85 59 226 129 397 129zM377 151c104 0 206 57 280 154l26 145l-86 -9c-267 -27 -328 -94 -342 -173c-14 -81 35 -117 122 -117z" />
    <glyph glyph-name="adieresis.ss01" horiz-adv-x="1035" 
d="M431 1136c-77 0 -133 66 -119 146c11 64 73 112 135 112c78 0 134 -64 119 -146c-11 -62 -72 -112 -135 -112zM845 1394c79 0 133 -64 119 -146c-11 -62 -70 -112 -134 -112c-78 0 -133 66 -119 146c10 64 71 112 134 112zM569 983c257 0 399 -149 356 -396l-103 -587
h-204l11 99c-85 -75 -182 -117 -301 -117c-195 0 -325 112 -291 305c29 166 167 279 534 312l140 13c23 129 -35 193 -155 193c-113 0 -211 -52 -300 -115l-84 164c85 59 226 129 397 129zM377 151c104 0 206 57 280 154l26 145l-86 -9c-267 -27 -328 -94 -342 -173
c-14 -81 35 -117 122 -117z" />
    <glyph glyph-name="agrave.ss01" horiz-adv-x="1035" 
d="M711 1166l-91 -90l-297 289l138 131zM569 983c257 0 399 -149 356 -396l-103 -587h-204l11 99c-85 -75 -182 -117 -301 -117c-195 0 -325 112 -291 305c29 166 167 279 534 312l140 13c23 129 -35 193 -155 193c-113 0 -211 -52 -300 -115l-84 164c85 59 226 129 397 129
zM377 151c104 0 206 57 280 154l26 145l-86 -9c-267 -27 -328 -94 -342 -173c-14 -81 35 -117 122 -117z" />
    <glyph glyph-name="amacron.ss01" horiz-adv-x="1035" 
d="M328 1304h635l-25 -143h-635zM569 983c257 0 399 -149 356 -396l-103 -587h-204l11 99c-85 -75 -182 -117 -301 -117c-195 0 -325 112 -291 305c29 166 167 279 534 312l140 13c23 129 -35 193 -155 193c-113 0 -211 -52 -300 -115l-84 164c85 59 226 129 397 129z
M377 151c104 0 206 57 280 154l26 145l-86 -9c-267 -27 -328 -94 -342 -173c-14 -81 35 -117 122 -117z" />
    <glyph glyph-name="aogonek.ss01" horiz-adv-x="1035" 
d="M822 0c-157 -63 -299 -159 -320 -278c-11 -66 25 -91 85 -91c68 0 143 36 201 88l79 -139c-95 -82 -205 -112 -303 -106c-154 8 -237 104 -212 244c20 121 121 214 272 282h-6l11 99c-85 -75 -182 -117 -301 -117c-195 0 -325 112 -291 305c29 166 167 279 534 312
l140 13c23 129 -35 193 -155 193c-113 0 -211 -52 -300 -115l-84 164c85 59 226 129 397 129c257 0 399 -149 356 -396zM377 151c104 0 206 57 280 154l26 145l-86 -9c-267 -27 -328 -94 -342 -173c-14 -81 35 -117 122 -117z" />
    <glyph glyph-name="aring.ss01" horiz-adv-x="1035" 
d="M641 1113c-134 0 -226 112 -201 245c19 116 132 211 250 211c132 0 222 -111 199 -244c-21 -116 -131 -212 -248 -212zM547 1325c-8 -63 31 -105 91 -105c75 0 141 58 149 138c6 57 -34 107 -94 107c-74 0 -139 -66 -146 -140zM569 983c257 0 399 -149 356 -396
l-103 -587h-204l11 99c-85 -75 -182 -117 -301 -117c-195 0 -325 112 -291 305c29 166 167 279 534 312l140 13c23 129 -35 193 -155 193c-113 0 -211 -52 -300 -115l-84 164c85 59 226 129 397 129zM377 151c104 0 206 57 280 154l26 145l-86 -9
c-267 -27 -328 -94 -342 -173c-14 -81 35 -117 122 -117z" />
    <glyph glyph-name="atilde.ss01" horiz-adv-x="1035" 
d="M521 1226c-69 0 -116 -77 -132 -162l-134 16c28 160 121 286 265 286c94 0 134 -55 166 -108c18 -29 38 -56 81 -56c64 0 109 62 126 162l133 -16c-30 -170 -123 -286 -260 -286c-103 0 -141 57 -170 108c-22 34 -38 56 -75 56zM562 983c257 0 399 -149 356 -396
l-103 -587h-204l11 99c-85 -75 -182 -117 -301 -117c-195 0 -325 112 -291 305c29 166 167 279 534 312l140 13c23 129 -35 193 -155 193c-113 0 -211 -52 -300 -115l-84 164c85 59 226 129 397 129zM370 151c104 0 206 57 280 154l26 145l-86 -9
c-267 -27 -328 -94 -342 -173c-14 -81 35 -117 122 -117z" />
    <glyph glyph-name="dcaron.ss01" horiz-adv-x="1257" 
d="M1057 1536h228l-270 -1536h-216l17 127c-86 -86 -201 -146 -348 -146c-262 0 -447 224 -396 518c49 276 295 484 541 484c157 0 260 -66 319 -162zM1565 1536h242l-379 -573h-148zM526 188c171 0 328 139 356 311c26 155 -76 278 -231 278c-170 0 -328 -139 -356 -311
c-25 -155 77 -278 231 -278z" />
    <glyph glyph-name="gcommaaccent.ss01" horiz-adv-x="1260" 
d="M1025 1536l-209 -419h-237l303 419h143zM956 963h229l-167 -953c-55 -311 -308 -510 -598 -510c-184 0 -358 94 -436 254l164 122c54 -112 156 -172 271 -172c177 0 340 136 373 322l15 88c-80 -79 -187 -133 -325 -133c-279 0 -463 224 -411 518c50 277 294 484 555 484
c154 0 251 -63 307 -156zM525 188c169 0 329 140 355 311c26 155 -77 278 -230 278c-171 0 -328 -139 -356 -311c-24 -154 75 -278 231 -278z" />
    <glyph glyph-name="lcaron.ss01" horiz-adv-x="544" 
d="M73 0l270 1536h228l-270 -1536h-228zM561 963l285 573h242l-379 -573h-148z" />
    <glyph glyph-name="tcaron.ss01" horiz-adv-x="668" 
d="M909 1644h242l-379 -573h-148zM595 1309l-61 -346h190l-33 -189h-190l-136 -774h-229l135 774h-192l32 189h193l61 346h230z" />
    <glyph glyph-name="dcaron.ss02" horiz-adv-x="1257" 
d="M1057 1536h228l-270 -1536h-216l17 127c-86 -86 -201 -146 -348 -146c-262 0 -447 224 -396 518c49 276 295 484 541 484c157 0 260 -66 319 -162zM1565 1536h242l-379 -573h-148zM526 188c171 0 328 139 356 311c26 155 -76 278 -231 278c-170 0 -328 -139 -356 -311
c-25 -155 77 -278 231 -278z" />
    <glyph glyph-name="gcommaaccent.ss02" horiz-adv-x="1260" 
d="M1025 1536l-209 -419h-237l303 419h143zM956 963h229l-167 -953c-55 -311 -308 -510 -598 -510c-184 0 -358 94 -436 254l164 122c54 -112 156 -172 271 -172c177 0 340 136 373 322l15 88c-80 -79 -187 -133 -325 -133c-279 0 -463 224 -411 518c50 277 294 484 555 484
c154 0 251 -63 307 -156zM525 188c169 0 329 140 355 311c26 155 -77 278 -230 278c-171 0 -328 -139 -356 -311c-24 -154 75 -278 231 -278z" />
    <glyph glyph-name="lcaron.ss02" horiz-adv-x="544" 
d="M73 0l270 1536h228l-270 -1536h-228zM561 963l285 573h242l-379 -573h-148z" />
    <glyph glyph-name="tcaron.ss02" horiz-adv-x="668" 
d="M909 1644h242l-379 -573h-148zM595 1309l-61 -346h190l-33 -189h-190l-136 -774h-229l135 774h-192l32 189h193l61 346h230z" />
    <glyph glyph-name="f_t" horiz-adv-x="1278" 
d="M1333 963l-33 -189h-190l-136 -774h-229l135 774h-393l-136 -774h-229l137 774h-163l33 189h163l49 277c34 201 173 320 361 320c71 0 127 -16 150 -35l-24 -202c-24 23 -65 32 -97 32c-84 0 -154 -67 -170 -158l-41 -234h393l61 346h230l-61 -346h190z" />
    <glyph glyph-name="t_t" horiz-adv-x="1264" 
d="M1319 963l-33 -189h-190l-136 -774h-229l135 774h-365l-136 -774h-229l135 774h-192l32 189h193l61 346h230l-61 -346h365l61 346h230l-61 -346h190z" />
    <glyph glyph-name="zero.lf" horiz-adv-x="1322" 
d="M588 -20c-340 0 -519 333 -435 805c80 454 343 771 683 771c353 0 517 -333 434 -805c-81 -454 -359 -771 -682 -771zM594 184c208 0 385 239 449 601c64 359 -36 553 -213 553c-196 0 -383 -210 -449 -587c-61 -344 19 -567 213 -567z" />
    <glyph glyph-name="one.lf" horiz-adv-x="757" 
d="M250 0l231 1318h-309l39 218h541l-270 -1536h-232z" />
    <glyph glyph-name="two.lf" horiz-adv-x="1180" 
d="M1155 1117c-49 -282 -295 -527 -742 -899h650l-38 -218h-1059l10 99c802 687 918 858 950 1041c27 148 -72 211 -190 211c-161 0 -282 -110 -309 -270l-240 17c51 286 284 462 562 461c279 -2 452 -174 406 -442z" />
    <glyph glyph-name="three.lf" horiz-adv-x="1217" 
d="M523 -20c-305 0 -527 172 -475 467l232 -14c-29 -165 84 -245 247 -245c194 0 341 111 372 285c29 161 -79 246 -255 246h-146l35 197h118c142 0 266 99 290 241c22 119 -49 193 -185 193c-143 0 -261 -83 -283 -213l-230 16c44 253 267 403 516 403
c269 0 448 -172 405 -416c-27 -149 -130 -255 -263 -309c156 -48 263 -186 224 -403c-48 -275 -300 -448 -602 -448z" />
    <glyph glyph-name="four.lf" horiz-adv-x="1265" 
d="M1241 522l-39 -211h-255l-55 -311h-233l55 311h-708l29 176l828 1049h299l-178 -1014h257zM293 522h458l136 776z" />
    <glyph glyph-name="five.lf" horiz-adv-x="1257" 
d="M1253 1322h-662l-125 -370c85 55 194 85 308 85c277 0 453 -212 398 -525c-55 -316 -323 -530 -622 -530c-275 0 -501 171 -467 464l240 -8c-1 -169 117 -232 242 -232c178 0 335 136 369 331c33 180 -69 298 -220 298c-110 0 -231 -54 -313 -156l-244 7l296 850h839z
" />
    <glyph glyph-name="six.lf" horiz-adv-x="1218" 
d="M759 1034c229 -12 452 -220 406 -526c-44 -290 -327 -526 -618 -526c-314 0 -529 228 -485 530c18 126 84 245 189 360l640 664h280l-498 -506c26 4 54 5 86 4zM943 540c24 179 -87 296 -256 296c-211 0 -374 -159 -400 -355c-23 -172 84 -283 267 -283
c198 0 364 154 389 342z" />
    <glyph glyph-name="seven.lf" horiz-adv-x="1163" 
d="M225 1536h1097l-27 -163l-995 -1373h-276l977 1323h-814z" />
    <glyph glyph-name="eight.lf" horiz-adv-x="1191" 
d="M522 -20c-298 0 -489 214 -441 489c30 173 152 316 313 389c-90 72 -122 186 -97 322c37 213 239 376 474 376c250 0 406 -179 365 -410c-23 -130 -93 -238 -205 -302c132 -83 202 -231 170 -408c-45 -258 -293 -456 -579 -456zM664 919c129 0 245 102 265 232
c18 113 -55 200 -168 200c-130 0 -247 -103 -268 -234c-17 -112 57 -198 171 -198zM533 184c166 0 316 137 341 303c24 149 -73 261 -223 261c-164 0 -312 -128 -338 -294c-23 -149 72 -270 220 -270z" />
    <glyph glyph-name="nine.lf" horiz-adv-x="1219" 
d="M665 1554c314 0 529 -228 485 -530c-18 -126 -84 -245 -189 -360l-640 -664h-280l521 529c-33 -7 -69 -11 -110 -11c-230 0 -450 210 -405 510c44 290 327 526 618 526zM925 1055c19 172 -90 283 -273 283c-199 0 -361 -154 -382 -342c-20 -179 93 -296 262 -296
c211 0 370 159 393 355z" />
    <glyph glyph-name="zero.dnom" horiz-adv-x="795" 
d="M325 -12c-216 0 -323 196 -271 489c49 276 207 457 407 457c215 0 325 -197 273 -490c-49 -276 -210 -456 -409 -456zM326 161c101 0 201 126 234 316c30 174 -11 284 -97 284c-104 0 -200 -126 -234 -317c-30 -173 9 -283 97 -283z" />
    <glyph glyph-name="one.dnom" horiz-adv-x="466" 
d="M77 0l133 755h-132l30 167h309l-162 -922h-178z" />
    <glyph glyph-name="two.dnom" horiz-adv-x="711" 
d="M653 646c-24 -141 -135 -283 -369 -480h312l-30 -166h-619l7 80c447 389 512 493 529 583c16 91 -37 110 -84 108c-90 -1 -145 -68 -156 -138l-177 16c28 178 166 287 336 287c176 0 281 -114 251 -290z" />
    <glyph glyph-name="three.dnom" horiz-adv-x="696" 
d="M625 670c-12 -69 -50 -125 -107 -162c70 -52 106 -136 88 -240c-28 -156 -177 -280 -345 -280c-174 0 -295 121 -267 281l179 -14c-11 -62 32 -96 89 -96c82 0 157 65 171 148c12 66 -28 100 -101 100h-96l27 158h70c59 0 120 55 131 120c9 50 -23 80 -72 80
c-62 0 -114 -42 -123 -91l-175 19c27 147 151 241 297 241c158 0 260 -114 234 -264z" />
    <glyph glyph-name="four.dnom" horiz-adv-x="761" 
d="M693 922l-99 -561h81l-30 -166h-80l-34 -195h-179l34 195h-438l18 112l488 615h239zM204 361h211l64 366z" />
    <glyph glyph-name="five.dnom" horiz-adv-x="797" 
d="M746 759h-396l-59 -177c41 26 104 48 176 48c163 0 268 -124 234 -321c-35 -196 -197 -320 -374 -320c-175 0 -315 109 -301 282l188 -4c4 -78 57 -106 119 -106c87 0 168 69 186 178c16 87 -30 137 -102 137c-59 0 -126 -37 -169 -87l-189 7l186 526h531z" />
    <glyph glyph-name="six.dnom" horiz-adv-x="719" 
d="M427 624c134 -12 267 -143 234 -328c-30 -175 -202 -311 -377 -306c-194 3 -330 144 -297 334c13 70 52 136 100 197l378 401h215l-285 -295c10 0 21 -1 32 -3zM493 329c13 88 -36 144 -117 148c-114 3 -197 -79 -215 -185c-13 -85 32 -136 121 -140
c107 -4 194 78 211 177z" />
    <glyph glyph-name="seven.dnom" horiz-adv-x="653" 
d="M106 922h632l-20 -131l-564 -791h-212l553 759h-418z" />
    <glyph glyph-name="eight.dnom" horiz-adv-x="743" 
d="M299 -12c-193 0 -312 133 -282 305c17 100 85 179 174 226c-43 44 -59 110 -46 189c23 129 144 226 291 226c160 0 261 -113 236 -260c-12 -73 -50 -133 -107 -171c73 -53 108 -140 89 -243c-26 -155 -177 -272 -355 -272zM376 560c69 0 129 56 139 125
c8 54 -27 93 -80 93c-69 0 -130 -55 -139 -126c-9 -52 27 -92 80 -92zM303 144c88 0 167 74 176 164c11 71 -36 123 -108 123c-88 0 -164 -67 -176 -156c-10 -73 36 -131 108 -131z" />
    <glyph glyph-name="nine.dnom" horiz-adv-x="720" 
d="M430 932c194 0 330 -145 296 -335c-13 -69 -50 -135 -101 -195l-376 -402h-217l288 298c-8 0 -17 0 -25 1c-149 8 -277 130 -245 326c30 175 204 307 380 307zM552 630c14 84 -33 139 -124 139c-101 0 -190 -77 -207 -177c-14 -86 35 -146 121 -146c109 0 193 78 210 184
z" />
    <glyph glyph-name="zero.numr" horiz-adv-x="795" 
d="M434 608c-216 0 -323 196 -271 489c49 276 207 457 407 457c215 0 325 -197 273 -490c-49 -276 -210 -456 -409 -456zM435 781c101 0 201 126 234 316c30 174 -11 284 -97 284c-104 0 -200 -126 -234 -317c-30 -173 9 -283 97 -283z" />
    <glyph glyph-name="one.numr" horiz-adv-x="466" 
d="M185 614l133 755h-132l30 167h309l-162 -922h-178z" />
    <glyph glyph-name="two.numr" horiz-adv-x="711" 
d="M761 1260c-24 -141 -135 -283 -369 -480h312l-30 -166h-619l7 80c447 389 512 493 529 583c16 91 -37 110 -84 108c-90 -1 -145 -68 -156 -138l-177 16c28 178 166 287 336 287c176 0 281 -114 251 -290z" />
    <glyph glyph-name="three.numr" horiz-adv-x="696" 
d="M733 1284c-12 -69 -50 -125 -107 -162c70 -52 106 -136 88 -240c-28 -156 -177 -280 -345 -280c-174 0 -295 121 -267 281l179 -14c-11 -62 32 -96 89 -96c82 0 157 65 171 148c12 66 -28 100 -101 100h-96l27 158h70c59 0 120 55 131 120c9 50 -23 80 -72 80
c-62 0 -114 -42 -123 -91l-175 19c27 147 151 241 297 241c158 0 260 -114 234 -264z" />
    <glyph glyph-name="four.numr" horiz-adv-x="761" 
d="M801 1536l-99 -561h81l-30 -166h-80l-34 -195h-179l34 195h-438l18 112l488 615h239zM312 975h211l64 366z" />
    <glyph glyph-name="five.numr" horiz-adv-x="797" 
d="M854 1373h-396l-59 -177c41 26 104 48 176 48c163 0 268 -124 234 -321c-35 -196 -197 -320 -374 -320c-175 0 -315 109 -301 282l188 -4c4 -78 57 -106 119 -106c87 0 168 69 186 178c16 87 -30 137 -102 137c-59 0 -126 -37 -169 -87l-189 7l186 526h531z" />
    <glyph glyph-name="six.numr" horiz-adv-x="719" 
d="M535 1238c134 -12 267 -143 234 -328c-30 -175 -202 -311 -377 -306c-194 3 -330 144 -297 334c13 70 52 136 100 197l378 401h215l-285 -295c10 0 21 -1 32 -3zM601 943c13 88 -36 144 -117 148c-114 3 -197 -79 -215 -185c-13 -85 32 -136 121 -140
c107 -4 194 78 211 177z" />
    <glyph glyph-name="seven.numr" horiz-adv-x="653" 
d="M214 1536h632l-20 -131l-564 -791h-212l553 759h-418z" />
    <glyph glyph-name="eight.numr" horiz-adv-x="743" 
d="M407 602c-193 0 -312 133 -282 305c17 100 85 179 174 226c-43 44 -59 110 -46 189c23 129 144 226 291 226c160 0 261 -113 236 -260c-12 -73 -50 -133 -107 -171c73 -53 108 -140 89 -243c-26 -155 -177 -272 -355 -272zM484 1174c69 0 129 56 139 125
c8 54 -27 93 -80 93c-69 0 -130 -55 -139 -126c-9 -52 27 -92 80 -92zM411 758c88 0 167 74 176 164c11 71 -36 123 -108 123c-88 0 -164 -67 -176 -156c-10 -73 36 -131 108 -131z" />
    <glyph glyph-name="nine.numr" horiz-adv-x="720" 
d="M538 1546c194 0 330 -145 296 -335c-13 -69 -50 -135 -101 -195l-376 -402h-217l288 298c-8 0 -17 0 -25 1c-149 8 -277 130 -245 326c30 175 204 307 380 307zM660 1244c14 84 -33 139 -124 139c-101 0 -190 -77 -207 -177c-14 -86 35 -146 121 -146
c109 0 193 78 210 184z" />
    <glyph glyph-name="comma.ss01" horiz-adv-x="639" 
d="M22 -376l209 642h237l-303 -642h-143z" />
    <glyph glyph-name="semicolon.ss01" horiz-adv-x="638" 
d="M411 765c-85 0 -143 71 -128 157c11 66 77 122 146 122c83 0 142 -72 128 -155c-12 -69 -79 -124 -146 -124zM-12 -376l209 642h237l-303 -642h-143z" />
    <glyph glyph-name="comma.ss02" horiz-adv-x="639" 
d="M22 -376l209 642h237l-303 -642h-143z" />
    <glyph glyph-name="semicolon.ss02" horiz-adv-x="638" 
d="M411 765c-85 0 -143 71 -128 157c11 66 77 122 146 122c83 0 142 -72 128 -155c-12 -69 -79 -124 -146 -124zM-12 -376l209 642h237l-303 -642h-143z" />
    <glyph glyph-name="quotedblbase.ss01" horiz-adv-x="960" 
d="M384 102c-4 -25 -16 -48 -32 -67l-230 -411h-145l185 379c-39 28 -61 77 -51 132c11 67 78 124 145 124c84 0 142 -73 128 -157zM651 259c84 0 142 -73 128 -157c-4 -25 -16 -48 -32 -67l-229 -411h-145l184 379c-39 27 -61 77 -51 132c11 67 78 124 145 124z" />
    <glyph glyph-name="quotedblleft.ss01" horiz-adv-x="977" 
d="M174 895l303 641h145l-209 -641h-239zM574 895l303 641h145l-210 -641h-238z" />
    <glyph glyph-name="quotedblright.ss01" horiz-adv-x="977" 
d="M215 895l209 641h239l-304 -641h-144zM615 895l209 641h238l-303 -641h-144z" />
    <glyph glyph-name="quoteleft.ss01" horiz-adv-x="576" 
d="M174 895l303 641h143l-209 -641h-237z" />
    <glyph glyph-name="quoteright.ss01" horiz-adv-x="577" 
d="M215 895l209 641h239l-304 -641h-144z" />
    <glyph glyph-name="quotesinglbase.ss01" horiz-adv-x="566" 
d="M47 -376l96 642h235l-190 -642h-141z" />
    <glyph glyph-name="quotedblleft.ss02" horiz-adv-x="977" 
d="M174 895l303 641h145l-209 -641h-239zM574 895l303 641h145l-210 -641h-238z" />
    <glyph glyph-name="quotedblright.ss02" horiz-adv-x="977" 
d="M215 895l209 641h239l-304 -641h-144zM615 895l209 641h238l-303 -641h-144z" />
    <glyph glyph-name="quoteleft.ss02" horiz-adv-x="577" 
d="M174 895l303 641h145l-209 -641h-239z" />
    <glyph glyph-name="quoteright.ss02" horiz-adv-x="577" 
d="M215 895l209 641h239l-304 -641h-144z" />
    <glyph glyph-name="quotesinglbase.ss02" horiz-adv-x="566" 
d="M47 -376l96 642h235l-190 -642h-141z" />
    <glyph glyph-name="caroncomb.alt" 
d="M-370 968l236 335c-36 22 -62 79 -42 147c25 59 93 107 152 107c85 0 132 -52 132 -114c0 -33 -11 -67 -36 -98l-285 -377h-157z" />
    <glyph glyph-name="uni0308.case" 
d="M-527 1075c-78 0 -134 66 -120 145c11 65 73 113 135 113c78 0 134 -64 120 -146c-12 -62 -73 -112 -135 -112zM-129 1075c-78 0 -134 66 -120 145c12 65 73 113 135 113c80 0 134 -64 120 -146c-12 -62 -71 -112 -135 -112z" />
    <glyph glyph-name="uni030A.case" 
d="M-201 1094c-134 0 -226 112 -203 245c21 117 134 211 252 211c132 0 221 -110 198 -244c-20 -116 -131 -212 -247 -212zM-204 1201c74 0 141 59 148 138c7 57 -35 107 -93 107c-76 0 -140 -66 -148 -140c-6 -62 33 -105 93 -105z" />
    <glyph glyph-name="caroncomb.alt.ss01" 
d="M-377 963l285 573h242l-379 -573h-148z" />
    <glyph glyph-name="uni03060301" 
d="M-270 1605l-73 94l358 329l99 -131zM-308 1192c-211 0 -343 127 -305 330h153c-19 -117 32 -201 154 -201c144 0 222 100 240 201h154c-38 -219 -197 -330 -396 -330z" />
    <glyph glyph-name="uni03060300" 
d="M-232 1608l-297 289l138 131l250 -330zM-308 1192c-211 0 -343 127 -305 330h153c-19 -117 32 -201 154 -201c144 0 222 100 240 201h154c-38 -219 -197 -330 -396 -330z" />
    <glyph glyph-name="uni03060309" 
d="M-316 1589l23 174c95 18 166 57 176 134c6 44 -22 75 -72 75c-44 0 -84 -18 -119 -45l-69 123c57 41 125 63 187 63c141 0 238 -100 214 -242c-15 -79 -71 -158 -186 -189l-24 -93h-130zM-308 1192c-211 0 -343 127 -305 330h153c-19 -117 32 -201 154 -201
c144 0 222 100 240 201h154c-38 -219 -197 -330 -396 -330z" />
    <glyph glyph-name="uni03060303" 
d="M-135 1594c-103 0 -141 57 -170 108c-22 34 -38 56 -75 56c-69 0 -116 -77 -132 -162l-134 16c28 160 121 286 265 286c94 0 134 -55 166 -108c18 -29 38 -56 81 -56c64 0 109 62 126 162l133 -16c-30 -170 -123 -286 -260 -286zM-344 1192c-211 0 -343 127 -305 330h153
c-19 -117 32 -201 154 -201c144 0 222 100 240 201h154c-38 -219 -197 -330 -396 -330z" />
    <glyph glyph-name="uni03020301" 
d="M-176 1646l-74 94l359 329l99 -131zM-440 1174l-97 64l270 298h182l172 -298l-109 -64l-168 224z" />
    <glyph glyph-name="uni03020300" 
d="M-91 1649l-295 289l137 131l250 -330zM-392 1174l-97 64l271 298h181l172 -298l-109 -64l-167 224z" />
    <glyph glyph-name="uni03020309" 
d="M-206 1630l22 175c96 17 164 64 176 140c8 41 -12 72 -65 72c-47 0 -88 -20 -123 -48l-71 123c56 40 127 62 188 62c141 0 237 -100 212 -241c-13 -80 -70 -158 -186 -189l-23 -94h-130zM-425 1174l-97 64l271 298h181l172 -298l-109 -64l-167 224z" />
    <glyph glyph-name="uni03020303" 
d="M-68 1635c-102 0 -153 60 -178 129c-22 28 -39 35 -58 35c-68 0 -118 -76 -132 -162l-140 16c28 168 125 286 259 286c100 0 155 -62 181 -129c16 -16 30 -35 61 -35c65 0 112 62 130 162l139 -16c-28 -164 -121 -286 -262 -286zM-503 1174l-96 64l270 298h182l171 -298
l-108 -64l-168 224z" />
    </font>
</defs>
</svg>
