<?xml version="1.0" standalone="no"?>
<!DOCTYPE svg PUBLIC "-//W3C//DTD SVG 1.1//EN" "http://www.w3.org/Graphics/SVG/1.1/DTD/svg11.dtd" >
<svg xmlns="http://www.w3.org/2000/svg" xmlns:xlink="http://www.w3.org/1999/xlink" version="1.1">
<metadata>
Created by FontForge 20170910 at Mon Jul  3 13:46:47 2017
 By Jimmy Wärting
Copyright \(c\)2016. Neue Hans Kendrick is a trademark of Alfredo Marco Pradil. All rights reserved.
</metadata>
<defs>
<font id="NeueHansKendrick-Medium" horiz-adv-x="0" >
  <font-face 
    font-family="Neue Hans Kendrick Medium"
    font-weight="500"
    font-stretch="normal"
    units-per-em="2048"
    panose-1="0 0 6 0 0 0 0 0 0 0"
    ascent="1536"
    descent="-512"
    x-height="963"
    cap-height="1536"
    bbox="-1641 -620.31 2692 2625"
    underline-thickness="121"
    underline-position="-100"
    stemh="222"
    stemv="236"
    unicode-range="U+0020-FB02"
  />
<missing-glyph horiz-adv-x="1255" 
d="M186 0v1536h883v-1536h-883zM360 174h535v1188h-535v-1188z" />
    <glyph glyph-name="fi" unicode="fi" horiz-adv-x="1209" 
d="M436 963h614v-963h-226v774h-388v-774h-228v774h-162v189h162v269c0 201 125 328 320 328c64 0 122 -10 147 -30v-212c-29 22 -72 37 -111 37c-78 0 -128 -59 -128 -150v-242zM938 1134c-75 0 -137 61 -137 136c0 76 62 135 137 135c74 0 136 -59 136 -135
c0 -75 -62 -136 -136 -136z" />
    <glyph glyph-name="fl" unicode="fl" horiz-adv-x="1238" 
d="M436 1205v-242h243v-189h-243v-774h-228v774h-162v189h162v269c0 201 125 328 320 328c64 0 122 -10 147 -30v-212c-29 22 -72 37 -111 37c-78 0 -128 -59 -128 -150zM851 1536h228v-1536h-228v1536z" />
    <glyph glyph-name="f_f" unicode="ff" horiz-adv-x="1302" 
d="M1284 963v-194h-245v-769h-228v769h-370v-769h-228v769h-160v5h-2v189h162v269c0 201 125 328 320 328c64 0 122 -10 147 -30v-212c-29 22 -72 37 -111 37c-78 0 -128 -59 -128 -150v-242h370v269c0 201 125 328 320 328c64 0 122 -10 147 -30v-212
c-29 22 -72 37 -111 37c-78 0 -128 -59 -128 -150v-242h245z" />
    <glyph glyph-name="f_f_i" unicode="ffi" horiz-adv-x="1804" 
d="M213 0v774h-167v189h167v269c0 201 125 328 320 328c64 0 122 -10 147 -30v-212c-29 22 -72 37 -111 37c-78 0 -128 -59 -128 -150v-242h370v269c0 201 125 328 320 328c64 0 122 -10 147 -30v-212c-29 22 -72 37 -111 37c-78 0 -128 -59 -128 -150v-242h606v-963h-226
v774h-380v-774h-228v774h-370v-774h-228zM1533 1134c-75 0 -137 61 -137 136c0 76 62 135 137 135c73 0 136 -59 136 -135c0 -75 -63 -136 -136 -136z" />
    <glyph glyph-name="f_f_l" unicode="ffl" horiz-adv-x="1811" 
d="M1039 963h245v-194h-245v-769h-228v769h-370v-769h-228v769h-160v5h-2v189h162v269c0 201 125 328 320 328c64 0 122 -10 147 -30v-212c-29 22 -72 37 -111 37c-78 0 -128 -59 -128 -150v-242h370v269c0 201 125 328 320 328c64 0 122 -10 147 -30v-212
c-29 22 -72 37 -111 37c-78 0 -128 -59 -128 -150v-242zM1424 1536h228v-1536h-228v1536z" />
    <glyph glyph-name=".notdef" horiz-adv-x="1255" 
d="M186 0v1536h883v-1536h-883zM360 174h535v1188h-535v-1188z" />
    <glyph glyph-name="space" unicode=" " horiz-adv-x="506" 
 />
    <glyph glyph-name="exclam" unicode="!" horiz-adv-x="648" 
d="M203 476v1060h228v-1060h-228zM317 -20c-75 0 -139 63 -139 139c0 77 64 140 139 140c76 0 140 -63 140 -140c0 -76 -64 -139 -140 -139z" />
    <glyph glyph-name="quotedbl" unicode="&#x22;" horiz-adv-x="1023" 
d="M229 889l-16 647h215l-10 -647h-189zM604 889l-10 647h216l-15 -647h-191z" />
    <glyph glyph-name="numbersign" unicode="#" horiz-adv-x="1539" 
d="M317 0l49 349h-289l22 165h289l66 439h-291l27 163h285l51 353h162l-48 -353h367l50 353h164l-50 -353h292l-27 -163h-287l-62 -439h287l-22 -165h-287l-53 -349h-162l49 349h-371l-47 -349h-164zM554 514h367l64 439h-369z" />
    <glyph glyph-name="dollar" unicode="$" horiz-adv-x="1246" 
d="M1112 420c0 -240 -161 -387 -369 -428v-163h-212v156c-199 26 -363 134 -455 247l162 164c97 -132 216 -211 374 -211s265 86 265 224c0 156 -155 217 -329 288c-191 79 -403 173 -403 443c0 236 169 386 386 412v158h212v-171c133 -32 239 -107 320 -198l-143 -145
c-116 125 -212 159 -318 159c-123 0 -222 -71 -222 -196c0 -145 141 -204 296 -266c203 -83 436 -175 436 -473z" />
    <glyph glyph-name="percent" unicode="%" horiz-adv-x="1671" 
d="M429 885c-185 0 -336 151 -336 338c0 184 151 333 336 333s334 -149 334 -333c0 -187 -149 -338 -334 -338zM277 0l888 1536h225l-886 -1536h-227zM429 1064c88 0 157 71 157 159c0 85 -71 156 -157 156c-87 0 -159 -70 -159 -156c0 -88 72 -159 159 -159zM1245 -16
c-186 0 -335 150 -335 336c0 184 151 333 335 333c185 0 335 -149 335 -333c0 -185 -150 -336 -335 -336zM1245 161c88 0 158 71 158 159c0 86 -72 156 -158 156c-87 0 -158 -70 -158 -156c0 -88 71 -159 158 -159z" />
    <glyph glyph-name="ampersand" unicode="&#x26;" horiz-adv-x="1486" 
d="M559 -23c-262 0 -457 177 -457 447c0 212 122 317 331 474c-106 121 -148 215 -148 320c0 194 145 337 348 337c202 0 350 -138 350 -326c0 -161 -111 -255 -252 -368l274 -349l215 268l151 -134l-235 -293l278 -354l-268 -2l-155 199c-129 -128 -264 -219 -432 -219z
M605 996c96 70 180 125 180 226c0 90 -72 144 -151 147c-89 2 -152 -56 -152 -150c0 -89 57 -143 123 -223zM549 178c116 0 221 88 312 180l-301 384c-127 -94 -254 -179 -254 -319c0 -130 112 -245 243 -245z" />
    <glyph glyph-name="quotesingle" unicode="'" horiz-adv-x="645" 
d="M228 889l-15 647h219l-14 -647h-190z" />
    <glyph glyph-name="parenleft" unicode="(" horiz-adv-x="657" 
d="M520 -463c-258 179 -425 575 -425 1126c0 542 167 949 425 1126l117 -147c-209 -146 -349 -493 -349 -979c0 -494 140 -832 349 -978z" />
    <glyph glyph-name="parenright" unicode=")" horiz-adv-x="657" 
d="M137 -463l-117 148c209 146 349 484 349 978c0 486 -140 833 -349 979l117 147c258 -177 425 -584 425 -1126c0 -551 -167 -947 -425 -1126z" />
    <glyph glyph-name="asterisk" unicode="*" horiz-adv-x="973" 
d="M358 873l-108 65l166 241l-296 -19v124l296 -21l-166 244l108 62l129 -260l129 260l110 -62l-169 -244l296 21v-124l-296 19l169 -241l-110 -65l-129 261z" />
    <glyph glyph-name="plus" unicode="+" horiz-adv-x="1199" 
d="M503 193v397h-397v193h397v397h193v-397h397v-193h-397v-397h-193z" />
    <glyph glyph-name="comma" unicode="," horiz-adv-x="629" 
d="M480 119c0 -22 -5 -42 -14 -61l-165 -434h-140l115 372c-44 24 -75 70 -75 123c0 75 65 140 140 140s139 -65 139 -140z" />
    <glyph glyph-name="hyphen" unicode="-" horiz-adv-x="1019" 
d="M151 395v172h717v-172h-717z" />
    <glyph glyph-name="period" unicode="." horiz-adv-x="637" 
d="M318 -20c-75 0 -139 62 -139 139c0 75 64 140 139 140c76 0 140 -65 140 -140c0 -77 -64 -139 -140 -139z" />
    <glyph glyph-name="slash" unicode="/" horiz-adv-x="1241" 
d="M-30 -373l1085 2079h216l-1084 -2079h-217z" />
    <glyph glyph-name="zero" unicode="0" horiz-adv-x="1282" 
d="M642 -20c-333 0 -562 325 -562 788s215 788 562 788c345 0 561 -325 561 -788s-231 -788 -561 -788zM643 184c200 0 327 231 327 584c0 368 -141 570 -327 570c-188 0 -329 -202 -329 -570c0 -353 127 -584 329 -584z" />
    <glyph glyph-name="one" unicode="1" horiz-adv-x="1282" 
d="M588 0v1318h-308v218h541v-1536h-233z" />
    <glyph glyph-name="two" unicode="2" horiz-adv-x="1282" 
d="M500 218h659v-218h-1059v93c680 687 760 856 760 1030c0 157 -117 228 -243 228c-154 0 -247 -102 -247 -262l-242 1c0 286 210 470 496 469c271 -2 468 -166 469 -426c0 -291 -209 -539 -593 -915z" />
    <glyph glyph-name="three" unicode="3" horiz-adv-x="1282" 
d="M626 -20c-297 0 -541 164 -541 460l235 1c0 -165 135 -253 305 -253c187 0 306 103 306 269c0 169 -129 262 -306 262h-138v197h125c143 0 241 91 241 224c0 128 -90 210 -234 210c-136 0 -232 -75 -232 -205h-233c0 253 205 411 461 411c261 0 463 -164 463 -399
c0 -158 -90 -269 -207 -320c171 -52 295 -184 295 -393c0 -283 -229 -464 -540 -464z" />
    <glyph glyph-name="four" unicode="4" horiz-adv-x="1282" 
d="M1241 522v-211h-257v-311h-232v311h-707v176l642 1049h297v-1014h257zM290 522h462v780z" />
    <glyph glyph-name="five" unicode="5" horiz-adv-x="1282" 
d="M701 1032c267 0 480 -197 480 -503c0 -325 -237 -547 -544 -547c-268 0 -517 163 -535 460h245c28 -165 163 -236 296 -236c170 0 296 128 296 315c0 188 -131 314 -289 314c-103 0 -209 -55 -274 -149h-239l146 850h837v-214h-662l-64 -398c86 74 197 108 307 108z" />
    <glyph glyph-name="six" unicode="6" horiz-adv-x="1282" 
d="M1191 525c8 -299 -241 -543 -540 -543c-307 0 -555 220 -564 513c-4 135 46 256 134 371l517 670h275l-432 -535c37 11 79 17 130 17c222 0 472 -202 480 -493zM650 198c190 0 321 146 313 325c-8 188 -146 313 -323 313c-204 0 -330 -151 -322 -338
c7 -181 141 -300 332 -300z" />
    <glyph glyph-name="seven" unicode="7" horiz-adv-x="1282" 
d="M100 1536h1096v-163l-754 -1373h-268l746 1323h-820v213z" />
    <glyph glyph-name="eight" unicode="8" horiz-adv-x="1282" 
d="M641 -20c-291 0 -512 206 -512 472c0 175 96 322 244 400c-102 67 -154 178 -154 311c0 222 180 393 423 393c242 0 422 -171 422 -393c0 -133 -52 -244 -153 -311c149 -78 244 -225 244 -400c0 -266 -220 -472 -514 -472zM643 919c120 0 215 94 215 215
c0 122 -95 217 -215 217c-122 0 -217 -95 -217 -217c0 -121 95 -215 217 -215zM641 184c158 0 279 129 279 286c0 158 -121 278 -279 278c-156 0 -277 -120 -277 -278c0 -157 121 -286 277 -286z" />
    <glyph glyph-name="nine" unicode="9" horiz-adv-x="1282" 
d="M1185 1041c4 -135 -46 -256 -134 -371l-517 -670h-275l432 535c-37 -11 -79 -17 -130 -17c-222 0 -472 202 -480 493c-8 299 241 543 540 543c307 0 555 -220 564 -513zM632 700c204 0 330 151 322 338c-7 181 -141 300 -332 300c-190 0 -321 -146 -313 -325
c8 -188 146 -313 323 -313z" />
    <glyph glyph-name="colon" unicode=":" horiz-adv-x="619" 
d="M309 765c-75 0 -140 63 -140 140c0 75 65 139 140 139s140 -64 140 -139c0 -77 -65 -140 -140 -140zM309 -20c-75 0 -140 62 -140 139c0 75 65 140 140 140s140 -65 140 -140c0 -77 -65 -139 -140 -139z" />
    <glyph glyph-name="semicolon" unicode=";" horiz-adv-x="618" 
d="M321 765c-77 0 -140 63 -140 140c0 75 63 139 140 139c75 0 139 -64 139 -139c0 -77 -64 -140 -139 -140zM321 259c75 0 139 -65 139 -140c0 -22 -5 -42 -14 -61l-165 -434h-140l115 372c-44 24 -75 70 -75 123c0 75 65 140 140 140z" />
    <glyph glyph-name="less" unicode="&#x3c;" horiz-adv-x="1348" 
d="M1220 1423v-213l-931 -470l931 -470v-217l-1131 572v231z" />
    <glyph glyph-name="equal" unicode="=" horiz-adv-x="1268" 
d="M237 805v193h795v-193h-795zM237 378v192h795v-192h-795z" />
    <glyph glyph-name="greater" unicode="&#x3e;" horiz-adv-x="1348" 
d="M128 1423l1130 -567v-231l-1130 -572v217l931 470l-931 470v213z" />
    <glyph glyph-name="question" unicode="?" horiz-adv-x="1077" 
d="M428 455v118c0 383 370 244 370 544c0 141 -114 239 -268 239c-155 0 -263 -110 -268 -263h-202c1 264 198 455 470 455c269 0 469 -184 469 -431c0 -391 -365 -307 -365 -538v-124h-206zM538 -20c-76 0 -140 62 -140 139c0 76 64 140 140 140c77 0 139 -64 139 -140
c0 -77 -62 -139 -139 -139z" />
    <glyph glyph-name="at" unicode="@" horiz-adv-x="1751" 
d="M1281 892c-26 -136 -54 -273 -81 -404c-29 -139 -30 -222 65 -222c116 0 206 132 206 342c0 343 -240 527 -564 527c-367 0 -609 -268 -609 -621c0 -380 269 -608 619 -608c199 0 347 55 473 155l87 -118c-157 -125 -358 -185 -575 -185c-452 0 -777 310 -777 759
c0 440 349 765 784 765c374 0 719 -224 719 -659c0 -344 -198 -502 -396 -502c-119 0 -181 68 -189 145c-32 -59 -120 -143 -254 -143c-184 0 -295 140 -295 334c0 229 156 463 406 463c108 0 188 -52 217 -118l20 90h144zM1057 570c3 108 -33 210 -157 210
c-148 0 -234 -177 -234 -329c0 -77 32 -187 153 -187c167 0 234 181 238 306z" />
    <glyph glyph-name="A" unicode="A" horiz-adv-x="1372" 
d="M1112 0l-88 242h-678l-88 -242h-258l610 1536h150l612 -1536h-260zM422 449h527l-263 726z" />
    <glyph glyph-name="B" unicode="B" horiz-adv-x="1378" 
d="M1015 783c162 -54 266 -180 266 -373c0 -250 -193 -410 -434 -410h-649v1536h574c244 0 438 -164 438 -416c0 -161 -74 -275 -195 -337zM979 1099c0 127 -105 219 -233 219h-317v-446h317c128 0 233 98 233 227zM815 218c130 0 234 94 234 221s-104 225 -234 225h-386
v-446h386z" />
    <glyph glyph-name="C" unicode="C" horiz-adv-x="1500" 
d="M874 -20c-437 0 -788 350 -788 788s351 788 788 788c216 0 438 -100 579 -255l-174 -151c-100 112 -250 178 -405 178c-312 0 -557 -244 -557 -560s245 -560 557 -560c155 0 305 66 405 178l174 -151c-141 -155 -363 -255 -579 -255z" />
    <glyph glyph-name="D" unicode="D" horiz-adv-x="1511" 
d="M198 0v1536h455c454 0 774 -344 774 -768s-320 -768 -774 -768h-455zM433 221h212c318 0 540 234 540 547s-222 547 -540 547h-212v-1094z" />
    <glyph glyph-name="E" unicode="E" horiz-adv-x="1188" 
d="M1085 1319h-651v-442h565v-218h-565v-442h651v-217h-887v1536h887v-217z" />
    <glyph glyph-name="F" unicode="F" horiz-adv-x="1143" 
d="M1085 1319h-651v-442h565v-218h-565v-659h-236v1536h887v-217z" />
    <glyph glyph-name="G" unicode="G" horiz-adv-x="1635" 
d="M869 834h633v-834h-184l-21 105c-125 -78 -276 -125 -423 -125c-437 0 -788 350 -788 788s351 788 788 788c216 0 438 -100 579 -255l-174 -151c-100 112 -250 178 -405 178c-312 0 -557 -244 -557 -560s245 -560 557 -560c150 0 296 62 396 168v249h-401v209z" />
    <glyph glyph-name="H" unicode="H" horiz-adv-x="1622" 
d="M1188 1536h236v-1536h-236v658h-754v-658h-236v1536h236v-656h754v656z" />
    <glyph glyph-name="I" unicode="I" horiz-adv-x="632" 
d="M198 0v1536h236v-1536h-236z" />
    <glyph glyph-name="J" unicode="J" horiz-adv-x="1052" 
d="M365 -20c-134 0 -253 32 -346 91l104 201c65 -45 163 -72 243 -72c183 0 280 137 280 319v1017h236v-1059c0 -287 -203 -497 -517 -497z" />
    <glyph glyph-name="K" unicode="K" horiz-adv-x="1393" 
d="M1367 0h-306l-627 741v-741h-236v1536h236v-721l609 721h301l-651 -758z" />
    <glyph glyph-name="L" unicode="L" horiz-adv-x="1012" 
d="M434 221h545v-221h-781v1536h236v-1315z" />
    <glyph glyph-name="M" unicode="M" horiz-adv-x="1872" 
d="M1538 1536h160v-1536h-234v1014l-530 -840l-522 834v-1008h-236v1536h162l597 -948z" />
    <glyph glyph-name="N" unicode="N" horiz-adv-x="1577" 
d="M1167 1536h236v-1536h-94l-897 1041v-1041h-236v1536h92l899 -1037v1037z" />
    <glyph glyph-name="O" unicode="O" horiz-adv-x="1746" 
d="M873 -20c-436 0 -789 352 -789 788s353 788 789 788s788 -352 788 -788s-352 -788 -788 -788zM873 211c312 0 557 245 557 557s-245 557 -557 557c-311 0 -557 -245 -557 -557s246 -557 557 -557z" />
    <glyph glyph-name="P" unicode="P" horiz-adv-x="1372" 
d="M872 1536c247 0 441 -198 441 -442c0 -247 -194 -436 -441 -436h-438v-658h-236v1536h674zM841 867c135 0 241 83 241 224c0 137 -106 228 -241 228h-407v-452h407z" />
    <glyph glyph-name="Q" unicode="Q" horiz-adv-x="1799" 
d="M1723 124l-159 -158l-192 192c-136 -111 -309 -178 -499 -178c-436 0 -789 352 -789 788s353 788 789 788s788 -352 788 -788c0 -167 -52 -322 -140 -450zM873 211c127 0 243 41 336 110l-176 176l147 148l172 -165c50 84 78 182 78 288c0 312 -245 557 -557 557
c-311 0 -557 -245 -557 -557s246 -557 557 -557z" />
    <glyph glyph-name="R" unicode="R" horiz-adv-x="1422" 
d="M1091 0l-341 658h-316v-658h-236v1536h674c247 0 441 -198 441 -442c0 -205 -133 -370 -319 -420l353 -674h-256zM434 1319v-452h407c135 0 241 83 241 224c0 137 -106 228 -241 228h-407z" />
    <glyph glyph-name="S" unicode="S" horiz-adv-x="1164" 
d="M597 -20c-238 0 -437 123 -542 252l162 164c97 -132 216 -211 374 -211s265 86 265 224c0 156 -155 217 -329 288c-191 79 -403 173 -403 443c0 260 206 416 455 416c203 0 355 -94 463 -215l-143 -145c-116 125 -212 159 -318 159c-123 0 -222 -71 -222 -196
c0 -145 141 -204 296 -266c203 -83 436 -175 436 -473c0 -286 -230 -440 -494 -440z" />
    <glyph glyph-name="T" unicode="T" horiz-adv-x="1118" 
d="M1085 1536v-221h-408v-1315h-236v1315h-409v221h1053z" />
    <glyph glyph-name="U" unicode="U" horiz-adv-x="1536" 
d="M767 -20c-345 0 -602 221 -602 532v1024h236v-983c0 -207 155 -352 366 -352s367 145 367 352v983h237v-1024c0 -311 -257 -532 -604 -532z" />
    <glyph glyph-name="V" unicode="V" horiz-adv-x="1360" 
d="M1108 1536h258l-612 -1536h-150l-610 1536h256l430 -1142z" />
    <glyph glyph-name="W" unicode="W" horiz-adv-x="2013" 
d="M1763 1536h256l-600 -1536h-166l-247 610l-248 -610h-166l-598 1536h254l436 -1193l208 548l-261 645h243l132 -345l131 345h245l-262 -645l210 -549z" />
    <glyph glyph-name="X" unicode="X" horiz-adv-x="1380" 
d="M1344 0h-278l-377 589l-376 -589h-278l527 783l-506 753h276l358 -556l358 556h276l-507 -751z" />
    <glyph glyph-name="Y" unicode="Y" horiz-adv-x="1335" 
d="M1322 1536l-535 -809v-727h-236v722l-538 814h279l377 -589l378 589h275z" />
    <glyph glyph-name="Z" unicode="Z" horiz-adv-x="1347" 
d="M1311 1536v-23l-881 -1292h843v-221h-1247v31l876 1284h-790v221h1199z" />
    <glyph glyph-name="bracketleft" unicode="[" horiz-adv-x="683" 
d="M190 -512v2320h464v-166h-264v-1987h264v-167h-464z" />
    <glyph glyph-name="backslash" unicode="\" horiz-adv-x="1241" 
d="M1055 -373l-1085 2079h217l1084 -2079h-216z" />
    <glyph glyph-name="bracketright" unicode="]" horiz-adv-x="683" 
d="M493 -512h-464v167h264v1987h-264v166h464v-2320z" />
    <glyph glyph-name="asciicircum" unicode="^" horiz-adv-x="1485" 
d="M1414 406h-192l-479 952l-480 -952h-193l570 1130h205z" />
    <glyph glyph-name="underscore" unicode="_" horiz-adv-x="1453" 
d="M214 -223v172h1024v-172h-1024z" />
    <glyph glyph-name="grave" unicode="`" horiz-adv-x="494" 
d="M343 1137l-340 289l119 131l302 -330z" />
    <glyph glyph-name="a" unicode="a" horiz-adv-x="1256" 
d="M870 963h229v-963h-216l-5 139c-73 -93 -184 -158 -338 -158c-253 0 -471 216 -471 502c0 284 218 500 471 500c148 0 257 -60 330 -148v128zM589 188c162 0 291 131 291 295c0 163 -129 294 -291 294c-163 0 -292 -131 -292 -294c0 -164 129 -295 292 -295z" />
    <glyph glyph-name="b" unicode="b" horiz-adv-x="1257" 
d="M717 983c253 0 471 -216 471 -500c0 -286 -218 -502 -471 -502c-154 0 -265 65 -338 158l-5 -139h-216v1536h229v-701c73 88 182 148 330 148zM668 188c163 0 292 131 292 295c0 163 -129 294 -292 294c-162 0 -291 -131 -291 -294c0 -164 129 -295 291 -295z" />
    <glyph glyph-name="c" unicode="c" horiz-adv-x="1086" 
d="M574 -18c-287 0 -509 220 -509 499s222 500 509 500c208 0 383 -120 459 -298l-197 -85c-45 102 -141 172 -262 172c-166 0 -289 -125 -289 -289c0 -163 123 -288 289 -288c121 0 217 69 262 171l197 -85c-76 -178 -251 -297 -459 -297z" />
    <glyph glyph-name="d" unicode="d" horiz-adv-x="1257" 
d="M870 1536h229v-1536h-216l-5 139c-73 -93 -184 -158 -338 -158c-253 0 -471 216 -471 502c0 284 218 500 471 500c148 0 257 -60 330 -148v701zM589 188c162 0 291 131 291 295c0 163 -129 294 -291 294c-163 0 -292 -131 -292 -294c0 -164 129 -295 292 -295z" />
    <glyph glyph-name="e" unicode="e" horiz-adv-x="1130" 
d="M1071 492v-49h-781c17 -163 136 -272 289 -272c107 0 203 52 258 144l184 -76c-80 -159 -242 -257 -440 -257c-301 0 -514 222 -514 499c0 278 217 501 507 501c278 0 497 -202 497 -490zM576 796c-131 0 -230 -76 -269 -193h526c-39 117 -129 193 -257 193z" />
    <glyph glyph-name="f" unicode="f" horiz-adv-x="692" 
d="M679 963v-189h-243v-774h-228v774h-162v189h162v269c0 201 125 328 320 328c64 0 122 -10 147 -30v-212c-29 22 -72 37 -111 37c-78 0 -128 -59 -128 -150v-242h243z" />
    <glyph glyph-name="g" unicode="g" horiz-adv-x="1260" 
d="M871 963h230v-945c0 -311 -227 -518 -523 -518c-178 0 -364 87 -467 247l147 136c75 -112 189 -179 312 -179c170 0 301 128 301 314v107c-68 -85 -171 -144 -317 -144c-271 0 -487 216 -487 502c0 285 216 500 486 500c145 0 249 -58 318 -144v124zM587 188
c161 0 291 132 291 295s-130 294 -291 294c-164 0 -292 -131 -292 -294s128 -295 292 -295z" />
    <glyph glyph-name="h" unicode="h" horiz-adv-x="1117" 
d="M634 981c199 0 350 -157 350 -356v-625h-228v601c0 101 -78 175 -179 175c-106 0 -188 -75 -190 -174v-602h-228v1536h228v-656c63 63 148 101 247 101z" />
    <glyph glyph-name="i" unicode="i" horiz-adv-x="544" 
d="M273 1134c-75 0 -137 61 -137 136c0 76 62 135 137 135c73 0 136 -59 136 -135c0 -75 -63 -136 -136 -136zM159 0v963h226v-963h-226z" />
    <glyph glyph-name="j" unicode="j" horiz-adv-x="544" 
d="M273 1134c-76 0 -138 61 -138 136c0 76 62 135 138 135c73 0 135 -59 135 -135c0 -75 -62 -136 -135 -136zM159 -481v1444h226v-1444h-226z" />
    <glyph glyph-name="k" unicode="k" horiz-adv-x="1096" 
d="M1100 0h-296l-417 473v-473h-228v1536h228v-981l362 408h290l-413 -444z" />
    <glyph glyph-name="l" unicode="l" horiz-adv-x="546" 
d="M159 0v1536h228v-1536h-228z" />
    <glyph glyph-name="m" unicode="m" horiz-adv-x="1664" 
d="M1175 981c204 0 357 -162 357 -370v-611h-228v595c0 101 -73 179 -170 179c-104 0 -175 -84 -175 -188v-586h-228v595c0 101 -72 179 -171 179c-104 0 -173 -84 -173 -188v-586h-228v963h228v-94c58 69 138 112 230 112c106 0 207 -57 271 -147c65 90 166 147 287 147z
" />
    <glyph glyph-name="n" unicode="n" horiz-adv-x="1117" 
d="M638 981c193 0 346 -157 346 -356v-625h-228v600c0 105 -80 180 -182 180c-104 0 -185 -77 -187 -179v-601h-228v963h228v-83c66 65 156 101 251 101z" />
    <glyph glyph-name="o" unicode="o" horiz-adv-x="1148" 
d="M574 -18c-287 0 -509 222 -509 499c0 278 222 500 509 500c285 0 507 -222 507 -500c0 -277 -222 -499 -507 -499zM573 190c159 0 286 126 286 291s-127 292 -286 292c-161 0 -286 -126 -286 -292s125 -291 286 -291z" />
    <glyph glyph-name="p" unicode="p" horiz-adv-x="1257" 
d="M717 982c254 0 471 -217 471 -502c0 -284 -217 -501 -471 -501c-148 0 -257 60 -330 148v-619h-228v1455h216l5 -138c73 92 183 157 337 157zM668 186c163 0 292 130 292 294s-129 295 -292 295c-162 0 -290 -131 -290 -295s128 -294 290 -294z" />
    <glyph glyph-name="q" unicode="q" horiz-adv-x="1257" 
d="M882 963h216v-1455h-228v619c-73 -88 -182 -148 -330 -148c-254 0 -471 217 -471 501c0 285 217 502 471 502c154 0 264 -65 337 -157zM589 186c162 0 290 130 290 294s-128 295 -290 295c-163 0 -292 -131 -292 -295s129 -294 292 -294z" />
    <glyph glyph-name="r" unicode="r" horiz-adv-x="787" 
d="M643 982c62 0 111 -19 148 -44l-78 -195c-28 14 -60 22 -89 22c-132 0 -237 -118 -237 -289v-476h-228v963h228v-152c52 103 137 171 256 171z" />
    <glyph glyph-name="s" unicode="s" horiz-adv-x="908" 
d="M454 -19c-175 0 -307 65 -394 124l107 166c70 -56 183 -107 289 -107c98 0 161 44 161 115c0 85 -99 102 -219 136c-140 38 -299 88 -299 276c0 193 173 291 374 291c124 0 246 -38 335 -98l-108 -151c-78 51 -172 77 -245 77c-89 0 -145 -36 -145 -95
c0 -82 113 -102 232 -133c158 -41 292 -101 292 -287c0 -201 -151 -314 -380 -314z" />
    <glyph glyph-name="t" unicode="t" horiz-adv-x="668" 
d="M640 963v-189h-191v-774h-229v774h-193v189h193v346h229v-346h191z" />
    <glyph glyph-name="u" unicode="u" horiz-adv-x="1074" 
d="M536 -19c-252 0 -404 146 -404 376v606h228v-585c0 -123 74 -193 176 -193c104 0 178 70 178 193v585h228v-606c0 -230 -152 -376 -406 -376z" />
    <glyph glyph-name="v" unicode="v" horiz-adv-x="1001" 
d="M752 963h243l-424 -963h-145l-420 963h242l252 -642z" />
    <glyph glyph-name="w" unicode="w" horiz-adv-x="1522" 
d="M1282 963h234l-342 -963h-177l-238 647l-239 -647h-176l-338 963h232l213 -646l237 646h143l238 -650z" />
    <glyph glyph-name="x" unicode="x" horiz-adv-x="1112" 
d="M16 0l403 481l-403 482h273l266 -326l268 326h274l-404 -482l404 -481h-275l-265 325l-265 -325h-276z" />
    <glyph glyph-name="y" unicode="y" horiz-adv-x="1035" 
d="M779 963h245l-583 -1455h-236l195 496l-391 959h251l264 -720z" />
    <glyph glyph-name="z" unicode="z" horiz-adv-x="958" 
d="M905 963l-498 -774h493v-189h-858l497 774h-466v189h832z" />
    <glyph glyph-name="braceleft" unicode="{" horiz-adv-x="628" 
d="M460 -503c-155 0 -256 128 -256 290v485c0 201 -22 253 -154 311v147c132 58 154 111 154 312v484c0 165 101 291 256 291h107v-176h-61c-74 0 -107 -54 -107 -157v-459c0 -168 -24 -292 -181 -368c157 -76 181 -201 181 -368v-462c0 -104 28 -153 107 -153h61v-177h-107
z" />
    <glyph glyph-name="bar" unicode="|" horiz-adv-x="623" 
d="M239 -307v1843h146v-1843h-146z" />
    <glyph glyph-name="braceright" unicode="}" horiz-adv-x="628" 
d="M168 -503h-107v177h61c79 0 107 49 107 153v462c0 167 24 292 181 368c-157 76 -181 200 -181 368v459c0 103 -33 157 -107 157h-61v176h107c155 0 256 -126 256 -291v-484c0 -201 22 -254 154 -312v-147c-132 -58 -154 -110 -154 -311v-485c0 -162 -101 -290 -256 -290z
" />
    <glyph glyph-name="asciitilde" unicode="~" horiz-adv-x="1393" 
d="M907 328c-154 0 -239 104 -290 157c-43 46 -75 65 -115 65c-96 0 -145 -97 -144 -204h-180c-12 227 117 384 328 384c119 0 187 -52 261 -147c33 -39 67 -79 125 -79c81 0 147 77 139 202h179c20 -214 -112 -378 -303 -378z" />
    <glyph glyph-name="exclamdown" unicode="&#xa1;" horiz-adv-x="662" 
d="M330 1044c76 0 140 -63 140 -139c0 -77 -64 -140 -140 -140c-75 0 -139 63 -139 140c0 76 64 139 139 139zM216 548h228v-1060h-228v1060z" />
    <glyph glyph-name="cent" unicode="&#xa2;" horiz-adv-x="1205" 
d="M706 1436v-263h-139v263h139zM602 310c121 0 217 69 262 171l197 -85c-63 -147 -194 -254 -355 -287v-111h-139v102c-270 17 -474 230 -474 498c0 279 222 500 509 500c208 0 383 -120 459 -298l-197 -85c-45 102 -141 172 -262 172c-166 0 -289 -125 -289 -289
c0 -163 123 -288 289 -288z" />
    <glyph glyph-name="sterling" unicode="&#xa3;" horiz-adv-x="1403" 
d="M535 648v-440h728v-208h-1118v182l164 16v450h-164v193h164v203c0 298 208 512 501 512c210 0 414 -146 476 -351l-213 -92c-20 125 -139 218 -263 218c-168 0 -275 -114 -275 -287v-203h381v-193h-381z" />
    <glyph glyph-name="currency" unicode="&#xa4;" horiz-adv-x="1384" 
d="M690 274c-93 0 -185 28 -263 83l-108 -109l-122 129l107 105c-55 78 -82 168 -82 261s27 185 82 262l-105 103l122 129l108 -109c78 57 172 85 265 85c91 0 182 -28 260 -84l105 106l124 -123l-105 -105c56 -78 83 -171 83 -264c0 -92 -27 -185 -83 -263l105 -103
l-122 -129l-107 109c-78 -55 -171 -83 -264 -83zM690 447c167 0 296 135 296 297s-133 294 -296 294c-164 0 -296 -135 -296 -299c0 -166 136 -292 296 -292z" />
    <glyph glyph-name="yen" unicode="&#xa5;" horiz-adv-x="1491" 
d="M632 0v255h-374v164h374v159h-374v169h358l-521 789h279l377 -587l378 587h275l-522 -789h360v-169h-373v-159h372v-164h-372v-255h-237z" />
    <glyph glyph-name="brokenbar" unicode="&#xa6;" horiz-adv-x="623" 
d="M239 799v737h146v-737h-146zM239 -307v737h146v-737h-146z" />
    <glyph glyph-name="section" unicode="&#xa7;" horiz-adv-x="1211" 
d="M611 -620c-180 6 -335 98 -424 216l167 140c62 -90 155 -141 262 -144c123 -4 228 55 231 185c12 331 -724 225 -704 760c5 129 57 231 139 303c-88 69 -149 166 -144 312c9 267 222 414 463 406c180 -6 332 -98 422 -216l-167 -140c-63 90 -154 141 -260 144
c-123 4 -229 -55 -234 -185c-11 -331 724 -225 705 -760c-4 -129 -55 -232 -138 -303c87 -71 146 -166 142 -312c-8 -267 -219 -414 -460 -406zM717 220c75 28 125 98 127 185c6 171 -172 233 -349 313c-77 -28 -127 -97 -129 -185c-6 -172 172 -233 351 -313z" />
    <glyph glyph-name="dieresis" unicode="&#xa8;" horiz-adv-x="895" 
d="M258 1136c-70 0 -130 58 -130 129c0 73 60 129 130 129s130 -56 130 -129c0 -71 -60 -129 -130 -129zM656 1136c-71 0 -130 58 -130 129c0 73 59 129 130 129s129 -56 129 -129c0 -71 -58 -129 -129 -129z" />
    <glyph glyph-name="copyright" unicode="&#xa9;" horiz-adv-x="1820" 
d="M910 -20c-434 0 -788 354 -788 788s354 788 788 788s789 -354 789 -788s-355 -788 -789 -788zM910 107c370 0 663 292 663 661s-293 661 -663 661c-369 0 -661 -292 -661 -661s292 -661 661 -661zM913 330c-243 0 -438 195 -438 438c0 244 195 438 438 438
c121 0 244 -56 322 -142l-98 -84c-55 62 -138 99 -224 99c-172 0 -308 -134 -308 -311c0 -174 136 -309 308 -309c86 0 169 37 224 99l98 -85c-78 -87 -201 -143 -322 -143z" />
    <glyph glyph-name="ordfeminine" unicode="&#xaa;" horiz-adv-x="974" 
d="M648 1536h140v-614h-140v103c-51 -71 -130 -116 -226 -116c-169 0 -307 142 -307 320c0 177 138 319 307 319c96 0 175 -45 226 -116v104zM451 1032c108 0 197 88 197 197c0 108 -89 194 -197 194c-109 0 -196 -86 -196 -194c0 -109 87 -197 196 -197z" />
    <glyph glyph-name="guillemotleft" unicode="&#xab;" horiz-adv-x="1034" 
d="M359 104l-311 377l311 377h187l-312 -377l312 -377h-187zM779 104l-311 377l311 377h190l-311 -377l311 -377h-190z" />
    <glyph glyph-name="logicalnot" unicode="&#xac;" horiz-adv-x="1631" 
d="M1223 213v524h-1112v174h1283v-698h-171z" />
    <glyph glyph-name="uni00AD" unicode="&#xad;" horiz-adv-x="1024" 
d="M154 384v184h717v-184h-717z" />
    <glyph glyph-name="registered" unicode="&#xae;" horiz-adv-x="1820" 
d="M910 1556c434 0 789 -354 789 -788s-355 -788 -789 -788s-788 354 -788 788s354 788 788 788zM910 107c370 0 663 292 663 661s-293 661 -663 661c-369 0 -661 -292 -661 -661s292 -661 661 -661zM1263 971c0 -113 -65 -207 -160 -248l188 -427h-152l-174 405h-194v-405
h-141v945h362c152 0 271 -121 271 -270zM771 1111v-283h203c84 0 150 52 150 140c0 86 -66 143 -150 143h-203z" />
    <glyph glyph-name="macron" unicode="&#xaf;" horiz-adv-x="940" 
d="M173 1222v143h635v-143h-635z" />
    <glyph glyph-name="degree" unicode="&#xb0;" horiz-adv-x="951" 
d="M475 1081c-174 0 -313 140 -313 313s139 313 313 313c172 0 313 -140 313 -313s-141 -313 -313 -313zM475 1195c111 0 199 88 199 199s-88 199 -199 199s-199 -88 -199 -199s88 -199 199 -199z" />
    <glyph glyph-name="uni00B2" unicode="&#xb2;" horiz-adv-x="711" 
d="M328 780h322v-166h-619v75c377 389 420 490 420 572c0 99 -64 126 -119 125c-82 -2 -117 -61 -115 -131h-181c-2 178 124 295 302 295c168 0 285 -106 286 -273c1 -150 -92 -296 -296 -497z" />
    <glyph glyph-name="uni00B3" unicode="&#xb3;" horiz-adv-x="696" 
d="M512 1129c80 -48 131 -130 131 -231c0 -164 -133 -296 -310 -296c-166 0 -302 113 -302 273l182 2c0 -62 57 -104 121 -104c75 0 130 57 130 131c0 75 -55 117 -127 117h-88l-1 158h78c59 0 102 47 102 104c0 58 -45 96 -102 96c-54 0 -92 -34 -92 -83l-177 3
c0 147 116 249 269 249c151 0 266 -106 266 -247c0 -72 -30 -131 -80 -172z" />
    <glyph glyph-name="acute" unicode="&#xb4;" horiz-adv-x="502" 
d="M112 1134l-85 94l306 329l117 -131z" />
    <glyph glyph-name="uni00B5" unicode="&#xb5;" horiz-adv-x="1213" 
d="M828 963h226v-963h-226v123c-72 -87 -176 -141 -293 -141c-77 0 -148 23 -208 63v-526h-168v1444h228v-569c0 -119 95 -213 214 -213c126 0 227 94 227 213v569z" />
    <glyph glyph-name="paragraph" unicode="&#xb6;" horiz-adv-x="1170" 
d="M498 -307v1157h-52c-225 0 -365 121 -365 344s140 342 365 342h172v-1843h-120zM810 -307v1843h121v-1843h-121z" />
    <glyph glyph-name="periodcentered" unicode="&#xb7;" horiz-adv-x="599" 
d="M299 624c-61 0 -114 48 -114 113c0 61 53 115 114 115c60 0 115 -54 115 -115c0 -65 -55 -113 -115 -113z" />
    <glyph glyph-name="cedilla" unicode="&#xb8;" horiz-adv-x="601" 
d="M305 -532c-98 0 -203 63 -238 144l111 40c24 -37 82 -66 127 -66c55 0 99 44 99 100c0 84 -82 117 -184 73l-93 57l97 188h120l-67 -132c136 26 245 -58 245 -186c0 -122 -95 -218 -217 -218z" />
    <glyph glyph-name="uni00B9" unicode="&#xb9;" horiz-adv-x="466" 
d="M161 614v755h-131v167h309v-922h-178z" />
    <glyph glyph-name="ordmasculine" unicode="&#xba;" horiz-adv-x="896" 
d="M447 909c-188 0 -336 142 -336 320c0 177 148 319 336 319s337 -142 337 -319c0 -178 -149 -320 -337 -320zM447 1032c108 0 197 88 197 197c0 108 -89 194 -197 194c-109 0 -196 -86 -196 -194c0 -109 87 -197 196 -197z" />
    <glyph glyph-name="guillemotright" unicode="&#xbb;" horiz-adv-x="1034" 
d="M65 104l311 377l-311 377h186l311 -377l-311 -377h-186zM485 104l311 377l-311 377h189l312 -377l-312 -377h-189z" />
    <glyph glyph-name="onequarter" unicode="&#xbc;" horiz-adv-x="1680" 
d="M161 614v755h-131v167h309v-922h-178zM1168 1536h190l-1071 -1536h-190zM1615 361v-166h-81v-195h-179v195h-437v112l380 615h236v-561h81zM1139 361h216v372z" />
    <glyph glyph-name="onehalf" unicode="&#xbd;" horiz-adv-x="1700" 
d="M161 614v755h-131v167h309v-922h-178zM1168 1536h190l-1071 -1536h-190zM1317 166h322v-166h-619v75c377 389 420 490 420 572c0 99 -64 126 -119 125c-82 -2 -117 -61 -115 -131h-181c-2 178 124 295 302 295c168 0 285 -106 286 -273c1 -150 -92 -296 -296 -497z" />
    <glyph glyph-name="threequarters" unicode="&#xbe;" horiz-adv-x="1910" 
d="M643 898c0 -164 -133 -296 -310 -296c-166 0 -302 113 -302 273l182 2c0 -62 57 -104 121 -104c75 0 130 57 130 131c0 75 -55 117 -127 117h-88l-1 158h78c59 0 102 47 102 104c0 58 -45 96 -102 96c-54 0 -92 -34 -92 -83l-177 3c0 147 116 249 269 249
c151 0 266 -106 266 -247c0 -72 -30 -131 -80 -172c80 -48 131 -130 131 -231zM1398 1536h190l-1071 -1536h-190zM1845 361v-166h-81v-195h-179v195h-437v112l380 615h236v-561h81zM1369 361h216v372z" />
    <glyph glyph-name="questiondown" unicode="&#xbf;" horiz-adv-x="1075" 
d="M539 1046c76 0 140 -62 140 -139c0 -76 -64 -140 -140 -140c-77 0 -139 64 -139 140c0 77 62 139 139 139zM649 571v-118c0 -383 -370 -244 -370 -544c0 -141 114 -239 268 -239c155 0 263 110 268 263h202c-1 -264 -198 -455 -470 -455c-269 0 -469 184 -469 431
c0 391 365 307 365 538v124h206z" />
    <glyph glyph-name="Agrave" unicode="&#xc0;" horiz-adv-x="1372" 
d="M774 1739l-81 -90l-340 289l119 131zM1112 0l-88 242h-678l-88 -242h-258l610 1536h150l612 -1536h-260zM422 449h527l-263 726z" />
    <glyph glyph-name="Aacute" unicode="&#xc1;" horiz-adv-x="1372" 
d="M995 1938l-338 -292l-85 94l306 329zM1112 0l-88 242h-678l-88 -242h-258l610 1536h150l612 -1536h-260zM422 449h527l-263 726z" />
    <glyph glyph-name="Acircumflex" unicode="&#xc2;" horiz-adv-x="1372" 
d="M686 1869l-210 -224l-102 64l220 298h181l222 -298l-103 -64zM1112 0l-88 242h-678l-88 -242h-258l610 1536h150l612 -1536h-260zM422 449h527l-263 726z" />
    <glyph glyph-name="Atilde" unicode="&#xc3;" horiz-adv-x="1372" 
d="M554 1799c-60 0 -89 -69 -89 -154h-143c0 167 85 294 226 294c92 0 153 -54 195 -115c16 -24 36 -49 75 -49c57 0 86 54 86 154h142c0 -164 -78 -294 -226 -294c-94 0 -153 52 -194 115c-24 36 -45 49 -72 49zM1112 0l-88 242h-678l-88 -242h-258l610 1536h150l612 -1536
h-260zM422 449h527l-263 726z" />
    <glyph glyph-name="Adieresis" unicode="&#xc4;" horiz-adv-x="1372" 
d="M488 1648c-70 0 -130 58 -130 129c0 73 60 129 130 129s130 -56 130 -129c0 -71 -60 -129 -130 -129zM886 1648c-71 0 -130 58 -130 129c0 73 59 129 130 129s129 -56 129 -129c0 -71 -58 -129 -129 -129zM1112 0l-88 242h-678l-88 -242h-258l610 1536h150l612 -1536
h-260zM422 449h527l-263 726z" />
    <glyph glyph-name="Aring" unicode="&#xc5;" horiz-adv-x="1372" 
d="M686 1667c-126 0 -230 104 -230 229s104 227 230 227c124 0 226 -102 226 -227s-102 -229 -226 -229zM686 2019c-67 0 -119 -58 -119 -123c0 -71 52 -122 119 -122s120 51 120 122c0 65 -53 123 -120 123zM1112 0l-88 242h-678l-88 -242h-258l610 1536h150l612 -1536
h-260zM422 449h527l-263 726z" />
    <glyph glyph-name="AE" unicode="&#xc6;" horiz-adv-x="1877" 
d="M1772 1316h-650v-438h564v-219h-564v-439h650v-220h-875v348h-471l-134 -348h-266l617 1536h1129v-220zM504 550h393v785h-90z" />
    <glyph glyph-name="Ccedilla" unicode="&#xc7;" horiz-adv-x="1500" 
d="M874 208c155 0 305 66 405 178l174 -151c-132 -146 -336 -243 -540 -254l-55 -109c136 26 245 -58 245 -186c0 -122 -95 -218 -217 -218c-98 0 -203 63 -238 144l111 40c24 -37 82 -66 127 -66c55 0 99 44 99 100c0 84 -82 117 -184 73l-93 57l87 168
c-400 39 -709 373 -709 784c0 438 351 788 788 788c216 0 438 -100 579 -255l-174 -151c-100 112 -250 178 -405 178c-312 0 -557 -244 -557 -560s245 -560 557 -560z" />
    <glyph glyph-name="Egrave" unicode="&#xc8;" horiz-adv-x="1188" 
d="M729 1739l-81 -90l-340 289l119 131zM1085 1319h-651v-442h565v-218h-565v-442h651v-217h-887v1536h887v-217z" />
    <glyph glyph-name="Eacute" unicode="&#xc9;" horiz-adv-x="1188" 
d="M950 1938l-338 -292l-85 94l306 329zM1085 1319h-651v-442h565v-218h-565v-442h651v-217h-887v1536h887v-217z" />
    <glyph glyph-name="Ecircumflex" unicode="&#xca;" horiz-adv-x="1188" 
d="M641 1869l-210 -224l-102 64l220 298h181l222 -298l-103 -64zM1085 1319h-651v-442h565v-218h-565v-442h651v-217h-887v1536h887v-217z" />
    <glyph glyph-name="Edieresis" unicode="&#xcb;" horiz-adv-x="1188" 
d="M443 1648c-70 0 -130 58 -130 129c0 73 60 129 130 129s130 -56 130 -129c0 -71 -60 -129 -130 -129zM841 1648c-71 0 -130 58 -130 129c0 73 59 129 130 129s129 -56 129 -129c0 -71 -58 -129 -129 -129zM1085 1319h-651v-442h565v-218h-565v-442h651v-217h-887v1536
h887v-217z" />
    <glyph glyph-name="Igrave" unicode="&#xcc;" horiz-adv-x="632" 
d="M322 1649l-340 289l119 131l302 -330zM198 0v1536h236v-1536h-236z" />
    <glyph glyph-name="Iacute" unicode="&#xcd;" horiz-adv-x="632" 
d="M286 1646l-85 94l306 329l117 -131zM198 0v1536h236v-1536h-236z" />
    <glyph glyph-name="Icircumflex" unicode="&#xce;" horiz-adv-x="632" 
d="M105 1645l-102 64l220 298h181l222 -298l-103 -64l-208 224zM198 0v1536h236v-1536h-236z" />
    <glyph glyph-name="Idieresis" unicode="&#xcf;" horiz-adv-x="632" 
d="M117 1648c-70 0 -130 58 -130 129c0 73 60 129 130 129s130 -56 130 -129c0 -71 -60 -129 -130 -129zM515 1648c-71 0 -130 58 -130 129c0 73 59 129 130 129s129 -56 129 -129c0 -71 -58 -129 -129 -129zM198 0v1536h236v-1536h-236z" />
    <glyph glyph-name="Eth" unicode="&#xd0;" horiz-adv-x="1511" 
d="M653 1536c454 0 774 -344 774 -768s-320 -768 -774 -768h-455v687h-153v148h153v701h455zM645 221c318 0 540 234 540 547s-222 547 -540 547h-212v-480h257v-148h-257v-466h212z" />
    <glyph glyph-name="Ntilde" unicode="&#xd1;" horiz-adv-x="1577" 
d="M634 1799c-60 0 -89 -69 -89 -154h-143c0 167 85 294 226 294c92 0 153 -54 195 -115c16 -24 36 -49 75 -49c57 0 86 54 86 154h142c0 -164 -78 -294 -226 -294c-94 0 -153 52 -194 115c-24 36 -45 49 -72 49zM1167 1536h236v-1536h-94l-897 1041v-1041h-236v1536h92
l899 -1037v1037z" />
    <glyph glyph-name="Ograve" unicode="&#xd2;" horiz-adv-x="1746" 
d="M880 1649l-340 289l119 131l302 -330zM873 -20c-436 0 -789 352 -789 788s353 788 789 788s788 -352 788 -788s-352 -788 -788 -788zM873 211c312 0 557 245 557 557s-245 557 -557 557c-311 0 -557 -245 -557 -557s246 -557 557 -557z" />
    <glyph glyph-name="Oacute" unicode="&#xd3;" horiz-adv-x="1746" 
d="M844 1646l-85 94l306 329l117 -131zM873 -20c-436 0 -789 352 -789 788s353 788 789 788s788 -352 788 -788s-352 -788 -788 -788zM873 211c312 0 557 245 557 557s-245 557 -557 557c-311 0 -557 -245 -557 -557s246 -557 557 -557z" />
    <glyph glyph-name="Ocircumflex" unicode="&#xd4;" horiz-adv-x="1746" 
d="M663 1645l-102 64l220 298h181l222 -298l-103 -64l-208 224zM873 -20c-436 0 -789 352 -789 788s353 788 789 788s788 -352 788 -788s-352 -788 -788 -788zM873 211c312 0 557 245 557 557s-245 557 -557 557c-311 0 -557 -245 -557 -557s246 -557 557 -557z" />
    <glyph glyph-name="Otilde" unicode="&#xd5;" horiz-adv-x="1746" 
d="M1007 1635c-94 0 -153 52 -194 115c-24 36 -45 49 -72 49c-60 0 -89 -69 -89 -154h-143c0 167 85 294 226 294c92 0 153 -54 195 -115c16 -24 36 -49 75 -49c57 0 86 54 86 154h142c0 -164 -78 -294 -226 -294zM873 -20c-436 0 -789 352 -789 788s353 788 789 788
s788 -352 788 -788s-352 -788 -788 -788zM873 211c312 0 557 245 557 557s-245 557 -557 557c-311 0 -557 -245 -557 -557s246 -557 557 -557z" />
    <glyph glyph-name="Odieresis" unicode="&#xd6;" horiz-adv-x="1746" 
d="M675 1648c-70 0 -130 58 -130 129c0 73 60 129 130 129s130 -56 130 -129c0 -71 -60 -129 -130 -129zM1073 1648c-71 0 -130 58 -130 129c0 73 59 129 130 129s129 -56 129 -129c0 -71 -58 -129 -129 -129zM873 -20c-436 0 -789 352 -789 788s353 788 789 788
s788 -352 788 -788s-352 -788 -788 -788zM873 211c312 0 557 245 557 557s-245 557 -557 557c-311 0 -557 -245 -557 -557s246 -557 557 -557z" />
    <glyph glyph-name="multiply" unicode="&#xd7;" horiz-adv-x="1067" 
d="M265 275l-135 136l267 267l-267 266l135 137l269 -266l266 266l137 -137l-269 -266l269 -267l-137 -136l-266 267z" />
    <glyph glyph-name="Oslash" unicode="&#xd8;" horiz-adv-x="1746" 
d="M1385 1368c169 -144 276 -359 276 -600c0 -436 -352 -788 -788 -788c-140 0 -272 37 -386 101l-127 -182l-130 79l132 189c-170 145 -278 360 -278 601c0 436 353 788 789 788c141 0 272 -37 387 -101l125 180l130 -80zM316 768c0 -164 68 -310 178 -411l633 908
c-75 39 -162 60 -254 60c-311 0 -557 -245 -557 -557zM873 211c312 0 557 245 557 557c0 164 -68 310 -177 411l-634 -908c76 -39 162 -60 254 -60z" />
    <glyph glyph-name="Ugrave" unicode="&#xd9;" horiz-adv-x="1536" 
d="M774 1649l-340 289l119 131l302 -330zM767 -20c-345 0 -602 221 -602 532v1024h236v-983c0 -207 155 -352 366 -352s367 145 367 352v983h237v-1024c0 -311 -257 -532 -604 -532z" />
    <glyph glyph-name="Uacute" unicode="&#xda;" horiz-adv-x="1536" 
d="M738 1646l-85 94l306 329l117 -131zM767 -20c-345 0 -602 221 -602 532v1024h236v-983c0 -207 155 -352 366 -352s367 145 367 352v983h237v-1024c0 -311 -257 -532 -604 -532z" />
    <glyph glyph-name="Ucircumflex" unicode="&#xdb;" horiz-adv-x="1536" 
d="M557 1645l-102 64l220 298h181l222 -298l-103 -64l-208 224zM767 -20c-345 0 -602 221 -602 532v1024h236v-983c0 -207 155 -352 366 -352s367 145 367 352v983h237v-1024c0 -311 -257 -532 -604 -532z" />
    <glyph glyph-name="Udieresis" unicode="&#xdc;" horiz-adv-x="1536" 
d="M569 1648c-70 0 -130 58 -130 129c0 73 60 129 130 129s130 -56 130 -129c0 -71 -60 -129 -130 -129zM967 1648c-71 0 -130 58 -130 129c0 73 59 129 130 129s129 -56 129 -129c0 -71 -58 -129 -129 -129zM767 -20c-345 0 -602 221 -602 532v1024h236v-983
c0 -207 155 -352 366 -352s367 145 367 352v983h237v-1024c0 -311 -257 -532 -604 -532z" />
    <glyph glyph-name="Yacute" unicode="&#xdd;" horiz-adv-x="1335" 
d="M978 1938l-338 -292l-85 94l306 329zM1322 1536l-535 -809v-727h-236v722l-538 814h279l377 -589l378 589h275z" />
    <glyph glyph-name="Thorn" unicode="&#xde;" horiz-adv-x="1283" 
d="M787 1319c243 0 439 -198 439 -445c0 -241 -196 -433 -439 -433h-361v-441h-228v1531h228v-212h361zM773 656c133 0 231 93 231 224c0 132 -98 224 -231 224h-347v-448h347z" />
    <glyph glyph-name="germandbls" unicode="&#xdf;" horiz-adv-x="1312" 
d="M1015 794c137 -79 227 -219 227 -384c0 -240 -181 -416 -410 -410h-178v218h137c115 1 222 73 222 205c0 139 -116 250 -262 250h-100v189h41c136 0 247 109 247 243s-111 230 -265 230c-164 0 -287 -108 -287 -286v-1049h-228v1055c0 289 221 481 512 481
c281 0 483 -182 483 -426c0 -126 -53 -238 -139 -316z" />
    <glyph glyph-name="agrave" unicode="&#xe0;" horiz-adv-x="1256" 
d="M671 1167l-81 -90l-340 289l119 131zM870 963h229v-963h-216l-5 139c-73 -93 -184 -158 -338 -158c-253 0 -471 216 -471 502c0 284 218 500 471 500c148 0 257 -60 330 -148v128zM589 188c162 0 291 131 291 295c0 163 -129 294 -291 294c-163 0 -292 -131 -292 -294
c0 -164 129 -295 292 -295z" />
    <glyph glyph-name="aacute" unicode="&#xe1;" horiz-adv-x="1256" 
d="M892 1366l-338 -292l-85 94l306 329zM870 963h229v-963h-216l-5 139c-73 -93 -184 -158 -338 -158c-253 0 -471 216 -471 502c0 284 218 500 471 500c148 0 257 -60 330 -148v128zM589 188c162 0 291 131 291 295c0 163 -129 294 -291 294c-163 0 -292 -131 -292 -294
c0 -164 129 -295 292 -295z" />
    <glyph glyph-name="acircumflex" unicode="&#xe2;" horiz-adv-x="1256" 
d="M583 1297l-210 -224l-102 64l220 298h181l222 -298l-103 -64zM870 963h229v-963h-216l-5 139c-73 -93 -184 -158 -338 -158c-253 0 -471 216 -471 502c0 284 218 500 471 500c148 0 257 -60 330 -148v128zM589 188c162 0 291 131 291 295c0 163 -129 294 -291 294
c-163 0 -292 -131 -292 -294c0 -164 129 -295 292 -295z" />
    <glyph glyph-name="atilde" unicode="&#xe3;" horiz-adv-x="1256" 
d="M451 1227c-60 0 -89 -69 -89 -154h-143c0 167 85 294 226 294c92 0 153 -54 195 -115c16 -24 36 -49 75 -49c57 0 86 54 86 154h142c0 -164 -78 -294 -226 -294c-94 0 -153 52 -194 115c-24 36 -45 49 -72 49zM870 963h229v-963h-216l-5 139c-73 -93 -184 -158 -338 -158
c-253 0 -471 216 -471 502c0 284 218 500 471 500c148 0 257 -60 330 -148v128zM589 188c162 0 291 131 291 295c0 163 -129 294 -291 294c-163 0 -292 -131 -292 -294c0 -164 129 -295 292 -295z" />
    <glyph glyph-name="adieresis" unicode="&#xe4;" horiz-adv-x="1256" 
d="M385 1137c-70 0 -130 58 -130 129c0 73 60 129 130 129s130 -56 130 -129c0 -71 -60 -129 -130 -129zM783 1137c-71 0 -130 58 -130 129c0 73 59 129 130 129s129 -56 129 -129c0 -71 -58 -129 -129 -129zM870 963h229v-963h-216l-5 139c-73 -93 -184 -158 -338 -158
c-253 0 -471 216 -471 502c0 284 218 500 471 500c148 0 257 -60 330 -148v128zM589 188c162 0 291 131 291 295c0 163 -129 294 -291 294c-163 0 -292 -131 -292 -294c0 -164 129 -295 292 -295z" />
    <glyph glyph-name="aring" unicode="&#xe5;" horiz-adv-x="1256" 
d="M598 1114c-127 0 -230 104 -230 228c0 125 103 228 230 228c124 0 226 -103 226 -228c0 -124 -102 -228 -226 -228zM598 1466c-68 0 -120 -58 -120 -124c0 -71 52 -121 120 -121c66 0 119 50 119 121c0 66 -53 124 -119 124zM870 963h229v-963h-216l-5 139
c-73 -93 -184 -158 -338 -158c-253 0 -471 216 -471 502c0 284 218 500 471 500c148 0 257 -60 330 -148v128zM589 188c162 0 291 131 291 295c0 163 -129 294 -291 294c-163 0 -292 -131 -292 -294c0 -164 129 -295 292 -295z" />
    <glyph glyph-name="ae" unicode="&#xe6;" horiz-adv-x="1770" 
d="M778 422h-173c11 -66 39 -123 80 -165c28 25 54 56 76 90l137 -118c-16 -19 -32 -38 -49 -55c14 -2 28 -3 42 -3c107 0 203 52 258 144l184 -76c-80 -159 -242 -257 -440 -257c-88 0 -168 19 -238 53c-74 -35 -153 -54 -231 -54c-216 0 -352 120 -352 302
c0 150 99 252 315 288c16 93 58 177 118 245c-91 -2 -166 -51 -191 -127l-199 63c57 145 206 231 404 231c69 0 133 -11 188 -32c55 20 115 31 179 31c278 0 497 -202 497 -490v-49h-483zM1145 603c-38 114 -125 190 -249 193c29 -50 44 -109 44 -174v-19h205zM711 626
c0 35 -7 66 -21 93c-32 -31 -56 -71 -71 -116h92v23zM460 159c11 0 21 1 32 2c-55 67 -93 148 -107 238c-56 -22 -81 -60 -81 -112c0 -81 61 -128 156 -128z" />
    <glyph glyph-name="ccedilla" unicode="&#xe7;" horiz-adv-x="1086" 
d="M574 193c121 0 217 69 262 171l197 -85c-70 -165 -226 -279 -413 -295l-57 -112c136 26 245 -58 245 -186c0 -122 -95 -218 -217 -218c-98 0 -203 63 -238 144l111 40c24 -37 82 -66 127 -66c55 0 99 44 99 100c0 84 -82 117 -184 73l-93 57l88 171
c-251 33 -436 239 -436 494c0 279 222 500 509 500c208 0 383 -120 459 -298l-197 -85c-45 102 -141 172 -262 172c-166 0 -289 -125 -289 -289c0 -163 123 -288 289 -288z" />
    <glyph glyph-name="egrave" unicode="&#xe8;" horiz-adv-x="1130" 
d="M673 1173l-81 -90l-340 289l119 131zM1071 492v-49h-781c17 -163 136 -272 289 -272c107 0 203 52 258 144l184 -76c-80 -159 -242 -257 -440 -257c-301 0 -514 222 -514 499c0 278 217 501 507 501c278 0 497 -202 497 -490zM576 796c-131 0 -230 -76 -269 -193h526
c-39 117 -129 193 -257 193z" />
    <glyph glyph-name="eacute" unicode="&#xe9;" horiz-adv-x="1130" 
d="M894 1372l-338 -292l-85 94l306 329zM1071 492v-49h-781c17 -163 136 -272 289 -272c107 0 203 52 258 144l184 -76c-80 -159 -242 -257 -440 -257c-301 0 -514 222 -514 499c0 278 217 501 507 501c278 0 497 -202 497 -490zM576 796c-131 0 -230 -76 -269 -193h526
c-39 117 -129 193 -257 193z" />
    <glyph glyph-name="ecircumflex" unicode="&#xea;" horiz-adv-x="1130" 
d="M585 1303l-210 -224l-102 64l220 298h181l222 -298l-103 -64zM1071 492v-49h-781c17 -163 136 -272 289 -272c107 0 203 52 258 144l184 -76c-80 -159 -242 -257 -440 -257c-301 0 -514 222 -514 499c0 278 217 501 507 501c278 0 497 -202 497 -490zM576 796
c-131 0 -230 -76 -269 -193h526c-39 117 -129 193 -257 193z" />
    <glyph glyph-name="edieresis" unicode="&#xeb;" horiz-adv-x="1130" 
d="M387 1143c-70 0 -130 58 -130 129c0 73 60 129 130 129s130 -56 130 -129c0 -71 -60 -129 -130 -129zM785 1143c-71 0 -130 58 -130 129c0 73 59 129 130 129s129 -56 129 -129c0 -71 -58 -129 -129 -129zM1071 492v-49h-781c17 -163 136 -272 289 -272
c107 0 203 52 258 144l184 -76c-80 -159 -242 -257 -440 -257c-301 0 -514 222 -514 499c0 278 217 501 507 501c278 0 497 -202 497 -490zM576 796c-131 0 -230 -76 -269 -193h526c-39 117 -129 193 -257 193z" />
    <glyph glyph-name="igrave" unicode="&#xec;" horiz-adv-x="546" 
d="M280 1076l-340 289l119 131l302 -330zM159 0v963h228v-963h-228z" />
    <glyph glyph-name="iacute" unicode="&#xed;" horiz-adv-x="546" 
d="M244 1073l-85 94l306 329l117 -131zM159 0v963h228v-963h-228z" />
    <glyph glyph-name="icircumflex" unicode="&#xee;" horiz-adv-x="546" 
d="M63 1072l-102 64l220 298h181l222 -298l-103 -64l-208 224zM159 0v963h228v-963h-228z" />
    <glyph glyph-name="idieresis" unicode="&#xef;" horiz-adv-x="546" 
d="M75 1136c-70 0 -130 58 -130 129c0 73 60 129 130 129s130 -56 130 -129c0 -71 -60 -129 -130 -129zM473 1136c-71 0 -130 58 -130 129c0 73 59 129 130 129s129 -56 129 -129c0 -71 -58 -129 -129 -129zM159 0v963h228v-963h-228z" />
    <glyph glyph-name="eth" unicode="&#xf0;" horiz-adv-x="1197" 
d="M1101 475h-1v-7c0 -289 -227 -486 -518 -486s-518 222 -518 499c0 278 227 500 518 500c85 0 164 -20 234 -55c-50 117 -121 208 -206 276l-99 -127l-96 72l96 121c-79 43 -166 70 -257 84l51 142c103 -8 209 -41 308 -98l91 115l92 -71l-85 -109
c222 -172 390 -469 390 -856zM582 182c166 0 297 132 297 299s-131 301 -297 301c-168 0 -300 -134 -300 -301s132 -299 300 -299z" />
    <glyph glyph-name="ntilde" unicode="&#xf1;" horiz-adv-x="1117" 
d="M443 1226c-60 0 -89 -69 -89 -154h-143c0 167 85 294 226 294c92 0 153 -54 195 -115c16 -24 36 -49 75 -49c57 0 86 54 86 154h142c0 -164 -78 -294 -226 -294c-94 0 -153 52 -194 115c-24 36 -45 49 -72 49zM638 981c193 0 346 -157 346 -356v-625h-228v600
c0 105 -80 180 -182 180c-104 0 -185 -77 -187 -179v-601h-228v963h228v-83c66 65 156 101 251 101z" />
    <glyph glyph-name="ograve" unicode="&#xf2;" horiz-adv-x="1148" 
d="M581 1075l-340 289l119 131l302 -330zM574 -18c-287 0 -509 222 -509 499c0 278 222 500 509 500c285 0 507 -222 507 -500c0 -277 -222 -499 -507 -499zM573 190c159 0 286 126 286 291s-127 292 -286 292c-161 0 -286 -126 -286 -292s125 -291 286 -291z" />
    <glyph glyph-name="oacute" unicode="&#xf3;" horiz-adv-x="1148" 
d="M545 1072l-85 94l306 329l117 -131zM574 -18c-287 0 -509 222 -509 499c0 278 222 500 509 500c285 0 507 -222 507 -500c0 -277 -222 -499 -507 -499zM573 190c159 0 286 126 286 291s-127 292 -286 292c-161 0 -286 -126 -286 -292s125 -291 286 -291z" />
    <glyph glyph-name="ocircumflex" unicode="&#xf4;" horiz-adv-x="1148" 
d="M364 1071l-102 64l220 298h181l222 -298l-103 -64l-208 224zM574 -18c-287 0 -509 222 -509 499c0 278 222 500 509 500c285 0 507 -222 507 -500c0 -277 -222 -499 -507 -499zM573 190c159 0 286 126 286 291s-127 292 -286 292c-161 0 -286 -126 -286 -292
s125 -291 286 -291z" />
    <glyph glyph-name="otilde" unicode="&#xf5;" horiz-adv-x="1148" 
d="M708 1061c-94 0 -153 52 -194 115c-24 36 -45 49 -72 49c-60 0 -89 -69 -89 -154h-143c0 167 85 294 226 294c92 0 153 -54 195 -115c16 -24 36 -49 75 -49c57 0 86 54 86 154h142c0 -164 -78 -294 -226 -294zM574 -18c-287 0 -509 222 -509 499c0 278 222 500 509 500
c285 0 507 -222 507 -500c0 -277 -222 -499 -507 -499zM573 190c159 0 286 126 286 291s-127 292 -286 292c-161 0 -286 -126 -286 -292s125 -291 286 -291z" />
    <glyph glyph-name="odieresis" unicode="&#xf6;" horiz-adv-x="1148" 
d="M376 1135c-70 0 -130 58 -130 129c0 73 60 129 130 129s130 -56 130 -129c0 -71 -60 -129 -130 -129zM774 1135c-71 0 -130 58 -130 129c0 73 59 129 130 129s129 -56 129 -129c0 -71 -58 -129 -129 -129zM574 -18c-287 0 -509 222 -509 499c0 278 222 500 509 500
c285 0 507 -222 507 -500c0 -277 -222 -499 -507 -499zM573 190c159 0 286 126 286 291s-127 292 -286 292c-161 0 -286 -126 -286 -292s125 -291 286 -291z" />
    <glyph glyph-name="divide" unicode="&#xf7;" horiz-adv-x="1007" 
d="M498 918c-72 0 -135 58 -135 135c0 74 63 137 135 137c74 0 139 -63 139 -137c0 -77 -65 -135 -139 -135zM106 590v193h795v-193h-795zM498 184c-72 0 -135 58 -135 137c0 72 63 135 135 135c74 0 139 -63 139 -135c0 -79 -65 -137 -139 -137z" />
    <glyph glyph-name="oslash" unicode="&#xf8;" horiz-adv-x="1148" 
d="M902 864c110 -91 179 -228 179 -383c0 -277 -222 -499 -507 -499c-90 0 -173 22 -246 60l-90 -129l-85 52l92 132c-111 92 -180 229 -180 384c0 278 222 500 509 500c90 0 173 -22 246 -61l89 128l85 -52zM287 481c0 -83 31 -155 82 -207l328 471c-37 18 -79 28 -124 28
c-161 0 -286 -126 -286 -292zM573 190c159 0 286 126 286 291c0 81 -31 153 -81 205l-328 -469c37 -18 79 -27 123 -27z" />
    <glyph glyph-name="ugrave" unicode="&#xf9;" horiz-adv-x="1074" 
d="M544 1076l-340 289l119 131l302 -330zM536 -19c-252 0 -404 146 -404 376v606h228v-585c0 -123 74 -193 176 -193c104 0 178 70 178 193v585h228v-606c0 -230 -152 -376 -406 -376z" />
    <glyph glyph-name="uacute" unicode="&#xfa;" horiz-adv-x="1074" 
d="M508 1073l-85 94l306 329l117 -131zM536 -19c-252 0 -404 146 -404 376v606h228v-585c0 -123 74 -193 176 -193c104 0 178 70 178 193v585h228v-606c0 -230 -152 -376 -406 -376z" />
    <glyph glyph-name="ucircumflex" unicode="&#xfb;" horiz-adv-x="1074" 
d="M327 1072l-102 64l220 298h181l222 -298l-103 -64l-208 224zM536 -19c-252 0 -404 146 -404 376v606h228v-585c0 -123 74 -193 176 -193c104 0 178 70 178 193v585h228v-606c0 -230 -152 -376 -406 -376z" />
    <glyph glyph-name="udieresis" unicode="&#xfc;" horiz-adv-x="1074" 
d="M339 1136c-70 0 -130 58 -130 129c0 73 60 129 130 129s130 -56 130 -129c0 -71 -60 -129 -130 -129zM737 1136c-71 0 -130 58 -130 129c0 73 59 129 130 129s129 -56 129 -129c0 -71 -58 -129 -129 -129zM536 -19c-252 0 -404 146 -404 376v606h228v-585
c0 -123 74 -193 176 -193c104 0 178 70 178 193v585h228v-606c0 -230 -152 -376 -406 -376z" />
    <glyph glyph-name="yacute" unicode="&#xfd;" horiz-adv-x="1035" 
d="M812 1365l-338 -292l-85 94l306 329zM779 963h245l-583 -1455h-236l195 496l-391 959h251l264 -720z" />
    <glyph glyph-name="thorn" unicode="&#xfe;" horiz-adv-x="1248" 
d="M704 981c259 0 477 -222 477 -500c0 -277 -218 -499 -477 -499c-130 0 -238 48 -316 126v-590l-228 1v2017h228v-681c78 78 186 126 316 126zM665 191c160 0 288 129 288 290s-128 290 -288 290c-161 0 -290 -129 -290 -290s129 -290 290 -290z" />
    <glyph glyph-name="ydieresis" unicode="&#xff;" horiz-adv-x="1035" 
d="M305 1136c-70 0 -130 58 -130 129c0 73 60 129 130 129s130 -56 130 -129c0 -71 -60 -129 -130 -129zM703 1136c-71 0 -130 58 -130 129c0 73 59 129 130 129s129 -56 129 -129c0 -71 -58 -129 -129 -129zM779 963h245l-583 -1455h-236l195 496l-391 959h251l264 -720z
" />
    <glyph glyph-name="Amacron" unicode="&#x100;" horiz-adv-x="1372" 
d="M1003 1877v-143h-635v143h635zM1112 0l-88 242h-678l-88 -242h-258l610 1536h150l612 -1536h-260zM422 449h527l-263 726z" />
    <glyph glyph-name="amacron" unicode="&#x101;" horiz-adv-x="1256" 
d="M900 1305v-143h-635v143h635zM870 963h229v-963h-216l-5 139c-73 -93 -184 -158 -338 -158c-253 0 -471 216 -471 502c0 284 218 500 471 500c148 0 257 -60 330 -148v128zM589 188c162 0 291 131 291 295c0 163 -129 294 -291 294c-163 0 -292 -131 -292 -294
c0 -164 129 -295 292 -295z" />
    <glyph glyph-name="Abreve" unicode="&#x102;" horiz-adv-x="1372" 
d="M685 1704c-204 0 -351 119 -351 332h156c0 -105 67 -196 195 -196c130 0 197 91 197 196h156c0 -213 -147 -332 -353 -332zM1112 0l-88 242h-678l-88 -242h-258l610 1536h150l612 -1536h-260zM422 449h527l-263 726z" />
    <glyph glyph-name="abreve" unicode="&#x103;" horiz-adv-x="1256" 
d="M582 1132c-204 0 -351 119 -351 332h156c0 -105 67 -196 195 -196c130 0 197 91 197 196h156c0 -213 -147 -332 -353 -332zM870 963h229v-963h-216l-5 139c-73 -93 -184 -158 -338 -158c-253 0 -471 216 -471 502c0 284 218 500 471 500c148 0 257 -60 330 -148v128z
M589 188c162 0 291 131 291 295c0 163 -129 294 -291 294c-163 0 -292 -131 -292 -294c0 -164 129 -295 292 -295z" />
    <glyph glyph-name="Aogonek" unicode="&#x104;" horiz-adv-x="1372" 
d="M1402 -290l92 -127c-81 -82 -189 -119 -295 -113c-149 9 -241 97 -241 228c0 127 88 225 212 302h-58l-88 242h-678l-88 -242h-258l610 1536h150l612 -1536c-147 -63 -264 -154 -264 -265c0 -74 50 -107 115 -107c63 0 128 30 179 82zM422 449h527l-263 726z" />
    <glyph glyph-name="aogonek" unicode="&#x105;" horiz-adv-x="1256" 
d="M1129 -290l92 -127c-81 -82 -189 -119 -295 -113c-149 9 -241 97 -241 228c0 127 88 225 212 302h-14l-5 139c-73 -93 -184 -158 -338 -158c-253 0 -471 216 -471 502c0 284 218 500 471 500c148 0 257 -60 330 -148v128h229v-963c-147 -63 -264 -154 -264 -265
c0 -74 50 -107 115 -107c63 0 128 30 179 82zM589 188c162 0 291 131 291 295c0 163 -129 294 -291 294c-163 0 -292 -131 -292 -294c0 -164 129 -295 292 -295z" />
    <glyph glyph-name="Cacute" unicode="&#x106;" horiz-adv-x="1500" 
d="M853 1646l-85 94l306 329l117 -131zM874 -20c-437 0 -788 350 -788 788s351 788 788 788c216 0 438 -100 579 -255l-174 -151c-100 112 -250 178 -405 178c-312 0 -557 -244 -557 -560s245 -560 557 -560c155 0 305 66 405 178l174 -151c-141 -155 -363 -255 -579 -255z
" />
    <glyph glyph-name="cacute" unicode="&#x107;" horiz-adv-x="1086" 
d="M537 1073l-85 94l306 329l117 -131zM574 -18c-287 0 -509 220 -509 499s222 500 509 500c208 0 383 -120 459 -298l-197 -85c-45 102 -141 172 -262 172c-166 0 -289 -125 -289 -289c0 -163 123 -288 289 -288c121 0 217 69 262 171l197 -85
c-76 -178 -251 -297 -459 -297z" />
    <glyph glyph-name="Cdotaccent" unicode="&#x10a;" horiz-adv-x="1500" 
d="M881 1696c-69 0 -129 58 -129 128c0 73 60 130 129 130c71 0 130 -57 130 -130c0 -70 -59 -128 -130 -128zM874 -20c-437 0 -788 350 -788 788s351 788 788 788c216 0 438 -100 579 -255l-174 -151c-100 112 -250 178 -405 178c-312 0 -557 -244 -557 -560
s245 -560 557 -560c155 0 305 66 405 178l174 -151c-141 -155 -363 -255 -579 -255z" />
    <glyph glyph-name="cdotaccent" unicode="&#x10b;" horiz-adv-x="1086" 
d="M565 1123c-69 0 -129 58 -129 128c0 73 60 130 129 130c71 0 130 -57 130 -130c0 -70 -59 -128 -130 -128zM574 -18c-287 0 -509 220 -509 499s222 500 509 500c208 0 383 -120 459 -298l-197 -85c-45 102 -141 172 -262 172c-166 0 -289 -125 -289 -289
c0 -163 123 -288 289 -288c121 0 217 69 262 171l197 -85c-76 -178 -251 -297 -459 -297z" />
    <glyph glyph-name="Ccaron" unicode="&#x10c;" horiz-adv-x="1500" 
d="M789 1686l-219 298l102 63l210 -224l208 224l103 -63l-222 -298h-182zM874 -20c-437 0 -788 350 -788 788s351 788 788 788c216 0 438 -100 579 -255l-174 -151c-100 112 -250 178 -405 178c-312 0 -557 -244 -557 -560s245 -560 557 -560c155 0 305 66 405 178l174 -151
c-141 -155 -363 -255 -579 -255z" />
    <glyph glyph-name="ccaron" unicode="&#x10d;" horiz-adv-x="1086" 
d="M473 1113l-219 298l102 63l210 -224l208 224l103 -63l-222 -298h-182zM574 -18c-287 0 -509 220 -509 499s222 500 509 500c208 0 383 -120 459 -298l-197 -85c-45 102 -141 172 -262 172c-166 0 -289 -125 -289 -289c0 -163 123 -288 289 -288c121 0 217 69 262 171
l197 -85c-76 -178 -251 -297 -459 -297z" />
    <glyph glyph-name="Dcaron" unicode="&#x10e;" horiz-adv-x="1511" 
d="M558 1686l-219 298l102 63l210 -224l208 224l103 -63l-222 -298h-182zM198 0v1536h455c454 0 774 -344 774 -768s-320 -768 -774 -768h-455zM433 221h212c318 0 540 234 540 547s-222 547 -540 547h-212v-1094z" />
    <glyph glyph-name="dcaron" unicode="&#x10f;" horiz-adv-x="1257" 
d="M1508 1417c0 -21 -5 -41 -14 -59l-144 -390h-146l100 326c-44 24 -75 70 -75 123c0 76 64 140 139 140c76 0 140 -64 140 -140zM870 835v701h229v-1536h-216l-5 139c-73 -93 -184 -158 -338 -158c-253 0 -471 216 -471 502c0 284 218 500 471 500c148 0 257 -60 330 -148
zM589 188c162 0 291 131 291 295c0 163 -129 294 -291 294c-163 0 -292 -131 -292 -294c0 -164 129 -295 292 -295z" />
    <glyph glyph-name="Dcroat" unicode="&#x110;" horiz-adv-x="1511" 
d="M653 1536c454 0 774 -344 774 -768s-320 -768 -774 -768h-455v687h-153v148h153v701h455zM645 221c318 0 540 234 540 547s-222 547 -540 547h-212v-480h257v-148h-257v-466h212z" />
    <glyph glyph-name="dcroat" unicode="&#x111;" horiz-adv-x="1257" 
d="M1234 1322v-148h-135v-1174h-216l-5 139c-73 -93 -184 -158 -338 -158c-253 0 -471 216 -471 502c0 284 218 500 471 500c148 0 257 -60 330 -148v339h-281v148h281v214h229v-214h135zM589 188c162 0 291 131 291 295c0 163 -129 294 -291 294
c-163 0 -292 -131 -292 -294c0 -164 129 -295 292 -295z" />
    <glyph glyph-name="Emacron" unicode="&#x112;" horiz-adv-x="1188" 
d="M958 1877v-143h-635v143h635zM1085 1319h-651v-442h565v-218h-565v-442h651v-217h-887v1536h887v-217z" />
    <glyph glyph-name="emacron" unicode="&#x113;" horiz-adv-x="1130" 
d="M902 1311v-143h-635v143h635zM1071 492v-49h-781c17 -163 136 -272 289 -272c107 0 203 52 258 144l184 -76c-80 -159 -242 -257 -440 -257c-301 0 -514 222 -514 499c0 278 217 501 507 501c278 0 497 -202 497 -490zM576 796c-131 0 -230 -76 -269 -193h526
c-39 117 -129 193 -257 193z" />
    <glyph glyph-name="Edotaccent" unicode="&#x116;" horiz-adv-x="1188" 
d="M640 1696c-69 0 -129 58 -129 128c0 73 60 130 129 130c71 0 130 -57 130 -130c0 -70 -59 -128 -130 -128zM1085 1319h-651v-442h565v-218h-565v-442h651v-217h-887v1536h887v-217z" />
    <glyph glyph-name="edotaccent" unicode="&#x117;" horiz-adv-x="1130" 
d="M584 1130c-69 0 -129 58 -129 128c0 73 60 130 129 130c71 0 130 -57 130 -130c0 -70 -59 -128 -130 -128zM1071 492v-49h-781c17 -163 136 -272 289 -272c107 0 203 52 258 144l184 -76c-80 -159 -242 -257 -440 -257c-301 0 -514 222 -514 499c0 278 217 501 507 501
c278 0 497 -202 497 -490zM576 796c-131 0 -230 -76 -269 -193h526c-39 117 -129 193 -257 193z" />
    <glyph glyph-name="Eogonek" unicode="&#x118;" horiz-adv-x="1188" 
d="M1115 -290l92 -127c-81 -82 -189 -119 -295 -113c-149 9 -241 97 -241 228c0 127 88 225 212 302h-685v1536h887v-217h-651v-442h565v-218h-565v-442h651v-217c-147 -63 -264 -154 -264 -265c0 -74 50 -107 115 -107c63 0 128 30 179 82z" />
    <glyph glyph-name="eogonek" unicode="&#x119;" horiz-adv-x="1130" 
d="M1071 492v-49h-781c17 -163 136 -272 289 -272c107 0 203 52 258 144l184 -76c-56 -111 -152 -193 -273 -231c-104 -60 -179 -135 -179 -224c0 -74 50 -107 115 -107c63 0 128 30 179 82l92 -127c-81 -82 -189 -119 -295 -113c-149 9 -241 97 -241 228
c0 94 48 171 122 236c-280 19 -474 233 -474 498c0 278 217 501 507 501c278 0 497 -202 497 -490zM576 796c-131 0 -230 -76 -269 -193h526c-39 117 -129 193 -257 193z" />
    <glyph glyph-name="Ecaron" unicode="&#x11a;" horiz-adv-x="1188" 
d="M730 1686h-182l-219 298l102 63l210 -224l208 224l103 -63zM1085 1319h-651v-442h565v-218h-565v-442h651v-217h-887v1536h887v-217z" />
    <glyph glyph-name="ecaron" unicode="&#x11b;" horiz-adv-x="1130" 
d="M674 1120h-182l-219 298l102 63l210 -224l208 224l103 -63zM1071 492v-49h-781c17 -163 136 -272 289 -272c107 0 203 52 258 144l184 -76c-80 -159 -242 -257 -440 -257c-301 0 -514 222 -514 499c0 278 217 501 507 501c278 0 497 -202 497 -490zM576 796
c-131 0 -230 -76 -269 -193h526c-39 117 -129 193 -257 193z" />
    <glyph glyph-name="Gbreve" unicode="&#x11e;" horiz-adv-x="1635" 
d="M899 1704c-204 0 -351 119 -351 332h156c0 -105 67 -196 195 -196c130 0 197 91 197 196h156c0 -213 -147 -332 -353 -332zM869 834h633v-834h-184l-21 105c-125 -78 -276 -125 -423 -125c-437 0 -788 350 -788 788s351 788 788 788c216 0 438 -100 579 -255l-174 -151
c-100 112 -250 178 -405 178c-312 0 -557 -244 -557 -560s245 -560 557 -560c150 0 296 62 396 168v249h-401v209z" />
    <glyph glyph-name="gbreve" unicode="&#x11f;" horiz-adv-x="1260" 
d="M584 1131c-204 0 -351 119 -351 332h156c0 -105 67 -196 195 -196c130 0 197 91 197 196h156c0 -213 -147 -332 -353 -332zM871 963h230v-945c0 -311 -227 -518 -523 -518c-178 0 -364 87 -467 247l147 136c75 -112 189 -179 312 -179c170 0 301 128 301 314v107
c-68 -85 -171 -144 -317 -144c-271 0 -487 216 -487 502c0 285 216 500 486 500c145 0 249 -58 318 -144v124zM587 188c161 0 291 132 291 295s-130 294 -291 294c-164 0 -292 -131 -292 -294s128 -295 292 -295z" />
    <glyph glyph-name="Gdotaccent" unicode="&#x120;" horiz-adv-x="1635" 
d="M899 1696c-69 0 -129 58 -129 128c0 73 60 130 129 130c71 0 130 -57 130 -130c0 -70 -59 -128 -130 -128zM869 834h633v-834h-184l-21 105c-125 -78 -276 -125 -423 -125c-437 0 -788 350 -788 788s351 788 788 788c216 0 438 -100 579 -255l-174 -151
c-100 112 -250 178 -405 178c-312 0 -557 -244 -557 -560s245 -560 557 -560c150 0 296 62 396 168v249h-401v209z" />
    <glyph glyph-name="gdotaccent" unicode="&#x121;" horiz-adv-x="1260" 
d="M584 1123c-69 0 -129 58 -129 128c0 73 60 130 129 130c71 0 130 -57 130 -130c0 -70 -59 -128 -130 -128zM871 963h230v-945c0 -311 -227 -518 -523 -518c-178 0 -364 87 -467 247l147 136c75 -112 189 -179 312 -179c170 0 301 128 301 314v107
c-68 -85 -171 -144 -317 -144c-271 0 -487 216 -487 502c0 285 216 500 486 500c145 0 249 -58 318 -144v124zM587 188c161 0 291 132 291 295s-130 294 -291 294c-164 0 -292 -131 -292 -294s128 -295 292 -295z" />
    <glyph glyph-name="Gcommaaccent" unicode="&#x122;" horiz-adv-x="1635" 
d="M869 834h633v-834h-184l-21 105c-125 -78 -276 -125 -423 -125c-437 0 -788 350 -788 788s351 788 788 788c216 0 438 -100 579 -255l-174 -151c-100 112 -250 178 -405 178c-312 0 -557 -244 -557 -560s245 -560 557 -560c150 0 296 62 396 168v249h-401v209zM644 -550
l201 459l177 -79l-261 -430z" />
    <glyph glyph-name="gcommaaccent" unicode="&#x123;" horiz-adv-x="1260" 
d="M585 1078c-80 0 -138 62 -138 142c0 18 4 36 10 54l168 439h120l-114 -365c54 -17 93 -71 93 -130c0 -75 -64 -140 -139 -140zM871 963h230v-945c0 -311 -227 -518 -523 -518c-178 0 -364 87 -467 247l147 136c75 -112 189 -179 312 -179c170 0 301 128 301 314v107
c-68 -85 -171 -144 -317 -144c-271 0 -487 216 -487 502c0 285 216 500 486 500c145 0 249 -58 318 -144v124zM587 188c161 0 291 132 291 295s-130 294 -291 294c-164 0 -292 -131 -292 -294s128 -295 292 -295z" />
    <glyph glyph-name="Hbar" unicode="&#x126;" horiz-adv-x="1622" 
d="M1547 1265v-123h-123v-1142h-236v658h-754v-658h-236v1142h-127v123h127v271h236v-271h754v271h236v-271h123zM1188 880v262h-754v-262h754z" />
    <glyph glyph-name="hbar" unicode="&#x127;" horiz-adv-x="1117" 
d="M634 981c199 0 350 -157 350 -356v-625h-228v601c0 101 -78 175 -179 175c-106 0 -188 -75 -190 -174v-602h-228v1175h-138v148h138v213h228v-213h279v-148h-279v-295c63 63 148 101 247 101z" />
    <glyph glyph-name="Itilde" unicode="&#x128;" horiz-adv-x="632" 
d="M449 1635c-94 0 -153 52 -194 115c-24 36 -45 49 -72 49c-60 0 -89 -69 -89 -154h-143c0 167 85 294 226 294c92 0 153 -54 195 -115c16 -24 36 -49 75 -49c57 0 86 54 86 154h142c0 -164 -78 -294 -226 -294zM198 0v1536h236v-1536h-236z" />
    <glyph glyph-name="itilde" unicode="&#x129;" horiz-adv-x="546" 
d="M407 1062c-94 0 -153 52 -194 115c-24 36 -45 49 -72 49c-60 0 -89 -69 -89 -154h-143c0 167 85 294 226 294c92 0 153 -54 195 -115c16 -24 36 -49 75 -49c57 0 86 54 86 154h142c0 -164 -78 -294 -226 -294zM159 0v963h228v-963h-228z" />
    <glyph glyph-name="Imacron" unicode="&#x12a;" horiz-adv-x="632" 
d="M-3 1734v143h635v-143h-635zM198 0v1536h236v-1536h-236z" />
    <glyph glyph-name="imacron" unicode="&#x12b;" horiz-adv-x="546" 
d="M-45 1161v143h635v-143h-635zM159 0v963h228v-963h-228z" />
    <glyph glyph-name="Iogonek" unicode="&#x12e;" horiz-adv-x="632" 
d="M464 -290l92 -127c-81 -82 -189 -119 -295 -113c-149 9 -241 97 -241 228c0 127 88 225 212 302h-34v1536h236v-1536c-147 -63 -264 -154 -264 -265c0 -74 50 -107 115 -107c63 0 128 30 179 82z" />
    <glyph glyph-name="iogonek" unicode="&#x12f;" horiz-adv-x="546" 
d="M272 1123c-69 0 -129 58 -129 128c0 73 60 130 129 130c71 0 130 -57 130 -130c0 -70 -59 -128 -130 -128zM417 -290l92 -127c-81 -82 -189 -119 -295 -113c-149 9 -241 97 -241 228c0 127 88 225 212 302h-26v963h228v-963c-147 -63 -264 -154 -264 -265
c0 -74 50 -107 115 -107c63 0 128 30 179 82z" />
    <glyph glyph-name="Idotaccent" unicode="&#x130;" horiz-adv-x="632" 
d="M314 1696c-69 0 -129 58 -129 128c0 73 60 130 129 130c71 0 130 -57 130 -130c0 -70 -59 -128 -130 -128zM198 0v1536h236v-1536h-236z" />
    <glyph glyph-name="dotlessi" unicode="&#x131;" horiz-adv-x="546" 
d="M159 0v963h228v-963h-228z" />
    <glyph glyph-name="Kcommaaccent" unicode="&#x136;" horiz-adv-x="1393" 
d="M693 778l674 -778h-306l-627 741v-741h-236v1536h236v-721l609 721h301zM442 -550l201 459l177 -79l-261 -430z" />
    <glyph glyph-name="kcommaaccent" unicode="&#x137;" horiz-adv-x="1096" 
d="M626 519l474 -519h-296l-417 473v-473h-228v1536h228v-981l362 408h290zM319 -550l201 459l177 -79l-261 -430z" />
    <glyph glyph-name="Lacute" unicode="&#x139;" horiz-adv-x="1012" 
d="M624 1938l-338 -292l-85 94l306 329zM434 221h545v-221h-781v1536h236v-1315z" />
    <glyph glyph-name="lacute" unicode="&#x13a;" horiz-adv-x="546" 
d="M244 1646l-85 94l306 329l117 -131zM159 0v1536h228v-1536h-228z" />
    <glyph glyph-name="Lcommaaccent" unicode="&#x13b;" horiz-adv-x="1012" 
d="M434 221h545v-221h-781v1536h236v-1315zM352 -550l201 459l177 -79l-261 -430z" />
    <glyph glyph-name="lcommaaccent" unicode="&#x13c;" horiz-adv-x="546" 
d="M159 0v1536h228v-1536h-228zM153 -600l-117 50l201 459l177 -79z" />
    <glyph glyph-name="Lcaron" unicode="&#x13d;" horiz-adv-x="1012" 
d="M830 968h-146l100 326c-44 24 -75 70 -75 123c0 76 64 140 139 140c76 0 140 -64 140 -140c0 -21 -5 -41 -14 -59zM434 1536v-1315h545v-221h-781v1536h236z" />
    <glyph glyph-name="lcaron" unicode="&#x13e;" horiz-adv-x="546" 
d="M800 1417c0 -21 -5 -41 -14 -59l-144 -390h-146l100 326c-44 24 -75 70 -75 123c0 76 64 140 139 140c76 0 140 -64 140 -140zM159 0v1536h228v-1536h-228z" />
    <glyph glyph-name="Ldot" unicode="&#x13f;" horiz-adv-x="1034" 
d="M434 221h545v-221h-781v1536h236v-1315zM801 814c-61 0 -114 48 -114 113c0 61 53 115 114 115c60 0 115 -54 115 -115c0 -65 -55 -113 -115 -113z" />
    <glyph glyph-name="ldot" unicode="&#x140;" horiz-adv-x="733" 
d="M159 0v1536h228v-1536h-228zM610 694c-67 0 -126 53 -126 125c0 68 59 128 126 128s128 -60 128 -128c0 -72 -61 -125 -128 -125z" />
    <glyph glyph-name="Lslash" unicode="&#x141;" horiz-adv-x="1012" 
d="M434 221h545v-221h-781v554l-111 -82v179l111 82v803h236v-627l289 214v-179l-289 -214v-509z" />
    <glyph glyph-name="lslash" unicode="&#x142;" horiz-adv-x="613" 
d="M540 978v-178l-133 -98v-702h-228v533l-116 -86v177l116 86v826h228v-657z" />
    <glyph glyph-name="Nacute" unicode="&#x143;" horiz-adv-x="1577" 
d="M1075 1938l-338 -292l-85 94l306 329zM1167 1536h236v-1536h-94l-897 1041v-1041h-236v1536h92l899 -1037v1037z" />
    <glyph glyph-name="nacute" unicode="&#x144;" horiz-adv-x="1117" 
d="M884 1365l-338 -292l-85 94l306 329zM638 981c193 0 346 -157 346 -356v-625h-228v600c0 105 -80 180 -182 180c-104 0 -185 -77 -187 -179v-601h-228v963h228v-83c66 65 156 101 251 101z" />
    <glyph glyph-name="Ncommaaccent" unicode="&#x145;" horiz-adv-x="1577" 
d="M1167 1536h236v-1536h-94l-897 1041v-1041h-236v1536h92l899 -1037v1037zM529 -550l201 459l177 -79l-261 -430z" />
    <glyph glyph-name="ncommaaccent" unicode="&#x146;" horiz-adv-x="1117" 
d="M638 981c193 0 346 -157 346 -356v-625h-228v600c0 105 -80 180 -182 180c-104 0 -185 -77 -187 -179v-601h-228v963h228v-83c66 65 156 101 251 101zM337 -550l201 459l177 -79l-261 -430z" />
    <glyph glyph-name="Ncaron" unicode="&#x147;" horiz-adv-x="1577" 
d="M855 1686h-182l-219 298l102 63l210 -224l208 224l103 -63zM1167 1536h236v-1536h-94l-897 1041v-1041h-236v1536h92l899 -1037v1037z" />
    <glyph glyph-name="ncaron" unicode="&#x148;" horiz-adv-x="1117" 
d="M664 1113h-182l-219 298l102 63l210 -224l208 224l103 -63zM638 981c193 0 346 -157 346 -356v-625h-228v600c0 105 -80 180 -182 180c-104 0 -185 -77 -187 -179v-601h-228v963h228v-83c66 65 156 101 251 101z" />
    <glyph glyph-name="Eng" unicode="&#x14a;" horiz-adv-x="1734" 
d="M1300 1536h235v-1593c0 -251 -87 -394 -386 -394h-51v158c140 -1 202 30 202 229v64l-866 1162v-1162h-236v1536h234l868 -1159v1159z" />
    <glyph glyph-name="eng" unicode="&#x14b;" horiz-adv-x="1116" 
d="M587 -470v179c106 -1 168 16 168 291v600c0 105 -80 180 -182 180c-106 0 -186 -78 -188 -181v-599h-228v963h228v-86c66 69 156 104 252 104c192 0 346 -157 346 -356v-625c0 -341 -133 -471 -396 -470z" />
    <glyph glyph-name="Omacron" unicode="&#x14c;" horiz-adv-x="1746" 
d="M555 1734v143h635v-143h-635zM873 -20c-436 0 -789 352 -789 788s353 788 789 788s788 -352 788 -788s-352 -788 -788 -788zM873 211c312 0 557 245 557 557s-245 557 -557 557c-311 0 -557 -245 -557 -557s246 -557 557 -557z" />
    <glyph glyph-name="omacron" unicode="&#x14d;" horiz-adv-x="1148" 
d="M256 1160v143h635v-143h-635zM574 -18c-287 0 -509 222 -509 499c0 278 222 500 509 500c285 0 507 -222 507 -500c0 -277 -222 -499 -507 -499zM573 190c159 0 286 126 286 291s-127 292 -286 292c-161 0 -286 -126 -286 -292s125 -291 286 -291z" />
    <glyph glyph-name="Ohungarumlaut" unicode="&#x150;" horiz-adv-x="1746" 
d="M668 1684l-101 112l339 306l110 -122zM1076 1684l-101 112l339 306l110 -122zM873 -20c-436 0 -789 352 -789 788s353 788 789 788s788 -352 788 -788s-352 -788 -788 -788zM873 211c312 0 557 245 557 557s-245 557 -557 557c-311 0 -557 -245 -557 -557
s246 -557 557 -557z" />
    <glyph glyph-name="ohungarumlaut" unicode="&#x151;" horiz-adv-x="1148" 
d="M369 1110l-101 112l339 306l110 -122zM777 1110l-101 112l339 306l110 -122zM574 -18c-287 0 -509 222 -509 499c0 278 222 500 509 500c285 0 507 -222 507 -500c0 -277 -222 -499 -507 -499zM573 190c159 0 286 126 286 291s-127 292 -286 292
c-161 0 -286 -126 -286 -292s125 -291 286 -291z" />
    <glyph glyph-name="OE" unicode="&#x152;" horiz-adv-x="2408" 
d="M2305 1322h-644v-447h558v-214h-558v-447h644v-214h-836v252c-144 -167 -358 -272 -596 -272c-436 0 -789 352 -789 788s353 788 789 788c238 0 452 -105 596 -272v252h836v-214zM874 208c310 0 559 248 559 560s-249 560 -559 560c-313 0 -561 -248 -561 -560
s248 -560 561 -560z" />
    <glyph glyph-name="oe" unicode="&#x153;" horiz-adv-x="1944" 
d="M1885 492l-3 -49h-778c17 -163 136 -272 289 -272c107 0 203 52 257 144l185 -76c-80 -159 -242 -257 -440 -257c-173 0 -317 73 -408 188c-94 -115 -240 -188 -405 -188c-289 0 -517 222 -517 499c0 278 228 500 517 500c166 0 311 -73 405 -189c91 116 234 190 401 190
c277 0 491 -202 497 -490zM1390 796c-131 0 -230 -76 -269 -193h526c-39 117 -129 193 -257 193zM582 186c162 0 294 131 294 295s-132 295 -294 295c-165 0 -297 -131 -297 -295s132 -295 297 -295z" />
    <glyph glyph-name="Racute" unicode="&#x154;" horiz-adv-x="1422" 
d="M966 1938l-338 -292l-85 94l306 329zM1091 0l-341 658h-316v-658h-236v1536h674c247 0 441 -198 441 -442c0 -205 -133 -370 -319 -420l353 -674h-256zM434 1319v-452h407c135 0 241 83 241 224c0 137 -106 228 -241 228h-407z" />
    <glyph glyph-name="racute" unicode="&#x155;" horiz-adv-x="787" 
d="M408 1073l-85 94l306 329l117 -131zM643 982c62 0 111 -19 148 -44l-78 -195c-28 14 -60 22 -89 22c-132 0 -237 -118 -237 -289v-476h-228v963h228v-152c52 103 137 171 256 171z" />
    <glyph glyph-name="Rcommaaccent" unicode="&#x156;" horiz-adv-x="1422" 
d="M994 674l353 -674h-256l-341 658h-316v-658h-236v1536h674c247 0 441 -198 441 -442c0 -205 -133 -370 -319 -420zM434 1319v-452h407c135 0 241 83 241 224c0 137 -106 228 -241 228h-407zM420 -550l201 459l177 -79l-261 -430z" />
    <glyph glyph-name="rcommaaccent" unicode="&#x157;" horiz-adv-x="787" 
d="M643 982c62 0 111 -19 148 -44l-78 -195c-28 14 -60 22 -89 22c-132 0 -237 -118 -237 -289v-476h-228v963h228v-152c52 103 137 171 256 171zM153 -600l-117 50l201 459l177 -79z" />
    <glyph glyph-name="Rcaron" unicode="&#x158;" horiz-adv-x="1422" 
d="M746 1686h-182l-219 298l102 63l210 -224l208 224l103 -63zM1091 0l-341 658h-316v-658h-236v1536h674c247 0 441 -198 441 -442c0 -205 -133 -370 -319 -420l353 -674h-256zM434 1319v-452h407c135 0 241 83 241 224c0 137 -106 228 -241 228h-407z" />
    <glyph glyph-name="rcaron" unicode="&#x159;" horiz-adv-x="787" 
d="M344 1113l-219 298l102 63l210 -224l208 224l103 -63l-222 -298h-182zM643 982c62 0 111 -19 148 -44l-78 -195c-28 14 -60 22 -89 22c-132 0 -237 -118 -237 -289v-476h-228v963h228v-152c52 103 137 171 256 171z" />
    <glyph glyph-name="Sacute" unicode="&#x15a;" horiz-adv-x="1164" 
d="M554 1646l-85 94l306 329l117 -131zM597 -20c-238 0 -437 123 -542 252l162 164c97 -132 216 -211 374 -211s265 86 265 224c0 156 -155 217 -329 288c-191 79 -403 173 -403 443c0 260 206 416 455 416c203 0 355 -94 463 -215l-143 -145c-116 125 -212 159 -318 159
c-123 0 -222 -71 -222 -196c0 -145 141 -204 296 -266c203 -83 436 -175 436 -473c0 -286 -230 -440 -494 -440z" />
    <glyph glyph-name="sacute" unicode="&#x15b;" horiz-adv-x="908" 
d="M419 1076l-85 94l306 329l117 -131zM454 -19c-175 0 -307 65 -394 124l107 166c70 -56 183 -107 289 -107c98 0 161 44 161 115c0 85 -99 102 -219 136c-140 38 -299 88 -299 276c0 193 173 291 374 291c124 0 246 -38 335 -98l-108 -151c-78 51 -172 77 -245 77
c-89 0 -145 -36 -145 -95c0 -82 113 -102 232 -133c158 -41 292 -101 292 -287c0 -201 -151 -314 -380 -314z" />
    <glyph glyph-name="Scedilla" unicode="&#x15e;" horiz-adv-x="1164" 
d="M1091 420c0 -275 -212 -428 -463 -439l-56 -110c136 26 245 -58 245 -186c0 -122 -95 -218 -217 -218c-98 0 -203 63 -238 144l111 40c24 -37 82 -66 127 -66c55 0 99 44 99 100c0 84 -82 117 -184 73l-93 57l88 171c-199 25 -363 133 -455 246l162 164
c97 -132 216 -211 374 -211s265 86 265 224c0 156 -155 217 -329 288c-191 79 -403 173 -403 443c0 260 206 416 455 416c203 0 355 -94 463 -215l-143 -145c-116 125 -212 159 -318 159c-123 0 -222 -71 -222 -196c0 -145 141 -204 296 -266c203 -83 436 -175 436 -473z
" />
    <glyph glyph-name="scedilla" unicode="&#x15f;" horiz-adv-x="908" 
d="M834 295c0 -179 -120 -289 -309 -310l-56 -110c136 26 245 -58 245 -186c0 -122 -95 -218 -217 -218c-98 0 -203 63 -238 144l111 40c24 -37 82 -66 127 -66c55 0 99 44 99 100c0 84 -82 117 -184 73l-93 57l85 164c-151 11 -266 69 -344 122l107 166
c70 -56 183 -107 289 -107c98 0 161 44 161 115c0 85 -99 102 -219 136c-140 38 -299 88 -299 276c0 193 173 291 374 291c124 0 246 -38 335 -98l-108 -151c-78 51 -172 77 -245 77c-89 0 -145 -36 -145 -95c0 -82 113 -102 232 -133c158 -41 292 -101 292 -287z" />
    <glyph glyph-name="Scaron" unicode="&#x160;" horiz-adv-x="1164" 
d="M490 1686l-219 298l102 63l210 -224l208 224l103 -63l-222 -298h-182zM597 -20c-238 0 -437 123 -542 252l162 164c97 -132 216 -211 374 -211s265 86 265 224c0 156 -155 217 -329 288c-191 79 -403 173 -403 443c0 260 206 416 455 416c203 0 355 -94 463 -215
l-143 -145c-116 125 -212 159 -318 159c-123 0 -222 -71 -222 -196c0 -145 141 -204 296 -266c203 -83 436 -175 436 -473c0 -286 -230 -440 -494 -440z" />
    <glyph glyph-name="scaron" unicode="&#x161;" horiz-adv-x="908" 
d="M355 1116l-219 298l102 63l210 -224l208 224l103 -63l-222 -298h-182zM454 -19c-175 0 -307 65 -394 124l107 166c70 -56 183 -107 289 -107c98 0 161 44 161 115c0 85 -99 102 -219 136c-140 38 -299 88 -299 276c0 193 173 291 374 291c124 0 246 -38 335 -98
l-108 -151c-78 51 -172 77 -245 77c-89 0 -145 -36 -145 -95c0 -82 113 -102 232 -133c158 -41 292 -101 292 -287c0 -201 -151 -314 -380 -314z" />
    <glyph glyph-name="uni0162" unicode="&#x162;" horiz-adv-x="1118" 
d="M677 0h-60l-65 -128c136 26 245 -58 245 -186c0 -122 -95 -218 -217 -218c-98 0 -203 63 -238 144l111 40c24 -37 82 -66 127 -66c55 0 99 44 99 100c0 84 -82 117 -184 73l-93 57l95 184h-56v1315h-409v221h1053v-221h-408v-1315z" />
    <glyph glyph-name="uni0163" unicode="&#x163;" horiz-adv-x="668" 
d="M449 0h-55l-65 -128c136 26 245 -58 245 -186c0 -122 -95 -218 -217 -218c-98 0 -203 63 -238 144l111 40c24 -37 82 -66 127 -66c55 0 99 44 99 100c0 84 -82 117 -184 73l-93 57l95 184h-54v774h-193v189h193v346h229v-346h191v-189h-191v-774z" />
    <glyph glyph-name="Tcaron" unicode="&#x164;" horiz-adv-x="1118" 
d="M647 1686h-182l-219 298l102 63l210 -224l208 224l103 -63zM1085 1536v-221h-408v-1315h-236v1315h-409v221h1053z" />
    <glyph glyph-name="tcaron" unicode="&#x165;" horiz-adv-x="668" 
d="M839 1525c0 -21 -5 -41 -14 -59l-144 -390h-146l100 326c-44 24 -75 70 -75 123c0 76 64 140 139 140c76 0 140 -64 140 -140zM449 1309v-346h191v-189h-191v-774h-229v774h-193v189h193v346h229z" />
    <glyph glyph-name="Tbar" unicode="&#x166;" horiz-adv-x="1118" 
d="M1085 1315h-408v-480h202v-148h-202v-687h-236v687h-207v148h207v480h-409v221h1053v-221z" />
    <glyph glyph-name="tbar" unicode="&#x167;" horiz-adv-x="668" 
d="M640 774h-191v-262h144v-148h-144v-364h-229v364h-146v148h146v262h-193v189h193v346h229v-346h191v-189z" />
    <glyph glyph-name="Utilde" unicode="&#x168;" horiz-adv-x="1536" 
d="M901 1635c-94 0 -153 52 -194 115c-24 36 -45 49 -72 49c-60 0 -89 -69 -89 -154h-143c0 167 85 294 226 294c92 0 153 -54 195 -115c16 -24 36 -49 75 -49c57 0 86 54 86 154h142c0 -164 -78 -294 -226 -294zM767 -20c-345 0 -602 221 -602 532v1024h236v-983
c0 -207 155 -352 366 -352s367 145 367 352v983h237v-1024c0 -311 -257 -532 -604 -532z" />
    <glyph glyph-name="utilde" unicode="&#x169;" horiz-adv-x="1074" 
d="M671 1062c-94 0 -153 52 -194 115c-24 36 -45 49 -72 49c-60 0 -89 -69 -89 -154h-143c0 167 85 294 226 294c92 0 153 -54 195 -115c16 -24 36 -49 75 -49c57 0 86 54 86 154h142c0 -164 -78 -294 -226 -294zM536 -19c-252 0 -404 146 -404 376v606h228v-585
c0 -123 74 -193 176 -193c104 0 178 70 178 193v585h228v-606c0 -230 -152 -376 -406 -376z" />
    <glyph glyph-name="Umacron" unicode="&#x16a;" horiz-adv-x="1536" 
d="M449 1734v143h635v-143h-635zM767 -20c-345 0 -602 221 -602 532v1024h236v-983c0 -207 155 -352 366 -352s367 145 367 352v983h237v-1024c0 -311 -257 -532 -604 -532z" />
    <glyph glyph-name="umacron" unicode="&#x16b;" horiz-adv-x="1074" 
d="M219 1161v143h635v-143h-635zM536 -19c-252 0 -404 146 -404 376v606h228v-585c0 -123 74 -193 176 -193c104 0 178 70 178 193v585h228v-606c0 -230 -152 -376 -406 -376z" />
    <glyph glyph-name="Uring" unicode="&#x16e;" horiz-adv-x="1536" 
d="M767 1667c-126 0 -230 104 -230 229s104 227 230 227c124 0 226 -102 226 -227s-102 -229 -226 -229zM767 1774c67 0 120 51 120 122c0 65 -53 123 -120 123s-119 -58 -119 -123c0 -71 52 -122 119 -122zM767 -20c-345 0 -602 221 -602 532v1024h236v-983
c0 -207 155 -352 366 -352s367 145 367 352v983h237v-1024c0 -311 -257 -532 -604 -532z" />
    <glyph glyph-name="uring" unicode="&#x16f;" horiz-adv-x="1074" 
d="M552 1113c-127 0 -230 104 -230 228c0 125 103 228 230 228c124 0 226 -103 226 -228c0 -124 -102 -228 -226 -228zM552 1220c66 0 119 50 119 121c0 66 -53 124 -119 124c-68 0 -120 -58 -120 -124c0 -71 52 -121 120 -121zM536 -19c-252 0 -404 146 -404 376v606h228
v-585c0 -123 74 -193 176 -193c104 0 178 70 178 193v585h228v-606c0 -230 -152 -376 -406 -376z" />
    <glyph glyph-name="Uhungarumlaut" unicode="&#x170;" horiz-adv-x="1536" 
d="M562 1684l-101 112l339 306l110 -122zM970 1684l-101 112l339 306l110 -122zM767 -20c-345 0 -602 221 -602 532v1024h236v-983c0 -207 155 -352 366 -352s367 145 367 352v983h237v-1024c0 -311 -257 -532 -604 -532z" />
    <glyph glyph-name="uhungarumlaut" unicode="&#x171;" horiz-adv-x="1074" 
d="M332 1111l-101 112l339 306l110 -122zM740 1111l-101 112l339 306l110 -122zM536 -19c-252 0 -404 146 -404 376v606h228v-585c0 -123 74 -193 176 -193c104 0 178 70 178 193v585h228v-606c0 -230 -152 -376 -406 -376z" />
    <glyph glyph-name="Uogonek" unicode="&#x172;" horiz-adv-x="1536" 
d="M1134 1536h237v-1024c0 -255 -172 -449 -425 -511c-114 -60 -197 -140 -197 -233c0 -74 50 -107 115 -107c63 0 128 30 179 82l92 -127c-81 -82 -189 -119 -295 -113c-149 9 -241 97 -241 228c0 100 54 182 138 250c-330 12 -572 229 -572 531v1024h236v-983
c0 -207 155 -352 366 -352s367 145 367 352v983z" />
    <glyph glyph-name="uogonek" unicode="&#x173;" horiz-adv-x="1074" 
d="M714 963h228v-606c0 -195 -109 -330 -298 -366c-137 -63 -243 -150 -243 -256c0 -74 50 -107 115 -107c63 0 128 30 179 82l92 -127c-81 -82 -189 -119 -295 -113c-149 9 -241 97 -241 228c0 121 80 215 193 290c-197 32 -312 169 -312 369v606h228v-585
c0 -123 74 -193 176 -193c104 0 178 70 178 193v585z" />
    <glyph glyph-name="Wcircumflex" unicode="&#x174;" horiz-adv-x="2013" 
d="M1008 1869l-210 -224l-102 64l220 298h181l222 -298l-103 -64zM1763 1536h256l-600 -1536h-166l-247 610l-248 -610h-166l-598 1536h254l436 -1193l208 548l-261 645h243l132 -345l131 345h245l-262 -645l210 -549z" />
    <glyph glyph-name="wcircumflex" unicode="&#x175;" horiz-adv-x="1522" 
d="M762 1296l-210 -224l-102 64l220 298h181l222 -298l-103 -64zM1282 963h234l-342 -963h-177l-238 647l-239 -647h-176l-338 963h232l213 -646l237 646h143l238 -650z" />
    <glyph glyph-name="Ycircumflex" unicode="&#x176;" horiz-adv-x="1335" 
d="M669 1869l-210 -224l-102 64l220 298h181l222 -298l-103 -64zM1322 1536l-535 -809v-727h-236v722l-538 814h279l377 -589l378 589h275z" />
    <glyph glyph-name="ycircumflex" unicode="&#x177;" horiz-adv-x="1035" 
d="M503 1296l-210 -224l-102 64l220 298h181l222 -298l-103 -64zM779 963h245l-583 -1455h-236l195 496l-391 959h251l264 -720z" />
    <glyph glyph-name="Ydieresis" unicode="&#x178;" horiz-adv-x="1335" 
d="M471 1648c-70 0 -130 58 -130 129c0 73 60 129 130 129s130 -56 130 -129c0 -71 -60 -129 -130 -129zM869 1648c-71 0 -130 58 -130 129c0 73 59 129 130 129s129 -56 129 -129c0 -71 -58 -129 -129 -129zM1322 1536l-535 -809v-727h-236v722l-538 814h279l377 -589
l378 589h275z" />
    <glyph glyph-name="Zacute" unicode="&#x179;" horiz-adv-x="1347" 
d="M1001 1938l-338 -292l-85 94l306 329zM1311 1536v-23l-881 -1292h843v-221h-1247v31l876 1284h-790v221h1199z" />
    <glyph glyph-name="zacute" unicode="&#x17a;" horiz-adv-x="958" 
d="M803 1365l-338 -292l-85 94l306 329zM905 963l-498 -774h493v-189h-858l497 774h-466v189h832z" />
    <glyph glyph-name="Zdotaccent" unicode="&#x17b;" horiz-adv-x="1347" 
d="M691 1696c-69 0 -129 58 -129 128c0 73 60 130 129 130c71 0 130 -57 130 -130c0 -70 -59 -128 -130 -128zM1311 1536v-23l-881 -1292h843v-221h-1247v31l876 1284h-790v221h1199z" />
    <glyph glyph-name="zdotaccent" unicode="&#x17c;" horiz-adv-x="958" 
d="M493 1123c-69 0 -129 58 -129 128c0 73 60 130 129 130c71 0 130 -57 130 -130c0 -70 -59 -128 -130 -128zM905 963l-498 -774h493v-189h-858l497 774h-466v189h832z" />
    <glyph glyph-name="Zcaron" unicode="&#x17d;" horiz-adv-x="1347" 
d="M781 1686h-182l-219 298l102 63l210 -224l208 224l103 -63zM1311 1536v-23l-881 -1292h843v-221h-1247v31l876 1284h-790v221h1199z" />
    <glyph glyph-name="zcaron" unicode="&#x17e;" horiz-adv-x="958" 
d="M583 1113h-182l-219 298l102 63l210 -224l208 224l103 -63zM905 963l-498 -774h493v-189h-858l497 774h-466v189h832z" />
    <glyph glyph-name="florin" unicode="&#x192;" horiz-adv-x="1052" 
d="M836 1372c-105 0 -181 -74 -199 -187l-26 -161h279l-29 -194h-281l-214 -1342h-229l212 1342h-172l30 194h172l31 194c31 192 209 338 400 338c65 0 126 -17 150 -36l-22 -181c-26 23 -67 33 -102 33z" />
    <glyph glyph-name="Ohorn" unicode="&#x1a0;" horiz-adv-x="1746" 
d="M1602 1511h154v-124c0 -177 -92 -245 -186 -250c58 -110 91 -235 91 -369c0 -436 -352 -788 -788 -788s-789 352 -789 788s353 788 789 788c267 0 503 -132 645 -335c70 5 95 67 90 133zM873 211c312 0 557 245 557 557s-245 557 -557 557c-311 0 -557 -245 -557 -557
s246 -557 557 -557z" />
    <glyph glyph-name="ohorn" unicode="&#x1a1;" horiz-adv-x="1148" 
d="M1103 1026h154v-124c0 -184 -99 -250 -197 -250h-9c20 -53 30 -111 30 -171c0 -277 -222 -499 -507 -499c-287 0 -509 222 -509 499c0 278 222 500 509 500c189 0 351 -98 438 -245c75 0 102 64 97 133zM573 190c159 0 286 126 286 291s-127 292 -286 292
c-161 0 -286 -126 -286 -292s125 -291 286 -291z" />
    <glyph glyph-name="Uhorn" unicode="&#x1af;" horiz-adv-x="1705" 
d="M1465 1537h154v-124c0 -184 -99 -250 -197 -250c-16 0 -33 2 -51 5v-656c0 -311 -257 -532 -604 -532c-345 0 -602 221 -602 532v1024h236v-983c0 -207 155 -352 366 -352s367 145 367 352v983h237v-289h2c76 0 103 64 98 133z" />
    <glyph glyph-name="uhorn" unicode="&#x1b0;" horiz-adv-x="1074" 
d="M1077 962h154v-124c0 -184 -99 -250 -197 -250c-27 0 -59 5 -92 14v-245c0 -230 -152 -376 -406 -376c-252 0 -404 146 -404 376v606h228v-585c0 -123 74 -193 176 -193c104 0 178 70 178 193v585h228v-285c17 -4 31 -6 43 -6c76 0 103 64 98 133z" />
    <glyph glyph-name="uni01CD" unicode="&#x1cd;" horiz-adv-x="1372" 
d="M775 1686h-182l-219 298l102 63l210 -224l208 224l103 -63zM1112 0l-88 242h-678l-88 -242h-258l610 1536h150l612 -1536h-260zM422 449h527l-263 726z" />
    <glyph glyph-name="uni01CE" unicode="&#x1ce;" horiz-adv-x="1256" 
d="M672 1114h-182l-219 298l102 63l210 -224l208 224l103 -63zM870 963h229v-963h-216l-5 139c-73 -93 -184 -158 -338 -158c-253 0 -471 216 -471 502c0 284 218 500 471 500c148 0 257 -60 330 -148v128zM589 188c162 0 291 131 291 295c0 163 -129 294 -291 294
c-163 0 -292 -131 -292 -294c0 -164 129 -295 292 -295z" />
    <glyph glyph-name="uni01CF" unicode="&#x1cf;" horiz-adv-x="632" 
d="M222 1686l-219 298l102 63l210 -224l208 224l103 -63l-222 -298h-182zM198 0v1536h236v-1536h-236z" />
    <glyph glyph-name="uni01D0" unicode="&#x1d0;" horiz-adv-x="546" 
d="M180 1113l-219 298l102 63l210 -224l208 224l103 -63l-222 -298h-182zM159 0v963h228v-963h-228z" />
    <glyph glyph-name="uni01D1" unicode="&#x1d1;" horiz-adv-x="1746" 
d="M780 1686l-219 298l102 63l210 -224l208 224l103 -63l-222 -298h-182zM873 -20c-436 0 -789 352 -789 788s353 788 789 788s788 -352 788 -788s-352 -788 -788 -788zM873 211c312 0 557 245 557 557s-245 557 -557 557c-311 0 -557 -245 -557 -557s246 -557 557 -557z
" />
    <glyph glyph-name="uni01D2" unicode="&#x1d2;" horiz-adv-x="1148" 
d="M481 1112l-219 298l102 63l210 -224l208 224l103 -63l-222 -298h-182zM574 -18c-287 0 -509 222 -509 499c0 278 222 500 509 500c285 0 507 -222 507 -500c0 -277 -222 -499 -507 -499zM573 190c159 0 286 126 286 291s-127 292 -286 292c-161 0 -286 -126 -286 -292
s125 -291 286 -291z" />
    <glyph glyph-name="uni01D3" unicode="&#x1d3;" horiz-adv-x="1536" 
d="M674 1686l-219 298l102 63l210 -224l208 224l103 -63l-222 -298h-182zM767 -20c-345 0 -602 221 -602 532v1024h236v-983c0 -207 155 -352 366 -352s367 145 367 352v983h237v-1024c0 -311 -257 -532 -604 -532z" />
    <glyph glyph-name="uni01D4" unicode="&#x1d4;" horiz-adv-x="1074" 
d="M444 1113l-219 298l102 63l210 -224l208 224l103 -63l-222 -298h-182zM536 -19c-252 0 -404 146 -404 376v606h228v-585c0 -123 74 -193 176 -193c104 0 178 70 178 193v585h228v-606c0 -230 -152 -376 -406 -376z" />
    <glyph glyph-name="uni01D5" unicode="&#x1d5;" horiz-adv-x="1536" 
d="M449 2104v143h635v-143h-635zM569 1648c-70 0 -130 58 -130 129c0 73 60 129 130 129s130 -56 130 -129c0 -71 -60 -129 -130 -129zM967 1648c-71 0 -130 58 -130 129c0 73 59 129 130 129s129 -56 129 -129c0 -71 -58 -129 -129 -129zM767 -20c-345 0 -602 221 -602 532
v1024h236v-983c0 -207 155 -352 366 -352s367 145 367 352v983h237v-1024c0 -311 -257 -532 -604 -532z" />
    <glyph glyph-name="uni01D6" unicode="&#x1d6;" horiz-adv-x="1074" 
d="M219 1592v143h635v-143h-635zM339 1136c-70 0 -130 58 -130 129c0 73 60 129 130 129s130 -56 130 -129c0 -71 -60 -129 -130 -129zM737 1136c-71 0 -130 58 -130 129c0 73 59 129 130 129s129 -56 129 -129c0 -71 -58 -129 -129 -129zM536 -19c-252 0 -404 146 -404 376
v606h228v-585c0 -123 74 -193 176 -193c104 0 178 70 178 193v585h228v-606c0 -230 -152 -376 -406 -376z" />
    <glyph glyph-name="uni01D7" unicode="&#x1d7;" horiz-adv-x="1536" 
d="M738 2016l-85 94l306 329l117 -131zM569 1648c-70 0 -130 58 -130 129c0 73 60 129 130 129s130 -56 130 -129c0 -71 -60 -129 -130 -129zM967 1648c-71 0 -130 58 -130 129c0 73 59 129 130 129s129 -56 129 -129c0 -71 -58 -129 -129 -129zM767 -20
c-345 0 -602 221 -602 532v1024h236v-983c0 -207 155 -352 366 -352s367 145 367 352v983h237v-1024c0 -311 -257 -532 -604 -532z" />
    <glyph glyph-name="uni01D8" unicode="&#x1d8;" horiz-adv-x="1074" 
d="M508 1504l-85 94l306 329l117 -131zM339 1136c-70 0 -130 58 -130 129c0 73 60 129 130 129s130 -56 130 -129c0 -71 -60 -129 -130 -129zM737 1136c-71 0 -130 58 -130 129c0 73 59 129 130 129s129 -56 129 -129c0 -71 -58 -129 -129 -129zM536 -19
c-252 0 -404 146 -404 376v606h228v-585c0 -123 74 -193 176 -193c104 0 178 70 178 193v585h228v-606c0 -230 -152 -376 -406 -376z" />
    <glyph glyph-name="uni01D9" unicode="&#x1d9;" horiz-adv-x="1536" 
d="M674 2056l-219 298l102 63l210 -224l208 224l103 -63l-222 -298h-182zM569 1648c-70 0 -130 58 -130 129c0 73 60 129 130 129s130 -56 130 -129c0 -71 -60 -129 -130 -129zM967 1648c-71 0 -130 58 -130 129c0 73 59 129 130 129s129 -56 129 -129
c0 -71 -58 -129 -129 -129zM767 -20c-345 0 -602 221 -602 532v1024h236v-983c0 -207 155 -352 366 -352s367 145 367 352v983h237v-1024c0 -311 -257 -532 -604 -532z" />
    <glyph glyph-name="uni01DA" unicode="&#x1da;" horiz-adv-x="1074" 
d="M444 1544l-219 298l102 63l210 -224l208 224l103 -63l-222 -298h-182zM339 1136c-70 0 -130 58 -130 129c0 73 60 129 130 129s130 -56 130 -129c0 -71 -60 -129 -130 -129zM737 1136c-71 0 -130 58 -130 129c0 73 59 129 130 129s129 -56 129 -129
c0 -71 -58 -129 -129 -129zM536 -19c-252 0 -404 146 -404 376v606h228v-585c0 -123 74 -193 176 -193c104 0 178 70 178 193v585h228v-606c0 -230 -152 -376 -406 -376z" />
    <glyph glyph-name="uni01DB" unicode="&#x1db;" horiz-adv-x="1536" 
d="M774 2019l-340 289l119 131l302 -330zM569 1648c-70 0 -130 58 -130 129c0 73 60 129 130 129s130 -56 130 -129c0 -71 -60 -129 -130 -129zM967 1648c-71 0 -130 58 -130 129c0 73 59 129 130 129s129 -56 129 -129c0 -71 -58 -129 -129 -129zM767 -20
c-345 0 -602 221 -602 532v1024h236v-983c0 -207 155 -352 366 -352s367 145 367 352v983h237v-1024c0 -311 -257 -532 -604 -532z" />
    <glyph glyph-name="uni01DC" unicode="&#x1dc;" horiz-adv-x="1074" 
d="M544 1507l-340 289l119 131l302 -330zM339 1136c-70 0 -130 58 -130 129c0 73 60 129 130 129s130 -56 130 -129c0 -71 -60 -129 -130 -129zM737 1136c-71 0 -130 58 -130 129c0 73 59 129 130 129s129 -56 129 -129c0 -71 -58 -129 -129 -129zM536 -19
c-252 0 -404 146 -404 376v606h228v-585c0 -123 74 -193 176 -193c104 0 178 70 178 193v585h228v-606c0 -230 -152 -376 -406 -376z" />
    <glyph glyph-name="Scommaaccent" unicode="&#x218;" horiz-adv-x="1164" 
d="M597 -20c-238 0 -437 123 -542 252l162 164c97 -132 216 -211 374 -211s265 86 265 224c0 156 -155 217 -329 288c-191 79 -403 173 -403 443c0 260 206 416 455 416c203 0 355 -94 463 -215l-143 -145c-116 125 -212 159 -318 159c-123 0 -222 -71 -222 -196
c0 -145 141 -204 296 -266c203 -83 436 -175 436 -473c0 -286 -230 -440 -494 -440zM458 -601l-117 50l201 459l177 -79z" />
    <glyph glyph-name="scommaaccent" unicode="&#x219;" horiz-adv-x="908" 
d="M454 -19c-175 0 -307 65 -394 124l107 166c70 -56 183 -107 289 -107c98 0 161 44 161 115c0 85 -99 102 -219 136c-140 38 -299 88 -299 276c0 193 173 291 374 291c124 0 246 -38 335 -98l-108 -151c-78 51 -172 77 -245 77c-89 0 -145 -36 -145 -95
c0 -82 113 -102 232 -133c158 -41 292 -101 292 -287c0 -201 -151 -314 -380 -314zM355 -597l-117 50l201 459l177 -79z" />
    <glyph glyph-name="uni021A" unicode="&#x21a;" horiz-adv-x="1118" 
d="M32 1536h1053v-221h-408v-1315h-236v1315h-409v221zM321 -550l201 459l177 -79l-261 -430z" />
    <glyph glyph-name="uni021B" unicode="&#x21b;" horiz-adv-x="668" 
d="M449 963h191v-189h-191v-774h-229v774h-193v189h193v346h229v-346zM98 -550l201 459l177 -79l-261 -430z" />
    <glyph glyph-name="uni0237" unicode="&#x237;" horiz-adv-x="544" 
d="M159 -481v1444h226v-1444h-226z" />
    <glyph glyph-name="circumflex" unicode="&#x2c6;" horiz-adv-x="745" 
d="M156 1174l-102 64l220 298h181l222 -298l-103 -64l-208 224z" />
    <glyph glyph-name="caron" unicode="&#x2c7;" horiz-adv-x="747" 
d="M276 1174l-219 298l102 63l210 -224l208 224l103 -63l-222 -298h-182z" />
    <glyph glyph-name="breve" unicode="&#x2d8;" horiz-adv-x="889" 
d="M465 1192c-204 0 -351 119 -351 332h156c0 -105 67 -196 195 -196c130 0 197 91 197 196h156c0 -213 -147 -332 -353 -332z" />
    <glyph glyph-name="dotaccent" unicode="&#x2d9;" horiz-adv-x="497" 
d="M257 1198c-69 0 -129 58 -129 128c0 73 60 130 129 130c71 0 130 -57 130 -130c0 -70 -59 -128 -130 -128z" />
    <glyph glyph-name="ring" unicode="&#x2da;" horiz-adv-x="656" 
d="M344 1113c-127 0 -230 104 -230 228c0 125 103 228 230 228c124 0 226 -103 226 -228c0 -124 -102 -228 -226 -228zM344 1220c66 0 119 50 119 121c0 66 -53 124 -119 124c-68 0 -120 -58 -120 -124c0 -71 52 -121 120 -121z" />
    <glyph glyph-name="ogonek" unicode="&#x2db;" horiz-adv-x="651" 
d="M329 -530c-149 9 -241 97 -241 228c0 157 134 269 302 352l112 -50c-147 -63 -264 -154 -264 -265c0 -74 50 -107 115 -107c63 0 128 30 179 82l92 -127c-81 -82 -189 -119 -295 -113z" />
    <glyph glyph-name="tilde" unicode="&#x2dc;" horiz-adv-x="940" 
d="M645 1242c-94 0 -153 52 -194 115c-24 36 -45 49 -72 49c-60 0 -89 -69 -89 -154h-143c0 167 85 294 226 294c92 0 153 -54 195 -115c16 -24 36 -49 75 -49c57 0 86 54 86 154h142c0 -164 -78 -294 -226 -294z" />
    <glyph glyph-name="hungarumlaut" unicode="&#x2dd;" horiz-adv-x="502" 
d="M112 1134l-85 94l306 329l117 -131z" />
    <glyph glyph-name="gravecomb" unicode="&#x300;" 
d="M-119 1137l-340 289l119 131l302 -330z" />
    <glyph glyph-name="acutecomb" unicode="&#x301;" 
d="M-380 1134l-85 94l306 329l117 -131z" />
    <glyph glyph-name="uni0302" unicode="&#x302;" 
d="M-582 1174l-102 64l220 298h181l222 -298l-103 -64l-208 224z" />
    <glyph glyph-name="tildecomb" unicode="&#x303;" 
d="M-335 1242c-94 0 -153 52 -194 115c-24 36 -45 49 -72 49c-60 0 -89 -69 -89 -154h-143c0 167 85 294 226 294c92 0 153 -54 195 -115c16 -24 36 -49 75 -49c57 0 86 54 86 154h142c0 -164 -78 -294 -226 -294z" />
    <glyph glyph-name="uni0304" unicode="&#x304;" 
d="M-788 1222v143h635v-143h-635z" />
    <glyph glyph-name="uni0306" unicode="&#x306;" 
d="M-446 1192c-204 0 -351 119 -351 332h156c0 -105 67 -196 195 -196c130 0 197 91 197 196h156c0 -213 -147 -332 -353 -332z" />
    <glyph glyph-name="uni0307" unicode="&#x307;" 
d="M-249 1198c-69 0 -129 58 -129 128c0 73 60 130 129 130c71 0 130 -57 130 -130c0 -70 -59 -128 -130 -128z" />
    <glyph glyph-name="uni0308" unicode="&#x308;" 
d="M-646 1136c-70 0 -130 58 -130 129c0 73 60 129 130 129s130 -56 130 -129c0 -71 -60 -129 -130 -129zM-248 1136c-71 0 -130 58 -130 129c0 73 59 129 130 129s129 -56 129 -129c0 -71 -58 -129 -129 -129z" />
    <glyph glyph-name="hookabovecomb" unicode="&#x309;" 
d="M-378 1057v172c92 18 144 58 144 126c0 49 -34 88 -94 88c-39 0 -75 -13 -109 -42l-78 112c51 40 117 68 187 68c133 0 240 -92 240 -225c0 -88 -50 -172 -160 -203v-96h-130z" />
    <glyph glyph-name="uni030A" unicode="&#x30a;" 
d="M-312 1113c-127 0 -230 104 -230 228c0 125 103 228 230 228c124 0 226 -103 226 -228c0 -124 -102 -228 -226 -228zM-312 1220c66 0 119 50 119 121c0 66 -53 124 -119 124c-68 0 -120 -58 -120 -124c0 -71 52 -121 120 -121z" />
    <glyph glyph-name="uni030B" unicode="&#x30b;" 
d="M-798 1172l-101 112l339 306l110 -122zM-390 1172l-101 112l339 306l110 -122z" />
    <glyph glyph-name="uni030C" unicode="&#x30c;" 
d="M-466 1174l-219 298l102 63l210 -224l208 224l103 -63l-222 -298h-182z" />
    <glyph glyph-name="uni0312" unicode="&#x312;" 
d="M-232 1348c54 -17 93 -71 93 -130c0 -75 -64 -140 -139 -140c-80 0 -138 62 -138 142c0 18 4 36 10 54l168 439h120z" />
    <glyph glyph-name="uni031B" unicode="&#x31b;" 
d="M-324 778c-59 0 -141 23 -213 68l67 44c41 -22 74 -28 97 -28c76 0 103 64 98 133l-6 157h154v-124c0 -184 -99 -250 -197 -250z" />
    <glyph glyph-name="dotbelowcomb" unicode="&#x323;" 
d="M-249 -504c-71 0 -131 59 -131 131s60 132 131 132s132 -60 132 -132s-61 -131 -132 -131z" />
    <glyph glyph-name="uni0326" unicode="&#x326;" 
d="M-310 -295l-117 50l201 459l177 -79z" />
    <glyph glyph-name="uni0327" unicode="&#x327;" 
d="M-296 -532c-98 0 -203 63 -238 144l111 40c24 -37 82 -66 127 -66c55 0 99 44 99 100c0 84 -82 117 -184 73l-93 57l97 188h120l-67 -132c136 26 245 -58 245 -186c0 -122 -95 -218 -217 -218z" />
    <glyph glyph-name="uni0328" unicode="&#x328;" 
d="M-332 -530c-149 9 -241 97 -241 228c0 157 134 269 302 352l112 -50c-147 -63 -264 -154 -264 -265c0 -74 50 -107 115 -107c63 0 128 30 179 82l92 -127c-81 -82 -189 -119 -295 -113z" />
    <glyph glyph-name="uni0335" unicode="&#x335;" 
d="M-796 445v148h645v-148h-645z" />
    <glyph glyph-name="uni0336" unicode="&#x336;" 
d="M-1641 471v123h1490v-123h-1490z" />
    <glyph glyph-name="uni0337" unicode="&#x337;" 
d="M-658 228v173l615 457v-173z" />
    <glyph glyph-name="uni0338" unicode="&#x338;" 
d="M-1260 -28l1155 1657l130 -80l-1155 -1656z" />
    <glyph glyph-name="uni0394" unicode="&#x394;" horiz-adv-x="1539" 
d="M896 1536l617 -1536h-1487l617 1536h253zM355 210h830l-415 1070z" />
    <glyph glyph-name="uni03A9" unicode="&#x3a9;" horiz-adv-x="1776" 
d="M105 0v194h294v12c-129 115 -259 341 -259 613c0 407 307 722 753 722c467 0 744 -346 744 -720c0 -259 -126 -496 -265 -615v-12h299v-194h-635v145c181 100 343 321 343 631c0 299 -173 567 -484 567c-296 0 -498 -241 -498 -570c0 -304 168 -539 345 -628v-145h-637z
" />
    <glyph glyph-name="uni03BC" unicode="&#x3bc;" horiz-adv-x="1213" 
d="M828 963h226v-963h-226v123c-72 -87 -176 -141 -293 -141c-77 0 -148 23 -208 63v-526h-168v1444h228v-569c0 -119 95 -213 214 -213c126 0 227 94 227 213v569z" />
    <glyph glyph-name="pi" unicode="&#x3c0;" horiz-adv-x="1280" 
d="M148 0c71 200 134 547 142 780c-118 0 -174 -9 -230 -34l-28 158c53 35 153 59 328 59h890l-18 -183h-165v-491c0 -141 11 -228 27 -289h-207c-25 38 -33 139 -33 273v507l-353 1c-11 -221 -70 -610 -146 -781h-207z" />
    <glyph glyph-name="Wgrave" unicode="&#x1e80;" horiz-adv-x="2013" 
d="M1096 1739l-81 -90l-340 289l119 131zM1763 1536h256l-600 -1536h-166l-247 610l-248 -610h-166l-598 1536h254l436 -1193l208 548l-261 645h243l132 -345l131 345h245l-262 -645l210 -549z" />
    <glyph glyph-name="wgrave" unicode="&#x1e81;" horiz-adv-x="1522" 
d="M850 1166l-81 -90l-340 289l119 131zM1282 963h234l-342 -963h-177l-238 647l-239 -647h-176l-338 963h232l213 -646l237 646h143l238 -650z" />
    <glyph glyph-name="Wacute" unicode="&#x1e82;" horiz-adv-x="2013" 
d="M1317 1938l-338 -292l-85 94l306 329zM1763 1536h256l-600 -1536h-166l-247 610l-248 -610h-166l-598 1536h254l436 -1193l208 548l-261 645h243l132 -345l131 345h245l-262 -645l210 -549z" />
    <glyph glyph-name="wacute" unicode="&#x1e83;" horiz-adv-x="1522" 
d="M1071 1365l-338 -292l-85 94l306 329zM1282 963h234l-342 -963h-177l-238 647l-239 -647h-176l-338 963h232l213 -646l237 646h143l238 -650z" />
    <glyph glyph-name="Wdieresis" unicode="&#x1e84;" horiz-adv-x="2013" 
d="M810 1648c-70 0 -130 58 -130 129c0 73 60 129 130 129s130 -56 130 -129c0 -71 -60 -129 -130 -129zM1208 1648c-71 0 -130 58 -130 129c0 73 59 129 130 129s129 -56 129 -129c0 -71 -58 -129 -129 -129zM1763 1536h256l-600 -1536h-166l-247 610l-248 -610h-166
l-598 1536h254l436 -1193l208 548l-261 645h243l132 -345l131 345h245l-262 -645l210 -549z" />
    <glyph glyph-name="wdieresis" unicode="&#x1e85;" horiz-adv-x="1522" 
d="M564 1136c-70 0 -130 58 -130 129c0 73 60 129 130 129s130 -56 130 -129c0 -71 -60 -129 -130 -129zM962 1136c-71 0 -130 58 -130 129c0 73 59 129 130 129s129 -56 129 -129c0 -71 -58 -129 -129 -129zM1282 963h234l-342 -963h-177l-238 647l-239 -647h-176l-338 963
h232l213 -646l237 646h143l238 -650z" />
    <glyph glyph-name="uni1EA0" unicode="&#x1ea0;" horiz-adv-x="1372" 
d="M1372 0h-260l-88 242h-678l-88 -242h-258l610 1536h150zM422 449h527l-263 726zM686 -130c71 0 132 -60 132 -132s-61 -131 -132 -131s-131 59 -131 131s60 132 131 132z" />
    <glyph glyph-name="uni1EA1" unicode="&#x1ea1;" horiz-adv-x="1256" 
d="M870 963h229v-963h-216l-5 139c-73 -93 -184 -158 -338 -158c-253 0 -471 216 -471 502c0 284 218 500 471 500c148 0 257 -60 330 -148v128zM589 188c162 0 291 131 291 295c0 163 -129 294 -291 294c-163 0 -292 -131 -292 -294c0 -164 129 -295 292 -295zM626 -130
c71 0 132 -60 132 -132s-61 -131 -132 -131s-131 59 -131 131s60 132 131 132z" />
    <glyph glyph-name="uni1EA2" unicode="&#x1ea2;" horiz-adv-x="1372" 
d="M670 2016c-39 0 -75 -13 -109 -42l-78 112c51 40 117 68 187 68c133 0 240 -92 240 -225c0 -88 -50 -172 -160 -203v-96h-130v172c92 18 144 58 144 126c0 49 -34 88 -94 88zM1112 0l-88 242h-678l-88 -242h-258l610 1536h150l612 -1536h-260zM422 449h527l-263 726z" />
    <glyph glyph-name="uni1EA3" unicode="&#x1ea3;" horiz-adv-x="1256" 
d="M567 1444c-39 0 -75 -13 -109 -42l-78 112c51 40 117 68 187 68c133 0 240 -92 240 -225c0 -88 -50 -172 -160 -203v-96h-130v172c92 18 144 58 144 126c0 49 -34 88 -94 88zM870 963h229v-963h-216l-5 139c-73 -93 -184 -158 -338 -158c-253 0 -471 216 -471 502
c0 284 218 500 471 500c148 0 257 -60 330 -148v128zM589 188c162 0 291 131 291 295c0 163 -129 294 -291 294c-163 0 -292 -131 -292 -294c0 -164 129 -295 292 -295z" />
    <glyph glyph-name="uni1EA4" unicode="&#x1ea4;" horiz-adv-x="1372" 
d="M994 2409l-338 -292l-85 94l306 329zM686 1869l-210 -224l-102 64l220 298h181l222 -298l-103 -64zM1112 0l-88 242h-678l-88 -242h-258l610 1536h150l612 -1536h-260zM422 449h527l-263 726z" />
    <glyph glyph-name="uni1EA5" unicode="&#x1ea5;" horiz-adv-x="1256" 
d="M891 1837l-338 -292l-85 94l306 329zM583 1297l-210 -224l-102 64l220 298h181l222 -298l-103 -64zM870 963h229v-963h-216l-5 139c-73 -93 -184 -158 -338 -158c-253 0 -471 216 -471 502c0 284 218 500 471 500c148 0 257 -60 330 -148v128zM589 188
c162 0 291 131 291 295c0 163 -129 294 -291 294c-163 0 -292 -131 -292 -294c0 -164 129 -295 292 -295z" />
    <glyph glyph-name="uni1EA6" unicode="&#x1ea6;" horiz-adv-x="1372" 
d="M773 2210l-81 -90l-340 289l119 131zM374 1709l220 298h181l222 -298l-103 -64l-208 224l-210 -224zM1112 0l-88 242h-678l-88 -242h-258l610 1536h150l612 -1536h-260zM422 449h527l-263 726z" />
    <glyph glyph-name="uni1EA7" unicode="&#x1ea7;" horiz-adv-x="1256" 
d="M670 1638l-81 -90l-340 289l119 131zM271 1137l220 298h181l222 -298l-103 -64l-208 224l-210 -224zM870 963h229v-963h-216l-5 139c-73 -93 -184 -158 -338 -158c-253 0 -471 216 -471 502c0 284 218 500 471 500c148 0 257 -60 330 -148v128zM589 188
c162 0 291 131 291 295c0 163 -129 294 -291 294c-163 0 -292 -131 -292 -294c0 -164 129 -295 292 -295z" />
    <glyph glyph-name="uni1EA8" unicode="&#x1ea8;" horiz-adv-x="1372" 
d="M669 2487c-39 0 -75 -13 -109 -42l-78 112c51 40 117 68 187 68c133 0 240 -92 240 -225c0 -88 -50 -172 -160 -203v-96h-130v172c92 18 144 58 144 126c0 49 -34 88 -94 88zM686 1869l-210 -224l-102 64l220 298h181l222 -298l-103 -64zM1112 0l-88 242h-678l-88 -242
h-258l610 1536h150l612 -1536h-260zM422 449h527l-263 726z" />
    <glyph glyph-name="uni1EA9" unicode="&#x1ea9;" horiz-adv-x="1256" 
d="M566 1915c-39 0 -75 -13 -109 -42l-78 112c51 40 117 68 187 68c133 0 240 -92 240 -225c0 -88 -50 -172 -160 -203v-96h-130v172c92 18 144 58 144 126c0 49 -34 88 -94 88zM583 1297l-210 -224l-102 64l220 298h181l222 -298l-103 -64zM870 963h229v-963h-216l-5 139
c-73 -93 -184 -158 -338 -158c-253 0 -471 216 -471 502c0 284 218 500 471 500c148 0 257 -60 330 -148v128zM589 188c162 0 291 131 291 295c0 163 -129 294 -291 294c-163 0 -292 -131 -292 -294c0 -164 129 -295 292 -295z" />
    <glyph glyph-name="uni1EAA" unicode="&#x1eaa;" horiz-adv-x="1372" 
d="M553 2270c-60 0 -89 -69 -89 -154h-143c0 167 85 294 226 294c92 0 153 -54 195 -115c16 -24 36 -49 75 -49c57 0 86 54 86 154h142c0 -164 -78 -294 -226 -294c-94 0 -153 52 -194 115c-24 36 -45 49 -72 49zM594 2007h181l222 -298l-103 -64l-208 224l-210 -224
l-102 64zM1112 0l-88 242h-678l-88 -242h-258l610 1536h150l612 -1536h-260zM422 449h527l-263 726z" />
    <glyph glyph-name="uni1EAB" unicode="&#x1eab;" horiz-adv-x="1256" 
d="M450 1698c-60 0 -89 -69 -89 -154h-143c0 167 85 294 226 294c92 0 153 -54 195 -115c16 -24 36 -49 75 -49c57 0 86 54 86 154h142c0 -164 -78 -294 -226 -294c-94 0 -153 52 -194 115c-24 36 -45 49 -72 49zM491 1435h181l222 -298l-103 -64l-208 224l-210 -224
l-102 64zM870 963h229v-963h-216l-5 139c-73 -93 -184 -158 -338 -158c-253 0 -471 216 -471 502c0 284 218 500 471 500c148 0 257 -60 330 -148v128zM589 188c162 0 291 131 291 295c0 163 -129 294 -291 294c-163 0 -292 -131 -292 -294c0 -164 129 -295 292 -295z" />
    <glyph glyph-name="uni1EAC" unicode="&#x1eac;" horiz-adv-x="1372" 
d="M686 1869l-210 -224l-102 64l220 298h181l222 -298l-103 -64zM1372 0h-260l-88 242h-678l-88 -242h-258l610 1536h150zM422 449h527l-263 726zM686 -130c71 0 132 -60 132 -132s-61 -131 -132 -131s-131 59 -131 131s60 132 131 132z" />
    <glyph glyph-name="uni1EAD" unicode="&#x1ead;" horiz-adv-x="1256" 
d="M583 1297l-210 -224l-102 64l220 298h181l222 -298l-103 -64zM870 963h229v-963h-216l-5 139c-73 -93 -184 -158 -338 -158c-253 0 -471 216 -471 502c0 284 218 500 471 500c148 0 257 -60 330 -148v128zM589 188c162 0 291 131 291 295c0 163 -129 294 -291 294
c-163 0 -292 -131 -292 -294c0 -164 129 -295 292 -295zM626 -130c71 0 132 -60 132 -132s-61 -131 -132 -131s-131 59 -131 131s60 132 131 132z" />
    <glyph glyph-name="uni1EAE" unicode="&#x1eae;" horiz-adv-x="1372" 
d="M995 2409l-338 -292l-85 94l306 329zM685 1704c-204 0 -351 119 -351 332h156c0 -105 67 -196 195 -196c130 0 197 91 197 196h156c0 -213 -147 -332 -353 -332zM1112 0l-88 242h-678l-88 -242h-258l610 1536h150l612 -1536h-260zM422 449h527l-263 726z" />
    <glyph glyph-name="uni1EAF" unicode="&#x1eaf;" horiz-adv-x="1256" 
d="M892 1837l-338 -292l-85 94l306 329zM582 1132c-204 0 -351 119 -351 332h156c0 -105 67 -196 195 -196c130 0 197 91 197 196h156c0 -213 -147 -332 -353 -332zM870 963h229v-963h-216l-5 139c-73 -93 -184 -158 -338 -158c-253 0 -471 216 -471 502
c0 284 218 500 471 500c148 0 257 -60 330 -148v128zM589 188c162 0 291 131 291 295c0 163 -129 294 -291 294c-163 0 -292 -131 -292 -294c0 -164 129 -295 292 -295z" />
    <glyph glyph-name="uni1EB0" unicode="&#x1eb0;" horiz-adv-x="1372" 
d="M774 2210l-81 -90l-340 289l119 131zM685 1704c-204 0 -351 119 -351 332h156c0 -105 67 -196 195 -196c130 0 197 91 197 196h156c0 -213 -147 -332 -353 -332zM1112 0l-88 242h-678l-88 -242h-258l610 1536h150l612 -1536h-260zM422 449h527l-263 726z" />
    <glyph glyph-name="uni1EB1" unicode="&#x1eb1;" horiz-adv-x="1256" 
d="M671 1638l-81 -90l-340 289l119 131zM582 1132c-204 0 -351 119 -351 332h156c0 -105 67 -196 195 -196c130 0 197 91 197 196h156c0 -213 -147 -332 -353 -332zM870 963h229v-963h-216l-5 139c-73 -93 -184 -158 -338 -158c-253 0 -471 216 -471 502
c0 284 218 500 471 500c148 0 257 -60 330 -148v128zM589 188c162 0 291 131 291 295c0 163 -129 294 -291 294c-163 0 -292 -131 -292 -294c0 -164 129 -295 292 -295z" />
    <glyph glyph-name="uni1EB2" unicode="&#x1eb2;" horiz-adv-x="1372" 
d="M670 2487c-39 0 -75 -13 -109 -42l-78 112c51 40 117 68 187 68c133 0 240 -92 240 -225c0 -88 -50 -172 -160 -203v-96h-130v172c92 18 144 58 144 126c0 49 -34 88 -94 88zM685 1704c-204 0 -351 119 -351 332h156c0 -105 67 -196 195 -196c130 0 197 91 197 196h156
c0 -213 -147 -332 -353 -332zM1112 0l-88 242h-678l-88 -242h-258l610 1536h150l612 -1536h-260zM422 449h527l-263 726z" />
    <glyph glyph-name="uni1EB3" unicode="&#x1eb3;" horiz-adv-x="1256" 
d="M567 1915c-39 0 -75 -13 -109 -42l-78 112c51 40 117 68 187 68c133 0 240 -92 240 -225c0 -88 -50 -172 -160 -203v-96h-130v172c92 18 144 58 144 126c0 49 -34 88 -94 88zM582 1132c-204 0 -351 119 -351 332h156c0 -105 67 -196 195 -196c130 0 197 91 197 196h156
c0 -213 -147 -332 -353 -332zM870 963h229v-963h-216l-5 139c-73 -93 -184 -158 -338 -158c-253 0 -471 216 -471 502c0 284 218 500 471 500c148 0 257 -60 330 -148v128zM589 188c162 0 291 131 291 295c0 163 -129 294 -291 294c-163 0 -292 -131 -292 -294
c0 -164 129 -295 292 -295z" />
    <glyph glyph-name="uni1EB4" unicode="&#x1eb4;" horiz-adv-x="1372" 
d="M554 2270c-60 0 -89 -69 -89 -154h-143c0 167 85 294 226 294c92 0 153 -54 195 -115c16 -24 36 -49 75 -49c57 0 86 54 86 154h142c0 -164 -78 -294 -226 -294c-94 0 -153 52 -194 115c-24 36 -45 49 -72 49zM685 1840c130 0 197 91 197 196h156
c0 -213 -147 -332 -353 -332c-204 0 -351 119 -351 332h156c0 -105 67 -196 195 -196zM1112 0l-88 242h-678l-88 -242h-258l610 1536h150l612 -1536h-260zM422 449h527l-263 726z" />
    <glyph glyph-name="uni1EB5" unicode="&#x1eb5;" horiz-adv-x="1256" 
d="M451 1698c-60 0 -89 -69 -89 -154h-143c0 167 85 294 226 294c92 0 153 -54 195 -115c16 -24 36 -49 75 -49c57 0 86 54 86 154h142c0 -164 -78 -294 -226 -294c-94 0 -153 52 -194 115c-24 36 -45 49 -72 49zM582 1268c130 0 197 91 197 196h156
c0 -213 -147 -332 -353 -332c-204 0 -351 119 -351 332h156c0 -105 67 -196 195 -196zM870 963h229v-963h-216l-5 139c-73 -93 -184 -158 -338 -158c-253 0 -471 216 -471 502c0 284 218 500 471 500c148 0 257 -60 330 -148v128zM589 188c162 0 291 131 291 295
c0 163 -129 294 -291 294c-163 0 -292 -131 -292 -294c0 -164 129 -295 292 -295z" />
    <glyph glyph-name="uni1EB6" unicode="&#x1eb6;" horiz-adv-x="1372" 
d="M685 1704c-204 0 -351 119 -351 332h156c0 -105 67 -196 195 -196c130 0 197 91 197 196h156c0 -213 -147 -332 -353 -332zM1372 0h-260l-88 242h-678l-88 -242h-258l610 1536h150zM422 449h527l-263 726zM686 -130c71 0 132 -60 132 -132s-61 -131 -132 -131
s-131 59 -131 131s60 132 131 132z" />
    <glyph glyph-name="uni1EB7" unicode="&#x1eb7;" horiz-adv-x="1256" 
d="M582 1132c-204 0 -351 119 -351 332h156c0 -105 67 -196 195 -196c130 0 197 91 197 196h156c0 -213 -147 -332 -353 -332zM870 963h229v-963h-216l-5 139c-73 -93 -184 -158 -338 -158c-253 0 -471 216 -471 502c0 284 218 500 471 500c148 0 257 -60 330 -148v128z
M589 188c162 0 291 131 291 295c0 163 -129 294 -291 294c-163 0 -292 -131 -292 -294c0 -164 129 -295 292 -295zM626 -130c71 0 132 -60 132 -132s-61 -131 -132 -131s-131 59 -131 131s60 132 131 132z" />
    <glyph glyph-name="uni1EB8" unicode="&#x1eb8;" horiz-adv-x="1188" 
d="M1085 1319h-651v-442h565v-218h-565v-442h651v-217h-887v1536h887v-217zM641 -130c71 0 132 -60 132 -132s-61 -131 -132 -131s-131 59 -131 131s60 132 131 132z" />
    <glyph glyph-name="uni1EB9" unicode="&#x1eb9;" horiz-adv-x="1130" 
d="M1071 492v-49h-781c17 -163 136 -272 289 -272c107 0 203 52 258 144l184 -76c-80 -159 -242 -257 -440 -257c-301 0 -514 222 -514 499c0 278 217 501 507 501c278 0 497 -202 497 -490zM576 796c-131 0 -230 -76 -269 -193h526c-39 117 -129 193 -257 193zM592 -131
c71 0 132 -60 132 -132s-61 -131 -132 -131s-131 59 -131 131s60 132 131 132z" />
    <glyph glyph-name="uni1EBA" unicode="&#x1eba;" horiz-adv-x="1188" 
d="M625 2016c-39 0 -75 -13 -109 -42l-78 112c51 40 117 68 187 68c133 0 240 -92 240 -225c0 -88 -50 -172 -160 -203v-96h-130v172c92 18 144 58 144 126c0 49 -34 88 -94 88zM1085 1319h-651v-442h565v-218h-565v-442h651v-217h-887v1536h887v-217z" />
    <glyph glyph-name="uni1EBB" unicode="&#x1ebb;" horiz-adv-x="1130" 
d="M569 1450c-39 0 -75 -13 -109 -42l-78 112c51 40 117 68 187 68c133 0 240 -92 240 -225c0 -88 -50 -172 -160 -203v-96h-130v172c92 18 144 58 144 126c0 49 -34 88 -94 88zM1071 492v-49h-781c17 -163 136 -272 289 -272c107 0 203 52 258 144l184 -76
c-80 -159 -242 -257 -440 -257c-301 0 -514 222 -514 499c0 278 217 501 507 501c278 0 497 -202 497 -490zM576 796c-131 0 -230 -76 -269 -193h526c-39 117 -129 193 -257 193z" />
    <glyph glyph-name="uni1EBC" unicode="&#x1ebc;" horiz-adv-x="1188" 
d="M509 1799c-60 0 -89 -69 -89 -154h-143c0 167 85 294 226 294c92 0 153 -54 195 -115c16 -24 36 -49 75 -49c57 0 86 54 86 154h142c0 -164 -78 -294 -226 -294c-94 0 -153 52 -194 115c-24 36 -45 49 -72 49zM1085 1319h-651v-442h565v-218h-565v-442h651v-217h-887
v1536h887v-217z" />
    <glyph glyph-name="uni1EBD" unicode="&#x1ebd;" horiz-adv-x="1130" 
d="M453 1233c-60 0 -89 -69 -89 -154h-143c0 167 85 294 226 294c92 0 153 -54 195 -115c16 -24 36 -49 75 -49c57 0 86 54 86 154h142c0 -164 -78 -294 -226 -294c-94 0 -153 52 -194 115c-24 36 -45 49 -72 49zM1071 492v-49h-781c17 -163 136 -272 289 -272
c107 0 203 52 258 144l184 -76c-80 -159 -242 -257 -440 -257c-301 0 -514 222 -514 499c0 278 217 501 507 501c278 0 497 -202 497 -490zM576 796c-131 0 -230 -76 -269 -193h526c-39 117 -129 193 -257 193z" />
    <glyph glyph-name="uni1EBE" unicode="&#x1ebe;" horiz-adv-x="1188" 
d="M949 2409l-338 -292l-85 94l306 329zM641 1869l-210 -224l-102 64l220 298h181l222 -298l-103 -64zM1085 1319h-651v-442h565v-218h-565v-442h651v-217h-887v1536h887v-217z" />
    <glyph glyph-name="uni1EBF" unicode="&#x1ebf;" horiz-adv-x="1130" 
d="M893 1843l-338 -292l-85 94l306 329zM585 1303l-210 -224l-102 64l220 298h181l222 -298l-103 -64zM1071 492v-49h-781c17 -163 136 -272 289 -272c107 0 203 52 258 144l184 -76c-80 -159 -242 -257 -440 -257c-301 0 -514 222 -514 499c0 278 217 501 507 501
c278 0 497 -202 497 -490zM576 796c-131 0 -230 -76 -269 -193h526c-39 117 -129 193 -257 193z" />
    <glyph glyph-name="uni1EC0" unicode="&#x1ec0;" horiz-adv-x="1188" 
d="M728 2210l-81 -90l-340 289l119 131zM329 1709l220 298h181l222 -298l-103 -64l-208 224l-210 -224zM1085 1319h-651v-442h565v-218h-565v-442h651v-217h-887v1536h887v-217z" />
    <glyph glyph-name="uni1EC1" unicode="&#x1ec1;" horiz-adv-x="1130" 
d="M672 1644l-81 -90l-340 289l119 131zM273 1143l220 298h181l222 -298l-103 -64l-208 224l-210 -224zM1071 492v-49h-781c17 -163 136 -272 289 -272c107 0 203 52 258 144l184 -76c-80 -159 -242 -257 -440 -257c-301 0 -514 222 -514 499c0 278 217 501 507 501
c278 0 497 -202 497 -490zM576 796c-131 0 -230 -76 -269 -193h526c-39 117 -129 193 -257 193z" />
    <glyph glyph-name="uni1EC2" unicode="&#x1ec2;" horiz-adv-x="1188" 
d="M624 2487c-39 0 -75 -13 -109 -42l-78 112c51 40 117 68 187 68c133 0 240 -92 240 -225c0 -88 -50 -172 -160 -203v-96h-130v172c92 18 144 58 144 126c0 49 -34 88 -94 88zM641 1869l-210 -224l-102 64l220 298h181l222 -298l-103 -64zM1085 1319h-651v-442h565v-218
h-565v-442h651v-217h-887v1536h887v-217z" />
    <glyph glyph-name="uni1EC3" unicode="&#x1ec3;" horiz-adv-x="1130" 
d="M568 1921c-39 0 -75 -13 -109 -42l-78 112c51 40 117 68 187 68c133 0 240 -92 240 -225c0 -88 -50 -172 -160 -203v-96h-130v172c92 18 144 58 144 126c0 49 -34 88 -94 88zM585 1303l-210 -224l-102 64l220 298h181l222 -298l-103 -64zM1071 492v-49h-781
c17 -163 136 -272 289 -272c107 0 203 52 258 144l184 -76c-80 -159 -242 -257 -440 -257c-301 0 -514 222 -514 499c0 278 217 501 507 501c278 0 497 -202 497 -490zM576 796c-131 0 -230 -76 -269 -193h526c-39 117 -129 193 -257 193z" />
    <glyph glyph-name="uni1EC4" unicode="&#x1ec4;" horiz-adv-x="1188" 
d="M508 2270c-60 0 -89 -69 -89 -154h-143c0 167 85 294 226 294c92 0 153 -54 195 -115c16 -24 36 -49 75 -49c57 0 86 54 86 154h142c0 -164 -78 -294 -226 -294c-94 0 -153 52 -194 115c-24 36 -45 49 -72 49zM549 2007h181l222 -298l-103 -64l-208 224l-210 -224
l-102 64zM1085 1319h-651v-442h565v-218h-565v-442h651v-217h-887v1536h887v-217z" />
    <glyph glyph-name="uni1EC5" unicode="&#x1ec5;" horiz-adv-x="1130" 
d="M452 1704c-60 0 -89 -69 -89 -154h-143c0 167 85 294 226 294c92 0 153 -54 195 -115c16 -24 36 -49 75 -49c57 0 86 54 86 154h142c0 -164 -78 -294 -226 -294c-94 0 -153 52 -194 115c-24 36 -45 49 -72 49zM493 1441h181l222 -298l-103 -64l-208 224l-210 -224
l-102 64zM1071 492v-49h-781c17 -163 136 -272 289 -272c107 0 203 52 258 144l184 -76c-80 -159 -242 -257 -440 -257c-301 0 -514 222 -514 499c0 278 217 501 507 501c278 0 497 -202 497 -490zM576 796c-131 0 -230 -76 -269 -193h526c-39 117 -129 193 -257 193z" />
    <glyph glyph-name="uni1EC6" unicode="&#x1ec6;" horiz-adv-x="1188" 
d="M641 1869l-210 -224l-102 64l220 298h181l222 -298l-103 -64zM1085 1319h-651v-442h565v-218h-565v-442h651v-217h-887v1536h887v-217zM641 -130c71 0 132 -60 132 -132s-61 -131 -132 -131s-131 59 -131 131s60 132 131 132z" />
    <glyph glyph-name="uni1EC7" unicode="&#x1ec7;" horiz-adv-x="1130" 
d="M585 1303l-210 -224l-102 64l220 298h181l222 -298l-103 -64zM1071 492v-49h-781c17 -163 136 -272 289 -272c107 0 203 52 258 144l184 -76c-80 -159 -242 -257 -440 -257c-301 0 -514 222 -514 499c0 278 217 501 507 501c278 0 497 -202 497 -490zM576 796
c-131 0 -230 -76 -269 -193h526c-39 117 -129 193 -257 193zM592 -131c71 0 132 -60 132 -132s-61 -131 -132 -131s-131 59 -131 131s60 132 131 132z" />
    <glyph glyph-name="uni1EC8" unicode="&#x1ec8;" horiz-adv-x="632" 
d="M249 1630v172c92 18 144 58 144 126c0 49 -34 88 -94 88c-39 0 -75 -13 -109 -42l-78 112c51 40 117 68 187 68c133 0 240 -92 240 -225c0 -88 -50 -172 -160 -203v-96h-130zM198 0v1536h236v-1536h-236z" />
    <glyph glyph-name="uni1EC9" unicode="&#x1ec9;" horiz-adv-x="546" 
d="M207 1057v172c92 18 144 58 144 126c0 49 -34 88 -94 88c-39 0 -75 -13 -109 -42l-78 112c51 40 117 68 187 68c133 0 240 -92 240 -225c0 -88 -50 -172 -160 -203v-96h-130zM159 0v963h228v-963h-228z" />
    <glyph glyph-name="uni1ECA" unicode="&#x1eca;" horiz-adv-x="632" 
d="M198 0v1536h236v-1536h-236zM315 -393c-71 0 -131 59 -131 131s60 132 131 132s132 -60 132 -132s-61 -131 -132 -131z" />
    <glyph glyph-name="uni1ECB" unicode="&#x1ecb;" horiz-adv-x="544" 
d="M273 1134c-75 0 -137 61 -137 136c0 76 62 135 137 135c73 0 136 -59 136 -135c0 -75 -63 -136 -136 -136zM159 0v963h226v-963h-226zM248 -504c-71 0 -131 59 -131 131s60 132 131 132s132 -60 132 -132s-61 -131 -132 -131z" />
    <glyph glyph-name="uni1ECC" unicode="&#x1ecc;" horiz-adv-x="1746" 
d="M873 -20c-436 0 -789 352 -789 788s353 788 789 788s788 -352 788 -788s-352 -788 -788 -788zM873 211c312 0 557 245 557 557s-245 557 -557 557c-311 0 -557 -245 -557 -557s246 -557 557 -557zM873 -393c-71 0 -131 59 -131 131s60 132 131 132s132 -60 132 -132
s-61 -131 -132 -131z" />
    <glyph glyph-name="uni1ECD" unicode="&#x1ecd;" horiz-adv-x="1148" 
d="M574 -18c-287 0 -509 222 -509 499c0 278 222 500 509 500c285 0 507 -222 507 -500c0 -277 -222 -499 -507 -499zM573 190c159 0 286 126 286 291s-127 292 -286 292c-161 0 -286 -126 -286 -292s125 -291 286 -291zM574 -393c-71 0 -131 59 -131 131s60 132 131 132
s132 -60 132 -132s-61 -131 -132 -131z" />
    <glyph glyph-name="uni1ECE" unicode="&#x1ece;" horiz-adv-x="1746" 
d="M807 1630v172c92 18 144 58 144 126c0 49 -34 88 -94 88c-39 0 -75 -13 -109 -42l-78 112c51 40 117 68 187 68c133 0 240 -92 240 -225c0 -88 -50 -172 -160 -203v-96h-130zM873 -20c-436 0 -789 352 -789 788s353 788 789 788s788 -352 788 -788s-352 -788 -788 -788z
M873 211c312 0 557 245 557 557s-245 557 -557 557c-311 0 -557 -245 -557 -557s246 -557 557 -557z" />
    <glyph glyph-name="uni1ECF" unicode="&#x1ecf;" horiz-adv-x="1148" 
d="M508 1056v172c92 18 144 58 144 126c0 49 -34 88 -94 88c-39 0 -75 -13 -109 -42l-78 112c51 40 117 68 187 68c133 0 240 -92 240 -225c0 -88 -50 -172 -160 -203v-96h-130zM574 -18c-287 0 -509 222 -509 499c0 278 222 500 509 500c285 0 507 -222 507 -500
c0 -277 -222 -499 -507 -499zM573 190c159 0 286 126 286 291s-127 292 -286 292c-161 0 -286 -126 -286 -292s125 -291 286 -291z" />
    <glyph glyph-name="uni1ED0" unicode="&#x1ed0;" horiz-adv-x="1746" 
d="M843 2117l-85 94l306 329l117 -131zM663 1645l-102 64l220 298h181l222 -298l-103 -64l-208 224zM873 -20c-436 0 -789 352 -789 788s353 788 789 788s788 -352 788 -788s-352 -788 -788 -788zM873 211c312 0 557 245 557 557s-245 557 -557 557
c-311 0 -557 -245 -557 -557s246 -557 557 -557z" />
    <glyph glyph-name="uni1ED1" unicode="&#x1ed1;" horiz-adv-x="1148" 
d="M544 1543l-85 94l306 329l117 -131zM364 1071l-102 64l220 298h181l222 -298l-103 -64l-208 224zM574 -18c-287 0 -509 222 -509 499c0 278 222 500 509 500c285 0 507 -222 507 -500c0 -277 -222 -499 -507 -499zM573 190c159 0 286 126 286 291s-127 292 -286 292
c-161 0 -286 -126 -286 -292s125 -291 286 -291z" />
    <glyph glyph-name="uni1ED2" unicode="&#x1ed2;" horiz-adv-x="1746" 
d="M879 2120l-340 289l119 131l302 -330zM663 1645l-102 64l220 298h181l222 -298l-103 -64l-208 224zM873 -20c-436 0 -789 352 -789 788s353 788 789 788s788 -352 788 -788s-352 -788 -788 -788zM873 211c312 0 557 245 557 557s-245 557 -557 557
c-311 0 -557 -245 -557 -557s246 -557 557 -557z" />
    <glyph glyph-name="uni1ED3" unicode="&#x1ed3;" horiz-adv-x="1148" 
d="M580 1546l-340 289l119 131l302 -330zM364 1071l-102 64l220 298h181l222 -298l-103 -64l-208 224zM574 -18c-287 0 -509 222 -509 499c0 278 222 500 509 500c285 0 507 -222 507 -500c0 -277 -222 -499 -507 -499zM573 190c159 0 286 126 286 291s-127 292 -286 292
c-161 0 -286 -126 -286 -292s125 -291 286 -291z" />
    <glyph glyph-name="uni1ED4" unicode="&#x1ed4;" horiz-adv-x="1746" 
d="M806 2101v172c92 18 144 58 144 126c0 49 -34 88 -94 88c-39 0 -75 -13 -109 -42l-78 112c51 40 117 68 187 68c133 0 240 -92 240 -225c0 -88 -50 -172 -160 -203v-96h-130zM663 1645l-102 64l220 298h181l222 -298l-103 -64l-208 224zM873 -20
c-436 0 -789 352 -789 788s353 788 789 788s788 -352 788 -788s-352 -788 -788 -788zM873 211c312 0 557 245 557 557s-245 557 -557 557c-311 0 -557 -245 -557 -557s246 -557 557 -557z" />
    <glyph glyph-name="uni1ED5" unicode="&#x1ed5;" horiz-adv-x="1148" 
d="M507 1527v172c92 18 144 58 144 126c0 49 -34 88 -94 88c-39 0 -75 -13 -109 -42l-78 112c51 40 117 68 187 68c133 0 240 -92 240 -225c0 -88 -50 -172 -160 -203v-96h-130zM364 1071l-102 64l220 298h181l222 -298l-103 -64l-208 224zM574 -18
c-287 0 -509 222 -509 499c0 278 222 500 509 500c285 0 507 -222 507 -500c0 -277 -222 -499 -507 -499zM573 190c159 0 286 126 286 291s-127 292 -286 292c-161 0 -286 -126 -286 -292s125 -291 286 -291z" />
    <glyph glyph-name="uni1ED6" unicode="&#x1ed6;" horiz-adv-x="1746" 
d="M1006 2106c-94 0 -153 52 -194 115c-24 36 -45 49 -72 49c-60 0 -89 -69 -89 -154h-143c0 167 85 294 226 294c92 0 153 -54 195 -115c16 -24 36 -49 75 -49c57 0 86 54 86 154h142c0 -164 -78 -294 -226 -294zM663 1645l-102 64l220 298h181l222 -298l-103 -64l-208 224
zM873 -20c-436 0 -789 352 -789 788s353 788 789 788s788 -352 788 -788s-352 -788 -788 -788zM873 211c312 0 557 245 557 557s-245 557 -557 557c-311 0 -557 -245 -557 -557s246 -557 557 -557z" />
    <glyph glyph-name="uni1ED7" unicode="&#x1ed7;" horiz-adv-x="1148" 
d="M707 1532c-94 0 -153 52 -194 115c-24 36 -45 49 -72 49c-60 0 -89 -69 -89 -154h-143c0 167 85 294 226 294c92 0 153 -54 195 -115c16 -24 36 -49 75 -49c57 0 86 54 86 154h142c0 -164 -78 -294 -226 -294zM364 1071l-102 64l220 298h181l222 -298l-103 -64l-208 224z
M574 -18c-287 0 -509 222 -509 499c0 278 222 500 509 500c285 0 507 -222 507 -500c0 -277 -222 -499 -507 -499zM573 190c159 0 286 126 286 291s-127 292 -286 292c-161 0 -286 -126 -286 -292s125 -291 286 -291z" />
    <glyph glyph-name="uni1ED8" unicode="&#x1ed8;" horiz-adv-x="1746" 
d="M663 1645l-102 64l220 298h181l222 -298l-103 -64l-208 224zM873 -20c-436 0 -789 352 -789 788s353 788 789 788s788 -352 788 -788s-352 -788 -788 -788zM873 211c312 0 557 245 557 557s-245 557 -557 557c-311 0 -557 -245 -557 -557s246 -557 557 -557zM873 -393
c-71 0 -131 59 -131 131s60 132 131 132s132 -60 132 -132s-61 -131 -132 -131z" />
    <glyph glyph-name="uni1ED9" unicode="&#x1ed9;" horiz-adv-x="1148" 
d="M364 1071l-102 64l220 298h181l222 -298l-103 -64l-208 224zM574 -18c-287 0 -509 222 -509 499c0 278 222 500 509 500c285 0 507 -222 507 -500c0 -277 -222 -499 -507 -499zM573 190c159 0 286 126 286 291s-127 292 -286 292c-161 0 -286 -126 -286 -292
s125 -291 286 -291zM574 -393c-71 0 -131 59 -131 131s60 132 131 132s132 -60 132 -132s-61 -131 -132 -131z" />
    <glyph glyph-name="uni1EDA" unicode="&#x1eda;" horiz-adv-x="1746" 
d="M1182 1938l-338 -292l-85 94l306 329zM1602 1511h154v-124c0 -177 -92 -245 -186 -250c58 -110 91 -235 91 -369c0 -436 -352 -788 -788 -788s-789 352 -789 788s353 788 789 788c267 0 503 -132 645 -335c70 5 95 67 90 133zM873 211c312 0 557 245 557 557
s-245 557 -557 557c-311 0 -557 -245 -557 -557s246 -557 557 -557z" />
    <glyph glyph-name="uni1EDB" unicode="&#x1edb;" horiz-adv-x="1148" 
d="M883 1364l-338 -292l-85 94l306 329zM1103 1026h154v-124c0 -184 -99 -250 -197 -250h-9c20 -53 30 -111 30 -171c0 -277 -222 -499 -507 -499c-287 0 -509 222 -509 499c0 278 222 500 509 500c189 0 351 -98 438 -245c75 0 102 64 97 133zM573 190
c159 0 286 126 286 291s-127 292 -286 292c-161 0 -286 -126 -286 -292s125 -291 286 -291z" />
    <glyph glyph-name="uni1EDC" unicode="&#x1edc;" horiz-adv-x="1746" 
d="M961 1739l-81 -90l-340 289l119 131zM1602 1511h154v-124c0 -177 -92 -245 -186 -250c58 -110 91 -235 91 -369c0 -436 -352 -788 -788 -788s-789 352 -789 788s353 788 789 788c267 0 503 -132 645 -335c70 5 95 67 90 133zM873 211c312 0 557 245 557 557
s-245 557 -557 557c-311 0 -557 -245 -557 -557s246 -557 557 -557z" />
    <glyph glyph-name="uni1EDD" unicode="&#x1edd;" horiz-adv-x="1148" 
d="M662 1165l-81 -90l-340 289l119 131zM1103 1026h154v-124c0 -184 -99 -250 -197 -250h-9c20 -53 30 -111 30 -171c0 -277 -222 -499 -507 -499c-287 0 -509 222 -509 499c0 278 222 500 509 500c189 0 351 -98 438 -245c75 0 102 64 97 133zM573 190
c159 0 286 126 286 291s-127 292 -286 292c-161 0 -286 -126 -286 -292s125 -291 286 -291z" />
    <glyph glyph-name="uni1EDE" unicode="&#x1ede;" horiz-adv-x="1746" 
d="M857 2016c-39 0 -75 -13 -109 -42l-78 112c51 40 117 68 187 68c133 0 240 -92 240 -225c0 -88 -50 -172 -160 -203v-96h-130v172c92 18 144 58 144 126c0 49 -34 88 -94 88zM1602 1511h154v-124c0 -177 -92 -245 -186 -250c58 -110 91 -235 91 -369
c0 -436 -352 -788 -788 -788s-789 352 -789 788s353 788 789 788c267 0 503 -132 645 -335c70 5 95 67 90 133zM873 211c312 0 557 245 557 557s-245 557 -557 557c-311 0 -557 -245 -557 -557s246 -557 557 -557z" />
    <glyph glyph-name="uni1EDF" unicode="&#x1edf;" horiz-adv-x="1148" 
d="M558 1442c-39 0 -75 -13 -109 -42l-78 112c51 40 117 68 187 68c133 0 240 -92 240 -225c0 -88 -50 -172 -160 -203v-96h-130v172c92 18 144 58 144 126c0 49 -34 88 -94 88zM1103 1026h154v-124c0 -184 -99 -250 -197 -250h-9c20 -53 30 -111 30 -171
c0 -277 -222 -499 -507 -499c-287 0 -509 222 -509 499c0 278 222 500 509 500c189 0 351 -98 438 -245c75 0 102 64 97 133zM573 190c159 0 286 126 286 291s-127 292 -286 292c-161 0 -286 -126 -286 -292s125 -291 286 -291z" />
    <glyph glyph-name="uni1EE0" unicode="&#x1ee0;" horiz-adv-x="1746" 
d="M741 1799c-60 0 -89 -69 -89 -154h-143c0 167 85 294 226 294c92 0 153 -54 195 -115c16 -24 36 -49 75 -49c57 0 86 54 86 154h142c0 -164 -78 -294 -226 -294c-94 0 -153 52 -194 115c-24 36 -45 49 -72 49zM1602 1511h154v-124c0 -177 -92 -245 -186 -250
c58 -110 91 -235 91 -369c0 -436 -352 -788 -788 -788s-789 352 -789 788s353 788 789 788c267 0 503 -132 645 -335c70 5 95 67 90 133zM873 211c312 0 557 245 557 557s-245 557 -557 557c-311 0 -557 -245 -557 -557s246 -557 557 -557z" />
    <glyph glyph-name="uni1EE1" unicode="&#x1ee1;" horiz-adv-x="1148" 
d="M442 1225c-60 0 -89 -69 -89 -154h-143c0 167 85 294 226 294c92 0 153 -54 195 -115c16 -24 36 -49 75 -49c57 0 86 54 86 154h142c0 -164 -78 -294 -226 -294c-94 0 -153 52 -194 115c-24 36 -45 49 -72 49zM1103 1026h154v-124c0 -184 -99 -250 -197 -250h-9
c20 -53 30 -111 30 -171c0 -277 -222 -499 -507 -499c-287 0 -509 222 -509 499c0 278 222 500 509 500c189 0 351 -98 438 -245c75 0 102 64 97 133zM573 190c159 0 286 126 286 291s-127 292 -286 292c-161 0 -286 -126 -286 -292s125 -291 286 -291z" />
    <glyph glyph-name="uni1EE2" unicode="&#x1ee2;" horiz-adv-x="1746" 
d="M1602 1511h154v-124c0 -177 -92 -245 -186 -250c58 -110 91 -235 91 -369c0 -436 -352 -788 -788 -788s-789 352 -789 788s353 788 789 788c267 0 503 -132 645 -335c70 5 95 67 90 133zM873 211c312 0 557 245 557 557s-245 557 -557 557c-311 0 -557 -245 -557 -557
s246 -557 557 -557zM873 -130c71 0 132 -60 132 -132s-61 -131 -132 -131s-131 59 -131 131s60 132 131 132z" />
    <glyph glyph-name="uni1EE3" unicode="&#x1ee3;" horiz-adv-x="1148" 
d="M1103 1026h154v-124c0 -184 -99 -250 -197 -250h-9c20 -53 30 -111 30 -171c0 -277 -222 -499 -507 -499c-287 0 -509 222 -509 499c0 278 222 500 509 500c189 0 351 -98 438 -245c75 0 102 64 97 133zM573 190c159 0 286 126 286 291s-127 292 -286 292
c-161 0 -286 -126 -286 -292s125 -291 286 -291zM574 -130c71 0 132 -60 132 -132s-61 -131 -132 -131s-131 59 -131 131s60 132 131 132z" />
    <glyph glyph-name="uni1EE4" unicode="&#x1ee4;" horiz-adv-x="1536" 
d="M767 -20c-345 0 -602 221 -602 532v1024h236v-983c0 -207 155 -352 366 -352s367 145 367 352v983h237v-1024c0 -311 -257 -532 -604 -532zM767 -393c-71 0 -131 59 -131 131s60 132 131 132s132 -60 132 -132s-61 -131 -132 -131z" />
    <glyph glyph-name="uni1EE5" unicode="&#x1ee5;" horiz-adv-x="1074" 
d="M536 -19c-252 0 -404 146 -404 376v606h228v-585c0 -123 74 -193 176 -193c104 0 178 70 178 193v585h228v-606c0 -230 -152 -376 -406 -376zM537 -393c-71 0 -131 59 -131 131s60 132 131 132s132 -60 132 -132s-61 -131 -132 -131z" />
    <glyph glyph-name="uni1EE6" unicode="&#x1ee6;" horiz-adv-x="1536" 
d="M701 1630v172c92 18 144 58 144 126c0 49 -34 88 -94 88c-39 0 -75 -13 -109 -42l-78 112c51 40 117 68 187 68c133 0 240 -92 240 -225c0 -88 -50 -172 -160 -203v-96h-130zM767 -20c-345 0 -602 221 -602 532v1024h236v-983c0 -207 155 -352 366 -352s367 145 367 352
v983h237v-1024c0 -311 -257 -532 -604 -532z" />
    <glyph glyph-name="uni1EE7" unicode="&#x1ee7;" horiz-adv-x="1074" 
d="M471 1057v172c92 18 144 58 144 126c0 49 -34 88 -94 88c-39 0 -75 -13 -109 -42l-78 112c51 40 117 68 187 68c133 0 240 -92 240 -225c0 -88 -50 -172 -160 -203v-96h-130zM536 -19c-252 0 -404 146 -404 376v606h228v-585c0 -123 74 -193 176 -193
c104 0 178 70 178 193v585h228v-606c0 -230 -152 -376 -406 -376z" />
    <glyph glyph-name="uni1EE8" unicode="&#x1ee8;" horiz-adv-x="1705" 
d="M1076 1938l-338 -292l-85 94l306 329zM1465 1537h154v-124c0 -184 -99 -250 -197 -250c-16 0 -33 2 -51 5v-656c0 -311 -257 -532 -604 -532c-345 0 -602 221 -602 532v1024h236v-983c0 -207 155 -352 366 -352s367 145 367 352v983h237v-289h2c76 0 103 64 98 133z" />
    <glyph glyph-name="uni1EE9" unicode="&#x1ee9;" horiz-adv-x="1074" 
d="M846 1365l-338 -292l-85 94l306 329zM1077 962h154v-124c0 -184 -99 -250 -197 -250c-27 0 -59 5 -92 14v-245c0 -230 -152 -376 -406 -376c-252 0 -404 146 -404 376v606h228v-585c0 -123 74 -193 176 -193c104 0 178 70 178 193v585h228v-285c17 -4 31 -6 43 -6
c76 0 103 64 98 133z" />
    <glyph glyph-name="uni1EEA" unicode="&#x1eea;" horiz-adv-x="1705" 
d="M855 1739l-81 -90l-340 289l119 131zM1465 1537h154v-124c0 -184 -99 -250 -197 -250c-16 0 -33 2 -51 5v-656c0 -311 -257 -532 -604 -532c-345 0 -602 221 -602 532v1024h236v-983c0 -207 155 -352 366 -352s367 145 367 352v983h237v-289h2c76 0 103 64 98 133z" />
    <glyph glyph-name="uni1EEB" unicode="&#x1eeb;" horiz-adv-x="1074" 
d="M625 1166l-81 -90l-340 289l119 131zM1077 962h154v-124c0 -184 -99 -250 -197 -250c-27 0 -59 5 -92 14v-245c0 -230 -152 -376 -406 -376c-252 0 -404 146 -404 376v606h228v-585c0 -123 74 -193 176 -193c104 0 178 70 178 193v585h228v-285c17 -4 31 -6 43 -6
c76 0 103 64 98 133z" />
    <glyph glyph-name="uni1EEC" unicode="&#x1eec;" horiz-adv-x="1705" 
d="M751 2016c-39 0 -75 -13 -109 -42l-78 112c51 40 117 68 187 68c133 0 240 -92 240 -225c0 -88 -50 -172 -160 -203v-96h-130v172c92 18 144 58 144 126c0 49 -34 88 -94 88zM1465 1537h154v-124c0 -184 -99 -250 -197 -250c-16 0 -33 2 -51 5v-656
c0 -311 -257 -532 -604 -532c-345 0 -602 221 -602 532v1024h236v-983c0 -207 155 -352 366 -352s367 145 367 352v983h237v-289h2c76 0 103 64 98 133z" />
    <glyph glyph-name="uni1EED" unicode="&#x1eed;" horiz-adv-x="1074" 
d="M521 1443c-39 0 -75 -13 -109 -42l-78 112c51 40 117 68 187 68c133 0 240 -92 240 -225c0 -88 -50 -172 -160 -203v-96h-130v172c92 18 144 58 144 126c0 49 -34 88 -94 88zM1077 962h154v-124c0 -184 -99 -250 -197 -250c-27 0 -59 5 -92 14v-245
c0 -230 -152 -376 -406 -376c-252 0 -404 146 -404 376v606h228v-585c0 -123 74 -193 176 -193c104 0 178 70 178 193v585h228v-285c17 -4 31 -6 43 -6c76 0 103 64 98 133z" />
    <glyph glyph-name="uni1EEE" unicode="&#x1eee;" horiz-adv-x="1705" 
d="M635 1799c-60 0 -89 -69 -89 -154h-143c0 167 85 294 226 294c92 0 153 -54 195 -115c16 -24 36 -49 75 -49c57 0 86 54 86 154h142c0 -164 -78 -294 -226 -294c-94 0 -153 52 -194 115c-24 36 -45 49 -72 49zM1465 1537h154v-124c0 -184 -99 -250 -197 -250
c-16 0 -33 2 -51 5v-656c0 -311 -257 -532 -604 -532c-345 0 -602 221 -602 532v1024h236v-983c0 -207 155 -352 366 -352s367 145 367 352v983h237v-289h2c76 0 103 64 98 133z" />
    <glyph glyph-name="uni1EEF" unicode="&#x1eef;" horiz-adv-x="1074" 
d="M405 1226c-60 0 -89 -69 -89 -154h-143c0 167 85 294 226 294c92 0 153 -54 195 -115c16 -24 36 -49 75 -49c57 0 86 54 86 154h142c0 -164 -78 -294 -226 -294c-94 0 -153 52 -194 115c-24 36 -45 49 -72 49zM1077 962h154v-124c0 -184 -99 -250 -197 -250
c-27 0 -59 5 -92 14v-245c0 -230 -152 -376 -406 -376c-252 0 -404 146 -404 376v606h228v-585c0 -123 74 -193 176 -193c104 0 178 70 178 193v585h228v-285c17 -4 31 -6 43 -6c76 0 103 64 98 133z" />
    <glyph glyph-name="uni1EF0" unicode="&#x1ef0;" horiz-adv-x="1705" 
d="M1465 1537h154v-124c0 -184 -99 -250 -197 -250c-16 0 -33 2 -51 5v-656c0 -311 -257 -532 -604 -532c-345 0 -602 221 -602 532v1024h236v-983c0 -207 155 -352 366 -352s367 145 367 352v983h237v-289h2c76 0 103 64 98 133zM767 -130c71 0 132 -60 132 -132
s-61 -131 -132 -131s-131 59 -131 131s60 132 131 132z" />
    <glyph glyph-name="uni1EF1" unicode="&#x1ef1;" horiz-adv-x="1074" 
d="M1077 962h154v-124c0 -184 -99 -250 -197 -250c-27 0 -59 5 -92 14v-245c0 -230 -152 -376 -406 -376c-252 0 -404 146 -404 376v606h228v-585c0 -123 74 -193 176 -193c104 0 178 70 178 193v585h228v-285c17 -4 31 -6 43 -6c76 0 103 64 98 133zM537 -130
c71 0 132 -60 132 -132s-61 -131 -132 -131s-131 59 -131 131s60 132 131 132z" />
    <glyph glyph-name="Ygrave" unicode="&#x1ef2;" horiz-adv-x="1335" 
d="M757 1739l-81 -90l-340 289l119 131zM1322 1536l-535 -809v-727h-236v722l-538 814h279l377 -589l378 589h275z" />
    <glyph glyph-name="ygrave" unicode="&#x1ef3;" horiz-adv-x="1035" 
d="M591 1166l-81 -90l-340 289l119 131zM779 963h245l-583 -1455h-236l195 496l-391 959h251l264 -720z" />
    <glyph glyph-name="uni1EF4" unicode="&#x1ef4;" horiz-adv-x="1335" 
d="M551 0v722l-538 814h279l377 -589l378 589h275l-535 -809v-727h-236zM669 -130c71 0 132 -60 132 -132s-61 -131 -132 -131s-131 59 -131 131s60 132 131 132z" />
    <glyph glyph-name="uni1EF5" unicode="&#x1ef5;" horiz-adv-x="1035" 
d="M779 963h245l-583 -1455h-236l195 496l-391 959h251l264 -720zM812 -227c71 0 132 -60 132 -132s-61 -131 -132 -131s-131 59 -131 131s60 132 131 132z" />
    <glyph glyph-name="uni1EF6" unicode="&#x1ef6;" horiz-adv-x="1335" 
d="M653 2016c-39 0 -75 -13 -109 -42l-78 112c51 40 117 68 187 68c133 0 240 -92 240 -225c0 -88 -50 -172 -160 -203v-96h-130v172c92 18 144 58 144 126c0 49 -34 88 -94 88zM1322 1536l-535 -809v-727h-236v722l-538 814h279l377 -589l378 589h275z" />
    <glyph glyph-name="uni1EF7" unicode="&#x1ef7;" horiz-adv-x="1035" 
d="M487 1443c-39 0 -75 -13 -109 -42l-78 112c51 40 117 68 187 68c133 0 240 -92 240 -225c0 -88 -50 -172 -160 -203v-96h-130v172c92 18 144 58 144 126c0 49 -34 88 -94 88zM779 963h245l-583 -1455h-236l195 496l-391 959h251l264 -720z" />
    <glyph glyph-name="uni1EF8" unicode="&#x1ef8;" horiz-adv-x="1335" 
d="M537 1799c-60 0 -89 -69 -89 -154h-143c0 167 85 294 226 294c92 0 153 -54 195 -115c16 -24 36 -49 75 -49c57 0 86 54 86 154h142c0 -164 -78 -294 -226 -294c-94 0 -153 52 -194 115c-24 36 -45 49 -72 49zM1322 1536l-535 -809v-727h-236v722l-538 814h279l377 -589
l378 589h275z" />
    <glyph glyph-name="uni1EF9" unicode="&#x1ef9;" horiz-adv-x="1035" 
d="M371 1226c-60 0 -89 -69 -89 -154h-143c0 167 85 294 226 294c92 0 153 -54 195 -115c16 -24 36 -49 75 -49c57 0 86 54 86 154h142c0 -164 -78 -294 -226 -294c-94 0 -153 52 -194 115c-24 36 -45 49 -72 49zM779 963h245l-583 -1455h-236l195 496l-391 959h251
l264 -720z" />
    <glyph glyph-name="endash" unicode="&#x2013;" horiz-adv-x="1326" 
d="M151 395v172h1024v-172h-1024z" />
    <glyph glyph-name="emdash" unicode="&#x2014;" horiz-adv-x="2048" 
d="M0 395v172h2048v-172h-2048z" />
    <glyph glyph-name="quoteleft" unicode="&#x2018;" horiz-adv-x="564" 
d="M320 1165c44 -24 75 -70 75 -123c0 -75 -65 -140 -140 -140s-139 65 -139 140c0 22 5 42 14 61l165 434h140z" />
    <glyph glyph-name="quoteright" unicode="&#x2019;" horiz-adv-x="566" 
d="M448 1417c0 -22 -5 -42 -14 -61l-165 -434h-140l115 372c-44 24 -75 70 -75 123c0 75 65 140 140 140s139 -65 139 -140z" />
    <glyph glyph-name="quotesinglbase" unicode="&#x201a;" horiz-adv-x="566" 
d="M449 119c0 -22 -5 -42 -14 -61l-165 -434h-140l115 372c-44 24 -75 70 -75 123c0 75 65 140 140 140s139 -65 139 -140z" />
    <glyph glyph-name="quotedblleft" unicode="&#x201c;" horiz-adv-x="974" 
d="M295 1537h140l-115 -372c44 -24 75 -70 75 -123c0 -75 -65 -140 -140 -140s-139 65 -139 140c0 22 5 42 14 61zM730 1165c44 -24 75 -70 75 -123c0 -75 -65 -140 -140 -140s-139 65 -139 140c0 22 5 42 14 61l165 434h140z" />
    <glyph glyph-name="quotedblright" unicode="&#x201d;" horiz-adv-x="983" 
d="M866 1416c0 -22 -5 -42 -14 -61l-165 -434h-140l115 372c-44 24 -75 70 -75 123c0 75 65 140 140 140s139 -65 139 -140zM309 1555c75 0 139 -65 139 -140c0 -22 -5 -42 -14 -61l-165 -434h-140l115 372c-44 24 -75 70 -75 123c0 75 65 140 140 140z" />
    <glyph glyph-name="quotedblbase" unicode="&#x201e;" horiz-adv-x="961" 
d="M310 259c75 0 139 -65 139 -140c0 -22 -5 -42 -14 -61l-165 -434h-140l115 372c-44 24 -75 70 -75 123c0 75 65 140 140 140zM844 119c0 -22 -5 -42 -14 -61l-165 -434h-140l115 372c-44 24 -75 70 -75 123c0 75 65 140 140 140s139 -65 139 -140z" />
    <glyph glyph-name="dagger" unicode="&#x2020;" horiz-adv-x="973" 
d="M907 990v-149h-350v-1189h-149v1189h-342v149h342v382h149v-382h350z" />
    <glyph glyph-name="daggerdbl" unicode="&#x2021;" horiz-adv-x="1056" 
d="M948 1005h-350v-646h350v-147h-350v-396h-149v396h-342v147h342v646h-342v148h342v383h149v-383h350v-148z" />
    <glyph glyph-name="bullet" unicode="&#x2022;" horiz-adv-x="880" 
d="M440 383c-154 0 -287 124 -287 285c0 154 133 287 287 287c152 0 285 -133 285 -287c0 -161 -133 -285 -285 -285z" />
    <glyph glyph-name="ellipsis" unicode="&#x2026;" horiz-adv-x="1863" 
d="M318 -20c-75 0 -139 62 -139 139c0 75 64 140 139 140c76 0 140 -65 140 -140c0 -77 -64 -139 -140 -139zM926 -20c-75 0 -139 62 -139 139c0 75 64 140 139 140c76 0 140 -65 140 -140c0 -77 -64 -139 -140 -139zM1544 -20c-75 0 -139 62 -139 139c0 75 64 140 139 140
c76 0 140 -65 140 -140c0 -77 -64 -139 -140 -139z" />
    <glyph glyph-name="perthousand" unicode="&#x2030;" horiz-adv-x="2402" 
d="M429 885c-185 0 -336 151 -336 338c0 184 151 333 336 333s334 -149 334 -333c0 -187 -149 -338 -334 -338zM277 0l888 1536h225l-886 -1536h-227zM429 1064c88 0 157 71 157 159c0 85 -71 156 -157 156c-87 0 -159 -70 -159 -156c0 -88 72 -159 159 -159zM1245 -16
c-186 0 -335 150 -335 336c0 184 151 333 335 333c185 0 335 -149 335 -333c0 -185 -150 -336 -335 -336zM1982 -16c-186 0 -335 150 -335 336c0 184 151 333 335 333s334 -149 334 -333c0 -185 -150 -336 -334 -336zM1245 161c88 0 158 71 158 159c0 86 -72 156 -158 156
c-87 0 -158 -70 -158 -156c0 -88 71 -159 158 -159zM1982 161c88 0 158 71 158 159c0 86 -72 156 -158 156c-88 0 -158 -70 -158 -156c0 -88 70 -159 158 -159z" />
    <glyph glyph-name="guilsinglleft" unicode="&#x2039;" horiz-adv-x="610" 
d="M359 104l-311 377l311 377h187l-312 -377l312 -377h-187z" />
    <glyph glyph-name="guilsinglright" unicode="&#x203a;" horiz-adv-x="610" 
d="M65 104l311 377l-311 377h186l311 -377l-311 -377h-186z" />
    <glyph glyph-name="fraction" unicode="&#x2044;" horiz-adv-x="523" 
d="M-369 0l1071 1536h190l-1071 -1536h-190z" />
    <glyph glyph-name="Euro" unicode="&#x20ac;" horiz-adv-x="1689" 
d="M940 208c155 0 305 66 405 178l174 -151c-141 -155 -363 -255 -579 -255c-346 0 -638 219 -745 528h-66v169h28c-3 30 -5 60 -5 91c0 28 1 56 4 84h-27v169h64c105 312 398 535 747 535c216 0 438 -100 579 -255l-174 -151c-100 112 -250 178 -405 178
c-221 0 -409 -123 -499 -307h703v-169h-755c-4 -27 -6 -55 -6 -84c0 -31 2 -61 7 -91h754v-169h-700c92 -180 277 -300 496 -300z" />
    <glyph glyph-name="uni2113" unicode="&#x2113;" horiz-adv-x="1235" 
d="M687 -11c-270 0 -393 163 -417 350v21c-43 -26 -88 -61 -135 -93l-64 120c68 50 135 93 195 142v530c0 381 194 520 400 520c225 0 324 -167 324 -355c0 -255 -199 -491 -507 -742l1 -59c1 -175 123 -260 253 -260c150 0 272 107 336 209l101 -94
c-121 -205 -296 -289 -487 -289zM481 679c199 182 351 368 351 543c0 120 -43 204 -162 204c-84 0 -189 -78 -189 -339v-408z" />
    <glyph glyph-name="uni2116" unicode="&#x2116;" horiz-adv-x="2823" 
d="M1186 499v1037h236v-1536h-94l-897 1041v-1041h-236v1536h92zM2185 366c-287 0 -509 222 -509 499c0 278 222 500 509 500c285 0 507 -222 507 -500c0 -277 -222 -499 -507 -499zM2184 1157c-161 0 -286 -126 -286 -292s125 -291 286 -291c159 0 286 126 286 291
s-127 292 -286 292zM1737 0v158h923v-158h-923z" />
    <glyph glyph-name="trademark" unicode="&#x2122;" horiz-adv-x="1595" 
d="M120 1426v110h456v-110h-169v-608h-120v608h-167zM1229 1536h129v-718h-119v518l-226 -375l-226 370v-513h-122v718h130l217 -363z" />
    <glyph glyph-name="estimated" unicode="&#x212e;" horiz-adv-x="1953" 
d="M993 -18c-484 0 -875 352 -875 784c0 438 391 790 875 790c485 0 876 -352 876 -790v-21h-1417c-8 0 -12 -2 -12 -8v-430c0 -18 8 -35 18 -49c137 -141 328 -233 537 -233c227 0 428 102 565 262h125c-156 -185 -410 -305 -692 -305zM452 788h1087c7 0 9 9 9 15v430
c0 18 -6 39 -21 51c-137 135 -323 225 -532 225c-207 0 -396 -92 -535 -231c-12 -14 -20 -33 -20 -53v-422c0 -6 4 -15 12 -15z" />
    <glyph glyph-name="arrowleft" unicode="&#x2190;" horiz-adv-x="1753" 
d="M1613 850v-248h-1038v-260l-498 385l498 385v-262h1038z" />
    <glyph glyph-name="arrowup" unicode="&#x2191;" horiz-adv-x="887" 
d="M321 0v1038h-262l385 498l385 -498h-260v-1038h-248z" />
    <glyph glyph-name="arrowright" unicode="&#x2192;" horiz-adv-x="1759" 
d="M140 850h1038v262l498 -385l-498 -385v260h-1038v248z" />
    <glyph glyph-name="arrowdown" unicode="&#x2193;" horiz-adv-x="887" 
d="M321 1536h248v-1038h260l-385 -498l-385 498h262v1038z" />
    <glyph glyph-name="arrowboth" unicode="&#x2194;" horiz-adv-x="2178" 
d="M574 295l-498 387l498 385v-260l1024 -2v260l497 -385l-497 -385v262l-1024 2v-264z" />
    <glyph glyph-name="arrowupdn" unicode="&#x2195;" horiz-adv-x="945" 
d="M472 -145l-385 497h262v672h-262l385 498l385 -498h-260v-672h260z" />
    <glyph glyph-name="uni2196" unicode="&#x2196;" horiz-adv-x="1363" 
d="M1299 314l-175 -175l-734 734l-184 -184l-80 624l625 -80l-186 -185z" />
    <glyph glyph-name="uni2197" unicode="&#x2197;" horiz-adv-x="1363" 
d="M64 314l734 734l-186 185l625 80l-80 -624l-184 184l-734 -734z" />
    <glyph glyph-name="uni2198" unicode="&#x2198;" horiz-adv-x="1363" 
d="M64 1222l175 175l734 -734l184 184l80 -624l-625 80l186 185z" />
    <glyph glyph-name="uni2199" unicode="&#x2199;" horiz-adv-x="1363" 
d="M1299 1222l-734 -734l186 -185l-625 -80l80 624l184 -184l734 734z" />
    <glyph glyph-name="partialdiff" unicode="&#x2202;" horiz-adv-x="1185" 
d="M348 1451c389 76 703 -282 697 -779c-5 -386 -227 -665 -527 -665c-331 0 -494 265 -364 617c116 311 385 443 640 350c-68 222 -226 346 -446 302v175zM831 672c1 40 0 80 -3 117c-196 121 -385 35 -475 -219c-85 -242 13 -405 172 -405c151 0 297 195 306 507z" />
    <glyph glyph-name="emptyset" unicode="&#x2205;" horiz-adv-x="1518" 
d="M1223 994c92 -107 148 -246 148 -398c0 -338 -274 -612 -612 -612c-152 0 -291 56 -398 148l-89 -89l-66 66l89 89c-92 107 -148 246 -148 398c0 338 274 612 612 612c152 0 291 -56 398 -148l89 89l66 -66zM334 596c0 -101 35 -194 93 -266l598 598
c-72 58 -165 93 -266 93c-236 0 -425 -189 -425 -425zM759 171c236 0 425 189 425 425c0 101 -35 194 -93 266l-598 -598c72 -58 165 -93 266 -93z" />
    <glyph glyph-name="product" unicode="&#x220f;" horiz-adv-x="1639" 
d="M265 0v1237h-136v203h1381v-203h-136v-1237h-202v1237h-703v-1237h-204z" />
    <glyph glyph-name="summation" unicode="&#x2211;" horiz-adv-x="1393" 
d="M95 -241v153l717 686l-717 686v156h1194v-196h-865l659 -646l-659 -646h865v-193h-1194z" />
    <glyph glyph-name="minus" unicode="&#x2212;" horiz-adv-x="1260" 
d="M232 590v193h795v-193h-795z" />
    <glyph glyph-name="radical" unicode="&#x221a;" horiz-adv-x="1442" 
d="M439 -160l-227 699h-143v167h262l196 -601l700 1465l154 -64l-797 -1666h-145z" />
    <glyph glyph-name="infinity" unicode="&#x221e;" horiz-adv-x="1701" 
d="M474 273c-175 0 -302 135 -309 323c7 188 134 323 309 323c119 0 250 -72 375 -200c123 128 257 200 374 200c183 0 302 -125 308 -323c-6 -198 -125 -323 -308 -323c-117 0 -251 71 -374 199c-125 -127 -256 -199 -375 -199zM474 440c74 0 168 55 264 156
c-96 101 -190 156 -264 156c-77 0 -141 -66 -143 -156c2 -90 66 -156 143 -156zM1223 440c80 0 140 61 143 156c-3 95 -63 156 -143 156c-75 0 -169 -56 -264 -156c95 -100 189 -156 264 -156z" />
    <glyph glyph-name="integral" unicode="&#x222b;" horiz-adv-x="919" 
d="M63 -457v223c208 0 278 71 278 262v1101c0 187 136 319 309 319c72 0 156 -21 217 -76l-99 -176c-32 31 -68 42 -98 42c-58 0 -108 -39 -108 -143v-1080c0 -300 -201 -472 -499 -472z" />
    <glyph glyph-name="approxequal" unicode="&#x2248;" horiz-adv-x="1398" 
d="M911 664c-154 0 -240 103 -289 157c-44 46 -76 64 -116 64c-92 0 -143 -87 -144 -203h-180c0 229 123 385 327 385c110 0 181 -50 263 -149c30 -36 64 -79 125 -79c80 0 137 77 138 202h179c0 -215 -112 -377 -303 -377zM911 208c-154 0 -239 102 -289 156
c-39 42 -66 65 -116 65c-94 -3 -143 -88 -144 -203h-180c0 232 125 386 327 386c108 0 181 -49 263 -149c28 -35 64 -79 125 -79c80 0 137 74 138 202h179c0 -214 -112 -378 -303 -378z" />
    <glyph glyph-name="lessequal" unicode="&#x2264;" horiz-adv-x="1408" 
d="M1255 1474v-213l-917 -406l917 -409v-217l-1130 509v232zM125 0v150h1130v-150h-1130z" />
    <glyph glyph-name="greaterequal" unicode="&#x2265;" horiz-adv-x="1408" 
d="M153 1474l1131 -504v-232l-1131 -509v217l917 409l-917 406v213zM153 0v150h1131v-150h-1131z" />
    <glyph glyph-name="lozenge" unicode="&#x25ca;" horiz-adv-x="1359" 
d="M681 106l-619 617l619 618l616 -616zM682 360l362 365l-362 363l-365 -365z" />
    <glyph glyph-name="uniF8FF" unicode="&#xf8ff;" horiz-adv-x="1800" 
d="M900 0c-428 0 -778 350 -778 778c0 430 350 778 778 778c430 0 778 -348 778 -778c0 -428 -348 -778 -778 -778zM900 74c389 0 704 317 704 704c0 389 -315 705 -704 705c-387 0 -705 -316 -705 -705c0 -387 318 -704 705 -704zM1307 444c-8 0 -18 5 -24 13l-297 295
c-14 16 -14 39 0 53l297 297c14 14 37 14 51 0c14 -15 14 -39 0 -53l-270 -271l270 -270c14 -14 12 -35 0 -51c-6 -8 -16 -13 -27 -13zM492 444c-20 0 -37 17 -37 37v594c0 21 17 37 37 37c21 0 37 -16 37 -37v-594c0 -20 -16 -37 -37 -37zM900 444c-21 0 -37 17 -37 37v594
c0 21 16 37 37 37c20 0 37 -16 37 -37v-594c0 -20 -17 -37 -37 -37zM603 741c-21 0 -37 17 -37 37c0 21 16 37 37 37h186c21 0 37 -16 37 -37c0 -20 -16 -37 -37 -37h-186z" />
    <glyph glyph-name="Lcaron.ss01" horiz-adv-x="1012" 
d="M434 1536v-1315h545v-221h-781v1536h236zM995 1536l-176 -573h-140l82 573h234z" />
    <glyph glyph-name="Lcaron.ss02" horiz-adv-x="1012" 
d="M434 1536v-1315h545v-221h-781v1536h236zM995 1536l-176 -573h-140l82 573h234z" />
    <glyph glyph-name="i.loclTRK" horiz-adv-x="546" 
d="M272 1123c-69 0 -129 58 -129 128c0 73 60 130 129 130c71 0 130 -57 130 -130c0 -70 -59 -128 -130 -128zM159 0v963h228v-963h-228z" />
    <glyph glyph-name="a.ss01" horiz-adv-x="1037" 
d="M497 983c249 0 409 -141 409 -388v-595h-204l-7 108c-74 -79 -168 -126 -294 -126c-188 0 -329 104 -329 288c0 175 124 296 485 329l131 13c-3 124 -80 193 -204 193c-105 0 -193 -47 -273 -110l-98 154c75 59 204 134 384 134zM449 153c99 0 182 49 239 138v160
l-92 -10c-261 -26 -304 -86 -304 -159c0 -90 65 -129 157 -129z" />
    <glyph glyph-name="aacute.ss01" horiz-adv-x="1037" 
d="M810 1365l-338 -292l-85 94l306 329zM497 983c249 0 409 -141 409 -388v-595h-204l-7 108c-74 -79 -168 -126 -294 -126c-188 0 -329 104 -329 288c0 175 124 296 485 329l131 13c-3 124 -80 193 -204 193c-105 0 -193 -47 -273 -110l-98 154c75 59 204 134 384 134z
M449 153c99 0 182 49 239 138v160l-92 -10c-261 -26 -304 -86 -304 -159c0 -90 65 -129 157 -129z" />
    <glyph glyph-name="abreve.ss01" horiz-adv-x="1037" 
d="M500 1131c-204 0 -351 119 -351 332h156c0 -105 67 -196 195 -196c130 0 197 91 197 196h156c0 -213 -147 -332 -353 -332zM497 983c249 0 409 -141 409 -388v-595h-204l-7 108c-74 -79 -168 -126 -294 -126c-188 0 -329 104 -329 288c0 175 124 296 485 329l131 13
c-3 124 -80 193 -204 193c-105 0 -193 -47 -273 -110l-98 154c75 59 204 134 384 134zM449 153c99 0 182 49 239 138v160l-92 -10c-261 -26 -304 -86 -304 -159c0 -90 65 -129 157 -129z" />
    <glyph glyph-name="uni1EAF.ss01" horiz-adv-x="1037" 
d="M810 1836l-338 -292l-85 94l306 329zM500 1131c-204 0 -351 119 -351 332h156c0 -105 67 -196 195 -196c130 0 197 91 197 196h156c0 -213 -147 -332 -353 -332zM497 983c249 0 409 -141 409 -388v-595h-204l-7 108c-74 -79 -168 -126 -294 -126
c-188 0 -329 104 -329 288c0 175 124 296 485 329l131 13c-3 124 -80 193 -204 193c-105 0 -193 -47 -273 -110l-98 154c75 59 204 134 384 134zM449 153c99 0 182 49 239 138v160l-92 -10c-261 -26 -304 -86 -304 -159c0 -90 65 -129 157 -129z" />
    <glyph glyph-name="uni1EB7.ss01" horiz-adv-x="1037" 
d="M500 1131c-204 0 -351 119 -351 332h156c0 -105 67 -196 195 -196c130 0 197 91 197 196h156c0 -213 -147 -332 -353 -332zM497 983c249 0 409 -141 409 -388v-595h-204l-7 108c-74 -79 -168 -126 -294 -126c-188 0 -329 104 -329 288c0 175 124 296 485 329l131 13
c-3 124 -80 193 -204 193c-105 0 -193 -47 -273 -110l-98 154c75 59 204 134 384 134zM449 153c99 0 182 49 239 138v160l-92 -10c-261 -26 -304 -86 -304 -159c0 -90 65 -129 157 -129zM501 -130c71 0 132 -60 132 -132s-61 -131 -132 -131s-131 59 -131 131
s60 132 131 132z" />
    <glyph glyph-name="uni1EB1.ss01" horiz-adv-x="1037" 
d="M589 1637l-81 -90l-340 289l119 131zM500 1131c-204 0 -351 119 -351 332h156c0 -105 67 -196 195 -196c130 0 197 91 197 196h156c0 -213 -147 -332 -353 -332zM497 983c249 0 409 -141 409 -388v-595h-204l-7 108c-74 -79 -168 -126 -294 -126
c-188 0 -329 104 -329 288c0 175 124 296 485 329l131 13c-3 124 -80 193 -204 193c-105 0 -193 -47 -273 -110l-98 154c75 59 204 134 384 134zM449 153c99 0 182 49 239 138v160l-92 -10c-261 -26 -304 -86 -304 -159c0 -90 65 -129 157 -129z" />
    <glyph glyph-name="uni1EB3.ss01" horiz-adv-x="1037" 
d="M485 1914c-39 0 -75 -13 -109 -42l-78 112c51 40 117 68 187 68c133 0 240 -92 240 -225c0 -88 -50 -172 -160 -203v-96h-130v172c92 18 144 58 144 126c0 49 -34 88 -94 88zM500 1131c-204 0 -351 119 -351 332h156c0 -105 67 -196 195 -196c130 0 197 91 197 196h156
c0 -213 -147 -332 -353 -332zM497 983c249 0 409 -141 409 -388v-595h-204l-7 108c-74 -79 -168 -126 -294 -126c-188 0 -329 104 -329 288c0 175 124 296 485 329l131 13c-3 124 -80 193 -204 193c-105 0 -193 -47 -273 -110l-98 154c75 59 204 134 384 134zM449 153
c99 0 182 49 239 138v160l-92 -10c-261 -26 -304 -86 -304 -159c0 -90 65 -129 157 -129z" />
    <glyph glyph-name="uni1EB5.ss01" horiz-adv-x="1037" 
d="M369 1697c-60 0 -89 -69 -89 -154h-143c0 167 85 294 226 294c92 0 153 -54 195 -115c16 -24 36 -49 75 -49c57 0 86 54 86 154h142c0 -164 -78 -294 -226 -294c-94 0 -153 52 -194 115c-24 36 -45 49 -72 49zM500 1267c130 0 197 91 197 196h156
c0 -213 -147 -332 -353 -332c-204 0 -351 119 -351 332h156c0 -105 67 -196 195 -196zM497 983c249 0 409 -141 409 -388v-595h-204l-7 108c-74 -79 -168 -126 -294 -126c-188 0 -329 104 -329 288c0 175 124 296 485 329l131 13c-3 124 -80 193 -204 193
c-105 0 -193 -47 -273 -110l-98 154c75 59 204 134 384 134zM449 153c99 0 182 49 239 138v160l-92 -10c-261 -26 -304 -86 -304 -159c0 -90 65 -129 157 -129z" />
    <glyph glyph-name="uni01CE.ss01" horiz-adv-x="1037" 
d="M590 1113h-182l-219 298l102 63l210 -224l208 224l103 -63zM497 983c249 0 409 -141 409 -388v-595h-204l-7 108c-74 -79 -168 -126 -294 -126c-188 0 -329 104 -329 288c0 175 124 296 485 329l131 13c-3 124 -80 193 -204 193c-105 0 -193 -47 -273 -110l-98 154
c75 59 204 134 384 134zM449 153c99 0 182 49 239 138v160l-92 -10c-261 -26 -304 -86 -304 -159c0 -90 65 -129 157 -129z" />
    <glyph glyph-name="acircumflex.ss01" horiz-adv-x="1037" 
d="M501 1296l-210 -224l-102 64l220 298h181l222 -298l-103 -64zM497 983c249 0 409 -141 409 -388v-595h-204l-7 108c-74 -79 -168 -126 -294 -126c-188 0 -329 104 -329 288c0 175 124 296 485 329l131 13c-3 124 -80 193 -204 193c-105 0 -193 -47 -273 -110l-98 154
c75 59 204 134 384 134zM449 153c99 0 182 49 239 138v160l-92 -10c-261 -26 -304 -86 -304 -159c0 -90 65 -129 157 -129z" />
    <glyph glyph-name="adieresis.ss01" horiz-adv-x="1037" 
d="M303 1136c-70 0 -130 58 -130 129c0 73 60 129 130 129s130 -56 130 -129c0 -71 -60 -129 -130 -129zM701 1136c-71 0 -130 58 -130 129c0 73 59 129 130 129s129 -56 129 -129c0 -71 -58 -129 -129 -129zM497 983c249 0 409 -141 409 -388v-595h-204l-7 108
c-74 -79 -168 -126 -294 -126c-188 0 -329 104 -329 288c0 175 124 296 485 329l131 13c-3 124 -80 193 -204 193c-105 0 -193 -47 -273 -110l-98 154c75 59 204 134 384 134zM449 153c99 0 182 49 239 138v160l-92 -10c-261 -26 -304 -86 -304 -159c0 -90 65 -129 157 -129
z" />
    <glyph glyph-name="agrave.ss01" horiz-adv-x="1037" 
d="M589 1166l-81 -90l-340 289l119 131zM497 983c249 0 409 -141 409 -388v-595h-204l-7 108c-74 -79 -168 -126 -294 -126c-188 0 -329 104 -329 288c0 175 124 296 485 329l131 13c-3 124 -80 193 -204 193c-105 0 -193 -47 -273 -110l-98 154c75 59 204 134 384 134z
M449 153c99 0 182 49 239 138v160l-92 -10c-261 -26 -304 -86 -304 -159c0 -90 65 -129 157 -129z" />
    <glyph glyph-name="amacron.ss01" horiz-adv-x="1037" 
d="M818 1304v-143h-635v143h635zM497 983c249 0 409 -141 409 -388v-595h-204l-7 108c-74 -79 -168 -126 -294 -126c-188 0 -329 104 -329 288c0 175 124 296 485 329l131 13c-3 124 -80 193 -204 193c-105 0 -193 -47 -273 -110l-98 154c75 59 204 134 384 134zM449 153
c99 0 182 49 239 138v160l-92 -10c-261 -26 -304 -86 -304 -159c0 -90 65 -129 157 -129z" />
    <glyph glyph-name="aogonek.ss01" horiz-adv-x="1037" 
d="M930 -290l92 -127c-81 -82 -189 -119 -295 -113c-149 9 -241 97 -241 228c0 129 90 228 216 305l-7 105c-74 -79 -168 -126 -294 -126c-188 0 -329 104 -329 288c0 175 124 296 485 329l131 13c-3 124 -80 193 -204 193c-105 0 -193 -47 -273 -110l-98 154
c75 59 204 134 384 134c249 0 409 -141 409 -388v-595h-6c-147 -63 -264 -154 -264 -265c0 -74 50 -107 115 -107c63 0 128 30 179 82zM449 153c99 0 182 49 239 138v160l-92 -10c-261 -26 -304 -86 -304 -159c0 -90 65 -129 157 -129z" />
    <glyph glyph-name="aring.ss01" horiz-adv-x="1037" 
d="M516 1113c-127 0 -230 104 -230 228c0 125 103 228 230 228c124 0 226 -103 226 -228c0 -124 -102 -228 -226 -228zM516 1465c-68 0 -120 -58 -120 -124c0 -71 52 -121 120 -121c66 0 119 50 119 121c0 66 -53 124 -119 124zM497 983c249 0 409 -141 409 -388v-595h-204
l-7 108c-74 -79 -168 -126 -294 -126c-188 0 -329 104 -329 288c0 175 124 296 485 329l131 13c-3 124 -80 193 -204 193c-105 0 -193 -47 -273 -110l-98 154c75 59 204 134 384 134zM449 153c99 0 182 49 239 138v160l-92 -10c-261 -26 -304 -86 -304 -159
c0 -90 65 -129 157 -129z" />
    <glyph glyph-name="atilde.ss01" horiz-adv-x="1037" 
d="M379 1226c-60 0 -89 -69 -89 -154h-143c0 167 85 294 226 294c92 0 153 -54 195 -115c16 -24 36 -49 75 -49c57 0 86 54 86 154h142c0 -164 -78 -294 -226 -294c-94 0 -153 52 -194 115c-24 36 -45 49 -72 49zM497 983c249 0 409 -141 409 -388v-595h-204l-7 108
c-74 -79 -168 -126 -294 -126c-188 0 -329 104 -329 288c0 175 124 296 485 329l131 13c-3 124 -80 193 -204 193c-105 0 -193 -47 -273 -110l-98 154c75 59 204 134 384 134zM449 153c99 0 182 49 239 138v160l-92 -10c-261 -26 -304 -86 -304 -159c0 -90 65 -129 157 -129
z" />
    <glyph glyph-name="dcaron.ss01" horiz-adv-x="1257" 
d="M870 835v701h229v-1536h-216l-5 139c-73 -93 -184 -158 -338 -158c-253 0 -471 216 -471 502c0 284 218 500 471 500c148 0 257 -60 330 -148zM1281 1536h234l-176 -573h-140zM589 188c162 0 291 131 291 295c0 163 -129 294 -291 294c-163 0 -292 -131 -292 -294
c0 -164 129 -295 292 -295z" />
    <glyph glyph-name="gcommaaccent.ss01" horiz-adv-x="1260" 
d="M837 1536l-97 -419h-234l190 419h141zM871 963h230v-945c0 -311 -227 -518 -523 -518c-178 0 -364 87 -467 247l147 136c75 -112 189 -179 312 -179c170 0 301 128 301 314v107c-68 -85 -171 -144 -317 -144c-271 0 -487 216 -487 502c0 285 216 500 486 500
c145 0 249 -58 318 -144v124zM587 188c161 0 291 132 291 295s-130 294 -291 294c-164 0 -292 -131 -292 -294s128 -295 292 -295z" />
    <glyph glyph-name="lcaron.ss01" horiz-adv-x="546" 
d="M159 0v1536h228v-1536h-228zM631 963h-140l82 573h234z" />
    <glyph glyph-name="tcaron.ss01" horiz-adv-x="668" 
d="M612 1644h234l-176 -573h-140zM449 1309v-346h191v-189h-191v-774h-229v774h-193v189h193v346h229z" />
    <glyph glyph-name="dcaron.ss02" horiz-adv-x="1257" 
d="M870 835v701h229v-1536h-216l-5 139c-73 -93 -184 -158 -338 -158c-253 0 -471 216 -471 502c0 284 218 500 471 500c148 0 257 -60 330 -148zM1281 1536h234l-176 -573h-140zM589 188c162 0 291 131 291 295c0 163 -129 294 -291 294c-163 0 -292 -131 -292 -294
c0 -164 129 -295 292 -295z" />
    <glyph glyph-name="gcommaaccent.ss02" horiz-adv-x="1260" 
d="M837 1536l-97 -419h-234l190 419h141zM871 963h230v-945c0 -311 -227 -518 -523 -518c-178 0 -364 87 -467 247l147 136c75 -112 189 -179 312 -179c170 0 301 128 301 314v107c-68 -85 -171 -144 -317 -144c-271 0 -487 216 -487 502c0 285 216 500 486 500
c145 0 249 -58 318 -144v124zM587 188c161 0 291 132 291 295s-130 294 -291 294c-164 0 -292 -131 -292 -294s128 -295 292 -295z" />
    <glyph glyph-name="lcaron.ss02" horiz-adv-x="546" 
d="M159 0v1536h228v-1536h-228zM631 963h-140l82 573h234z" />
    <glyph glyph-name="tcaron.ss02" horiz-adv-x="668" 
d="M612 1644h234l-176 -573h-140zM449 1309v-346h191v-189h-191v-774h-229v774h-193v189h193v346h229z" />
    <glyph glyph-name="f_t" horiz-adv-x="1278" 
d="M1249 963v-189h-191v-774h-229v774h-393v-774h-228v774h-162v189h162v269c0 201 125 328 320 328c64 0 122 -10 147 -30v-212c-29 22 -72 37 -111 37c-78 0 -128 -59 -128 -150v-242h393v346h229v-346h191z" />
    <glyph glyph-name="t_t" horiz-adv-x="1264" 
d="M1235 963v-189h-191v-774h-229v774h-366v-774h-229v774h-193v189h193v346h229v-346h366v346h229v-346h191z" />
    <glyph glyph-name="zero.lf" horiz-adv-x="1322" 
d="M661 -20c-333 0 -561 325 -561 788s214 788 561 788c345 0 561 -325 561 -788s-230 -788 -561 -788zM663 184c200 0 327 231 327 584c0 368 -142 570 -327 570c-188 0 -330 -202 -330 -570c0 -353 127 -584 330 -584z" />
    <glyph glyph-name="one.lf" horiz-adv-x="757" 
d="M334 0v1318h-309v218h541v-1536h-232z" />
    <glyph glyph-name="two.lf" horiz-adv-x="1180" 
d="M450 218h659v-218h-1059v93c680 687 760 856 760 1030c0 157 -117 228 -243 228c-154 0 -246 -102 -246 -262l-243 1c0 286 210 470 496 469c271 -2 468 -166 469 -426c0 -291 -209 -539 -593 -915z" />
    <glyph glyph-name="three.lf" horiz-adv-x="1217" 
d="M596 -20c-298 0 -542 164 -542 460l235 1c0 -165 135 -253 305 -253c187 0 307 103 307 269c0 169 -130 262 -307 262h-138v197h125c143 0 241 91 241 224c0 128 -90 210 -234 210c-136 0 -231 -75 -231 -205h-234c0 253 205 411 461 411c261 0 463 -164 463 -399
c0 -158 -90 -269 -207 -320c171 -52 295 -184 295 -393c0 -283 -229 -464 -539 -464z" />
    <glyph glyph-name="four.lf" horiz-adv-x="1265" 
d="M1233 522v-211h-257v-311h-233v311h-707v176l643 1049h297v-1014h257zM281 522h462v779z" />
    <glyph glyph-name="five.lf" horiz-adv-x="1257" 
d="M691 1037c270 0 476 -204 476 -508c0 -325 -237 -547 -544 -547c-268 0 -517 163 -535 460h245c28 -165 163 -236 296 -236c170 0 296 128 296 315c0 188 -131 314 -289 314c-103 0 -210 -55 -274 -149h-239l146 850h837v-214h-662l-64 -382c77 61 187 97 311 97z" />
    <glyph glyph-name="six.lf" horiz-adv-x="1218" 
d="M1160 525c8 -299 -241 -543 -540 -543c-307 0 -555 220 -563 513c-5 135 45 256 133 371l517 670h275l-412 -509c30 7 64 10 107 9c222 -13 475 -214 483 -511zM619 198c190 0 321 146 313 325c-8 188 -146 313 -323 313c-204 0 -329 -151 -322 -338
c7 -181 141 -300 332 -300z" />
    <glyph glyph-name="seven.lf" horiz-adv-x="1163" 
d="M38 1536h1097v-163l-754 -1373h-269l747 1323h-821v213z" />
    <glyph glyph-name="eight.lf" horiz-adv-x="1193" 
d="M595 -20c-291 0 -512 206 -512 472c0 175 96 322 243 400c-101 67 -153 178 -153 311c0 222 180 393 423 393c242 0 422 -171 422 -393c0 -133 -52 -244 -153 -311c149 -78 243 -225 243 -400c0 -266 -219 -472 -513 -472zM597 919c120 0 214 94 214 215
c0 122 -94 217 -214 217c-123 0 -217 -95 -217 -217c0 -121 94 -215 217 -215zM595 184c157 0 279 129 279 286c0 158 -122 278 -279 278c-156 0 -278 -120 -278 -278c0 -157 122 -286 278 -286z" />
    <glyph glyph-name="nine.lf" horiz-adv-x="1219" 
d="M1156 1041c4 -135 -46 -256 -134 -371l-517 -670h-275l432 535c-37 -11 -79 -17 -130 -17c-222 0 -472 202 -480 493c-8 299 241 543 540 543c307 0 555 -220 564 -513zM603 700c204 0 330 151 322 338c-7 181 -141 300 -332 300c-190 0 -321 -146 -313 -325
c8 -188 146 -313 323 -313z" />
    <glyph glyph-name="zero.dnom" horiz-adv-x="795" 
d="M397 -12c-208 0 -342 188 -342 473c0 284 134 473 342 473c207 0 344 -189 344 -473c0 -285 -137 -473 -344 -473zM399 161c93 0 161 118 161 300s-68 300 -161 300c-97 0 -163 -118 -163 -300s66 -300 163 -300z" />
    <glyph glyph-name="one.dnom" horiz-adv-x="466" 
d="M161 0v755h-131v167h309v-922h-178z" />
    <glyph glyph-name="two.dnom" horiz-adv-x="711" 
d="M328 166h322v-166h-619v75c377 389 420 490 420 572c0 99 -64 126 -119 125c-82 -2 -117 -61 -115 -131h-181c-2 178 124 295 302 295c168 0 285 -106 286 -273c1 -150 -92 -296 -296 -497z" />
    <glyph glyph-name="three.dnom" horiz-adv-x="696" 
d="M512 515c80 -48 131 -130 131 -231c0 -164 -133 -296 -310 -296c-166 0 -302 113 -302 273l182 2c0 -62 57 -104 121 -104c75 0 130 57 130 131c0 75 -55 117 -127 117h-88l-1 158h78c59 0 102 47 102 104c0 58 -45 96 -102 96c-54 0 -92 -34 -92 -83l-177 3
c0 147 116 249 269 249c151 0 266 -106 266 -247c0 -72 -30 -131 -80 -172z" />
    <glyph glyph-name="four.dnom" horiz-adv-x="761" 
d="M696 361v-166h-81v-195h-179v195h-437v112l380 615h236v-561h81zM220 361h216v372z" />
    <glyph glyph-name="five.dnom" horiz-adv-x="797" 
d="M455 630c156 0 276 -116 276 -305c0 -204 -147 -336 -332 -336c-167 0 -320 101 -336 274l191 12c16 -78 82 -114 152 -114c79 0 139 61 139 162c0 95 -62 153 -142 153c-51 0 -109 -31 -142 -81l-186 1l94 526h529v-163h-397l-33 -191c36 31 103 62 187 62z" />
    <glyph glyph-name="six.dnom" horiz-adv-x="719" 
d="M695 313c1 -184 -157 -328 -340 -324c-187 4 -340 137 -340 319c0 78 32 146 73 206l302 408h209l-233 -294c15 1 32 1 51 -1c129 -15 277 -138 278 -314zM355 153c99 -4 165 69 164 160c-2 96 -68 159 -157 162c-108 5 -169 -69 -168 -167c2 -93 63 -152 161 -155z" />
    <glyph glyph-name="seven.dnom" horiz-adv-x="653" 
d="M28 922h632v-131l-425 -791h-204l420 759h-423v163z" />
    <glyph glyph-name="eight.dnom" horiz-adv-x="743" 
d="M371 -12c-184 0 -321 125 -321 288c0 101 52 185 135 235c-53 41 -80 104 -80 180c0 138 112 243 267 243c152 0 266 -105 266 -243c0 -76 -28 -139 -79 -180c83 -50 135 -134 135 -235c0 -163 -137 -288 -323 -288zM372 560c61 0 108 48 108 108c0 63 -47 110 -108 110
s-108 -47 -108 -110c0 -60 47 -108 108 -108zM371 144c81 0 142 66 142 147s-61 140 -142 140c-79 0 -140 -59 -140 -140s61 -147 140 -147z" />
    <glyph glyph-name="nine.dnom" horiz-adv-x="720" 
d="M365 932c187 0 340 -137 340 -318c0 -78 -29 -146 -73 -206l-302 -408h-209l237 300c-14 -3 -29 -4 -46 -3c-142 10 -285 124 -287 312c-1 183 157 323 340 323zM364 446c101 0 163 70 162 167c-2 93 -66 156 -164 156c-94 0 -162 -69 -161 -160c2 -95 69 -163 163 -163z
" />
    <glyph glyph-name="zero.numr" horiz-adv-x="795" 
d="M397 608c-208 0 -342 188 -342 473c0 284 134 473 342 473c207 0 344 -189 344 -473c0 -285 -137 -473 -344 -473zM399 781c93 0 161 118 161 300s-68 300 -161 300c-97 0 -163 -118 -163 -300s66 -300 163 -300z" />
    <glyph glyph-name="one.numr" horiz-adv-x="466" 
d="M161 614v755h-131v167h309v-922h-178z" />
    <glyph glyph-name="two.numr" horiz-adv-x="711" 
d="M328 780h322v-166h-619v75c377 389 420 490 420 572c0 99 -64 126 -119 125c-82 -2 -117 -61 -115 -131h-181c-2 178 124 295 302 295c168 0 285 -106 286 -273c1 -150 -92 -296 -296 -497z" />
    <glyph glyph-name="three.numr" horiz-adv-x="696" 
d="M512 1129c80 -48 131 -130 131 -231c0 -164 -133 -296 -310 -296c-166 0 -302 113 -302 273l182 2c0 -62 57 -104 121 -104c75 0 130 57 130 131c0 75 -55 117 -127 117h-88l-1 158h78c59 0 102 47 102 104c0 58 -45 96 -102 96c-54 0 -92 -34 -92 -83l-177 3
c0 147 116 249 269 249c151 0 266 -106 266 -247c0 -72 -30 -131 -80 -172z" />
    <glyph glyph-name="four.numr" horiz-adv-x="761" 
d="M696 975v-166h-81v-195h-179v195h-437v112l380 615h236v-561h81zM220 975h216v372z" />
    <glyph glyph-name="five.numr" horiz-adv-x="797" 
d="M455 1244c156 0 276 -116 276 -305c0 -204 -147 -336 -332 -336c-167 0 -320 101 -336 274l191 12c16 -78 82 -114 152 -114c79 0 139 61 139 162c0 95 -62 153 -142 153c-51 0 -109 -31 -142 -81l-186 1l94 526h529v-163h-397l-33 -191c36 31 103 62 187 62z" />
    <glyph glyph-name="six.numr" horiz-adv-x="719" 
d="M695 927c1 -184 -157 -328 -340 -324c-187 4 -340 137 -340 319c0 78 32 146 73 206l302 408h209l-233 -294c15 1 32 1 51 -1c129 -15 277 -138 278 -314zM355 767c99 -4 165 69 164 160c-2 96 -68 159 -157 162c-108 5 -169 -69 -168 -167c2 -93 63 -152 161 -155z" />
    <glyph glyph-name="seven.numr" horiz-adv-x="653" 
d="M28 1536h632v-131l-425 -791h-204l420 759h-423v163z" />
    <glyph glyph-name="eight.numr" horiz-adv-x="743" 
d="M371 602c-184 0 -321 125 -321 288c0 101 52 185 135 235c-53 41 -80 104 -80 180c0 138 112 243 267 243c152 0 266 -105 266 -243c0 -76 -28 -139 -79 -180c83 -50 135 -134 135 -235c0 -163 -137 -288 -323 -288zM372 1174c61 0 108 48 108 108c0 63 -47 110 -108 110
s-108 -47 -108 -110c0 -60 47 -108 108 -108zM371 758c81 0 142 66 142 147s-61 140 -142 140c-79 0 -140 -59 -140 -140s61 -147 140 -147z" />
    <glyph glyph-name="nine.numr" horiz-adv-x="720" 
d="M365 1546c187 0 340 -137 340 -318c0 -78 -29 -146 -73 -206l-302 -408h-209l237 300c-14 -3 -29 -4 -46 -3c-142 10 -285 124 -287 312c-1 183 157 323 340 323zM364 1060c101 0 163 70 162 167c-2 93 -66 156 -164 156c-94 0 -162 -69 -161 -160
c2 -95 69 -163 163 -163z" />
    <glyph glyph-name="comma.ss01" horiz-adv-x="637" 
d="M173 -376l97 642h234l-190 -642h-141z" />
    <glyph glyph-name="semicolon.ss01" horiz-adv-x="636" 
d="M378 765c-77 0 -140 63 -140 140c0 75 63 139 140 139c75 0 140 -64 140 -139c0 -77 -65 -140 -140 -140zM173 -376l96 642h234l-190 -642h-140z" />
    <glyph glyph-name="comma.ss02" horiz-adv-x="637" 
d="M173 -376l97 642h234l-190 -642h-141z" />
    <glyph glyph-name="semicolon.ss02" horiz-adv-x="636" 
d="M378 765c-77 0 -140 63 -140 140c0 75 63 139 140 139c75 0 140 -64 140 -139c0 -77 -65 -140 -140 -140zM173 -376l96 642h234l-190 -642h-140z" />
    <glyph glyph-name="quotedblbase.ss01" horiz-adv-x="961" 
d="M310 259c75 0 139 -65 139 -140c0 -22 -5 -42 -14 -61l-165 -434h-140l115 372c-44 24 -75 70 -75 123c0 75 65 140 140 140zM844 119c0 -22 -5 -42 -14 -61l-165 -434h-140l115 372c-44 24 -75 70 -75 123c0 75 65 140 140 140s139 -65 139 -140z" />
    <glyph glyph-name="quotedblleft.ss01" horiz-adv-x="973" 
d="M432 1537l-97 -642h-234l190 642h141zM832 1537l-97 -642h-234l190 642h141z" />
    <glyph glyph-name="quotedblright.ss01" horiz-adv-x="973" 
d="M141 894l97 642h234l-190 -642h-141zM541 894l97 642h234l-190 -642h-141z" />
    <glyph glyph-name="quoteleft.ss01" horiz-adv-x="573" 
d="M432 1537l-97 -642h-234l190 642h141z" />
    <glyph glyph-name="quoteright.ss01" horiz-adv-x="573" 
d="M141 894l97 642h234l-190 -642h-141z" />
    <glyph glyph-name="quotesinglbase.ss01" horiz-adv-x="573" 
d="M141 -376l97 642h234l-190 -642h-141z" />
    <glyph glyph-name="quotedblleft.ss02" horiz-adv-x="1024" 
d="M483 1537l-97 -642h-234l190 642h141zM883 1537l-97 -642h-234l190 642h141z" />
    <glyph glyph-name="quotedblright.ss02" horiz-adv-x="973" 
d="M141 894l97 642h234l-190 -642h-141zM541 894l97 642h234l-190 -642h-141z" />
    <glyph glyph-name="quoteleft.ss02" horiz-adv-x="573" 
d="M432 1537l-97 -642h-234l190 642h141z" />
    <glyph glyph-name="quoteright.ss02" horiz-adv-x="573" 
d="M141 894l97 642h234l-190 -642h-141z" />
    <glyph glyph-name="quotesinglbase.ss02" horiz-adv-x="573" 
d="M141 -376l97 642h234l-190 -642h-141z" />
    <glyph glyph-name="caroncomb.alt" 
d="M-117 1417c0 -21 -5 -41 -14 -59l-144 -390h-146l100 326c-44 24 -75 70 -75 123c0 76 64 140 139 140c76 0 140 -64 140 -140z" />
    <glyph glyph-name="uni0308.case" 
d="M-646 1075c-70 0 -130 58 -130 129c0 73 60 129 130 129s130 -56 130 -129c0 -71 -60 -129 -130 -129zM-248 1075c-71 0 -130 58 -130 129c0 73 59 129 130 129s129 -56 129 -129c0 -71 -58 -129 -129 -129z" />
    <glyph glyph-name="uni030A.case" 
d="M-327 1094c-126 0 -230 104 -230 229s104 227 230 227c124 0 226 -102 226 -227s-102 -229 -226 -229zM-327 1201c67 0 120 51 120 122c0 65 -53 123 -120 123s-119 -58 -119 -123c0 -71 52 -122 119 -122z" />
    <glyph glyph-name="caroncomb.alt.ss01" 
d="M-246 963h-140l82 573h234z" />
    <glyph glyph-name="uni03060301" 
d="M-419 1605l-85 94l306 329l117 -131zM-391 1192c-204 0 -351 119 -351 332h156c0 -105 67 -196 195 -196c130 0 197 91 197 196h156c0 -213 -147 -332 -353 -332z" />
    <glyph glyph-name="uni03060300" 
d="M-347 1608l-340 289l119 131l302 -330zM-355 1192c-204 0 -351 119 -351 332h156c0 -105 67 -196 195 -196c130 0 197 91 197 196h156c0 -213 -147 -332 -353 -332z" />
    <glyph glyph-name="uni03060309" 
d="M-430 1589v172c92 18 144 58 144 126c0 49 -34 88 -94 88c-39 0 -75 -13 -109 -42l-78 112c51 40 117 68 187 68c133 0 240 -92 240 -225c0 -88 -50 -172 -160 -203v-96h-130zM-365 1192c-204 0 -351 119 -351 332h156c0 -105 67 -196 195 -196c130 0 197 91 197 196h156
c0 -213 -147 -332 -353 -332z" />
    <glyph glyph-name="uni03060303" 
d="M-306 1594c-94 0 -153 52 -194 115c-24 36 -45 49 -72 49c-60 0 -89 -69 -89 -154h-143c0 167 85 294 226 294c92 0 153 -54 195 -115c16 -24 36 -49 75 -49c57 0 86 54 86 154h142c0 -164 -78 -294 -226 -294zM-441 1192c-204 0 -351 119 -351 332h156
c0 -105 67 -196 195 -196c130 0 197 91 197 196h156c0 -213 -147 -332 -353 -332z" />
    <glyph glyph-name="uni03020301" 
d="M-394 1646l-85 94l306 329l117 -131zM-574 1174l-102 64l220 298h181l222 -298l-103 -64l-208 224z" />
    <glyph glyph-name="uni03020300" 
d="M-310 1649l-340 289l119 131l302 -330zM-526 1174l-102 64l220 298h181l222 -298l-103 -64l-208 224z" />
    <glyph glyph-name="uni03020309" 
d="M-410 1630v172c92 18 144 58 144 126c0 49 -34 88 -94 88c-39 0 -75 -13 -109 -42l-78 112c51 40 117 68 187 68c133 0 240 -92 240 -225c0 -88 -50 -172 -160 -203v-96h-130zM-553 1174l-102 64l220 298h181l222 -298l-103 -64l-208 224z" />
    <glyph glyph-name="uni03020303" 
d="M-293 1635c-94 0 -153 52 -194 115c-24 36 -45 49 -72 49c-60 0 -89 -69 -89 -154h-143c0 167 85 294 226 294c92 0 153 -54 195 -115c16 -24 36 -49 75 -49c57 0 86 54 86 154h142c0 -164 -78 -294 -226 -294zM-636 1174l-102 64l220 298h181l222 -298l-103 -64
l-208 224z" />
    </font>
</defs>
</svg>
