<?xml version="1.0" standalone="no"?>
<!DOCTYPE svg PUBLIC "-//W3C//DTD SVG 1.1//EN" "http://www.w3.org/Graphics/SVG/1.1/DTD/svg11.dtd" >
<svg xmlns="http://www.w3.org/2000/svg" xmlns:xlink="http://www.w3.org/1999/xlink" version="1.1">
<metadata>
Created by FontForge 20170910 at Mon Jul  3 22:36:20 2017
 By Jimmy Wärting
Copyright \(c\)2016. Neue Hans Kendrick is a trademark of Alfredo Marco Pradil. All rights reserved.
</metadata>
<defs>
<font id="NeueHansKendrick-SemiBoldItalic" horiz-adv-x="0" >
  <font-face 
    font-family="Neue Hans Kendrick SmBold It"
    font-weight="600"
    font-style="italic"
    font-stretch="normal"
    units-per-em="2048"
    panose-1="0 0 7 0 0 0 0 0 0 0"
    ascent="1536"
    descent="-512"
    x-height="963"
    cap-height="1536"
    bbox="-1647 -620.334 2802 2637"
    underline-thickness="127"
    underline-position="-100"
    slope="-10"
    stemh="238"
    stemv="257"
    unicode-range="U+0020-FB02"
  />
<missing-glyph horiz-adv-x="1023" 
d="M-22 0l271 1536h897l-271 -1536h-897zM199 188h520l205 1160h-520z" />
    <glyph glyph-name="fi" unicode="fi" horiz-adv-x="1228" 
d="M536 963h625l-35 -201l-133 -762h-246l133 762h-379l-133 -762h-248l133 762h-162l35 201h162l48 268c36 208 179 329 373 329c75 0 133 -16 156 -35l-25 -217c-25 23 -65 31 -97 31c-83 0 -152 -65 -167 -154zM1104 1419c86 0 148 -71 131 -161
c-12 -70 -78 -126 -149 -126c-87 0 -148 73 -134 162c13 71 80 125 152 125z" />
    <glyph glyph-name="fl" unicode="fl" horiz-adv-x="1259" 
d="M775 963l-35 -201h-238l-134 -762h-248l134 762h-163l35 201h163l47 268c36 208 179 329 373 329c75 0 133 -16 156 -35l-25 -217c-25 23 -65 31 -97 31c-83 0 -152 -65 -167 -154l-39 -222h238zM1044 1536h248l-270 -1536h-248z" />
    <glyph glyph-name="f_f" unicode="ff" horiz-adv-x="1385" 
d="M775 963l-35 -201h-238l-134 -762h-248l134 762h-163l35 201h163l47 268c36 208 179 329 373 329c75 0 133 -16 156 -35l-25 -217c-25 23 -65 31 -97 31c-83 0 -152 -65 -167 -154l-39 -222h238zM1422 1339c-83 0 -152 -65 -167 -154l-39 -222h238l-35 -201h-238
l-134 -762h-248l134 762h-163l35 201h163l47 268c36 208 179 329 373 329c75 0 133 -16 156 -35l-25 -217c-25 23 -65 31 -97 31z" />
    <glyph glyph-name="f_f_i" unicode="ffi" horiz-adv-x="1864" 
d="M147 0l134 762h-169l35 201h168l49 268c36 208 179 329 373 329c75 0 133 -16 156 -35l-25 -217c-25 23 -65 31 -97 31c-83 0 -152 -65 -167 -154l-40 -222h364l48 268c36 208 179 329 374 329c74 0 132 -16 155 -35l-25 -217c-25 23 -65 31 -97 31
c-83 0 -151 -65 -167 -154l-40 -222h621l-168 -963h-246l133 762h-375l-133 -762h-248l133 762h-364l-133 -762h-249zM1722 1132c-87 0 -148 73 -134 162c13 71 80 125 152 125c86 0 148 -71 131 -161c-12 -70 -78 -126 -149 -126z" />
    <glyph glyph-name="f_f_l" unicode="ffl" horiz-adv-x="1938" 
d="M775 963l-35 -201h-238l-134 -762h-248l134 762h-163l35 201h163l47 268c36 208 179 329 373 329c75 0 133 -16 156 -35l-25 -217c-25 23 -65 31 -97 31c-83 0 -152 -65 -167 -154l-39 -222h238zM1454 963l-35 -201h-238l-134 -762h-248l134 762h-163l35 201h163l47 268
c36 208 179 329 373 329c75 0 133 -16 156 -35l-25 -217c-25 23 -65 31 -97 31c-83 0 -152 -65 -167 -154l-39 -222h238zM1723 1536h248l-270 -1536h-248z" />
    <glyph glyph-name=".notdef" horiz-adv-x="1023" 
d="M-22 0l271 1536h897l-271 -1536h-897zM199 188h520l205 1160h-520z" />
    <glyph glyph-name="space" unicode=" " horiz-adv-x="504" 
 />
    <glyph glyph-name="exclam" unicode="!" horiz-adv-x="652" 
d="M197 487l185 1049h248l-185 -1049h-248zM248 -20c-89 0 -150 75 -135 165c13 73 82 130 154 130c90 0 152 -74 136 -166c-13 -71 -82 -129 -155 -129z" />
    <glyph glyph-name="quotedbl" unicode="&#x22;" horiz-adv-x="1034" 
d="M295 887l94 649h234l-130 -649h-198zM683 887l99 649h235l-135 -649h-199z" />
    <glyph glyph-name="numbersign" unicode="#" horiz-adv-x="1558" 
d="M230 0l110 345h-289l55 179h289l139 425h-292l62 177h284l112 350h178l-109 -350h358l110 350h181l-112 -350h292l-60 -177h-287l-135 -425h286l-55 -179h-287l-113 -345h-178l110 345h-362l-108 -345h-179zM576 524h358l138 425h-361z" />
    <glyph glyph-name="dollar" unicode="$" horiz-adv-x="1341" 
d="M751 894c205 -85 417 -180 362 -487c-42 -241 -234 -383 -451 -418l-28 -159h-228l29 161c-192 34 -329 146 -400 251l196 164c75 -132 177 -204 324 -204c160 0 284 89 308 228c25 141 -108 193 -262 267c-183 83 -387 176 -339 457c41 230 232 372 448 398l28 156h228
l-31 -172c129 -35 221 -114 290 -204l-174 -144c-91 125 -181 151 -274 151c-124 0 -240 -74 -261 -200c-23 -129 95 -183 235 -245z" />
    <glyph glyph-name="percent" unicode="%" horiz-adv-x="1649" 
d="M440 871c-199 0 -332 162 -296 363c31 179 203 322 384 322c197 0 328 -160 294 -358c-33 -181 -203 -327 -382 -327zM127 0l1144 1536h245l-1140 -1536h-249zM440 1063c92 0 181 77 198 171c12 72 -37 132 -110 132c-93 0 -184 -76 -200 -168c-13 -75 36 -135 112 -135z
M1126 -16c-199 0 -331 161 -297 361c33 179 204 323 383 323c197 0 330 -161 295 -359c-31 -180 -202 -325 -381 -325zM1126 175c93 0 181 76 198 170c13 73 -38 132 -112 132c-93 0 -182 -76 -199 -168c-13 -75 37 -134 113 -134z" />
    <glyph glyph-name="ampersand" unicode="&#x26;" horiz-adv-x="1496" 
d="M488 -23c-271 0 -446 184 -396 467c34 202 167 305 408 467c-76 111 -108 206 -87 320c33 188 198 324 395 324c212 0 345 -147 310 -347c-27 -154 -147 -245 -307 -354l197 -328l267 271l139 -145l-292 -295l216 -359h-278l-116 188c-148 -125 -296 -209 -456 -209z
M688 1000c108 74 206 129 224 236c13 76 -38 119 -106 120c-91 2 -173 -60 -190 -159c-13 -75 29 -126 72 -197zM483 190c121 0 242 91 347 179l-220 358c-129 -85 -282 -171 -308 -320c-21 -118 64 -217 181 -217z" />
    <glyph glyph-name="quotesingle" unicode="'" horiz-adv-x="645" 
d="M295 887l95 649h237l-133 -649h-199z" />
    <glyph glyph-name="parenleft" unicode="(" horiz-adv-x="671" 
d="M360 -458c-229 184 -331 590 -234 1144c94 528 327 937 616 1120l116 -173c-231 -145 -439 -497 -525 -983c-83 -474 -11 -813 173 -956z" />
    <glyph glyph-name="parenright" unicode=")" horiz-adv-x="672" 
d="M-4 -469l-116 174c232 144 437 488 523 981c83 467 13 813 -170 958l146 150c227 -182 328 -597 231 -1144c-93 -535 -325 -935 -614 -1119z" />
    <glyph glyph-name="asterisk" unicode="*" horiz-adv-x="978" 
d="M430 854l-110 70l210 243l-299 -22l23 135l299 -23l-128 245l122 67l82 -263l175 263l114 -67l-213 -245l299 23l-23 -135l-299 22l131 -243l-125 -70l-81 264z" />
    <glyph glyph-name="plus" unicode="+" horiz-adv-x="1198" 
d="M497 195v394h-393v204h393v393h204v-393h394v-204h-394v-394h-204z" />
    <glyph glyph-name="comma" unicode="," horiz-adv-x="627" 
d="M288 275c89 0 151 -76 136 -166c-5 -28 -19 -53 -37 -74l-235 -410h-150l186 380c-41 29 -64 82 -54 140c12 71 83 130 154 130z" />
    <glyph glyph-name="hyphen" unicode="-" horiz-adv-x="1010" 
d="M130 389l33 185h717l-33 -185h-717z" />
    <glyph glyph-name="period" unicode="." horiz-adv-x="637" 
d="M247 -20c-88 0 -151 75 -135 165c11 71 83 130 153 130c89 0 151 -76 136 -166c-13 -71 -83 -129 -154 -129z" />
    <glyph glyph-name="slash" unicode="/" horiz-adv-x="1270" 
d="M-179 -381l1454 2089h240l-1453 -2089h-241z" />
    <glyph glyph-name="zero" unicode="0" horiz-adv-x="1286" 
d="M572 -20c-346 0 -524 329 -438 806c80 458 342 770 683 770c357 0 522 -329 438 -806c-81 -458 -356 -770 -683 -770zM579 201c198 0 368 232 431 585c61 347 -31 537 -199 537c-188 0 -367 -207 -431 -573c-59 -335 16 -549 199 -549z" />
    <glyph glyph-name="one" unicode="1" horiz-adv-x="1286" 
d="M496 0l229 1303h-306l42 233h558l-271 -1536h-252z" />
    <glyph glyph-name="two" unicode="2" horiz-adv-x="1286" 
d="M1215 1115c-48 -278 -279 -507 -738 -882h644l-41 -233h-1064l15 125c793 677 905 835 937 1016c26 142 -71 198 -181 198c-156 0 -271 -105 -298 -263l-258 19c52 289 284 465 568 464c285 -2 463 -175 416 -444z" />
    <glyph glyph-name="three" unicode="3" horiz-adv-x="1286" 
d="M557 -20c-307 0 -533 168 -480 473l253 -16c-29 -162 80 -235 232 -235c188 0 326 109 356 277c27 152 -74 232 -242 232h-140l37 209h109c135 0 258 93 282 233c21 115 -47 182 -175 182c-137 0 -250 -77 -271 -206l-250 17c46 261 271 410 522 410
c275 0 457 -175 413 -420c-27 -149 -132 -255 -258 -306c148 -46 258 -180 218 -401c-48 -276 -298 -449 -606 -449z" />
    <glyph glyph-name="four" unicode="4" horiz-adv-x="1286" 
d="M1255 534l-41 -227h-251l-54 -307h-252l54 307h-697l33 196l806 1033h326l-176 -1002h252zM310 534h441l132 756z" />
    <glyph glyph-name="five" unicode="5" horiz-adv-x="1286" 
d="M1273 1307h-663l-119 -366c95 66 203 94 302 94c270 0 456 -201 400 -520c-56 -320 -326 -534 -625 -534c-281 0 -509 176 -472 468l260 -7c-1 -159 109 -219 229 -219c169 0 320 130 353 320c31 173 -66 282 -207 282c-108 0 -227 -61 -305 -154l-263 7l299 858h852z
" />
    <glyph glyph-name="six" unicode="6" horiz-adv-x="1286" 
d="M799 1016c236 0 449 -215 403 -511c-45 -290 -331 -523 -623 -523c-318 0 -533 231 -488 535c19 123 83 242 190 360l630 659h301l-516 -530c31 7 65 10 103 10zM960 540c19 170 -87 282 -250 282c-202 0 -353 -151 -374 -338c-18 -164 84 -271 259 -271
c191 0 345 147 365 327z" />
    <glyph glyph-name="seven" unicode="7" horiz-adv-x="1286" 
d="M282 1536h1108l-29 -179l-979 -1357h-298l962 1308h-804z" />
    <glyph glyph-name="eight" unicode="8" horiz-adv-x="1286" 
d="M571 -20c-304 0 -497 215 -448 493c30 172 150 313 308 387c-85 72 -117 184 -93 318c38 214 241 378 480 378c254 0 412 -181 371 -414c-22 -127 -91 -234 -199 -298c130 -84 197 -231 166 -407c-46 -259 -295 -457 -585 -457zM714 923c124 0 235 99 253 225
c16 108 -54 189 -161 189c-126 0 -238 -98 -257 -225c-15 -107 56 -189 165 -189zM585 200c160 0 302 133 325 293c21 141 -71 247 -213 247c-158 0 -298 -123 -322 -283c-21 -142 69 -257 210 -257z" />
    <glyph glyph-name="nine" unicode="9" horiz-adv-x="1286" 
d="M699 1554c318 0 533 -231 488 -535c-19 -123 -83 -242 -190 -360l-630 -659h-301l516 530c-31 -7 -65 -10 -103 -10c-236 0 -449 215 -403 511c45 290 331 523 623 523zM942 1052c18 164 -84 271 -259 271c-191 0 -345 -147 -365 -327c-19 -170 87 -282 250 -282
c202 0 353 151 374 338z" />
    <glyph glyph-name="colon" unicode=":" horiz-adv-x="618" 
d="M373 749c-88 0 -151 75 -135 166c11 70 83 129 154 129c88 0 150 -76 135 -165c-13 -72 -83 -130 -154 -130zM237 -20c-88 0 -151 75 -135 165c11 71 83 130 154 130c88 0 150 -76 135 -166c-13 -71 -83 -129 -154 -129z" />
    <glyph glyph-name="semicolon" unicode=";" horiz-adv-x="614" 
d="M403 1044c89 0 150 -76 135 -165c-12 -72 -83 -130 -154 -130c-89 0 -151 75 -135 166c12 70 82 129 154 129zM267 275c89 0 150 -76 135 -166c-5 -27 -18 -53 -36 -73l-235 -411h-150l186 380c-41 29 -64 81 -54 140c12 71 83 130 154 130z" />
    <glyph glyph-name="less" unicode="&#x3c;" horiz-adv-x="1343" 
d="M1218 1436v-225l-919 -464l919 -464v-230l-1130 572v244z" />
    <glyph glyph-name="equal" unicode="=" horiz-adv-x="1277" 
d="M229 806v204h819v-204h-819zM229 374v203h819v-203h-819z" />
    <glyph glyph-name="greater" unicode="&#x3e;" horiz-adv-x="1343" 
d="M125 1436l1131 -567v-244l-1131 -572v230l919 464l-919 464v225z" />
    <glyph glyph-name="question" unicode="?" horiz-adv-x="1090" 
d="M423 464l21 123c68 383 415 248 467 547c22 125 -66 208 -206 208c-159 0 -293 -116 -323 -267l-217 17c48 272 274 458 544 458c281 0 460 -195 414 -452c-67 -380 -417 -298 -457 -527l-19 -107h-224zM473 -20c-90 0 -151 74 -135 165c11 72 81 130 154 130
c90 0 150 -76 135 -166c-13 -72 -81 -129 -154 -129z" />
    <glyph glyph-name="at" unicode="@" horiz-adv-x="1750" 
d="M1033 1286c385 0 699 -233 620 -681c-60 -342 -281 -487 -469 -487c-120 0 -177 64 -181 134c-37 -55 -133 -133 -262 -133c-196 0 -288 152 -252 356c38 216 225 449 472 449c119 0 194 -63 209 -128l1 8l35 91l153 -8c-51 -137 -99 -263 -154 -415
c-44 -113 -71 -202 17 -202c111 0 232 141 270 356c60 335 -146 504 -455 504c-375 0 -669 -276 -731 -634c-66 -369 154 -586 494 -586c204 0 362 59 495 152l84 -135c-178 -122 -385 -173 -588 -173c-467 0 -741 323 -662 781c78 435 478 751 904 751zM1075 589
c20 97 9 190 -106 190c-156 0 -283 -185 -311 -346c-12 -67 -6 -168 106 -168c175 0 284 190 311 324z" />
    <glyph glyph-name="A" unicode="A" horiz-adv-x="1408" 
d="M1039 0l-43 240h-667l-128 -240h-284l873 1536h195l334 -1536h-280zM448 462h509l-128 714z" />
    <glyph glyph-name="B" unicode="B" horiz-adv-x="1381" 
d="M1327 1100c-27 -157 -117 -263 -247 -322c148 -58 229 -188 194 -384c-43 -244 -255 -394 -499 -394h-667l270 1536h558c264 0 438 -172 391 -436zM1077 1104c22 119 -55 199 -183 199h-310l-73 -425h298c134 0 245 96 268 226zM1035 454c19 111 -47 204 -194 204h-367
l-73 -425h365c135 0 246 91 269 221z" />
    <glyph glyph-name="C" unicode="C" horiz-adv-x="1510" 
d="M797 -20c-445 0 -741 361 -663 807c75 427 480 769 907 769c245 0 444 -109 561 -282l-218 -141c-74 113 -199 176 -353 176c-307 0 -592 -247 -644 -560c-48 -288 132 -513 422 -513c163 0 321 69 440 181l180 -170c-170 -163 -397 -267 -632 -267z" />
    <glyph glyph-name="D" unicode="D" horiz-adv-x="1514" 
d="M108 0l270 1536h456c465 0 723 -353 646 -786c-73 -415 -435 -750 -900 -750h-472zM405 237h191c312 0 572 236 627 549c52 294 -111 513 -423 513h-209z" />
    <glyph glyph-name="E" unicode="E" horiz-adv-x="1195" 
d="M1237 1303h-644l-73 -418h558l-42 -234h-558l-73 -418h644l-40 -233h-901l270 1536h901z" />
    <glyph glyph-name="F" unicode="F" horiz-adv-x="1150" 
d="M1237 1303h-644l-73 -418h558l-42 -234h-557l-114 -651h-257l270 1536h901z" />
    <glyph glyph-name="G" unicode="G" horiz-adv-x="1636" 
d="M893 619l39 223h639l-147 -842h-193l-7 127c-130 -104 -283 -147 -425 -147c-446 0 -742 359 -663 806c75 428 479 770 908 770c230 0 436 -110 551 -269l-207 -148c-78 112 -210 171 -354 171c-310 0 -590 -243 -646 -560c-52 -298 128 -524 421 -524
c161 0 323 64 436 183l36 210h-388z" />
    <glyph glyph-name="H" unicode="H" horiz-adv-x="1624" 
d="M1362 1536h257l-271 -1536h-256l114 650h-727l-114 -650h-257l270 1536h257l-114 -648h727z" />
    <glyph glyph-name="I" unicode="I" horiz-adv-x="640" 
d="M108 0l270 1536h257l-270 -1536h-257z" />
    <glyph glyph-name="J" unicode="J" horiz-adv-x="1060" 
d="M301 -20c-149 0 -265 38 -351 98l138 207c57 -45 146 -68 220 -68c182 0 308 139 338 319l177 1000h257l-188 -1063c-51 -289 -280 -493 -591 -493z" />
    <glyph glyph-name="K" unicode="K" horiz-adv-x="1421" 
d="M1567 1536l-788 -759l533 -777h-328l-490 734l-129 -734h-257l270 1536h257l-126 -715l725 715h333z" />
    <glyph glyph-name="L" unicode="L" horiz-adv-x="1020" 
d="M408 237h536l-42 -237h-794l270 1536h257z" />
    <glyph glyph-name="M" unicode="M" horiz-adv-x="1888" 
d="M1716 1536h187l-270 -1536h-255l172 986l-658 -819l-373 823l-174 -990h-256l270 1536h185l419 -923z" />
    <glyph glyph-name="N" unicode="N" horiz-adv-x="1599" 
d="M1358 1536h257l-271 -1536h-135l-682 1038l-182 -1038h-256l270 1536h134l683 -1035z" />
    <glyph glyph-name="O" unicode="O" horiz-adv-x="1739" 
d="M798 -20c-445 0 -741 360 -663 806c75 427 480 770 908 770c445 0 741 -360 663 -806c-75 -427 -480 -770 -908 -770zM815 230c309 0 587 245 639 556c48 292 -134 520 -427 520c-309 0 -588 -245 -640 -556c-48 -292 135 -520 428 -520z" />
    <glyph glyph-name="P" unicode="P" horiz-adv-x="1377" 
d="M1023 1536c282 0 450 -208 404 -464c-43 -241 -262 -422 -540 -422h-410l-112 -650h-257l270 1536h645zM1183 1095c20 120 -58 208 -188 208h-405l-74 -429h380c144 0 262 78 287 221z" />
    <glyph glyph-name="Q" unicode="Q" horiz-adv-x="1784" 
d="M1043 1556c445 0 741 -360 663 -806c-30 -169 -111 -325 -226 -452l160 -181l-177 -155l-154 185c-151 -105 -329 -167 -511 -167c-445 0 -741 360 -663 806c75 427 480 770 908 770zM1171 649l149 -169c70 88 119 192 138 306c49 292 -134 520 -431 520
c-313 0 -593 -245 -644 -556c-48 -292 135 -520 432 -520c122 0 239 37 339 101l-146 175z" />
    <glyph glyph-name="R" unicode="R" horiz-adv-x="1424" 
d="M1039 1536c266 0 434 -208 388 -464c-36 -201 -194 -360 -390 -407l230 -665h-271l-220 650h-299l-112 -650h-257l270 1536h661zM1183 1096c20 121 -46 207 -184 207h-409l-74 -429h358c161 0 284 80 309 222z" />
    <glyph glyph-name="S" unicode="S" horiz-adv-x="1174" 
d="M529 -20c-255 0 -435 136 -520 262l196 164c75 -132 177 -204 324 -204c160 0 284 89 308 228c25 141 -108 193 -262 267c-183 83 -387 176 -339 457c46 255 276 402 519 402c213 0 350 -101 444 -224l-174 -144c-91 125 -181 151 -274 151c-124 0 -240 -74 -261 -200
c-23 -129 95 -183 235 -245c205 -85 417 -180 362 -487c-49 -280 -300 -427 -558 -427z" />
    <glyph glyph-name="T" unicode="T" horiz-adv-x="1132" 
d="M1285 1536l-43 -237h-403l-229 -1299h-256l229 1299h-405l42 237h1065z" />
    <glyph glyph-name="U" unicode="U" horiz-adv-x="1538" 
d="M695 -20c-357 0 -586 230 -531 543l180 1013h256l-174 -984c-35 -204 84 -335 277 -335c212 0 397 148 434 352l170 967h257l-183 -1030c-55 -313 -345 -526 -686 -526z" />
    <glyph glyph-name="V" unicode="V" horiz-adv-x="1391" 
d="M1297 1536h285l-875 -1536h-189l-332 1536h273l219 -1137z" />
    <glyph glyph-name="W" unicode="W" horiz-adv-x="2054" 
d="M1963 1536h281l-860 -1536h-209l-130 573l-332 -573h-213l-314 1536h271l217 -1198l301 545l-148 653h257l67 -334l185 334h268l-386 -665l108 -533z" />
    <glyph glyph-name="X" unicode="X" horiz-adv-x="1398" 
d="M1536 1536l-643 -759l387 -777h-292l-264 574l-468 -574h-308l671 794l-371 742h293l247 -538l444 538h304z" />
    <glyph glyph-name="Y" unicode="Y" horiz-adv-x="1357" 
d="M1530 1536l-683 -815l-126 -721h-257l128 728l-393 808h295l264 -575l470 575h302z" />
    <glyph glyph-name="Z" unicode="Z" horiz-adv-x="1349" 
d="M1492 1536l-6 -50l-1071 -1249h814l-42 -237h-1237l6 56l1065 1243h-766l42 237h1195z" />
    <glyph glyph-name="bracketleft" unicode="[" horiz-adv-x="695" 
d="M7 -512l412 2329h481l-32 -179h-264l-348 -1971h265l-33 -179h-481z" />
    <glyph glyph-name="backslash" unicode="\" horiz-adv-x="1257" 
d="M907 -381l-719 2089h230l716 -2089h-227z" />
    <glyph glyph-name="bracketright" unicode="]" horiz-adv-x="695" 
d="M-145 -512l32 179h265l347 1971h-264l32 179h480l-412 -2329h-480z" />
    <glyph glyph-name="asciicircum" unicode="^" horiz-adv-x="1497" 
d="M1412 406h-201l-307 937l-637 -937h-216l770 1130h222z" />
    <glyph glyph-name="underscore" unicode="_" horiz-adv-x="1440" 
d="M82 -236l32 185h1024l-32 -185h-1024z" />
    <glyph glyph-name="grave" unicode="`" horiz-adv-x="499" 
d="M498 1135l-299 289l145 139l252 -331z" />
    <glyph glyph-name="a" unicode="a" horiz-adv-x="1256" 
d="M940 963h248l-168 -963h-232l15 125c-82 -84 -194 -144 -340 -144c-261 0 -445 223 -393 520c49 278 293 483 537 483c154 0 253 -65 310 -157zM532 202c164 0 313 133 338 299c24 147 -72 262 -219 262c-162 0 -312 -133 -338 -298c-23 -147 74 -263 219 -263z" />
    <glyph glyph-name="b" unicode="b" horiz-adv-x="1255" 
d="M793 984c260 0 445 -223 393 -519c-49 -279 -293 -484 -537 -484c-162 0 -262 71 -317 168l-33 -149h-231l270 1536h248l-118 -683c81 78 189 131 325 131zM943 501c24 147 -73 262 -220 262c-162 0 -312 -133 -338 -298c-23 -147 74 -263 220 -263
c163 0 313 133 338 299z" />
    <glyph glyph-name="c" unicode="c" horiz-adv-x="1086" 
d="M501 -18c-297 0 -486 229 -436 517c48 270 297 482 579 482c217 0 375 -129 421 -308l-222 -73c-28 97 -107 155 -213 155c-165 0 -308 -128 -332 -292c-22 -145 69 -255 217 -255c123 0 231 75 287 172l197 -107c-106 -179 -297 -291 -498 -291z" />
    <glyph glyph-name="d" unicode="d" horiz-adv-x="1258" 
d="M1042 1536h249l-271 -1536h-232l15 125c-82 -84 -194 -144 -340 -144c-261 0 -445 223 -393 520c49 278 293 483 537 483c155 0 254 -66 312 -159zM532 202c164 0 313 133 338 299c24 147 -72 262 -219 262c-162 0 -312 -133 -338 -298c-23 -147 74 -263 219 -263z" />
    <glyph glyph-name="e" unicode="e" horiz-adv-x="1127" 
d="M645 982c286 0 476 -207 424 -499l-7 -45h-762c-16 -157 70 -255 210 -255c107 0 209 55 277 139l195 -93c-107 -158 -278 -247 -472 -247c-314 0 -493 230 -443 516c47 270 293 484 578 484zM646 784c-126 0 -233 -70 -294 -179h488c-13 102 -81 179 -194 179z" />
    <glyph glyph-name="f" unicode="f" horiz-adv-x="706" 
d="M743 1339c-83 0 -152 -65 -167 -154l-39 -222h238l-35 -201h-238l-134 -762h-248l134 762h-163l35 201h163l47 268c36 208 179 329 373 329c75 0 133 -16 156 -35l-25 -217c-25 23 -65 31 -97 31z" />
    <glyph glyph-name="g" unicode="g" horiz-adv-x="1262" 
d="M943 963h250l-166 -947c-57 -322 -309 -516 -604 -516c-179 0 -359 86 -444 244l169 136c62 -109 162 -163 270 -163c173 0 330 130 362 315l13 79c-77 -76 -181 -130 -317 -130c-277 0 -459 223 -407 520c50 279 291 483 549 483c153 0 249 -64 303 -156zM531 202
c162 0 314 135 338 299c24 147 -74 262 -219 262c-163 0 -312 -133 -338 -298c-22 -146 72 -263 219 -263z" />
    <glyph glyph-name="h" unicode="h" horiz-adv-x="1128" 
d="M729 981c200 0 332 -166 298 -367l-108 -614h-248l102 585c20 118 -44 180 -134 180c-106 0 -194 -77 -219 -171l-104 -594h-248l269 1536h248l-114 -652c75 64 166 97 258 97z" />
    <glyph glyph-name="i" unicode="i" horiz-adv-x="549" 
d="M407 1132c-87 0 -148 73 -134 162c13 71 80 125 152 125c86 0 148 -71 131 -161c-12 -70 -78 -126 -149 -126zM68 0l168 963h246l-168 -963h-246z" />
    <glyph glyph-name="j" unicode="j" horiz-adv-x="554" 
d="M409 1132c-88 0 -149 73 -135 162c13 71 80 125 153 125c85 0 147 -71 130 -161c-12 -70 -78 -126 -148 -126zM-16 -481l254 1444h247l-254 -1444h-247z" />
    <glyph glyph-name="k" unicode="k" horiz-adv-x="1117" 
d="M1158 963l-498 -448l375 -515h-310l-327 465l-82 -465h-248l270 1536h248l-172 -978l426 405h318z" />
    <glyph glyph-name="l" unicode="l" horiz-adv-x="553" 
d="M68 0l270 1536h248l-270 -1536h-248z" />
    <glyph glyph-name="m" unicode="m" horiz-adv-x="1675" 
d="M1266 981c213 0 342 -170 306 -379l-105 -602h-248l102 582c20 112 -36 178 -121 178c-101 0 -179 -76 -204 -166l-105 -594h-248l104 587c19 107 -36 173 -125 173c-103 0 -182 -82 -204 -177l-102 -583h-248l168 963h248l-15 -86c66 65 148 104 236 104
c110 0 205 -58 256 -149c77 92 185 149 305 149z" />
    <glyph glyph-name="n" unicode="n" horiz-adv-x="1128" 
d="M729 981c200 0 332 -166 298 -367l-108 -614h-248l102 585c20 118 -44 180 -134 180c-108 0 -198 -80 -220 -177l-103 -588h-248l168 963h248l-14 -79c76 64 168 97 259 97z" />
    <glyph glyph-name="o" unicode="o" horiz-adv-x="1145" 
d="M501 -18c-297 0 -486 230 -436 517c47 269 297 482 579 482c296 0 485 -230 435 -518c-47 -268 -298 -481 -578 -481zM507 205c157 0 308 127 338 294c27 149 -66 259 -207 259c-160 0 -310 -126 -339 -295c-27 -150 64 -258 208 -258z" />
    <glyph glyph-name="p" unicode="p" horiz-adv-x="1258" 
d="M795 982c261 0 445 -223 392 -520c-48 -278 -292 -484 -536 -484c-155 0 -254 66 -312 160l-109 -630h-248l256 1455h231l-15 -126c82 85 195 145 341 145zM944 498c21 146 -79 263 -224 263c-163 0 -310 -134 -332 -299c-21 -147 78 -263 224 -263
c163 0 310 133 332 299z" />
    <glyph glyph-name="q" unicode="q" horiz-adv-x="1256" 
d="M956 963h232l-256 -1455h-248l104 601c-81 -77 -189 -131 -325 -131c-261 0 -445 223 -393 520c48 278 293 484 537 484c162 0 261 -71 317 -168zM532 199c163 0 313 133 338 299c23 146 -73 263 -219 263c-163 0 -313 -134 -338 -299c-24 -147 73 -263 219 -263z" />
    <glyph glyph-name="r" unicode="r" horiz-adv-x="791" 
d="M714 982c72 0 118 -25 154 -52l-110 -203c-34 19 -68 29 -103 29c-118 0 -226 -109 -259 -300l-80 -456h-248l168 963h249l-30 -145c56 92 147 164 259 164z" />
    <glyph glyph-name="s" unicode="s" horiz-adv-x="920" 
d="M390 -19c-187 0 -314 70 -395 129l130 165c62 -56 170 -100 265 -100c101 0 178 49 191 124c13 71 -75 79 -186 117c-140 36 -295 94 -260 291c33 186 218 275 415 275c136 0 254 -43 339 -104l-128 -149c-69 49 -163 73 -229 73c-92 0 -159 -41 -170 -105
c-13 -69 90 -82 192 -115c168 -40 294 -108 259 -302c-34 -195 -199 -299 -423 -299z" />
    <glyph glyph-name="t" unicode="t" horiz-adv-x="680" 
d="M736 963l-35 -201h-186l-134 -762h-249l133 762h-189l35 201h189l61 346h250l-61 -346h186z" />
    <glyph glyph-name="u" unicode="u" horiz-adv-x="1087" 
d="M468 -19c-271 0 -404 156 -364 388l104 594h248l-103 -589c-20 -119 32 -175 120 -175c107 0 200 73 221 192l99 572h249l-107 -611c-41 -232 -212 -371 -467 -371z" />
    <glyph glyph-name="v" unicode="v" horiz-adv-x="1019" 
d="M830 963h269l-588 -963h-173l-247 963h261l126 -636z" />
    <glyph glyph-name="w" unicode="w" horiz-adv-x="1543" 
d="M1364 963h258l-508 -963h-202l-113 636l-341 -636h-202l-164 963h251l89 -634l339 634h165l112 -638z" />
    <glyph glyph-name="x" unicode="x" horiz-adv-x="1140" 
d="M-72 0l493 481l-315 482h289l196 -315l315 315h306l-494 -483l316 -480h-291l-195 313l-312 -313h-308z" />
    <glyph glyph-name="y" unicode="y" horiz-adv-x="1051" 
d="M859 963h267l-839 -1455h-262l289 506l-222 949h269l127 -700z" />
    <glyph glyph-name="z" unicode="z" horiz-adv-x="974" 
d="M1006 963l-620 -763h478l-35 -200h-872l617 762h-450l35 201h847z" />
    <glyph glyph-name="braceleft" unicode="{" horiz-adv-x="646" 
d="M309 -501c-166 0 -255 142 -225 309l84 481c36 206 28 243 -91 298l11 159c139 55 179 105 216 311l85 480c30 169 149 292 315 292h121l-34 -194h-55c-70 0 -125 -59 -141 -158l-79 -450c-31 -174 -71 -294 -260 -369c148 -70 159 -200 129 -374l-80 -452
c-18 -101 -6 -138 71 -138h72l-35 -195h-104z" />
    <glyph glyph-name="bar" unicode="|" horiz-adv-x="619" 
d="M92 -307l325 1843h157l-325 -1843h-157z" />
    <glyph glyph-name="braceright" unicode="}" horiz-adv-x="647" 
d="M-115 -501l35 195h55c76 0 122 54 141 155l79 452c31 174 70 294 260 370c-150 69 -160 199 -129 373l80 450c16 99 -1 141 -71 141h-72l33 194h105c166 0 255 -140 225 -309l-85 -480c-36 -206 -26 -245 93 -299l-11 -159c-141 -56 -181 -104 -217 -310l-84 -481
c-30 -167 -150 -292 -315 -292h-122z" />
    <glyph glyph-name="asciitilde" unicode="~" horiz-adv-x="1384" 
d="M902 323c-157 0 -243 106 -293 157c-42 44 -73 61 -108 61c-95 0 -141 -97 -140 -201h-191c-12 231 118 391 335 391c120 0 188 -51 262 -147c30 -37 62 -75 118 -75c78 0 143 75 135 198h189c20 -218 -113 -384 -307 -384z" />
    <glyph glyph-name="exclamdown" unicode="&#xa1;" horiz-adv-x="665" 
d="M396 749c-88 0 -151 74 -134 166c11 71 82 129 153 129c90 0 151 -75 136 -165c-13 -73 -82 -130 -155 -130zM32 -512l186 1049h249l-187 -1049h-248z" />
    <glyph glyph-name="cent" unicode="&#xa2;" horiz-adv-x="1202" 
d="M850 1436l-46 -262h-149l47 262h148zM564 325c123 0 231 75 287 172l197 -107c-95 -160 -257 -266 -433 -287l-19 -105h-148l19 107c-248 39 -398 251 -353 511c48 270 297 482 579 482c217 0 375 -129 421 -308l-222 -73c-28 97 -107 155 -213 155
c-165 0 -308 -128 -332 -292c-22 -145 69 -255 217 -255z" />
    <glyph glyph-name="sterling" unicode="&#xa3;" horiz-adv-x="1535" 
d="M606 641l-74 -418h727l-38 -223h-1133l34 192l167 19l76 430h-165l37 206h164l35 197c52 303 293 512 582 512c223 0 408 -157 435 -366l-239 -81c3 123 -93 206 -206 206c-172 0 -304 -119 -334 -288l-32 -180h381l-37 -206h-380z" />
    <glyph glyph-name="currency" unicode="&#xa4;" horiz-adv-x="1382" 
d="M690 267c-93 0 -185 28 -263 80l-109 -109l-131 139l107 106c-54 77 -80 168 -80 260s26 184 80 261l-105 104l131 139l109 -110c78 55 171 83 264 83c91 0 181 -28 259 -81l106 106l135 -133l-106 -106c54 -78 80 -170 80 -263c0 -91 -26 -184 -80 -263l105 -103
l-132 -139l-108 109c-78 -52 -170 -80 -262 -80zM690 454c163 0 289 133 289 290c0 159 -131 287 -289 287c-161 0 -289 -132 -289 -292c0 -163 133 -285 289 -285z" />
    <glyph glyph-name="yen" unicode="&#xa5;" horiz-adv-x="1583" 
d="M1524 1536l-658 -786h357l-46 -178h-362l-27 -155h347l-44 -170h-333l-43 -247h-257l43 247h-393l44 170h379l27 155h-365l45 178h337l-382 786h295l264 -575l470 575h302z" />
    <glyph glyph-name="brokenbar" unicode="&#xa6;" horiz-adv-x="619" 
d="M286 799l131 737h157l-131 -737h-157zM92 -307l131 737h157l-131 -737h-157z" />
    <glyph glyph-name="section" unicode="&#xa7;" horiz-adv-x="1217" 
d="M433 -620c-188 6 -332 105 -406 226l195 134c48 -89 127 -132 223 -136c124 -3 244 62 271 195c66 312 -685 204 -570 754c28 119 91 219 194 298c-67 63 -114 161 -82 315c56 264 290 400 523 392c187 -6 327 -105 402 -226l-194 -134c-48 89 -128 132 -221 136
c-125 3 -245 -62 -273 -195c-67 -312 684 -204 570 -754c-27 -120 -90 -220 -193 -298c65 -65 111 -161 80 -315c-56 -264 -288 -400 -519 -392zM653 228c88 27 159 105 178 199c32 153 -121 208 -272 283c-90 -28 -161 -104 -178 -199c-34 -154 119 -208 272 -283z" />
    <glyph glyph-name="dieresis" unicode="&#xa8;" horiz-adv-x="902" 
d="M380 1135c-81 0 -139 69 -124 152c11 66 74 116 138 116c82 0 140 -67 125 -152c-12 -64 -74 -116 -139 -116zM785 1135c-81 0 -139 69 -124 152c11 66 74 116 139 116c83 0 139 -67 124 -152c-12 -64 -72 -116 -139 -116z" />
    <glyph glyph-name="copyright" unicode="&#xa9;" horiz-adv-x="1811" 
d="M906 -20c-435 0 -789 354 -789 788s354 788 789 788c434 0 788 -354 788 -788s-354 -788 -788 -788zM906 116c365 0 653 288 653 652s-288 652 -653 652s-652 -288 -652 -652s287 -652 652 -652zM909 330c-243 0 -438 195 -438 438c0 244 195 438 438 438
c124 0 248 -57 326 -147l-107 -89c-54 62 -134 98 -219 98c-166 0 -297 -129 -297 -300c0 -169 131 -298 297 -298c85 0 165 36 219 99l107 -91c-78 -90 -202 -148 -326 -148z" />
    <glyph glyph-name="ordfeminine" unicode="&#xaa;" horiz-adv-x="894" 
d="M789 1536h140l-109 -614h-133l21 110c-60 -75 -145 -123 -243 -123c-177 0 -296 150 -263 338c29 167 181 301 342 301c106 0 183 -53 221 -134zM504 1039c113 0 216 94 230 208c12 94 -55 169 -151 169c-113 0 -216 -92 -230 -205c-12 -95 55 -172 151 -172z" />
    <glyph glyph-name="guillemotleft" unicode="&#xab;" horiz-adv-x="1062" 
d="M294 104l-249 377l374 377h209l-382 -377l241 -377h-193zM728 104l-248 377l374 377h211l-381 -377l240 -377h-196z" />
    <glyph glyph-name="logicalnot" unicode="&#xac;" horiz-adv-x="1629" 
d="M1220 209v524h-1112v182h1292v-706h-180z" />
    <glyph glyph-name="uni00AD" unicode="&#xad;" horiz-adv-x="1013" 
d="M130 381l34 193h717l-34 -193h-717z" />
    <glyph glyph-name="registered" unicode="&#xae;" horiz-adv-x="1811" 
d="M906 1556c434 0 788 -354 788 -788s-354 -788 -788 -788c-435 0 -789 354 -789 788s354 788 789 788zM906 116c365 0 653 288 653 652s-288 652 -653 652s-652 -288 -652 -652s287 -652 652 -652zM1257 965c0 -111 -63 -202 -155 -243l183 -418h-163l-167 394h-179v-394
h-151v929h363c151 0 269 -119 269 -268zM776 1096v-265h192c80 0 142 49 142 131c0 80 -62 134 -142 134h-192z" />
    <glyph glyph-name="macron" unicode="&#xaf;" horiz-adv-x="931" 
d="M279 1218l27 153h634l-27 -153h-634z" />
    <glyph glyph-name="degree" unicode="&#xb0;" horiz-adv-x="929" 
d="M464 1079c-171 0 -308 138 -308 307c0 171 137 308 308 308c169 0 307 -137 307 -308c0 -169 -138 -307 -307 -307zM464 1201c103 0 185 82 185 185c0 104 -82 186 -185 186c-104 0 -186 -82 -186 -186c0 -103 82 -185 186 -185z" />
    <glyph glyph-name="uni00B2" unicode="&#xb2;" horiz-adv-x="710" 
d="M762 1257c-24 -143 -138 -289 -357 -472h302l-30 -171h-625l6 77c447 385 514 494 530 585c17 91 -36 107 -82 106c-92 -2 -145 -72 -155 -138l-181 17c28 178 167 289 339 289c178 0 283 -116 253 -293z" />
    <glyph glyph-name="uni00B3" unicode="&#xb3;" horiz-adv-x="692" 
d="M732 1281c-12 -68 -49 -123 -104 -160c68 -53 104 -137 85 -240c-28 -155 -176 -279 -344 -279c-176 0 -297 122 -270 281l184 -15c-10 -59 30 -91 85 -91c81 0 154 65 168 147c12 63 -27 93 -97 93h-98l28 163h69c58 0 118 55 130 119c8 48 -23 75 -69 75
c-62 0 -113 -41 -121 -87l-179 20c26 147 150 241 297 241c159 0 263 -114 236 -267z" />
    <glyph glyph-name="acute" unicode="&#xb4;" horiz-adv-x="502" 
d="M246 1131l-79 101l359 331l105 -139z" />
    <glyph glyph-name="uni00B5" unicode="&#xb5;" horiz-adv-x="1218" 
d="M902 963h247l-168 -963h-247l19 107c-82 -78 -186 -125 -295 -125c-78 0 -146 23 -201 63l-92 -526h-181l254 1444h248l-100 -573c-20 -112 47 -192 151 -192c128 0 249 97 268 209z" />
    <glyph glyph-name="paragraph" unicode="&#xb6;" horiz-adv-x="1173" 
d="M353 -307l204 1157h-40c-225 0 -350 129 -309 362c38 214 188 324 413 324h186l-326 -1843h-128zM673 -307l326 1843h129l-326 -1843h-129z" />
    <glyph glyph-name="periodcentered" unicode="&#xb7;" horiz-adv-x="595" 
d="M337 616c-72 0 -126 61 -113 139c11 56 67 104 123 104c72 0 128 -66 115 -140c-11 -59 -69 -103 -125 -103z" />
    <glyph glyph-name="cedilla" unicode="&#xb8;" horiz-adv-x="598" 
d="M142 -532c-108 0 -206 73 -226 156l116 25c16 -36 63 -57 99 -57c60 0 120 51 131 114c12 72 -56 90 -162 47l-96 62l129 189h134l-102 -128c139 25 239 -69 216 -206c-21 -114 -125 -202 -239 -202z" />
    <glyph glyph-name="uni00B9" unicode="&#xb9;" horiz-adv-x="462" 
d="M181 614l132 750h-130l29 172h313l-161 -922h-183z" />
    <glyph glyph-name="ordmasculine" unicode="&#xba;" horiz-adv-x="801" 
d="M491 909c-196 0 -326 150 -294 338c30 167 193 301 373 301c198 0 329 -151 296 -337c-30 -169 -194 -302 -375 -302zM492 1039c113 0 215 94 229 208c12 94 -55 169 -150 169c-113 0 -217 -92 -231 -205c-12 -95 56 -172 152 -172z" />
    <glyph glyph-name="guillemotright" unicode="&#xbb;" horiz-adv-x="1059" 
d="M-7 104l382 377l-241 377h193l249 -377l-374 -377h-209zM428 104l381 377l-240 377h196l248 -377l-374 -377h-211z" />
    <glyph glyph-name="onequarter" unicode="&#xbc;" horiz-adv-x="1756" 
d="M1382 1536h199l-1341 -1536h-202zM395 614h-182l134 751h-131l30 171h313zM1655 922l-98 -556h79l-30 -171h-79l-34 -195h-183l34 195h-438l18 115l487 612h244zM1169 366h205l62 354z" />
    <glyph glyph-name="onehalf" unicode="&#xbd;" horiz-adv-x="1772" 
d="M1382 1536h199l-1341 -1536h-202zM395 614h-182l134 751h-131l30 171h313zM1678 662c-13 -162 -153 -314 -393 -491h337l-29 -171h-625l6 77c446 385 520 494 530 585c10 81 -36 107 -93 106c-81 -2 -135 -72 -144 -138l-181 17c27 178 155 289 337 289
c163 0 272 -107 255 -274z" />
    <glyph glyph-name="threequarters" unicode="&#xbe;" horiz-adv-x="1948" 
d="M737 881c-28 -155 -176 -279 -345 -279c-175 0 -297 122 -269 282l184 -16c-10 -59 30 -90 84 -90c82 0 155 64 169 146c12 63 -27 93 -98 93h-97l27 163h70c58 0 118 55 129 120c8 47 -23 75 -70 75c-61 0 -111 -41 -120 -88l-179 20c27 148 151 241 297 241
c160 0 264 -114 237 -267c-12 -68 -50 -123 -104 -160c67 -53 103 -137 85 -240zM1601 1536h200l-1341 -1536h-202zM1874 922l-97 -556h79l-31 -171h-78l-34 -195h-184l34 195h-437l18 115l487 612h243zM1389 366h204l62 353z" />
    <glyph glyph-name="questiondown" unicode="&#xbf;" horiz-adv-x="1089" 
d="M609 751c-90 0 -151 76 -134 166c12 72 80 130 153 130c90 0 152 -75 136 -166c-13 -72 -82 -130 -155 -130zM393 -524c-282 0 -460 195 -416 452c68 380 418 298 459 527l19 107h224l-22 -122c-68 -384 -415 -249 -468 -548c-21 -125 68 -208 207 -208
c161 0 293 116 324 267l216 -17c-49 -272 -274 -458 -543 -458z" />
    <glyph glyph-name="Agrave" unicode="&#xc0;" horiz-adv-x="1408" 
d="M1025 1744l-98 -97l-299 289l145 139zM1039 0l-43 240h-667l-128 -240h-284l873 1536h195l334 -1536h-280zM448 462h509l-128 714z" />
    <glyph glyph-name="Aacute" unicode="&#xc1;" horiz-adv-x="1408" 
d="M1277 1936l-385 -293l-79 101l359 331zM1039 0l-43 240h-667l-128 -240h-284l873 1536h195l334 -1536h-280zM448 462h509l-128 714z" />
    <glyph glyph-name="Acircumflex" unicode="&#xc2;" horiz-adv-x="1408" 
d="M954 1860l-252 -219l-102 67l277 299h184l179 -299l-115 -67zM1039 0l-43 240h-667l-128 -240h-284l873 1536h195l334 -1536h-280zM448 462h509l-128 714z" />
    <glyph glyph-name="Atilde" unicode="&#xc3;" horiz-adv-x="1408" 
d="M814 1796c-67 0 -114 -76 -130 -161l-137 17c29 164 123 290 268 290c92 0 131 -53 163 -104c20 -30 39 -59 83 -59c63 0 107 62 124 161l137 -18c-31 -171 -124 -289 -261 -289c-102 0 -141 55 -170 104c-22 35 -39 59 -77 59zM790 1536h195l334 -1536h-280l-43 240
h-667l-128 -240h-284zM448 462h509l-128 714z" />
    <glyph glyph-name="Adieresis" unicode="&#xc4;" horiz-adv-x="1408" 
d="M724 1647c-80 0 -139 68 -125 152c12 65 76 116 140 116c81 0 140 -68 125 -153c-12 -64 -75 -115 -140 -115zM1130 1647c-82 0 -140 68 -125 152c12 65 74 116 139 116c83 0 139 -68 125 -153c-12 -64 -73 -115 -139 -115zM1039 0l-43 240h-667l-128 -240h-284l873 1536
h195l334 -1536h-280zM448 462h509l-128 714z" />
    <glyph glyph-name="Aring" unicode="&#xc5;" horiz-adv-x="1408" 
d="M931 1665c-137 0 -232 115 -208 251c21 118 136 214 256 214c135 0 226 -113 202 -250c-20 -118 -132 -215 -250 -215zM836 1880c-4 -61 35 -102 93 -102c75 0 140 58 145 138c6 55 -36 105 -94 105c-75 0 -138 -67 -144 -141zM1039 0l-43 240h-667l-128 -240h-284
l873 1536h195l334 -1536h-280zM448 462h509l-128 714z" />
    <glyph glyph-name="AE" unicode="&#xc6;" horiz-adv-x="1903" 
d="M1943 1300h-643l-74 -414h557l-41 -234h-557l-73 -416h644l-42 -236h-886l60 342h-462l-191 -342h-294l887 1536h1157zM926 557l134 761h-87l-426 -761h379z" />
    <glyph glyph-name="Ccedilla" unicode="&#xc7;" horiz-adv-x="1503" 
d="M1429 247c-163 -156 -378 -258 -602 -266l-83 -105c139 25 239 -69 216 -206c-21 -114 -125 -202 -239 -202c-108 0 -206 73 -226 156l116 25c16 -36 63 -57 99 -57c60 0 120 51 131 114c12 72 -56 90 -162 47l-96 62l117 171c-390 49 -638 388 -566 801
c75 427 480 769 907 769c245 0 444 -109 561 -282l-218 -141c-74 113 -199 176 -353 176c-307 0 -592 -247 -644 -560c-48 -288 132 -513 422 -513c163 0 321 69 440 181z" />
    <glyph glyph-name="Egrave" unicode="&#xc8;" horiz-adv-x="1195" 
d="M963 1744l-98 -97l-299 289l145 139zM1237 1303h-644l-73 -418h558l-42 -234h-558l-73 -418h644l-40 -233h-901l270 1536h901z" />
    <glyph glyph-name="Eacute" unicode="&#xc9;" horiz-adv-x="1195" 
d="M1215 1936l-385 -293l-79 101l359 331zM1237 1303h-644l-73 -418h558l-42 -234h-558l-73 -418h644l-40 -233h-901l270 1536h901z" />
    <glyph glyph-name="Ecircumflex" unicode="&#xca;" horiz-adv-x="1195" 
d="M892 1860l-252 -219l-102 67l277 299h184l179 -299l-115 -67zM1237 1303h-644l-73 -418h558l-42 -234h-558l-73 -418h644l-40 -233h-901l270 1536h901z" />
    <glyph glyph-name="Edieresis" unicode="&#xcb;" horiz-adv-x="1195" 
d="M662 1647c-80 0 -139 68 -125 152c12 65 76 116 140 116c81 0 140 -68 125 -153c-12 -64 -75 -115 -140 -115zM1068 1647c-82 0 -140 68 -125 152c12 65 74 116 139 116c83 0 139 -68 125 -153c-12 -64 -73 -115 -139 -115zM1237 1303h-644l-73 -418h558l-42 -234h-558
l-73 -418h644l-40 -233h-901l270 1536h901z" />
    <glyph glyph-name="Igrave" unicode="&#xcc;" horiz-adv-x="640" 
d="M541 1647l-299 289l145 139l252 -331zM108 0l270 1536h257l-270 -1536h-257z" />
    <glyph glyph-name="Iacute" unicode="&#xcd;" horiz-adv-x="640" 
d="M506 1643l-79 101l359 331l105 -139zM108 0l270 1536h257l-270 -1536h-257z" />
    <glyph glyph-name="Icircumflex" unicode="&#xce;" horiz-adv-x="640" 
d="M316 1641l-102 67l277 299h184l179 -299l-115 -67l-171 219zM108 0l270 1536h257l-270 -1536h-257z" />
    <glyph glyph-name="Idieresis" unicode="&#xcf;" horiz-adv-x="640" 
d="M338 1647c-80 0 -139 68 -125 152c12 65 76 116 140 116c81 0 140 -68 125 -153c-12 -64 -75 -115 -140 -115zM744 1647c-82 0 -140 68 -125 152c12 65 74 116 139 116c83 0 139 -68 125 -153c-12 -64 -73 -115 -139 -115zM108 0l270 1536h257l-270 -1536h-257z" />
    <glyph glyph-name="Eth" unicode="&#xd0;" horiz-adv-x="1514" 
d="M834 1536c465 0 723 -353 646 -786c-73 -415 -435 -750 -900 -750h-472l120 683h-151l28 158h151l122 695h456zM1223 786c52 294 -111 513 -423 513h-209l-80 -458h253l-28 -158h-253l-78 -446h191c312 0 572 236 627 549z" />
    <glyph glyph-name="Ntilde" unicode="&#xd1;" horiz-adv-x="1599" 
d="M891 1796c-67 0 -114 -76 -130 -161l-137 17c29 164 123 290 268 290c92 0 131 -53 163 -104c20 -30 39 -59 83 -59c63 0 107 62 124 161l137 -18c-31 -171 -124 -289 -261 -289c-102 0 -141 55 -170 104c-22 35 -39 59 -77 59zM1358 1536h257l-271 -1536h-135l-682 1038
l-182 -1038h-256l270 1536h134l683 -1035z" />
    <glyph glyph-name="Ograve" unicode="&#xd2;" horiz-adv-x="1739" 
d="M1092 1647l-299 289l145 139l252 -331zM798 -20c-445 0 -741 360 -663 806c75 427 480 770 908 770c445 0 741 -360 663 -806c-75 -427 -480 -770 -908 -770zM815 230c309 0 587 245 639 556c48 292 -134 520 -427 520c-309 0 -588 -245 -640 -556
c-48 -292 135 -520 428 -520z" />
    <glyph glyph-name="Oacute" unicode="&#xd3;" horiz-adv-x="1739" 
d="M1057 1643l-79 101l359 331l105 -139zM798 -20c-445 0 -741 360 -663 806c75 427 480 770 908 770c445 0 741 -360 663 -806c-75 -427 -480 -770 -908 -770zM815 230c309 0 587 245 639 556c48 292 -134 520 -427 520c-309 0 -588 -245 -640 -556
c-48 -292 135 -520 428 -520z" />
    <glyph glyph-name="Ocircumflex" unicode="&#xd4;" horiz-adv-x="1739" 
d="M867 1641l-102 67l277 299h184l179 -299l-115 -67l-171 219zM798 -20c-445 0 -741 360 -663 806c75 427 480 770 908 770c445 0 741 -360 663 -806c-75 -427 -480 -770 -908 -770zM815 230c309 0 587 245 639 556c48 292 -134 520 -427 520c-309 0 -588 -245 -640 -556
c-48 -292 135 -520 428 -520z" />
    <glyph glyph-name="Otilde" unicode="&#xd5;" horiz-adv-x="1739" 
d="M1226 1633c-102 0 -141 55 -170 104c-22 35 -39 59 -77 59c-67 0 -114 -76 -130 -161l-137 17c29 164 123 290 268 290c92 0 131 -53 163 -104c20 -30 39 -59 83 -59c63 0 107 62 124 161l137 -18c-31 -171 -124 -289 -261 -289zM798 -20c-445 0 -741 360 -663 806
c75 427 480 770 908 770c445 0 741 -360 663 -806c-75 -427 -480 -770 -908 -770zM815 230c309 0 587 245 639 556c48 292 -134 520 -427 520c-309 0 -588 -245 -640 -556c-48 -292 135 -520 428 -520z" />
    <glyph glyph-name="Odieresis" unicode="&#xd6;" horiz-adv-x="1739" 
d="M889 1647c-80 0 -139 68 -125 152c12 65 76 116 140 116c81 0 140 -68 125 -153c-12 -64 -75 -115 -140 -115zM1295 1647c-82 0 -140 68 -125 152c12 65 74 116 139 116c83 0 139 -68 125 -153c-12 -64 -73 -115 -139 -115zM798 -20c-445 0 -741 360 -663 806
c75 427 480 770 908 770c445 0 741 -360 663 -806c-75 -427 -480 -770 -908 -770zM815 230c309 0 587 245 639 556c48 292 -134 520 -427 520c-309 0 -588 -245 -640 -556c-48 -292 135 -520 428 -520z" />
    <glyph glyph-name="multiply" unicode="&#xd7;" horiz-adv-x="1067" 
d="M266 272l-143 145l267 266l-267 266l143 144l268 -265l266 265l145 -144l-268 -266l268 -266l-145 -145l-266 267z" />
    <glyph glyph-name="Oslash" unicode="&#xd8;" horiz-adv-x="1739" 
d="M1534 1361c145 -147 215 -366 172 -611c-75 -427 -480 -770 -908 -770c-144 0 -272 37 -377 103l-160 -184l-124 78l171 197c-146 147 -216 367 -173 612c75 427 480 770 908 770c144 0 273 -38 378 -104l161 184l121 -80zM387 750c-25 -151 12 -284 94 -378l768 882
c-63 33 -138 52 -222 52c-309 0 -588 -245 -640 -556zM1454 786c25 150 -12 284 -92 378l-768 -882c63 -33 137 -52 221 -52c309 0 587 245 639 556z" />
    <glyph glyph-name="Ugrave" unicode="&#xd9;" horiz-adv-x="1538" 
d="M989 1647l-299 289l145 139l252 -331zM695 -20c-357 0 -586 230 -531 543l180 1013h256l-174 -984c-35 -204 84 -335 277 -335c212 0 397 148 434 352l170 967h257l-183 -1030c-55 -313 -345 -526 -686 -526z" />
    <glyph glyph-name="Uacute" unicode="&#xda;" horiz-adv-x="1538" 
d="M954 1643l-79 101l359 331l105 -139zM695 -20c-357 0 -586 230 -531 543l180 1013h256l-174 -984c-35 -204 84 -335 277 -335c212 0 397 148 434 352l170 967h257l-183 -1030c-55 -313 -345 -526 -686 -526z" />
    <glyph glyph-name="Ucircumflex" unicode="&#xdb;" horiz-adv-x="1538" 
d="M764 1641l-102 67l277 299h184l179 -299l-115 -67l-171 219zM695 -20c-357 0 -586 230 -531 543l180 1013h256l-174 -984c-35 -204 84 -335 277 -335c212 0 397 148 434 352l170 967h257l-183 -1030c-55 -313 -345 -526 -686 -526z" />
    <glyph glyph-name="Udieresis" unicode="&#xdc;" horiz-adv-x="1538" 
d="M786 1647c-80 0 -139 68 -125 152c12 65 76 116 140 116c81 0 140 -68 125 -153c-12 -64 -75 -115 -140 -115zM1192 1647c-82 0 -140 68 -125 152c12 65 74 116 139 116c83 0 139 -68 125 -153c-12 -64 -73 -115 -139 -115zM695 -20c-357 0 -586 230 -531 543l180 1013
h256l-174 -984c-35 -204 84 -335 277 -335c212 0 397 148 434 352l170 967h257l-183 -1030c-55 -313 -345 -526 -686 -526z" />
    <glyph glyph-name="Yacute" unicode="&#xdd;" horiz-adv-x="1357" 
d="M1250 1936l-385 -293l-79 101l359 331zM1530 1536l-683 -815l-126 -721h-257l128 728l-393 808h295l264 -575l470 575h302z" />
    <glyph glyph-name="Thorn" unicode="&#xde;" horiz-adv-x="1290" 
d="M931 1317c246 0 413 -207 368 -467c-42 -234 -262 -417 -508 -417h-361l-75 -433h-248l76 433h-1l149 842l7 42l38 215h248l-38 -215h345zM1068 881c20 120 -42 206 -181 206h-342l-74 -424h295c172 0 280 91 302 218z" />
    <glyph glyph-name="germandbls" unicode="&#xdf;" horiz-adv-x="1319" 
d="M1271 1089c-21 -120 -89 -225 -185 -300c117 -85 179 -227 151 -394c-42 -232 -243 -402 -474 -394l-188 -1l40 232h126c109 2 231 80 255 214c22 123 -64 221 -204 221h-103l36 205h30c129 0 262 112 287 248c21 116 -62 198 -201 198c-166 0 -312 -112 -344 -294
l-180 -1024h-249l185 1049c52 301 302 487 590 487c293 0 473 -192 428 -447z" />
    <glyph glyph-name="agrave" unicode="&#xe0;" horiz-adv-x="1256" 
d="M804 1173l-98 -97l-299 289l145 139zM940 963h248l-168 -963h-232l15 125c-82 -84 -194 -144 -340 -144c-261 0 -445 223 -393 520c49 278 293 483 537 483c154 0 253 -65 310 -157zM532 202c164 0 313 133 338 299c24 147 -72 262 -219 262c-162 0 -312 -133 -338 -298
c-23 -147 74 -263 219 -263z" />
    <glyph glyph-name="aacute" unicode="&#xe1;" horiz-adv-x="1256" 
d="M1056 1365l-385 -293l-79 101l359 331zM940 963h248l-168 -963h-232l15 125c-82 -84 -194 -144 -340 -144c-261 0 -445 223 -393 520c49 278 293 483 537 483c154 0 253 -65 310 -157zM532 202c164 0 313 133 338 299c24 147 -72 262 -219 262
c-162 0 -312 -133 -338 -298c-23 -147 74 -263 219 -263z" />
    <glyph glyph-name="acircumflex" unicode="&#xe2;" horiz-adv-x="1256" 
d="M733 1289l-252 -219l-102 67l277 299h184l179 -299l-115 -67zM940 963h248l-168 -963h-232l15 125c-82 -84 -194 -144 -340 -144c-261 0 -445 223 -393 520c49 278 293 483 537 483c154 0 253 -65 310 -157zM532 202c164 0 313 133 338 299c24 147 -72 262 -219 262
c-162 0 -312 -133 -338 -298c-23 -147 74 -263 219 -263z" />
    <glyph glyph-name="atilde" unicode="&#xe3;" horiz-adv-x="1256" 
d="M593 1225c-67 0 -114 -76 -130 -161l-137 17c29 164 123 290 268 290c92 0 131 -53 163 -104c20 -30 39 -59 83 -59c63 0 107 62 124 161l137 -18c-31 -171 -124 -289 -261 -289c-102 0 -141 55 -170 104c-22 35 -39 59 -77 59zM940 963h248l-168 -963h-232l15 125
c-82 -84 -194 -144 -340 -144c-261 0 -445 223 -393 520c49 278 293 483 537 483c154 0 253 -65 310 -157zM532 202c164 0 313 133 338 299c24 147 -72 262 -219 262c-162 0 -312 -133 -338 -298c-23 -147 74 -263 219 -263z" />
    <glyph glyph-name="adieresis" unicode="&#xe4;" horiz-adv-x="1256" 
d="M514 1137c-81 0 -139 69 -124 152c11 66 74 116 138 116c82 0 140 -67 125 -152c-12 -64 -74 -116 -139 -116zM919 1137c-81 0 -139 69 -124 152c11 66 74 116 139 116c83 0 139 -67 124 -152c-12 -64 -72 -116 -139 -116zM940 963h248l-168 -963h-232l15 125
c-82 -84 -194 -144 -340 -144c-261 0 -445 223 -393 520c49 278 293 483 537 483c154 0 253 -65 310 -157zM532 202c164 0 313 133 338 299c24 147 -72 262 -219 262c-162 0 -312 -133 -338 -298c-23 -147 74 -263 219 -263z" />
    <glyph glyph-name="aring" unicode="&#xe5;" horiz-adv-x="1256" 
d="M725 1110c-137 0 -231 115 -206 251c20 118 134 214 254 214c135 0 226 -113 204 -250c-22 -118 -134 -215 -252 -215zM632 1325c-6 -61 33 -102 91 -102c75 0 140 58 146 138c5 55 -36 105 -94 105c-75 0 -138 -67 -143 -141zM940 963h248l-168 -963h-232l15 125
c-82 -84 -194 -144 -340 -144c-261 0 -445 223 -393 520c49 278 293 483 537 483c154 0 253 -65 310 -157zM532 202c164 0 313 133 338 299c24 147 -72 262 -219 262c-162 0 -312 -133 -338 -298c-23 -147 74 -263 219 -263z" />
    <glyph glyph-name="ae" unicode="&#xe6;" horiz-adv-x="1753" 
d="M1270 982c286 0 476 -207 424 -499l-7 -45h-762c-16 -157 70 -255 210 -255c107 0 209 55 277 139l195 -93c-107 -158 -278 -247 -472 -247c-163 0 -290 62 -367 162c-133 -107 -282 -163 -420 -163c-229 0 -348 127 -315 318c32 181 203 284 557 284h124l9 25l4 25
c20 113 -37 171 -137 174c-101 1 -193 -54 -233 -132l-202 83c86 150 241 226 436 226c146 0 258 -46 323 -124c100 76 224 122 356 122zM1271 784c-126 0 -233 -70 -294 -179h488c-13 102 -81 179 -194 179zM398 159c89 0 207 59 293 160c-6 34 -8 69 -7 105h-104
c-199 0 -283 -65 -299 -155c-12 -70 34 -110 117 -110z" />
    <glyph glyph-name="ccedilla" unicode="&#xe7;" horiz-adv-x="1086" 
d="M515 208c123 0 231 75 287 172l197 -107c-101 -170 -277 -279 -467 -290l-85 -107c139 25 239 -69 216 -206c-21 -114 -125 -202 -239 -202c-108 0 -206 73 -226 156l116 25c16 -36 63 -57 99 -57c60 0 120 51 131 114c12 72 -56 90 -162 47l-96 62l120 175
c-241 44 -385 253 -341 509c48 270 297 482 579 482c217 0 375 -129 421 -308l-222 -73c-28 97 -107 155 -213 155c-165 0 -308 -128 -332 -292c-22 -145 69 -255 217 -255z" />
    <glyph glyph-name="egrave" unicode="&#xe8;" horiz-adv-x="1127" 
d="M803 1177l-98 -97l-299 289l145 139zM645 982c286 0 476 -207 424 -499l-7 -45h-762c-16 -157 70 -255 210 -255c107 0 209 55 277 139l195 -93c-107 -158 -278 -247 -472 -247c-314 0 -493 230 -443 516c47 270 293 484 578 484zM646 784c-126 0 -233 -70 -294 -179h488
c-13 102 -81 179 -194 179z" />
    <glyph glyph-name="eacute" unicode="&#xe9;" horiz-adv-x="1127" 
d="M1055 1369l-385 -293l-79 101l359 331zM645 982c286 0 476 -207 424 -499l-7 -45h-762c-16 -157 70 -255 210 -255c107 0 209 55 277 139l195 -93c-107 -158 -278 -247 -472 -247c-314 0 -493 230 -443 516c47 270 293 484 578 484zM646 784c-126 0 -233 -70 -294 -179
h488c-13 102 -81 179 -194 179z" />
    <glyph glyph-name="ecircumflex" unicode="&#xea;" horiz-adv-x="1127" 
d="M732 1293l-252 -219l-102 67l277 299h184l179 -299l-115 -67zM645 982c286 0 476 -207 424 -499l-7 -45h-762c-16 -157 70 -255 210 -255c107 0 209 55 277 139l195 -93c-107 -158 -278 -247 -472 -247c-314 0 -493 230 -443 516c47 270 293 484 578 484zM646 784
c-126 0 -233 -70 -294 -179h488c-13 102 -81 179 -194 179z" />
    <glyph glyph-name="edieresis" unicode="&#xeb;" horiz-adv-x="1127" 
d="M513 1141c-81 0 -139 69 -124 152c11 66 74 116 138 116c82 0 140 -67 125 -152c-12 -64 -74 -116 -139 -116zM918 1141c-81 0 -139 69 -124 152c11 66 74 116 139 116c83 0 139 -67 124 -152c-12 -64 -72 -116 -139 -116zM645 982c286 0 476 -207 424 -499l-7 -45h-762
c-16 -157 70 -255 210 -255c107 0 209 55 277 139l195 -93c-107 -158 -278 -247 -472 -247c-314 0 -493 230 -443 516c47 270 293 484 578 484zM646 784c-126 0 -233 -70 -294 -179h488c-13 102 -81 179 -194 179z" />
    <glyph glyph-name="igrave" unicode="&#xec;" horiz-adv-x="551" 
d="M396 1074l-299 289l145 139l252 -331zM68 0l168 963h248l-168 -963h-248z" />
    <glyph glyph-name="iacute" unicode="&#xed;" horiz-adv-x="551" 
d="M361 1070l-79 101l359 331l105 -139zM68 0l168 963h248l-168 -963h-248z" />
    <glyph glyph-name="icircumflex" unicode="&#xee;" horiz-adv-x="551" 
d="M171 1068l-102 67l277 299h184l179 -299l-115 -67l-171 219zM68 0l168 963h248l-168 -963h-248z" />
    <glyph glyph-name="idieresis" unicode="&#xef;" horiz-adv-x="551" 
d="M204 1135c-81 0 -139 69 -124 152c11 66 74 116 138 116c82 0 140 -67 125 -152c-12 -64 -74 -116 -139 -116zM609 1135c-81 0 -139 69 -124 152c11 66 74 116 139 116c83 0 139 -67 124 -152c-12 -64 -72 -116 -139 -116zM68 0l168 963h248l-168 -963h-248z" />
    <glyph glyph-name="eth" unicode="&#xf0;" horiz-adv-x="1191" 
d="M845 1330c195 -170 323 -457 258 -827l-2 1c-1 -4 -1 -8 -2 -12c-55 -318 -306 -510 -591 -510c-301 0 -494 230 -444 517c47 269 302 482 588 482c100 0 189 -27 260 -73c-27 140 -88 240 -173 310l-137 -145l-96 76l129 135c-70 34 -150 57 -238 71l70 146
c96 -10 193 -44 281 -100l114 119l91 -75zM870 499c27 153 -71 273 -223 273c-171 0 -331 -138 -360 -309c-27 -153 71 -271 226 -271c168 0 328 136 357 307z" />
    <glyph glyph-name="ntilde" unicode="&#xf1;" horiz-adv-x="1128" 
d="M588 1223c-67 0 -114 -76 -130 -161l-137 17c29 164 123 290 268 290c92 0 131 -53 163 -104c20 -30 39 -59 83 -59c63 0 107 62 124 161l137 -18c-31 -171 -124 -289 -261 -289c-102 0 -141 55 -170 104c-22 35 -39 59 -77 59zM729 981c200 0 332 -166 298 -367
l-108 -614h-248l102 585c20 118 -44 180 -134 180c-108 0 -198 -80 -220 -177l-103 -588h-248l168 963h248l-14 -79c76 64 168 97 259 97z" />
    <glyph glyph-name="ograve" unicode="&#xf2;" horiz-adv-x="1145" 
d="M693 1073l-299 289l145 139l252 -331zM501 -18c-297 0 -486 230 -436 517c47 269 297 482 579 482c296 0 485 -230 435 -518c-47 -268 -298 -481 -578 -481zM507 205c157 0 308 127 338 294c27 149 -66 259 -207 259c-160 0 -310 -126 -339 -295
c-27 -150 64 -258 208 -258z" />
    <glyph glyph-name="oacute" unicode="&#xf3;" horiz-adv-x="1145" 
d="M658 1069l-79 101l359 331l105 -139zM501 -18c-297 0 -486 230 -436 517c47 269 297 482 579 482c296 0 485 -230 435 -518c-47 -268 -298 -481 -578 -481zM507 205c157 0 308 127 338 294c27 149 -66 259 -207 259c-160 0 -310 -126 -339 -295
c-27 -150 64 -258 208 -258z" />
    <glyph glyph-name="ocircumflex" unicode="&#xf4;" horiz-adv-x="1145" 
d="M468 1067l-102 67l277 299h184l179 -299l-115 -67l-171 219zM501 -18c-297 0 -486 230 -436 517c47 269 297 482 579 482c296 0 485 -230 435 -518c-47 -268 -298 -481 -578 -481zM507 205c157 0 308 127 338 294c27 149 -66 259 -207 259c-160 0 -310 -126 -339 -295
c-27 -150 64 -258 208 -258z" />
    <glyph glyph-name="otilde" unicode="&#xf5;" horiz-adv-x="1145" 
d="M827 1059c-102 0 -141 55 -170 104c-22 35 -39 59 -77 59c-67 0 -114 -76 -130 -161l-137 17c29 164 123 290 268 290c92 0 131 -53 163 -104c20 -30 39 -59 83 -59c63 0 107 62 124 161l137 -18c-31 -171 -124 -289 -261 -289zM501 -18c-297 0 -486 230 -436 517
c47 269 297 482 579 482c296 0 485 -230 435 -518c-47 -268 -298 -481 -578 -481zM507 205c157 0 308 127 338 294c27 149 -66 259 -207 259c-160 0 -310 -126 -339 -295c-27 -150 64 -258 208 -258z" />
    <glyph glyph-name="odieresis" unicode="&#xf6;" horiz-adv-x="1145" 
d="M501 1134c-81 0 -139 69 -124 152c11 66 74 116 138 116c82 0 140 -67 125 -152c-12 -64 -74 -116 -139 -116zM906 1134c-81 0 -139 69 -124 152c11 66 74 116 139 116c83 0 139 -67 124 -152c-12 -64 -72 -116 -139 -116zM501 -18c-297 0 -486 230 -436 517
c47 269 297 482 579 482c296 0 485 -230 435 -518c-47 -268 -298 -481 -578 -481zM507 205c157 0 308 127 338 294c27 149 -66 259 -207 259c-160 0 -310 -126 -339 -295c-27 -150 64 -258 208 -258z" />
    <glyph glyph-name="divide" unicode="&#xf7;" horiz-adv-x="1025" 
d="M507 919c-75 0 -141 61 -141 141c0 76 66 142 141 142c76 0 143 -66 143 -142c0 -80 -67 -141 -143 -141zM103 589v204h819v-204h-819zM507 179c-75 0 -141 61 -141 142c0 75 66 141 141 141c76 0 143 -66 143 -141c0 -81 -67 -142 -143 -142z" />
    <glyph glyph-name="oslash" unicode="&#xf8;" horiz-adv-x="1145" 
d="M965 859c96 -95 142 -237 114 -396c-47 -268 -298 -481 -578 -481c-94 0 -177 23 -245 63l-109 -125l-80 50l115 132c-98 94 -145 237 -117 397c47 269 297 482 579 482c94 0 178 -23 246 -65l109 125l79 -52zM299 463c-13 -74 2 -137 38 -183l398 458
c-28 13 -61 20 -97 20c-160 0 -310 -126 -339 -295zM845 499c13 72 -2 135 -37 180l-397 -455c28 -12 61 -19 96 -19c157 0 308 127 338 294z" />
    <glyph glyph-name="ugrave" unicode="&#xf9;" horiz-adv-x="1087" 
d="M661 1074l-299 289l145 139l252 -331zM468 -19c-271 0 -404 156 -364 388l104 594h248l-103 -589c-20 -119 32 -175 120 -175c107 0 200 73 221 192l99 572h249l-107 -611c-41 -232 -212 -371 -467 -371z" />
    <glyph glyph-name="uacute" unicode="&#xfa;" horiz-adv-x="1087" 
d="M626 1070l-79 101l359 331l105 -139zM468 -19c-271 0 -404 156 -364 388l104 594h248l-103 -589c-20 -119 32 -175 120 -175c107 0 200 73 221 192l99 572h249l-107 -611c-41 -232 -212 -371 -467 -371z" />
    <glyph glyph-name="ucircumflex" unicode="&#xfb;" horiz-adv-x="1087" 
d="M436 1068l-102 67l277 299h184l179 -299l-115 -67l-171 219zM468 -19c-271 0 -404 156 -364 388l104 594h248l-103 -589c-20 -119 32 -175 120 -175c107 0 200 73 221 192l99 572h249l-107 -611c-41 -232 -212 -371 -467 -371z" />
    <glyph glyph-name="udieresis" unicode="&#xfc;" horiz-adv-x="1087" 
d="M469 1135c-81 0 -139 69 -124 152c11 66 74 116 138 116c82 0 140 -67 125 -152c-12 -64 -74 -116 -139 -116zM874 1135c-81 0 -139 69 -124 152c11 66 74 116 139 116c83 0 139 -67 124 -152c-12 -64 -72 -116 -139 -116zM468 -19c-271 0 -404 156 -364 388l104 594h248
l-103 -589c-20 -119 32 -175 120 -175c107 0 200 73 221 192l99 572h249l-107 -611c-41 -232 -212 -371 -467 -371z" />
    <glyph glyph-name="yacute" unicode="&#xfd;" horiz-adv-x="1051" 
d="M977 1363l-385 -293l-79 101l359 331zM859 963h267l-839 -1455h-262l289 506l-222 949h269l127 -700z" />
    <glyph glyph-name="thorn" unicode="&#xfe;" horiz-adv-x="1246" 
d="M778 981c267 0 451 -230 401 -518c-47 -268 -293 -481 -545 -481c-134 0 -235 51 -300 134l-103 -598l-248 1l356 2017h248l-115 -662c84 67 188 107 306 107zM936 499c22 144 -73 257 -216 257c-160 0 -310 -131 -335 -293c-23 -143 73 -256 218 -256
c159 0 308 130 333 292z" />
    <glyph glyph-name="ydieresis" unicode="&#xff;" horiz-adv-x="1051" 
d="M435 1135c-81 0 -139 69 -124 152c11 66 74 116 138 116c82 0 140 -67 125 -152c-12 -64 -74 -116 -139 -116zM840 1135c-81 0 -139 69 -124 152c11 66 74 116 139 116c83 0 139 -67 124 -152c-12 -64 -72 -116 -139 -116zM859 963h267l-839 -1455h-262l289 506l-222 949
h269l127 -700z" />
    <glyph glyph-name="Amacron" unicode="&#x100;" horiz-adv-x="1408" 
d="M1269 1883l-27 -153h-634l27 153h634zM1039 0l-43 240h-667l-128 -240h-284l873 1536h195l334 -1536h-280zM448 462h509l-128 714z" />
    <glyph glyph-name="amacron" unicode="&#x101;" horiz-adv-x="1256" 
d="M1048 1312l-27 -153h-634l27 153h634zM940 963h248l-168 -963h-232l15 125c-82 -84 -194 -144 -340 -144c-261 0 -445 223 -393 520c49 278 293 483 537 483c154 0 253 -65 310 -157zM532 202c164 0 313 133 338 299c24 147 -72 262 -219 262c-162 0 -312 -133 -338 -298
c-23 -147 74 -263 219 -263z" />
    <glyph glyph-name="Abreve" unicode="&#x102;" horiz-adv-x="1408" 
d="M935 1701c-215 0 -349 127 -310 335h160c-18 -115 33 -198 154 -198c143 0 217 100 235 198h160c-39 -225 -197 -335 -399 -335zM790 1536h195l334 -1536h-280l-43 240h-667l-128 -240h-284zM448 462h509l-128 714z" />
    <glyph glyph-name="abreve" unicode="&#x103;" horiz-adv-x="1256" 
d="M714 1130c-215 0 -349 127 -310 335h160c-18 -115 33 -198 154 -198c143 0 217 100 235 198h160c-39 -225 -197 -335 -399 -335zM940 963h248l-168 -963h-232l15 125c-82 -84 -194 -144 -340 -144c-261 0 -445 223 -393 520c49 278 293 483 537 483
c154 0 253 -65 310 -157zM532 202c164 0 313 133 338 299c24 147 -72 262 -219 262c-162 0 -312 -133 -338 -298c-23 -147 74 -263 219 -263z" />
    <glyph glyph-name="Aogonek" unicode="&#x104;" horiz-adv-x="1408" 
d="M1283 -272l83 -145c-96 -83 -210 -114 -309 -108c-159 10 -242 110 -216 251c20 119 119 210 268 274h-70l-43 240h-667l-128 -240h-284l873 1536h195l334 -1535l2 -1c-160 -64 -299 -156 -320 -273c-11 -64 24 -89 83 -89c68 0 141 38 199 90zM448 462h509l-128 714z
" />
    <glyph glyph-name="aogonek" unicode="&#x105;" horiz-adv-x="1256" 
d="M783 -362c68 0 141 38 199 90l83 -145c-96 -83 -210 -114 -309 -108c-159 10 -242 110 -216 251c20 119 119 210 268 274h-20l15 125c-82 -84 -194 -144 -340 -144c-261 0 -445 223 -393 520c49 278 293 483 537 483c154 0 253 -65 310 -157l23 136h248l-168 -963
c-160 -64 -299 -156 -320 -273c-11 -64 24 -89 83 -89zM532 202c164 0 313 133 338 299c24 147 -72 262 -219 262c-162 0 -312 -133 -338 -298c-23 -147 74 -263 219 -263z" />
    <glyph glyph-name="Cacute" unicode="&#x106;" horiz-adv-x="1503" 
d="M1069 1643l-79 101l359 331l105 -139zM797 -20c-445 0 -741 361 -663 807c75 427 480 769 907 769c245 0 444 -109 561 -282l-218 -141c-74 113 -199 176 -353 176c-307 0 -592 -247 -644 -560c-48 -288 132 -513 422 -513c163 0 321 69 440 181l180 -170
c-170 -163 -397 -267 -632 -267z" />
    <glyph glyph-name="cacute" unicode="&#x107;" horiz-adv-x="1086" 
d="M647 1070l-79 101l359 331l105 -139zM501 -18c-297 0 -486 229 -436 517c48 270 297 482 579 482c217 0 375 -129 421 -308l-222 -73c-28 97 -107 155 -213 155c-165 0 -308 -128 -332 -292c-22 -145 69 -255 217 -255c123 0 231 75 287 172l197 -107
c-106 -179 -297 -291 -498 -291z" />
    <glyph glyph-name="Cdotaccent" unicode="&#x10a;" horiz-adv-x="1503" 
d="M1112 1692c-80 0 -138 70 -126 151c13 67 76 118 139 118c83 0 141 -68 125 -154c-10 -62 -72 -115 -138 -115zM797 -20c-445 0 -741 361 -663 807c75 427 480 769 907 769c245 0 444 -109 561 -282l-218 -141c-74 113 -199 176 -353 176c-307 0 -592 -247 -644 -560
c-48 -288 132 -513 422 -513c163 0 321 69 440 181l180 -170c-170 -163 -397 -267 -632 -267z" />
    <glyph glyph-name="cdotaccent" unicode="&#x10b;" horiz-adv-x="1086" 
d="M690 1119c-80 0 -138 70 -126 151c13 67 76 118 139 118c83 0 141 -68 125 -154c-10 -62 -72 -115 -138 -115zM501 -18c-297 0 -486 229 -436 517c48 270 297 482 579 482c217 0 375 -129 421 -308l-222 -73c-28 97 -107 155 -213 155c-165 0 -308 -128 -332 -292
c-22 -145 69 -255 217 -255c123 0 231 75 287 172l197 -107c-106 -179 -297 -291 -498 -291z" />
    <glyph glyph-name="Ccaron" unicode="&#x10c;" horiz-adv-x="1503" 
d="M1003 1681l-175 299l114 67l172 -219l252 219l101 -67l-279 -299h-185zM797 -20c-445 0 -741 361 -663 807c75 427 480 769 907 769c245 0 444 -109 561 -282l-218 -141c-74 113 -199 176 -353 176c-307 0 -592 -247 -644 -560c-48 -288 132 -513 422 -513
c163 0 321 69 440 181l180 -170c-170 -163 -397 -267 -632 -267z" />
    <glyph glyph-name="ccaron" unicode="&#x10d;" horiz-adv-x="1086" 
d="M581 1108l-175 299l114 67l172 -219l252 219l101 -67l-279 -299h-185zM501 -18c-297 0 -486 229 -436 517c48 270 297 482 579 482c217 0 375 -129 421 -308l-222 -73c-28 97 -107 155 -213 155c-165 0 -308 -128 -332 -292c-22 -145 69 -255 217 -255
c123 0 231 75 287 172l197 -107c-106 -179 -297 -291 -498 -291z" />
    <glyph glyph-name="Dcaron" unicode="&#x10e;" horiz-adv-x="1514" 
d="M777 1681l-175 299l114 67l172 -219l252 219l101 -67l-279 -299h-185zM108 0l270 1536h456c465 0 723 -353 646 -786c-73 -415 -435 -750 -900 -750h-472zM405 237h191c312 0 572 236 627 549c52 294 -111 513 -423 513h-209z" />
    <glyph glyph-name="dcaron" unicode="&#x10f;" horiz-adv-x="1258" 
d="M1637 1557c89 0 140 -57 140 -123c0 -34 -12 -70 -39 -102l-280 -365h-165l228 321c-38 24 -66 84 -44 157c26 62 98 112 160 112zM919 825l123 711h249l-271 -1536h-232l15 125c-82 -84 -194 -144 -340 -144c-261 0 -445 223 -393 520c49 278 293 483 537 483
c155 0 254 -66 312 -159zM532 202c164 0 313 133 338 299c24 147 -72 262 -219 262c-162 0 -312 -133 -338 -298c-23 -147 74 -263 219 -263z" />
    <glyph glyph-name="Dcroat" unicode="&#x110;" horiz-adv-x="1514" 
d="M834 1536c465 0 723 -353 646 -786c-73 -415 -435 -750 -900 -750h-472l120 683h-151l28 158h151l122 695h456zM1223 786c52 294 -111 513 -423 513h-209l-80 -458h253l-28 -158h-253l-78 -446h191c312 0 572 236 627 549z" />
    <glyph glyph-name="dcroat" unicode="&#x111;" horiz-adv-x="1258" 
d="M1388 1328l-28 -158h-134l-206 -1170h-232l15 125c-82 -84 -194 -144 -340 -144c-261 0 -445 223 -393 520c49 278 293 483 537 483c155 0 254 -66 312 -159l59 345h-277l28 158h277l36 208h249l-37 -208h134zM532 202c164 0 313 133 338 299c24 147 -72 262 -219 262
c-162 0 -312 -133 -338 -298c-23 -147 74 -263 219 -263z" />
    <glyph glyph-name="Emacron" unicode="&#x112;" horiz-adv-x="1195" 
d="M1207 1883l-27 -153h-634l27 153h634zM1237 1303h-644l-73 -418h558l-42 -234h-558l-73 -418h644l-40 -233h-901l270 1536h901z" />
    <glyph glyph-name="emacron" unicode="&#x113;" horiz-adv-x="1127" 
d="M1047 1316l-27 -153h-634l27 153h634zM645 982c286 0 476 -207 424 -499l-7 -45h-762c-16 -157 70 -255 210 -255c107 0 209 55 277 139l195 -93c-107 -158 -278 -247 -472 -247c-314 0 -493 230 -443 516c47 270 293 484 578 484zM646 784c-126 0 -233 -70 -294 -179
h488c-13 102 -81 179 -194 179z" />
    <glyph glyph-name="Edotaccent" unicode="&#x116;" horiz-adv-x="1195" 
d="M873 1692c-80 0 -138 70 -126 151c13 67 76 118 139 118c83 0 141 -68 125 -154c-10 -62 -72 -115 -138 -115zM1237 1303h-644l-73 -418h558l-42 -234h-558l-73 -418h644l-40 -233h-901l270 1536h901z" />
    <glyph glyph-name="edotaccent" unicode="&#x117;" horiz-adv-x="1127" 
d="M713 1125c-80 0 -138 70 -126 151c13 67 76 118 139 118c83 0 141 -68 125 -154c-10 -62 -72 -115 -138 -115zM645 982c286 0 476 -207 424 -499l-7 -45h-762c-16 -157 70 -255 210 -255c107 0 209 55 277 139l195 -93c-107 -158 -278 -247 -472 -247
c-314 0 -493 230 -443 516c47 270 293 484 578 484zM646 784c-126 0 -233 -70 -294 -179h488c-13 102 -81 179 -194 179z" />
    <glyph glyph-name="Eogonek" unicode="&#x118;" horiz-adv-x="1195" 
d="M1237 1303h-644l-73 -418h558l-42 -234h-558l-73 -418h644l-40 -233c-160 -64 -299 -156 -320 -273c-11 -64 24 -89 83 -89c68 0 141 38 199 90l83 -145c-96 -83 -210 -114 -309 -108c-159 10 -242 110 -216 251c20 119 119 210 268 274h-689l270 1536h901z" />
    <glyph glyph-name="eogonek" unicode="&#x119;" horiz-adv-x="1127" 
d="M645 982c286 0 476 -207 424 -499l-7 -45h-762c-16 -157 70 -255 210 -255c107 0 209 55 277 139l195 -93c-81 -119 -198 -199 -334 -231c-110 -59 -195 -134 -211 -223c-11 -64 24 -89 83 -89c68 0 141 38 199 90l83 -145c-96 -83 -210 -114 -309 -108
c-159 10 -242 110 -216 251c14 86 69 156 154 213c-264 36 -410 250 -364 511c47 270 293 484 578 484zM646 784c-126 0 -233 -70 -294 -179h488c-13 102 -81 179 -194 179z" />
    <glyph glyph-name="Ecaron" unicode="&#x11a;" horiz-adv-x="1195" 
d="M949 1681h-185l-175 299l114 67l172 -219l252 219l101 -67zM1237 1303h-644l-73 -418h558l-42 -234h-558l-73 -418h644l-40 -233h-901l270 1536h901z" />
    <glyph glyph-name="ecaron" unicode="&#x11b;" horiz-adv-x="1127" 
d="M789 1114h-185l-175 299l114 67l172 -219l252 219l101 -67zM645 982c286 0 476 -207 424 -499l-7 -45h-762c-16 -157 70 -255 210 -255c107 0 209 55 277 139l195 -93c-107 -158 -278 -247 -472 -247c-314 0 -493 230 -443 516c47 270 293 484 578 484zM646 784
c-126 0 -233 -70 -294 -179h488c-13 102 -81 179 -194 179z" />
    <glyph glyph-name="Gbreve" unicode="&#x11e;" horiz-adv-x="1636" 
d="M1124 1701c-215 0 -349 127 -310 335h160c-18 -115 33 -198 154 -198c143 0 217 100 235 198h160c-39 -225 -197 -335 -399 -335zM893 619l39 223h639l-147 -842h-193l-7 127c-130 -104 -283 -147 -425 -147c-446 0 -742 359 -663 806c75 428 479 770 908 770
c230 0 436 -110 551 -269l-207 -148c-78 112 -210 171 -354 171c-310 0 -590 -243 -646 -560c-52 -298 128 -524 421 -524c161 0 323 64 436 183l36 210h-388z" />
    <glyph glyph-name="gbreve" unicode="&#x11f;" horiz-adv-x="1262" 
d="M716 1128c-215 0 -349 127 -310 335h160c-18 -115 33 -198 154 -198c143 0 217 100 235 198h160c-39 -225 -197 -335 -399 -335zM943 963h250l-166 -947c-57 -322 -309 -516 -604 -516c-179 0 -359 86 -444 244l169 136c62 -109 162 -163 270 -163c173 0 330 130 362 315
l13 79c-77 -76 -181 -130 -317 -130c-277 0 -459 223 -407 520c50 279 291 483 549 483c153 0 249 -64 303 -156zM531 202c162 0 314 135 338 299c24 147 -74 262 -219 262c-163 0 -312 -133 -338 -298c-22 -146 72 -263 219 -263z" />
    <glyph glyph-name="Gdotaccent" unicode="&#x120;" horiz-adv-x="1636" 
d="M1124 1692c-80 0 -138 70 -126 151c13 67 76 118 139 118c83 0 141 -68 125 -154c-10 -62 -72 -115 -138 -115zM893 619l39 223h639l-147 -842h-193l-7 127c-130 -104 -283 -147 -425 -147c-446 0 -742 359 -663 806c75 428 479 770 908 770c230 0 436 -110 551 -269
l-207 -148c-78 112 -210 171 -354 171c-310 0 -590 -243 -646 -560c-52 -298 128 -524 421 -524c161 0 323 64 436 183l36 210h-388z" />
    <glyph glyph-name="gdotaccent" unicode="&#x121;" horiz-adv-x="1262" 
d="M716 1119c-80 0 -138 70 -126 151c13 67 76 118 139 118c83 0 141 -68 125 -154c-10 -62 -72 -115 -138 -115zM943 963h250l-166 -947c-57 -322 -309 -516 -604 -516c-179 0 -359 86 -444 244l169 136c62 -109 162 -163 270 -163c173 0 330 130 362 315l13 79
c-77 -76 -181 -130 -317 -130c-277 0 -459 223 -407 520c50 279 291 483 549 483c153 0 249 -64 303 -156zM531 202c162 0 314 135 338 299c24 147 -74 262 -219 262c-163 0 -312 -133 -338 -298c-22 -146 72 -263 219 -263z" />
    <glyph glyph-name="Gcommaaccent" unicode="&#x122;" horiz-adv-x="1636" 
d="M893 619l39 223h639l-147 -842h-193l-7 127c-130 -104 -283 -147 -425 -147c-446 0 -742 359 -663 806c75 428 479 770 908 770c230 0 436 -110 551 -269l-207 -148c-78 112 -210 171 -354 171c-310 0 -590 -243 -646 -560c-52 -298 128 -524 421 -524
c161 0 323 64 436 183l36 210h-388zM441 -559l285 466l180 -86l-344 -435z" />
    <glyph glyph-name="gcommaaccent" unicode="&#x123;" horiz-adv-x="1262" 
d="M708 1077c-91 0 -150 74 -133 167c2 11 8 31 16 50l253 433h131l-182 -369c50 -25 82 -85 70 -151c-13 -71 -83 -130 -155 -130zM943 963h250l-166 -947c-57 -322 -309 -516 -604 -516c-179 0 -359 86 -444 244l169 136c62 -109 162 -163 270 -163c173 0 330 130 362 315
l13 79c-77 -76 -181 -130 -317 -130c-277 0 -459 223 -407 520c50 279 291 483 549 483c153 0 249 -64 303 -156zM531 202c162 0 314 135 338 299c24 147 -74 262 -219 262c-163 0 -312 -133 -338 -298c-22 -146 72 -263 219 -263z" />
    <glyph glyph-name="Hbar" unicode="&#x126;" horiz-adv-x="1624" 
d="M1690 1268l-22 -125h-118l-202 -1143h-256l114 650h-727l-114 -650h-257l201 1143h-122l22 125h122l47 268h257l-47 -268h727l47 268h257l-47 -268h118zM1248 888l45 255h-727l-45 -255h727z" />
    <glyph glyph-name="hbar" unicode="&#x127;" horiz-adv-x="1128" 
d="M729 981c200 0 332 -166 298 -367l-108 -614h-248l102 585c20 118 -44 180 -134 180c-106 0 -194 -77 -219 -171l-104 -594h-248l205 1171h-136l28 158h136l36 207h248l-36 -207h275l-28 -158h-275l-50 -287c75 64 166 97 258 97z" />
    <glyph glyph-name="Itilde" unicode="&#x128;" horiz-adv-x="640" 
d="M675 1633c-102 0 -141 55 -170 104c-22 35 -39 59 -77 59c-67 0 -114 -76 -130 -161l-137 17c29 164 123 290 268 290c92 0 131 -53 163 -104c20 -30 39 -59 83 -59c63 0 107 62 124 161l137 -18c-31 -171 -124 -289 -261 -289zM108 0l270 1536h257l-270 -1536h-257z" />
    <glyph glyph-name="itilde" unicode="&#x129;" horiz-adv-x="551" 
d="M530 1060c-102 0 -141 55 -170 104c-22 35 -39 59 -77 59c-67 0 -114 -76 -130 -161l-137 17c29 164 123 290 268 290c92 0 131 -53 163 -104c20 -30 39 -59 83 -59c63 0 107 62 124 161l137 -18c-31 -171 -124 -289 -261 -289zM68 0l168 963h248l-168 -963h-248z" />
    <glyph glyph-name="Imacron" unicode="&#x12a;" horiz-adv-x="640" 
d="M222 1730l27 153h634l-27 -153h-634zM108 0l270 1536h257l-270 -1536h-257z" />
    <glyph glyph-name="imacron" unicode="&#x12b;" horiz-adv-x="551" 
d="M77 1157l27 153h634l-27 -153h-634zM68 0l168 963h248l-168 -963h-248z" />
    <glyph glyph-name="Iogonek" unicode="&#x12e;" horiz-adv-x="640" 
d="M128 -362c68 0 141 38 199 90l83 -145c-96 -83 -210 -114 -309 -108c-159 10 -242 110 -216 251c20 119 119 210 268 274h-45l270 1536h257l-270 -1536c-160 -64 -299 -156 -320 -273c-11 -64 24 -89 83 -89z" />
    <glyph glyph-name="iogonek" unicode="&#x12f;" horiz-adv-x="551" 
d="M417 1388c83 0 141 -68 125 -154c-10 -62 -72 -115 -138 -115c-80 0 -138 70 -126 151c13 67 76 118 139 118zM316 0c-160 -64 -299 -156 -320 -273c-11 -64 24 -89 83 -89c68 0 141 38 199 90l83 -145c-96 -83 -210 -114 -309 -108c-159 10 -242 110 -216 251
c20 119 119 210 268 274h-36l168 963h248z" />
    <glyph glyph-name="Idotaccent" unicode="&#x130;" horiz-adv-x="640" 
d="M549 1692c-80 0 -138 70 -126 151c13 67 76 118 139 118c83 0 141 -68 125 -154c-10 -62 -72 -115 -138 -115zM108 0l270 1536h257l-270 -1536h-257z" />
    <glyph glyph-name="dotlessi" unicode="&#x131;" horiz-adv-x="551" 
d="M68 0l168 963h248l-168 -963h-248z" />
    <glyph glyph-name="Kcommaaccent" unicode="&#x136;" horiz-adv-x="1421" 
d="M1567 1536l-788 -759l533 -777h-328l-490 734l-129 -734h-257l270 1536h257l-126 -715l725 715h333zM262 -559l285 466l180 -86l-344 -435z" />
    <glyph glyph-name="kcommaaccent" unicode="&#x137;" horiz-adv-x="1117" 
d="M1158 963l-498 -448l375 -515h-310l-327 465l-82 -465h-248l270 1536h248l-172 -978l426 405h318zM135 -559l285 466l180 -86l-344 -435z" />
    <glyph glyph-name="Lacute" unicode="&#x139;" horiz-adv-x="1020" 
d="M892 1936l-385 -293l-79 101l359 331zM408 237h536l-42 -237h-794l270 1536h257z" />
    <glyph glyph-name="lacute" unicode="&#x13a;" horiz-adv-x="553" 
d="M463 1643l-79 101l359 331l105 -139zM68 0l270 1536h248l-270 -1536h-248z" />
    <glyph glyph-name="Lcommaaccent" unicode="&#x13b;" horiz-adv-x="1020" 
d="M408 237h536l-42 -237h-794l270 1536h257zM158 -559l285 466l180 -86l-344 -435z" />
    <glyph glyph-name="lcommaaccent" unicode="&#x13c;" horiz-adv-x="553" 
d="M68 0l270 1536h248l-270 -1536h-248zM-34 -614l-121 55l285 466l180 -86z" />
    <glyph glyph-name="Lcaron" unicode="&#x13d;" horiz-adv-x="1020" 
d="M1024 1557c89 0 140 -57 140 -123c0 -34 -12 -70 -39 -102l-280 -365h-165l228 321c-38 24 -66 84 -44 157c26 62 98 112 160 112zM635 1536l-227 -1299h536l-42 -237h-794l270 1536h257z" />
    <glyph glyph-name="lcaron" unicode="&#x13e;" horiz-adv-x="649" 
d="M581 967l228 321c-38 24 -66 84 -44 157c26 62 98 112 160 112c89 0 140 -57 140 -123c0 -34 -12 -70 -39 -102l-280 -365h-165zM68 0l270 1536h248l-270 -1536h-248z" />
    <glyph glyph-name="Ldot" unicode="&#x13f;" horiz-adv-x="1034" 
d="M635 1536l-227 -1299h536l-42 -237h-794l270 1536h257zM853 1049c72 0 128 -66 115 -140c-11 -59 -69 -103 -125 -103c-72 0 -126 61 -113 139c11 56 67 104 123 104z" />
    <glyph glyph-name="ldot" unicode="&#x140;" horiz-adv-x="753" 
d="M68 0l270 1536h248l-270 -1536h-248zM699 680c-82 0 -144 70 -129 159c13 64 77 119 141 119c82 0 146 -75 131 -160c-12 -67 -79 -118 -143 -118z" />
    <glyph glyph-name="Lslash" unicode="&#x141;" horiz-adv-x="1020" 
d="M408 237h536l-42 -237h-794l96 545l-123 -81l30 190l127 83l140 799h257l-106 -608l321 211l-31 -190l-324 -213z" />
    <glyph glyph-name="lslash" unicode="&#x142;" horiz-adv-x="634" 
d="M671 985l-32 -175l-150 -92l-126 -718h-248l96 547l-165 -102l32 177l164 100l143 814h248l-113 -644z" />
    <glyph glyph-name="Nacute" unicode="&#x143;" horiz-adv-x="1599" 
d="M1354 1936l-385 -293l-79 101l359 331zM1358 1536h257l-271 -1536h-135l-682 1038l-182 -1038h-256l270 1536h134l683 -1035z" />
    <glyph glyph-name="nacute" unicode="&#x144;" horiz-adv-x="1128" 
d="M1051 1363l-385 -293l-79 101l359 331zM729 981c200 0 332 -166 298 -367l-108 -614h-248l102 585c20 118 -44 180 -134 180c-108 0 -198 -80 -220 -177l-103 -588h-248l168 963h248l-14 -79c76 64 168 97 259 97z" />
    <glyph glyph-name="Ncommaaccent" unicode="&#x145;" horiz-adv-x="1599" 
d="M1358 1536h257l-271 -1536h-135l-682 1038l-182 -1038h-256l270 1536h134l683 -1035zM348 -559l285 466l180 -86l-344 -435z" />
    <glyph glyph-name="ncommaaccent" unicode="&#x146;" horiz-adv-x="1128" 
d="M729 981c200 0 332 -166 298 -367l-108 -614h-248l102 585c20 118 -44 180 -134 180c-108 0 -198 -80 -220 -177l-103 -588h-248l168 963h248l-14 -79c76 64 168 97 259 97zM148 -559l285 466l180 -86l-344 -435z" />
    <glyph glyph-name="Ncaron" unicode="&#x147;" horiz-adv-x="1599" 
d="M1088 1681h-185l-175 299l114 67l172 -219l252 219l101 -67zM1358 1536h257l-271 -1536h-135l-682 1038l-182 -1038h-256l270 1536h134l683 -1035z" />
    <glyph glyph-name="ncaron" unicode="&#x148;" horiz-adv-x="1128" 
d="M785 1108h-185l-175 299l114 67l172 -219l252 219l101 -67zM729 981c200 0 332 -166 298 -367l-108 -614h-248l102 585c20 118 -44 180 -134 180c-108 0 -198 -80 -220 -177l-103 -588h-248l168 963h248l-14 -79c76 64 168 97 259 97z" />
    <glyph glyph-name="Eng" unicode="&#x14a;" horiz-adv-x="1741" 
d="M1735 1536l-270 -1536h-2l-10 -62c-46 -263 -154 -392 -464 -392h-61l21 170c136 -1 214 36 248 234l8 50l4 2l-645 1134l-199 -1136h-257l270 1536h254l647 -1132l201 1132h255z" />
    <glyph glyph-name="eng" unicode="&#x14b;" horiz-adv-x="1128" 
d="M455 -476l16 188c142 -1 165 93 200 288l102 585c20 118 -44 180 -134 180c-109 0 -199 -81 -221 -179l-102 -586h-248l168 963h248l-14 -82c75 67 168 100 259 100c200 0 332 -166 298 -367l-108 -614c-56 -352 -140 -477 -464 -476z" />
    <glyph glyph-name="Omacron" unicode="&#x14c;" horiz-adv-x="1739" 
d="M773 1730l27 153h634l-27 -153h-634zM798 -20c-445 0 -741 360 -663 806c75 427 480 770 908 770c445 0 741 -360 663 -806c-75 -427 -480 -770 -908 -770zM815 230c309 0 587 245 639 556c48 292 -134 520 -427 520c-309 0 -588 -245 -640 -556
c-48 -292 135 -520 428 -520z" />
    <glyph glyph-name="omacron" unicode="&#x14d;" horiz-adv-x="1145" 
d="M374 1156l27 153h634l-27 -153h-634zM501 -18c-297 0 -486 230 -436 517c47 269 297 482 579 482c296 0 485 -230 435 -518c-47 -268 -298 -481 -578 -481zM507 205c157 0 308 127 338 294c27 149 -66 259 -207 259c-160 0 -310 -126 -339 -295
c-27 -150 64 -258 208 -258z" />
    <glyph glyph-name="Ohungarumlaut" unicode="&#x150;" horiz-adv-x="1739" 
d="M844 1677l-91 119l391 313l101 -131zM1266 1677l-93 119l392 313l101 -131zM798 -20c-445 0 -741 360 -663 806c75 427 480 770 908 770c445 0 741 -360 663 -806c-75 -427 -480 -770 -908 -770zM815 230c309 0 587 245 639 556c48 292 -134 520 -427 520
c-309 0 -588 -245 -640 -556c-48 -292 135 -520 428 -520z" />
    <glyph glyph-name="ohungarumlaut" unicode="&#x151;" horiz-adv-x="1145" 
d="M445 1103l-91 119l391 313l101 -131zM867 1103l-93 119l392 313l101 -131zM501 -18c-297 0 -486 230 -436 517c47 269 297 482 579 482c296 0 485 -230 435 -518c-47 -268 -298 -481 -578 -481zM507 205c157 0 308 127 338 294c27 149 -66 259 -207 259
c-160 0 -310 -126 -339 -295c-27 -150 64 -258 208 -258z" />
    <glyph glyph-name="OE" unicode="&#x152;" horiz-adv-x="2394" 
d="M2437 1307h-634l-75 -424h549l-41 -230h-548l-75 -424h634l-39 -229h-843l39 222c-167 -149 -383 -242 -606 -242c-445 0 -741 360 -663 806c75 427 480 770 908 770c237 0 431 -102 550 -264l43 244h842zM829 228c308 0 594 248 642 558c46 291 -150 522 -441 522
c-310 0 -596 -248 -644 -558c-46 -291 149 -522 443 -522z" />
    <glyph glyph-name="oe" unicode="&#x153;" horiz-adv-x="1933" 
d="M1452 982c286 0 471 -207 424 -499l-10 -45h-759c-16 -157 70 -255 210 -255c111 0 217 58 283 148l191 -100c-107 -159 -280 -249 -475 -249c-171 0 -302 69 -378 178c-111 -109 -265 -178 -426 -178c-300 0 -498 230 -448 517c47 269 307 482 592 482
c163 0 297 -69 376 -179c107 110 257 180 420 180zM1452 784c-125 0 -232 -70 -293 -179h485c-12 113 -75 179 -192 179zM523 199c163 0 319 134 345 301c22 148 -77 263 -223 263c-167 0 -322 -133 -348 -301c-23 -147 76 -263 226 -263z" />
    <glyph glyph-name="Racute" unicode="&#x154;" horiz-adv-x="1424" 
d="M1233 1936l-385 -293l-79 101l359 331zM1039 1536c266 0 434 -208 388 -464c-36 -201 -194 -360 -390 -407l230 -665h-271l-220 650h-299l-112 -650h-257l270 1536h661zM1183 1096c20 121 -46 207 -184 207h-409l-74 -429h358c161 0 284 80 309 222z" />
    <glyph glyph-name="racute" unicode="&#x155;" horiz-adv-x="791" 
d="M522 1070l-79 101l359 331l105 -139zM714 982c72 0 118 -25 154 -52l-110 -203c-34 19 -68 29 -103 29c-118 0 -226 -109 -259 -300l-80 -456h-248l168 963h249l-30 -145c56 92 147 164 259 164z" />
    <glyph glyph-name="Rcommaaccent" unicode="&#x156;" horiz-adv-x="1424" 
d="M1039 1536c266 0 434 -208 388 -464c-36 -201 -194 -360 -390 -407l230 -665h-271l-220 650h-299l-112 -650h-257l270 1536h661zM1183 1096c20 121 -46 207 -184 207h-409l-74 -429h358c161 0 284 80 309 222zM230 -559l285 466l180 -86l-344 -435z" />
    <glyph glyph-name="rcommaaccent" unicode="&#x157;" horiz-adv-x="791" 
d="M714 982c72 0 118 -25 154 -52l-110 -203c-34 19 -68 29 -103 29c-118 0 -226 -109 -259 -300l-80 -456h-248l168 963h249l-30 -145c56 92 147 164 259 164zM-34 -614l-121 55l285 466l180 -86z" />
    <glyph glyph-name="Rcaron" unicode="&#x158;" horiz-adv-x="1424" 
d="M967 1681h-185l-175 299l114 67l172 -219l252 219l101 -67zM1039 1536c266 0 434 -208 388 -464c-36 -201 -194 -360 -390 -407l230 -665h-271l-220 650h-299l-112 -650h-257l270 1536h661zM1183 1096c20 121 -46 207 -184 207h-409l-74 -429h358c161 0 284 80 309 222z
" />
    <glyph glyph-name="rcaron" unicode="&#x159;" horiz-adv-x="791" 
d="M456 1108l-175 299l114 67l172 -219l252 219l101 -67l-279 -299h-185zM714 982c72 0 118 -25 154 -52l-110 -203c-34 19 -68 29 -103 29c-118 0 -226 -109 -259 -300l-80 -456h-248l168 963h249l-30 -145c56 92 147 164 259 164z" />
    <glyph glyph-name="Sacute" unicode="&#x15a;" horiz-adv-x="1174" 
d="M771 1643l-79 101l359 331l105 -139zM529 -20c-255 0 -435 136 -520 262l196 164c75 -132 177 -204 324 -204c160 0 284 89 308 228c25 141 -108 193 -262 267c-183 83 -387 176 -339 457c46 255 276 402 519 402c213 0 350 -101 444 -224l-174 -144
c-91 125 -181 151 -274 151c-124 0 -240 -74 -261 -200c-23 -129 95 -183 235 -245c205 -85 417 -180 362 -487c-49 -280 -300 -427 -558 -427z" />
    <glyph glyph-name="sacute" unicode="&#x15b;" horiz-adv-x="920" 
d="M536 1074l-79 101l359 331l105 -139zM390 -19c-187 0 -314 70 -395 129l130 165c62 -56 170 -100 265 -100c101 0 178 49 191 124c13 71 -75 79 -186 117c-140 36 -295 94 -260 291c33 186 218 275 415 275c136 0 254 -43 339 -104l-128 -149c-69 49 -163 73 -229 73
c-92 0 -159 -41 -170 -105c-13 -69 90 -82 192 -115c168 -40 294 -108 259 -302c-34 -195 -199 -299 -423 -299z" />
    <glyph glyph-name="Scedilla" unicode="&#x15e;" horiz-adv-x="1174" 
d="M725 894c205 -85 417 -180 362 -487c-48 -273 -287 -419 -538 -427l-84 -105c139 25 239 -69 216 -206c-21 -114 -125 -202 -239 -202c-108 0 -206 73 -226 156l116 25c16 -36 63 -57 99 -57c60 0 120 51 131 114c12 72 -56 90 -162 47l-96 62l119 174
c-199 31 -341 146 -414 254l196 164c75 -132 177 -204 324 -204c160 0 284 89 308 228c25 141 -108 193 -262 267c-183 83 -387 176 -339 457c46 255 276 402 519 402c213 0 350 -101 444 -224l-174 -144c-91 125 -181 151 -274 151c-124 0 -240 -74 -261 -200
c-23 -129 95 -183 235 -245z" />
    <glyph glyph-name="scedilla" unicode="&#x15f;" horiz-adv-x="920" 
d="M554 582c168 -40 294 -108 259 -302c-31 -177 -170 -279 -362 -296l-83 -104c139 25 239 -69 216 -206c-21 -114 -125 -202 -239 -202c-108 0 -206 73 -226 156l116 25c16 -36 63 -57 99 -57c60 0 120 51 131 114c12 72 -56 90 -162 47l-96 62l113 165
c-149 15 -255 75 -325 126l130 165c62 -56 170 -100 265 -100c101 0 178 49 191 124c13 71 -75 79 -186 117c-140 36 -295 94 -260 291c33 186 218 275 415 275c136 0 254 -43 339 -104l-128 -149c-69 49 -163 73 -229 73c-92 0 -159 -41 -170 -105c-13 -69 90 -82 192 -115
z" />
    <glyph glyph-name="Scaron" unicode="&#x160;" horiz-adv-x="1174" 
d="M705 1681l-175 299l114 67l172 -219l252 219l101 -67l-279 -299h-185zM529 -20c-255 0 -435 136 -520 262l196 164c75 -132 177 -204 324 -204c160 0 284 89 308 228c25 141 -108 193 -262 267c-183 83 -387 176 -339 457c46 255 276 402 519 402
c213 0 350 -101 444 -224l-174 -144c-91 125 -181 151 -274 151c-124 0 -240 -74 -261 -200c-23 -129 95 -183 235 -245c205 -85 417 -180 362 -487c-49 -280 -300 -427 -558 -427z" />
    <glyph glyph-name="scaron" unicode="&#x161;" horiz-adv-x="920" 
d="M470 1112l-175 299l114 67l172 -219l252 219l101 -67l-279 -299h-185zM390 -19c-187 0 -314 70 -395 129l130 165c62 -56 170 -100 265 -100c101 0 178 49 191 124c13 71 -75 79 -186 117c-140 36 -295 94 -260 291c33 186 218 275 415 275c136 0 254 -43 339 -104
l-128 -149c-69 49 -163 73 -229 73c-92 0 -159 -41 -170 -105c-13 -69 90 -82 192 -115c168 -40 294 -108 259 -302c-34 -195 -199 -299 -423 -299z" />
    <glyph glyph-name="uni0162" unicode="&#x162;" horiz-adv-x="1132" 
d="M610 0h-63l-99 -124c139 25 239 -69 216 -206c-21 -114 -125 -202 -239 -202c-108 0 -206 73 -226 156l116 25c16 -36 63 -57 99 -57c60 0 120 51 131 114c12 72 -56 90 -162 47l-96 62l126 185h-59l229 1299h-405l42 237h1065l-43 -237h-403z" />
    <glyph glyph-name="uni0163" unicode="&#x163;" horiz-adv-x="680" 
d="M381 0h-58l-99 -124c139 25 239 -69 216 -206c-21 -114 -125 -202 -239 -202c-108 0 -206 73 -226 156l116 25c16 -36 63 -57 99 -57c60 0 120 51 131 114c12 72 -56 90 -162 47l-96 62l126 185h-57l133 762h-189l35 201h189l61 346h250l-61 -346h186l-35 -201h-186z" />
    <glyph glyph-name="Tcaron" unicode="&#x164;" horiz-adv-x="1132" 
d="M872 1681h-185l-175 299l114 67l172 -219l252 219l101 -67zM1285 1536l-43 -237h-403l-229 -1299h-256l229 1299h-405l42 237h1065z" />
    <glyph glyph-name="tcaron" unicode="&#x165;" horiz-adv-x="680" 
d="M994 1667c89 0 140 -57 140 -123c0 -34 -12 -70 -39 -102l-280 -365h-165l228 321c-38 24 -66 84 -44 157c26 62 98 112 160 112zM611 1309l-61 -346h186l-35 -201h-186l-134 -762h-249l133 762h-189l35 201h189l61 346h250z" />
    <glyph glyph-name="Tbar" unicode="&#x166;" horiz-adv-x="1132" 
d="M1242 1299h-403l-81 -458h199l-28 -158h-199l-120 -683h-256l120 683h-204l28 158h204l81 458h-405l42 237h1065z" />
    <glyph glyph-name="tbar" unicode="&#x167;" horiz-adv-x="680" 
d="M701 762h-186l-45 -254h138l-22 -158h-144l-61 -350h-249l61 350h-140l23 158h145l44 254h-189l35 201h189l61 346h250l-61 -346h186z" />
    <glyph glyph-name="Utilde" unicode="&#x168;" horiz-adv-x="1538" 
d="M1123 1633c-102 0 -141 55 -170 104c-22 35 -39 59 -77 59c-67 0 -114 -76 -130 -161l-137 17c29 164 123 290 268 290c92 0 131 -53 163 -104c20 -30 39 -59 83 -59c63 0 107 62 124 161l137 -18c-31 -171 -124 -289 -261 -289zM695 -20c-357 0 -586 230 -531 543
l180 1013h256l-174 -984c-35 -204 84 -335 277 -335c212 0 397 148 434 352l170 967h257l-183 -1030c-55 -313 -345 -526 -686 -526z" />
    <glyph glyph-name="utilde" unicode="&#x169;" horiz-adv-x="1087" 
d="M795 1060c-102 0 -141 55 -170 104c-22 35 -39 59 -77 59c-67 0 -114 -76 -130 -161l-137 17c29 164 123 290 268 290c92 0 131 -53 163 -104c20 -30 39 -59 83 -59c63 0 107 62 124 161l137 -18c-31 -171 -124 -289 -261 -289zM468 -19c-271 0 -404 156 -364 388
l104 594h248l-103 -589c-20 -119 32 -175 120 -175c107 0 200 73 221 192l99 572h249l-107 -611c-41 -232 -212 -371 -467 -371z" />
    <glyph glyph-name="Umacron" unicode="&#x16a;" horiz-adv-x="1538" 
d="M670 1730l27 153h634l-27 -153h-634zM695 -20c-357 0 -586 230 -531 543l180 1013h256l-174 -984c-35 -204 84 -335 277 -335c212 0 397 148 434 352l170 967h257l-183 -1030c-55 -313 -345 -526 -686 -526z" />
    <glyph glyph-name="umacron" unicode="&#x16b;" horiz-adv-x="1087" 
d="M342 1157l27 153h634l-27 -153h-634zM468 -19c-271 0 -404 156 -364 388l104 594h248l-103 -589c-20 -119 32 -175 120 -175c107 0 200 73 221 192l99 572h249l-107 -611c-41 -232 -212 -371 -467 -371z" />
    <glyph glyph-name="Uring" unicode="&#x16e;" horiz-adv-x="1538" 
d="M993 1665c-137 0 -232 115 -208 251c21 118 136 214 256 214c135 0 226 -113 202 -250c-20 -118 -132 -215 -250 -215zM991 1778c75 0 140 58 145 138c6 55 -36 105 -94 105c-75 0 -138 -67 -144 -141c-4 -61 35 -102 93 -102zM695 -20c-357 0 -586 230 -531 543
l180 1013h256l-174 -984c-35 -204 84 -335 277 -335c212 0 397 148 434 352l170 967h257l-183 -1030c-55 -313 -345 -526 -686 -526z" />
    <glyph glyph-name="uring" unicode="&#x16f;" horiz-adv-x="1087" 
d="M680 1108c-137 0 -231 115 -206 251c20 118 134 214 254 214c135 0 226 -113 204 -250c-22 -118 -134 -215 -252 -215zM678 1221c75 0 140 58 146 138c5 55 -36 105 -94 105c-75 0 -138 -67 -143 -141c-6 -61 33 -102 91 -102zM468 -19c-271 0 -404 156 -364 388l104 594
h248l-103 -589c-20 -119 32 -175 120 -175c107 0 200 73 221 192l99 572h249l-107 -611c-41 -232 -212 -371 -467 -371z" />
    <glyph glyph-name="Uhungarumlaut" unicode="&#x170;" horiz-adv-x="1538" 
d="M741 1677l-91 119l391 313l101 -131zM1163 1677l-93 119l392 313l101 -131zM695 -20c-357 0 -586 230 -531 543l180 1013h256l-174 -984c-35 -204 84 -335 277 -335c212 0 397 148 434 352l170 967h257l-183 -1030c-55 -313 -345 -526 -686 -526z" />
    <glyph glyph-name="uhungarumlaut" unicode="&#x171;" horiz-adv-x="1087" 
d="M413 1104l-91 119l391 313l101 -131zM835 1104l-93 119l392 313l101 -131zM468 -19c-271 0 -404 156 -364 388l104 594h248l-103 -589c-20 -119 32 -175 120 -175c107 0 200 73 221 192l99 572h249l-107 -611c-41 -232 -212 -371 -467 -371z" />
    <glyph glyph-name="Uogonek" unicode="&#x172;" horiz-adv-x="1538" 
d="M1307 1536h257l-183 -1030c-46 -260 -254 -452 -519 -508c-118 -60 -209 -138 -226 -231c-11 -64 24 -89 83 -89c68 0 141 38 199 90l83 -145c-96 -83 -210 -114 -309 -108c-159 10 -242 110 -216 251c15 87 71 159 159 216c-322 25 -523 246 -471 541l180 1013h256
l-174 -984c-35 -204 84 -335 277 -335c212 0 397 148 434 352z" />
    <glyph glyph-name="uogonek" unicode="&#x173;" horiz-adv-x="1087" 
d="M793 963h249l-107 -611c-36 -203 -172 -335 -377 -365c-146 -63 -269 -151 -289 -260c-11 -64 24 -89 83 -89c68 0 141 38 199 90l83 -145c-96 -83 -210 -114 -309 -108c-159 10 -242 110 -216 251c19 114 110 202 248 265c-196 38 -287 180 -253 378l104 594h248
l-103 -589c-20 -119 32 -175 120 -175c107 0 200 73 221 192z" />
    <glyph glyph-name="Wcircumflex" unicode="&#x174;" horiz-adv-x="2054" 
d="M1277 1860l-252 -219l-102 67l277 299h184l179 -299l-115 -67zM1963 1536h281l-860 -1536h-209l-130 573l-332 -573h-213l-314 1536h271l217 -1198l301 545l-148 653h257l67 -334l185 334h268l-386 -665l108 -533z" />
    <glyph glyph-name="wcircumflex" unicode="&#x175;" horiz-adv-x="1543" 
d="M921 1287l-252 -219l-102 67l277 299h184l179 -299l-115 -67zM1364 963h258l-508 -963h-202l-113 636l-341 -636h-202l-164 963h251l89 -634l339 634h165l112 -638z" />
    <glyph glyph-name="Ycircumflex" unicode="&#x176;" horiz-adv-x="1357" 
d="M927 1860l-252 -219l-102 67l277 299h184l179 -299l-115 -67zM1530 1536l-683 -815l-126 -721h-257l128 728l-393 808h295l264 -575l470 575h302z" />
    <glyph glyph-name="ycircumflex" unicode="&#x177;" horiz-adv-x="1051" 
d="M654 1287l-252 -219l-102 67l277 299h184l179 -299l-115 -67zM859 963h267l-839 -1455h-262l289 506l-222 949h269l127 -700z" />
    <glyph glyph-name="Ydieresis" unicode="&#x178;" horiz-adv-x="1357" 
d="M697 1647c-80 0 -139 68 -125 152c12 65 76 116 140 116c81 0 140 -68 125 -153c-12 -64 -75 -115 -140 -115zM1103 1647c-82 0 -140 68 -125 152c12 65 74 116 139 116c83 0 139 -68 125 -153c-12 -64 -73 -115 -139 -115zM1530 1536l-683 -815l-126 -721h-257l128 728
l-393 808h295l264 -575l470 575h302z" />
    <glyph glyph-name="Zacute" unicode="&#x179;" horiz-adv-x="1349" 
d="M1267 1936l-385 -293l-79 101l359 331zM1492 1536l-6 -50l-1071 -1249h814l-42 -237h-1237l6 56l1065 1243h-766l42 237h1195z" />
    <glyph glyph-name="zacute" unicode="&#x17a;" horiz-adv-x="974" 
d="M973 1363l-385 -293l-79 101l359 331zM1006 963l-620 -763h478l-35 -200h-872l617 762h-450l35 201h847z" />
    <glyph glyph-name="Zdotaccent" unicode="&#x17b;" horiz-adv-x="1349" 
d="M925 1692c-80 0 -138 70 -126 151c13 67 76 118 139 118c83 0 141 -68 125 -154c-10 -62 -72 -115 -138 -115zM1492 1536l-6 -50l-1071 -1249h814l-42 -237h-1237l6 56l1065 1243h-766l42 237h1195z" />
    <glyph glyph-name="zdotaccent" unicode="&#x17c;" horiz-adv-x="974" 
d="M631 1119c-80 0 -138 70 -126 151c13 67 76 118 139 118c83 0 141 -68 125 -154c-10 -62 -72 -115 -138 -115zM1006 963l-620 -763h478l-35 -200h-872l617 762h-450l35 201h847z" />
    <glyph glyph-name="Zcaron" unicode="&#x17d;" horiz-adv-x="1349" 
d="M1001 1681h-185l-175 299l114 67l172 -219l252 219l101 -67zM1492 1536l-6 -50l-1071 -1249h814l-42 -237h-1237l6 56l1065 1243h-766l42 237h1195z" />
    <glyph glyph-name="zcaron" unicode="&#x17e;" horiz-adv-x="974" 
d="M707 1108h-185l-175 299l114 67l172 -219l252 219l101 -67zM1006 963l-620 -763h478l-35 -200h-872l617 762h-450l35 201h847z" />
    <glyph glyph-name="florin" unicode="&#x192;" horiz-adv-x="1056" 
d="M841 1361c-104 0 -179 -73 -198 -187l-24 -150h278l-31 -206h-280l-212 -1330h-243l210 1330h-171l32 206h172l29 186c32 197 215 346 410 346c68 0 129 -18 153 -36l-22 -191c-27 23 -68 32 -103 32z" />
    <glyph glyph-name="Ohorn" unicode="&#x1a0;" horiz-adv-x="1739" 
d="M1776 1514h157l-23 -132c-33 -185 -133 -242 -222 -242h-14c44 -115 57 -248 32 -390c-75 -427 -480 -770 -908 -770c-445 0 -741 360 -663 806c75 427 480 770 908 770c267 0 481 -130 592 -330c73 9 117 71 124 141zM1454 786c48 292 -134 520 -427 520
c-309 0 -588 -245 -640 -556c-48 -292 135 -520 428 -520c309 0 587 245 639 556z" />
    <glyph glyph-name="ohorn" unicode="&#x1a1;" horiz-adv-x="1145" 
d="M1190 1031h157l-23 -132c-33 -185 -133 -242 -222 -242c-9 0 -18 0 -27 1c14 -60 16 -126 4 -195c-47 -268 -298 -481 -578 -481c-297 0 -486 230 -436 517c47 269 297 482 579 482c190 0 336 -95 403 -238c74 8 119 71 126 141zM845 499c27 149 -66 259 -207 259
c-160 0 -310 -126 -339 -295c-27 -150 64 -258 208 -258c157 0 308 127 338 294z" />
    <glyph glyph-name="Uhorn" unicode="&#x1af;" horiz-adv-x="1538" 
d="M1713 1682h157l-23 -132c-33 -185 -133 -242 -222 -242c-31 0 -65 6 -99 17l-145 -819c-55 -313 -345 -526 -686 -526c-357 0 -586 230 -531 543l180 1013h256l-174 -984c-35 -204 84 -335 277 -335c212 0 397 148 434 352l170 967h257l-25 -142c6 -1 11 -1 15 -1
c84 0 134 67 142 142z" />
    <glyph glyph-name="uhorn" unicode="&#x1b0;" horiz-adv-x="1087" 
d="M1169 962h157l-23 -132c-33 -185 -133 -242 -222 -242c-32 0 -67 6 -102 18l-44 -254c-41 -232 -212 -371 -467 -371c-271 0 -404 156 -364 388l104 594h248l-103 -589c-20 -119 32 -175 120 -175c107 0 200 73 221 192l99 572h249l-51 -289c8 -1 14 -1 19 -1
c84 0 134 67 142 142z" />
    <glyph glyph-name="uni01CD" unicode="&#x1cd;" horiz-adv-x="1408" 
d="M1011 1681h-185l-175 299l114 67l172 -219l252 219l101 -67zM1039 0l-43 240h-667l-128 -240h-284l873 1536h195l334 -1536h-280zM448 462h509l-128 714z" />
    <glyph glyph-name="uni01CE" unicode="&#x1ce;" horiz-adv-x="1256" 
d="M790 1110h-185l-175 299l114 67l172 -219l252 219l101 -67zM940 963h248l-168 -963h-232l15 125c-82 -84 -194 -144 -340 -144c-261 0 -445 223 -393 520c49 278 293 483 537 483c154 0 253 -65 310 -157zM532 202c164 0 313 133 338 299c24 147 -72 262 -219 262
c-162 0 -312 -133 -338 -298c-23 -147 74 -263 219 -263z" />
    <glyph glyph-name="uni01CF" unicode="&#x1cf;" horiz-adv-x="640" 
d="M440 1681l-175 299l114 67l172 -219l252 219l101 -67l-279 -299h-185zM108 0l270 1536h257l-270 -1536h-257z" />
    <glyph glyph-name="uni01D0" unicode="&#x1d0;" horiz-adv-x="551" 
d="M295 1108l-175 299l114 67l172 -219l252 219l101 -67l-279 -299h-185zM68 0l168 963h248l-168 -963h-248z" />
    <glyph glyph-name="uni01D1" unicode="&#x1d1;" horiz-adv-x="1739" 
d="M991 1681l-175 299l114 67l172 -219l252 219l101 -67l-279 -299h-185zM798 -20c-445 0 -741 360 -663 806c75 427 480 770 908 770c445 0 741 -360 663 -806c-75 -427 -480 -770 -908 -770zM815 230c309 0 587 245 639 556c48 292 -134 520 -427 520
c-309 0 -588 -245 -640 -556c-48 -292 135 -520 428 -520z" />
    <glyph glyph-name="uni01D2" unicode="&#x1d2;" horiz-adv-x="1145" 
d="M592 1107l-175 299l114 67l172 -219l252 219l101 -67l-279 -299h-185zM501 -18c-297 0 -486 230 -436 517c47 269 297 482 579 482c296 0 485 -230 435 -518c-47 -268 -298 -481 -578 -481zM507 205c157 0 308 127 338 294c27 149 -66 259 -207 259
c-160 0 -310 -126 -339 -295c-27 -150 64 -258 208 -258z" />
    <glyph glyph-name="uni01D3" unicode="&#x1d3;" horiz-adv-x="1538" 
d="M888 1681l-175 299l114 67l172 -219l252 219l101 -67l-279 -299h-185zM695 -20c-357 0 -586 230 -531 543l180 1013h256l-174 -984c-35 -204 84 -335 277 -335c212 0 397 148 434 352l170 967h257l-183 -1030c-55 -313 -345 -526 -686 -526z" />
    <glyph glyph-name="uni01D4" unicode="&#x1d4;" horiz-adv-x="1087" 
d="M560 1108l-175 299l114 67l172 -219l252 219l101 -67l-279 -299h-185zM468 -19c-271 0 -404 156 -364 388l104 594h248l-103 -589c-20 -119 32 -175 120 -175c107 0 200 73 221 192l99 572h249l-107 -611c-41 -232 -212 -371 -467 -371z" />
    <glyph glyph-name="uni01D5" unicode="&#x1d5;" horiz-adv-x="1538" 
d="M737 2109l27 153h634l-27 -153h-634zM786 1647c-80 0 -139 68 -125 152c12 65 76 116 140 116c81 0 140 -68 125 -153c-12 -64 -75 -115 -140 -115zM1192 1647c-82 0 -140 68 -125 152c12 65 74 116 139 116c83 0 139 -68 125 -153c-12 -64 -73 -115 -139 -115zM695 -20
c-357 0 -586 230 -531 543l180 1013h256l-174 -984c-35 -204 84 -335 277 -335c212 0 397 148 434 352l170 967h257l-183 -1030c-55 -313 -345 -526 -686 -526z" />
    <glyph glyph-name="uni01D6" unicode="&#x1d6;" horiz-adv-x="1087" 
d="M419 1597l27 153h634l-27 -153h-634zM469 1135c-81 0 -139 69 -124 152c11 66 74 116 138 116c82 0 140 -67 125 -152c-12 -64 -74 -116 -139 -116zM874 1135c-81 0 -139 69 -124 152c11 66 74 116 139 116c83 0 139 -67 124 -152c-12 -64 -72 -116 -139 -116zM468 -19
c-271 0 -404 156 -364 388l104 594h248l-103 -589c-20 -119 32 -175 120 -175c107 0 200 73 221 192l99 572h249l-107 -611c-41 -232 -212 -371 -467 -371z" />
    <glyph glyph-name="uni01D7" unicode="&#x1d7;" horiz-adv-x="1538" 
d="M1021 2022l-79 101l359 331l105 -139zM786 1647c-80 0 -139 68 -125 152c12 65 76 116 140 116c81 0 140 -68 125 -153c-12 -64 -75 -115 -140 -115zM1192 1647c-82 0 -140 68 -125 152c12 65 74 116 139 116c83 0 139 -68 125 -153c-12 -64 -73 -115 -139 -115zM695 -20
c-357 0 -586 230 -531 543l180 1013h256l-174 -984c-35 -204 84 -335 277 -335c212 0 397 148 434 352l170 967h257l-183 -1030c-55 -313 -345 -526 -686 -526z" />
    <glyph glyph-name="uni01D8" unicode="&#x1d8;" horiz-adv-x="1087" 
d="M703 1510l-79 101l359 331l105 -139zM469 1135c-81 0 -139 69 -124 152c11 66 74 116 138 116c82 0 140 -67 125 -152c-12 -64 -74 -116 -139 -116zM874 1135c-81 0 -139 69 -124 152c11 66 74 116 139 116c83 0 139 -67 124 -152c-12 -64 -72 -116 -139 -116zM468 -19
c-271 0 -404 156 -364 388l104 594h248l-103 -589c-20 -119 32 -175 120 -175c107 0 200 73 221 192l99 572h249l-107 -611c-41 -232 -212 -371 -467 -371z" />
    <glyph glyph-name="uni01D9" unicode="&#x1d9;" horiz-adv-x="1538" 
d="M955 2060l-175 299l114 67l172 -219l252 219l101 -67l-279 -299h-185zM786 1647c-80 0 -139 68 -125 152c12 65 76 116 140 116c81 0 140 -68 125 -153c-12 -64 -75 -115 -140 -115zM1192 1647c-82 0 -140 68 -125 152c12 65 74 116 139 116c83 0 139 -68 125 -153
c-12 -64 -73 -115 -139 -115zM695 -20c-357 0 -586 230 -531 543l180 1013h256l-174 -984c-35 -204 84 -335 277 -335c212 0 397 148 434 352l170 967h257l-183 -1030c-55 -313 -345 -526 -686 -526z" />
    <glyph glyph-name="uni01DA" unicode="&#x1da;" horiz-adv-x="1087" 
d="M637 1548l-175 299l114 67l172 -219l252 219l101 -67l-279 -299h-185zM469 1135c-81 0 -139 69 -124 152c11 66 74 116 138 116c82 0 140 -67 125 -152c-12 -64 -74 -116 -139 -116zM874 1135c-81 0 -139 69 -124 152c11 66 74 116 139 116c83 0 139 -67 124 -152
c-12 -64 -72 -116 -139 -116zM468 -19c-271 0 -404 156 -364 388l104 594h248l-103 -589c-20 -119 32 -175 120 -175c107 0 200 73 221 192l99 572h249l-107 -611c-41 -232 -212 -371 -467 -371z" />
    <glyph glyph-name="uni01DB" unicode="&#x1db;" horiz-adv-x="1538" 
d="M1056 2026l-299 289l145 139l252 -331zM786 1647c-80 0 -139 68 -125 152c12 65 76 116 140 116c81 0 140 -68 125 -153c-12 -64 -75 -115 -140 -115zM1192 1647c-82 0 -140 68 -125 152c12 65 74 116 139 116c83 0 139 -68 125 -153c-12 -64 -73 -115 -139 -115z
M695 -20c-357 0 -586 230 -531 543l180 1013h256l-174 -984c-35 -204 84 -335 277 -335c212 0 397 148 434 352l170 967h257l-183 -1030c-55 -313 -345 -526 -686 -526z" />
    <glyph glyph-name="uni01DC" unicode="&#x1dc;" horiz-adv-x="1087" 
d="M738 1514l-299 289l145 139l252 -331zM469 1135c-81 0 -139 69 -124 152c11 66 74 116 138 116c82 0 140 -67 125 -152c-12 -64 -74 -116 -139 -116zM874 1135c-81 0 -139 69 -124 152c11 66 74 116 139 116c83 0 139 -67 124 -152c-12 -64 -72 -116 -139 -116zM468 -19
c-271 0 -404 156 -364 388l104 594h248l-103 -589c-20 -119 32 -175 120 -175c107 0 200 73 221 192l99 572h249l-107 -611c-41 -232 -212 -371 -467 -371z" />
    <glyph glyph-name="Scommaaccent" unicode="&#x218;" horiz-adv-x="1174" 
d="M529 -20c-255 0 -435 136 -520 262l196 164c75 -132 177 -204 324 -204c160 0 284 89 308 228c25 141 -108 193 -262 267c-183 83 -387 176 -339 457c46 255 276 402 519 402c213 0 350 -101 444 -224l-174 -144c-91 125 -181 151 -274 151c-124 0 -240 -74 -261 -200
c-23 -129 95 -183 235 -245c205 -85 417 -180 362 -487c-49 -280 -300 -427 -558 -427zM272 -615l-121 55l285 466l180 -86z" />
    <glyph glyph-name="scommaaccent" unicode="&#x219;" horiz-adv-x="920" 
d="M390 -19c-187 0 -314 70 -395 129l130 165c62 -56 170 -100 265 -100c101 0 178 49 191 124c13 71 -75 79 -186 117c-140 36 -295 94 -260 291c33 186 218 275 415 275c136 0 254 -43 339 -104l-128 -149c-69 49 -163 73 -229 73c-92 0 -159 -41 -170 -105
c-13 -69 90 -82 192 -115c168 -40 294 -108 259 -302c-34 -195 -199 -299 -423 -299zM175 -610l-121 55l285 466l180 -86z" />
    <glyph glyph-name="uni021A" unicode="&#x21a;" horiz-adv-x="1132" 
d="M1285 1536l-43 -237h-403l-229 -1299h-256l229 1299h-405l42 237h1065zM134 -559l285 466l180 -86l-344 -435z" />
    <glyph glyph-name="uni021B" unicode="&#x21b;" horiz-adv-x="680" 
d="M736 963l-35 -201h-186l-134 -762h-249l133 762h-189l35 201h189l61 346h250l-61 -346h186zM-90 -559l285 466l180 -86l-344 -435z" />
    <glyph glyph-name="uni0237" unicode="&#x237;" horiz-adv-x="555" 
d="M-25 -512l263 1475h248l-262 -1475h-249z" />
    <glyph glyph-name="circumflex" unicode="&#x2c6;" horiz-adv-x="750" 
d="M291 1170l-102 67l277 299h184l179 -299l-115 -67l-171 219z" />
    <glyph glyph-name="caron" unicode="&#x2c7;" horiz-adv-x="753" 
d="M406 1169l-175 299l114 67l172 -219l252 219l101 -67l-279 -299h-185z" />
    <glyph glyph-name="breve" unicode="&#x2d8;" horiz-adv-x="888" 
d="M581 1189c-215 0 -349 127 -310 347h160c-18 -127 33 -210 154 -210c144 0 217 100 235 210h161c-39 -237 -198 -347 -400 -347z" />
    <glyph glyph-name="dotaccent" unicode="&#x2d9;" horiz-adv-x="494" 
d="M389 1192c-80 0 -138 70 -126 151c13 67 76 118 139 118c83 0 141 -68 125 -154c-10 -62 -72 -115 -138 -115z" />
    <glyph glyph-name="ring" unicode="&#x2da;" horiz-adv-x="652" 
d="M455 1108c-137 0 -231 115 -206 251c20 118 134 214 254 214c135 0 226 -113 204 -250c-22 -118 -134 -215 -252 -215zM453 1221c75 0 140 58 146 138c5 55 -36 105 -94 105c-75 0 -138 -67 -143 -141c-6 -61 33 -102 91 -102z" />
    <glyph glyph-name="ogonek" unicode="&#x2db;" horiz-adv-x="659" 
d="M158 -529c-158 10 -242 110 -216 251c25 149 173 253 353 331l127 -57c-160 -64 -299 -156 -320 -273c-11 -64 24 -89 83 -89c69 0 141 38 199 90l83 -145c-96 -83 -210 -114 -309 -108z" />
    <glyph glyph-name="tilde" unicode="&#x2dc;" horiz-adv-x="944" 
d="M756 1238c-102 0 -155 59 -181 131c-22 26 -38 32 -56 32c-66 0 -114 -76 -129 -161l-146 17c30 170 128 290 262 290c101 0 158 -63 182 -131c18 -15 30 -32 59 -32c64 0 110 62 127 161l145 -18c-29 -166 -121 -289 -263 -289z" />
    <glyph glyph-name="hungarumlaut" unicode="&#x2dd;" horiz-adv-x="502" 
d="M246 1131l-79 101l359 331l105 -139z" />
    <glyph glyph-name="gravecomb" unicode="&#x300;" 
d="M-1 1135l-299 289l145 139l252 -331z" />
    <glyph glyph-name="acutecomb" unicode="&#x301;" 
d="M-256 1131l-79 101l359 331l105 -139z" />
    <glyph glyph-name="uni0302" unicode="&#x302;" 
d="M-459 1170l-102 67l277 299h184l179 -299l-115 -67l-171 219z" />
    <glyph glyph-name="tildecomb" unicode="&#x303;" 
d="M-186 1238c-102 0 -141 55 -170 104c-22 35 -39 59 -77 59c-67 0 -114 -76 -130 -161l-137 17c29 164 123 290 268 290c92 0 131 -53 163 -104c20 -30 39 -59 83 -59c63 0 107 62 124 161l137 -18c-31 -171 -124 -289 -261 -289z" />
    <glyph glyph-name="uni0304" unicode="&#x304;" 
d="M-652 1218l27 153h634l-27 -153h-634z" />
    <glyph glyph-name="uni0306" unicode="&#x306;" 
d="M-308 1189c-215 0 -349 127 -310 335h160c-18 -115 33 -198 154 -198c143 0 217 100 235 198h160c-39 -225 -197 -335 -399 -335z" />
    <glyph glyph-name="uni0307" unicode="&#x307;" 
d="M-105 1192c-80 0 -138 70 -126 151c13 67 76 118 139 118c83 0 141 -68 125 -154c-10 -62 -72 -115 -138 -115z" />
    <glyph glyph-name="uni0308" unicode="&#x308;" 
d="M-522 1135c-81 0 -139 69 -124 152c11 66 74 116 138 116c82 0 140 -67 125 -152c-12 -64 -74 -116 -139 -116zM-117 1135c-81 0 -139 69 -124 152c11 66 74 116 139 116c83 0 139 -67 124 -152c-12 -64 -72 -116 -139 -116z" />
    <glyph glyph-name="hookabovecomb" unicode="&#x309;" 
d="M-279 1055l22 181c98 17 169 55 178 131c5 44 -24 73 -71 73c-44 0 -85 -18 -119 -46l-74 131c59 41 130 64 194 64c144 0 244 -102 219 -248c-16 -80 -71 -160 -188 -191l-24 -95h-137z" />
    <glyph glyph-name="uni030A" unicode="&#x30a;" 
d="M-197 1108c-137 0 -231 115 -206 251c20 118 134 214 254 214c135 0 226 -113 204 -250c-22 -118 -134 -215 -252 -215zM-199 1221c75 0 140 58 146 138c5 55 -36 105 -94 105c-75 0 -138 -67 -143 -141c-6 -61 33 -102 91 -102z" />
    <glyph glyph-name="uni030B" unicode="&#x30b;" 
d="M-685 1165l-91 119l391 313l101 -131zM-263 1165l-93 119l392 313l101 -131z" />
    <glyph glyph-name="uni030C" unicode="&#x30c;" 
d="M-347 1169l-175 299l114 67l172 -219l252 219l101 -67l-279 -299h-185z" />
    <glyph glyph-name="uni0312" unicode="&#x312;" 
d="M-63 1358c50 -25 82 -85 70 -151c-13 -71 -83 -130 -155 -130c-91 0 -150 74 -133 167c2 11 8 31 16 50l253 433h131z" />
    <glyph glyph-name="uni031B" unicode="&#x31b;" 
d="M-252 780c-68 0 -147 28 -212 73l59 37c37 -22 68 -25 82 -25c84 0 134 67 142 142l17 147h157l-23 -132c-33 -185 -133 -242 -222 -242z" />
    <glyph glyph-name="dotbelowcomb" unicode="&#x323;" 
d="M-406 -501c-82 0 -141 70 -126 154c12 66 76 120 141 120c83 0 142 -72 127 -156c-11 -65 -76 -118 -142 -118z" />
    <glyph glyph-name="uni0326" unicode="&#x326;" 
d="M-448 -292l-121 55l285 466l180 -86z" />
    <glyph glyph-name="uni0327" unicode="&#x327;" 
d="M-456 -532c-108 0 -206 73 -226 156l116 25c16 -36 63 -57 99 -57c60 0 120 51 131 114c12 72 -56 90 -162 47l-96 62l129 189h134l-102 -128c139 25 239 -69 216 -206c-21 -114 -125 -202 -239 -202z" />
    <glyph glyph-name="uni0328" unicode="&#x328;" 
d="M-502 -529c-159 10 -242 110 -216 251c25 149 173 253 387 317l93 -43c-160 -64 -299 -156 -320 -273c-11 -64 24 -89 83 -89c68 0 141 38 199 90l83 -145c-96 -83 -210 -114 -309 -108z" />
    <glyph glyph-name="uni0335" unicode="&#x335;" 
d="M-814 438l28 158h659l-28 -158h-659z" />
    <glyph glyph-name="uni0336" unicode="&#x336;" 
d="M-1647 470l22 125h1499l-22 -125h-1499z" />
    <glyph glyph-name="uni0337" unicode="&#x337;" 
d="M-712 228l29 181l706 464l-29 -182z" />
    <glyph glyph-name="uni0338" unicode="&#x338;" 
d="M-1232 -110l-124 78l1445 1659l121 -80z" />
    <glyph glyph-name="uni0394" unicode="&#x394;" horiz-adv-x="1557" 
d="M1099 1536l346 -1536h-1506l886 1536h274zM337 229h798l-216 1033z" />
    <glyph glyph-name="uni03A9" unicode="&#x3a9;" horiz-adv-x="1768" 
d="M18 0l37 211h278l11 17c-102 112 -192 338 -144 612c69 397 420 701 859 701c479 0 697 -352 631 -734c-42 -240 -196 -472 -351 -592l-6 -4h286l-37 -211h-645l21 162c194 98 395 318 449 631c51 288 -64 533 -351 533c-289 0 -533 -238 -592 -572
c-51 -289 63 -513 220 -600l-19 -154h-647z" />
    <glyph glyph-name="uni03BC" unicode="&#x3bc;" horiz-adv-x="1218" 
d="M902 963h247l-168 -963h-247l19 107c-82 -78 -186 -125 -295 -125c-78 0 -146 23 -201 63l-92 -526h-181l254 1444h248l-100 -573c-20 -112 47 -192 151 -192c128 0 249 97 268 209z" />
    <glyph glyph-name="pi" unicode="&#x3c0;" horiz-adv-x="1288" 
d="M59 9c106 201 230 546 285 769c-113 -8 -174 -19 -231 -42l-14 171c58 36 163 56 341 56h906l-54 -193h-162l-86 -489c-25 -139 -32 -229 -27 -290l-214 17c-19 38 -13 141 10 274l86 488l-338 -9c-47 -216 -169 -598 -274 -770z" />
    <glyph glyph-name="Wgrave" unicode="&#x1e80;" horiz-adv-x="2054" 
d="M1348 1744l-98 -97l-299 289l145 139zM1963 1536h281l-860 -1536h-209l-130 573l-332 -573h-213l-314 1536h271l217 -1198l301 545l-148 653h257l67 -334l185 334h268l-386 -665l108 -533z" />
    <glyph glyph-name="wgrave" unicode="&#x1e81;" horiz-adv-x="1543" 
d="M992 1171l-98 -97l-299 289l145 139zM1364 963h258l-508 -963h-202l-113 636l-341 -636h-202l-164 963h251l89 -634l339 634h165l112 -638z" />
    <glyph glyph-name="Wacute" unicode="&#x1e82;" horiz-adv-x="2054" 
d="M1600 1936l-385 -293l-79 101l359 331zM1963 1536h281l-860 -1536h-209l-130 573l-332 -573h-213l-314 1536h271l217 -1198l301 545l-148 653h257l67 -334l185 334h268l-386 -665l108 -533z" />
    <glyph glyph-name="wacute" unicode="&#x1e83;" horiz-adv-x="1543" 
d="M1244 1363l-385 -293l-79 101l359 331zM1364 963h258l-508 -963h-202l-113 636l-341 -636h-202l-164 963h251l89 -634l339 634h165l112 -638z" />
    <glyph glyph-name="Wdieresis" unicode="&#x1e84;" horiz-adv-x="2054" 
d="M1047 1647c-80 0 -139 68 -125 152c12 65 76 116 140 116c81 0 140 -68 125 -153c-12 -64 -75 -115 -140 -115zM1453 1647c-82 0 -140 68 -125 152c12 65 74 116 139 116c83 0 139 -68 125 -153c-12 -64 -73 -115 -139 -115zM1963 1536h281l-860 -1536h-209l-130 573
l-332 -573h-213l-314 1536h271l217 -1198l301 545l-148 653h257l67 -334l185 334h268l-386 -665l108 -533z" />
    <glyph glyph-name="wdieresis" unicode="&#x1e85;" horiz-adv-x="1543" 
d="M702 1135c-81 0 -139 69 -124 152c11 66 74 116 138 116c82 0 140 -67 125 -152c-12 -64 -74 -116 -139 -116zM1107 1135c-81 0 -139 69 -124 152c11 66 74 116 139 116c83 0 139 -67 124 -152c-12 -64 -72 -116 -139 -116zM1364 963h258l-508 -963h-202l-113 636
l-341 -636h-202l-164 963h251l89 -634l339 634h165l112 -638z" />
    <glyph glyph-name="uni1EA0" unicode="&#x1ea0;" horiz-adv-x="1408" 
d="M1319 0h-280l-43 240h-667l-128 -240h-284l873 1536h195zM448 462h509l-128 714zM582 -126c83 0 142 -72 127 -156c-11 -65 -76 -118 -142 -118c-82 0 -141 70 -126 154c12 66 76 120 141 120z" />
    <glyph glyph-name="uni1EA1" unicode="&#x1ea1;" horiz-adv-x="1256" 
d="M940 963h248l-168 -963h-232l15 125c-82 -84 -194 -144 -340 -144c-261 0 -445 223 -393 520c49 278 293 483 537 483c154 0 253 -65 310 -157zM532 202c164 0 313 133 338 299c24 147 -72 262 -219 262c-162 0 -312 -133 -338 -298c-23 -147 74 -263 219 -263zM504 -126
c83 0 142 -72 127 -156c-11 -65 -76 -118 -142 -118c-82 0 -141 70 -126 154c12 66 76 120 141 120z" />
    <glyph glyph-name="uni1EA2" unicode="&#x1ea2;" horiz-adv-x="1408" 
d="M968 2013c-44 0 -85 -18 -119 -46l-74 131c59 41 130 64 194 64c144 0 244 -102 219 -248c-16 -80 -71 -160 -188 -191l-24 -95h-137l22 181c98 17 169 55 178 131c5 44 -24 73 -71 73zM1039 0l-43 240h-667l-128 -240h-284l873 1536h195l334 -1536h-280zM448 462h509
l-128 714z" />
    <glyph glyph-name="uni1EA3" unicode="&#x1ea3;" horiz-adv-x="1256" 
d="M747 1442c-44 0 -85 -18 -119 -46l-74 131c59 41 130 64 194 64c144 0 244 -102 219 -248c-16 -80 -71 -160 -188 -191l-24 -95h-137l22 181c98 17 169 55 178 131c5 44 -24 73 -71 73zM940 963h248l-168 -963h-232l15 125c-82 -84 -194 -144 -340 -144
c-261 0 -445 223 -393 520c49 278 293 483 537 483c154 0 253 -65 310 -157zM532 202c164 0 313 133 338 299c24 147 -72 262 -219 262c-162 0 -312 -133 -338 -298c-23 -147 74 -263 219 -263z" />
    <glyph glyph-name="uni1EA4" unicode="&#x1ea4;" horiz-adv-x="1408" 
d="M1358 2407l-385 -293l-79 101l359 331zM954 1860l-252 -219l-102 67l277 299h184l179 -299l-115 -67zM790 1536h195l334 -1536h-280l-43 240h-667l-128 -240h-284zM448 462h509l-128 714z" />
    <glyph glyph-name="uni1EA5" unicode="&#x1ea5;" horiz-adv-x="1256" 
d="M1137 1836l-385 -293l-79 101l359 331zM733 1289l-252 -219l-102 67l277 299h184l179 -299l-115 -67zM940 963h248l-168 -963h-232l15 125c-82 -84 -194 -144 -340 -144c-261 0 -445 223 -393 520c49 278 293 483 537 483c154 0 253 -65 310 -157zM532 202
c164 0 313 133 338 299c24 147 -72 262 -219 262c-162 0 -312 -133 -338 -298c-23 -147 74 -263 219 -263z" />
    <glyph glyph-name="uni1EA6" unicode="&#x1ea6;" horiz-adv-x="1408" 
d="M1106 2215l-98 -97l-298 289l145 139zM954 1860l-252 -219l-102 67l276 299h185l178 -299l-115 -67zM1039 0l-43 240h-667l-128 -240h-284l873 1536h195l334 -1536h-280zM448 462h509l-128 714z" />
    <glyph glyph-name="uni1EA7" unicode="&#x1ea7;" horiz-adv-x="1256" 
d="M885 1644l-98 -97l-298 289l145 139zM733 1289l-252 -219l-102 67l276 299h185l178 -299l-115 -67zM940 963h248l-168 -963h-232l15 125c-82 -84 -194 -144 -340 -144c-261 0 -445 223 -393 520c49 278 293 483 537 483c154 0 253 -65 310 -157zM532 202
c164 0 313 133 338 299c24 147 -72 262 -219 262c-162 0 -312 -133 -338 -298c-23 -147 74 -263 219 -263z" />
    <glyph glyph-name="uni1EA8" unicode="&#x1ea8;" horiz-adv-x="1408" 
d="M1057 2490c-47 0 -89 -21 -126 -52l-74 131c58 42 131 65 194 65c144 0 243 -103 217 -248c-13 -80 -69 -161 -187 -191l-25 -96h-136l22 181c98 17 165 65 178 141c7 39 -12 69 -63 69zM954 1860l-252 -219l-102 67l276 299h185l178 -299l-115 -67zM1039 0l-43 240h-667
l-128 -240h-284l873 1536h195l334 -1536h-280zM448 462h509l-128 714z" />
    <glyph glyph-name="uni1EA9" unicode="&#x1ea9;" horiz-adv-x="1256" 
d="M836 1919c-47 0 -89 -21 -126 -52l-74 131c58 42 131 65 194 65c144 0 243 -103 217 -248c-13 -80 -69 -161 -187 -191l-25 -96h-136l22 181c98 17 165 65 178 141c7 39 -12 69 -63 69zM733 1289l-252 -219l-102 67l276 299h185l178 -299l-115 -67zM940 963h248
l-168 -963h-232l15 125c-82 -84 -194 -144 -340 -144c-261 0 -445 223 -393 520c49 278 293 483 537 483c154 0 253 -65 310 -157zM532 202c164 0 313 133 338 299c24 147 -72 262 -219 262c-162 0 -312 -133 -338 -298c-23 -147 74 -263 219 -263z" />
    <glyph glyph-name="uni1EAA" unicode="&#x1eaa;" horiz-adv-x="1408" 
d="M905 2267c-67 0 -116 -76 -131 -161l-146 17c30 171 127 290 262 290c101 0 157 -63 183 -131c16 -15 29 -32 58 -32c64 0 109 63 127 161l145 -17c-29 -167 -122 -290 -264 -290c-101 0 -154 59 -180 131c-22 26 -37 32 -54 32zM954 1860l-252 -219l-102 67l276 299h185
l178 -299l-115 -67zM790 1536h195l334 -1536h-280l-43 240h-667l-128 -240h-284zM448 462h509l-128 714z" />
    <glyph glyph-name="uni1EAB" unicode="&#x1eab;" horiz-adv-x="1256" 
d="M684 1696c-67 0 -116 -76 -131 -161l-146 17c30 171 127 290 262 290c101 0 157 -63 183 -131c16 -15 29 -32 58 -32c64 0 109 63 127 161l145 -17c-29 -167 -122 -290 -264 -290c-101 0 -154 59 -180 131c-22 26 -37 32 -54 32zM733 1289l-252 -219l-102 67l276 299h185
l178 -299l-115 -67zM940 963h248l-168 -963h-232l15 125c-82 -84 -194 -144 -340 -144c-261 0 -445 223 -393 520c49 278 293 483 537 483c154 0 253 -65 310 -157zM532 202c164 0 313 133 338 299c24 147 -72 262 -219 262c-162 0 -312 -133 -338 -298
c-23 -147 74 -263 219 -263z" />
    <glyph glyph-name="uni1EAC" unicode="&#x1eac;" horiz-adv-x="1408" 
d="M954 1860l-252 -219l-102 67l277 299h184l179 -299l-115 -67zM1319 0h-280l-43 240h-667l-128 -240h-284l873 1536h195zM448 462h509l-128 714zM582 -126c83 0 142 -72 127 -156c-11 -65 -76 -118 -142 -118c-82 0 -141 70 -126 154c12 66 76 120 141 120z" />
    <glyph glyph-name="uni1EAD" unicode="&#x1ead;" horiz-adv-x="1256" 
d="M733 1289l-252 -219l-102 67l277 299h184l179 -299l-115 -67zM940 963h248l-168 -963h-232l15 125c-82 -84 -194 -144 -340 -144c-261 0 -445 223 -393 520c49 278 293 483 537 483c154 0 253 -65 310 -157zM532 202c164 0 313 133 338 299c24 147 -72 262 -219 262
c-162 0 -312 -133 -338 -298c-23 -147 74 -263 219 -263zM504 -126c83 0 142 -72 127 -156c-11 -65 -76 -118 -142 -118c-82 0 -141 70 -126 154c12 66 76 120 141 120z" />
    <glyph glyph-name="uni1EAE" unicode="&#x1eae;" horiz-adv-x="1408" 
d="M1361 2411l-385 -293l-79 101l359 331zM939 1838c143 0 217 100 235 198h160c-39 -225 -197 -335 -399 -335c-215 0 -349 127 -310 335h160c-18 -115 33 -198 154 -198zM790 1536h195l334 -1536h-280l-43 240h-667l-128 -240h-284zM448 462h509l-128 714z" />
    <glyph glyph-name="uni1EAF" unicode="&#x1eaf;" horiz-adv-x="1256" 
d="M1140 1840l-385 -293l-79 101l359 331zM714 1130c-215 0 -349 127 -310 335h160c-18 -115 33 -198 154 -198c143 0 217 100 235 198h160c-39 -225 -197 -335 -399 -335zM940 963h248l-168 -963h-232l15 125c-82 -84 -194 -144 -340 -144c-261 0 -445 223 -393 520
c49 278 293 483 537 483c154 0 253 -65 310 -157zM532 202c164 0 313 133 338 299c24 147 -72 262 -219 262c-162 0 -312 -133 -338 -298c-23 -147 74 -263 219 -263z" />
    <glyph glyph-name="uni1EB0" unicode="&#x1eb0;" horiz-adv-x="1408" 
d="M1109 2219l-98 -97l-299 289l145 139zM935 1701c-215 0 -349 127 -310 335h160c-18 -115 33 -198 154 -198c143 0 217 100 235 198h160c-39 -225 -197 -335 -399 -335zM790 1536h195l334 -1536h-280l-43 240h-667l-128 -240h-284zM448 462h509l-128 714z" />
    <glyph glyph-name="uni1EB1" unicode="&#x1eb1;" horiz-adv-x="1256" 
d="M888 1648l-98 -97l-299 289l145 139zM714 1130c-215 0 -349 127 -310 335h160c-18 -115 33 -198 154 -198c143 0 217 100 235 198h160c-39 -225 -197 -335 -399 -335zM940 963h248l-168 -963h-232l15 125c-82 -84 -194 -144 -340 -144c-261 0 -445 223 -393 520
c49 278 293 483 537 483c154 0 253 -65 310 -157zM532 202c164 0 313 133 338 299c24 147 -72 262 -219 262c-162 0 -312 -133 -338 -298c-23 -147 74 -263 219 -263z" />
    <glyph glyph-name="uni1EB2" unicode="&#x1eb2;" horiz-adv-x="1408" 
d="M1052 2488c-44 0 -85 -18 -119 -46l-74 131c59 41 130 64 194 64c144 0 244 -102 219 -248c-16 -80 -71 -160 -188 -191l-24 -95h-137l22 181c98 17 169 55 178 131c5 44 -24 73 -71 73zM935 1701c-215 0 -349 127 -310 335h160c-18 -115 33 -198 154 -198
c143 0 217 100 235 198h160c-39 -225 -197 -335 -399 -335zM790 1536h195l334 -1536h-280l-43 240h-667l-128 -240h-284zM448 462h509l-128 714z" />
    <glyph glyph-name="uni1EB3" unicode="&#x1eb3;" horiz-adv-x="1256" 
d="M831 1917c-44 0 -85 -18 -119 -46l-74 131c59 41 130 64 194 64c144 0 244 -102 219 -248c-16 -80 -71 -160 -188 -191l-24 -95h-137l22 181c98 17 169 55 178 131c5 44 -24 73 -71 73zM714 1130c-215 0 -349 127 -310 335h160c-18 -115 33 -198 154 -198
c143 0 217 100 235 198h160c-39 -225 -197 -335 -399 -335zM940 963h248l-168 -963h-232l15 125c-82 -84 -194 -144 -340 -144c-261 0 -445 223 -393 520c49 278 293 483 537 483c154 0 253 -65 310 -157zM532 202c164 0 313 133 338 299c24 147 -72 262 -219 262
c-162 0 -312 -133 -338 -298c-23 -147 74 -263 219 -263z" />
    <glyph glyph-name="uni1EB4" unicode="&#x1eb4;" horiz-adv-x="1408" 
d="M898 2271c-67 0 -114 -76 -130 -161l-137 17c29 164 123 290 268 290c92 0 131 -53 163 -104c20 -30 39 -59 83 -59c63 0 107 62 124 161l137 -18c-31 -171 -124 -289 -261 -289c-102 0 -141 55 -170 104c-22 35 -39 59 -77 59zM939 1838c143 0 217 100 235 198h160
c-39 -225 -197 -335 -399 -335c-215 0 -349 127 -310 335h160c-18 -115 33 -198 154 -198zM790 1536h195l334 -1536h-280l-43 240h-667l-128 -240h-284zM448 462h509l-128 714z" />
    <glyph glyph-name="uni1EB5" unicode="&#x1eb5;" horiz-adv-x="1256" 
d="M677 1700c-67 0 -114 -76 -130 -161l-137 17c29 164 123 290 268 290c92 0 131 -53 163 -104c20 -30 39 -59 83 -59c63 0 107 62 124 161l137 -18c-31 -171 -124 -289 -261 -289c-102 0 -141 55 -170 104c-22 35 -39 59 -77 59zM714 1130c-215 0 -349 127 -310 335h160
c-18 -115 33 -198 154 -198c143 0 217 100 235 198h160c-39 -225 -197 -335 -399 -335zM940 963h248l-168 -963h-232l15 125c-82 -84 -194 -144 -340 -144c-261 0 -445 223 -393 520c49 278 293 483 537 483c154 0 253 -65 310 -157zM532 202c164 0 313 133 338 299
c24 147 -72 262 -219 262c-162 0 -312 -133 -338 -298c-23 -147 74 -263 219 -263z" />
    <glyph glyph-name="uni1EB6" unicode="&#x1eb6;" horiz-adv-x="1408" 
d="M935 1701c-215 0 -349 127 -310 335h160c-18 -115 33 -198 154 -198c143 0 217 100 235 198h160c-39 -225 -197 -335 -399 -335zM790 1536h195l334 -1536h-280l-43 240h-667l-128 -240h-284zM448 462h509l-128 714zM582 -126c83 0 142 -72 127 -156
c-11 -65 -76 -118 -142 -118c-82 0 -141 70 -126 154c12 66 76 120 141 120z" />
    <glyph glyph-name="uni1EB7" unicode="&#x1eb7;" horiz-adv-x="1256" 
d="M714 1130c-215 0 -349 127 -310 335h160c-18 -115 33 -198 154 -198c143 0 217 100 235 198h160c-39 -225 -197 -335 -399 -335zM940 963h248l-168 -963h-232l15 125c-82 -84 -194 -144 -340 -144c-261 0 -445 223 -393 520c49 278 293 483 537 483
c154 0 253 -65 310 -157zM532 202c164 0 313 133 338 299c24 147 -72 262 -219 262c-162 0 -312 -133 -338 -298c-23 -147 74 -263 219 -263zM504 -126c83 0 142 -72 127 -156c-11 -65 -76 -118 -142 -118c-82 0 -141 70 -126 154c12 66 76 120 141 120z" />
    <glyph glyph-name="uni1EB8" unicode="&#x1eb8;" horiz-adv-x="1195" 
d="M1237 1303h-644l-73 -418h558l-42 -234h-558l-73 -418h644l-40 -233h-901l270 1536h901zM519 -126c83 0 142 -72 127 -156c-11 -65 -76 -118 -142 -118c-82 0 -141 70 -126 154c12 66 76 120 141 120z" />
    <glyph glyph-name="uni1EB9" unicode="&#x1eb9;" horiz-adv-x="1127" 
d="M645 982c286 0 476 -207 424 -499l-7 -45h-762c-16 -157 70 -255 210 -255c107 0 209 55 277 139l195 -93c-107 -158 -278 -247 -472 -247c-314 0 -493 230 -443 516c47 270 293 484 578 484zM646 784c-126 0 -233 -70 -294 -179h488c-13 102 -81 179 -194 179zM468 -127
c83 0 142 -72 127 -156c-11 -65 -76 -118 -142 -118c-82 0 -141 70 -126 154c12 66 76 120 141 120z" />
    <glyph glyph-name="uni1EBA" unicode="&#x1eba;" horiz-adv-x="1195" 
d="M906 2013c-44 0 -85 -18 -119 -46l-74 131c59 41 130 64 194 64c144 0 244 -102 219 -248c-16 -80 -71 -160 -188 -191l-24 -95h-137l22 181c98 17 169 55 178 131c5 44 -24 73 -71 73zM1237 1303h-644l-73 -418h558l-42 -234h-558l-73 -418h644l-40 -233h-901l270 1536
h901z" />
    <glyph glyph-name="uni1EBB" unicode="&#x1ebb;" horiz-adv-x="1127" 
d="M746 1446c-44 0 -85 -18 -119 -46l-74 131c59 41 130 64 194 64c144 0 244 -102 219 -248c-16 -80 -71 -160 -188 -191l-24 -95h-137l22 181c98 17 169 55 178 131c5 44 -24 73 -71 73zM645 982c286 0 476 -207 424 -499l-7 -45h-762c-16 -157 70 -255 210 -255
c107 0 209 55 277 139l195 -93c-107 -158 -278 -247 -472 -247c-314 0 -493 230 -443 516c47 270 293 484 578 484zM646 784c-126 0 -233 -70 -294 -179h488c-13 102 -81 179 -194 179z" />
    <glyph glyph-name="uni1EBC" unicode="&#x1ebc;" horiz-adv-x="1195" 
d="M752 1796c-67 0 -114 -76 -130 -161l-137 17c29 164 123 290 268 290c92 0 131 -53 163 -104c20 -30 39 -59 83 -59c63 0 107 62 124 161l137 -18c-31 -171 -124 -289 -261 -289c-102 0 -141 55 -170 104c-22 35 -39 59 -77 59zM1237 1303h-644l-73 -418h558l-42 -234
h-558l-73 -418h644l-40 -233h-901l270 1536h901z" />
    <glyph glyph-name="uni1EBD" unicode="&#x1ebd;" horiz-adv-x="1127" 
d="M592 1229c-67 0 -114 -76 -130 -161l-137 17c29 164 123 290 268 290c92 0 131 -53 163 -104c20 -30 39 -59 83 -59c63 0 107 62 124 161l137 -18c-31 -171 -124 -289 -261 -289c-102 0 -141 55 -170 104c-22 35 -39 59 -77 59zM645 982c286 0 476 -207 424 -499l-7 -45
h-762c-16 -157 70 -255 210 -255c107 0 209 55 277 139l195 -93c-107 -158 -278 -247 -472 -247c-314 0 -493 230 -443 516c47 270 293 484 578 484zM646 784c-126 0 -233 -70 -294 -179h488c-13 102 -81 179 -194 179z" />
    <glyph glyph-name="uni1EBE" unicode="&#x1ebe;" horiz-adv-x="1195" 
d="M1296 2407l-385 -293l-79 101l359 331zM892 1860l-252 -219l-102 67l277 299h184l179 -299l-115 -67zM108 0l270 1536h901l-42 -233h-644l-73 -418h558l-42 -234h-558l-73 -418h644l-40 -233h-901z" />
    <glyph glyph-name="uni1EBF" unicode="&#x1ebf;" horiz-adv-x="1127" 
d="M1136 1840l-385 -293l-79 101l359 331zM732 1293l-252 -219l-102 67l277 299h184l179 -299l-115 -67zM645 982c286 0 476 -207 424 -499l-7 -45h-762c-16 -157 70 -255 210 -255c107 0 209 55 277 139l195 -93c-107 -158 -278 -247 -472 -247c-314 0 -493 230 -443 516
c47 270 293 484 578 484zM646 784c-126 0 -233 -70 -294 -179h488c-13 102 -81 179 -194 179z" />
    <glyph glyph-name="uni1EC0" unicode="&#x1ec0;" horiz-adv-x="1195" 
d="M1044 2215l-98 -97l-298 289l145 139zM892 1860l-252 -219l-102 67l276 299h185l178 -299l-115 -67zM1237 1303h-644l-73 -418h558l-42 -234h-558l-73 -418h644l-40 -233h-901l270 1536h901z" />
    <glyph glyph-name="uni1EC1" unicode="&#x1ec1;" horiz-adv-x="1127" 
d="M884 1648l-98 -97l-298 289l145 139zM732 1293l-252 -219l-102 67l276 299h185l178 -299l-115 -67zM645 982c286 0 476 -207 424 -499l-7 -45h-762c-16 -157 70 -255 210 -255c107 0 209 55 277 139l195 -93c-107 -158 -278 -247 -472 -247c-314 0 -493 230 -443 516
c47 270 293 484 578 484zM646 784c-126 0 -233 -70 -294 -179h488c-13 102 -81 179 -194 179z" />
    <glyph glyph-name="uni1EC2" unicode="&#x1ec2;" horiz-adv-x="1195" 
d="M995 2490c-47 0 -89 -21 -126 -52l-74 131c58 42 131 65 194 65c144 0 243 -103 217 -248c-13 -80 -69 -161 -187 -191l-25 -96h-136l22 181c98 17 165 65 178 141c7 39 -12 69 -63 69zM892 1860l-252 -219l-102 67l276 299h185l178 -299l-115 -67zM1237 1303h-644
l-73 -418h558l-42 -234h-558l-73 -418h644l-40 -233h-901l270 1536h901z" />
    <glyph glyph-name="uni1EC3" unicode="&#x1ec3;" horiz-adv-x="1127" 
d="M835 1923c-47 0 -89 -21 -126 -52l-74 131c58 42 131 65 194 65c144 0 243 -103 217 -248c-13 -80 -69 -161 -187 -191l-25 -96h-136l22 181c98 17 165 65 178 141c7 39 -12 69 -63 69zM732 1293l-252 -219l-102 67l276 299h185l178 -299l-115 -67zM645 982
c286 0 476 -207 424 -499l-7 -45h-762c-16 -157 70 -255 210 -255c107 0 209 55 277 139l195 -93c-107 -158 -278 -247 -472 -247c-314 0 -493 230 -443 516c47 270 293 484 578 484zM646 784c-126 0 -233 -70 -294 -179h488c-13 102 -81 179 -194 179z" />
    <glyph glyph-name="uni1EC4" unicode="&#x1ec4;" horiz-adv-x="1195" 
d="M843 2267c-67 0 -116 -76 -131 -161l-146 17c30 171 127 290 262 290c101 0 157 -63 183 -131c16 -15 29 -32 58 -32c64 0 109 63 127 161l145 -17c-29 -167 -122 -290 -264 -290c-101 0 -154 59 -180 131c-22 26 -37 32 -54 32zM892 1860l-252 -219l-102 67l276 299h185
l178 -299l-115 -67zM108 0l270 1536h901l-42 -233h-644l-73 -418h558l-42 -234h-558l-73 -418h644l-40 -233h-901z" />
    <glyph glyph-name="uni1EC5" unicode="&#x1ec5;" horiz-adv-x="1127" 
d="M1036 1844l145 -17c-29 -167 -122 -290 -264 -290c-101 0 -154 59 -180 131c-22 26 -37 32 -54 32c-67 0 -116 -76 -131 -161l-146 17c30 171 127 290 262 290c101 0 157 -63 183 -131c16 -15 29 -32 58 -32c64 0 109 63 127 161zM902 1074l-170 219l-252 -219l-102 67
l276 299h185l178 -299zM645 982c286 0 476 -207 424 -499l-7 -45h-762c-16 -157 70 -255 210 -255c107 0 209 55 277 139l195 -93c-107 -158 -278 -247 -472 -247c-314 0 -493 230 -443 516c47 270 293 484 578 484zM646 784c-126 0 -233 -70 -294 -179h488
c-13 102 -81 179 -194 179z" />
    <glyph glyph-name="uni1EC6" unicode="&#x1ec6;" horiz-adv-x="1195" 
d="M892 1860l-252 -219l-102 67l277 299h184l179 -299l-115 -67zM1237 1303h-644l-73 -418h558l-42 -234h-558l-73 -418h644l-40 -233h-901l270 1536h901zM519 -126c83 0 142 -72 127 -156c-11 -65 -76 -118 -142 -118c-82 0 -141 70 -126 154c12 66 76 120 141 120z" />
    <glyph glyph-name="uni1EC7" unicode="&#x1ec7;" horiz-adv-x="1127" 
d="M732 1293l-252 -219l-102 67l277 299h184l179 -299l-115 -67zM645 982c286 0 476 -207 424 -499l-7 -45h-762c-16 -157 70 -255 210 -255c107 0 209 55 277 139l195 -93c-107 -158 -278 -247 -472 -247c-314 0 -493 230 -443 516c47 270 293 484 578 484zM646 784
c-126 0 -233 -70 -294 -179h488c-13 102 -81 179 -194 179zM468 -127c83 0 142 -72 127 -156c-11 -65 -76 -118 -142 -118c-82 0 -141 70 -126 154c12 66 76 120 141 120z" />
    <glyph glyph-name="uni1EC8" unicode="&#x1ec8;" horiz-adv-x="640" 
d="M453 1628l22 181c98 17 169 55 178 131c5 44 -24 73 -71 73c-44 0 -85 -18 -119 -46l-74 131c59 41 130 64 194 64c144 0 244 -102 219 -248c-16 -80 -71 -160 -188 -191l-24 -95h-137zM108 0l270 1536h257l-270 -1536h-257z" />
    <glyph glyph-name="uni1EC9" unicode="&#x1ec9;" horiz-adv-x="551" 
d="M308 1055l22 181c98 17 169 55 178 131c5 44 -24 73 -71 73c-44 0 -85 -18 -119 -46l-74 131c59 41 130 64 194 64c144 0 244 -102 219 -248c-16 -80 -71 -160 -188 -191l-24 -95h-137zM68 0l168 963h248l-168 -963h-248z" />
    <glyph glyph-name="uni1ECA" unicode="&#x1eca;" horiz-adv-x="640" 
d="M108 0l270 1536h257l-270 -1536h-257zM181 -400c-82 0 -141 70 -126 154c12 66 76 120 141 120c83 0 142 -72 127 -156c-11 -65 -76 -118 -142 -118z" />
    <glyph glyph-name="uni1ECB" unicode="&#x1ecb;" horiz-adv-x="549" 
d="M407 1132c-87 0 -148 73 -134 162c13 71 80 125 152 125c86 0 148 -71 131 -161c-12 -70 -78 -126 -149 -126zM68 0l168 963h246l-168 -963h-246zM90 -501c-82 0 -141 70 -126 154c12 66 76 120 141 120c83 0 142 -72 127 -156c-11 -65 -76 -118 -142 -118z" />
    <glyph glyph-name="uni1ECC" unicode="&#x1ecc;" horiz-adv-x="1739" 
d="M798 -20c-445 0 -741 360 -663 806c75 427 480 770 908 770c445 0 741 -360 663 -806c-75 -427 -480 -770 -908 -770zM815 230c309 0 587 245 639 556c48 292 -134 520 -427 520c-309 0 -588 -245 -640 -556c-48 -292 135 -520 428 -520zM732 -400
c-82 0 -141 70 -126 154c12 66 76 120 141 120c83 0 142 -72 127 -156c-11 -65 -76 -118 -142 -118z" />
    <glyph glyph-name="uni1ECD" unicode="&#x1ecd;" horiz-adv-x="1145" 
d="M501 -18c-297 0 -486 230 -436 517c47 269 297 482 579 482c296 0 485 -230 435 -518c-47 -268 -298 -481 -578 -481zM507 205c157 0 308 127 338 294c27 149 -66 259 -207 259c-160 0 -310 -126 -339 -295c-27 -150 64 -258 208 -258zM435 -400c-82 0 -141 70 -126 154
c12 66 76 120 141 120c83 0 142 -72 127 -156c-11 -65 -76 -118 -142 -118z" />
    <glyph glyph-name="uni1ECE" unicode="&#x1ece;" horiz-adv-x="1739" 
d="M1004 1628l22 181c98 17 169 55 178 131c5 44 -24 73 -71 73c-44 0 -85 -18 -119 -46l-74 131c59 41 130 64 194 64c144 0 244 -102 219 -248c-16 -80 -71 -160 -188 -191l-24 -95h-137zM798 -20c-445 0 -741 360 -663 806c75 427 480 770 908 770
c445 0 741 -360 663 -806c-75 -427 -480 -770 -908 -770zM815 230c309 0 587 245 639 556c48 292 -134 520 -427 520c-309 0 -588 -245 -640 -556c-48 -292 135 -520 428 -520z" />
    <glyph glyph-name="uni1ECF" unicode="&#x1ecf;" horiz-adv-x="1145" 
d="M605 1054l22 181c98 17 169 55 178 131c5 44 -24 73 -71 73c-44 0 -85 -18 -119 -46l-74 131c59 41 130 64 194 64c144 0 244 -102 219 -248c-16 -80 -71 -160 -188 -191l-24 -95h-137zM501 -18c-297 0 -486 230 -436 517c47 269 297 482 579 482
c296 0 485 -230 435 -518c-47 -268 -298 -481 -578 -481zM507 205c157 0 308 127 338 294c27 149 -66 259 -207 259c-160 0 -310 -126 -339 -295c-27 -150 64 -258 208 -258z" />
    <glyph glyph-name="uni1ED0" unicode="&#x1ed0;" horiz-adv-x="1739" 
d="M1138 2114l-79 101l359 331l105 -139zM867 1641l-102 67l277 299h184l179 -299l-115 -67l-171 219zM798 -20c-445 0 -741 360 -663 806c75 427 480 770 908 770c445 0 741 -360 663 -806c-75 -427 -480 -770 -908 -770zM815 230c309 0 587 245 639 556
c48 292 -134 520 -427 520c-309 0 -588 -245 -640 -556c-48 -292 135 -520 428 -520z" />
    <glyph glyph-name="uni1ED1" unicode="&#x1ed1;" horiz-adv-x="1145" 
d="M739 1540l-79 101l359 331l105 -139zM468 1067l-102 67l277 299h184l179 -299l-115 -67l-171 219zM501 -18c-297 0 -486 230 -436 517c47 269 297 482 579 482c296 0 485 -230 435 -518c-47 -268 -298 -481 -578 -481zM507 205c157 0 308 127 338 294
c27 149 -66 259 -207 259c-160 0 -310 -126 -339 -295c-27 -150 64 -258 208 -258z" />
    <glyph glyph-name="uni1ED2" unicode="&#x1ed2;" horiz-adv-x="1739" 
d="M1173 2118l-298 289l145 139l251 -331zM867 1641l-102 67l276 299h185l178 -299l-115 -67l-170 219zM798 -20c-445 0 -741 360 -663 806c75 427 480 770 908 770c445 0 741 -360 663 -806c-75 -427 -480 -770 -908 -770zM815 230c309 0 587 245 639 556
c48 292 -134 520 -427 520c-309 0 -588 -245 -640 -556c-48 -292 135 -520 428 -520z" />
    <glyph glyph-name="uni1ED3" unicode="&#x1ed3;" horiz-adv-x="1145" 
d="M774 1544l-298 289l145 139l251 -331zM468 1067l-102 67l276 299h185l178 -299l-115 -67l-170 219zM501 -18c-297 0 -486 230 -436 517c47 269 297 482 579 482c296 0 485 -230 435 -518c-47 -268 -298 -481 -578 -481zM507 205c157 0 308 127 338 294
c27 149 -66 259 -207 259c-160 0 -310 -126 -339 -295c-27 -150 64 -258 208 -258z" />
    <glyph glyph-name="uni1ED4" unicode="&#x1ed4;" horiz-adv-x="1739" 
d="M1085 2099l22 181c98 17 165 65 178 141c7 39 -12 69 -63 69c-47 0 -89 -21 -126 -52l-74 131c58 42 131 65 194 65c144 0 243 -103 217 -248c-13 -80 -69 -161 -187 -191l-25 -96h-136zM867 1641l-102 67l276 299h185l178 -299l-115 -67l-170 219zM798 -20
c-445 0 -741 360 -663 806c75 427 480 770 908 770c445 0 741 -360 663 -806c-75 -427 -480 -770 -908 -770zM815 230c309 0 587 245 639 556c48 292 -134 520 -427 520c-309 0 -588 -245 -640 -556c-48 -292 135 -520 428 -520z" />
    <glyph glyph-name="uni1ED5" unicode="&#x1ed5;" horiz-adv-x="1145" 
d="M686 1525l22 181c98 17 165 65 178 141c7 39 -12 69 -63 69c-47 0 -89 -21 -126 -52l-74 131c58 42 131 65 194 65c144 0 243 -103 217 -248c-13 -80 -69 -161 -187 -191l-25 -96h-136zM468 1067l-102 67l276 299h185l178 -299l-115 -67l-170 219zM501 -18
c-297 0 -486 230 -436 517c47 269 297 482 579 482c296 0 485 -230 435 -518c-47 -268 -298 -481 -578 -481zM507 205c157 0 308 127 338 294c27 149 -66 259 -207 259c-160 0 -310 -126 -339 -295c-27 -150 64 -258 208 -258z" />
    <glyph glyph-name="uni1ED6" unicode="&#x1ed6;" horiz-adv-x="1739" 
d="M1304 2104c-101 0 -154 59 -180 131c-22 26 -37 32 -54 32c-67 0 -116 -76 -131 -161l-146 17c30 171 127 290 262 290c101 0 157 -63 183 -131c16 -15 29 -32 58 -32c64 0 109 63 127 161l145 -17c-29 -167 -122 -290 -264 -290zM867 1641l-102 67l276 299h185l178 -299
l-115 -67l-170 219zM798 -20c-445 0 -741 360 -663 806c75 427 480 770 908 770c445 0 741 -360 663 -806c-75 -427 -480 -770 -908 -770zM815 230c309 0 587 245 639 556c48 292 -134 520 -427 520c-309 0 -588 -245 -640 -556c-48 -292 135 -520 428 -520z" />
    <glyph glyph-name="uni1ED7" unicode="&#x1ed7;" horiz-adv-x="1145" 
d="M905 1530c-101 0 -154 59 -180 131c-22 26 -37 32 -54 32c-67 0 -116 -76 -131 -161l-146 17c30 171 127 290 262 290c101 0 157 -63 183 -131c16 -15 29 -32 58 -32c64 0 109 63 127 161l145 -17c-29 -167 -122 -290 -264 -290zM468 1067l-102 67l276 299h185l178 -299
l-115 -67l-170 219zM501 -18c-297 0 -486 230 -436 517c47 269 297 482 579 482c296 0 485 -230 435 -518c-47 -268 -298 -481 -578 -481zM507 205c157 0 308 127 338 294c27 149 -66 259 -207 259c-160 0 -310 -126 -339 -295c-27 -150 64 -258 208 -258z" />
    <glyph glyph-name="uni1ED8" unicode="&#x1ed8;" horiz-adv-x="1739" 
d="M867 1641l-102 67l277 299h184l179 -299l-115 -67l-171 219zM798 -20c-445 0 -741 360 -663 806c75 427 480 770 908 770c445 0 741 -360 663 -806c-75 -427 -480 -770 -908 -770zM815 230c309 0 587 245 639 556c48 292 -134 520 -427 520c-309 0 -588 -245 -640 -556
c-48 -292 135 -520 428 -520zM732 -400c-82 0 -141 70 -126 154c12 66 76 120 141 120c83 0 142 -72 127 -156c-11 -65 -76 -118 -142 -118z" />
    <glyph glyph-name="uni1ED9" unicode="&#x1ed9;" horiz-adv-x="1145" 
d="M468 1067l-102 67l277 299h184l179 -299l-115 -67l-171 219zM501 -18c-297 0 -486 230 -436 517c47 269 297 482 579 482c296 0 485 -230 435 -518c-47 -268 -298 -481 -578 -481zM507 205c157 0 308 127 338 294c27 149 -66 259 -207 259c-160 0 -310 -126 -339 -295
c-27 -150 64 -258 208 -258zM435 -400c-82 0 -141 70 -126 154c12 66 76 120 141 120c83 0 142 -72 127 -156c-11 -65 -76 -118 -142 -118z" />
    <glyph glyph-name="uni1EDA" unicode="&#x1eda;" horiz-adv-x="1739" 
d="M1442 1936l-385 -293l-79 101l359 331zM1776 1514h157l-23 -132c-33 -185 -133 -242 -222 -242h-14c44 -115 57 -248 32 -390c-75 -427 -480 -770 -908 -770c-445 0 -741 360 -663 806c75 427 480 770 908 770c267 0 481 -130 592 -330c73 9 117 71 124 141zM1454 786
c48 292 -134 520 -427 520c-309 0 -588 -245 -640 -556c-48 -292 135 -520 428 -520c309 0 587 245 639 556z" />
    <glyph glyph-name="uni1EDB" unicode="&#x1edb;" horiz-adv-x="1145" 
d="M1043 1362l-385 -293l-79 101l359 331zM1190 1031h157l-23 -132c-33 -185 -133 -242 -222 -242c-9 0 -18 0 -27 1c14 -60 16 -126 4 -195c-47 -268 -298 -481 -578 -481c-297 0 -486 230 -436 517c47 269 297 482 579 482c190 0 336 -95 403 -238c74 8 119 71 126 141z
M845 499c27 149 -66 259 -207 259c-160 0 -310 -126 -339 -295c-27 -150 64 -258 208 -258c157 0 308 127 338 294z" />
    <glyph glyph-name="uni1EDC" unicode="&#x1edc;" horiz-adv-x="1739" 
d="M1190 1744l-98 -97l-299 289l145 139zM1776 1514h157l-23 -132c-33 -185 -133 -242 -222 -242h-14c44 -115 57 -248 32 -390c-75 -427 -480 -770 -908 -770c-445 0 -741 360 -663 806c75 427 480 770 908 770c267 0 481 -130 592 -330c73 9 117 71 124 141zM1454 786
c48 292 -134 520 -427 520c-309 0 -588 -245 -640 -556c-48 -292 135 -520 428 -520c309 0 587 245 639 556z" />
    <glyph glyph-name="uni1EDD" unicode="&#x1edd;" horiz-adv-x="1145" 
d="M791 1170l-98 -97l-299 289l145 139zM1190 1031h157l-23 -132c-33 -185 -133 -242 -222 -242c-9 0 -18 0 -27 1c14 -60 16 -126 4 -195c-47 -268 -298 -481 -578 -481c-297 0 -486 230 -436 517c47 269 297 482 579 482c190 0 336 -95 403 -238c74 8 119 71 126 141z
M845 499c27 149 -66 259 -207 259c-160 0 -310 -126 -339 -295c-27 -150 64 -258 208 -258c157 0 308 127 338 294z" />
    <glyph glyph-name="uni1EDE" unicode="&#x1ede;" horiz-adv-x="1739" 
d="M1133 2013c-44 0 -85 -18 -119 -46l-74 131c59 41 130 64 194 64c144 0 244 -102 219 -248c-16 -80 -71 -160 -188 -191l-24 -95h-137l22 181c98 17 169 55 178 131c5 44 -24 73 -71 73zM1776 1514h157l-23 -132c-33 -185 -133 -242 -222 -242h-14
c44 -115 57 -248 32 -390c-75 -427 -480 -770 -908 -770c-445 0 -741 360 -663 806c75 427 480 770 908 770c267 0 481 -130 592 -330c73 9 117 71 124 141zM1454 786c48 292 -134 520 -427 520c-309 0 -588 -245 -640 -556c-48 -292 135 -520 428 -520
c309 0 587 245 639 556z" />
    <glyph glyph-name="uni1EDF" unicode="&#x1edf;" horiz-adv-x="1145" 
d="M734 1439c-44 0 -85 -18 -119 -46l-74 131c59 41 130 64 194 64c144 0 244 -102 219 -248c-16 -80 -71 -160 -188 -191l-24 -95h-137l22 181c98 17 169 55 178 131c5 44 -24 73 -71 73zM1190 1031h157l-23 -132c-33 -185 -133 -242 -222 -242c-9 0 -18 0 -27 1
c14 -60 16 -126 4 -195c-47 -268 -298 -481 -578 -481c-297 0 -486 230 -436 517c47 269 297 482 579 482c190 0 336 -95 403 -238c74 8 119 71 126 141zM845 499c27 149 -66 259 -207 259c-160 0 -310 -126 -339 -295c-27 -150 64 -258 208 -258c157 0 308 127 338 294z
" />
    <glyph glyph-name="uni1EE0" unicode="&#x1ee0;" horiz-adv-x="1739" 
d="M979 1796c-67 0 -114 -76 -130 -161l-137 17c29 164 123 290 268 290c92 0 131 -53 163 -104c20 -30 39 -59 83 -59c63 0 107 62 124 161l137 -18c-31 -171 -124 -289 -261 -289c-102 0 -141 55 -170 104c-22 35 -39 59 -77 59zM1776 1514h157l-23 -132
c-33 -185 -133 -242 -222 -242h-14c44 -115 57 -248 32 -390c-75 -427 -480 -770 -908 -770c-445 0 -741 360 -663 806c75 427 480 770 908 770c267 0 481 -130 592 -330c73 9 117 71 124 141zM1454 786c48 292 -134 520 -427 520c-309 0 -588 -245 -640 -556
c-48 -292 135 -520 428 -520c309 0 587 245 639 556z" />
    <glyph glyph-name="uni1EE1" unicode="&#x1ee1;" horiz-adv-x="1145" 
d="M580 1222c-67 0 -114 -76 -130 -161l-137 17c29 164 123 290 268 290c92 0 131 -53 163 -104c20 -30 39 -59 83 -59c63 0 107 62 124 161l137 -18c-31 -171 -124 -289 -261 -289c-102 0 -141 55 -170 104c-22 35 -39 59 -77 59zM1190 1031h157l-23 -132
c-33 -185 -133 -242 -222 -242c-9 0 -18 0 -27 1c14 -60 16 -126 4 -195c-47 -268 -298 -481 -578 -481c-297 0 -486 230 -436 517c47 269 297 482 579 482c190 0 336 -95 403 -238c74 8 119 71 126 141zM845 499c27 149 -66 259 -207 259c-160 0 -310 -126 -339 -295
c-27 -150 64 -258 208 -258c157 0 308 127 338 294z" />
    <glyph glyph-name="uni1EE2" unicode="&#x1ee2;" horiz-adv-x="1739" 
d="M1776 1514h157l-23 -132c-33 -185 -133 -242 -222 -242h-14c44 -115 57 -248 32 -390c-75 -427 -480 -770 -908 -770c-445 0 -741 360 -663 806c75 427 480 770 908 770c267 0 481 -130 592 -330c73 9 117 71 124 141zM1454 786c48 292 -134 520 -427 520
c-309 0 -588 -245 -640 -556c-48 -292 135 -520 428 -520c309 0 587 245 639 556zM747 -126c83 0 142 -72 127 -156c-11 -65 -76 -118 -142 -118c-82 0 -141 70 -126 154c12 66 76 120 141 120z" />
    <glyph glyph-name="uni1EE3" unicode="&#x1ee3;" horiz-adv-x="1145" 
d="M1190 1031h157l-23 -132c-33 -185 -133 -242 -222 -242c-9 0 -18 0 -27 1c14 -60 16 -126 4 -195c-47 -268 -298 -481 -578 -481c-297 0 -486 230 -436 517c47 269 297 482 579 482c190 0 336 -95 403 -238c74 8 119 71 126 141zM845 499c27 149 -66 259 -207 259
c-160 0 -310 -126 -339 -295c-27 -150 64 -258 208 -258c157 0 308 127 338 294zM450 -126c83 0 142 -72 127 -156c-11 -65 -76 -118 -142 -118c-82 0 -141 70 -126 154c12 66 76 120 141 120z" />
    <glyph glyph-name="uni1EE4" unicode="&#x1ee4;" horiz-adv-x="1538" 
d="M695 -20c-357 0 -586 230 -531 543l180 1013h256l-174 -984c-35 -204 84 -335 277 -335c212 0 397 148 434 352l170 967h257l-183 -1030c-55 -313 -345 -526 -686 -526zM628 -400c-82 0 -141 70 -126 154c12 66 76 120 141 120c83 0 142 -72 127 -156
c-11 -65 -76 -118 -142 -118z" />
    <glyph glyph-name="uni1EE5" unicode="&#x1ee5;" horiz-adv-x="1087" 
d="M468 -19c-271 0 -404 156 -364 388l104 594h248l-103 -589c-20 -119 32 -175 120 -175c107 0 200 73 221 192l99 572h249l-107 -611c-41 -232 -212 -371 -467 -371zM403 -400c-82 0 -141 70 -126 154c12 66 76 120 141 120c83 0 142 -72 127 -156
c-11 -65 -76 -118 -142 -118z" />
    <glyph glyph-name="uni1EE6" unicode="&#x1ee6;" horiz-adv-x="1538" 
d="M901 1628l22 181c98 17 169 55 178 131c5 44 -24 73 -71 73c-44 0 -85 -18 -119 -46l-74 131c59 41 130 64 194 64c144 0 244 -102 219 -248c-16 -80 -71 -160 -188 -191l-24 -95h-137zM695 -20c-357 0 -586 230 -531 543l180 1013h256l-174 -984
c-35 -204 84 -335 277 -335c212 0 397 148 434 352l170 967h257l-183 -1030c-55 -313 -345 -526 -686 -526z" />
    <glyph glyph-name="uni1EE7" unicode="&#x1ee7;" horiz-adv-x="1087" 
d="M573 1055l22 181c98 17 169 55 178 131c5 44 -24 73 -71 73c-44 0 -85 -18 -119 -46l-74 131c59 41 130 64 194 64c144 0 244 -102 219 -248c-16 -80 -71 -160 -188 -191l-24 -95h-137zM468 -19c-271 0 -404 156 -364 388l104 594h248l-103 -589
c-20 -119 32 -175 120 -175c107 0 200 73 221 192l99 572h249l-107 -611c-41 -232 -212 -371 -467 -371z" />
    <glyph glyph-name="uni1EE8" unicode="&#x1ee8;" horiz-adv-x="1538" 
d="M1339 1936l-385 -293l-79 101l359 331zM1713 1682h157l-23 -132c-33 -185 -133 -242 -222 -242c-31 0 -65 6 -99 17l-145 -819c-55 -313 -345 -526 -686 -526c-357 0 -586 230 -531 543l180 1013h256l-174 -984c-35 -204 84 -335 277 -335c212 0 397 148 434 352l170 967
h257l-25 -142c6 -1 11 -1 15 -1c84 0 134 67 142 142z" />
    <glyph glyph-name="uni1EE9" unicode="&#x1ee9;" horiz-adv-x="1087" 
d="M1011 1363l-385 -293l-79 101l359 331zM1169 962h157l-23 -132c-33 -185 -133 -242 -222 -242c-32 0 -67 6 -102 18l-44 -254c-41 -232 -212 -371 -467 -371c-271 0 -404 156 -364 388l104 594h248l-103 -589c-20 -119 32 -175 120 -175c107 0 200 73 221 192l99 572h249
l-51 -289c8 -1 14 -1 19 -1c84 0 134 67 142 142z" />
    <glyph glyph-name="uni1EEA" unicode="&#x1eea;" horiz-adv-x="1538" 
d="M1087 1744l-98 -97l-299 289l145 139zM1713 1682h157l-23 -132c-33 -185 -133 -242 -222 -242c-31 0 -65 6 -99 17l-145 -819c-55 -313 -345 -526 -686 -526c-357 0 -586 230 -531 543l180 1013h256l-174 -984c-35 -204 84 -335 277 -335c212 0 397 148 434 352l170 967
h257l-25 -142c6 -1 11 -1 15 -1c84 0 134 67 142 142z" />
    <glyph glyph-name="uni1EEB" unicode="&#x1eeb;" horiz-adv-x="1087" 
d="M759 1171l-98 -97l-299 289l145 139zM1169 962h157l-23 -132c-33 -185 -133 -242 -222 -242c-32 0 -67 6 -102 18l-44 -254c-41 -232 -212 -371 -467 -371c-271 0 -404 156 -364 388l104 594h248l-103 -589c-20 -119 32 -175 120 -175c107 0 200 73 221 192l99 572h249
l-51 -289c8 -1 14 -1 19 -1c84 0 134 67 142 142z" />
    <glyph glyph-name="uni1EEC" unicode="&#x1eec;" horiz-adv-x="1538" 
d="M1030 2013c-44 0 -85 -18 -119 -46l-74 131c59 41 130 64 194 64c144 0 244 -102 219 -248c-16 -80 -71 -160 -188 -191l-24 -95h-137l22 181c98 17 169 55 178 131c5 44 -24 73 -71 73zM1713 1682h157l-23 -132c-33 -185 -133 -242 -222 -242c-31 0 -65 6 -99 17
l-145 -819c-55 -313 -345 -526 -686 -526c-357 0 -586 230 -531 543l180 1013h256l-174 -984c-35 -204 84 -335 277 -335c212 0 397 148 434 352l170 967h257l-25 -142c6 -1 11 -1 15 -1c84 0 134 67 142 142z" />
    <glyph glyph-name="uni1EED" unicode="&#x1eed;" horiz-adv-x="1087" 
d="M702 1440c-44 0 -85 -18 -119 -46l-74 131c59 41 130 64 194 64c144 0 244 -102 219 -248c-16 -80 -71 -160 -188 -191l-24 -95h-137l22 181c98 17 169 55 178 131c5 44 -24 73 -71 73zM1169 962h157l-23 -132c-33 -185 -133 -242 -222 -242c-32 0 -67 6 -102 18
l-44 -254c-41 -232 -212 -371 -467 -371c-271 0 -404 156 -364 388l104 594h248l-103 -589c-20 -119 32 -175 120 -175c107 0 200 73 221 192l99 572h249l-51 -289c8 -1 14 -1 19 -1c84 0 134 67 142 142z" />
    <glyph glyph-name="uni1EEE" unicode="&#x1eee;" horiz-adv-x="1538" 
d="M876 1796c-67 0 -114 -76 -130 -161l-137 17c29 164 123 290 268 290c92 0 131 -53 163 -104c20 -30 39 -59 83 -59c63 0 107 62 124 161l137 -18c-31 -171 -124 -289 -261 -289c-102 0 -141 55 -170 104c-22 35 -39 59 -77 59zM1713 1682h157l-23 -132
c-33 -185 -133 -242 -222 -242c-31 0 -65 6 -99 17l-145 -819c-55 -313 -345 -526 -686 -526c-357 0 -586 230 -531 543l180 1013h256l-174 -984c-35 -204 84 -335 277 -335c212 0 397 148 434 352l170 967h257l-25 -142c6 -1 11 -1 15 -1c84 0 134 67 142 142z" />
    <glyph glyph-name="uni1EEF" unicode="&#x1eef;" horiz-adv-x="1087" 
d="M548 1223c-67 0 -114 -76 -130 -161l-137 17c29 164 123 290 268 290c92 0 131 -53 163 -104c20 -30 39 -59 83 -59c63 0 107 62 124 161l137 -18c-31 -171 -124 -289 -261 -289c-102 0 -141 55 -170 104c-22 35 -39 59 -77 59zM1169 962h157l-23 -132
c-33 -185 -133 -242 -222 -242c-32 0 -67 6 -102 18l-44 -254c-41 -232 -212 -371 -467 -371c-271 0 -404 156 -364 388l104 594h248l-103 -589c-20 -119 32 -175 120 -175c107 0 200 73 221 192l99 572h249l-51 -289c8 -1 14 -1 19 -1c84 0 134 67 142 142z" />
    <glyph glyph-name="uni1EF0" unicode="&#x1ef0;" horiz-adv-x="1538" 
d="M1713 1682h157l-23 -132c-33 -185 -133 -242 -222 -242c-31 0 -65 6 -99 17l-145 -819c-55 -313 -345 -526 -686 -526c-357 0 -586 230 -531 543l180 1013h256l-174 -984c-35 -204 84 -335 277 -335c212 0 397 148 434 352l170 967h257l-25 -142c6 -1 11 -1 15 -1
c84 0 134 67 142 142zM643 -126c83 0 142 -72 127 -156c-11 -65 -76 -118 -142 -118c-82 0 -141 70 -126 154c12 66 76 120 141 120z" />
    <glyph glyph-name="uni1EF1" unicode="&#x1ef1;" horiz-adv-x="1087" 
d="M1169 962h157l-23 -132c-33 -185 -133 -242 -222 -242c-32 0 -67 6 -102 18l-44 -254c-41 -232 -212 -371 -467 -371c-271 0 -404 156 -364 388l104 594h248l-103 -589c-20 -119 32 -175 120 -175c107 0 200 73 221 192l99 572h249l-51 -289c8 -1 14 -1 19 -1
c84 0 134 67 142 142zM418 -126c83 0 142 -72 127 -156c-11 -65 -76 -118 -142 -118c-82 0 -141 70 -126 154c12 66 76 120 141 120z" />
    <glyph glyph-name="Ygrave" unicode="&#x1ef2;" horiz-adv-x="1357" 
d="M998 1744l-98 -97l-299 289l145 139zM1530 1536l-683 -815l-126 -721h-257l128 728l-393 808h295l264 -575l470 575h302z" />
    <glyph glyph-name="ygrave" unicode="&#x1ef3;" horiz-adv-x="1051" 
d="M725 1171l-98 -97l-299 289l145 139zM859 963h267l-839 -1455h-262l289 506l-222 949h269l127 -700z" />
    <glyph glyph-name="uni1EF4" unicode="&#x1ef4;" horiz-adv-x="1357" 
d="M1530 1536l-683 -815l-126 -721h-257l128 728l-393 808h295l264 -575l470 575h302zM555 -126c83 0 142 -72 127 -156c-11 -65 -76 -118 -142 -118c-82 0 -141 70 -126 154c12 66 76 120 141 120z" />
    <glyph glyph-name="uni1EF5" unicode="&#x1ef5;" horiz-adv-x="1051" 
d="M859 963h267l-839 -1455h-262l289 506l-222 949h269l127 -700zM693 -214c83 0 142 -72 127 -156c-11 -65 -76 -118 -142 -118c-82 0 -141 70 -126 154c12 66 76 120 141 120z" />
    <glyph glyph-name="uni1EF6" unicode="&#x1ef6;" horiz-adv-x="1357" 
d="M941 2013c-44 0 -85 -18 -119 -46l-74 131c59 41 130 64 194 64c144 0 244 -102 219 -248c-16 -80 -71 -160 -188 -191l-24 -95h-137l22 181c98 17 169 55 178 131c5 44 -24 73 -71 73zM1530 1536l-683 -815l-126 -721h-257l128 728l-393 808h295l264 -575l470 575h302z
" />
    <glyph glyph-name="uni1EF7" unicode="&#x1ef7;" horiz-adv-x="1051" 
d="M668 1440c-44 0 -85 -18 -119 -46l-74 131c59 41 130 64 194 64c144 0 244 -102 219 -248c-16 -80 -71 -160 -188 -191l-24 -95h-137l22 181c98 17 169 55 178 131c5 44 -24 73 -71 73zM859 963h267l-839 -1455h-262l289 506l-222 949h269l127 -700z" />
    <glyph glyph-name="uni1EF8" unicode="&#x1ef8;" horiz-adv-x="1357" 
d="M787 1796c-67 0 -114 -76 -130 -161l-137 17c29 164 123 290 268 290c92 0 131 -53 163 -104c20 -30 39 -59 83 -59c63 0 107 62 124 161l137 -18c-31 -171 -124 -289 -261 -289c-102 0 -141 55 -170 104c-22 35 -39 59 -77 59zM1530 1536l-683 -815l-126 -721h-257
l128 728l-393 808h295l264 -575l470 575h302z" />
    <glyph glyph-name="uni1EF9" unicode="&#x1ef9;" horiz-adv-x="1051" 
d="M514 1223c-67 0 -114 -76 -130 -161l-137 17c29 164 123 290 268 290c92 0 131 -53 163 -104c20 -30 39 -59 83 -59c63 0 107 62 124 161l137 -18c-31 -171 -124 -289 -261 -289c-102 0 -141 55 -170 104c-22 35 -39 59 -77 59zM859 963h267l-839 -1455h-262l289 506
l-222 949h269l127 -700z" />
    <glyph glyph-name="endash" unicode="&#x2013;" horiz-adv-x="1317" 
d="M130 389l33 185h1024l-33 -185h-1024z" />
    <glyph glyph-name="emdash" unicode="&#x2014;" horiz-adv-x="2048" 
d="M-16 389l32 185h2048l-32 -185h-2048z" />
    <glyph glyph-name="quoteleft" unicode="&#x2018;" horiz-adv-x="565" 
d="M343 886c-89 0 -152 76 -136 166c5 28 18 54 37 74l234 410h151l-187 -380c42 -30 65 -81 54 -140c-12 -71 -82 -130 -153 -130z" />
    <glyph glyph-name="quoteright" unicode="&#x2019;" horiz-adv-x="565" 
d="M483 1557c89 0 151 -76 136 -166c-5 -26 -17 -51 -35 -71l-236 -413h-151l187 380c-42 29 -64 81 -54 140c12 71 82 130 153 130z" />
    <glyph glyph-name="quotesinglbase" unicode="&#x201a;" horiz-adv-x="565" 
d="M257 275c89 0 151 -76 136 -166c-5 -27 -18 -53 -37 -74l-234 -410h-151l187 380c-42 29 -64 81 -54 140c11 71 82 130 153 130z" />
    <glyph glyph-name="quotedblleft" unicode="&#x201c;" horiz-adv-x="987" 
d="M345 886c-89 0 -152 76 -136 166c1 6 10 35 18 51l253 433h152l-195 -376c42 -24 73 -79 61 -144c-12 -71 -82 -130 -153 -130zM767 886c-89 0 -152 76 -136 166c1 6 9 31 17 51l254 433h151l-194 -376c42 -24 73 -79 61 -144c-12 -71 -82 -130 -153 -130z" />
    <glyph glyph-name="quotedblright" unicode="&#x201d;" horiz-adv-x="988" 
d="M481 1556c89 0 152 -76 136 -166c-1 -6 -9 -31 -17 -51l-254 -433h-151l194 376c-42 24 -73 79 -61 144c12 71 82 130 153 130zM903 1556c89 0 152 -76 136 -166c-1 -6 -10 -35 -18 -51l-253 -433h-152l195 376c-42 24 -73 79 -61 144c12 71 82 130 153 130z" />
    <glyph glyph-name="quotedblbase" unicode="&#x201e;" horiz-adv-x="977" 
d="M393 109c-5 -27 -18 -53 -37 -74l-234 -410h-151l187 380c-42 29 -64 81 -54 140c11 71 82 130 153 130c89 0 151 -76 136 -166zM669 275c89 0 151 -76 136 -166c-5 -26 -17 -51 -35 -71l-236 -413h-151l187 380c-42 29 -64 81 -54 140c11 71 82 130 153 130z" />
    <glyph glyph-name="dagger" unicode="&#x2020;" horiz-adv-x="978" 
d="M1003 997l-29 -160h-345l-209 -1185h-161l209 1185h-340l29 160h339l66 375h161l-66 -375h346z" />
    <glyph glyph-name="daggerdbl" unicode="&#x2021;" horiz-adv-x="1058" 
d="M1014 837h-346l-112 -637h346l-28 -158h-346l-69 -390h-160l69 390h-341l29 158h340l112 637h-340l28 160h340l66 375h160l-66 -375h346z" />
    <glyph glyph-name="bullet" unicode="&#x2022;" horiz-adv-x="888" 
d="M442 373c-169 0 -291 137 -260 314c27 151 179 281 331 281c167 0 288 -147 259 -317c-29 -158 -180 -278 -330 -278z" />
    <glyph glyph-name="ellipsis" unicode="&#x2026;" horiz-adv-x="1894" 
d="M247 -20c-88 0 -151 75 -135 165c11 71 83 130 153 130c89 0 151 -76 136 -166c-13 -71 -83 -129 -154 -129zM871 -20c-88 0 -150 75 -135 165c12 71 83 130 154 130c89 0 151 -76 136 -166c-13 -71 -83 -129 -155 -129zM1504 -20c-88 0 -151 75 -135 165
c11 71 83 130 153 130c89 0 151 -76 136 -166c-13 -71 -83 -129 -154 -129z" />
    <glyph glyph-name="perthousand" unicode="&#x2030;" horiz-adv-x="2367" 
d="M440 871c-199 0 -332 162 -296 363c31 179 203 322 384 322c197 0 328 -160 294 -358c-33 -181 -203 -327 -382 -327zM127 0l1144 1536h245l-1140 -1536h-249zM452 1063c92 0 175 77 182 171c7 72 -45 132 -119 132c-93 0 -177 -76 -184 -168c-8 -75 45 -135 121 -135z
M1126 -16c-199 0 -331 161 -297 361c33 179 204 323 383 323c197 0 330 -161 295 -359c-31 -180 -202 -325 -381 -325zM1897 -16c-199 0 -332 161 -296 361c32 179 203 323 383 323c197 0 329 -161 294 -359c-31 -180 -201 -325 -381 -325zM1138 175c92 0 175 76 183 170
c8 73 -47 132 -121 132c-93 0 -176 -76 -183 -168c-9 -75 44 -134 121 -134zM1909 175c92 0 174 76 183 170c8 73 -47 132 -121 132c-93 0 -174 -76 -183 -168c-8 -75 45 -134 121 -134z" />
    <glyph glyph-name="guilsinglleft" unicode="&#x2039;" horiz-adv-x="625" 
d="M294 104l-249 377l374 377h209l-382 -377l241 -377h-193z" />
    <glyph glyph-name="guilsinglright" unicode="&#x203a;" horiz-adv-x="621" 
d="M-7 104l382 377l-241 377h193l249 -377l-374 -377h-209z" />
    <glyph glyph-name="fraction" unicode="&#x2044;" horiz-adv-x="528" 
d="M-458 0l1344 1536h200l-1342 -1536h-202z" />
    <glyph glyph-name="Euro" unicode="&#x20ac;" horiz-adv-x="1844" 
d="M896 236c163 0 321 69 440 181l180 -170c-170 -163 -397 -267 -632 -267c-346 0 -601 218 -662 524h-128l46 178h69c2 34 6 69 12 105c4 21 8 41 13 61h-49l46 178h70c154 309 484 530 827 530c245 0 444 -109 561 -282l-218 -141c-74 113 -199 176 -353 176
c-208 0 -405 -113 -527 -283h657l-46 -178h-703c-11 -32 -19 -65 -25 -99c-4 -23 -6 -45 -7 -67h690l-46 -178h-619c56 -161 204 -268 404 -268z" />
    <glyph glyph-name="uni2113" unicode="&#x2113;" horiz-adv-x="1240" 
d="M1055 406l96 -118c-161 -219 -350 -300 -533 -300c-278 0 -377 182 -367 389c0 -1 -2 -1 -4 -2c-40 -27 -90 -64 -138 -96l-58 140c78 54 153 99 222 149l105 565c72 406 281 546 485 546c238 0 315 -186 278 -395c-46 -263 -280 -509 -634 -777l-17 -66
c-32 -183 65 -263 183 -263c155 0 301 121 382 228zM613 1146l-79 -413c225 192 410 391 444 584c21 117 3 197 -103 197c-90 0 -214 -91 -262 -368z" />
    <glyph glyph-name="uni2116" unicode="&#x2116;" horiz-adv-x="2865" 
d="M1194 501l182 1035h257l-271 -1536h-135l-682 1038l-182 -1038h-256l270 1536h134zM2359 1364c296 0 485 -230 435 -518c-47 -268 -298 -481 -578 -481c-297 0 -486 230 -436 517c47 269 297 482 579 482zM2560 882c27 149 -66 259 -207 259c-160 0 -310 -126 -339 -295
c-27 -150 64 -258 208 -258c157 0 308 127 338 294zM1712 0l28 168h924l-29 -168h-923z" />
    <glyph glyph-name="trademark" unicode="&#x2122;" horiz-adv-x="1700" 
d="M647 1420h-189l-106 -601h-132l106 601h-185l20 116h506zM1391 1536h143l-127 -717h-130l89 506l-311 -369l-192 377l-91 -514h-132l127 717h139l178 -360z" />
    <glyph glyph-name="estimated" unicode="&#x212e;" horiz-adv-x="1946" 
d="M988 -18c-483 0 -874 352 -874 784c0 438 391 790 874 790c486 0 877 -352 877 -790v-21h-1417c-8 0 -13 -2 -13 -8v-430c0 -18 9 -35 19 -49c137 -141 328 -233 536 -233c228 0 428 102 566 262h125c-156 -185 -410 -305 -693 -305zM448 788h1087c6 0 8 9 8 15v430
c0 18 -6 39 -20 51c-137 135 -324 225 -533 225c-206 0 -395 -92 -534 -231c-12 -14 -21 -33 -21 -53v-422c0 -6 5 -15 13 -15z" />
    <glyph glyph-name="arrowleft" unicode="&#x2190;" horiz-adv-x="1745" 
d="M1611 850v-248h-1038v-260l-498 385l498 385v-262h1038z" />
    <glyph glyph-name="arrowup" unicode="&#x2191;" horiz-adv-x="884" 
d="M319 0v1038h-262l385 498l385 -498h-260v-1038h-248z" />
    <glyph glyph-name="arrowright" unicode="&#x2192;" horiz-adv-x="1750" 
d="M134 850h1038v262l498 -385l-498 -385v260h-1038v248z" />
    <glyph glyph-name="arrowdown" unicode="&#x2193;" horiz-adv-x="884" 
d="M319 1536h248v-1038h260l-385 -498l-385 498h262v1038z" />
    <glyph glyph-name="arrowboth" unicode="&#x2194;" horiz-adv-x="2173" 
d="M571 295l-498 387l498 385v-260l1024 -2v260l498 -385l-498 -385v262l-1024 2v-264z" />
    <glyph glyph-name="arrowupdn" unicode="&#x2195;" horiz-adv-x="937" 
d="M469 -145l-385 497h262v672h-262l385 498l385 -498h-260v-672h260z" />
    <glyph glyph-name="uni2196" unicode="&#x2196;" horiz-adv-x="1357" 
d="M1295 314l-175 -175l-734 734l-184 -184l-80 624l624 -80l-185 -185z" />
    <glyph glyph-name="uni2197" unicode="&#x2197;" horiz-adv-x="1357" 
d="M62 314l734 734l-185 185l624 80l-80 -624l-184 184l-734 -734z" />
    <glyph glyph-name="uni2198" unicode="&#x2198;" horiz-adv-x="1357" 
d="M62 1222l175 175l734 -734l184 184l80 -624l-624 80l185 185z" />
    <glyph glyph-name="uni2199" unicode="&#x2199;" horiz-adv-x="1357" 
d="M1295 1222l-734 -734l185 -185l-624 -80l80 624l184 -184l734 734z" />
    <glyph glyph-name="partialdiff" unicode="&#x2202;" horiz-adv-x="1191" 
d="M343 1452c398 82 721 -278 713 -780c-6 -390 -230 -666 -536 -666c-334 0 -502 265 -370 620c116 311 384 444 638 357c-69 213 -224 331 -445 284v185zM827 672c1 40 0 78 -2 115c-192 115 -374 30 -462 -219c-83 -241 16 -394 165 -394c143 0 289 183 299 498z" />
    <glyph glyph-name="emptyset" unicode="&#x2205;" horiz-adv-x="1507" 
d="M1220 993c91 -107 146 -246 146 -397c0 -338 -275 -612 -613 -612c-151 0 -290 55 -396 146l-89 -89l-70 70l89 89c-91 106 -146 245 -146 396c0 338 274 612 612 612c151 0 290 -55 397 -146l89 89l69 -70zM342 596c0 -96 33 -184 87 -254l578 578
c-70 54 -158 87 -254 87c-228 0 -411 -183 -411 -411zM753 185c228 0 411 183 411 411c0 96 -32 184 -87 254l-578 -578c70 -55 158 -87 254 -87z" />
    <glyph glyph-name="product" unicode="&#x220f;" horiz-adv-x="1714" 
d="M367 0v1220h-131v220h1395v-220h-131v-1220h-219v1220h-693v-1220h-221z" />
    <glyph glyph-name="summation" unicode="&#x2211;" horiz-adv-x="1608" 
d="M224 -241v163l710 676l-710 676v166h1198v-207h-850l649 -635l-649 -635h850v-204h-1198z" />
    <glyph glyph-name="minus" unicode="&#x2212;" horiz-adv-x="1269" 
d="M225 589v204h819v-204h-819z" />
    <glyph glyph-name="radical" unicode="&#x221a;" horiz-adv-x="1448" 
d="M437 -160l-225 695h-144v175h270l193 -593l695 1454l162 -67l-796 -1664h-155z" />
    <glyph glyph-name="infinity" unicode="&#x221e;" horiz-adv-x="1696" 
d="M471 269c-178 0 -306 136 -312 327c6 191 134 327 312 327c120 0 251 -71 375 -197c124 127 257 197 375 197c186 0 306 -125 312 -327c-6 -202 -126 -327 -312 -327c-118 0 -251 70 -375 197c-124 -126 -255 -197 -375 -197zM471 444c72 0 164 54 258 152
c-94 98 -186 152 -258 152c-75 0 -137 -64 -138 -152c1 -88 63 -152 138 -152zM1221 444c77 0 135 59 138 152c-3 93 -61 152 -138 152c-74 0 -165 -55 -259 -152c94 -97 185 -152 259 -152z" />
    <glyph glyph-name="integral" unicode="&#x222b;" horiz-adv-x="925" 
d="M63 -457v240c205 0 270 66 270 251v1090c0 190 139 324 318 324c73 0 160 -21 222 -78l-102 -190c-32 32 -68 43 -98 43c-55 0 -102 -37 -102 -139v-1066c0 -301 -206 -475 -508 -475z" />
    <glyph glyph-name="approxequal" unicode="&#x2248;" horiz-adv-x="1387" 
d="M905 669c-157 0 -244 105 -293 157c-42 45 -73 59 -109 59c-89 0 -137 -85 -138 -199h-191c1 234 124 392 332 392c110 0 183 -48 265 -149c28 -33 60 -75 119 -75c77 0 132 75 134 198h188c-1 -218 -113 -383 -307 -383zM905 202c-157 0 -244 105 -293 157
c-36 38 -61 60 -109 59c-91 -3 -137 -86 -138 -199h-191c1 236 126 393 332 393c108 0 181 -47 265 -149c26 -32 60 -76 119 -76c77 0 132 73 134 199h188c-1 -217 -113 -384 -307 -384z" />
    <glyph glyph-name="lessequal" unicode="&#x2264;" horiz-adv-x="1402" 
d="M1252 1485v-225l-904 -397l904 -399v-228l-1130 504v246zM122 0v158h1130v-158h-1130z" />
    <glyph glyph-name="greaterequal" unicode="&#x2265;" horiz-adv-x="1402" 
d="M150 1485l1131 -499v-246l-1131 -504v228l905 399l-905 397v225zM150 0v158h1131v-158h-1131z" />
    <glyph glyph-name="lozenge" unicode="&#x25ca;" horiz-adv-x="1355" 
d="M679 106l-619 617l619 618l616 -616zM680 381l341 344l-341 342l-345 -344z" />
    <glyph glyph-name="uniF8FF" unicode="&#xf8ff;" horiz-adv-x="1792" 
d="M895 0c-428 0 -778 350 -778 778c0 430 350 778 778 778c430 0 779 -348 779 -778c0 -428 -349 -778 -779 -778zM895 74c390 0 705 317 705 704c0 389 -315 705 -705 705c-387 0 -704 -316 -704 -705c0 -387 317 -704 704 -704zM1303 444c-8 0 -18 5 -25 13l-297 295
c-14 16 -14 39 0 53l297 297c15 14 37 14 52 0c14 -15 14 -39 0 -53l-271 -271l271 -270c14 -14 12 -35 0 -51c-7 -8 -17 -13 -27 -13zM488 444c-21 0 -37 17 -37 37v594c0 21 16 37 37 37c20 0 37 -16 37 -37v-594c0 -20 -17 -37 -37 -37zM895 444c-20 0 -36 17 -36 37v594
c0 21 16 37 36 37c21 0 37 -16 37 -37v-594c0 -20 -16 -37 -37 -37zM598 741c-20 0 -36 17 -36 37c0 21 16 37 36 37h187c20 0 37 -16 37 -37c0 -20 -17 -37 -37 -37h-187z" />
    <glyph glyph-name="Lcaron.ss01" horiz-adv-x="1020" 
d="M635 1536l-227 -1299h536l-42 -237h-794l270 1536h257zM1208 1536l-387 -573h-154l284 573h257z" />
    <glyph glyph-name="Lcaron.ss02" horiz-adv-x="1020" 
d="M635 1536l-227 -1299h536l-42 -237h-794l270 1536h257zM1208 1536l-387 -573h-154l284 573h257z" />
    <glyph glyph-name="i.loclTRK" horiz-adv-x="551" 
d="M404 1119c-80 0 -138 70 -126 151c13 67 76 118 139 118c83 0 141 -68 125 -154c-10 -62 -72 -115 -138 -115zM68 0l168 963h248l-168 -963h-248z" />
    <glyph glyph-name="a.ss01" horiz-adv-x="1039" 
d="M569 983c265 0 409 -147 364 -400l-102 -583h-219l8 98c-83 -74 -178 -116 -297 -116c-197 0 -324 113 -289 306c29 170 170 281 540 314l127 11c22 123 -33 183 -148 183c-112 0 -211 -53 -296 -113l-88 173c86 60 226 127 400 127zM383 160c97 0 194 53 263 142l25 140
l-78 -9c-249 -24 -310 -86 -324 -163c-13 -76 34 -110 114 -110z" />
    <glyph glyph-name="aacute.ss01" horiz-adv-x="1039" 
d="M975 1363l-385 -293l-79 101l359 331zM569 983c265 0 409 -147 364 -400l-102 -583h-219l8 98c-83 -74 -178 -116 -297 -116c-197 0 -324 113 -289 306c29 170 170 281 540 314l127 11c22 123 -33 183 -148 183c-112 0 -211 -53 -296 -113l-88 173c86 60 226 127 400 127
zM383 160c97 0 194 53 263 142l25 140l-78 -9c-249 -24 -310 -86 -324 -163c-13 -76 34 -110 114 -110z" />
    <glyph glyph-name="abreve.ss01" horiz-adv-x="1039" 
d="M633 1128c-215 0 -349 127 -310 335h160c-18 -115 33 -198 154 -198c143 0 217 100 235 198h160c-39 -225 -197 -335 -399 -335zM569 983c265 0 409 -147 364 -400l-102 -583h-219l8 98c-83 -74 -178 -116 -297 -116c-197 0 -324 113 -289 306c29 170 170 281 540 314
l127 11c22 123 -33 183 -148 183c-112 0 -211 -53 -296 -113l-88 173c86 60 226 127 400 127zM383 160c97 0 194 53 263 142l25 140l-78 -9c-249 -24 -310 -86 -324 -163c-13 -76 34 -110 114 -110z" />
    <glyph glyph-name="uni1EAF.ss01" horiz-adv-x="1039" 
d="M1059 1838l-385 -293l-79 101l359 331zM637 1265c143 0 217 100 235 198h160c-39 -225 -197 -335 -399 -335c-215 0 -349 127 -310 335h160c-18 -115 33 -198 154 -198zM569 983c265 0 409 -147 364 -400l-102 -583h-219l8 98c-83 -74 -178 -116 -297 -116
c-197 0 -324 113 -289 306c29 170 170 281 540 314l127 11c22 123 -33 183 -148 183c-112 0 -211 -53 -296 -113l-88 173c86 60 226 127 400 127zM383 160c97 0 194 53 263 142l25 140l-78 -9c-249 -24 -310 -86 -324 -163c-13 -76 34 -110 114 -110z" />
    <glyph glyph-name="uni1EB7.ss01" horiz-adv-x="1039" 
d="M633 1128c-215 0 -349 127 -310 335h160c-18 -115 33 -198 154 -198c143 0 217 100 235 198h160c-39 -225 -197 -335 -399 -335zM569 983c265 0 409 -147 364 -400l-102 -583h-219l8 98c-83 -74 -178 -116 -297 -116c-197 0 -324 113 -289 306c29 170 170 281 540 314
l127 11c22 123 -33 183 -148 183c-112 0 -211 -53 -296 -113l-88 173c86 60 226 127 400 127zM383 160c97 0 194 53 263 142l25 140l-78 -9c-249 -24 -310 -86 -324 -163c-13 -76 34 -110 114 -110zM382 -126c83 0 142 -72 127 -156c-11 -65 -76 -118 -142 -118
c-82 0 -141 70 -126 154c12 66 76 120 141 120z" />
    <glyph glyph-name="uni1EB1.ss01" horiz-adv-x="1039" 
d="M807 1646l-98 -97l-299 289l145 139zM633 1128c-215 0 -349 127 -310 335h160c-18 -115 33 -198 154 -198c143 0 217 100 235 198h160c-39 -225 -197 -335 -399 -335zM569 983c265 0 409 -147 364 -400l-102 -583h-219l8 98c-83 -74 -178 -116 -297 -116
c-197 0 -324 113 -289 306c29 170 170 281 540 314l127 11c22 123 -33 183 -148 183c-112 0 -211 -53 -296 -113l-88 173c86 60 226 127 400 127zM383 160c97 0 194 53 263 142l25 140l-78 -9c-249 -24 -310 -86 -324 -163c-13 -76 34 -110 114 -110z" />
    <glyph glyph-name="uni1EB3.ss01" horiz-adv-x="1039" 
d="M750 1915c-44 0 -85 -18 -119 -46l-74 131c59 41 130 64 194 64c144 0 244 -102 219 -248c-16 -80 -71 -160 -188 -191l-24 -95h-137l22 181c98 17 169 55 178 131c5 44 -24 73 -71 73zM633 1128c-215 0 -349 127 -310 335h160c-18 -115 33 -198 154 -198
c143 0 217 100 235 198h160c-39 -225 -197 -335 -399 -335zM569 983c265 0 409 -147 364 -400l-102 -583h-219l8 98c-83 -74 -178 -116 -297 -116c-197 0 -324 113 -289 306c29 170 170 281 540 314l127 11c22 123 -33 183 -148 183c-112 0 -211 -53 -296 -113l-88 173
c86 60 226 127 400 127zM383 160c97 0 194 53 263 142l25 140l-78 -9c-249 -24 -310 -86 -324 -163c-13 -76 34 -110 114 -110z" />
    <glyph glyph-name="uni1EB5.ss01" horiz-adv-x="1039" 
d="M596 1698c-67 0 -114 -76 -130 -161l-137 17c29 164 123 290 268 290c92 0 131 -53 163 -104c20 -30 39 -59 83 -59c63 0 107 62 124 161l137 -18c-31 -171 -124 -289 -261 -289c-102 0 -141 55 -170 104c-22 35 -39 59 -77 59zM637 1265c143 0 217 100 235 198h160
c-39 -225 -197 -335 -399 -335c-215 0 -349 127 -310 335h160c-18 -115 33 -198 154 -198zM569 983c265 0 409 -147 364 -400l-102 -583h-219l8 98c-83 -74 -178 -116 -297 -116c-197 0 -324 113 -289 306c29 170 170 281 540 314l127 11c22 123 -33 183 -148 183
c-112 0 -211 -53 -296 -113l-88 173c86 60 226 127 400 127zM383 160c97 0 194 53 263 142l25 140l-78 -9c-249 -24 -310 -86 -324 -163c-13 -76 34 -110 114 -110z" />
    <glyph glyph-name="uni01CE.ss01" horiz-adv-x="1039" 
d="M709 1108h-185l-175 299l114 67l172 -219l252 219l101 -67zM569 983c265 0 409 -147 364 -400l-102 -583h-219l8 98c-83 -74 -178 -116 -297 -116c-197 0 -324 113 -289 306c29 170 170 281 540 314l127 11c22 123 -33 183 -148 183c-112 0 -211 -53 -296 -113l-88 173
c86 60 226 127 400 127zM383 160c97 0 194 53 263 142l25 140l-78 -9c-249 -24 -310 -86 -324 -163c-13 -76 34 -110 114 -110z" />
    <glyph glyph-name="acircumflex.ss01" horiz-adv-x="1039" 
d="M652 1287l-252 -219l-102 67l277 299h184l179 -299l-115 -67zM569 983c265 0 409 -147 364 -400l-102 -583h-219l8 98c-83 -74 -178 -116 -297 -116c-197 0 -324 113 -289 306c29 170 170 281 540 314l127 11c22 123 -33 183 -148 183c-112 0 -211 -53 -296 -113l-88 173
c86 60 226 127 400 127zM383 160c97 0 194 53 263 142l25 140l-78 -9c-249 -24 -310 -86 -324 -163c-13 -76 34 -110 114 -110z" />
    <glyph glyph-name="adieresis.ss01" horiz-adv-x="1039" 
d="M433 1135c-81 0 -139 69 -124 152c11 66 74 116 138 116c82 0 140 -67 125 -152c-12 -64 -74 -116 -139 -116zM853 1403c83 0 139 -67 124 -152c-12 -64 -72 -116 -139 -116c-81 0 -139 69 -124 152c11 66 74 116 139 116zM569 983c265 0 409 -147 364 -400l-102 -583
h-219l8 98c-83 -74 -178 -116 -297 -116c-197 0 -324 113 -289 306c29 170 170 281 540 314l127 11c22 123 -33 183 -148 183c-112 0 -211 -53 -296 -113l-88 173c86 60 226 127 400 127zM383 160c97 0 194 53 263 142l25 140l-78 -9c-249 -24 -310 -86 -324 -163
c-13 -76 34 -110 114 -110z" />
    <glyph glyph-name="agrave.ss01" horiz-adv-x="1039" 
d="M723 1171l-98 -97l-299 289l145 139zM569 983c265 0 409 -147 364 -400l-102 -583h-219l8 98c-83 -74 -178 -116 -297 -116c-197 0 -324 113 -289 306c29 170 170 281 540 314l127 11c22 123 -33 183 -148 183c-112 0 -211 -53 -296 -113l-88 173c86 60 226 127 400 127z
M383 160c97 0 194 53 263 142l25 140l-78 -9c-249 -24 -310 -86 -324 -163c-13 -76 34 -110 114 -110z" />
    <glyph glyph-name="amacron.ss01" horiz-adv-x="1039" 
d="M967 1310l-27 -153h-634l27 153h634zM569 983c265 0 409 -147 364 -400l-102 -583h-219l8 98c-83 -74 -178 -116 -297 -116c-197 0 -324 113 -289 306c29 170 170 281 540 314l127 11c22 123 -33 183 -148 183c-112 0 -211 -53 -296 -113l-88 173c86 60 226 127 400 127z
M383 160c97 0 194 53 263 142l25 140l-78 -9c-249 -24 -310 -86 -324 -163c-13 -76 34 -110 114 -110z" />
    <glyph glyph-name="aogonek.ss01" horiz-adv-x="1039" 
d="M831 0c-160 -64 -299 -156 -320 -273c-11 -64 24 -89 83 -89c68 0 141 38 199 90l83 -145c-96 -83 -210 -114 -309 -108c-159 10 -242 110 -216 251c20 119 119 210 268 274h-7l8 98c-83 -74 -178 -116 -297 -116c-197 0 -324 113 -289 306c29 170 170 281 540 314
l127 11c22 123 -33 183 -148 183c-112 0 -211 -53 -296 -113l-88 173c86 60 226 127 400 127c265 0 409 -147 364 -400zM383 160c97 0 194 53 263 142l25 140l-78 -9c-249 -24 -310 -86 -324 -163c-13 -76 34 -110 114 -110z" />
    <glyph glyph-name="aring.ss01" horiz-adv-x="1039" 
d="M644 1108c-137 0 -231 115 -206 251c20 118 134 214 254 214c135 0 226 -113 204 -250c-22 -118 -134 -215 -252 -215zM551 1323c-6 -61 33 -102 91 -102c75 0 140 58 146 138c5 55 -36 105 -94 105c-75 0 -138 -67 -143 -141zM569 983c265 0 409 -147 364 -400
l-102 -583h-219l8 98c-83 -74 -178 -116 -297 -116c-197 0 -324 113 -289 306c29 170 170 281 540 314l127 11c22 123 -33 183 -148 183c-112 0 -211 -53 -296 -113l-88 173c86 60 226 127 400 127zM383 160c97 0 194 53 263 142l25 140l-78 -9c-249 -24 -310 -86 -324 -163
c-13 -76 34 -110 114 -110z" />
    <glyph glyph-name="atilde.ss01" horiz-adv-x="1039" 
d="M900 1367l137 -18c-31 -171 -124 -289 -261 -289c-102 0 -141 55 -170 104c-22 35 -39 59 -77 59c-67 0 -114 -76 -130 -161l-137 17c29 164 123 290 268 290c92 0 131 -53 163 -104c20 -30 39 -59 83 -59c63 0 107 62 124 161zM560 983c265 0 409 -147 364 -400
l-102 -583h-219l8 98c-83 -74 -178 -116 -297 -116c-197 0 -324 113 -289 306c29 170 170 281 540 314l127 11c22 123 -33 183 -148 183c-112 0 -211 -53 -296 -113l-88 173c86 60 226 127 400 127zM374 160c97 0 194 53 263 142l25 140l-78 -9c-249 -24 -310 -86 -324 -163
c-13 -76 34 -110 114 -110z" />
    <glyph glyph-name="dcaron.ss01" horiz-adv-x="1258" 
d="M1042 1536h249l-271 -1536h-232l15 125c-82 -84 -194 -144 -340 -144c-261 0 -445 223 -393 520c49 278 293 483 537 483c155 0 254 -66 312 -159zM1564 1536h257l-387 -573h-154zM532 202c164 0 313 133 338 299c24 147 -72 262 -219 262c-162 0 -312 -133 -338 -298
c-23 -147 74 -263 219 -263z" />
    <glyph glyph-name="gcommaaccent.ss01" horiz-adv-x="1262" 
d="M1027 1535l-208 -419h-252l312 419h148zM943 963h250l-166 -947c-57 -322 -309 -516 -604 -516c-179 0 -359 86 -444 244l169 136c62 -109 162 -163 270 -163c173 0 330 130 362 315l13 79c-77 -76 -181 -130 -317 -130c-277 0 -459 223 -407 520c50 279 291 483 549 483
c153 0 249 -64 303 -156zM531 202c162 0 314 135 338 299c24 147 -74 262 -219 262c-163 0 -312 -133 -338 -298c-22 -146 72 -263 219 -263z" />
    <glyph glyph-name="lcaron.ss01" horiz-adv-x="553" 
d="M68 0l270 1536h248l-270 -1536h-248zM568 963l284 573h257l-387 -573h-154z" />
    <glyph glyph-name="tcaron.ss01" horiz-adv-x="680" 
d="M921 1646h257l-387 -573h-154zM611 1309l-61 -346h186l-35 -201h-186l-134 -762h-249l133 762h-189l35 201h189l61 346h250z" />
    <glyph glyph-name="dcaron.ss02" horiz-adv-x="1258" 
d="M1042 1536h249l-271 -1536h-232l15 125c-82 -84 -194 -144 -340 -144c-261 0 -445 223 -393 520c49 278 293 483 537 483c155 0 254 -66 312 -159zM1564 1536h257l-387 -573h-154zM532 202c164 0 313 133 338 299c24 147 -72 262 -219 262c-162 0 -312 -133 -338 -298
c-23 -147 74 -263 219 -263z" />
    <glyph glyph-name="gcommaaccent.ss02" horiz-adv-x="1262" 
d="M1027 1535l-208 -419h-252l312 419h148zM943 963h250l-166 -947c-57 -322 -309 -516 -604 -516c-179 0 -359 86 -444 244l169 136c62 -109 162 -163 270 -163c173 0 330 130 362 315l13 79c-77 -76 -181 -130 -317 -130c-277 0 -459 223 -407 520c50 279 291 483 549 483
c153 0 249 -64 303 -156zM531 202c162 0 314 135 338 299c24 147 -74 262 -219 262c-163 0 -312 -133 -338 -298c-22 -146 72 -263 219 -263z" />
    <glyph glyph-name="lcaron.ss02" horiz-adv-x="553" 
d="M68 0l270 1536h248l-270 -1536h-248zM568 963l284 573h257l-387 -573h-154z" />
    <glyph glyph-name="tcaron.ss02" horiz-adv-x="680" 
d="M921 1646h257l-387 -573h-154zM611 1309l-61 -346h186l-35 -201h-186l-134 -762h-249l133 762h-189l35 201h189l61 346h250z" />
    <glyph glyph-name="f_t" horiz-adv-x="1297" 
d="M1353 963l-35 -201h-186l-134 -762h-249l133 762h-380l-134 -762h-248l134 762h-163l35 201h163l47 268c36 208 179 329 373 329c75 0 133 -16 156 -35l-25 -217c-25 23 -65 31 -97 31c-83 0 -152 -65 -167 -154l-39 -222h380l61 346h250l-61 -346h186z" />
    <glyph glyph-name="t_t" horiz-adv-x="1286" 
d="M1341 963l-35 -201h-186l-134 -762h-249l133 762h-355l-134 -762h-249l133 762h-189l35 201h189l61 346h250l-61 -346h355l61 346h250l-61 -346h186z" />
    <glyph glyph-name="zero.lf" horiz-adv-x="1320" 
d="M589 -20c-347 0 -524 329 -439 806c80 458 342 770 684 770c356 0 521 -329 437 -806c-81 -458 -355 -770 -682 -770zM595 201c198 0 368 232 431 585c61 347 -30 537 -199 537c-188 0 -366 -207 -431 -573c-59 -335 16 -549 199 -549z" />
    <glyph glyph-name="one.lf" horiz-adv-x="768" 
d="M248 0l229 1303h-306l42 233h557l-270 -1536h-252z" />
    <glyph glyph-name="two.lf" horiz-adv-x="1187" 
d="M1168 1115c-48 -278 -279 -507 -739 -882h644l-40 -233h-1065l16 125c793 677 904 835 936 1016c26 142 -70 198 -180 198c-157 0 -272 -105 -299 -263l-257 19c51 289 284 465 567 464c286 -2 463 -175 417 -444z" />
    <glyph glyph-name="three.lf" horiz-adv-x="1221" 
d="M527 -20c-307 0 -534 168 -480 473l252 -16c-28 -162 80 -235 232 -235c189 0 327 109 357 277c27 152 -75 232 -242 232h-141l37 209h110c135 0 258 93 281 233c22 115 -47 182 -174 182c-137 0 -250 -77 -272 -206l-249 17c45 261 271 410 522 410
c275 0 457 -175 413 -420c-27 -149 -132 -255 -259 -306c149 -46 258 -180 219 -401c-48 -276 -299 -449 -606 -449z" />
    <glyph glyph-name="four.lf" horiz-adv-x="1270" 
d="M1247 534l-41 -227h-251l-54 -307h-252l54 307h-696l32 196l806 1033h326l-176 -1002h252zM302 534h441l132 756z" />
    <glyph glyph-name="five.lf" horiz-adv-x="1260" 
d="M1258 1307h-663l-116 -347c83 52 189 82 305 82c274 0 450 -211 394 -527c-56 -320 -326 -534 -625 -534c-281 0 -509 176 -472 468l260 -7c-1 -159 109 -219 229 -219c169 0 320 130 353 320c31 173 -66 282 -207 282c-107 0 -224 -51 -304 -154l-264 7l300 858h851z
" />
    <glyph glyph-name="six.lf" horiz-adv-x="1223" 
d="M768 1037c234 -15 451 -228 404 -532c-46 -290 -331 -523 -624 -523c-317 0 -532 231 -487 535c18 123 82 242 190 360l630 659h301l-488 -500c23 2 47 2 74 1zM931 540c23 170 -79 282 -242 282c-202 0 -357 -151 -384 -338c-23 -164 76 -271 251 -271
c191 0 349 147 375 327z" />
    <glyph glyph-name="seven.lf" horiz-adv-x="1175" 
d="M224 1536h1108l-29 -179l-979 -1357h-298l962 1308h-804z" />
    <glyph glyph-name="eight.lf" horiz-adv-x="1196" 
d="M525 -20c-304 0 -497 215 -448 493c30 172 150 313 308 387c-85 72 -117 184 -93 318c38 214 241 378 480 378c254 0 412 -181 371 -414c-22 -127 -91 -234 -199 -298c130 -84 197 -231 166 -407c-46 -259 -295 -457 -585 -457zM668 923c124 0 235 99 253 225
c16 108 -54 189 -161 189c-126 0 -238 -98 -257 -225c-15 -107 56 -189 165 -189zM539 200c160 0 302 133 325 293c21 141 -71 247 -213 247c-158 0 -298 -123 -322 -283c-21 -142 69 -257 210 -257z" />
    <glyph glyph-name="nine.lf" horiz-adv-x="1224" 
d="M671 1554c318 0 533 -231 488 -535c-19 -123 -83 -242 -190 -360l-630 -659h-301l516 530c-31 -7 -65 -10 -103 -10c-236 0 -449 215 -403 511c45 290 331 523 623 523zM914 1052c18 164 -84 271 -259 271c-191 0 -345 -147 -365 -327c-19 -170 87 -282 250 -282
c202 0 353 151 374 338z" />
    <glyph glyph-name="zero.dnom" horiz-adv-x="791" 
d="M324 -12c-217 0 -324 197 -272 491c48 275 206 455 406 455c215 0 326 -197 274 -491c-48 -275 -209 -455 -408 -455zM324 165c100 0 197 124 230 314c30 171 -9 277 -92 277c-103 0 -198 -123 -232 -313c-30 -171 8 -278 94 -278z" />
    <glyph glyph-name="one.dnom" horiz-adv-x="462" 
d="M73 0l132 750h-130l29 172h313l-161 -922h-183z" />
    <glyph glyph-name="two.dnom" horiz-adv-x="710" 
d="M654 643c-24 -143 -138 -289 -357 -472h302l-30 -171h-625l6 77c447 385 514 494 530 585c17 91 -36 107 -82 106c-92 -2 -145 -72 -155 -138l-181 17c28 178 167 289 339 289c178 0 283 -116 253 -293z" />
    <glyph glyph-name="three.dnom" horiz-adv-x="692" 
d="M624 667c-12 -68 -49 -123 -104 -160c68 -53 104 -137 85 -240c-28 -155 -176 -279 -344 -279c-176 0 -297 122 -270 281l184 -15c-10 -59 30 -91 85 -91c81 0 154 65 168 147c12 63 -27 93 -97 93h-98l28 163h69c58 0 118 55 130 119c8 48 -23 75 -69 75
c-62 0 -113 -41 -121 -87l-179 20c26 147 150 241 297 241c159 0 263 -114 236 -267z" />
    <glyph glyph-name="four.dnom" horiz-adv-x="761" 
d="M697 922l-98 -556h79l-30 -171h-79l-34 -195h-183l34 195h-438l18 115l487 612h244zM211 366h205l62 354z" />
    <glyph glyph-name="five.dnom" horiz-adv-x="794" 
d="M745 755h-395l-58 -173c41 27 103 48 173 48c164 0 270 -124 235 -322c-35 -196 -195 -319 -373 -319c-175 0 -316 109 -304 282l192 -3c5 -76 57 -103 118 -103c83 0 162 68 181 177c14 84 -29 131 -97 131c-59 0 -126 -38 -168 -87l-195 8l188 528h533z" />
    <glyph glyph-name="six.dnom" horiz-adv-x="718" 
d="M430 624c128 -12 266 -142 232 -329c-30 -175 -204 -311 -378 -305c-195 5 -331 145 -298 336c13 70 53 136 100 195l376 401h220l-285 -294c10 -1 21 -2 33 -4zM489 331c14 85 -33 138 -111 143c-115 5 -197 -76 -215 -183c-12 -82 30 -130 117 -135
c106 -4 193 76 209 175z" />
    <glyph glyph-name="seven.dnom" horiz-adv-x="653" 
d="M105 922h633l-20 -134l-561 -788h-217l549 755h-414z" />
    <glyph glyph-name="eight.dnom" horiz-adv-x="740" 
d="M299 -12c-195 0 -315 134 -285 307c18 99 84 178 173 224c-43 45 -58 111 -45 190c23 128 144 225 292 225c161 0 263 -114 237 -261c-12 -73 -48 -133 -105 -171c72 -54 106 -140 88 -243c-27 -154 -177 -271 -355 -271zM375 561c68 0 126 55 135 123
c7 52 -27 90 -78 90c-68 0 -128 -55 -135 -126c-7 -49 27 -87 78 -87zM303 147c87 0 164 74 172 163c9 70 -37 120 -107 120c-87 0 -161 -68 -171 -156c-9 -70 36 -127 106 -127z" />
    <glyph glyph-name="nine.dnom" horiz-adv-x="719" 
d="M429 933c195 0 331 -147 297 -338c-13 -69 -49 -134 -100 -194l-376 -401h-222l288 298c-7 0 -14 0 -21 1c-149 8 -280 125 -246 328c29 175 204 306 380 306zM548 630c14 82 -31 134 -120 134c-99 0 -188 -75 -205 -173c-13 -84 33 -142 117 -142c108 0 191 76 208 181z
" />
    <glyph glyph-name="zero.numr" horiz-adv-x="791" 
d="M433 607c-217 0 -324 197 -272 491c48 275 206 455 406 455c215 0 326 -197 274 -491c-48 -275 -209 -455 -408 -455zM433 784c100 0 197 124 230 314c30 171 -9 277 -92 277c-103 0 -198 -123 -232 -313c-30 -171 8 -278 94 -278z" />
    <glyph glyph-name="one.numr" horiz-adv-x="462" 
d="M181 614l132 750h-130l29 172h313l-161 -922h-183z" />
    <glyph glyph-name="two.numr" horiz-adv-x="710" 
d="M762 1257c-24 -143 -138 -289 -357 -472h302l-30 -171h-625l6 77c447 385 514 494 530 585c17 91 -36 107 -82 106c-92 -2 -145 -72 -155 -138l-181 17c28 178 167 289 339 289c178 0 283 -116 253 -293z" />
    <glyph glyph-name="three.numr" horiz-adv-x="692" 
d="M732 1281c-12 -68 -49 -123 -104 -160c68 -53 104 -137 85 -240c-28 -155 -176 -279 -344 -279c-176 0 -297 122 -270 281l184 -15c-10 -59 30 -91 85 -91c81 0 154 65 168 147c12 63 -27 93 -97 93h-98l28 163h69c58 0 118 55 130 119c8 48 -23 75 -69 75
c-62 0 -113 -41 -121 -87l-179 20c26 147 150 241 297 241c159 0 263 -114 236 -267z" />
    <glyph glyph-name="four.numr" horiz-adv-x="761" 
d="M805 1536l-98 -556h79l-30 -171h-79l-34 -195h-183l34 195h-438l18 115l487 612h244zM319 980h205l62 354z" />
    <glyph glyph-name="five.numr" horiz-adv-x="794" 
d="M853 1369h-395l-58 -173c41 27 103 48 173 48c164 0 270 -124 235 -322c-35 -196 -195 -319 -373 -319c-175 0 -316 109 -304 282l192 -3c5 -76 57 -103 118 -103c83 0 162 68 181 177c14 84 -29 131 -97 131c-59 0 -126 -38 -168 -87l-195 8l188 528h533z" />
    <glyph glyph-name="six.numr" horiz-adv-x="718" 
d="M538 1238c128 -12 266 -142 232 -329c-30 -175 -204 -311 -378 -305c-195 5 -331 145 -298 336c13 70 53 136 100 195l376 401h220l-285 -294c10 -1 21 -2 33 -4zM597 945c14 85 -33 138 -111 143c-115 5 -197 -76 -215 -183c-12 -82 30 -130 117 -135
c106 -4 193 76 209 175z" />
    <glyph glyph-name="seven.numr" horiz-adv-x="653" 
d="M213 1536h633l-20 -134l-561 -788h-217l549 755h-414z" />
    <glyph glyph-name="eight.numr" horiz-adv-x="740" 
d="M407 602c-195 0 -315 134 -285 307c18 99 84 178 173 224c-43 45 -58 111 -45 190c23 128 144 225 292 225c161 0 263 -114 237 -261c-12 -73 -48 -133 -105 -171c72 -54 106 -140 88 -243c-27 -154 -177 -271 -355 -271zM483 1175c68 0 126 55 135 123
c7 52 -27 90 -78 90c-68 0 -128 -55 -135 -126c-7 -49 27 -87 78 -87zM411 761c87 0 164 74 172 163c9 70 -37 120 -107 120c-87 0 -161 -68 -171 -156c-9 -70 36 -127 106 -127z" />
    <glyph glyph-name="nine.numr" horiz-adv-x="719" 
d="M537 1547c195 0 331 -147 297 -338c-13 -69 -49 -134 -100 -194l-376 -401h-222l288 298c-7 0 -14 0 -21 1c-149 8 -280 125 -246 328c29 175 204 306 380 306zM656 1244c14 82 -31 134 -120 134c-99 0 -188 -75 -205 -173c-13 -84 33 -142 117 -142
c108 0 191 76 208 181z" />
    <glyph glyph-name="comma.ss01" horiz-adv-x="636" 
d="M16 -375l208 646h251l-311 -646h-148z" />
    <glyph glyph-name="semicolon.ss01" horiz-adv-x="636" 
d="M408 749c-90 0 -152 75 -135 166c11 70 81 129 153 129c89 0 151 -76 136 -165c-13 -72 -83 -130 -154 -130zM-18 -375l209 646h251l-311 -646h-149z" />
    <glyph glyph-name="comma.ss02" horiz-adv-x="636" 
d="M16 -375l208 646h251l-311 -646h-148z" />
    <glyph glyph-name="semicolon.ss02" horiz-adv-x="636" 
d="M408 749c-90 0 -152 75 -135 166c11 70 81 129 153 129c89 0 151 -76 136 -165c-13 -72 -83 -130 -154 -130zM-18 -375l209 646h251l-311 -646h-149z" />
    <glyph glyph-name="quotedblbase.ss01" horiz-adv-x="977" 
d="M393 109c-5 -27 -18 -53 -37 -74l-234 -410h-151l187 380c-42 29 -64 81 -54 140c11 71 82 130 153 130c89 0 151 -76 136 -166zM669 275c89 0 151 -76 136 -166c-5 -26 -17 -51 -35 -71l-236 -413h-151l187 380c-42 29 -64 81 -54 140c11 71 82 130 153 130z" />
    <glyph glyph-name="quotedblleft.ss01" horiz-adv-x="987" 
d="M165 890l312 646h149l-208 -646h-253zM576 890l312 646h149l-208 -646h-253z" />
    <glyph glyph-name="quotedblright.ss01" horiz-adv-x="987" 
d="M209 890l208 646h253l-312 -646h-149zM620 890l208 646h253l-312 -646h-149z" />
    <glyph glyph-name="quoteleft.ss01" horiz-adv-x="575" 
d="M165 890l312 646h148l-208 -646h-252z" />
    <glyph glyph-name="quoteright.ss01" horiz-adv-x="576" 
d="M209 890l208 646h253l-312 -646h-149z" />
    <glyph glyph-name="quotesinglbase.ss01" horiz-adv-x="564" 
d="M43 -375l94 646h248l-197 -646h-145z" />
    <glyph glyph-name="quotedblleft.ss02" horiz-adv-x="987" 
d="M165 890l312 646h149l-208 -646h-253zM576 890l312 646h149l-208 -646h-253z" />
    <glyph glyph-name="quotedblright.ss02" horiz-adv-x="987" 
d="M209 890l208 646h253l-312 -646h-149zM620 890l208 646h253l-312 -646h-149z" />
    <glyph glyph-name="quoteleft.ss02" horiz-adv-x="576" 
d="M165 890l312 646h149l-208 -646h-253z" />
    <glyph glyph-name="quoteright.ss02" horiz-adv-x="576" 
d="M209 890l208 646h253l-312 -646h-149z" />
    <glyph glyph-name="quotesinglbase.ss02" horiz-adv-x="564" 
d="M43 -375l94 646h248l-197 -646h-145z" />
    <glyph glyph-name="caroncomb.alt" 
d="M-374 967l228 321c-38 24 -66 84 -44 157c26 62 98 112 160 112c89 0 140 -57 140 -123c0 -34 -12 -70 -39 -102l-280 -365h-165z" />
    <glyph glyph-name="uni0308.case" 
d="M-533 1074c-80 0 -139 68 -125 152c12 65 76 116 140 116c81 0 140 -68 125 -153c-12 -64 -75 -115 -140 -115zM-127 1074c-82 0 -140 68 -125 152c12 65 74 116 139 116c83 0 139 -68 125 -153c-12 -64 -73 -115 -139 -115z" />
    <glyph glyph-name="uni030A.case" 
d="M-199 1092c-137 0 -232 115 -208 251c21 118 136 214 256 214c135 0 226 -113 202 -250c-20 -118 -132 -215 -250 -215zM-201 1205c75 0 140 58 145 138c6 55 -36 105 -94 105c-75 0 -138 -67 -144 -141c-4 -61 35 -102 93 -102z" />
    <glyph glyph-name="caroncomb.alt.ss01" 
d="M-388 963l284 573h257l-387 -573h-154z" />
    <glyph glyph-name="uni03060301" 
d="M-267 1606l-79 101l359 331l105 -139zM-308 1189c-215 0 -349 127 -310 335h160c-18 -115 33 -198 154 -198c143 0 217 100 235 198h160c-39 -225 -197 -335 -399 -335z" />
    <glyph glyph-name="uni03060300" 
d="M-232 1610l-299 289l145 139l252 -331zM-308 1189c-215 0 -349 127 -310 335h160c-18 -115 33 -198 154 -198c143 0 217 100 235 198h160c-39 -225 -197 -335 -399 -335z" />
    <glyph glyph-name="uni03060309" 
d="M-320 1591l22 181c98 17 169 55 178 131c5 44 -24 73 -71 73c-44 0 -85 -18 -119 -46l-74 131c59 41 130 64 194 64c144 0 244 -102 219 -248c-16 -80 -71 -160 -188 -191l-24 -95h-137zM-308 1189c-215 0 -349 127 -310 335h160c-18 -115 33 -198 154 -198
c143 0 217 100 235 198h160c-39 -225 -197 -335 -399 -335z" />
    <glyph glyph-name="uni03060303" 
d="M-130 1596c-102 0 -141 55 -170 104c-22 35 -39 59 -77 59c-67 0 -114 -76 -130 -161l-137 17c29 164 123 290 268 290c92 0 131 -53 163 -104c20 -30 39 -59 83 -59c63 0 107 62 124 161l137 -18c-31 -171 -124 -289 -261 -289zM-340 1189c-215 0 -349 127 -310 335h160
c-18 -115 33 -198 154 -198c143 0 217 100 235 198h160c-39 -225 -197 -335 -399 -335z" />
    <glyph glyph-name="uni03020301" 
d="M-175 1643l-79 101l359 331l105 -139zM-446 1170l-102 67l277 299h184l179 -299l-115 -67l-171 219z" />
    <glyph glyph-name="uni03020300" 
d="M-96 1647l-298 289l145 139l251 -331zM-402 1170l-102 67l276 299h185l178 -299l-115 -67l-170 219z" />
    <glyph glyph-name="uni03020309" 
d="M-213 1628l22 181c98 17 165 65 178 141c7 39 -12 69 -63 69c-47 0 -89 -21 -126 -52l-74 131c58 42 131 65 194 65c144 0 243 -103 217 -248c-13 -80 -69 -161 -187 -191l-25 -96h-136zM-431 1170l-102 67l276 299h185l178 -299l-115 -67l-170 219z" />
    <glyph glyph-name="uni03020303" 
d="M-68 1633c-101 0 -154 59 -180 131c-22 26 -37 32 -54 32c-67 0 -116 -76 -131 -161l-146 17c30 171 127 290 262 290c101 0 157 -63 183 -131c16 -15 29 -32 58 -32c64 0 109 63 127 161l145 -17c-29 -167 -122 -290 -264 -290zM-505 1170l-102 67l276 299h185l178 -299
l-115 -67l-170 219z" />
    </font>
</defs>
</svg>
