<?xml version="1.0" standalone="no"?>
<!DOCTYPE svg PUBLIC "-//W3C//DTD SVG 1.1//EN" "http://www.w3.org/Graphics/SVG/1.1/DTD/svg11.dtd" >
<svg xmlns="http://www.w3.org/2000/svg" xmlns:xlink="http://www.w3.org/1999/xlink" version="1.1">
<metadata>
Created by FontForge 20170910 at Mon Jul  3 13:46:39 2017
 By Jimmy Wärting
Copyright \(c\)2016. Neue Hans Kendrick is a trademark of Alfredo Marco Pradil. All rights reserved.
</metadata>
<defs>
<font id="NeueHansKendrick-Regular" horiz-adv-x="0" >
  <font-face 
    font-family="Neue Hans Kendrick"
    font-weight="400"
    font-stretch="normal"
    units-per-em="2048"
    panose-1="0 0 5 0 0 0 0 0 0 0"
    ascent="1536"
    descent="-512"
    x-height="963"
    cap-height="1536"
    bbox="-1628 -621.301 2652 2600"
    underline-thickness="102"
    underline-position="-100"
    stemh="174"
    stemv="174"
    unicode-range="U+0020-FB02"
  />
<missing-glyph horiz-adv-x="1237" 
d="M199 0v1536h839v-1536h-839zM330 131h577v1274h-577v-1274z" />
    <glyph glyph-name="fi" unicode="fi" horiz-adv-x="1141" 
d="M385 963h582v-963h-166v809h-416v-809h-168v809h-162v154h162v297c0 184 113 299 287 299c55 0 106 -11 131 -29v-166c-29 22 -72 37 -111 37c-84 0 -139 -64 -139 -162v-276zM885 1141c-62 0 -113 49 -113 110c0 64 51 111 113 111c59 0 110 -47 110 -111
c0 -61 -51 -110 -110 -110z" />
    <glyph glyph-name="fl" unicode="fl" horiz-adv-x="1163" 
d="M385 1239v-276h254v-154h-254v-809h-168v809h-162v154h162v297c0 184 113 299 287 299c55 0 106 -11 131 -29v-166c-29 22 -72 37 -111 37c-84 0 -139 -64 -139 -162zM821 1536h168v-1536h-168v1536z" />
    <glyph glyph-name="f_f" unicode="ff" horiz-adv-x="1212" 
d="M1204 963v-160h-264v-803h-168v803h-387v-803h-168v803h-151v6h-11v154h162v297c0 184 113 299 287 299c55 0 106 -11 131 -29v-166c-29 22 -72 37 -111 37c-84 0 -139 -64 -139 -162v-276h387v297c0 184 113 299 287 299c55 0 106 -11 131 -29v-166
c-29 22 -72 37 -111 37c-84 0 -139 -64 -139 -162v-276h264z" />
    <glyph glyph-name="f_f_i" unicode="ffi" horiz-adv-x="1675" 
d="M217 0v809h-162v154h162v297c0 184 113 299 287 299c55 0 106 -11 131 -29v-166c-29 22 -72 37 -111 37c-84 0 -139 -64 -139 -162v-276h387v297c0 184 113 299 287 299c55 0 106 -11 131 -29v-166c-29 22 -72 37 -111 37c-84 0 -139 -64 -139 -162v-276h561v-963h-166
v809h-395v-809h-168v809h-387v-809h-168zM1419 1141c-61 0 -112 49 -112 110c0 64 51 111 112 111c60 0 111 -47 111 -111c0 -61 -51 -110 -111 -110z" />
    <glyph glyph-name="f_f_l" unicode="ffl" horiz-adv-x="1696" 
d="M940 963h264v-160h-264v-803h-168v803h-387v-803h-168v803h-151v6h-11v154h162v297c0 184 113 299 287 299c55 0 106 -11 131 -29v-166c-29 22 -72 37 -111 37c-84 0 -139 -64 -139 -162v-276h387v297c0 184 113 299 287 299c55 0 106 -11 131 -29v-166
c-29 22 -72 37 -111 37c-84 0 -139 -64 -139 -162v-276zM1354 1536h168v-1536h-168v1536z" />
    <glyph glyph-name=".notdef" horiz-adv-x="1237" 
d="M199 0v1536h839v-1536h-839zM330 131h577v1274h-577v-1274z" />
    <glyph glyph-name="space" unicode=" " horiz-adv-x="512" 
 />
    <glyph glyph-name="exclam" unicode="!" horiz-adv-x="635" 
d="M225 442v1094h168v-1094h-168zM309 -20c-61 0 -114 53 -114 114c0 64 53 115 114 115c62 0 115 -51 115 -115c0 -61 -53 -114 -115 -114z" />
    <glyph glyph-name="quotedbl" unicode="&#x22;" horiz-adv-x="987" 
d="M242 893v643h159l2 -643h-161zM582 893l2 643h161v-643h-163z" />
    <glyph glyph-name="numbersign" unicode="#" horiz-adv-x="1489" 
d="M322 0l51 358h-289l16 127h289l72 478h-291l20 124h285l53 361h123l-49 -361h387l51 361h125l-51 -361h291l-21 -124h-286l-68 -478h287l-17 -127h-286l-56 -358h-122l51 358h-391l-50 -358h-124zM516 485h387l70 478h-389z" />
    <glyph glyph-name="dollar" unicode="$" horiz-adv-x="1221" 
d="M1098 406c0 -242 -165 -385 -375 -418v-164h-166v159c-189 20 -351 117 -449 238l125 125c91 -129 215 -211 381 -211c179 0 310 103 310 264c0 174 -168 244 -347 318c-194 82 -399 172 -399 436c0 230 164 380 379 401v162h166v-171c141 -27 249 -105 328 -197
l-105 -109c-121 127 -215 162 -334 162c-143 0 -260 -84 -260 -236c0 -164 144 -231 303 -295c207 -84 443 -163 443 -464z" />
    <glyph glyph-name="percent" unicode="%" horiz-adv-x="1569" 
d="M418 928c-174 0 -316 141 -316 317c0 172 142 311 316 311c172 0 311 -139 311 -311c0 -176 -139 -317 -311 -317zM223 0l938 1536h180l-933 -1536h-185zM418 1067c96 0 174 80 174 178c0 94 -78 174 -174 174c-99 0 -178 -80 -178 -174c0 -98 79 -178 178 -178z
M1155 -16c-174 0 -313 141 -313 315c0 172 141 311 313 311s313 -139 313 -311c0 -174 -141 -315 -313 -315zM1155 121c98 0 176 80 176 178c0 96 -80 174 -176 174c-98 0 -176 -78 -176 -174c0 -98 78 -178 176 -178z" />
    <glyph glyph-name="ampersand" unicode="&#x26;" horiz-adv-x="1456" 
d="M555 -25c-262 0 -442 185 -442 443c0 213 127 315 342 479c-115 133 -158 231 -158 336c0 184 137 323 332 323c196 0 334 -137 334 -315c0 -158 -113 -252 -265 -375l306 -395l202 256l129 -102l-225 -283l264 -342l-219 -4l-164 215c-133 -137 -272 -236 -436 -236z
M596 975c113 84 205 147 205 260c0 102 -82 166 -172 170c-105 4 -172 -66 -172 -174c0 -101 59 -160 139 -256zM543 141c125 0 239 95 344 203l-328 426c-164 -121 -280 -211 -280 -352c0 -139 114 -277 264 -277z" />
    <glyph glyph-name="quotesingle" unicode="'" horiz-adv-x="647" 
d="M242 893v643h164v-643h-164z" />
    <glyph glyph-name="parenleft" unicode="(" horiz-adv-x="625" 
d="M528 -461c-252 164 -419 541 -419 1108c0 557 167 948 419 1110l76 -102c-219 -152 -362 -492 -362 -1008c0 -526 143 -854 362 -1003z" />
    <glyph glyph-name="parenright" unicode=")" horiz-adv-x="625" 
d="M97 -461l-76 105c219 149 362 477 362 1003c0 516 -143 856 -362 1008l76 102c252 -162 419 -553 419 -1110c0 -567 -167 -944 -419 -1108z" />
    <glyph glyph-name="asterisk" unicode="*" horiz-adv-x="961" 
d="M350 930l-82 49l160 238l-291 -13v94l291 -16l-160 242l82 45l131 -250l129 250l84 -45l-162 -242l291 16v-94l-291 13l162 -238l-84 -49l-129 252z" />
    <glyph glyph-name="plus" unicode="+" horiz-adv-x="1200" 
d="M520 188v408h-407v160h407v407h160v-407h407v-160h-407v-408h-160z" />
    <glyph glyph-name="comma" unicode="," horiz-adv-x="635" 
d="M461 94c0 -11 -1 -21 -4 -31l-150 -440h-125l110 371c-36 19 -61 57 -61 100c0 62 54 115 115 115c62 0 115 -53 115 -115z" />
    <glyph glyph-name="hyphen" unicode="-" horiz-adv-x="1044" 
d="M164 416v131h717v-131h-717z" />
    <glyph glyph-name="period" unicode="." horiz-adv-x="635" 
d="M317 -20c-61 0 -114 51 -114 114c0 62 53 115 114 115c62 0 115 -53 115 -115c0 -63 -53 -114 -115 -114z" />
    <glyph glyph-name="slash" unicode="/" horiz-adv-x="1174" 
d="M-35 -348l1082 2048h161l-1079 -2048h-164z" />
    <glyph glyph-name="zero" unicode="0" horiz-adv-x="1270" 
d="M635 -20c-318 0 -553 337 -553 788s215 788 553 788c336 0 553 -337 553 -788s-238 -788 -553 -788zM637 133c231 0 377 254 377 635c0 401 -166 614 -377 614c-213 0 -379 -213 -379 -614c0 -381 145 -635 379 -635z" />
    <glyph glyph-name="one" unicode="1" horiz-adv-x="1270" 
d="M612 0v1362h-317v174h491v-1536h-174z" />
    <glyph glyph-name="two" unicode="2" horiz-adv-x="1270" 
d="M470 174h673v-174h-1045v16c701 719 789 924 789 1106c0 172 -127 262 -277 262c-170 0 -278 -116 -278 -284l-189 2c0 274 209 459 478 457c253 -3 440 -166 440 -424c0 -304 -245 -599 -591 -961z" />
    <glyph glyph-name="three" unicode="3" horiz-adv-x="1270" 
d="M618 -20c-292 0 -526 178 -526 446l174 2c0 -176 152 -285 352 -285c205 0 353 113 353 301c0 191 -150 297 -353 297h-155v164h147c166 0 267 111 267 250s-101 238 -267 238c-159 0 -268 -93 -268 -226h-174c0 232 194 389 442 389c246 0 441 -155 441 -391
c0 -153 -82 -266 -220 -325c195 -60 314 -205 314 -404c0 -278 -234 -456 -527 -456z" />
    <glyph glyph-name="four" unicode="4" horiz-adv-x="1270" 
d="M1231 487v-163h-273v-324h-174v324h-741v112l698 1100h217v-1049h273zM272 487h512v835z" />
    <glyph glyph-name="five" unicode="5" horiz-adv-x="1270" 
d="M672 1022c282 0 491 -209 491 -506c0 -311 -229 -532 -534 -532c-252 0 -494 151 -520 448h184c33 -196 190 -278 338 -278c198 0 342 149 342 354c0 209 -148 354 -332 354c-113 0 -229 -55 -301 -153h-182l139 827h799v-168h-660l-78 -452c85 73 201 106 314 106z" />
    <glyph glyph-name="six" unicode="6" horiz-adv-x="1270" 
d="M1171 528c13 -292 -227 -544 -520 -544c-299 0 -545 211 -557 499c-6 144 49 267 131 369l543 684h215l-449 -535c37 14 81 23 148 23c205 0 477 -190 489 -496zM649 154c215 0 365 170 352 372c-12 215 -176 351 -368 351c-234 0 -379 -177 -367 -392
c13 -204 170 -331 383 -331z" />
    <glyph glyph-name="seven" unicode="7" horiz-adv-x="1270" 
d="M111 1536h1065v-115l-795 -1421h-205l783 1370h-848v166z" />
    <glyph glyph-name="eight" unicode="8" horiz-adv-x="1270" 
d="M635 -20c-277 0 -492 204 -492 464c0 179 103 330 256 406c-112 65 -168 182 -168 324c0 215 175 382 406 382c229 0 403 -167 403 -382c0 -142 -55 -259 -168 -324c156 -76 256 -227 256 -406c0 -260 -213 -464 -493 -464zM637 905c135 0 242 107 242 242
c0 137 -107 244 -242 244c-137 0 -244 -107 -244 -244c0 -135 107 -242 244 -242zM635 133c178 0 317 148 317 324c0 178 -139 317 -317 317c-176 0 -316 -139 -316 -317c0 -176 140 -324 316 -324z" />
    <glyph glyph-name="nine" unicode="9" horiz-adv-x="1270" 
d="M1161 1053c6 -144 -49 -267 -131 -369l-543 -684h-215l449 535c-37 -14 -81 -23 -148 -23c-205 0 -477 190 -489 496c-13 292 227 544 520 544c299 0 545 -211 557 -499zM622 659c234 0 379 177 367 392c-13 204 -170 331 -383 331c-215 0 -365 -170 -352 -372
c12 -215 176 -351 368 -351z" />
    <glyph glyph-name="colon" unicode=":" horiz-adv-x="621" 
d="M309 815c-61 0 -114 51 -114 115c0 61 53 114 114 114c62 0 115 -53 115 -114c0 -64 -53 -115 -115 -115zM309 -20c-61 0 -114 51 -114 114c0 62 53 115 114 115c62 0 115 -53 115 -115c0 -63 -53 -114 -115 -114z" />
    <glyph glyph-name="semicolon" unicode=";" horiz-adv-x="623" 
d="M324 815c-64 0 -115 51 -115 115c0 61 51 114 115 114c61 0 114 -53 114 -114c0 -64 -53 -115 -114 -115zM324 209c61 0 114 -53 114 -115c0 -11 -1 -21 -4 -31l-149 -440h-125l110 371c-36 19 -61 57 -61 100c0 62 53 115 115 115z" />
    <glyph glyph-name="less" unicode="&#x3c;" horiz-adv-x="1360" 
d="M1225 1382v-176l-963 -485l963 -488v-180l-1131 572v190z" />
    <glyph glyph-name="equal" unicode="=" horiz-adv-x="1243" 
d="M260 805v160h723v-160h-723zM260 391v158h723v-158h-723z" />
    <glyph glyph-name="greater" unicode="&#x3e;" horiz-adv-x="1360" 
d="M135 1382l1131 -567v-190l-1131 -572v180l963 488l-963 485v176z" />
    <glyph glyph-name="question" unicode="?" horiz-adv-x="1036" 
d="M430 430v129c0 381 371 227 371 563c0 160 -123 275 -295 275c-164 0 -285 -117 -291 -275h-152c3 242 191 422 443 422c258 0 444 -178 444 -422c0 -397 -366 -309 -366 -544v-148h-154zM514 -20c-61 0 -115 51 -115 114c0 62 54 115 115 115c64 0 115 -53 115 -115
c0 -63 -51 -114 -115 -114z" />
    <glyph glyph-name="at" unicode="@" horiz-adv-x="1755" 
d="M901 -229c-434 0 -762 297 -762 745c0 430 338 754 772 754c371 0 705 -221 705 -647c0 -324 -178 -490 -381 -490c-113 0 -174 68 -184 148h-4c-46 -72 -140 -146 -256 -146c-175 0 -283 131 -283 322c0 237 162 450 393 450c105 0 184 -51 217 -121h4l21 95h123
c-25 -133 -54 -279 -78 -398c-29 -137 -27 -229 78 -229c120 0 219 131 219 354c0 338 -234 539 -576 539c-370 0 -622 -266 -622 -633c0 -385 274 -620 628 -620c209 0 369 59 508 178l76 -95c-156 -137 -362 -206 -598 -206zM819 262c166 0 236 178 242 305
c4 113 -33 215 -160 215c-149 0 -237 -176 -237 -331c0 -80 34 -189 155 -189z" />
    <glyph glyph-name="A" unicode="A" horiz-adv-x="1360" 
d="M1137 0l-96 246h-722l-96 -246h-194l651 1578l651 -1578h-194zM383 408h595l-297 760z" />
    <glyph glyph-name="B" unicode="B" horiz-adv-x="1366" 
d="M981 782c168 -52 274 -186 274 -376c0 -240 -188 -406 -421 -406h-617v1536h543c235 0 426 -168 426 -410c0 -161 -76 -281 -205 -344zM1012 1112c0 148 -121 250 -271 250h-352v-510h352c150 0 271 111 271 260zM811 174c150 0 270 105 270 252s-120 258 -270 258h-422
v-510h422z" />
    <glyph glyph-name="C" unicode="C" horiz-adv-x="1495" 
d="M885 -20c-439 0 -789 350 -789 788s350 788 789 788c198 0 418 -92 557 -231l-125 -123c-111 113 -273 180 -432 180c-342 0 -615 -270 -615 -614s273 -614 615 -614c159 0 321 67 432 180l125 -123c-139 -139 -359 -231 -557 -231z" />
    <glyph glyph-name="D" unicode="D" horiz-adv-x="1501" 
d="M217 0v1536h424c424 0 768 -344 768 -768s-344 -768 -768 -768h-424zM389 174h250c334 0 596 252 596 594s-262 594 -596 594h-250v-1188z" />
    <glyph glyph-name="E" unicode="E" horiz-adv-x="1165" 
d="M1061 1368h-670v-516h584v-168h-584v-516h670v-168h-844v1536h844v-168z" />
    <glyph glyph-name="F" unicode="F" horiz-adv-x="1118" 
d="M1061 1368h-670v-516h584v-168h-584v-684h-174v1536h844v-168z" />
    <glyph glyph-name="G" unicode="G" horiz-adv-x="1630" 
d="M870 809h613v-809h-154l-10 113c-129 -83 -287 -133 -434 -133c-439 0 -789 350 -789 788s350 788 789 788c198 0 418 -92 557 -231l-125 -123c-111 113 -273 180 -432 180c-342 0 -615 -270 -615 -614s273 -614 615 -614c155 0 313 64 424 172v319h-439v164z" />
    <glyph glyph-name="H" unicode="H" horiz-adv-x="1616" 
d="M1225 1536h174v-1536h-174v682h-834v-682h-174v1536h174v-680h834v680z" />
    <glyph glyph-name="I" unicode="I" horiz-adv-x="608" 
d="M217 0v1536h174v-1536h-174z" />
    <glyph glyph-name="J" unicode="J" horiz-adv-x="1026" 
d="M332 -20c-113 0 -223 28 -314 81l80 156c66 -45 168 -67 246 -67c205 0 320 157 320 342v1044h174v-1073c0 -281 -207 -483 -506 -483z" />
    <glyph glyph-name="K" unicode="K" horiz-adv-x="1296" 
d="M1268 0h-221l-656 761v-761h-174v1536h174v-733l631 733h221l-649 -754z" />
    <glyph glyph-name="L" unicode="L" horiz-adv-x="987" 
d="M391 174h567v-174h-741v1536h174v-1362z" />
    <glyph glyph-name="M" unicode="M" horiz-adv-x="1866" 
d="M932 507l715 1113v-1620h-172v1052l-545 -855l-537 851v-1048h-174v1620z" />
    <glyph glyph-name="N" unicode="N" horiz-adv-x="1575" 
d="M1358 1536v-1603l-967 1193v-1126h-174v1603l969 -1192v1125h172z" />
    <glyph glyph-name="O" unicode="O" horiz-adv-x="1765" 
d="M883 -20c-437 0 -789 352 -789 788s352 788 789 788c436 0 788 -352 788 -788s-352 -788 -788 -788zM883 154c342 0 614 272 614 614s-272 614 -614 614c-340 0 -615 -272 -615 -614s275 -614 615 -614z" />
    <glyph glyph-name="P" unicode="P" horiz-adv-x="1348" 
d="M854 1536c240 0 430 -193 430 -430c0 -240 -190 -426 -430 -426h-463v-680h-174v1536h637zM838 846c151 0 272 92 272 258c0 160 -121 264 -272 264h-447v-522h447z" />
    <glyph glyph-name="Q" unicode="Q" horiz-adv-x="1821" 
d="M1729 94l-117 -117l-203 204c-139 -125 -324 -201 -526 -201c-437 0 -789 352 -789 788s352 788 789 788c436 0 788 -352 788 -788c0 -175 -57 -337 -153 -467zM883 154c155 0 296 56 404 149l-167 168l111 111l162 -159c66 98 104 217 104 345c0 342 -272 614 -614 614
c-340 0 -615 -272 -615 -614s275 -614 615 -614z" />
    <glyph glyph-name="R" unicode="R" horiz-adv-x="1405" 
d="M1133 0l-366 680h-376v-680h-174v1536h637c240 0 430 -193 430 -430c0 -205 -139 -371 -330 -415l367 -691h-188zM391 1368v-522h447c151 0 272 92 272 258c0 160 -121 264 -272 264h-447z" />
    <glyph glyph-name="S" unicode="S" horiz-adv-x="1135" 
d="M580 -20c-218 0 -408 106 -517 241l125 125c91 -129 215 -211 381 -211c179 0 310 103 310 264c0 174 -168 244 -347 318c-194 82 -399 172 -399 436c0 248 191 403 430 403c199 0 344 -92 443 -208l-105 -109c-121 127 -215 162 -334 162c-143 0 -260 -84 -260 -236
c0 -164 144 -231 303 -295c207 -84 443 -163 443 -464c0 -279 -219 -426 -473 -426z" />
    <glyph glyph-name="T" unicode="T" horiz-adv-x="1075" 
d="M1047 1536v-174h-422v-1362h-174v1362h-422v174h1018z" />
    <glyph glyph-name="U" unicode="U" horiz-adv-x="1526" 
d="M762 -20c-336 0 -580 221 -580 524v1032h174v-1004c0 -219 170 -378 406 -378c235 0 407 159 407 378v1004h174v-1032c0 -303 -243 -524 -581 -524z" />
    <glyph glyph-name="V" unicode="V" horiz-adv-x="1360" 
d="M1139 1536h192l-651 -1580l-651 1580h192l460 -1174z" />
    <glyph glyph-name="W" unicode="W" horiz-adv-x="1946" 
d="M1917 1536l-651 -1580l-293 710l-293 -711l-651 1581h188l469 -1180l202 516l-274 664h183l176 -447l176 447h182l-273 -663l204 -517l467 1180h188z" />
    <glyph glyph-name="X" unicode="X" horiz-adv-x="1319" 
d="M1278 0h-211l-408 635l-407 -635h-211l523 779l-509 757h209l396 -611l395 611h209l-510 -756z" />
    <glyph glyph-name="Y" unicode="Y" horiz-adv-x="1270" 
d="M1257 1536l-534 -808v-728h-174v725l-537 811h217l407 -629l408 629h213z" />
    <glyph glyph-name="Z" unicode="Z" horiz-adv-x="1356" 
d="M1297 1536l-928 -1362h915v-174h-1245l928 1362h-844v174h1174z" />
    <glyph glyph-name="bracketleft" unicode="[" horiz-adv-x="647" 
d="M209 -512v2294h412v-129h-265v-2036h265v-129h-412z" />
    <glyph glyph-name="backslash" unicode="\" horiz-adv-x="1174" 
d="M1047 -348l-1082 2048h164l1079 -2048h-161z" />
    <glyph glyph-name="bracketright" unicode="]" horiz-adv-x="647" 
d="M438 -512h-412v129h265v2036h-265v129h412v-2294z" />
    <glyph glyph-name="asciicircum" unicode="^" horiz-adv-x="1448" 
d="M1370 406h-145l-501 995l-501 -995h-145l569 1130h154z" />
    <glyph glyph-name="underscore" unicode="_" horiz-adv-x="1491" 
d="M234 -182v131h1024v-131h-1024z" />
    <glyph glyph-name="grave" unicode="`" horiz-adv-x="487" 
d="M348 1143l-336 289l98 108l301 -326z" />
    <glyph glyph-name="a" unicode="a" horiz-adv-x="1253" 
d="M913 963h168v-963h-168v137c-82 -96 -204 -155 -356 -155c-258 0 -481 223 -481 499c0 277 223 500 481 500c152 0 274 -59 356 -155v137zM580 145c186 0 333 150 333 336c0 187 -147 336 -333 336c-187 0 -336 -149 -336 -336c0 -186 149 -336 336 -336z" />
    <glyph glyph-name="b" unicode="b" horiz-adv-x="1255" 
d="M698 981c258 0 481 -223 481 -500c0 -276 -223 -499 -481 -499c-152 0 -274 59 -356 155v-137h-168v1536h168v-710c82 96 204 155 356 155zM675 145c187 0 336 150 336 336c0 187 -149 336 -336 336c-186 0 -333 -149 -333 -336c0 -186 147 -336 333 -336z" />
    <glyph glyph-name="c" unicode="c" horiz-adv-x="1098" 
d="M578 -18c-281 0 -504 221 -504 499c0 279 223 500 504 500c204 0 378 -117 456 -291l-153 -69c-54 116 -164 196 -303 196c-193 0 -336 -145 -336 -336c0 -190 143 -336 336 -336c139 0 249 80 303 197l153 -70c-78 -174 -252 -290 -456 -290z" />
    <glyph glyph-name="d" unicode="d" horiz-adv-x="1255" 
d="M913 1536h168v-1536h-168v137c-82 -96 -204 -155 -356 -155c-258 0 -481 223 -481 499c0 277 223 500 481 500c152 0 274 -59 356 -155v710zM580 145c186 0 333 150 333 336c0 187 -147 336 -333 336c-187 0 -336 -149 -336 -336c0 -186 149 -336 336 -336z" />
    <glyph glyph-name="e" unicode="e" horiz-adv-x="1139" 
d="M1077 492v-33h-844c10 -183 162 -326 345 -326c120 0 229 62 292 162l142 -57c-84 -158 -246 -256 -432 -256c-285 0 -504 223 -504 499c0 277 221 500 502 500c276 0 499 -213 499 -489zM578 829c-155 0 -281 -96 -327 -235h649c-44 138 -169 235 -322 235z" />
    <glyph glyph-name="f" unicode="f" horiz-adv-x="647" 
d="M639 963v-154h-254v-809h-168v809h-162v154h162v297c0 184 113 299 287 299c55 0 106 -11 131 -29v-166c-29 22 -72 37 -111 37c-84 0 -139 -64 -139 -162v-276h254z" />
    <glyph glyph-name="g" unicode="g" horiz-adv-x="1253" 
d="M909 963h170v-963c0 -279 -225 -500 -504 -500c-196 0 -368 113 -452 277l135 94c55 -121 174 -207 317 -207c185 0 334 150 334 336v125c-76 -89 -189 -143 -336 -143c-276 0 -499 223 -499 499c0 279 223 500 499 500c147 0 260 -54 336 -143v125zM578 145
c184 0 333 152 333 336c0 187 -149 336 -333 336c-189 0 -336 -149 -336 -336c0 -184 147 -336 336 -336z" />
    <glyph glyph-name="h" unicode="h" horiz-adv-x="1071" 
d="M575 981c193 0 349 -156 349 -348v-633h-168v621c0 114 -92 204 -205 204c-116 0 -207 -86 -209 -197v-628h-168v1536h168v-643c62 55 143 88 233 88z" />
    <glyph glyph-name="i" unicode="i" horiz-adv-x="514" 
d="M258 1141c-61 0 -113 49 -113 110c0 64 52 111 113 111c59 0 111 -47 111 -111c0 -61 -52 -110 -111 -110zM174 0v963h166v-963h-166z" />
    <glyph glyph-name="j" unicode="j" horiz-adv-x="514" 
d="M258 1141c-61 0 -113 49 -113 110c0 64 52 111 113 111c59 0 111 -47 111 -111c0 -61 -52 -110 -111 -110zM174 -481v1444h166v-1444h-166z" />
    <glyph glyph-name="k" unicode="k" horiz-adv-x="1016" 
d="M1022 0h-227l-453 502v-502h-168v1536h168v-990l373 417h227l-407 -433z" />
    <glyph glyph-name="l" unicode="l" horiz-adv-x="516" 
d="M174 0v1536h168v-1536h-168z" />
    <glyph glyph-name="m" unicode="m" horiz-adv-x="1614" 
d="M1110 981c201 0 358 -164 358 -369v-612h-168v610c0 115 -88 207 -196 207c-111 0 -199 -92 -199 -209v-608h-168v610c0 115 -88 207 -198 207c-111 0 -197 -92 -197 -209v-608h-168v963h168v-87c57 64 135 105 221 105c99 0 198 -55 264 -141c66 86 167 141 283 141z
" />
    <glyph glyph-name="n" unicode="n" horiz-adv-x="1071" 
d="M575 981c193 0 349 -156 349 -348v-633h-168v621c0 114 -92 204 -205 204c-116 0 -207 -86 -209 -197v-628h-168v963h168v-69c62 54 144 87 233 87z" />
    <glyph glyph-name="o" unicode="o" horiz-adv-x="1155" 
d="M578 -18c-281 0 -504 223 -504 499c0 277 223 500 504 500c278 0 501 -223 501 -500c0 -276 -223 -499 -501 -499zM578 145c184 0 333 150 333 336c0 187 -149 336 -333 336c-189 0 -336 -149 -336 -336c0 -186 147 -336 336 -336z" />
    <glyph glyph-name="p" unicode="p" horiz-adv-x="1255" 
d="M698 981c258 0 482 -223 482 -500c0 -276 -224 -499 -482 -499c-152 0 -274 59 -356 155v-629h-168v1455h168v-137c82 96 204 155 356 155zM676 145c186 0 336 150 336 336c0 187 -150 336 -336 336c-187 0 -334 -149 -334 -336c0 -186 147 -336 334 -336z" />
    <glyph glyph-name="q" unicode="q" horiz-adv-x="1255" 
d="M913 963h168v-1455h-168v629c-82 -96 -204 -155 -356 -155c-258 0 -482 223 -482 499c0 277 224 500 482 500c152 0 274 -59 356 -155v137zM579 145c187 0 334 150 334 336c0 187 -147 336 -334 336c-186 0 -336 -149 -336 -336c0 -186 150 -336 336 -336z" />
    <glyph glyph-name="r" unicode="r" horiz-adv-x="721" 
d="M590 981c57 0 106 -16 139 -37l-57 -143c-25 10 -54 16 -78 16c-143 0 -252 -131 -252 -307v-510h-168v963h168v-150c51 102 133 168 248 168z" />
    <glyph glyph-name="s" unicode="s" horiz-adv-x="874" 
d="M432 -18c-164 0 -278 63 -362 124l94 138c63 -58 164 -111 276 -111c113 0 187 53 187 141c0 99 -101 123 -209 154c-142 39 -307 80 -307 270c0 183 157 283 346 283c112 0 225 -37 307 -94l-96 -129c-80 57 -158 76 -226 76c-106 0 -174 -46 -174 -119
c0 -94 117 -117 240 -150c137 -37 280 -90 280 -278c0 -193 -141 -305 -356 -305z" />
    <glyph glyph-name="t" unicode="t" horiz-adv-x="633" 
d="M602 963v-154h-201v-809h-170v809h-202v154h202v346h170v-346h201z" />
    <glyph glyph-name="u" unicode="u" horiz-adv-x="1032" 
d="M516 -18c-223 0 -369 141 -369 366v615h168v-596c0 -138 84 -222 201 -222c119 0 201 84 201 222v596h168v-615c0 -225 -146 -366 -369 -366z" />
    <glyph glyph-name="v" unicode="v" horiz-adv-x="942" 
d="M758 963h180l-468 -1006l-466 1006h180l287 -658z" />
    <glyph glyph-name="w" unicode="w" horiz-adv-x="1432" 
d="M1415 963l-389 -1015l-311 682l-311 -682l-388 1015h183l222 -608l294 661l296 -666l222 613h182z" />
    <glyph glyph-name="x" unicode="x" horiz-adv-x="1047" 
d="M20 0l402 481l-402 482h203l299 -361l301 361h203l-401 -482l401 -481h-203l-299 360l-299 -360h-205z" />
    <glyph glyph-name="y" unicode="y" horiz-adv-x="985" 
d="M782 963h189l-584 -1455h-178l194 492l-391 963h187l300 -773z" />
    <glyph glyph-name="z" unicode="z" horiz-adv-x="936" 
d="M881 963l-534 -809h527v-154h-831l533 809h-496v154h801z" />
    <glyph glyph-name="braceleft" unicode="{" horiz-adv-x="586" 
d="M428 -512c-121 0 -211 115 -211 262v498c0 186 -16 266 -154 332v110c138 66 154 148 154 332v496c0 151 90 264 211 264h90v-121h-55c-84 0 -113 -66 -113 -180v-488c0 -147 -18 -272 -141 -358c123 -86 141 -211 141 -359v-489c0 -115 29 -176 113 -176h55v-123h-90z
" />
    <glyph glyph-name="bar" unicode="|" horiz-adv-x="637" 
d="M262 -307v1843h113v-1843h-113z" />
    <glyph glyph-name="braceright" unicode="}" horiz-adv-x="586" 
d="M158 -512h-90v123h55c84 0 113 61 113 176v489c0 148 18 273 141 359c-123 86 -141 211 -141 358v488c0 114 -29 180 -113 180h-55v121h90c121 0 211 -113 211 -264v-496c0 -184 16 -266 154 -332v-110c-138 -66 -154 -146 -154 -332v-498c0 -147 -90 -262 -211 -262z
" />
    <glyph glyph-name="asciitilde" unicode="~" horiz-adv-x="1417" 
d="M924 342c-146 0 -228 96 -281 156c-47 53 -84 80 -135 80c-102 0 -160 -99 -158 -216h-149c-13 216 114 365 309 365c115 0 182 -55 258 -147c39 -48 78 -91 143 -91c90 0 162 82 154 213h149c17 -204 -110 -360 -290 -360z" />
    <glyph glyph-name="exclamdown" unicode="&#xa1;" horiz-adv-x="651" 
d="M325 1044c62 0 115 -53 115 -114c0 -64 -53 -115 -115 -115c-61 0 -114 51 -114 115c0 61 53 114 114 114zM241 582h168v-1094h-168v1094z" />
    <glyph glyph-name="cent" unicode="&#xa2;" horiz-adv-x="1223" 
d="M639 385c139 0 249 80 303 197l153 -70c-70 -156 -218 -266 -395 -286v-228h-108v226c-258 23 -457 235 -457 497c0 263 199 475 457 498v217h108v-219c177 -20 325 -131 395 -287l-153 -69c-54 116 -164 196 -303 196c-193 0 -336 -145 -336 -336
c0 -190 143 -336 336 -336z" />
    <glyph glyph-name="sterling" unicode="&#xa3;" horiz-adv-x="1376" 
d="M500 672v-508h731v-164h-1073v152l164 8v512h-164v153h164v242c0 285 196 489 477 489c198 0 391 -139 450 -331l-170 -76c-22 133 -149 229 -280 229c-181 0 -299 -125 -299 -311v-242h381v-153h-381z" />
    <glyph glyph-name="currency" unicode="&#xa4;" horiz-adv-x="1389" 
d="M692 295c-94 0 -188 31 -266 90l-104 -106l-93 98l105 102c-60 78 -88 170 -88 264c0 95 28 189 88 265l-103 100l93 98l104 -106c78 61 174 92 268 92c92 0 185 -31 262 -90l103 102l94 -92l-102 -102c59 -78 90 -172 90 -267c0 -94 -31 -188 -90 -266l102 -100l-92 -98
l-105 106c-77 -59 -172 -90 -266 -90zM692 426c176 0 318 141 318 317c0 175 -144 316 -318 316c-176 0 -317 -144 -317 -320s143 -313 317 -313z" />
    <glyph glyph-name="yen" unicode="&#xa5;" horiz-adv-x="1456" 
d="M647 0v281h-405v143h405v172h-405v143h395l-526 797h217l407 -629l408 629h213l-527 -797h398v-143h-406v-172h404v-143h-404v-281h-174z" />
    <glyph glyph-name="brokenbar" unicode="&#xa6;" horiz-adv-x="637" 
d="M262 799v737h113v-737h-113zM262 -307v737h113v-737h-113z" />
    <glyph glyph-name="section" unicode="&#xa7;" horiz-adv-x="1196" 
d="M612 -621c-176 7 -323 97 -405 209l139 111c57 -90 154 -141 268 -145c142 -5 263 63 267 210c12 361 -734 259 -715 781c6 127 55 227 135 299c-98 69 -168 168 -162 321c8 250 203 402 445 394c176 -7 321 -97 403 -209l-139 -111c-57 90 -152 141 -266 145
c-142 5 -263 -63 -269 -210c-12 -361 734 -259 715 -781c-4 -127 -53 -229 -133 -299c96 -71 164 -168 160 -321c-8 -250 -201 -402 -443 -394zM727 190c74 39 125 109 127 203c6 197 -195 264 -385 355c-76 -39 -127 -107 -129 -203c-6 -197 195 -264 387 -355z" />
    <glyph glyph-name="dieresis" unicode="&#xa8;" horiz-adv-x="877" 
d="M250 1141c-62 0 -115 51 -115 112c0 66 53 115 115 115c61 0 115 -49 115 -115c0 -61 -54 -112 -115 -112zM627 1141c-62 0 -115 51 -115 112c0 66 53 115 115 115c63 0 114 -49 114 -115c0 -61 -51 -112 -114 -112z" />
    <glyph glyph-name="copyright" unicode="&#xa9;" horiz-adv-x="1847" 
d="M924 -20c-435 0 -789 354 -789 788s354 788 789 788c434 0 788 -354 788 -788s-354 -788 -788 -788zM924 80c385 0 690 305 690 688s-305 688 -690 688c-383 0 -688 -305 -688 -688s305 -688 688 -688zM926 330c-244 0 -439 194 -439 438s195 438 439 438
c110 0 231 -51 309 -129l-70 -67c-61 63 -151 100 -239 100c-191 0 -342 -149 -342 -342c0 -190 151 -340 342 -340c88 0 178 37 239 100l70 -69c-78 -78 -199 -129 -309 -129z" />
    <glyph glyph-name="ordfeminine" unicode="&#xaa;" horiz-adv-x="1018" 
d="M690 1536h115v-614h-115v119c-52 -80 -137 -132 -241 -132c-170 0 -310 142 -310 320c0 176 140 319 310 319c104 0 189 -52 241 -132v120zM471 1010c121 0 219 98 219 219c0 119 -98 215 -219 215s-217 -96 -217 -215c0 -121 96 -219 217 -219z" />
    <glyph glyph-name="guillemotleft" unicode="&#xab;" horiz-adv-x="967" 
d="M367 104l-312 377l312 377h143l-311 -377l311 -377h-143zM743 104l-311 377l311 377h148l-311 -377l311 -377h-148z" />
    <glyph glyph-name="logicalnot" unicode="&#xac;" horiz-adv-x="1638" 
d="M1231 225v525h-1112v149h1259v-674h-147z" />
    <glyph glyph-name="uni00AD" unicode="&#xad;" horiz-adv-x="1053" 
d="M168 403v145h717v-145h-717z" />
    <glyph glyph-name="registered" unicode="&#xae;" horiz-adv-x="1847" 
d="M924 1556c434 0 788 -354 788 -788s-354 -788 -788 -788c-435 0 -789 354 -789 788s354 788 789 788zM924 80c385 0 690 305 690 688s-305 688 -690 688c-383 0 -688 -305 -688 -688s305 -688 688 -688zM1280 987c0 -119 -72 -217 -175 -257l206 -458h-121l-197 439h-237
v-439h-113v992h358c156 0 279 -123 279 -277zM756 1155v-336h235c99 0 176 60 176 166c0 102 -77 170 -176 170h-235z" />
    <glyph glyph-name="macron" unicode="&#xaf;" horiz-adv-x="967" 
d="M166 1233v115h635v-115h-635z" />
    <glyph glyph-name="degree" unicode="&#xb0;" horiz-adv-x="1018" 
d="M508 1085c-182 0 -330 150 -330 330c0 182 148 330 330 330c180 0 330 -148 330 -330c0 -180 -150 -330 -330 -330zM508 1176c133 0 240 106 240 239s-107 240 -240 240s-240 -107 -240 -240s107 -239 240 -239z" />
    <glyph glyph-name="uni00B2" unicode="&#xb2;" horiz-adv-x="713" 
d="M297 766h346v-152h-604v86c375 399 418 487 418 567c0 99 -64 129 -121 129c-80 0 -123 -53 -123 -133h-166c0 176 119 287 291 287c162 0 278 -100 280 -268c3 -144 -79 -269 -321 -516z" />
    <glyph glyph-name="uni00B3" unicode="&#xb3;" horiz-adv-x="707" 
d="M506 1132c84 -47 139 -130 139 -235c0 -164 -133 -295 -307 -295c-164 0 -299 112 -299 274l168 2c0 -69 61 -119 133 -119c80 0 139 62 139 142s-59 133 -137 133h-86v141h76c63 0 110 51 110 113c0 63 -49 104 -110 104c-60 0 -101 -39 -101 -94l-163 2
c0 148 114 248 264 248c147 0 262 -107 262 -242c0 -74 -33 -135 -88 -174z" />
    <glyph glyph-name="acute" unicode="&#xb4;" horiz-adv-x="496" 
d="M111 1143l-66 71l303 326l96 -108z" />
    <glyph glyph-name="uni00B5" unicode="&#xb5;" horiz-adv-x="1196" 
d="M856 963h166v-963h-166v140c-71 -97 -181 -158 -307 -158c-95 0 -182 35 -248 94v-557h-127v1444h168v-582c0 -139 113 -252 254 -252c143 0 260 113 260 252v582z" />
    <glyph glyph-name="paragraph" unicode="&#xb6;" horiz-adv-x="1161" 
d="M518 -307v1157h-65c-226 0 -365 121 -365 344s139 342 365 342h159v-1843h-94zM805 -307v1843h94v-1843h-94z" />
    <glyph glyph-name="periodcentered" unicode="&#xb7;" horiz-adv-x="604" 
d="M301 645c-49 0 -92 39 -92 92c0 49 43 92 92 92s94 -43 94 -92c0 -53 -45 -92 -94 -92z" />
    <glyph glyph-name="cedilla" unicode="&#xb8;" horiz-adv-x="614" 
d="M313 -532c-94 0 -198 59 -237 135l92 37c29 -41 94 -72 145 -72c62 0 111 49 111 113c0 92 -88 131 -199 88l-80 51l93 184h100l-66 -139c140 29 252 -55 252 -184c0 -119 -92 -213 -211 -213z" />
    <glyph glyph-name="uni00B9" unicode="&#xb9;" horiz-adv-x="477" 
d="M172 614v770h-133v152h299v-922h-166z" />
    <glyph glyph-name="ordmasculine" unicode="&#xba;" horiz-adv-x="938" 
d="M467 909c-184 0 -332 142 -332 320c0 176 148 319 332 319c186 0 334 -143 334 -319c0 -178 -148 -320 -334 -320zM467 1010c121 0 219 98 219 219c0 119 -98 215 -219 215s-217 -96 -217 -215c0 -121 96 -219 217 -219z" />
    <glyph glyph-name="guillemotright" unicode="&#xbb;" horiz-adv-x="967" 
d="M76 104l311 377l-311 377h143l311 -377l-311 -377h-143zM453 104l311 377l-311 377h147l311 -377l-311 -377h-147z" />
    <glyph glyph-name="onequarter" unicode="&#xbc;" horiz-adv-x="1667" 
d="M172 614v770h-133v152h299v-922h-166zM1179 1536h177l-1072 -1536h-176zM1593 346v-151h-84v-195h-166v195h-438v104l383 623h221v-576h84zM1105 346h238v406z" />
    <glyph glyph-name="onehalf" unicode="&#xbd;" horiz-adv-x="1700" 
d="M172 614v770h-133v152h299v-922h-166zM1179 1536h177l-1072 -1536h-176zM1284 152h346v-152h-604v86c375 399 418 487 418 567c0 99 -64 129 -121 129c-80 0 -123 -53 -123 -133h-166c0 176 119 287 291 287c162 0 278 -100 280 -268c3 -144 -79 -269 -321 -516z" />
    <glyph glyph-name="threequarters" unicode="&#xbe;" horiz-adv-x="1897" 
d="M645 897c0 -164 -133 -295 -307 -295c-164 0 -299 112 -299 274l168 2c0 -69 61 -119 133 -119c80 0 139 62 139 142s-59 133 -137 133h-86v141h76c63 0 110 51 110 113c0 63 -49 104 -110 104c-60 0 -101 -39 -101 -94l-163 2c0 148 114 248 264 248
c147 0 262 -107 262 -242c0 -74 -33 -135 -88 -174c84 -47 139 -130 139 -235zM1409 1536h177l-1072 -1536h-176zM1823 346v-151h-84v-195h-166v195h-438v104l383 623h221v-576h84zM1335 346h238v406z" />
    <glyph glyph-name="questiondown" unicode="&#xbf;" horiz-adv-x="1034" 
d="M522 1046c61 0 115 -51 115 -114c0 -62 -54 -115 -115 -115c-64 0 -115 53 -115 115c0 63 51 114 115 114zM606 596v-129c0 -381 -371 -227 -371 -563c0 -160 123 -275 295 -275c164 0 285 117 291 275h152c-3 -242 -191 -422 -443 -422c-258 0 -444 178 -444 422
c0 397 366 309 366 544v148h154z" />
    <glyph glyph-name="Agrave" unicode="&#xc0;" horiz-adv-x="1360" 
d="M747 1726l-63 -71l-336 289l98 108zM1137 0l-96 246h-722l-96 -246h-194l651 1578l651 -1578h-194zM383 408h595l-297 760z" />
    <glyph glyph-name="Aacute" unicode="&#xc1;" horiz-adv-x="1360" 
d="M974 1944l-333 -289l-66 71l303 326zM1137 0l-96 246h-722l-96 -246h-194l651 1578l651 -1578h-194zM383 408h595l-297 760z" />
    <glyph glyph-name="Acircumflex" unicode="&#xc2;" horiz-adv-x="1360" 
d="M682 1896l-205 -237l-84 51l200 297h173l202 -297l-86 -51zM1137 0l-96 246h-722l-96 -246h-194l651 1578l651 -1578h-194zM383 408h595l-297 760z" />
    <glyph glyph-name="Atilde" unicode="&#xc3;" horiz-adv-x="1360" 
d="M547 1808c-65 0 -98 -71 -98 -159h-125c0 159 82 282 219 282c90 0 147 -53 188 -112c19 -27 41 -56 86 -56c62 0 97 54 97 160h123c0 -158 -76 -283 -220 -283c-96 0 -151 58 -188 113c-27 41 -51 55 -82 55zM1137 0l-96 246h-722l-96 -246h-194l651 1578l651 -1578
h-194zM383 408h595l-297 760z" />
    <glyph glyph-name="Adieresis" unicode="&#xc4;" horiz-adv-x="1360" 
d="M494 1652c-62 0 -115 51 -115 113c0 65 53 115 115 115c61 0 115 -50 115 -115c0 -62 -54 -113 -115 -113zM871 1652c-62 0 -115 51 -115 113c0 65 53 115 115 115c63 0 114 -50 114 -115c0 -62 -51 -113 -114 -113zM1137 0l-96 246h-722l-96 -246h-194l651 1578
l651 -1578h-194zM383 408h595l-297 760z" />
    <glyph glyph-name="Aring" unicode="&#xc5;" horiz-adv-x="1360" 
d="M682 1673c-119 0 -217 98 -217 215c0 119 98 215 217 215c117 0 213 -96 213 -215c0 -117 -96 -215 -213 -215zM682 2015c-70 0 -123 -60 -123 -127c0 -72 53 -125 123 -125c67 0 123 53 123 125c0 67 -56 127 -123 127zM1137 0l-96 246h-722l-96 -246h-194l651 1578
l651 -1578h-194zM383 408h595l-297 760z" />
    <glyph glyph-name="AE" unicode="&#xc6;" horiz-adv-x="1810" 
d="M1702 1362h-672v-506h586v-174h-586v-508h672v-174h-842v365h-492l-143 -365h-196l616 1536h1057v-174zM433 530h427v856h-92z" />
    <glyph glyph-name="Ccedilla" unicode="&#xc7;" horiz-adv-x="1495" 
d="M1442 211c-133 -133 -339 -223 -530 -230l-55 -116c140 29 252 -55 252 -184c0 -119 -92 -213 -211 -213c-94 0 -198 59 -237 135l92 37c29 -41 94 -72 145 -72c62 0 111 49 111 113c0 92 -88 131 -199 88l-80 51l82 163c-404 36 -716 371 -716 785
c0 438 350 788 789 788c198 0 418 -92 557 -231l-125 -123c-111 113 -273 180 -432 180c-342 0 -615 -270 -615 -614s273 -614 615 -614c159 0 321 67 432 180z" />
    <glyph glyph-name="Egrave" unicode="&#xc8;" horiz-adv-x="1165" 
d="M704 1726l-63 -71l-336 289l98 108zM1061 1368h-670v-516h584v-168h-584v-516h670v-168h-844v1536h844v-168z" />
    <glyph glyph-name="Eacute" unicode="&#xc9;" horiz-adv-x="1165" 
d="M931 1944l-333 -289l-66 71l303 326zM1061 1368h-670v-516h584v-168h-584v-516h670v-168h-844v1536h844v-168z" />
    <glyph glyph-name="Ecircumflex" unicode="&#xca;" horiz-adv-x="1165" 
d="M639 1896l-205 -237l-84 51l200 297h173l202 -297l-86 -51zM1061 1368h-670v-516h584v-168h-584v-516h670v-168h-844v1536h844v-168z" />
    <glyph glyph-name="Edieresis" unicode="&#xcb;" horiz-adv-x="1165" 
d="M451 1652c-62 0 -115 51 -115 113c0 65 53 115 115 115c61 0 115 -50 115 -115c0 -62 -54 -113 -115 -113zM828 1652c-62 0 -115 51 -115 113c0 65 53 115 115 115c63 0 114 -50 114 -115c0 -62 -51 -113 -114 -113zM1061 1368h-670v-516h584v-168h-584v-516h670v-168
h-844v1536h844v-168z" />
    <glyph glyph-name="Igrave" unicode="&#xcc;" horiz-adv-x="608" 
d="M305 1655l-336 289l98 108l301 -326zM217 0v1536h174v-1536h-174z" />
    <glyph glyph-name="Iacute" unicode="&#xcd;" horiz-adv-x="608" 
d="M262 1655l-66 71l303 326l96 -108zM217 0v1536h174v-1536h-174z" />
    <glyph glyph-name="Icircumflex" unicode="&#xce;" horiz-adv-x="608" 
d="M98 1659l-84 51l200 297h173l202 -297l-86 -51l-200 237zM217 0v1536h174v-1536h-174z" />
    <glyph glyph-name="Idieresis" unicode="&#xcf;" horiz-adv-x="608" 
d="M115 1652c-62 0 -115 51 -115 113c0 65 53 115 115 115c61 0 115 -50 115 -115c0 -62 -54 -113 -115 -113zM492 1652c-62 0 -115 51 -115 113c0 65 53 115 115 115c63 0 114 -50 114 -115c0 -62 -51 -113 -114 -113zM217 0v1536h174v-1536h-174z" />
    <glyph glyph-name="Eth" unicode="&#xd0;" horiz-adv-x="1501" 
d="M641 1536c424 0 768 -344 768 -768s-344 -768 -768 -768h-424v698h-158v119h158v719h424zM639 174c334 0 596 252 596 594s-262 594 -596 594h-250v-545h272v-119h-272v-524h250z" />
    <glyph glyph-name="Ntilde" unicode="&#xd1;" horiz-adv-x="1575" 
d="M651 1808c-65 0 -98 -71 -98 -159h-125c0 159 82 282 219 282c90 0 147 -53 188 -112c19 -27 41 -56 86 -56c62 0 97 54 97 160h123c0 -158 -76 -283 -220 -283c-96 0 -151 58 -188 113c-27 41 -51 55 -82 55zM1358 1536v-1603l-967 1193v-1126h-174v1603l969 -1192v1125
h172z" />
    <glyph glyph-name="Ograve" unicode="&#xd2;" horiz-adv-x="1765" 
d="M885 1655l-336 289l98 108l301 -326zM883 -20c-437 0 -789 352 -789 788s352 788 789 788c436 0 788 -352 788 -788s-352 -788 -788 -788zM883 154c342 0 614 272 614 614s-272 614 -614 614c-340 0 -615 -272 -615 -614s275 -614 615 -614z" />
    <glyph glyph-name="Oacute" unicode="&#xd3;" horiz-adv-x="1765" 
d="M842 1655l-66 71l303 326l96 -108zM883 -20c-437 0 -789 352 -789 788s352 788 789 788c436 0 788 -352 788 -788s-352 -788 -788 -788zM883 154c342 0 614 272 614 614s-272 614 -614 614c-340 0 -615 -272 -615 -614s275 -614 615 -614z" />
    <glyph glyph-name="Ocircumflex" unicode="&#xd4;" horiz-adv-x="1765" 
d="M678 1659l-84 51l200 297h173l202 -297l-86 -51l-200 237zM883 -20c-437 0 -789 352 -789 788s352 788 789 788c436 0 788 -352 788 -788s-352 -788 -788 -788zM883 154c342 0 614 272 614 614s-272 614 -614 614c-340 0 -615 -272 -615 -614s275 -614 615 -614z" />
    <glyph glyph-name="Otilde" unicode="&#xd5;" horiz-adv-x="1765" 
d="M1018 1640c-96 0 -151 58 -188 113c-27 41 -51 55 -82 55c-65 0 -98 -71 -98 -159h-125c0 159 82 282 219 282c90 0 147 -53 188 -112c19 -27 41 -56 86 -56c62 0 97 54 97 160h123c0 -158 -76 -283 -220 -283zM883 -20c-437 0 -789 352 -789 788s352 788 789 788
c436 0 788 -352 788 -788s-352 -788 -788 -788zM883 154c342 0 614 272 614 614s-272 614 -614 614c-340 0 -615 -272 -615 -614s275 -614 615 -614z" />
    <glyph glyph-name="Odieresis" unicode="&#xd6;" horiz-adv-x="1765" 
d="M695 1652c-62 0 -115 51 -115 113c0 65 53 115 115 115c61 0 115 -50 115 -115c0 -62 -54 -113 -115 -113zM1072 1652c-62 0 -115 51 -115 113c0 65 53 115 115 115c63 0 114 -50 114 -115c0 -62 -51 -113 -114 -113zM883 -20c-437 0 -789 352 -789 788s352 788 789 788
c436 0 788 -352 788 -788s-352 -788 -788 -788zM883 154c342 0 614 272 614 614s-272 614 -614 614c-340 0 -615 -272 -615 -614s275 -614 615 -614z" />
    <glyph glyph-name="multiply" unicode="&#xd7;" horiz-adv-x="1065" 
d="M262 283l-110 112l268 269l-268 266l110 112l270 -266l269 266l112 -112l-270 -266l270 -269l-112 -112l-269 268z" />
    <glyph glyph-name="Oslash" unicode="&#xd8;" horiz-adv-x="1765" 
d="M1394 1368c170 -144 277 -359 277 -600c0 -436 -352 -788 -788 -788c-141 0 -273 37 -387 101l-125 -179l-129 78l130 187c-170 144 -278 360 -278 601c0 436 352 788 789 788c141 0 274 -37 388 -102l124 178l127 -80zM268 768c0 -183 79 -346 204 -458l699 1001
c-85 46 -183 71 -288 71c-340 0 -615 -272 -615 -614zM883 154c342 0 614 272 614 614c0 183 -78 346 -203 458l-698 -1002c86 -45 183 -70 287 -70z" />
    <glyph glyph-name="Ugrave" unicode="&#xd9;" horiz-adv-x="1526" 
d="M764 1655l-336 289l98 108l301 -326zM762 -20c-336 0 -580 221 -580 524v1032h174v-1004c0 -219 170 -378 406 -378c235 0 407 159 407 378v1004h174v-1032c0 -303 -243 -524 -581 -524z" />
    <glyph glyph-name="Uacute" unicode="&#xda;" horiz-adv-x="1526" 
d="M721 1655l-66 71l303 326l96 -108zM762 -20c-336 0 -580 221 -580 524v1032h174v-1004c0 -219 170 -378 406 -378c235 0 407 159 407 378v1004h174v-1032c0 -303 -243 -524 -581 -524z" />
    <glyph glyph-name="Ucircumflex" unicode="&#xdb;" horiz-adv-x="1526" 
d="M557 1659l-84 51l200 297h173l202 -297l-86 -51l-200 237zM762 -20c-336 0 -580 221 -580 524v1032h174v-1004c0 -219 170 -378 406 -378c235 0 407 159 407 378v1004h174v-1032c0 -303 -243 -524 -581 -524z" />
    <glyph glyph-name="Udieresis" unicode="&#xdc;" horiz-adv-x="1526" 
d="M574 1652c-62 0 -115 51 -115 113c0 65 53 115 115 115c61 0 115 -50 115 -115c0 -62 -54 -113 -115 -113zM951 1652c-62 0 -115 51 -115 113c0 65 53 115 115 115c63 0 114 -50 114 -115c0 -62 -51 -113 -114 -113zM762 -20c-336 0 -580 221 -580 524v1032h174v-1004
c0 -219 170 -378 406 -378c235 0 407 159 407 378v1004h174v-1032c0 -303 -243 -524 -581 -524z" />
    <glyph glyph-name="Yacute" unicode="&#xdd;" horiz-adv-x="1270" 
d="M929 1944l-333 -289l-66 71l303 326zM1257 1536l-534 -808v-728h-174v725l-537 811h217l407 -629l408 629h213z" />
    <glyph glyph-name="Thorn" unicode="&#xde;" horiz-adv-x="1260" 
d="M770 1323c236 0 428 -193 428 -432c0 -236 -192 -424 -428 -424h-385v-467h-168v1528h168v-205h385zM756 635c155 0 268 106 268 260s-113 260 -268 260h-371v-520h371z" />
    <glyph glyph-name="germandbls" unicode="&#xdf;" horiz-adv-x="1290" 
d="M961 785c149 -71 249 -214 249 -386c0 -235 -180 -399 -401 -399h-172v174h143c138 0 260 80 260 234c0 157 -129 282 -290 282h-117v141h49c156 0 281 125 281 283s-125 272 -301 272c-183 0 -320 -122 -320 -288v-1098h-168v1098c0 254 209 438 485 438
c269 0 463 -178 463 -418c0 -136 -62 -256 -161 -333z" />
    <glyph glyph-name="agrave" unicode="&#xe0;" horiz-adv-x="1253" 
d="M643 1153l-63 -71l-336 289l98 108zM913 963h168v-963h-168v137c-82 -96 -204 -155 -356 -155c-258 0 -481 223 -481 499c0 277 223 500 481 500c152 0 274 -59 356 -155v137zM580 145c186 0 333 150 333 336c0 187 -147 336 -333 336c-187 0 -336 -149 -336 -336
c0 -186 149 -336 336 -336z" />
    <glyph glyph-name="aacute" unicode="&#xe1;" horiz-adv-x="1253" 
d="M870 1371l-333 -289l-66 71l303 326zM913 963h168v-963h-168v137c-82 -96 -204 -155 -356 -155c-258 0 -481 223 -481 499c0 277 223 500 481 500c152 0 274 -59 356 -155v137zM580 145c186 0 333 150 333 336c0 187 -147 336 -333 336c-187 0 -336 -149 -336 -336
c0 -186 149 -336 336 -336z" />
    <glyph glyph-name="acircumflex" unicode="&#xe2;" horiz-adv-x="1253" 
d="M578 1323l-205 -237l-84 51l200 297h173l202 -297l-86 -51zM913 963h168v-963h-168v137c-82 -96 -204 -155 -356 -155c-258 0 -481 223 -481 499c0 277 223 500 481 500c152 0 274 -59 356 -155v137zM580 145c186 0 333 150 333 336c0 187 -147 336 -333 336
c-187 0 -336 -149 -336 -336c0 -186 149 -336 336 -336z" />
    <glyph glyph-name="atilde" unicode="&#xe3;" horiz-adv-x="1253" 
d="M443 1235c-65 0 -98 -71 -98 -159h-125c0 159 82 282 219 282c90 0 147 -53 188 -112c19 -27 41 -56 86 -56c62 0 97 54 97 160h123c0 -158 -76 -283 -220 -283c-96 0 -151 58 -188 113c-27 41 -51 55 -82 55zM913 963h168v-963h-168v137c-82 -96 -204 -155 -356 -155
c-258 0 -481 223 -481 499c0 277 223 500 481 500c152 0 274 -59 356 -155v137zM580 145c186 0 333 150 333 336c0 187 -147 336 -333 336c-187 0 -336 -149 -336 -336c0 -186 149 -336 336 -336z" />
    <glyph glyph-name="adieresis" unicode="&#xe4;" horiz-adv-x="1253" 
d="M390 1141c-62 0 -115 51 -115 112c0 66 53 115 115 115c61 0 115 -49 115 -115c0 -61 -54 -112 -115 -112zM767 1141c-62 0 -115 51 -115 112c0 66 53 115 115 115c63 0 114 -49 114 -115c0 -61 -51 -112 -114 -112zM913 963h168v-963h-168v137
c-82 -96 -204 -155 -356 -155c-258 0 -481 223 -481 499c0 277 223 500 481 500c152 0 274 -59 356 -155v137zM580 145c186 0 333 150 333 336c0 187 -147 336 -333 336c-187 0 -336 -149 -336 -336c0 -186 149 -336 336 -336z" />
    <glyph glyph-name="aring" unicode="&#xe5;" horiz-adv-x="1253" 
d="M598 1126c-119 0 -217 99 -217 215c0 119 98 215 217 215c117 0 213 -96 213 -215c0 -116 -96 -215 -213 -215zM598 1468c-69 0 -123 -59 -123 -127c0 -71 54 -124 123 -124c68 0 123 53 123 124c0 68 -55 127 -123 127zM913 963h168v-963h-168v137
c-82 -96 -204 -155 -356 -155c-258 0 -481 223 -481 499c0 277 223 500 481 500c152 0 274 -59 356 -155v137zM580 145c186 0 333 150 333 336c0 187 -147 336 -333 336c-187 0 -336 -149 -336 -336c0 -186 149 -336 336 -336z" />
    <glyph glyph-name="ae" unicode="&#xe6;" horiz-adv-x="1798" 
d="M1736 492v-33h-844c10 -183 162 -326 345 -326c120 0 229 62 292 162l142 -57c-84 -158 -246 -256 -432 -256c-162 0 -303 72 -394 185c-126 -114 -277 -185 -413 -185c-205 0 -348 122 -348 307c0 190 152 303 498 303h153v37c0 127 -94 217 -225 217
c-102 0 -195 -58 -219 -139l-164 53c49 131 203 221 385 221c155 0 281 -66 345 -171c92 105 227 171 380 171c276 0 499 -213 499 -489zM1237 829c-155 0 -281 -96 -327 -235h649c-44 138 -169 235 -322 235zM438 129c104 0 229 67 329 175c-17 44 -27 91 -31 140h-224
c-178 0 -260 -55 -260 -159c0 -97 72 -156 186 -156z" />
    <glyph glyph-name="ccedilla" unicode="&#xe7;" horiz-adv-x="1098" 
d="M578 145c139 0 249 80 303 197l153 -70c-72 -161 -226 -272 -411 -288l-56 -119c140 29 252 -55 252 -184c0 -119 -92 -213 -211 -213c-94 0 -198 59 -237 135l92 37c29 -41 94 -72 145 -72c62 0 111 49 111 113c0 92 -88 131 -199 88l-80 51l83 165
c-254 26 -449 236 -449 496c0 279 223 500 504 500c204 0 378 -117 456 -291l-153 -69c-54 116 -164 196 -303 196c-193 0 -336 -145 -336 -336c0 -190 143 -336 336 -336z" />
    <glyph glyph-name="egrave" unicode="&#xe8;" horiz-adv-x="1139" 
d="M653 1163l-63 -71l-336 289l98 108zM1077 492v-33h-844c10 -183 162 -326 345 -326c120 0 229 62 292 162l142 -57c-84 -158 -246 -256 -432 -256c-285 0 -504 223 -504 499c0 277 221 500 502 500c276 0 499 -213 499 -489zM578 829c-155 0 -281 -96 -327 -235h649
c-44 138 -169 235 -322 235z" />
    <glyph glyph-name="eacute" unicode="&#xe9;" horiz-adv-x="1139" 
d="M880 1381l-333 -289l-66 71l303 326zM1077 492v-33h-844c10 -183 162 -326 345 -326c120 0 229 62 292 162l142 -57c-84 -158 -246 -256 -432 -256c-285 0 -504 223 -504 499c0 277 221 500 502 500c276 0 499 -213 499 -489zM578 829c-155 0 -281 -96 -327 -235h649
c-44 138 -169 235 -322 235z" />
    <glyph glyph-name="ecircumflex" unicode="&#xea;" horiz-adv-x="1139" 
d="M588 1333l-205 -237l-84 51l200 297h173l202 -297l-86 -51zM1077 492v-33h-844c10 -183 162 -326 345 -326c120 0 229 62 292 162l142 -57c-84 -158 -246 -256 -432 -256c-285 0 -504 223 -504 499c0 277 221 500 502 500c276 0 499 -213 499 -489zM578 829
c-155 0 -281 -96 -327 -235h649c-44 138 -169 235 -322 235z" />
    <glyph glyph-name="edieresis" unicode="&#xeb;" horiz-adv-x="1139" 
d="M400 1151c-62 0 -115 51 -115 112c0 66 53 115 115 115c61 0 115 -49 115 -115c0 -61 -54 -112 -115 -112zM777 1151c-62 0 -115 51 -115 112c0 66 53 115 115 115c63 0 114 -49 114 -115c0 -61 -51 -112 -114 -112zM1077 492v-33h-844c10 -183 162 -326 345 -326
c120 0 229 62 292 162l142 -57c-84 -158 -246 -256 -432 -256c-285 0 -504 223 -504 499c0 277 221 500 502 500c276 0 499 -213 499 -489zM578 829c-155 0 -281 -96 -327 -235h649c-44 138 -169 235 -322 235z" />
    <glyph glyph-name="igrave" unicode="&#xec;" horiz-adv-x="516" 
d="M260 1082l-336 289l98 108l301 -326zM174 0v963h168v-963h-168z" />
    <glyph glyph-name="iacute" unicode="&#xed;" horiz-adv-x="516" 
d="M217 1082l-66 71l303 326l96 -108zM174 0v963h168v-963h-168z" />
    <glyph glyph-name="icircumflex" unicode="&#xee;" horiz-adv-x="516" 
d="M53 1086l-84 51l200 297h173l202 -297l-86 -51l-200 237zM174 0v963h168v-963h-168z" />
    <glyph glyph-name="idieresis" unicode="&#xef;" horiz-adv-x="516" 
d="M70 1141c-62 0 -115 51 -115 112c0 66 53 115 115 115c61 0 115 -49 115 -115c0 -61 -54 -112 -115 -112zM447 1141c-62 0 -115 51 -115 112c0 66 53 115 115 115c63 0 114 -49 114 -115c0 -61 -51 -112 -114 -112zM174 0v963h168v-963h-168z" />
    <glyph glyph-name="eth" unicode="&#xf0;" horiz-adv-x="1217" 
d="M1106 465v-2c0 -293 -229 -481 -516 -481s-518 223 -518 499c0 277 231 500 518 500c115 0 222 -40 308 -107c-48 151 -126 265 -223 343l-106 -136l-77 60l104 130c-88 50 -186 75 -289 77l27 122c123 0 238 -35 341 -99l89 112l74 -58l-86 -109
c214 -175 354 -484 354 -851zM590 127c194 0 350 158 350 354c0 197 -156 355 -350 355c-199 0 -354 -158 -354 -355c0 -196 155 -354 354 -354z" />
    <glyph glyph-name="ntilde" unicode="&#xf1;" horiz-adv-x="1071" 
d="M416 1235c-65 0 -98 -71 -98 -159h-125c0 159 82 282 219 282c90 0 147 -53 188 -112c19 -27 41 -56 86 -56c62 0 97 54 97 160h123c0 -158 -76 -283 -220 -283c-96 0 -151 58 -188 113c-27 41 -51 55 -82 55zM575 981c193 0 349 -156 349 -348v-633h-168v621
c0 114 -92 204 -205 204c-116 0 -207 -86 -209 -197v-628h-168v963h168v-69c62 54 144 87 233 87z" />
    <glyph glyph-name="ograve" unicode="&#xf2;" horiz-adv-x="1155" 
d="M580 1082l-336 289l98 108l301 -326zM578 -18c-281 0 -504 223 -504 499c0 277 223 500 504 500c278 0 501 -223 501 -500c0 -276 -223 -499 -501 -499zM578 145c184 0 333 150 333 336c0 187 -149 336 -333 336c-189 0 -336 -149 -336 -336c0 -186 147 -336 336 -336z
" />
    <glyph glyph-name="oacute" unicode="&#xf3;" horiz-adv-x="1155" 
d="M537 1082l-66 71l303 326l96 -108zM578 -18c-281 0 -504 223 -504 499c0 277 223 500 504 500c278 0 501 -223 501 -500c0 -276 -223 -499 -501 -499zM578 145c184 0 333 150 333 336c0 187 -149 336 -333 336c-189 0 -336 -149 -336 -336c0 -186 147 -336 336 -336z" />
    <glyph glyph-name="ocircumflex" unicode="&#xf4;" horiz-adv-x="1155" 
d="M373 1086l-84 51l200 297h173l202 -297l-86 -51l-200 237zM578 -18c-281 0 -504 223 -504 499c0 277 223 500 504 500c278 0 501 -223 501 -500c0 -276 -223 -499 -501 -499zM578 145c184 0 333 150 333 336c0 187 -149 336 -333 336c-189 0 -336 -149 -336 -336
c0 -186 147 -336 336 -336z" />
    <glyph glyph-name="otilde" unicode="&#xf5;" horiz-adv-x="1155" 
d="M713 1067c-96 0 -151 58 -188 113c-27 41 -51 55 -82 55c-65 0 -98 -71 -98 -159h-125c0 159 82 282 219 282c90 0 147 -53 188 -112c19 -27 41 -56 86 -56c62 0 97 54 97 160h123c0 -158 -76 -283 -220 -283zM578 -18c-281 0 -504 223 -504 499c0 277 223 500 504 500
c278 0 501 -223 501 -500c0 -276 -223 -499 -501 -499zM578 145c184 0 333 150 333 336c0 187 -149 336 -333 336c-189 0 -336 -149 -336 -336c0 -186 147 -336 336 -336z" />
    <glyph glyph-name="odieresis" unicode="&#xf6;" horiz-adv-x="1155" 
d="M390 1141c-62 0 -115 51 -115 112c0 66 53 115 115 115c61 0 115 -49 115 -115c0 -61 -54 -112 -115 -112zM767 1141c-62 0 -115 51 -115 112c0 66 53 115 115 115c63 0 114 -49 114 -115c0 -61 -51 -112 -114 -112zM578 -18c-281 0 -504 223 -504 499
c0 277 223 500 504 500c278 0 501 -223 501 -500c0 -276 -223 -499 -501 -499zM578 145c184 0 333 150 333 336c0 187 -149 336 -333 336c-189 0 -336 -149 -336 -336c0 -186 147 -336 336 -336z" />
    <glyph glyph-name="divide" unicode="&#xf7;" horiz-adv-x="952" 
d="M473 913c-63 0 -119 52 -119 119c0 66 56 121 119 121c66 0 123 -55 123 -121c0 -67 -57 -119 -123 -119zM115 596v160h723v-160h-723zM473 199c-63 0 -119 51 -119 120c0 64 56 119 119 119c66 0 123 -55 123 -119c0 -69 -57 -120 -123 -120z" />
    <glyph glyph-name="oslash" unicode="&#xf8;" horiz-adv-x="1155" 
d="M906 860c106 -91 173 -227 173 -379c0 -276 -223 -499 -501 -499c-88 0 -171 22 -243 61l-105 -151l-88 53l109 156c-109 91 -177 227 -177 380c0 277 223 500 504 500c89 0 172 -23 244 -62l104 149l87 -54zM242 481c0 -96 39 -183 104 -244l380 545
c-44 22 -95 35 -148 35c-189 0 -336 -149 -336 -336zM578 145c184 0 333 150 333 336c0 95 -39 181 -101 242l-380 -545c44 -21 94 -33 148 -33z" />
    <glyph glyph-name="ugrave" unicode="&#xf9;" horiz-adv-x="1032" 
d="M518 1082l-336 289l98 108l301 -326zM516 -18c-223 0 -369 141 -369 366v615h168v-596c0 -138 84 -222 201 -222c119 0 201 84 201 222v596h168v-615c0 -225 -146 -366 -369 -366z" />
    <glyph glyph-name="uacute" unicode="&#xfa;" horiz-adv-x="1032" 
d="M475 1082l-66 71l303 326l96 -108zM516 -18c-223 0 -369 141 -369 366v615h168v-596c0 -138 84 -222 201 -222c119 0 201 84 201 222v596h168v-615c0 -225 -146 -366 -369 -366z" />
    <glyph glyph-name="ucircumflex" unicode="&#xfb;" horiz-adv-x="1032" 
d="M311 1086l-84 51l200 297h173l202 -297l-86 -51l-200 237zM516 -18c-223 0 -369 141 -369 366v615h168v-596c0 -138 84 -222 201 -222c119 0 201 84 201 222v596h168v-615c0 -225 -146 -366 -369 -366z" />
    <glyph glyph-name="udieresis" unicode="&#xfc;" horiz-adv-x="1032" 
d="M328 1141c-62 0 -115 51 -115 112c0 66 53 115 115 115c61 0 115 -49 115 -115c0 -61 -54 -112 -115 -112zM705 1141c-62 0 -115 51 -115 112c0 66 53 115 115 115c63 0 114 -49 114 -115c0 -61 -51 -112 -114 -112zM516 -18c-223 0 -369 141 -369 366v615h168v-596
c0 -138 84 -222 201 -222c119 0 201 84 201 222v596h168v-615c0 -225 -146 -366 -369 -366z" />
    <glyph glyph-name="yacute" unicode="&#xfd;" horiz-adv-x="985" 
d="M773 1371l-333 -289l-66 71l303 326zM782 963h189l-584 -1455h-178l194 492l-391 963h187l300 -773z" />
    <glyph glyph-name="thorn" unicode="&#xfe;" horiz-adv-x="1247" 
d="M690 981c258 0 481 -223 481 -500c0 -276 -223 -499 -481 -499c-145 0 -263 55 -346 143v-606h-168v2017h168v-699c83 89 201 144 346 144zM670 145c184 0 334 150 334 336c0 187 -150 336 -334 336c-187 0 -336 -149 -336 -336c0 -186 149 -336 336 -336z" />
    <glyph glyph-name="ydieresis" unicode="&#xff;" horiz-adv-x="985" 
d="M293 1141c-62 0 -115 51 -115 112c0 66 53 115 115 115c61 0 115 -49 115 -115c0 -61 -54 -112 -115 -112zM670 1141c-62 0 -115 51 -115 112c0 66 53 115 115 115c63 0 114 -49 114 -115c0 -61 -51 -112 -114 -112zM782 963h189l-584 -1455h-178l194 492l-391 963h187
l300 -773z" />
    <glyph glyph-name="Amacron" unicode="&#x100;" horiz-adv-x="1360" 
d="M1000 1860v-115h-635v115h635zM1137 0l-96 246h-722l-96 -246h-194l651 1578l651 -1578h-194zM383 408h595l-297 760z" />
    <glyph glyph-name="amacron" unicode="&#x101;" horiz-adv-x="1253" 
d="M896 1287v-115h-635v115h635zM913 963h168v-963h-168v137c-82 -96 -204 -155 -356 -155c-258 0 -481 223 -481 499c0 277 223 500 481 500c152 0 274 -59 356 -155v137zM580 145c186 0 333 150 333 336c0 187 -147 336 -333 336c-187 0 -336 -149 -336 -336
c0 -186 149 -336 336 -336z" />
    <glyph glyph-name="Abreve" unicode="&#x102;" horiz-adv-x="1360" 
d="M680 1712c-194 0 -338 121 -338 316h136c0 -115 67 -209 202 -209c138 0 205 94 205 209h135c0 -195 -143 -316 -340 -316zM1137 0l-96 246h-722l-96 -246h-194l651 1578l651 -1578h-194zM383 408h595l-297 760z" />
    <glyph glyph-name="abreve" unicode="&#x103;" horiz-adv-x="1253" 
d="M576 1139c-194 0 -338 121 -338 316h136c0 -115 67 -209 202 -209c138 0 205 94 205 209h135c0 -195 -143 -316 -340 -316zM913 963h168v-963h-168v137c-82 -96 -204 -155 -356 -155c-258 0 -481 223 -481 499c0 277 223 500 481 500c152 0 274 -59 356 -155v137z
M580 145c186 0 333 150 333 336c0 187 -147 336 -333 336c-187 0 -336 -149 -336 -336c0 -186 149 -336 336 -336z" />
    <glyph glyph-name="Aogonek" unicode="&#x104;" horiz-adv-x="1360" 
d="M1372 -311l82 -115c-78 -78 -176 -109 -277 -104c-137 6 -229 81 -229 211c0 126 88 232 215 319h-26l-96 246h-722l-96 -246h-194l651 1578l651 -1578c-141 -59 -264 -162 -264 -281c0 -77 53 -110 119 -110c61 0 135 29 186 80zM383 408h595l-297 760z" />
    <glyph glyph-name="aogonek" unicode="&#x105;" horiz-adv-x="1253" 
d="M1122 -311l82 -115c-78 -78 -176 -109 -277 -104c-137 6 -229 81 -229 211c0 127 88 232 215 319v137c-82 -96 -204 -155 -356 -155c-258 0 -481 223 -481 499c0 277 223 500 481 500c152 0 274 -59 356 -155v137h168v-963c-141 -59 -264 -162 -264 -281
c0 -77 53 -110 119 -110c61 0 135 29 186 80zM580 145c186 0 333 150 333 336c0 187 -147 336 -333 336c-187 0 -336 -149 -336 -336c0 -186 149 -336 336 -336z" />
    <glyph glyph-name="Cacute" unicode="&#x106;" horiz-adv-x="1495" 
d="M844 1655l-66 71l303 326l96 -108zM885 -20c-439 0 -789 350 -789 788s350 788 789 788c198 0 418 -92 557 -231l-125 -123c-111 113 -273 180 -432 180c-342 0 -615 -270 -615 -614s273 -614 615 -614c159 0 321 67 432 180l125 -123c-139 -139 -359 -231 -557 -231z
" />
    <glyph glyph-name="cacute" unicode="&#x107;" horiz-adv-x="1098" 
d="M537 1082l-66 71l303 326l96 -108zM578 -18c-281 0 -504 221 -504 499c0 279 223 500 504 500c204 0 378 -117 456 -291l-153 -69c-54 116 -164 196 -303 196c-193 0 -336 -145 -336 -336c0 -190 143 -336 336 -336c139 0 249 80 303 197l153 -70
c-78 -174 -252 -290 -456 -290z" />
    <glyph glyph-name="Cdotaccent" unicode="&#x10a;" horiz-adv-x="1495" 
d="M885 1706c-62 0 -115 52 -115 113c0 66 53 115 115 115c61 0 115 -49 115 -115c0 -61 -54 -113 -115 -113zM885 -20c-439 0 -789 350 -789 788s350 788 789 788c198 0 418 -92 557 -231l-125 -123c-111 113 -273 180 -432 180c-342 0 -615 -270 -615 -614
s273 -614 615 -614c159 0 321 67 432 180l125 -123c-139 -139 -359 -231 -557 -231z" />
    <glyph glyph-name="cdotaccent" unicode="&#x10b;" horiz-adv-x="1098" 
d="M578 1133c-62 0 -115 52 -115 113c0 66 53 115 115 115c61 0 115 -49 115 -115c0 -61 -54 -113 -115 -113zM578 -18c-281 0 -504 221 -504 499c0 279 223 500 504 500c204 0 378 -117 456 -291l-153 -69c-54 116 -164 196 -303 196c-193 0 -336 -145 -336 -336
c0 -190 143 -336 336 -336c139 0 249 80 303 197l153 -70c-78 -174 -252 -290 -456 -290z" />
    <glyph glyph-name="Ccaron" unicode="&#x10c;" horiz-adv-x="1495" 
d="M796 1698l-200 297l88 53l201 -240l198 240l88 -53l-202 -297h-173zM885 -20c-439 0 -789 350 -789 788s350 788 789 788c198 0 418 -92 557 -231l-125 -123c-111 113 -273 180 -432 180c-342 0 -615 -270 -615 -614s273 -614 615 -614c159 0 321 67 432 180l125 -123
c-139 -139 -359 -231 -557 -231z" />
    <glyph glyph-name="ccaron" unicode="&#x10d;" horiz-adv-x="1098" 
d="M489 1125l-200 297l88 53l201 -240l198 240l88 -53l-202 -297h-173zM578 -18c-281 0 -504 221 -504 499c0 279 223 500 504 500c204 0 378 -117 456 -291l-153 -69c-54 116 -164 196 -303 196c-193 0 -336 -145 -336 -336c0 -190 143 -336 336 -336c139 0 249 80 303 197
l153 -70c-78 -174 -252 -290 -456 -290z" />
    <glyph glyph-name="Dcaron" unicode="&#x10e;" horiz-adv-x="1501" 
d="M550 1698l-200 297l88 53l201 -240l198 240l88 -53l-202 -297h-173zM217 0v1536h424c424 0 768 -344 768 -768s-344 -768 -768 -768h-424zM389 174h250c334 0 596 252 596 594s-262 594 -596 594h-250v-1188z" />
    <glyph glyph-name="dcaron" unicode="&#x10f;" horiz-adv-x="1255" 
d="M1466 1411l-1 -3l-3 -7l-146 -430h-125l110 370c-35 19 -60 57 -60 101c0 61 53 114 114 114c62 0 115 -53 115 -114c0 -11 -1 -21 -4 -31zM913 826v710h168v-1536h-168v137c-82 -96 -204 -155 -356 -155c-258 0 -481 223 -481 499c0 277 223 500 481 500
c152 0 274 -59 356 -155zM580 145c186 0 333 150 333 336c0 187 -147 336 -333 336c-187 0 -336 -149 -336 -336c0 -186 149 -336 336 -336z" />
    <glyph glyph-name="Dcroat" unicode="&#x110;" horiz-adv-x="1501" 
d="M641 1536c424 0 768 -344 768 -768s-344 -768 -768 -768h-424v698h-158v119h158v719h424zM639 174c334 0 596 252 596 594s-262 594 -596 594h-250v-545h272v-119h-272v-524h250z" />
    <glyph glyph-name="dcroat" unicode="&#x111;" horiz-adv-x="1255" 
d="M1219 1304v-119h-138v-1185h-168v137c-82 -96 -204 -155 -356 -155c-258 0 -481 223 -481 499c0 277 223 500 481 500c152 0 274 -59 356 -155v359h-296v119h296v232h168v-232h138zM580 145c186 0 333 150 333 336c0 187 -147 336 -333 336c-187 0 -336 -149 -336 -336
c0 -186 149 -336 336 -336z" />
    <glyph glyph-name="Emacron" unicode="&#x112;" horiz-adv-x="1165" 
d="M957 1860v-115h-635v115h635zM1061 1368h-670v-516h584v-168h-584v-516h670v-168h-844v1536h844v-168z" />
    <glyph glyph-name="emacron" unicode="&#x113;" horiz-adv-x="1139" 
d="M906 1297v-115h-635v115h635zM1077 492v-33h-844c10 -183 162 -326 345 -326c120 0 229 62 292 162l142 -57c-84 -158 -246 -256 -432 -256c-285 0 -504 223 -504 499c0 277 221 500 502 500c276 0 499 -213 499 -489zM578 829c-155 0 -281 -96 -327 -235h649
c-44 138 -169 235 -322 235z" />
    <glyph glyph-name="Edotaccent" unicode="&#x116;" horiz-adv-x="1165" 
d="M639 1706c-62 0 -115 52 -115 113c0 66 53 115 115 115c61 0 115 -49 115 -115c0 -61 -54 -113 -115 -113zM1061 1368h-670v-516h584v-168h-584v-516h670v-168h-844v1536h844v-168z" />
    <glyph glyph-name="edotaccent" unicode="&#x117;" horiz-adv-x="1139" 
d="M588 1143c-62 0 -115 52 -115 113c0 66 53 115 115 115c61 0 115 -49 115 -115c0 -61 -54 -113 -115 -113zM1077 492v-33h-844c10 -183 162 -326 345 -326c120 0 229 62 292 162l142 -57c-84 -158 -246 -256 -432 -256c-285 0 -504 223 -504 499c0 277 221 500 502 500
c276 0 499 -213 499 -489zM578 829c-155 0 -281 -96 -327 -235h649c-44 138 -169 235 -322 235z" />
    <glyph glyph-name="Eogonek" unicode="&#x118;" horiz-adv-x="1165" 
d="M1102 -311l82 -115c-78 -78 -176 -109 -277 -104c-137 6 -229 81 -229 211c0 126 88 232 215 319h-676v1536h844v-168h-670v-516h584v-168h-584v-516h670v-168c-141 -59 -264 -162 -264 -281c0 -77 53 -110 119 -110c61 0 135 29 186 80z" />
    <glyph glyph-name="eogonek" unicode="&#x119;" horiz-adv-x="1139" 
d="M1077 492v-33h-844c10 -183 162 -326 345 -326c120 0 229 62 292 162l142 -57c-59 -111 -157 -192 -274 -231c-99 -60 -173 -143 -173 -235c0 -77 53 -110 119 -110c61 0 135 29 186 80l82 -115c-78 -78 -176 -109 -277 -104c-137 6 -229 81 -229 211
c0 94 48 176 125 248c-280 5 -495 226 -495 499c0 277 221 500 502 500c276 0 499 -213 499 -489zM578 829c-155 0 -281 -96 -327 -235h649c-44 138 -169 235 -322 235z" />
    <glyph glyph-name="Ecaron" unicode="&#x11a;" horiz-adv-x="1165" 
d="M723 1698h-173l-200 297l88 53l201 -240l198 240l88 -53zM1061 1368h-670v-516h584v-168h-584v-516h670v-168h-844v1536h844v-168z" />
    <glyph glyph-name="ecaron" unicode="&#x11b;" horiz-adv-x="1139" 
d="M672 1135h-173l-200 297l88 53l201 -240l198 240l88 -53zM1077 492v-33h-844c10 -183 162 -326 345 -326c120 0 229 62 292 162l142 -57c-84 -158 -246 -256 -432 -256c-285 0 -504 223 -504 499c0 277 221 500 502 500c276 0 499 -213 499 -489zM578 829
c-155 0 -281 -96 -327 -235h649c-44 138 -169 235 -322 235z" />
    <glyph glyph-name="Gbreve" unicode="&#x11e;" horiz-adv-x="1630" 
d="M916 1712c-194 0 -338 121 -338 316h136c0 -115 67 -209 202 -209c138 0 205 94 205 209h135c0 -195 -143 -316 -340 -316zM870 809h613v-809h-154l-10 113c-129 -83 -287 -133 -434 -133c-439 0 -789 350 -789 788s350 788 789 788c198 0 418 -92 557 -231l-125 -123
c-111 113 -273 180 -432 180c-342 0 -615 -270 -615 -614s273 -614 615 -614c155 0 313 64 424 172v319h-439v164z" />
    <glyph glyph-name="gbreve" unicode="&#x11f;" horiz-adv-x="1253" 
d="M576 1139c-194 0 -338 121 -338 316h136c0 -115 67 -209 202 -209c138 0 205 94 205 209h135c0 -195 -143 -316 -340 -316zM909 963h170v-963c0 -279 -225 -500 -504 -500c-196 0 -368 113 -452 277l135 94c55 -121 174 -207 317 -207c185 0 334 150 334 336v125
c-76 -89 -189 -143 -336 -143c-276 0 -499 223 -499 499c0 279 223 500 499 500c147 0 260 -54 336 -143v125zM578 145c184 0 333 152 333 336c0 187 -149 336 -333 336c-189 0 -336 -149 -336 -336c0 -184 147 -336 336 -336z" />
    <glyph glyph-name="Gdotaccent" unicode="&#x120;" horiz-adv-x="1630" 
d="M918 1706c-62 0 -115 52 -115 113c0 66 53 115 115 115c61 0 115 -49 115 -115c0 -61 -54 -113 -115 -113zM870 809h613v-809h-154l-10 113c-129 -83 -287 -133 -434 -133c-439 0 -789 350 -789 788s350 788 789 788c198 0 418 -92 557 -231l-125 -123
c-111 113 -273 180 -432 180c-342 0 -615 -270 -615 -614s273 -614 615 -614c155 0 313 64 424 172v319h-439v164z" />
    <glyph glyph-name="gdotaccent" unicode="&#x121;" horiz-adv-x="1253" 
d="M578 1133c-62 0 -115 52 -115 113c0 66 53 115 115 115c61 0 115 -49 115 -115c0 -61 -54 -113 -115 -113zM909 963h170v-963c0 -279 -225 -500 -504 -500c-196 0 -368 113 -452 277l135 94c55 -121 174 -207 317 -207c185 0 334 150 334 336v125
c-76 -89 -189 -143 -336 -143c-276 0 -499 223 -499 499c0 279 223 500 499 500c147 0 260 -54 336 -143v125zM578 145c184 0 333 152 333 336c0 187 -149 336 -333 336c-189 0 -336 -149 -336 -336c0 -184 147 -336 336 -336z" />
    <glyph glyph-name="Gcommaaccent" unicode="&#x122;" horiz-adv-x="1630" 
d="M870 809h613v-809h-154l-10 113c-129 -83 -287 -133 -434 -133c-439 0 -789 350 -789 788s350 788 789 788c198 0 418 -92 557 -231l-125 -123c-111 113 -273 180 -432 180c-342 0 -615 -270 -615 -614s273 -614 615 -614c155 0 313 64 424 172v319h-439v164zM696 -524
l188 440l144 -59l-240 -418z" />
    <glyph glyph-name="gcommaaccent" unicode="&#x123;" horiz-adv-x="1253" 
d="M578 1083c-67 0 -113 50 -113 117c0 12 2 27 7 41l145 428h104l-108 -363c47 -13 80 -57 80 -108c0 -61 -53 -115 -115 -115zM909 963h170v-963c0 -279 -225 -500 -504 -500c-196 0 -368 113 -452 277l135 94c55 -121 174 -207 317 -207c185 0 334 150 334 336v125
c-76 -89 -189 -143 -336 -143c-276 0 -499 223 -499 499c0 279 223 500 499 500c147 0 260 -54 336 -143v125zM578 145c184 0 333 152 333 336c0 187 -149 336 -333 336c-189 0 -336 -149 -336 -336c0 -184 147 -336 336 -336z" />
    <glyph glyph-name="Hbar" unicode="&#x126;" horiz-adv-x="1616" 
d="M1538 1258v-119h-139v-1139h-174v682h-834v-682h-174v1139h-143v119h143v278h174v-278h834v278h174v-278h139zM1225 856v283h-834v-283h834z" />
    <glyph glyph-name="hbar" unicode="&#x127;" horiz-adv-x="1071" 
d="M575 981c193 0 349 -156 349 -348v-633h-168v621c0 114 -92 204 -205 204c-116 0 -207 -86 -209 -197v-628h-168v1187h-141v119h141v230h168v-230h293v-119h-293v-294c62 55 143 88 233 88z" />
    <glyph glyph-name="Itilde" unicode="&#x128;" horiz-adv-x="608" 
d="M438 1640c-96 0 -151 58 -188 113c-27 41 -51 55 -82 55c-65 0 -98 -71 -98 -159h-125c0 159 82 282 219 282c90 0 147 -53 188 -112c19 -27 41 -56 86 -56c62 0 97 54 97 160h123c0 -158 -76 -283 -220 -283zM217 0v1536h174v-1536h-174z" />
    <glyph glyph-name="itilde" unicode="&#x129;" horiz-adv-x="516" 
d="M393 1067c-96 0 -151 58 -188 113c-27 41 -51 55 -82 55c-65 0 -98 -71 -98 -159h-125c0 159 82 282 219 282c90 0 147 -53 188 -112c19 -27 41 -56 86 -56c62 0 97 54 97 160h123c0 -158 -76 -283 -220 -283zM174 0v963h168v-963h-168z" />
    <glyph glyph-name="Imacron" unicode="&#x12a;" horiz-adv-x="608" 
d="M-14 1745v115h635v-115h-635zM217 0v1536h174v-1536h-174z" />
    <glyph glyph-name="imacron" unicode="&#x12b;" horiz-adv-x="516" 
d="M-59 1172v115h635v-115h-635zM174 0v963h168v-963h-168z" />
    <glyph glyph-name="Iogonek" unicode="&#x12e;" horiz-adv-x="608" 
d="M432 -311l82 -115c-78 -78 -176 -109 -277 -104c-137 6 -229 81 -229 211c0 126 88 232 215 319h-6v1536h174v-1536c-141 -59 -264 -162 -264 -281c0 -77 53 -110 119 -110c61 0 135 29 186 80z" />
    <glyph glyph-name="iogonek" unicode="&#x12f;" horiz-adv-x="516" 
d="M258 1133c-62 0 -115 52 -115 113c0 66 53 115 115 115c61 0 115 -49 115 -115c0 -61 -54 -113 -115 -113zM383 -311l82 -115c-78 -78 -176 -109 -277 -104c-137 6 -229 81 -229 211c0 127 88 232 215 319v963h168v-963c-141 -59 -264 -162 -264 -281
c0 -77 53 -110 119 -110c61 0 135 29 186 80z" />
    <glyph glyph-name="Idotaccent" unicode="&#x130;" horiz-adv-x="608" 
d="M303 1706c-62 0 -115 52 -115 113c0 66 53 115 115 115c61 0 115 -49 115 -115c0 -61 -54 -113 -115 -113zM217 0v1536h174v-1536h-174z" />
    <glyph glyph-name="dotlessi" unicode="&#x131;" horiz-adv-x="516" 
d="M174 0v963h168v-963h-168z" />
    <glyph glyph-name="Kcommaaccent" unicode="&#x136;" horiz-adv-x="1296" 
d="M594 782l674 -782h-221l-656 761v-761h-174v1536h174v-733l631 733h221zM428 -524l188 440l144 -59l-240 -418z" />
    <glyph glyph-name="kcommaaccent" unicode="&#x137;" horiz-adv-x="1016" 
d="M535 530l487 -530h-227l-453 502v-502h-168v1536h168v-990l373 417h227zM311 -524l188 440l144 -59l-240 -418z" />
    <glyph glyph-name="Lacute" unicode="&#x139;" horiz-adv-x="987" 
d="M595 1944l-333 -289l-66 71l303 326zM391 174h567v-174h-741v1536h174v-1362z" />
    <glyph glyph-name="lacute" unicode="&#x13a;" horiz-adv-x="516" 
d="M217 1655l-66 71l303 326l96 -108zM174 0v1536h168v-1536h-168z" />
    <glyph glyph-name="Lcommaaccent" unicode="&#x13b;" horiz-adv-x="987" 
d="M391 174h567v-174h-741v1536h174v-1362zM379 -524l188 440l144 -59l-240 -418z" />
    <glyph glyph-name="lcommaaccent" unicode="&#x13c;" horiz-adv-x="516" 
d="M174 0v1536h168v-1536h-168zM141 -561l-92 37l188 440l144 -59z" />
    <glyph glyph-name="Lcaron" unicode="&#x13d;" horiz-adv-x="987" 
d="M965 1411l-1 -3l-3 -7l-146 -430h-125l110 370c-35 19 -60 57 -60 101c0 61 53 114 114 114c62 0 115 -53 115 -114c0 -11 -1 -21 -4 -31zM391 1536v-1362h567v-174h-741v1536h174z" />
    <glyph glyph-name="lcaron" unicode="&#x13e;" horiz-adv-x="516" 
d="M731 1411l-1 -3l-3 -7l-146 -430h-125l110 370c-35 19 -60 57 -60 101c0 61 53 114 114 114c62 0 115 -53 115 -114c0 -11 -1 -21 -4 -31zM174 0v1536h168v-1536h-168z" />
    <glyph glyph-name="Ldot" unicode="&#x13f;" horiz-adv-x="1010" 
d="M391 174h567v-174h-741v1536h174v-1362zM786 835c-49 0 -92 39 -92 92c0 49 43 92 92 92s94 -43 94 -92c0 -53 -45 -92 -94 -92z" />
    <glyph glyph-name="ldot" unicode="&#x140;" horiz-adv-x="631" 
d="M174 0v1536h168v-1536h-168zM532 727c-49 0 -92 39 -92 92c0 49 43 92 92 92s94 -43 94 -92c0 -53 -45 -92 -94 -92z" />
    <glyph glyph-name="Lslash" unicode="&#x141;" horiz-adv-x="987" 
d="M391 174h567v-174h-741v573l-108 -80v154l108 80v809h174v-679l298 222v-154l-298 -222v-529z" />
    <glyph glyph-name="lslash" unicode="&#x142;" horiz-adv-x="590" 
d="M506 934v-154l-121 -90v-690h-168v566l-149 -111v153l149 111v817h168v-692z" />
    <glyph glyph-name="Nacute" unicode="&#x143;" horiz-adv-x="1575" 
d="M1078 1944l-333 -289l-66 71l303 326zM1358 1536v-1603l-967 1193v-1126h-174v1603l969 -1192v1125h172z" />
    <glyph glyph-name="nacute" unicode="&#x144;" horiz-adv-x="1071" 
d="M843 1371l-333 -289l-66 71l303 326zM575 981c193 0 349 -156 349 -348v-633h-168v621c0 114 -92 204 -205 204c-116 0 -207 -86 -209 -197v-628h-168v963h168v-69c62 54 144 87 233 87z" />
    <glyph glyph-name="Ncommaaccent" unicode="&#x145;" horiz-adv-x="1575" 
d="M1186 1536h172v-1603l-967 1193v-1126h-174v1603l969 -1192v1125zM582 -524l188 440l144 -59l-240 -418z" />
    <glyph glyph-name="ncommaaccent" unicode="&#x146;" horiz-adv-x="1071" 
d="M575 981c193 0 349 -156 349 -348v-633h-168v621c0 114 -92 204 -205 204c-116 0 -207 -86 -209 -197v-628h-168v963h168v-69c62 54 144 87 233 87zM344 -524l188 440l144 -59l-240 -418z" />
    <glyph glyph-name="Ncaron" unicode="&#x147;" horiz-adv-x="1575" 
d="M870 1698h-173l-200 297l88 53l201 -240l198 240l88 -53zM1358 1536v-1603l-967 1193v-1126h-174v1603l969 -1192v1125h172z" />
    <glyph glyph-name="ncaron" unicode="&#x148;" horiz-adv-x="1071" 
d="M635 1125h-173l-200 297l88 53l201 -240l198 240l88 -53zM575 981c193 0 349 -156 349 -348v-633h-168v621c0 114 -92 204 -205 204c-116 0 -207 -86 -209 -197v-628h-168v963h168v-69c62 54 144 87 233 87z" />
    <glyph glyph-name="Eng" unicode="&#x14a;" horiz-adv-x="1710" 
d="M1319 1536h172v-1604c0 -213 -66 -374 -332 -374h-45v123c154 -3 213 38 213 241v78l-936 1247v-1247h-174v1536h164l938 -1246v1246z" />
    <glyph glyph-name="eng" unicode="&#x14b;" horiz-adv-x="1069" 
d="M582 -453v154c112 -2 172 18 172 299v621c0 114 -92 204 -205 204c-117 0 -207 -86 -209 -196v-629h-168v963h168v-70c61 55 143 88 233 88c193 0 349 -156 349 -348v-633c0 -311 -95 -455 -340 -453z" />
    <glyph glyph-name="Omacron" unicode="&#x14c;" horiz-adv-x="1765" 
d="M566 1745v115h635v-115h-635zM883 -20c-437 0 -789 352 -789 788s352 788 789 788c436 0 788 -352 788 -788s-352 -788 -788 -788zM883 154c342 0 614 272 614 614s-272 614 -614 614c-340 0 -615 -272 -615 -614s275 -614 615 -614z" />
    <glyph glyph-name="omacron" unicode="&#x14d;" horiz-adv-x="1155" 
d="M261 1172v115h635v-115h-635zM578 -18c-281 0 -504 223 -504 499c0 277 223 500 504 500c278 0 501 -223 501 -500c0 -276 -223 -499 -501 -499zM578 145c184 0 333 150 333 336c0 187 -149 336 -333 336c-189 0 -336 -149 -336 -336c0 -186 147 -336 336 -336z" />
    <glyph glyph-name="Ohungarumlaut" unicode="&#x150;" horiz-adv-x="1765" 
d="M696 1704l-84 94l328 283l86 -94zM1067 1704l-84 94l328 283l86 -94zM883 -20c-437 0 -789 352 -789 788s352 788 789 788c436 0 788 -352 788 -788s-352 -788 -788 -788zM883 154c342 0 614 272 614 614s-272 614 -614 614c-340 0 -615 -272 -615 -614
s275 -614 615 -614z" />
    <glyph glyph-name="ohungarumlaut" unicode="&#x151;" horiz-adv-x="1155" 
d="M391 1131l-84 94l328 283l86 -94zM762 1131l-84 94l328 283l86 -94zM578 -18c-281 0 -504 223 -504 499c0 277 223 500 504 500c278 0 501 -223 501 -500c0 -276 -223 -499 -501 -499zM578 145c184 0 333 150 333 336c0 187 -149 336 -333 336
c-189 0 -336 -149 -336 -336c0 -186 147 -336 336 -336z" />
    <glyph glyph-name="OE" unicode="&#x152;" horiz-adv-x="2449" 
d="M2345 1368h-674v-516h588v-168h-588v-516h674v-168h-817v315c-142 -203 -378 -335 -645 -335c-437 0 -789 352 -789 788s352 788 789 788c267 0 503 -132 645 -335v315h817v-168zM885 147c342 0 618 277 618 621s-276 621 -618 621c-346 0 -623 -277 -623 -621
s277 -621 623 -621z" />
    <glyph glyph-name="oe" unicode="&#x153;" horiz-adv-x="1991" 
d="M1929 492l-2 -33h-842c10 -183 162 -326 345 -326c120 0 229 62 292 162l142 -57c-84 -158 -246 -256 -432 -256c-184 0 -341 93 -429 234c-88 -141 -245 -234 -425 -234c-281 0 -504 223 -504 499c0 277 223 500 504 500c180 0 337 -94 425 -235c88 141 245 235 427 235
c276 0 491 -213 499 -489zM1430 829c-155 0 -281 -96 -327 -235h649c-44 138 -170 235 -322 235zM578 137c188 0 342 154 342 344c0 191 -154 344 -342 344c-193 0 -347 -153 -347 -344c0 -190 154 -344 347 -344z" />
    <glyph glyph-name="Racute" unicode="&#x154;" horiz-adv-x="1405" 
d="M937 1944l-333 -289l-66 71l303 326zM1133 0l-366 680h-376v-680h-174v1536h637c240 0 430 -193 430 -430c0 -205 -139 -371 -330 -415l367 -691h-188zM391 1368v-522h447c151 0 272 92 272 258c0 160 -121 264 -272 264h-447z" />
    <glyph glyph-name="racute" unicode="&#x155;" horiz-adv-x="721" 
d="M389 1082l-66 71l303 326l96 -108zM590 981c57 0 106 -16 139 -37l-57 -143c-25 10 -54 16 -78 16c-143 0 -252 -131 -252 -307v-510h-168v963h168v-150c51 102 133 168 248 168z" />
    <glyph glyph-name="Rcommaaccent" unicode="&#x156;" horiz-adv-x="1405" 
d="M954 691l367 -691h-188l-366 680h-376v-680h-174v1536h637c240 0 430 -193 430 -430c0 -205 -139 -371 -330 -415zM391 1368v-522h447c151 0 272 92 272 258c0 160 -121 264 -272 264h-447zM436 -524l188 440l144 -59l-240 -418z" />
    <glyph glyph-name="rcommaaccent" unicode="&#x157;" horiz-adv-x="721" 
d="M590 981c57 0 106 -16 139 -37l-57 -143c-25 10 -54 16 -78 16c-143 0 -252 -131 -252 -307v-510h-168v963h168v-150c51 102 133 168 248 168zM141 -561l-92 37l188 440l144 -59z" />
    <glyph glyph-name="Rcaron" unicode="&#x158;" horiz-adv-x="1405" 
d="M729 1698h-173l-200 297l88 53l201 -240l198 240l88 -53zM1133 0l-366 680h-376v-680h-174v1536h637c240 0 430 -193 430 -430c0 -205 -139 -371 -330 -415l367 -691h-188zM391 1368v-522h447c151 0 272 92 272 258c0 160 -121 264 -272 264h-447z" />
    <glyph glyph-name="rcaron" unicode="&#x159;" horiz-adv-x="721" 
d="M341 1125l-200 297l88 53l201 -240l198 240l88 -53l-202 -297h-173zM590 981c57 0 106 -16 139 -37l-57 -143c-25 10 -54 16 -78 16c-143 0 -252 -131 -252 -307v-510h-168v963h168v-150c51 102 133 168 248 168z" />
    <glyph glyph-name="Sacute" unicode="&#x15a;" horiz-adv-x="1135" 
d="M530 1655l-66 71l303 326l96 -108zM580 -20c-218 0 -408 106 -517 241l125 125c91 -129 215 -211 381 -211c179 0 310 103 310 264c0 174 -168 244 -347 318c-194 82 -399 172 -399 436c0 248 191 403 430 403c199 0 344 -92 443 -208l-105 -109
c-121 127 -215 162 -334 162c-143 0 -260 -84 -260 -236c0 -164 144 -231 303 -295c207 -84 443 -163 443 -464c0 -279 -219 -426 -473 -426z" />
    <glyph glyph-name="sacute" unicode="&#x15b;" horiz-adv-x="874" 
d="M399 1082l-66 71l303 326l96 -108zM432 -18c-164 0 -278 63 -362 124l94 138c63 -58 164 -111 276 -111c113 0 187 53 187 141c0 99 -101 123 -209 154c-142 39 -307 80 -307 270c0 183 157 283 346 283c112 0 225 -37 307 -94l-96 -129c-80 57 -158 76 -226 76
c-106 0 -174 -46 -174 -119c0 -94 117 -117 240 -150c137 -37 280 -90 280 -278c0 -193 -141 -305 -356 -305z" />
    <glyph glyph-name="Scedilla" unicode="&#x15e;" horiz-adv-x="1135" 
d="M1053 406c0 -274 -212 -421 -460 -426l-55 -115c140 29 252 -55 252 -184c0 -119 -92 -213 -211 -213c-94 0 -198 59 -237 135l92 37c29 -41 94 -72 145 -72c62 0 111 49 111 113c0 92 -88 131 -199 88l-80 51l84 165c-182 24 -337 119 -432 236l125 125
c91 -129 215 -211 381 -211c179 0 310 103 310 264c0 174 -168 244 -347 318c-194 82 -399 172 -399 436c0 248 191 403 430 403c199 0 344 -92 443 -208l-105 -109c-121 127 -215 162 -334 162c-143 0 -260 -84 -260 -236c0 -164 144 -231 303 -295
c207 -84 443 -163 443 -464z" />
    <glyph glyph-name="scedilla" unicode="&#x15f;" horiz-adv-x="874" 
d="M788 287c0 -176 -118 -285 -302 -303l-57 -119c140 29 252 -55 252 -184c0 -119 -92 -213 -211 -213c-94 0 -198 59 -237 135l92 37c29 -41 94 -72 145 -72c62 0 111 49 111 113c0 92 -88 131 -199 88l-80 51l83 164c-139 10 -239 67 -315 122l94 138
c63 -58 164 -111 276 -111c113 0 187 53 187 141c0 99 -101 123 -209 154c-142 39 -307 80 -307 270c0 183 157 283 346 283c112 0 225 -37 307 -94l-96 -129c-80 57 -158 76 -226 76c-106 0 -174 -46 -174 -119c0 -94 117 -117 240 -150c137 -37 280 -90 280 -278z" />
    <glyph glyph-name="Scaron" unicode="&#x160;" horiz-adv-x="1135" 
d="M482 1698l-200 297l88 53l201 -240l198 240l88 -53l-202 -297h-173zM580 -20c-218 0 -408 106 -517 241l125 125c91 -129 215 -211 381 -211c179 0 310 103 310 264c0 174 -168 244 -347 318c-194 82 -399 172 -399 436c0 248 191 403 430 403c199 0 344 -92 443 -208
l-105 -109c-121 127 -215 162 -334 162c-143 0 -260 -84 -260 -236c0 -164 144 -231 303 -295c207 -84 443 -163 443 -464c0 -279 -219 -426 -473 -426z" />
    <glyph glyph-name="scaron" unicode="&#x161;" horiz-adv-x="874" 
d="M351 1125l-200 297l88 53l201 -240l198 240l88 -53l-202 -297h-173zM432 -18c-164 0 -278 63 -362 124l94 138c63 -58 164 -111 276 -111c113 0 187 53 187 141c0 99 -101 123 -209 154c-142 39 -307 80 -307 270c0 183 157 283 346 283c112 0 225 -37 307 -94l-96 -129
c-80 57 -158 76 -226 76c-106 0 -174 -46 -174 -119c0 -94 117 -117 240 -150c137 -37 280 -90 280 -278c0 -193 -141 -305 -356 -305z" />
    <glyph glyph-name="uni0162" unicode="&#x162;" horiz-adv-x="1075" 
d="M625 0h-39l-64 -135c140 29 252 -55 252 -184c0 -119 -92 -213 -211 -213c-94 0 -198 59 -237 135l92 37c29 -41 94 -72 145 -72c62 0 111 49 111 113c0 92 -88 131 -199 88l-80 51l91 180h-35v1362h-422v174h1018v-174h-422v-1362z" />
    <glyph glyph-name="uni0163" unicode="&#x163;" horiz-adv-x="633" 
d="M401 0h-35l-64 -135c140 29 252 -55 252 -184c0 -119 -92 -213 -211 -213c-94 0 -198 59 -237 135l92 37c29 -41 94 -72 145 -72c62 0 111 49 111 113c0 92 -88 131 -199 88l-80 51l91 180h-35v809h-202v154h202v346h170v-346h201v-154h-201v-809z" />
    <glyph glyph-name="Tcaron" unicode="&#x164;" horiz-adv-x="1075" 
d="M621 1698h-173l-200 297l88 53l201 -240l198 240l88 -53zM1047 1536v-174h-422v-1362h-174v1362h-422v174h1018z" />
    <glyph glyph-name="tcaron" unicode="&#x165;" horiz-adv-x="633" 
d="M752 1513l-1 -3l-3 -7l-146 -430h-125l110 370c-35 19 -60 57 -60 101c0 61 53 114 114 114c62 0 115 -53 115 -114c0 -11 -1 -21 -4 -31zM401 1309v-346h201v-154h-201v-809h-170v809h-202v154h202v346h170z" />
    <glyph glyph-name="Tbar" unicode="&#x166;" horiz-adv-x="1075" 
d="M1047 1362h-422v-545h211v-119h-211v-698h-174v698h-217v119h217v545h-422v174h1018v-174z" />
    <glyph glyph-name="tbar" unicode="&#x167;" horiz-adv-x="633" 
d="M602 809h-201v-283h152v-119h-152v-407h-170v407h-154v119h154v283h-202v154h202v346h170v-346h201v-154z" />
    <glyph glyph-name="Utilde" unicode="&#x168;" horiz-adv-x="1526" 
d="M897 1640c-96 0 -151 58 -188 113c-27 41 -51 55 -82 55c-65 0 -98 -71 -98 -159h-125c0 159 82 282 219 282c90 0 147 -53 188 -112c19 -27 41 -56 86 -56c62 0 97 54 97 160h123c0 -158 -76 -283 -220 -283zM762 -20c-336 0 -580 221 -580 524v1032h174v-1004
c0 -219 170 -378 406 -378c235 0 407 159 407 378v1004h174v-1032c0 -303 -243 -524 -581 -524z" />
    <glyph glyph-name="utilde" unicode="&#x169;" horiz-adv-x="1032" 
d="M651 1067c-96 0 -151 58 -188 113c-27 41 -51 55 -82 55c-65 0 -98 -71 -98 -159h-125c0 159 82 282 219 282c90 0 147 -53 188 -112c19 -27 41 -56 86 -56c62 0 97 54 97 160h123c0 -158 -76 -283 -220 -283zM516 -18c-223 0 -369 141 -369 366v615h168v-596
c0 -138 84 -222 201 -222c119 0 201 84 201 222v596h168v-615c0 -225 -146 -366 -369 -366z" />
    <glyph glyph-name="Umacron" unicode="&#x16a;" horiz-adv-x="1526" 
d="M445 1745v115h635v-115h-635zM762 -20c-336 0 -580 221 -580 524v1032h174v-1004c0 -219 170 -378 406 -378c235 0 407 159 407 378v1004h174v-1032c0 -303 -243 -524 -581 -524z" />
    <glyph glyph-name="umacron" unicode="&#x16b;" horiz-adv-x="1032" 
d="M199 1172v115h635v-115h-635zM516 -18c-223 0 -369 141 -369 366v615h168v-596c0 -138 84 -222 201 -222c119 0 201 84 201 222v596h168v-615c0 -225 -146 -366 -369 -366z" />
    <glyph glyph-name="Uring" unicode="&#x16e;" horiz-adv-x="1526" 
d="M762 1673c-119 0 -217 98 -217 215c0 119 98 215 217 215c117 0 213 -96 213 -215c0 -117 -96 -215 -213 -215zM762 1763c67 0 123 53 123 125c0 67 -56 127 -123 127c-70 0 -123 -60 -123 -127c0 -72 53 -125 123 -125zM762 -20c-336 0 -580 221 -580 524v1032h174
v-1004c0 -219 170 -378 406 -378c235 0 407 159 407 378v1004h174v-1032c0 -303 -243 -524 -581 -524z" />
    <glyph glyph-name="uring" unicode="&#x16f;" horiz-adv-x="1032" 
d="M536 1126c-119 0 -217 99 -217 215c0 119 98 215 217 215c117 0 213 -96 213 -215c0 -116 -96 -215 -213 -215zM536 1217c68 0 123 53 123 124c0 68 -55 127 -123 127c-69 0 -123 -59 -123 -127c0 -71 54 -124 123 -124zM516 -18c-223 0 -369 141 -369 366v615h168v-596
c0 -138 84 -222 201 -222c119 0 201 84 201 222v596h168v-615c0 -225 -146 -366 -369 -366z" />
    <glyph glyph-name="Uhungarumlaut" unicode="&#x170;" horiz-adv-x="1526" 
d="M575 1704l-84 94l328 283l86 -94zM946 1704l-84 94l328 283l86 -94zM762 -20c-336 0 -580 221 -580 524v1032h174v-1004c0 -219 170 -378 406 -378c235 0 407 159 407 378v1004h174v-1032c0 -303 -243 -524 -581 -524z" />
    <glyph glyph-name="uhungarumlaut" unicode="&#x171;" horiz-adv-x="1032" 
d="M329 1131l-84 94l328 283l86 -94zM700 1131l-84 94l328 283l86 -94zM516 -18c-223 0 -369 141 -369 366v615h168v-596c0 -138 84 -222 201 -222c119 0 201 84 201 222v596h168v-615c0 -225 -146 -366 -369 -366z" />
    <glyph glyph-name="Uogonek" unicode="&#x172;" horiz-adv-x="1526" 
d="M1169 1536h174v-1032c0 -258 -176 -456 -436 -510c-124 -60 -225 -155 -225 -263c0 -77 53 -110 119 -110c61 0 135 29 186 80l82 -115c-78 -78 -176 -109 -277 -104c-137 6 -229 81 -229 211c0 112 68 207 172 287c-322 12 -553 229 -553 524v1032h174v-1004
c0 -219 170 -378 406 -378c235 0 407 159 407 378v1004z" />
    <glyph glyph-name="uogonek" unicode="&#x173;" horiz-adv-x="1032" 
d="M717 963h168v-615c0 -191 -105 -322 -274 -357c-132 -60 -244 -159 -244 -272c0 -77 53 -110 119 -110c61 0 135 29 186 80l82 -115c-78 -78 -176 -109 -277 -104c-137 6 -229 81 -229 211c0 120 79 221 196 306c-182 27 -297 161 -297 361v615h168v-596
c0 -138 84 -222 201 -222c119 0 201 84 201 222v596z" />
    <glyph glyph-name="Wcircumflex" unicode="&#x174;" horiz-adv-x="1946" 
d="M973 1896l-205 -237l-84 51l200 297h173l202 -297l-86 -51zM1917 1536l-651 -1580l-293 710l-293 -711l-651 1581h188l469 -1180l202 516l-274 664h183l176 -447l176 447h182l-273 -663l204 -517l467 1180h188z" />
    <glyph glyph-name="wcircumflex" unicode="&#x175;" horiz-adv-x="1432" 
d="M717 1323l-205 -237l-84 51l200 297h173l202 -297l-86 -51zM1415 963l-389 -1015l-311 682l-311 -682l-388 1015h183l222 -608l294 661l296 -666l222 613h182z" />
    <glyph glyph-name="Ycircumflex" unicode="&#x176;" horiz-adv-x="1270" 
d="M637 1896l-205 -237l-84 51l200 297h173l202 -297l-86 -51zM1257 1536l-534 -808v-728h-174v725l-537 811h217l407 -629l408 629h213z" />
    <glyph glyph-name="ycircumflex" unicode="&#x177;" horiz-adv-x="985" 
d="M481 1323l-205 -237l-84 51l200 297h173l202 -297l-86 -51zM782 963h189l-584 -1455h-178l194 492l-391 963h187l300 -773z" />
    <glyph glyph-name="Ydieresis" unicode="&#x178;" horiz-adv-x="1270" 
d="M449 1652c-62 0 -115 51 -115 113c0 65 53 115 115 115c61 0 115 -50 115 -115c0 -62 -54 -113 -115 -113zM826 1652c-62 0 -115 51 -115 113c0 65 53 115 115 115c63 0 114 -50 114 -115c0 -62 -51 -113 -114 -113zM1257 1536l-534 -808v-728h-174v725l-537 811h217
l407 -629l408 629h213z" />
    <glyph glyph-name="Zacute" unicode="&#x179;" horiz-adv-x="1356" 
d="M982 1944l-333 -289l-66 71l303 326zM1297 1536l-928 -1362h915v-174h-1245l928 1362h-844v174h1174z" />
    <glyph glyph-name="zacute" unicode="&#x17a;" horiz-adv-x="936" 
d="M773 1371l-333 -289l-66 71l303 326zM881 963l-534 -809h527v-154h-831l533 809h-496v154h801z" />
    <glyph glyph-name="Zdotaccent" unicode="&#x17b;" horiz-adv-x="1356" 
d="M690 1706c-62 0 -115 52 -115 113c0 66 53 115 115 115c61 0 115 -49 115 -115c0 -61 -54 -113 -115 -113zM1297 1536l-928 -1362h915v-174h-1245l928 1362h-844v174h1174z" />
    <glyph glyph-name="zdotaccent" unicode="&#x17c;" horiz-adv-x="936" 
d="M481 1133c-62 0 -115 52 -115 113c0 66 53 115 115 115c61 0 115 -49 115 -115c0 -61 -54 -113 -115 -113zM881 963l-534 -809h527v-154h-831l533 809h-496v154h801z" />
    <glyph glyph-name="Zcaron" unicode="&#x17d;" horiz-adv-x="1356" 
d="M774 1698h-173l-200 297l88 53l201 -240l198 240l88 -53zM1297 1536l-928 -1362h915v-174h-1245l928 1362h-844v174h1174z" />
    <glyph glyph-name="zcaron" unicode="&#x17e;" horiz-adv-x="936" 
d="M565 1125h-173l-200 297l88 53l201 -240l198 240l88 -53zM881 963l-534 -809h527v-154h-831l533 809h-496v154h801z" />
    <glyph glyph-name="florin" unicode="&#x192;" horiz-adv-x="1038" 
d="M819 1403c-104 0 -184 -76 -203 -186l-31 -193h283l-22 -160h-286l-220 -1376h-186l216 1376h-171l24 160h173l34 219c29 176 193 313 369 313c59 0 116 -16 141 -34l-18 -152c-27 23 -68 33 -103 33z" />
    <glyph glyph-name="Ohorn" unicode="&#x1a0;" horiz-adv-x="1765" 
d="M1628 1504h142v-125c0 -177 -92 -245 -186 -250c56 -108 87 -231 87 -361c0 -436 -352 -788 -788 -788c-437 0 -789 352 -789 788s352 788 789 788c273 0 513 -138 655 -349c70 6 90 84 90 133v164zM883 154c342 0 614 272 614 614s-272 614 -614 614
c-340 0 -615 -272 -615 -614s275 -614 615 -614z" />
    <glyph glyph-name="ohorn" unicode="&#x1a1;" horiz-adv-x="1155" 
d="M1132 1014h142v-125c0 -184 -99 -250 -197 -250c-8 0 -15 0 -24 1c17 -50 26 -103 26 -159c0 -276 -223 -499 -501 -499c-281 0 -504 223 -504 499c0 277 223 500 504 500c192 0 358 -106 442 -263c5 -1 10 -1 14 -1c76 0 98 82 98 133v164zM578 145
c184 0 333 150 333 336c0 187 -149 336 -333 336c-189 0 -336 -149 -336 -336c0 -186 147 -336 336 -336z" />
    <glyph glyph-name="Uhorn" unicode="&#x1af;" horiz-adv-x="1679" 
d="M1450 1538h142v-125c0 -184 -99 -250 -197 -250c-16 0 -33 2 -52 5v-664c0 -303 -243 -524 -581 -524c-336 0 -580 221 -580 524v1032h174v-1004c0 -219 170 -378 406 -378c235 0 407 159 407 378v1004h174v-295h9c76 0 98 82 98 133v164z" />
    <glyph glyph-name="uhorn" unicode="&#x1b0;" horiz-adv-x="1032" 
d="M1046 963h142v-125c0 -184 -99 -250 -197 -250c-31 0 -68 6 -106 18v-258c0 -225 -146 -366 -369 -366s-369 141 -369 366v615h168v-596c0 -138 84 -222 201 -222c119 0 201 84 201 222v596h168v-284c26 -10 47 -13 63 -13c76 0 98 82 98 133v164z" />
    <glyph glyph-name="uni01CD" unicode="&#x1cd;" horiz-adv-x="1360" 
d="M766 1698h-173l-200 297l88 53l201 -240l198 240l88 -53zM1137 0l-96 246h-722l-96 -246h-194l651 1578l651 -1578h-194zM383 408h595l-297 760z" />
    <glyph glyph-name="uni01CE" unicode="&#x1ce;" horiz-adv-x="1253" 
d="M662 1125h-173l-200 297l88 53l201 -240l198 240l88 -53zM913 963h168v-963h-168v137c-82 -96 -204 -155 -356 -155c-258 0 -481 223 -481 499c0 277 223 500 481 500c152 0 274 -59 356 -155v137zM580 145c186 0 333 150 333 336c0 187 -147 336 -333 336
c-187 0 -336 -149 -336 -336c0 -186 149 -336 336 -336z" />
    <glyph glyph-name="uni01CF" unicode="&#x1cf;" horiz-adv-x="608" 
d="M214 1698l-200 297l88 53l201 -240l198 240l88 -53l-202 -297h-173zM217 0v1536h174v-1536h-174z" />
    <glyph glyph-name="uni01D0" unicode="&#x1d0;" horiz-adv-x="516" 
d="M169 1125l-200 297l88 53l201 -240l198 240l88 -53l-202 -297h-173zM174 0v963h168v-963h-168z" />
    <glyph glyph-name="uni01D1" unicode="&#x1d1;" horiz-adv-x="1765" 
d="M794 1698l-200 297l88 53l201 -240l198 240l88 -53l-202 -297h-173zM883 -20c-437 0 -789 352 -789 788s352 788 789 788c436 0 788 -352 788 -788s-352 -788 -788 -788zM883 154c342 0 614 272 614 614s-272 614 -614 614c-340 0 -615 -272 -615 -614s275 -614 615 -614
z" />
    <glyph glyph-name="uni01D2" unicode="&#x1d2;" horiz-adv-x="1155" 
d="M489 1125l-200 297l88 53l201 -240l198 240l88 -53l-202 -297h-173zM578 -18c-281 0 -504 223 -504 499c0 277 223 500 504 500c278 0 501 -223 501 -500c0 -276 -223 -499 -501 -499zM578 145c184 0 333 150 333 336c0 187 -149 336 -333 336
c-189 0 -336 -149 -336 -336c0 -186 147 -336 336 -336z" />
    <glyph glyph-name="uni01D3" unicode="&#x1d3;" horiz-adv-x="1526" 
d="M673 1698l-200 297l88 53l201 -240l198 240l88 -53l-202 -297h-173zM762 -20c-336 0 -580 221 -580 524v1032h174v-1004c0 -219 170 -378 406 -378c235 0 407 159 407 378v1004h174v-1032c0 -303 -243 -524 -581 -524z" />
    <glyph glyph-name="uni01D4" unicode="&#x1d4;" horiz-adv-x="1032" 
d="M427 1125l-200 297l88 53l201 -240l198 240l88 -53l-202 -297h-173zM516 -18c-223 0 -369 141 -369 366v615h168v-596c0 -138 84 -222 201 -222c119 0 201 84 201 222v596h168v-615c0 -225 -146 -366 -369 -366z" />
    <glyph glyph-name="uni01D5" unicode="&#x1d5;" horiz-adv-x="1526" 
d="M445 2089v115h635v-115h-635zM574 1652c-62 0 -115 51 -115 113c0 65 53 115 115 115c61 0 115 -50 115 -115c0 -62 -54 -113 -115 -113zM951 1652c-62 0 -115 51 -115 113c0 65 53 115 115 115c63 0 114 -50 114 -115c0 -62 -51 -113 -114 -113zM762 -20
c-336 0 -580 221 -580 524v1032h174v-1004c0 -219 170 -378 406 -378c235 0 407 159 407 378v1004h174v-1032c0 -303 -243 -524 -581 -524z" />
    <glyph glyph-name="uni01D6" unicode="&#x1d6;" horiz-adv-x="1032" 
d="M199 1577v115h635v-115h-635zM328 1141c-62 0 -115 51 -115 112c0 66 53 115 115 115c61 0 115 -49 115 -115c0 -61 -54 -112 -115 -112zM705 1141c-62 0 -115 51 -115 112c0 66 53 115 115 115c63 0 114 -49 114 -115c0 -61 -51 -112 -114 -112zM516 -18
c-223 0 -369 141 -369 366v615h168v-596c0 -138 84 -222 201 -222c119 0 201 84 201 222v596h168v-615c0 -225 -146 -366 -369 -366z" />
    <glyph glyph-name="uni01D7" unicode="&#x1d7;" horiz-adv-x="1526" 
d="M721 1999l-66 71l303 326l96 -108zM574 1652c-62 0 -115 51 -115 113c0 65 53 115 115 115c61 0 115 -50 115 -115c0 -62 -54 -113 -115 -113zM951 1652c-62 0 -115 51 -115 113c0 65 53 115 115 115c63 0 114 -50 114 -115c0 -62 -51 -113 -114 -113zM762 -20
c-336 0 -580 221 -580 524v1032h174v-1004c0 -219 170 -378 406 -378c235 0 407 159 407 378v1004h174v-1032c0 -303 -243 -524 -581 -524z" />
    <glyph glyph-name="uni01D8" unicode="&#x1d8;" horiz-adv-x="1032" 
d="M475 1487l-66 71l303 326l96 -108zM328 1141c-62 0 -115 51 -115 112c0 66 53 115 115 115c61 0 115 -49 115 -115c0 -61 -54 -112 -115 -112zM705 1141c-62 0 -115 51 -115 112c0 66 53 115 115 115c63 0 114 -49 114 -115c0 -61 -51 -112 -114 -112zM516 -18
c-223 0 -369 141 -369 366v615h168v-596c0 -138 84 -222 201 -222c119 0 201 84 201 222v596h168v-615c0 -225 -146 -366 -369 -366z" />
    <glyph glyph-name="uni01D9" unicode="&#x1d9;" horiz-adv-x="1526" 
d="M673 2042l-200 297l88 53l201 -240l198 240l88 -53l-202 -297h-173zM574 1652c-62 0 -115 51 -115 113c0 65 53 115 115 115c61 0 115 -50 115 -115c0 -62 -54 -113 -115 -113zM951 1652c-62 0 -115 51 -115 113c0 65 53 115 115 115c63 0 114 -50 114 -115
c0 -62 -51 -113 -114 -113zM762 -20c-336 0 -580 221 -580 524v1032h174v-1004c0 -219 170 -378 406 -378c235 0 407 159 407 378v1004h174v-1032c0 -303 -243 -524 -581 -524z" />
    <glyph glyph-name="uni01DA" unicode="&#x1da;" horiz-adv-x="1032" 
d="M427 1530l-200 297l88 53l201 -240l198 240l88 -53l-202 -297h-173zM328 1141c-62 0 -115 51 -115 112c0 66 53 115 115 115c61 0 115 -49 115 -115c0 -61 -54 -112 -115 -112zM705 1141c-62 0 -115 51 -115 112c0 66 53 115 115 115c63 0 114 -49 114 -115
c0 -61 -51 -112 -114 -112zM516 -18c-223 0 -369 141 -369 366v615h168v-596c0 -138 84 -222 201 -222c119 0 201 84 201 222v596h168v-615c0 -225 -146 -366 -369 -366z" />
    <glyph glyph-name="uni01DB" unicode="&#x1db;" horiz-adv-x="1526" 
d="M764 1999l-336 289l98 108l301 -326zM574 1652c-62 0 -115 51 -115 113c0 65 53 115 115 115c61 0 115 -50 115 -115c0 -62 -54 -113 -115 -113zM951 1652c-62 0 -115 51 -115 113c0 65 53 115 115 115c63 0 114 -50 114 -115c0 -62 -51 -113 -114 -113zM762 -20
c-336 0 -580 221 -580 524v1032h174v-1004c0 -219 170 -378 406 -378c235 0 407 159 407 378v1004h174v-1032c0 -303 -243 -524 -581 -524z" />
    <glyph glyph-name="uni01DC" unicode="&#x1dc;" horiz-adv-x="1032" 
d="M518 1487l-336 289l98 108l301 -326zM328 1141c-62 0 -115 51 -115 112c0 66 53 115 115 115c61 0 115 -49 115 -115c0 -61 -54 -112 -115 -112zM705 1141c-62 0 -115 51 -115 112c0 66 53 115 115 115c63 0 114 -49 114 -115c0 -61 -51 -112 -114 -112zM516 -18
c-223 0 -369 141 -369 366v615h168v-596c0 -138 84 -222 201 -222c119 0 201 84 201 222v596h168v-615c0 -225 -146 -366 -369 -366z" />
    <glyph glyph-name="Scommaaccent" unicode="&#x218;" horiz-adv-x="1135" 
d="M580 -20c-218 0 -408 106 -517 241l125 125c91 -129 215 -211 381 -211c179 0 310 103 310 264c0 174 -168 244 -347 318c-194 82 -399 172 -399 436c0 248 191 403 430 403c199 0 344 -92 443 -208l-105 -109c-121 127 -215 162 -334 162c-143 0 -260 -84 -260 -236
c0 -164 144 -231 303 -295c207 -84 443 -163 443 -464c0 -279 -219 -426 -473 -426zM436 -561l-92 37l188 440l144 -59z" />
    <glyph glyph-name="scommaaccent" unicode="&#x219;" horiz-adv-x="874" 
d="M432 -18c-164 0 -278 63 -362 124l94 138c63 -58 164 -111 276 -111c113 0 187 53 187 141c0 99 -101 123 -209 154c-142 39 -307 80 -307 270c0 183 157 283 346 283c112 0 225 -37 307 -94l-96 -129c-80 57 -158 76 -226 76c-106 0 -174 -46 -174 -119
c0 -94 117 -117 240 -150c137 -37 280 -90 280 -278c0 -193 -141 -305 -356 -305zM327 -561l-92 37l188 440l144 -59z" />
    <glyph glyph-name="uni021A" unicode="&#x21a;" horiz-adv-x="1075" 
d="M29 1536h1018v-174h-422v-1362h-174v1362h-422v174zM328 -524l188 440l144 -59l-240 -418z" />
    <glyph glyph-name="uni021B" unicode="&#x21b;" horiz-adv-x="633" 
d="M401 963h201v-154h-201v-809h-170v809h-202v154h202v346h170v-346zM108 -524l188 440l144 -59l-240 -418z" />
    <glyph glyph-name="uni0237" unicode="&#x237;" horiz-adv-x="514" 
d="M174 -481v1444h166v-1444h-166z" />
    <glyph glyph-name="circumflex" unicode="&#x2c6;" horiz-adv-x="727" 
d="M160 1188l-84 51l200 297h173l202 -297l-86 -51l-200 237z" />
    <glyph glyph-name="caron" unicode="&#x2c7;" horiz-adv-x="727" 
d="M278 1186l-200 297l88 53l201 -240l198 240l88 -53l-202 -297h-173z" />
    <glyph glyph-name="breve" unicode="&#x2d8;" horiz-adv-x="889" 
d="M473 1200c-194 0 -338 121 -338 316h136c0 -115 67 -209 202 -209c138 0 205 94 205 209h135c0 -195 -143 -316 -340 -316z" />
    <glyph glyph-name="dotaccent" unicode="&#x2d9;" horiz-adv-x="500" 
d="M250 1214c-62 0 -115 52 -115 113c0 66 53 115 115 115c61 0 115 -49 115 -115c0 -61 -54 -113 -115 -113z" />
    <glyph glyph-name="ring" unicode="&#x2da;" horiz-adv-x="662" 
d="M352 1126c-119 0 -217 99 -217 215c0 119 98 215 217 215c117 0 213 -96 213 -215c0 -116 -96 -215 -213 -215zM352 1217c68 0 123 53 123 124c0 68 -55 127 -123 127c-69 0 -123 -59 -123 -127c0 -71 54 -124 123 -124z" />
    <glyph glyph-name="ogonek" unicode="&#x2db;" horiz-adv-x="641" 
d="M331 -530c-137 6 -229 81 -229 211c0 151 125 272 293 368l90 -49c-141 -59 -264 -162 -264 -281c0 -77 53 -110 119 -110c61 0 135 29 186 80l82 -115c-78 -78 -176 -109 -277 -104z" />
    <glyph glyph-name="tilde" unicode="&#x2dc;" horiz-adv-x="956" 
d="M661 1253c-96 0 -151 58 -188 113c-27 41 -51 55 -82 55c-65 0 -98 -71 -98 -159h-125c0 159 82 282 219 282c90 0 147 -53 188 -112c19 -27 41 -56 86 -56c62 0 97 54 97 160h123c0 -158 -76 -283 -220 -283z" />
    <glyph glyph-name="hungarumlaut" unicode="&#x2dd;" horiz-adv-x="496" 
d="M111 1143l-66 71l303 326l96 -108z" />
    <glyph glyph-name="gravecomb" unicode="&#x300;" 
d="M-108 1143l-336 289l98 108l301 -326z" />
    <glyph glyph-name="acutecomb" unicode="&#x301;" 
d="M-385 1143l-66 71l303 326l96 -108z" />
    <glyph glyph-name="uni0302" unicode="&#x302;" 
d="M-567 1188l-84 51l200 297h173l202 -297l-86 -51l-200 237z" />
    <glyph glyph-name="tildecomb" unicode="&#x303;" 
d="M-342 1253c-96 0 -151 58 -188 113c-27 41 -51 55 -82 55c-65 0 -98 -71 -98 -159h-125c0 159 82 282 219 282c90 0 147 -53 188 -112c19 -27 41 -56 86 -56c62 0 97 54 97 160h123c0 -158 -76 -283 -220 -283z" />
    <glyph glyph-name="uni0304" unicode="&#x304;" 
d="M-801 1233v115h635v-115h-635z" />
    <glyph glyph-name="uni0306" unicode="&#x306;" 
d="M-447 1200c-194 0 -338 121 -338 316h136c0 -115 67 -209 202 -209c138 0 205 94 205 209h135c0 -195 -143 -316 -340 -316z" />
    <glyph glyph-name="uni0307" unicode="&#x307;" 
d="M-250 1214c-62 0 -115 52 -115 113c0 66 53 115 115 115c61 0 115 -49 115 -115c0 -61 -54 -113 -115 -113z" />
    <glyph glyph-name="uni0308" unicode="&#x308;" 
d="M-627 1141c-62 0 -115 51 -115 112c0 66 53 115 115 115c61 0 115 -49 115 -115c0 -61 -54 -112 -115 -112zM-250 1141c-62 0 -115 51 -115 112c0 66 53 115 115 115c63 0 114 -49 114 -115c0 -61 -51 -112 -114 -112z" />
    <glyph glyph-name="hookabovecomb" unicode="&#x309;" 
d="M-366 1063v154c88 18 143 57 143 129c0 51 -39 92 -100 92c-41 0 -74 -13 -107 -35l-65 92c47 37 106 61 168 61c125 0 225 -88 225 -210c0 -84 -51 -162 -156 -193v-90h-108z" />
    <glyph glyph-name="uni030A" unicode="&#x30a;" 
d="M-310 1126c-119 0 -217 99 -217 215c0 119 98 215 217 215c117 0 213 -96 213 -215c0 -116 -96 -215 -213 -215zM-310 1217c68 0 123 53 123 124c0 68 -55 127 -123 127c-69 0 -123 -59 -123 -127c0 -71 54 -124 123 -124z" />
    <glyph glyph-name="uni030B" unicode="&#x30b;" 
d="M-754 1192l-84 94l328 283l86 -94zM-383 1192l-84 94l328 283l86 -94z" />
    <glyph glyph-name="uni030C" unicode="&#x30c;" 
d="M-451 1186l-200 297l88 53l201 -240l198 240l88 -53l-202 -297h-173z" />
    <glyph glyph-name="uni0312" unicode="&#x312;" 
d="M-242 1306c47 -13 80 -57 80 -108c0 -61 -53 -115 -115 -115c-67 0 -113 50 -113 117c0 12 2 27 7 41l145 428h104z" />
    <glyph glyph-name="uni031B" unicode="&#x31b;" 
d="M-338 772c-59 0 -141 23 -213 68l74 39c41 -23 74 -29 96 -29c76 0 98 82 98 133v164h142v-125c0 -184 -99 -250 -197 -250z" />
    <glyph glyph-name="dotbelowcomb" unicode="&#x323;" 
d="M-248 -512c-62 0 -115 51 -115 115c0 61 53 114 115 114c61 0 114 -53 114 -114c0 -64 -53 -115 -114 -115z" />
    <glyph glyph-name="uni0326" unicode="&#x326;" 
d="M-303 -305l-92 37l188 440l144 -59z" />
    <glyph glyph-name="uni0327" unicode="&#x327;" 
d="M-301 -532c-94 0 -198 59 -237 135l92 37c29 -41 94 -72 145 -72c62 0 111 49 111 113c0 92 -88 131 -199 88l-80 51l93 184h100l-66 -139c140 29 252 -55 252 -184c0 -119 -92 -213 -211 -213z" />
    <glyph glyph-name="uni0328" unicode="&#x328;" 
d="M-324 -530c-137 6 -229 81 -229 211c0 151 125 272 293 368l90 -49c-141 -59 -264 -162 -264 -281c0 -77 53 -110 119 -110c61 0 135 29 186 80l82 -115c-78 -78 -176 -109 -277 -104z" />
    <glyph glyph-name="uni0335" unicode="&#x335;" 
d="M-766 465v119h602v-119h-602z" />
    <glyph glyph-name="uni0336" unicode="&#x336;" 
d="M-1628 473v119h1464v-119h-1464z" />
    <glyph glyph-name="uni0337" unicode="&#x337;" 
d="M-627 227v154l580 432v-154z" />
    <glyph glyph-name="uni0338" unicode="&#x338;" 
d="M-1252 -18l1153 1652l127 -80l-1151 -1650z" />
    <glyph glyph-name="uni0394" unicode="&#x394;" horiz-adv-x="1485" 
d="M840 1536l616 -1536h-1427l616 1536h195zM279 154h927l-463 1184z" />
    <glyph glyph-name="uni03A9" unicode="&#x3a9;" horiz-adv-x="1800" 
d="M115 0v143h334v15c-154 123 -299 358 -299 649c0 414 315 731 755 731c459 0 746 -348 746 -727c0 -289 -150 -537 -303 -653v-15h338v-143h-607v106c195 103 381 340 381 674c0 303 -196 613 -553 613c-340 0 -567 -273 -567 -617c0 -323 190 -573 381 -670v-106h-606z
" />
    <glyph glyph-name="uni03BC" unicode="&#x3bc;" horiz-adv-x="1196" 
d="M856 963h166v-963h-166v140c-71 -97 -181 -158 -307 -158c-95 0 -182 35 -248 94v-557h-127v1444h168v-582c0 -139 113 -252 254 -252c143 0 260 113 260 252v582z" />
    <glyph glyph-name="pi" unicode="&#x3c0;" horiz-adv-x="1257" 
d="M156 0c75 197 141 551 153 813c-135 0 -184 -12 -246 -45l-24 141c53 31 143 54 307 54h877l-15 -150h-178v-526c0 -146 10 -226 29 -287h-156c-22 39 -31 133 -31 270v543l-405 2c-12 -235 -78 -643 -158 -815h-153z" />
    <glyph glyph-name="Wgrave" unicode="&#x1e80;" horiz-adv-x="1946" 
d="M1038 1726l-63 -71l-336 289l98 108zM1917 1536l-651 -1580l-293 710l-293 -711l-651 1581h188l469 -1180l202 516l-274 664h183l176 -447l176 447h182l-273 -663l204 -517l467 1180h188z" />
    <glyph glyph-name="wgrave" unicode="&#x1e81;" horiz-adv-x="1432" 
d="M782 1153l-63 -71l-336 289l98 108zM1415 963l-389 -1015l-311 682l-311 -682l-388 1015h183l222 -608l294 661l296 -666l222 613h182z" />
    <glyph glyph-name="Wacute" unicode="&#x1e82;" horiz-adv-x="1946" 
d="M1265 1944l-333 -289l-66 71l303 326zM1917 1536l-651 -1580l-293 710l-293 -711l-651 1581h188l469 -1180l202 516l-274 664h183l176 -447l176 447h182l-273 -663l204 -517l467 1180h188z" />
    <glyph glyph-name="wacute" unicode="&#x1e83;" horiz-adv-x="1432" 
d="M1009 1371l-333 -289l-66 71l303 326zM1415 963l-389 -1015l-311 682l-311 -682l-388 1015h183l222 -608l294 661l296 -666l222 613h182z" />
    <glyph glyph-name="Wdieresis" unicode="&#x1e84;" horiz-adv-x="1946" 
d="M785 1652c-62 0 -115 51 -115 113c0 65 53 115 115 115c61 0 115 -50 115 -115c0 -62 -54 -113 -115 -113zM1162 1652c-62 0 -115 51 -115 113c0 65 53 115 115 115c63 0 114 -50 114 -115c0 -62 -51 -113 -114 -113zM1917 1536l-651 -1580l-293 710l-293 -711l-651 1581
h188l469 -1180l202 516l-274 664h183l176 -447l176 447h182l-273 -663l204 -517l467 1180h188z" />
    <glyph glyph-name="wdieresis" unicode="&#x1e85;" horiz-adv-x="1432" 
d="M529 1141c-62 0 -115 51 -115 112c0 66 53 115 115 115c61 0 115 -49 115 -115c0 -61 -54 -112 -115 -112zM906 1141c-62 0 -115 51 -115 112c0 66 53 115 115 115c63 0 114 -49 114 -115c0 -61 -51 -112 -114 -112zM1415 963l-389 -1015l-311 682l-311 -682l-388 1015
h183l222 -608l294 661l296 -666l222 613h182z" />
    <glyph glyph-name="uni1EA0" unicode="&#x1ea0;" horiz-adv-x="1360" 
d="M1331 0h-194l-96 246h-722l-96 -246h-194l651 1578zM383 408h595l-297 760zM682 -142c61 0 114 -53 114 -114c0 -64 -53 -115 -114 -115c-62 0 -115 51 -115 115c0 61 53 114 115 114z" />
    <glyph glyph-name="uni1EA1" unicode="&#x1ea1;" horiz-adv-x="1253" 
d="M913 963h168v-963h-168v137c-82 -96 -204 -155 -356 -155c-258 0 -481 223 -481 499c0 277 223 500 481 500c152 0 274 -59 356 -155v137zM580 145c186 0 333 150 333 336c0 187 -147 336 -333 336c-187 0 -336 -149 -336 -336c0 -186 149 -336 336 -336zM625 -142
c61 0 114 -53 114 -114c0 -64 -53 -115 -114 -115c-62 0 -115 51 -115 115c0 61 53 114 115 114z" />
    <glyph glyph-name="uni1EA2" unicode="&#x1ea2;" horiz-adv-x="1360" 
d="M670 2011c-41 0 -74 -13 -107 -35l-65 92c47 37 106 61 168 61c125 0 225 -88 225 -210c0 -84 -51 -162 -156 -193v-90h-108v154c88 18 143 57 143 129c0 51 -39 92 -100 92zM1137 0l-96 246h-722l-96 -246h-194l651 1578l651 -1578h-194zM383 408h595l-297 760z" />
    <glyph glyph-name="uni1EA3" unicode="&#x1ea3;" horiz-adv-x="1253" 
d="M566 1438c-41 0 -74 -13 -107 -35l-65 92c47 37 106 61 168 61c125 0 225 -88 225 -210c0 -84 -51 -162 -156 -193v-90h-108v154c88 18 143 57 143 129c0 51 -39 92 -100 92zM913 963h168v-963h-168v137c-82 -96 -204 -155 -356 -155c-258 0 -481 223 -481 499
c0 277 223 500 481 500c152 0 274 -59 356 -155v137zM580 145c186 0 333 150 333 336c0 187 -147 336 -333 336c-187 0 -336 -149 -336 -336c0 -186 149 -336 336 -336z" />
    <glyph glyph-name="uni1EA4" unicode="&#x1ea4;" horiz-adv-x="1360" 
d="M971 2415l-333 -289l-66 71l303 326zM682 1896l-205 -237l-84 51l200 297h173l202 -297l-86 -51zM1137 0l-96 246h-722l-96 -246h-194l651 1578l651 -1578h-194zM383 408h595l-297 760z" />
    <glyph glyph-name="uni1EA5" unicode="&#x1ea5;" horiz-adv-x="1253" 
d="M867 1842l-333 -289l-66 71l303 326zM578 1323l-205 -237l-84 51l200 297h173l202 -297l-86 -51zM913 963h168v-963h-168v137c-82 -96 -204 -155 -356 -155c-258 0 -481 223 -481 499c0 277 223 500 481 500c152 0 274 -59 356 -155v137zM580 145c186 0 333 150 333 336
c0 187 -147 336 -333 336c-187 0 -336 -149 -336 -336c0 -186 149 -336 336 -336z" />
    <glyph glyph-name="uni1EA6" unicode="&#x1ea6;" horiz-adv-x="1360" 
d="M744 2197l-63 -71l-336 289l98 108zM393 1710l200 297h173l202 -297l-86 -51l-200 237l-205 -237zM1137 0l-96 246h-722l-96 -246h-194l651 1578l651 -1578h-194zM383 408h595l-297 760z" />
    <glyph glyph-name="uni1EA7" unicode="&#x1ea7;" horiz-adv-x="1253" 
d="M640 1624l-63 -71l-336 289l98 108zM289 1137l200 297h173l202 -297l-86 -51l-200 237l-205 -237zM913 963h168v-963h-168v137c-82 -96 -204 -155 -356 -155c-258 0 -481 223 -481 499c0 277 223 500 481 500c152 0 274 -59 356 -155v137zM580 145c186 0 333 150 333 336
c0 187 -147 336 -333 336c-187 0 -336 -149 -336 -336c0 -186 149 -336 336 -336z" />
    <glyph glyph-name="uni1EA8" unicode="&#x1ea8;" horiz-adv-x="1360" 
d="M667 2482c-41 0 -74 -13 -107 -35l-65 92c47 37 106 61 168 61c125 0 225 -88 225 -210c0 -84 -51 -162 -156 -193v-90h-108v154c88 18 143 57 143 129c0 51 -39 92 -100 92zM682 1896l-205 -237l-84 51l200 297h173l202 -297l-86 -51zM1137 0l-96 246h-722l-96 -246
h-194l651 1578l651 -1578h-194zM383 408h595l-297 760z" />
    <glyph glyph-name="uni1EA9" unicode="&#x1ea9;" horiz-adv-x="1253" 
d="M563 1909c-41 0 -74 -13 -107 -35l-65 92c47 37 106 61 168 61c125 0 225 -88 225 -210c0 -84 -51 -162 -156 -193v-90h-108v154c88 18 143 57 143 129c0 51 -39 92 -100 92zM578 1323l-205 -237l-84 51l200 297h173l202 -297l-86 -51zM913 963h168v-963h-168v137
c-82 -96 -204 -155 -356 -155c-258 0 -481 223 -481 499c0 277 223 500 481 500c152 0 274 -59 356 -155v137zM580 145c186 0 333 150 333 336c0 187 -147 336 -333 336c-187 0 -336 -149 -336 -336c0 -186 149 -336 336 -336z" />
    <glyph glyph-name="uni1EAA" unicode="&#x1eaa;" horiz-adv-x="1360" 
d="M544 2279c-65 0 -98 -71 -98 -159h-125c0 159 82 282 219 282c90 0 147 -53 188 -112c19 -27 41 -56 86 -56c62 0 97 54 97 160h123c0 -158 -76 -283 -220 -283c-96 0 -151 58 -188 113c-27 41 -51 55 -82 55zM593 2007h173l202 -297l-86 -51l-200 237l-205 -237l-84 51z
M1137 0l-96 246h-722l-96 -246h-194l651 1578l651 -1578h-194zM383 408h595l-297 760z" />
    <glyph glyph-name="uni1EAB" unicode="&#x1eab;" horiz-adv-x="1253" 
d="M440 1706c-65 0 -98 -71 -98 -159h-125c0 159 82 282 219 282c90 0 147 -53 188 -112c19 -27 41 -56 86 -56c62 0 97 54 97 160h123c0 -158 -76 -283 -220 -283c-96 0 -151 58 -188 113c-27 41 -51 55 -82 55zM489 1434h173l202 -297l-86 -51l-200 237l-205 -237l-84 51z
M913 963h168v-963h-168v137c-82 -96 -204 -155 -356 -155c-258 0 -481 223 -481 499c0 277 223 500 481 500c152 0 274 -59 356 -155v137zM580 145c186 0 333 150 333 336c0 187 -147 336 -333 336c-187 0 -336 -149 -336 -336c0 -186 149 -336 336 -336z" />
    <glyph glyph-name="uni1EAC" unicode="&#x1eac;" horiz-adv-x="1360" 
d="M682 1896l-205 -237l-84 51l200 297h173l202 -297l-86 -51zM1331 0h-194l-96 246h-722l-96 -246h-194l651 1578zM383 408h595l-297 760zM682 -142c61 0 114 -53 114 -114c0 -64 -53 -115 -114 -115c-62 0 -115 51 -115 115c0 61 53 114 115 114z" />
    <glyph glyph-name="uni1EAD" unicode="&#x1ead;" horiz-adv-x="1253" 
d="M578 1323l-205 -237l-84 51l200 297h173l202 -297l-86 -51zM913 963h168v-963h-168v137c-82 -96 -204 -155 -356 -155c-258 0 -481 223 -481 499c0 277 223 500 481 500c152 0 274 -59 356 -155v137zM580 145c186 0 333 150 333 336c0 187 -147 336 -333 336
c-187 0 -336 -149 -336 -336c0 -186 149 -336 336 -336zM625 -142c61 0 114 -53 114 -114c0 -64 -53 -115 -114 -115c-62 0 -115 51 -115 115c0 61 53 114 115 114z" />
    <glyph glyph-name="uni1EAE" unicode="&#x1eae;" horiz-adv-x="1360" 
d="M974 2405l-333 -289l-66 71l303 326zM680 1712c-194 0 -338 121 -338 316h136c0 -115 67 -209 202 -209c138 0 205 94 205 209h135c0 -195 -143 -316 -340 -316zM1137 0l-96 246h-722l-96 -246h-194l651 1578l651 -1578h-194zM383 408h595l-297 760z" />
    <glyph glyph-name="uni1EAF" unicode="&#x1eaf;" horiz-adv-x="1253" 
d="M870 1832l-333 -289l-66 71l303 326zM576 1139c-194 0 -338 121 -338 316h136c0 -115 67 -209 202 -209c138 0 205 94 205 209h135c0 -195 -143 -316 -340 -316zM913 963h168v-963h-168v137c-82 -96 -204 -155 -356 -155c-258 0 -481 223 -481 499c0 277 223 500 481 500
c152 0 274 -59 356 -155v137zM580 145c186 0 333 150 333 336c0 187 -147 336 -333 336c-187 0 -336 -149 -336 -336c0 -186 149 -336 336 -336z" />
    <glyph glyph-name="uni1EB0" unicode="&#x1eb0;" horiz-adv-x="1360" 
d="M747 2187l-63 -71l-336 289l98 108zM680 1712c-194 0 -338 121 -338 316h136c0 -115 67 -209 202 -209c138 0 205 94 205 209h135c0 -195 -143 -316 -340 -316zM1137 0l-96 246h-722l-96 -246h-194l651 1578l651 -1578h-194zM383 408h595l-297 760z" />
    <glyph glyph-name="uni1EB1" unicode="&#x1eb1;" horiz-adv-x="1253" 
d="M643 1614l-63 -71l-336 289l98 108zM576 1139c-194 0 -338 121 -338 316h136c0 -115 67 -209 202 -209c138 0 205 94 205 209h135c0 -195 -143 -316 -340 -316zM913 963h168v-963h-168v137c-82 -96 -204 -155 -356 -155c-258 0 -481 223 -481 499c0 277 223 500 481 500
c152 0 274 -59 356 -155v137zM580 145c186 0 333 150 333 336c0 187 -147 336 -333 336c-187 0 -336 -149 -336 -336c0 -186 149 -336 336 -336z" />
    <glyph glyph-name="uni1EB2" unicode="&#x1eb2;" horiz-adv-x="1360" 
d="M670 2472c-41 0 -74 -13 -107 -35l-65 92c47 37 106 61 168 61c125 0 225 -88 225 -210c0 -84 -51 -162 -156 -193v-90h-108v154c88 18 143 57 143 129c0 51 -39 92 -100 92zM680 1712c-194 0 -338 121 -338 316h136c0 -115 67 -209 202 -209c138 0 205 94 205 209h135
c0 -195 -143 -316 -340 -316zM1137 0l-96 246h-722l-96 -246h-194l651 1578l651 -1578h-194zM383 408h595l-297 760z" />
    <glyph glyph-name="uni1EB3" unicode="&#x1eb3;" horiz-adv-x="1253" 
d="M566 1899c-41 0 -74 -13 -107 -35l-65 92c47 37 106 61 168 61c125 0 225 -88 225 -210c0 -84 -51 -162 -156 -193v-90h-108v154c88 18 143 57 143 129c0 51 -39 92 -100 92zM576 1139c-194 0 -338 121 -338 316h136c0 -115 67 -209 202 -209c138 0 205 94 205 209h135
c0 -195 -143 -316 -340 -316zM913 963h168v-963h-168v137c-82 -96 -204 -155 -356 -155c-258 0 -481 223 -481 499c0 277 223 500 481 500c152 0 274 -59 356 -155v137zM580 145c186 0 333 150 333 336c0 187 -147 336 -333 336c-187 0 -336 -149 -336 -336
c0 -186 149 -336 336 -336z" />
    <glyph glyph-name="uni1EB4" unicode="&#x1eb4;" horiz-adv-x="1360" 
d="M547 2269c-65 0 -98 -71 -98 -159h-125c0 159 82 282 219 282c90 0 147 -53 188 -112c19 -27 41 -56 86 -56c62 0 97 54 97 160h123c0 -158 -76 -283 -220 -283c-96 0 -151 58 -188 113c-27 41 -51 55 -82 55zM680 1819c138 0 205 94 205 209h135
c0 -195 -143 -316 -340 -316c-194 0 -338 121 -338 316h136c0 -115 67 -209 202 -209zM1137 0l-96 246h-722l-96 -246h-194l651 1578l651 -1578h-194zM383 408h595l-297 760z" />
    <glyph glyph-name="uni1EB5" unicode="&#x1eb5;" horiz-adv-x="1253" 
d="M443 1696c-65 0 -98 -71 -98 -159h-125c0 159 82 282 219 282c90 0 147 -53 188 -112c19 -27 41 -56 86 -56c62 0 97 54 97 160h123c0 -158 -76 -283 -220 -283c-96 0 -151 58 -188 113c-27 41 -51 55 -82 55zM576 1246c138 0 205 94 205 209h135
c0 -195 -143 -316 -340 -316c-194 0 -338 121 -338 316h136c0 -115 67 -209 202 -209zM913 963h168v-963h-168v137c-82 -96 -204 -155 -356 -155c-258 0 -481 223 -481 499c0 277 223 500 481 500c152 0 274 -59 356 -155v137zM580 145c186 0 333 150 333 336
c0 187 -147 336 -333 336c-187 0 -336 -149 -336 -336c0 -186 149 -336 336 -336z" />
    <glyph glyph-name="uni1EB6" unicode="&#x1eb6;" horiz-adv-x="1360" 
d="M680 1712c-194 0 -338 121 -338 316h136c0 -115 67 -209 202 -209c138 0 205 94 205 209h135c0 -195 -143 -316 -340 -316zM1331 0h-194l-96 246h-722l-96 -246h-194l651 1578zM383 408h595l-297 760zM682 -142c61 0 114 -53 114 -114c0 -64 -53 -115 -114 -115
c-62 0 -115 51 -115 115c0 61 53 114 115 114z" />
    <glyph glyph-name="uni1EB7" unicode="&#x1eb7;" horiz-adv-x="1253" 
d="M576 1139c-194 0 -338 121 -338 316h136c0 -115 67 -209 202 -209c138 0 205 94 205 209h135c0 -195 -143 -316 -340 -316zM913 963h168v-963h-168v137c-82 -96 -204 -155 -356 -155c-258 0 -481 223 -481 499c0 277 223 500 481 500c152 0 274 -59 356 -155v137z
M580 145c186 0 333 150 333 336c0 187 -147 336 -333 336c-187 0 -336 -149 -336 -336c0 -186 149 -336 336 -336zM625 -142c61 0 114 -53 114 -114c0 -64 -53 -115 -114 -115c-62 0 -115 51 -115 115c0 61 53 114 115 114z" />
    <glyph glyph-name="uni1EB8" unicode="&#x1eb8;" horiz-adv-x="1165" 
d="M1061 1368h-670v-516h584v-168h-584v-516h670v-168h-844v1536h844v-168zM639 -142c61 0 114 -53 114 -114c0 -64 -53 -115 -114 -115c-62 0 -115 51 -115 115c0 61 53 114 115 114z" />
    <glyph glyph-name="uni1EB9" unicode="&#x1eb9;" horiz-adv-x="1139" 
d="M1077 492v-33h-844c10 -183 162 -326 345 -326c120 0 229 62 292 162l142 -57c-84 -158 -246 -256 -432 -256c-285 0 -504 223 -504 499c0 277 221 500 502 500c276 0 499 -213 499 -489zM578 829c-155 0 -281 -96 -327 -235h649c-44 138 -169 235 -322 235zM590 -142
c61 0 114 -53 114 -114c0 -64 -53 -115 -114 -115c-62 0 -115 51 -115 115c0 61 53 114 115 114z" />
    <glyph glyph-name="uni1EBA" unicode="&#x1eba;" horiz-adv-x="1165" 
d="M627 2011c-41 0 -74 -13 -107 -35l-65 92c47 37 106 61 168 61c125 0 225 -88 225 -210c0 -84 -51 -162 -156 -193v-90h-108v154c88 18 143 57 143 129c0 51 -39 92 -100 92zM1061 1368h-670v-516h584v-168h-584v-516h670v-168h-844v1536h844v-168z" />
    <glyph glyph-name="uni1EBB" unicode="&#x1ebb;" horiz-adv-x="1139" 
d="M576 1448c-41 0 -74 -13 -107 -35l-65 92c47 37 106 61 168 61c125 0 225 -88 225 -210c0 -84 -51 -162 -156 -193v-90h-108v154c88 18 143 57 143 129c0 51 -39 92 -100 92zM1077 492v-33h-844c10 -183 162 -326 345 -326c120 0 229 62 292 162l142 -57
c-84 -158 -246 -256 -432 -256c-285 0 -504 223 -504 499c0 277 221 500 502 500c276 0 499 -213 499 -489zM578 829c-155 0 -281 -96 -327 -235h649c-44 138 -169 235 -322 235z" />
    <glyph glyph-name="uni1EBC" unicode="&#x1ebc;" horiz-adv-x="1165" 
d="M504 1808c-65 0 -98 -71 -98 -159h-125c0 159 82 282 219 282c90 0 147 -53 188 -112c19 -27 41 -56 86 -56c62 0 97 54 97 160h123c0 -158 -76 -283 -220 -283c-96 0 -151 58 -188 113c-27 41 -51 55 -82 55zM1061 1368h-670v-516h584v-168h-584v-516h670v-168h-844
v1536h844v-168z" />
    <glyph glyph-name="uni1EBD" unicode="&#x1ebd;" horiz-adv-x="1139" 
d="M453 1245c-65 0 -98 -71 -98 -159h-125c0 159 82 282 219 282c90 0 147 -53 188 -112c19 -27 41 -56 86 -56c62 0 97 54 97 160h123c0 -158 -76 -283 -220 -283c-96 0 -151 58 -188 113c-27 41 -51 55 -82 55zM1077 492v-33h-844c10 -183 162 -326 345 -326
c120 0 229 62 292 162l142 -57c-84 -158 -246 -256 -432 -256c-285 0 -504 223 -504 499c0 277 221 500 502 500c276 0 499 -213 499 -489zM578 829c-155 0 -281 -96 -327 -235h649c-44 138 -169 235 -322 235z" />
    <glyph glyph-name="uni1EBE" unicode="&#x1ebe;" horiz-adv-x="1165" 
d="M928 2415l-333 -289l-66 71l303 326zM639 1896l-205 -237l-84 51l200 297h173l202 -297l-86 -51zM1061 1368h-670v-516h584v-168h-584v-516h670v-168h-844v1536h844v-168z" />
    <glyph glyph-name="uni1EBF" unicode="&#x1ebf;" horiz-adv-x="1139" 
d="M877 1852l-333 -289l-66 71l303 326zM588 1333l-205 -237l-84 51l200 297h173l202 -297l-86 -51zM1077 492v-33h-844c10 -183 162 -326 345 -326c120 0 229 62 292 162l142 -57c-84 -158 -246 -256 -432 -256c-285 0 -504 223 -504 499c0 277 221 500 502 500
c276 0 499 -213 499 -489zM578 829c-155 0 -281 -96 -327 -235h649c-44 138 -169 235 -322 235z" />
    <glyph glyph-name="uni1EC0" unicode="&#x1ec0;" horiz-adv-x="1165" 
d="M701 2197l-63 -71l-336 289l98 108zM350 1710l200 297h173l202 -297l-86 -51l-200 237l-205 -237zM1061 1368h-670v-516h584v-168h-584v-516h670v-168h-844v1536h844v-168z" />
    <glyph glyph-name="uni1EC1" unicode="&#x1ec1;" horiz-adv-x="1139" 
d="M650 1634l-63 -71l-336 289l98 108zM299 1147l200 297h173l202 -297l-86 -51l-200 237l-205 -237zM1077 492v-33h-844c10 -183 162 -326 345 -326c120 0 229 62 292 162l142 -57c-84 -158 -246 -256 -432 -256c-285 0 -504 223 -504 499c0 277 221 500 502 500
c276 0 499 -213 499 -489zM578 829c-155 0 -281 -96 -327 -235h649c-44 138 -169 235 -322 235z" />
    <glyph glyph-name="uni1EC2" unicode="&#x1ec2;" horiz-adv-x="1165" 
d="M624 2482c-41 0 -74 -13 -107 -35l-65 92c47 37 106 61 168 61c125 0 225 -88 225 -210c0 -84 -51 -162 -156 -193v-90h-108v154c88 18 143 57 143 129c0 51 -39 92 -100 92zM639 1896l-205 -237l-84 51l200 297h173l202 -297l-86 -51zM1061 1368h-670v-516h584v-168
h-584v-516h670v-168h-844v1536h844v-168z" />
    <glyph glyph-name="uni1EC3" unicode="&#x1ec3;" horiz-adv-x="1139" 
d="M573 1919c-41 0 -74 -13 -107 -35l-65 92c47 37 106 61 168 61c125 0 225 -88 225 -210c0 -84 -51 -162 -156 -193v-90h-108v154c88 18 143 57 143 129c0 51 -39 92 -100 92zM588 1333l-205 -237l-84 51l200 297h173l202 -297l-86 -51zM1077 492v-33h-844
c10 -183 162 -326 345 -326c120 0 229 62 292 162l142 -57c-84 -158 -246 -256 -432 -256c-285 0 -504 223 -504 499c0 277 221 500 502 500c276 0 499 -213 499 -489zM578 829c-155 0 -281 -96 -327 -235h649c-44 138 -169 235 -322 235z" />
    <glyph glyph-name="uni1EC4" unicode="&#x1ec4;" horiz-adv-x="1165" 
d="M501 2279c-65 0 -98 -71 -98 -159h-125c0 159 82 282 219 282c90 0 147 -53 188 -112c19 -27 41 -56 86 -56c62 0 97 54 97 160h123c0 -158 -76 -283 -220 -283c-96 0 -151 58 -188 113c-27 41 -51 55 -82 55zM550 2007h173l202 -297l-86 -51l-200 237l-205 -237l-84 51z
M1061 1368h-670v-516h584v-168h-584v-516h670v-168h-844v1536h844v-168z" />
    <glyph glyph-name="uni1EC5" unicode="&#x1ec5;" horiz-adv-x="1139" 
d="M450 1716c-65 0 -98 -71 -98 -159h-125c0 159 82 282 219 282c90 0 147 -53 188 -112c19 -27 41 -56 86 -56c62 0 97 54 97 160h123c0 -158 -76 -283 -220 -283c-96 0 -151 58 -188 113c-27 41 -51 55 -82 55zM499 1444h173l202 -297l-86 -51l-200 237l-205 -237l-84 51z
M1077 492v-33h-844c10 -183 162 -326 345 -326c120 0 229 62 292 162l142 -57c-84 -158 -246 -256 -432 -256c-285 0 -504 223 -504 499c0 277 221 500 502 500c276 0 499 -213 499 -489zM578 829c-155 0 -281 -96 -327 -235h649c-44 138 -169 235 -322 235z" />
    <glyph glyph-name="uni1EC6" unicode="&#x1ec6;" horiz-adv-x="1165" 
d="M639 1896l-205 -237l-84 51l200 297h173l202 -297l-86 -51zM1061 1368h-670v-516h584v-168h-584v-516h670v-168h-844v1536h844v-168zM639 -142c61 0 114 -53 114 -114c0 -64 -53 -115 -114 -115c-62 0 -115 51 -115 115c0 61 53 114 115 114z" />
    <glyph glyph-name="uni1EC7" unicode="&#x1ec7;" horiz-adv-x="1139" 
d="M588 1333l-205 -237l-84 51l200 297h173l202 -297l-86 -51zM1077 492v-33h-844c10 -183 162 -326 345 -326c120 0 229 62 292 162l142 -57c-84 -158 -246 -256 -432 -256c-285 0 -504 223 -504 499c0 277 221 500 502 500c276 0 499 -213 499 -489zM578 829
c-155 0 -281 -96 -327 -235h649c-44 138 -169 235 -322 235zM590 -142c61 0 114 -53 114 -114c0 -64 -53 -115 -114 -115c-62 0 -115 51 -115 115c0 61 53 114 115 114z" />
    <glyph glyph-name="uni1EC8" unicode="&#x1ec8;" horiz-adv-x="608" 
d="M248 1636v154c88 18 143 57 143 129c0 51 -39 92 -100 92c-41 0 -74 -13 -107 -35l-65 92c47 37 106 61 168 61c125 0 225 -88 225 -210c0 -84 -51 -162 -156 -193v-90h-108zM217 0v1536h174v-1536h-174z" />
    <glyph glyph-name="uni1EC9" unicode="&#x1ec9;" horiz-adv-x="516" 
d="M203 1063v154c88 18 143 57 143 129c0 51 -39 92 -100 92c-41 0 -74 -13 -107 -35l-65 92c47 37 106 61 168 61c125 0 225 -88 225 -210c0 -84 -51 -162 -156 -193v-90h-108zM174 0v963h168v-963h-168z" />
    <glyph glyph-name="uni1ECA" unicode="&#x1eca;" horiz-adv-x="608" 
d="M217 0v1536h174v-1536h-174zM303 -371c-62 0 -115 51 -115 115c0 61 53 114 115 114c61 0 114 -53 114 -114c0 -64 -53 -115 -114 -115z" />
    <glyph glyph-name="uni1ECB" unicode="&#x1ecb;" horiz-adv-x="514" 
d="M258 1141c-61 0 -113 49 -113 110c0 64 52 111 113 111c59 0 111 -47 111 -111c0 -61 -52 -110 -111 -110zM174 0v963h166v-963h-166zM248 -512c-62 0 -115 51 -115 115c0 61 53 114 115 114c61 0 114 -53 114 -114c0 -64 -53 -115 -114 -115z" />
    <glyph glyph-name="uni1ECC" unicode="&#x1ecc;" horiz-adv-x="1765" 
d="M883 -20c-437 0 -789 352 -789 788s352 788 789 788c436 0 788 -352 788 -788s-352 -788 -788 -788zM883 154c342 0 614 272 614 614s-272 614 -614 614c-340 0 -615 -272 -615 -614s275 -614 615 -614zM883 -371c-62 0 -115 51 -115 115c0 61 53 114 115 114
c61 0 114 -53 114 -114c0 -64 -53 -115 -114 -115z" />
    <glyph glyph-name="uni1ECD" unicode="&#x1ecd;" horiz-adv-x="1155" 
d="M578 -18c-281 0 -504 223 -504 499c0 277 223 500 504 500c278 0 501 -223 501 -500c0 -276 -223 -499 -501 -499zM578 145c184 0 333 150 333 336c0 187 -149 336 -333 336c-189 0 -336 -149 -336 -336c0 -186 147 -336 336 -336zM578 -371c-62 0 -115 51 -115 115
c0 61 53 114 115 114c61 0 114 -53 114 -114c0 -64 -53 -115 -114 -115z" />
    <glyph glyph-name="uni1ECE" unicode="&#x1ece;" horiz-adv-x="1765" 
d="M828 1636v154c88 18 143 57 143 129c0 51 -39 92 -100 92c-41 0 -74 -13 -107 -35l-65 92c47 37 106 61 168 61c125 0 225 -88 225 -210c0 -84 -51 -162 -156 -193v-90h-108zM883 -20c-437 0 -789 352 -789 788s352 788 789 788c436 0 788 -352 788 -788
s-352 -788 -788 -788zM883 154c342 0 614 272 614 614s-272 614 -614 614c-340 0 -615 -272 -615 -614s275 -614 615 -614z" />
    <glyph glyph-name="uni1ECF" unicode="&#x1ecf;" horiz-adv-x="1155" 
d="M523 1063v154c88 18 143 57 143 129c0 51 -39 92 -100 92c-41 0 -74 -13 -107 -35l-65 92c47 37 106 61 168 61c125 0 225 -88 225 -210c0 -84 -51 -162 -156 -193v-90h-108zM578 -18c-281 0 -504 223 -504 499c0 277 223 500 504 500c278 0 501 -223 501 -500
c0 -276 -223 -499 -501 -499zM578 145c184 0 333 150 333 336c0 187 -149 336 -333 336c-189 0 -336 -149 -336 -336c0 -186 147 -336 336 -336z" />
    <glyph glyph-name="uni1ED0" unicode="&#x1ed0;" horiz-adv-x="1765" 
d="M839 2126l-66 71l303 326l96 -108zM678 1659l-84 51l200 297h173l202 -297l-86 -51l-200 237zM883 -20c-437 0 -789 352 -789 788s352 788 789 788c436 0 788 -352 788 -788s-352 -788 -788 -788zM883 154c342 0 614 272 614 614s-272 614 -614 614
c-340 0 -615 -272 -615 -614s275 -614 615 -614z" />
    <glyph glyph-name="uni1ED1" unicode="&#x1ed1;" horiz-adv-x="1155" 
d="M534 1553l-66 71l303 326l96 -108zM373 1086l-84 51l200 297h173l202 -297l-86 -51l-200 237zM578 -18c-281 0 -504 223 -504 499c0 277 223 500 504 500c278 0 501 -223 501 -500c0 -276 -223 -499 -501 -499zM578 145c184 0 333 150 333 336c0 187 -149 336 -333 336
c-189 0 -336 -149 -336 -336c0 -186 147 -336 336 -336z" />
    <glyph glyph-name="uni1ED2" unicode="&#x1ed2;" horiz-adv-x="1765" 
d="M882 2126l-336 289l98 108l301 -326zM678 1659l-84 51l200 297h173l202 -297l-86 -51l-200 237zM883 -20c-437 0 -789 352 -789 788s352 788 789 788c436 0 788 -352 788 -788s-352 -788 -788 -788zM883 154c342 0 614 272 614 614s-272 614 -614 614
c-340 0 -615 -272 -615 -614s275 -614 615 -614z" />
    <glyph glyph-name="uni1ED3" unicode="&#x1ed3;" horiz-adv-x="1155" 
d="M577 1553l-336 289l98 108l301 -326zM373 1086l-84 51l200 297h173l202 -297l-86 -51l-200 237zM578 -18c-281 0 -504 223 -504 499c0 277 223 500 504 500c278 0 501 -223 501 -500c0 -276 -223 -499 -501 -499zM578 145c184 0 333 150 333 336c0 187 -149 336 -333 336
c-189 0 -336 -149 -336 -336c0 -186 147 -336 336 -336z" />
    <glyph glyph-name="uni1ED4" unicode="&#x1ed4;" horiz-adv-x="1765" 
d="M825 2107v154c88 18 143 57 143 129c0 51 -39 92 -100 92c-41 0 -74 -13 -107 -35l-65 92c47 37 106 61 168 61c125 0 225 -88 225 -210c0 -84 -51 -162 -156 -193v-90h-108zM678 1659l-84 51l200 297h173l202 -297l-86 -51l-200 237zM883 -20c-437 0 -789 352 -789 788
s352 788 789 788c436 0 788 -352 788 -788s-352 -788 -788 -788zM883 154c342 0 614 272 614 614s-272 614 -614 614c-340 0 -615 -272 -615 -614s275 -614 615 -614z" />
    <glyph glyph-name="uni1ED5" unicode="&#x1ed5;" horiz-adv-x="1155" 
d="M520 1534v154c88 18 143 57 143 129c0 51 -39 92 -100 92c-41 0 -74 -13 -107 -35l-65 92c47 37 106 61 168 61c125 0 225 -88 225 -210c0 -84 -51 -162 -156 -193v-90h-108zM373 1086l-84 51l200 297h173l202 -297l-86 -51l-200 237zM578 -18c-281 0 -504 223 -504 499
c0 277 223 500 504 500c278 0 501 -223 501 -500c0 -276 -223 -499 -501 -499zM578 145c184 0 333 150 333 336c0 187 -149 336 -333 336c-189 0 -336 -149 -336 -336c0 -186 147 -336 336 -336z" />
    <glyph glyph-name="uni1ED6" unicode="&#x1ed6;" horiz-adv-x="1765" 
d="M1015 2111c-96 0 -151 58 -188 113c-27 41 -51 55 -82 55c-65 0 -98 -71 -98 -159h-125c0 159 82 282 219 282c90 0 147 -53 188 -112c19 -27 41 -56 86 -56c62 0 97 54 97 160h123c0 -158 -76 -283 -220 -283zM678 1659l-84 51l200 297h173l202 -297l-86 -51l-200 237z
M883 -20c-437 0 -789 352 -789 788s352 788 789 788c436 0 788 -352 788 -788s-352 -788 -788 -788zM883 154c342 0 614 272 614 614s-272 614 -614 614c-340 0 -615 -272 -615 -614s275 -614 615 -614z" />
    <glyph glyph-name="uni1ED7" unicode="&#x1ed7;" horiz-adv-x="1155" 
d="M710 1538c-96 0 -151 58 -188 113c-27 41 -51 55 -82 55c-65 0 -98 -71 -98 -159h-125c0 159 82 282 219 282c90 0 147 -53 188 -112c19 -27 41 -56 86 -56c62 0 97 54 97 160h123c0 -158 -76 -283 -220 -283zM373 1086l-84 51l200 297h173l202 -297l-86 -51l-200 237z
M578 -18c-281 0 -504 223 -504 499c0 277 223 500 504 500c278 0 501 -223 501 -500c0 -276 -223 -499 -501 -499zM578 145c184 0 333 150 333 336c0 187 -149 336 -333 336c-189 0 -336 -149 -336 -336c0 -186 147 -336 336 -336z" />
    <glyph glyph-name="uni1ED8" unicode="&#x1ed8;" horiz-adv-x="1765" 
d="M678 1659l-84 51l200 297h173l202 -297l-86 -51l-200 237zM883 -20c-437 0 -789 352 -789 788s352 788 789 788c436 0 788 -352 788 -788s-352 -788 -788 -788zM883 154c342 0 614 272 614 614s-272 614 -614 614c-340 0 -615 -272 -615 -614s275 -614 615 -614z
M883 -371c-62 0 -115 51 -115 115c0 61 53 114 115 114c61 0 114 -53 114 -114c0 -64 -53 -115 -114 -115z" />
    <glyph glyph-name="uni1ED9" unicode="&#x1ed9;" horiz-adv-x="1155" 
d="M373 1086l-84 51l200 297h173l202 -297l-86 -51l-200 237zM578 -18c-281 0 -504 223 -504 499c0 277 223 500 504 500c278 0 501 -223 501 -500c0 -276 -223 -499 -501 -499zM578 145c184 0 333 150 333 336c0 187 -149 336 -333 336c-189 0 -336 -149 -336 -336
c0 -186 147 -336 336 -336zM578 -371c-62 0 -115 51 -115 115c0 61 53 114 115 114c61 0 114 -53 114 -114c0 -64 -53 -115 -114 -115z" />
    <glyph glyph-name="uni1EDA" unicode="&#x1eda;" horiz-adv-x="1765" 
d="M1175 1944l-333 -289l-66 71l303 326zM1628 1504h142v-125c0 -177 -92 -245 -186 -250c56 -108 87 -231 87 -361c0 -436 -352 -788 -788 -788c-437 0 -789 352 -789 788s352 788 789 788c273 0 513 -138 655 -349c70 6 90 84 90 133v164zM883 154c342 0 614 272 614 614
s-272 614 -614 614c-340 0 -615 -272 -615 -614s275 -614 615 -614z" />
    <glyph glyph-name="uni1EDB" unicode="&#x1edb;" horiz-adv-x="1155" 
d="M870 1371l-333 -289l-66 71l303 326zM1132 1014h142v-125c0 -184 -99 -250 -197 -250c-8 0 -15 0 -24 1c17 -50 26 -103 26 -159c0 -276 -223 -499 -501 -499c-281 0 -504 223 -504 499c0 277 223 500 504 500c192 0 358 -106 442 -263c5 -1 10 -1 14 -1
c76 0 98 82 98 133v164zM578 145c184 0 333 150 333 336c0 187 -149 336 -333 336c-189 0 -336 -149 -336 -336c0 -186 147 -336 336 -336z" />
    <glyph glyph-name="uni1EDC" unicode="&#x1edc;" horiz-adv-x="1765" 
d="M948 1726l-63 -71l-336 289l98 108zM1628 1504h142v-125c0 -177 -92 -245 -186 -250c56 -108 87 -231 87 -361c0 -436 -352 -788 -788 -788c-437 0 -789 352 -789 788s352 788 789 788c273 0 513 -138 655 -349c70 6 90 84 90 133v164zM883 154c342 0 614 272 614 614
s-272 614 -614 614c-340 0 -615 -272 -615 -614s275 -614 615 -614z" />
    <glyph glyph-name="uni1EDD" unicode="&#x1edd;" horiz-adv-x="1155" 
d="M643 1153l-63 -71l-336 289l98 108zM1132 1014h142v-125c0 -184 -99 -250 -197 -250c-8 0 -15 0 -24 1c17 -50 26 -103 26 -159c0 -276 -223 -499 -501 -499c-281 0 -504 223 -504 499c0 277 223 500 504 500c192 0 358 -106 442 -263c5 -1 10 -1 14 -1
c76 0 98 82 98 133v164zM578 145c184 0 333 150 333 336c0 187 -149 336 -333 336c-189 0 -336 -149 -336 -336c0 -186 147 -336 336 -336z" />
    <glyph glyph-name="uni1EDE" unicode="&#x1ede;" horiz-adv-x="1765" 
d="M871 2011c-41 0 -74 -13 -107 -35l-65 92c47 37 106 61 168 61c125 0 225 -88 225 -210c0 -84 -51 -162 -156 -193v-90h-108v154c88 18 143 57 143 129c0 51 -39 92 -100 92zM1628 1504h142v-125c0 -177 -92 -245 -186 -250c56 -108 87 -231 87 -361
c0 -436 -352 -788 -788 -788c-437 0 -789 352 -789 788s352 788 789 788c273 0 513 -138 655 -349c70 6 90 84 90 133v164zM883 154c342 0 614 272 614 614s-272 614 -614 614c-340 0 -615 -272 -615 -614s275 -614 615 -614z" />
    <glyph glyph-name="uni1EDF" unicode="&#x1edf;" horiz-adv-x="1155" 
d="M566 1438c-41 0 -74 -13 -107 -35l-65 92c47 37 106 61 168 61c125 0 225 -88 225 -210c0 -84 -51 -162 -156 -193v-90h-108v154c88 18 143 57 143 129c0 51 -39 92 -100 92zM1132 1014h142v-125c0 -184 -99 -250 -197 -250c-8 0 -15 0 -24 1c17 -50 26 -103 26 -159
c0 -276 -223 -499 -501 -499c-281 0 -504 223 -504 499c0 277 223 500 504 500c192 0 358 -106 442 -263c5 -1 10 -1 14 -1c76 0 98 82 98 133v164zM578 145c184 0 333 150 333 336c0 187 -149 336 -333 336c-189 0 -336 -149 -336 -336c0 -186 147 -336 336 -336z" />
    <glyph glyph-name="uni1EE0" unicode="&#x1ee0;" horiz-adv-x="1765" 
d="M748 1808c-65 0 -98 -71 -98 -159h-125c0 159 82 282 219 282c90 0 147 -53 188 -112c19 -27 41 -56 86 -56c62 0 97 54 97 160h123c0 -158 -76 -283 -220 -283c-96 0 -151 58 -188 113c-27 41 -51 55 -82 55zM1628 1504h142v-125c0 -177 -92 -245 -186 -250
c56 -108 87 -231 87 -361c0 -436 -352 -788 -788 -788c-437 0 -789 352 -789 788s352 788 789 788c273 0 513 -138 655 -349c70 6 90 84 90 133v164zM883 154c342 0 614 272 614 614s-272 614 -614 614c-340 0 -615 -272 -615 -614s275 -614 615 -614z" />
    <glyph glyph-name="uni1EE1" unicode="&#x1ee1;" horiz-adv-x="1155" 
d="M443 1235c-65 0 -98 -71 -98 -159h-125c0 159 82 282 219 282c90 0 147 -53 188 -112c19 -27 41 -56 86 -56c62 0 97 54 97 160h123c0 -158 -76 -283 -220 -283c-96 0 -151 58 -188 113c-27 41 -51 55 -82 55zM1132 1014h142v-125c0 -184 -99 -250 -197 -250
c-8 0 -15 0 -24 1c17 -50 26 -103 26 -159c0 -276 -223 -499 -501 -499c-281 0 -504 223 -504 499c0 277 223 500 504 500c192 0 358 -106 442 -263c5 -1 10 -1 14 -1c76 0 98 82 98 133v164zM578 145c184 0 333 150 333 336c0 187 -149 336 -333 336
c-189 0 -336 -149 -336 -336c0 -186 147 -336 336 -336z" />
    <glyph glyph-name="uni1EE2" unicode="&#x1ee2;" horiz-adv-x="1765" 
d="M1628 1504h142v-125c0 -177 -92 -245 -186 -250c56 -108 87 -231 87 -361c0 -436 -352 -788 -788 -788c-437 0 -789 352 -789 788s352 788 789 788c273 0 513 -138 655 -349c70 6 90 84 90 133v164zM883 154c342 0 614 272 614 614s-272 614 -614 614
c-340 0 -615 -272 -615 -614s275 -614 615 -614zM883 -142c61 0 114 -53 114 -114c0 -64 -53 -115 -114 -115c-62 0 -115 51 -115 115c0 61 53 114 115 114z" />
    <glyph glyph-name="uni1EE3" unicode="&#x1ee3;" horiz-adv-x="1155" 
d="M1132 1014h142v-125c0 -184 -99 -250 -197 -250c-8 0 -15 0 -24 1c17 -50 26 -103 26 -159c0 -276 -223 -499 -501 -499c-281 0 -504 223 -504 499c0 277 223 500 504 500c192 0 358 -106 442 -263c5 -1 10 -1 14 -1c76 0 98 82 98 133v164zM578 145
c184 0 333 150 333 336c0 187 -149 336 -333 336c-189 0 -336 -149 -336 -336c0 -186 147 -336 336 -336zM578 -142c61 0 114 -53 114 -114c0 -64 -53 -115 -114 -115c-62 0 -115 51 -115 115c0 61 53 114 115 114z" />
    <glyph glyph-name="uni1EE4" unicode="&#x1ee4;" horiz-adv-x="1526" 
d="M762 -20c-336 0 -580 221 -580 524v1032h174v-1004c0 -219 170 -378 406 -378c235 0 407 159 407 378v1004h174v-1032c0 -303 -243 -524 -581 -524zM762 -371c-62 0 -115 51 -115 115c0 61 53 114 115 114c61 0 114 -53 114 -114c0 -64 -53 -115 -114 -115z" />
    <glyph glyph-name="uni1EE5" unicode="&#x1ee5;" horiz-adv-x="1032" 
d="M516 -18c-223 0 -369 141 -369 366v615h168v-596c0 -138 84 -222 201 -222c119 0 201 84 201 222v596h168v-615c0 -225 -146 -366 -369 -366zM516 -371c-62 0 -115 51 -115 115c0 61 53 114 115 114c61 0 114 -53 114 -114c0 -64 -53 -115 -114 -115z" />
    <glyph glyph-name="uni1EE6" unicode="&#x1ee6;" horiz-adv-x="1526" 
d="M707 1636v154c88 18 143 57 143 129c0 51 -39 92 -100 92c-41 0 -74 -13 -107 -35l-65 92c47 37 106 61 168 61c125 0 225 -88 225 -210c0 -84 -51 -162 -156 -193v-90h-108zM762 -20c-336 0 -580 221 -580 524v1032h174v-1004c0 -219 170 -378 406 -378
c235 0 407 159 407 378v1004h174v-1032c0 -303 -243 -524 -581 -524z" />
    <glyph glyph-name="uni1EE7" unicode="&#x1ee7;" horiz-adv-x="1032" 
d="M461 1063v154c88 18 143 57 143 129c0 51 -39 92 -100 92c-41 0 -74 -13 -107 -35l-65 92c47 37 106 61 168 61c125 0 225 -88 225 -210c0 -84 -51 -162 -156 -193v-90h-108zM516 -18c-223 0 -369 141 -369 366v615h168v-596c0 -138 84 -222 201 -222
c119 0 201 84 201 222v596h168v-615c0 -225 -146 -366 -369 -366z" />
    <glyph glyph-name="uni1EE8" unicode="&#x1ee8;" horiz-adv-x="1679" 
d="M1054 1944l-333 -289l-66 71l303 326zM1450 1538h142v-125c0 -184 -99 -250 -197 -250c-16 0 -33 2 -52 5v-664c0 -303 -243 -524 -581 -524c-336 0 -580 221 -580 524v1032h174v-1004c0 -219 170 -378 406 -378c235 0 407 159 407 378v1004h174v-295h9
c76 0 98 82 98 133v164z" />
    <glyph glyph-name="uni1EE9" unicode="&#x1ee9;" horiz-adv-x="1032" 
d="M808 1371l-333 -289l-66 71l303 326zM1046 963h142v-125c0 -184 -99 -250 -197 -250c-31 0 -68 6 -106 18v-258c0 -225 -146 -366 -369 -366s-369 141 -369 366v615h168v-596c0 -138 84 -222 201 -222c119 0 201 84 201 222v596h168v-284c26 -10 47 -13 63 -13
c76 0 98 82 98 133v164z" />
    <glyph glyph-name="uni1EEA" unicode="&#x1eea;" horiz-adv-x="1679" 
d="M827 1726l-63 -71l-336 289l98 108zM1450 1538h142v-125c0 -184 -99 -250 -197 -250c-16 0 -33 2 -52 5v-664c0 -303 -243 -524 -581 -524c-336 0 -580 221 -580 524v1032h174v-1004c0 -219 170 -378 406 -378c235 0 407 159 407 378v1004h174v-295h9c76 0 98 82 98 133
v164z" />
    <glyph glyph-name="uni1EEB" unicode="&#x1eeb;" horiz-adv-x="1032" 
d="M581 1153l-63 -71l-336 289l98 108zM1046 963h142v-125c0 -184 -99 -250 -197 -250c-31 0 -68 6 -106 18v-258c0 -225 -146 -366 -369 -366s-369 141 -369 366v615h168v-596c0 -138 84 -222 201 -222c119 0 201 84 201 222v596h168v-284c26 -10 47 -13 63 -13
c76 0 98 82 98 133v164z" />
    <glyph glyph-name="uni1EEC" unicode="&#x1eec;" horiz-adv-x="1679" 
d="M750 2011c-41 0 -74 -13 -107 -35l-65 92c47 37 106 61 168 61c125 0 225 -88 225 -210c0 -84 -51 -162 -156 -193v-90h-108v154c88 18 143 57 143 129c0 51 -39 92 -100 92zM1450 1538h142v-125c0 -184 -99 -250 -197 -250c-16 0 -33 2 -52 5v-664
c0 -303 -243 -524 -581 -524c-336 0 -580 221 -580 524v1032h174v-1004c0 -219 170 -378 406 -378c235 0 407 159 407 378v1004h174v-295h9c76 0 98 82 98 133v164z" />
    <glyph glyph-name="uni1EED" unicode="&#x1eed;" horiz-adv-x="1032" 
d="M504 1438c-41 0 -74 -13 -107 -35l-65 92c47 37 106 61 168 61c125 0 225 -88 225 -210c0 -84 -51 -162 -156 -193v-90h-108v154c88 18 143 57 143 129c0 51 -39 92 -100 92zM1046 963h142v-125c0 -184 -99 -250 -197 -250c-31 0 -68 6 -106 18v-258
c0 -225 -146 -366 -369 -366s-369 141 -369 366v615h168v-596c0 -138 84 -222 201 -222c119 0 201 84 201 222v596h168v-284c26 -10 47 -13 63 -13c76 0 98 82 98 133v164z" />
    <glyph glyph-name="uni1EEE" unicode="&#x1eee;" horiz-adv-x="1679" 
d="M627 1808c-65 0 -98 -71 -98 -159h-125c0 159 82 282 219 282c90 0 147 -53 188 -112c19 -27 41 -56 86 -56c62 0 97 54 97 160h123c0 -158 -76 -283 -220 -283c-96 0 -151 58 -188 113c-27 41 -51 55 -82 55zM1450 1538h142v-125c0 -184 -99 -250 -197 -250
c-16 0 -33 2 -52 5v-664c0 -303 -243 -524 -581 -524c-336 0 -580 221 -580 524v1032h174v-1004c0 -219 170 -378 406 -378c235 0 407 159 407 378v1004h174v-295h9c76 0 98 82 98 133v164z" />
    <glyph glyph-name="uni1EEF" unicode="&#x1eef;" horiz-adv-x="1032" 
d="M381 1235c-65 0 -98 -71 -98 -159h-125c0 159 82 282 219 282c90 0 147 -53 188 -112c19 -27 41 -56 86 -56c62 0 97 54 97 160h123c0 -158 -76 -283 -220 -283c-96 0 -151 58 -188 113c-27 41 -51 55 -82 55zM1046 963h142v-125c0 -184 -99 -250 -197 -250
c-31 0 -68 6 -106 18v-258c0 -225 -146 -366 -369 -366s-369 141 -369 366v615h168v-596c0 -138 84 -222 201 -222c119 0 201 84 201 222v596h168v-284c26 -10 47 -13 63 -13c76 0 98 82 98 133v164z" />
    <glyph glyph-name="uni1EF0" unicode="&#x1ef0;" horiz-adv-x="1679" 
d="M1450 1538h142v-125c0 -184 -99 -250 -197 -250c-16 0 -33 2 -52 5v-664c0 -303 -243 -524 -581 -524c-336 0 -580 221 -580 524v1032h174v-1004c0 -219 170 -378 406 -378c235 0 407 159 407 378v1004h174v-295h9c76 0 98 82 98 133v164zM762 -142
c61 0 114 -53 114 -114c0 -64 -53 -115 -114 -115c-62 0 -115 51 -115 115c0 61 53 114 115 114z" />
    <glyph glyph-name="uni1EF1" unicode="&#x1ef1;" horiz-adv-x="1032" 
d="M1046 963h142v-125c0 -184 -99 -250 -197 -250c-31 0 -68 6 -106 18v-258c0 -225 -146 -366 -369 -366s-369 141 -369 366v615h168v-596c0 -138 84 -222 201 -222c119 0 201 84 201 222v596h168v-284c26 -10 47 -13 63 -13c76 0 98 82 98 133v164zM516 -142
c61 0 114 -53 114 -114c0 -64 -53 -115 -114 -115c-62 0 -115 51 -115 115c0 61 53 114 115 114z" />
    <glyph glyph-name="Ygrave" unicode="&#x1ef2;" horiz-adv-x="1270" 
d="M702 1726l-63 -71l-336 289l98 108zM1257 1536l-534 -808v-728h-174v725l-537 811h217l407 -629l408 629h213z" />
    <glyph glyph-name="ygrave" unicode="&#x1ef3;" horiz-adv-x="985" 
d="M546 1153l-63 -71l-336 289l98 108zM782 963h189l-584 -1455h-178l194 492l-391 963h187l300 -773z" />
    <glyph glyph-name="uni1EF4" unicode="&#x1ef4;" horiz-adv-x="1270" 
d="M549 0v725l-537 811h217l407 -629l408 629h213l-534 -808v-728h-174zM637 -142c61 0 114 -53 114 -114c0 -64 -53 -115 -114 -115c-62 0 -115 51 -115 115c0 61 53 114 115 114z" />
    <glyph glyph-name="uni1EF5" unicode="&#x1ef5;" horiz-adv-x="985" 
d="M782 963h189l-584 -1455h-178l194 492l-391 963h187l300 -773zM745 -269c61 0 114 -53 114 -114c0 -64 -53 -115 -114 -115c-62 0 -115 51 -115 115c0 61 53 114 115 114z" />
    <glyph glyph-name="uni1EF6" unicode="&#x1ef6;" horiz-adv-x="1270" 
d="M625 2011c-41 0 -74 -13 -107 -35l-65 92c47 37 106 61 168 61c125 0 225 -88 225 -210c0 -84 -51 -162 -156 -193v-90h-108v154c88 18 143 57 143 129c0 51 -39 92 -100 92zM1257 1536l-534 -808v-728h-174v725l-537 811h217l407 -629l408 629h213z" />
    <glyph glyph-name="uni1EF7" unicode="&#x1ef7;" horiz-adv-x="985" 
d="M469 1438c-41 0 -74 -13 -107 -35l-65 92c47 37 106 61 168 61c125 0 225 -88 225 -210c0 -84 -51 -162 -156 -193v-90h-108v154c88 18 143 57 143 129c0 51 -39 92 -100 92zM782 963h189l-584 -1455h-178l194 492l-391 963h187l300 -773z" />
    <glyph glyph-name="uni1EF8" unicode="&#x1ef8;" horiz-adv-x="1270" 
d="M502 1808c-65 0 -98 -71 -98 -159h-125c0 159 82 282 219 282c90 0 147 -53 188 -112c19 -27 41 -56 86 -56c62 0 97 54 97 160h123c0 -158 -76 -283 -220 -283c-96 0 -151 58 -188 113c-27 41 -51 55 -82 55zM1257 1536l-534 -808v-728h-174v725l-537 811h217l407 -629
l408 629h213z" />
    <glyph glyph-name="uni1EF9" unicode="&#x1ef9;" horiz-adv-x="985" 
d="M346 1235c-65 0 -98 -71 -98 -159h-125c0 159 82 282 219 282c90 0 147 -53 188 -112c19 -27 41 -56 86 -56c62 0 97 54 97 160h123c0 -158 -76 -283 -220 -283c-96 0 -151 58 -188 113c-27 41 -51 55 -82 55zM782 963h189l-584 -1455h-178l194 492l-391 963h187
l300 -773z" />
    <glyph glyph-name="endash" unicode="&#x2013;" horiz-adv-x="1352" 
d="M164 416v131h1024v-131h-1024z" />
    <glyph glyph-name="emdash" unicode="&#x2014;" horiz-adv-x="2048" 
d="M0 416v131h2048v-131h-2048z" />
    <glyph glyph-name="quoteleft" unicode="&#x2018;" horiz-adv-x="563" 
d="M306 1165c36 -19 61 -57 61 -100c0 -62 -54 -115 -115 -115c-62 0 -115 53 -115 115c0 11 1 21 4 31l150 440h125z" />
    <glyph glyph-name="quoteright" unicode="&#x2019;" horiz-adv-x="565" 
d="M426 1442c0 -11 -1 -21 -4 -31l-150 -440h-125l110 371c-36 19 -61 57 -61 100c0 62 54 115 115 115c62 0 115 -53 115 -115z" />
    <glyph glyph-name="quotesinglbase" unicode="&#x201a;" horiz-adv-x="565" 
d="M426 94c0 -11 -1 -21 -4 -31l-150 -440h-125l110 371c-36 19 -61 57 -61 100c0 62 54 115 115 115c62 0 115 -53 115 -115z" />
    <glyph glyph-name="quotedblleft" unicode="&#x201c;" horiz-adv-x="936" 
d="M291 1536h125l-110 -371c36 -19 61 -57 61 -100c0 -62 -54 -115 -115 -115c-62 0 -115 53 -115 115c0 11 1 21 4 31zM679 1165c36 -19 61 -57 61 -100c0 -62 -54 -115 -115 -115c-62 0 -115 53 -115 115c0 11 1 21 4 31l150 440h125z" />
    <glyph glyph-name="quotedblright" unicode="&#x201d;" horiz-adv-x="948" 
d="M811 1442c0 -11 -1 -21 -4 -31l-150 -440h-125l110 371c-36 19 -61 57 -61 100c0 62 54 115 115 115c62 0 115 -53 115 -115zM311 1555c62 0 115 -53 115 -115c0 -11 -1 -21 -4 -31l-150 -440h-125l110 371c-36 19 -61 57 -61 100c0 62 54 115 115 115z" />
    <glyph glyph-name="quotedblbase" unicode="&#x201e;" horiz-adv-x="909" 
d="M311 209c62 0 115 -53 115 -115c0 -11 -1 -21 -4 -31l-150 -440h-125l110 371c-36 19 -61 57 -61 100c0 62 54 115 115 115zM770 94c0 -11 -1 -21 -4 -31l-150 -440h-125l110 371c-36 19 -61 57 -61 100c0 62 54 115 115 115c62 0 115 -53 115 -115z" />
    <glyph glyph-name="dagger" unicode="&#x2020;" horiz-adv-x="958" 
d="M891 969v-115h-359v-1202h-114v1202h-350v115h350v403h114v-403h359z" />
    <glyph glyph-name="daggerdbl" unicode="&#x2021;" horiz-adv-x="1051" 
d="M936 1018h-358v-676h358v-113h-358v-413h-115v413h-350v113h350v676h-350v115h350v403h115v-403h358v-115z" />
    <glyph glyph-name="bullet" unicode="&#x2022;" horiz-adv-x="856" 
d="M428 414c-135 0 -252 108 -252 250c0 135 117 251 252 251c133 0 250 -116 250 -251c0 -142 -117 -250 -250 -250z" />
    <glyph glyph-name="ellipsis" unicode="&#x2026;" horiz-adv-x="1767" 
d="M317 -20c-61 0 -114 51 -114 114c0 62 53 115 114 115c62 0 115 -53 115 -115c0 -63 -53 -114 -115 -114zM876 -20c-61 0 -114 51 -114 114c0 62 53 115 114 115c62 0 115 -53 115 -115c0 -63 -53 -114 -115 -114zM1450 -20c-61 0 -114 51 -114 114c0 62 53 115 114 115
c62 0 115 -53 115 -115c0 -63 -53 -114 -115 -114z" />
    <glyph glyph-name="perthousand" unicode="&#x2030;" horiz-adv-x="2255" 
d="M418 928c-174 0 -316 141 -316 317c0 172 142 311 316 311c172 0 311 -139 311 -311c0 -176 -139 -317 -311 -317zM223 0l938 1536h180l-933 -1536h-185zM418 1067c96 0 174 80 174 178c0 94 -78 174 -174 174c-99 0 -178 -80 -178 -174c0 -98 79 -178 178 -178z
M1155 -16c-174 0 -313 141 -313 315c0 172 141 311 313 311s313 -139 313 -311c0 -174 -141 -315 -313 -315zM1849 -16c-174 0 -313 141 -313 315c0 172 141 311 313 311s314 -139 314 -311c0 -174 -142 -315 -314 -315zM1155 121c98 0 176 80 176 178
c0 96 -80 174 -176 174c-98 0 -176 -78 -176 -174c0 -98 78 -178 176 -178zM1849 121c99 0 176 80 176 178c0 96 -79 174 -176 174c-98 0 -176 -78 -176 -174c0 -98 78 -178 176 -178z" />
    <glyph glyph-name="guilsinglleft" unicode="&#x2039;" horiz-adv-x="586" 
d="M367 104l-312 377l312 377h143l-311 -377l311 -377h-143z" />
    <glyph glyph-name="guilsinglright" unicode="&#x203a;" horiz-adv-x="586" 
d="M76 104l311 377l-311 377h143l311 -377l-311 -377h-143z" />
    <glyph glyph-name="fraction" unicode="&#x2044;" horiz-adv-x="510" 
d="M-369 0l1071 1536h177l-1072 -1536h-176z" />
    <glyph glyph-name="Euro" unicode="&#x20ac;" horiz-adv-x="1669" 
d="M1000 154c159 0 321 67 432 180l125 -123c-139 -139 -359 -231 -557 -231c-352 0 -647 225 -750 540h-113v144h81c-5 34 -7 69 -7 104c0 32 2 63 5 94h-79v144h110c100 320 397 550 753 550c198 0 418 -92 557 -231l-125 -123c-111 113 -273 180 -432 180
c-258 0 -476 -153 -568 -376h715v-144h-755c-5 -31 -7 -62 -7 -94c0 -36 3 -70 9 -104h753v-144h-711c94 -217 310 -366 564 -366z" />
    <glyph glyph-name="uni2113" unicode="&#x2113;" horiz-adv-x="1221" 
d="M684 -10c-270 0 -391 178 -408 366v23c-45 -27 -94 -66 -143 -100l-53 98c67 51 135 94 194 143v557c0 381 195 504 379 504c215 0 310 -164 310 -344c0 -260 -207 -504 -521 -760v-55c0 -205 140 -297 279 -297c160 0 287 115 348 219l84 -74
c-115 -192 -279 -280 -469 -280zM440 635c219 199 394 397 394 596c0 131 -48 227 -183 227c-92 0 -211 -84 -211 -358v-465z" />
    <glyph glyph-name="uni2116" unicode="&#x2116;" horiz-adv-x="2798" 
d="M1227 411v1125h172v-1603l-967 1193v-1126h-174v1603zM2151 371c-281 0 -504 223 -504 499c0 277 223 500 504 500c278 0 501 -223 501 -500c0 -276 -223 -499 -501 -499zM2151 1206c-189 0 -336 -149 -336 -336c0 -186 147 -336 336 -336c184 0 333 150 333 336
c0 187 -149 336 -333 336zM1706 0v127h924v-127h-924z" />
    <glyph glyph-name="trademark" unicode="&#x2122;" horiz-adv-x="1602" 
d="M137 1442v94h447v-94h-174v-625h-101v625h-172zM1233 1536h108v-719h-100v549l-235 -391l-236 387v-545h-102v719h108l229 -380z" />
    <glyph glyph-name="estimated" unicode="&#x212e;" horiz-adv-x="1974" 
d="M1006 -18c-484 0 -875 352 -875 784c0 438 391 790 875 790c485 0 876 -352 876 -790v-21h-1417c-8 0 -12 -2 -12 -8v-430c0 -18 8 -35 18 -49c137 -141 328 -233 537 -233c227 0 428 102 565 262h125c-156 -185 -410 -305 -692 -305zM465 788h1087c7 0 9 9 9 15v430
c0 18 -7 39 -21 51c-137 135 -323 225 -532 225c-207 0 -396 -92 -535 -231c-12 -14 -20 -33 -20 -53v-422c0 -6 4 -15 12 -15z" />
    <glyph glyph-name="arrowleft" unicode="&#x2190;" horiz-adv-x="1778" 
d="M1622 851v-247h-1038v-260l-498 385l498 385v-263h1038z" />
    <glyph glyph-name="arrowup" unicode="&#x2191;" horiz-adv-x="897" 
d="M326 0v1038h-263l385 498l385 -498h-260v-1038h-247z" />
    <glyph glyph-name="arrowright" unicode="&#x2192;" horiz-adv-x="1784" 
d="M156 851h1038v263l498 -385l-498 -385v260h-1038v247z" />
    <glyph glyph-name="arrowdown" unicode="&#x2193;" horiz-adv-x="897" 
d="M326 1536h247v-1038h260l-385 -498l-385 498h263v1038z" />
    <glyph glyph-name="arrowboth" unicode="&#x2194;" horiz-adv-x="2195" 
d="M582 295l-498 387l498 385v-260l1024 -2v260l497 -385l-497 -385v262l-1024 2v-264z" />
    <glyph glyph-name="arrowupdn" unicode="&#x2195;" horiz-adv-x="967" 
d="M483 -145l-385 497h262v672h-262l385 498l385 -498h-260v-672h260z" />
    <glyph glyph-name="uni2196" unicode="&#x2196;" horiz-adv-x="1382" 
d="M1312 315l-175 -175l-734 734l-183 -184l-80 625l624 -80l-186 -186z" />
    <glyph glyph-name="uni2197" unicode="&#x2197;" horiz-adv-x="1382" 
d="M70 315l734 734l-186 186l624 80l-80 -625l-183 184l-734 -734z" />
    <glyph glyph-name="uni2198" unicode="&#x2198;" horiz-adv-x="1382" 
d="M70 1221l175 175l734 -734l183 184l80 -625l-624 80l186 186z" />
    <glyph glyph-name="uni2199" unicode="&#x2199;" horiz-adv-x="1382" 
d="M1312 1221l-734 -734l186 -186l-624 -80l80 625l183 -184l734 734z" />
    <glyph glyph-name="partialdiff" unicode="&#x2202;" horiz-adv-x="1169" 
d="M360 1446c367 57 654 -291 652 -774c-2 -375 -217 -660 -498 -660c-324 0 -475 262 -348 606c116 314 391 440 646 331c-68 249 -236 388 -452 356v141zM844 672c1 43 -1 84 -5 124c-211 136 -418 49 -517 -221c-91 -245 4 -436 194 -436c174 0 324 230 328 533z" />
    <glyph glyph-name="emptyset" unicode="&#x2205;" horiz-adv-x="1552" 
d="M1235 1002c96 -108 154 -250 154 -406c0 -338 -275 -612 -613 -612c-155 0 -297 58 -405 153l-88 -88l-54 53l89 89c-96 108 -154 249 -154 405c0 338 274 612 612 612c155 0 297 -58 406 -153l88 88l53 -53zM307 596c0 -116 42 -223 112 -304l661 661
c-81 70 -188 112 -304 112c-260 0 -469 -209 -469 -469zM776 127c260 0 469 209 469 469c0 116 -42 223 -111 304l-662 -662c82 -69 188 -111 304 -111z" />
    <glyph glyph-name="product" unicode="&#x220f;" horiz-adv-x="1614" 
d="M289 0v1288h-150v152h1336v-152h-150v-1288h-151v1288h-734v-1288h-151z" />
    <glyph glyph-name="summation" unicode="&#x2211;" horiz-adv-x="1389" 
d="M98 -242v123l738 717l-738 717v125h1182v-162h-907l684 -680l-684 -680h907v-160h-1182z" />
    <glyph glyph-name="minus" unicode="&#x2212;" horiz-adv-x="1231" 
d="M254 596v160h723v-160h-723z" />
    <glyph glyph-name="radical" unicode="&#x221a;" horiz-adv-x="1423" 
d="M442 -160l-231 713h-139v139h239l203 -622l715 1495l129 -54l-799 -1671h-117z" />
    <glyph glyph-name="infinity" unicode="&#x221e;" horiz-adv-x="1716" 
d="M481 287c-166 0 -288 131 -295 309c7 178 129 309 295 309c119 0 250 -74 375 -205c123 131 258 205 375 205c172 0 289 -123 295 -309c-6 -186 -123 -309 -295 -309c-117 0 -252 73 -375 205c-125 -132 -256 -205 -375 -205zM481 426c80 0 181 61 283 170
c-102 109 -203 170 -283 170c-84 0 -153 -74 -155 -170c2 -96 71 -170 155 -170zM1231 426c86 0 151 70 155 170c-4 100 -69 170 -155 170c-82 0 -182 -61 -283 -170c101 -109 201 -170 283 -170z" />
    <glyph glyph-name="integral" unicode="&#x222b;" horiz-adv-x="901" 
d="M61 -457v172c218 0 306 86 306 293v1137c0 178 125 303 282 303c68 0 139 -21 199 -70l-88 -135c-33 31 -70 39 -101 39c-65 0 -124 -45 -124 -152v-1124c0 -297 -185 -463 -474 -463z" />
    <glyph glyph-name="approxequal" unicode="&#x2248;" horiz-adv-x="1430" 
d="M930 649c-146 0 -228 96 -281 156c-47 51 -84 78 -135 78c-100 0 -160 -92 -158 -213h-149c-4 217 119 364 309 364c111 0 178 -55 258 -149c37 -43 76 -90 144 -90c90 0 155 84 153 213h150c4 -205 -111 -359 -291 -359zM930 227c-146 0 -225 95 -281 154
c-45 49 -78 80 -135 80c-100 -2 -160 -94 -158 -213h-149c-4 217 119 364 309 364c111 0 180 -53 258 -149c35 -43 76 -90 144 -90c90 0 155 82 153 213h150c4 -205 -111 -359 -291 -359z" />
    <glyph glyph-name="lessequal" unicode="&#x2264;" horiz-adv-x="1425" 
d="M1264 1440v-176l-955 -436l955 -439v-180l-1131 522v193zM133 0v127h1131v-127h-1131z" />
    <glyph glyph-name="greaterequal" unicode="&#x2265;" horiz-adv-x="1425" 
d="M162 1440l1130 -516v-193l-1130 -522v180l954 439l-954 436v176zM162 0v127h1130v-127h-1130z" />
    <glyph glyph-name="lozenge" unicode="&#x25ca;" horiz-adv-x="1370" 
d="M686 106l-618 617l618 618l617 -616zM688 297l424 428l-424 426l-428 -428z" />
    <glyph glyph-name="uniF8FF" unicode="&#xf8ff;" horiz-adv-x="1827" 
d="M913 0c-428 0 -778 350 -778 778c0 430 350 778 778 778c430 0 779 -348 779 -778c0 -428 -349 -778 -779 -778zM913 74c390 0 705 317 705 704c0 389 -315 705 -705 705c-387 0 -704 -316 -704 -705c0 -387 317 -704 704 -704zM1321 444c-8 0 -18 5 -25 13l-297 295
c-14 16 -14 39 0 53l297 297c15 14 37 14 52 0c14 -15 14 -39 0 -53l-271 -271l271 -270c14 -14 12 -35 0 -51c-7 -8 -17 -13 -27 -13zM506 444c-21 0 -37 17 -37 37v594c0 21 16 37 37 37c20 0 37 -16 37 -37v-594c0 -20 -17 -37 -37 -37zM913 444c-20 0 -36 17 -36 37v594
c0 21 16 37 36 37c21 0 37 -16 37 -37v-594c0 -20 -16 -37 -37 -37zM616 741c-20 0 -36 17 -36 37c0 21 16 37 36 37h187c20 0 37 -16 37 -37c0 -20 -17 -37 -37 -37h-187z" />
    <glyph glyph-name="Lcaron.ss01" horiz-adv-x="987" 
d="M391 1536v-1362h567v-174h-741v1536h174zM969 1536l-154 -573h-125l86 573h193z" />
    <glyph glyph-name="Lcaron.ss02" horiz-adv-x="987" 
d="M391 1536v-1362h567v-174h-741v1536h174zM969 1536l-154 -573h-125l86 573h193z" />
    <glyph glyph-name="i.loclTRK" horiz-adv-x="516" 
d="M258 1133c-62 0 -115 52 -115 113c0 66 53 115 115 115c61 0 115 -49 115 -115c0 -61 -54 -113 -115 -113zM174 0v963h168v-963h-168z" />
    <glyph glyph-name="a.ss01" horiz-adv-x="1024" 
d="M494 983c229 0 385 -149 385 -379v-604h-158v109c-77 -81 -176 -127 -301 -127c-184 0 -336 102 -336 288c0 164 115 287 465 322l172 17c-2 145 -92 225 -229 225c-109 0 -197 -50 -285 -121l-84 131c72 57 201 139 371 139zM432 125c123 0 224 64 289 178v172l-115 -12
c-313 -33 -356 -109 -356 -189c0 -102 72 -149 182 -149z" />
    <glyph glyph-name="aacute.ss01" horiz-adv-x="1024" 
d="M781 1371l-333 -289l-66 71l303 326zM494 983c229 0 385 -149 385 -379v-604h-158v109c-77 -81 -176 -127 -301 -127c-184 0 -336 102 -336 288c0 164 115 287 465 322l172 17c-2 145 -92 225 -229 225c-109 0 -197 -50 -285 -121l-84 131c72 57 201 139 371 139z
M432 125c123 0 224 64 289 178v172l-115 -12c-313 -33 -356 -109 -356 -189c0 -102 72 -149 182 -149z" />
    <glyph glyph-name="abreve.ss01" horiz-adv-x="1024" 
d="M487 1139c-194 0 -338 121 -338 316h136c0 -115 67 -209 202 -209c138 0 205 94 205 209h135c0 -195 -143 -316 -340 -316zM494 983c229 0 385 -149 385 -379v-604h-158v109c-77 -81 -176 -127 -301 -127c-184 0 -336 102 -336 288c0 164 115 287 465 322l172 17
c-2 145 -92 225 -229 225c-109 0 -197 -50 -285 -121l-84 131c72 57 201 139 371 139zM432 125c123 0 224 64 289 178v172l-115 -12c-313 -33 -356 -109 -356 -189c0 -102 72 -149 182 -149z" />
    <glyph glyph-name="uni1EAF.ss01" horiz-adv-x="1024" 
d="M781 1832l-333 -289l-66 71l303 326zM487 1139c-194 0 -338 121 -338 316h136c0 -115 67 -209 202 -209c138 0 205 94 205 209h135c0 -195 -143 -316 -340 -316zM494 983c229 0 385 -149 385 -379v-604h-158v109c-77 -81 -176 -127 -301 -127c-184 0 -336 102 -336 288
c0 164 115 287 465 322l172 17c-2 145 -92 225 -229 225c-109 0 -197 -50 -285 -121l-84 131c72 57 201 139 371 139zM432 125c123 0 224 64 289 178v172l-115 -12c-313 -33 -356 -109 -356 -189c0 -102 72 -149 182 -149z" />
    <glyph glyph-name="uni1EB7.ss01" horiz-adv-x="1024" 
d="M487 1139c-194 0 -338 121 -338 316h136c0 -115 67 -209 202 -209c138 0 205 94 205 209h135c0 -195 -143 -316 -340 -316zM494 983c229 0 385 -149 385 -379v-604h-158v109c-77 -81 -176 -127 -301 -127c-184 0 -336 102 -336 288c0 164 115 287 465 322l172 17
c-2 145 -92 225 -229 225c-109 0 -197 -50 -285 -121l-84 131c72 57 201 139 371 139zM432 125c123 0 224 64 289 178v172l-115 -12c-313 -33 -356 -109 -356 -189c0 -102 72 -149 182 -149zM489 -142c61 0 114 -53 114 -114c0 -64 -53 -115 -114 -115
c-62 0 -115 51 -115 115c0 61 53 114 115 114z" />
    <glyph glyph-name="uni1EB1.ss01" horiz-adv-x="1024" 
d="M554 1614l-63 -71l-336 289l98 108zM487 1139c-194 0 -338 121 -338 316h136c0 -115 67 -209 202 -209c138 0 205 94 205 209h135c0 -195 -143 -316 -340 -316zM494 983c229 0 385 -149 385 -379v-604h-158v109c-77 -81 -176 -127 -301 -127c-184 0 -336 102 -336 288
c0 164 115 287 465 322l172 17c-2 145 -92 225 -229 225c-109 0 -197 -50 -285 -121l-84 131c72 57 201 139 371 139zM432 125c123 0 224 64 289 178v172l-115 -12c-313 -33 -356 -109 -356 -189c0 -102 72 -149 182 -149z" />
    <glyph glyph-name="uni1EB3.ss01" horiz-adv-x="1024" 
d="M477 1899c-41 0 -74 -13 -107 -35l-65 92c47 37 106 61 168 61c125 0 225 -88 225 -210c0 -84 -51 -162 -156 -193v-90h-108v154c88 18 143 57 143 129c0 51 -39 92 -100 92zM487 1139c-194 0 -338 121 -338 316h136c0 -115 67 -209 202 -209c138 0 205 94 205 209h135
c0 -195 -143 -316 -340 -316zM494 983c229 0 385 -149 385 -379v-604h-158v109c-77 -81 -176 -127 -301 -127c-184 0 -336 102 -336 288c0 164 115 287 465 322l172 17c-2 145 -92 225 -229 225c-109 0 -197 -50 -285 -121l-84 131c72 57 201 139 371 139zM432 125
c123 0 224 64 289 178v172l-115 -12c-313 -33 -356 -109 -356 -189c0 -102 72 -149 182 -149z" />
    <glyph glyph-name="uni1EB5.ss01" horiz-adv-x="1024" 
d="M354 1696c-65 0 -98 -71 -98 -159h-125c0 159 82 282 219 282c90 0 147 -53 188 -112c19 -27 41 -56 86 -56c62 0 97 54 97 160h123c0 -158 -76 -283 -220 -283c-96 0 -151 58 -188 113c-27 41 -51 55 -82 55zM487 1246c138 0 205 94 205 209h135
c0 -195 -143 -316 -340 -316c-194 0 -338 121 -338 316h136c0 -115 67 -209 202 -209zM494 983c229 0 385 -149 385 -379v-604h-158v109c-77 -81 -176 -127 -301 -127c-184 0 -336 102 -336 288c0 164 115 287 465 322l172 17c-2 145 -92 225 -229 225
c-109 0 -197 -50 -285 -121l-84 131c72 57 201 139 371 139zM432 125c123 0 224 64 289 178v172l-115 -12c-313 -33 -356 -109 -356 -189c0 -102 72 -149 182 -149z" />
    <glyph glyph-name="uni01CE.ss01" horiz-adv-x="1024" 
d="M573 1125h-173l-200 297l88 53l201 -240l198 240l88 -53zM494 983c229 0 385 -149 385 -379v-604h-158v109c-77 -81 -176 -127 -301 -127c-184 0 -336 102 -336 288c0 164 115 287 465 322l172 17c-2 145 -92 225 -229 225c-109 0 -197 -50 -285 -121l-84 131
c72 57 201 139 371 139zM432 125c123 0 224 64 289 178v172l-115 -12c-313 -33 -356 -109 -356 -189c0 -102 72 -149 182 -149z" />
    <glyph glyph-name="acircumflex.ss01" horiz-adv-x="1024" 
d="M489 1323l-205 -237l-84 51l200 297h173l202 -297l-86 -51zM494 983c229 0 385 -149 385 -379v-604h-158v109c-77 -81 -176 -127 -301 -127c-184 0 -336 102 -336 288c0 164 115 287 465 322l172 17c-2 145 -92 225 -229 225c-109 0 -197 -50 -285 -121l-84 131
c72 57 201 139 371 139zM432 125c123 0 224 64 289 178v172l-115 -12c-313 -33 -356 -109 -356 -189c0 -102 72 -149 182 -149z" />
    <glyph glyph-name="adieresis.ss01" horiz-adv-x="1024" 
d="M301 1141c-62 0 -115 51 -115 112c0 66 53 115 115 115c61 0 115 -49 115 -115c0 -61 -54 -112 -115 -112zM678 1141c-62 0 -115 51 -115 112c0 66 53 115 115 115c63 0 114 -49 114 -115c0 -61 -51 -112 -114 -112zM494 983c229 0 385 -149 385 -379v-604h-158v109
c-77 -81 -176 -127 -301 -127c-184 0 -336 102 -336 288c0 164 115 287 465 322l172 17c-2 145 -92 225 -229 225c-109 0 -197 -50 -285 -121l-84 131c72 57 201 139 371 139zM432 125c123 0 224 64 289 178v172l-115 -12c-313 -33 -356 -109 -356 -189
c0 -102 72 -149 182 -149z" />
    <glyph glyph-name="agrave.ss01" horiz-adv-x="1024" 
d="M554 1153l-63 -71l-336 289l98 108zM494 983c229 0 385 -149 385 -379v-604h-158v109c-77 -81 -176 -127 -301 -127c-184 0 -336 102 -336 288c0 164 115 287 465 322l172 17c-2 145 -92 225 -229 225c-109 0 -197 -50 -285 -121l-84 131c72 57 201 139 371 139zM432 125
c123 0 224 64 289 178v172l-115 -12c-313 -33 -356 -109 -356 -189c0 -102 72 -149 182 -149z" />
    <glyph glyph-name="amacron.ss01" horiz-adv-x="1024" 
d="M807 1287v-115h-635v115h635zM494 983c229 0 385 -149 385 -379v-604h-158v109c-77 -81 -176 -127 -301 -127c-184 0 -336 102 -336 288c0 164 115 287 465 322l172 17c-2 145 -92 225 -229 225c-109 0 -197 -50 -285 -121l-84 131c72 57 201 139 371 139zM432 125
c123 0 224 64 289 178v172l-115 -12c-313 -33 -356 -109 -356 -189c0 -102 72 -149 182 -149z" />
    <glyph glyph-name="aogonek.ss01" horiz-adv-x="1024" 
d="M909 -311l82 -115c-78 -78 -176 -109 -277 -104c-137 6 -229 81 -229 211c0 133 97 243 236 333v95c-77 -81 -176 -127 -301 -127c-184 0 -336 102 -336 288c0 164 115 287 465 322l172 17c-2 145 -92 225 -229 225c-109 0 -197 -50 -285 -121l-84 131
c72 57 201 139 371 139c229 0 385 -149 385 -379v-604h-11c-141 -59 -264 -162 -264 -281c0 -77 53 -110 119 -110c61 0 135 29 186 80zM432 125c123 0 224 64 289 178v172l-115 -12c-313 -33 -356 -109 -356 -189c0 -102 72 -149 182 -149z" />
    <glyph glyph-name="aring.ss01" horiz-adv-x="1024" 
d="M509 1126c-119 0 -217 99 -217 215c0 119 98 215 217 215c117 0 213 -96 213 -215c0 -116 -96 -215 -213 -215zM509 1468c-69 0 -123 -59 -123 -127c0 -71 54 -124 123 -124c68 0 123 53 123 124c0 68 -55 127 -123 127zM494 983c229 0 385 -149 385 -379v-604h-158v109
c-77 -81 -176 -127 -301 -127c-184 0 -336 102 -336 288c0 164 115 287 465 322l172 17c-2 145 -92 225 -229 225c-109 0 -197 -50 -285 -121l-84 131c72 57 201 139 371 139zM432 125c123 0 224 64 289 178v172l-115 -12c-313 -33 -356 -109 -356 -189
c0 -102 72 -149 182 -149z" />
    <glyph glyph-name="atilde.ss01" horiz-adv-x="1024" 
d="M354 1235c-65 0 -98 -71 -98 -159h-125c0 159 82 282 219 282c90 0 147 -53 188 -112c19 -27 41 -56 86 -56c62 0 97 54 97 160h123c0 -158 -76 -283 -220 -283c-96 0 -151 58 -188 113c-27 41 -51 55 -82 55zM494 983c229 0 385 -149 385 -379v-604h-158v109
c-77 -81 -176 -127 -301 -127c-184 0 -336 102 -336 288c0 164 115 287 465 322l172 17c-2 145 -92 225 -229 225c-109 0 -197 -50 -285 -121l-84 131c72 57 201 139 371 139zM432 125c123 0 224 64 289 178v172l-115 -12c-313 -33 -356 -109 -356 -189
c0 -102 72 -149 182 -149z" />
    <glyph glyph-name="dcaron.ss01" horiz-adv-x="1255" 
d="M913 826v710h168v-1536h-168v137c-82 -96 -204 -155 -356 -155c-258 0 -481 223 -481 499c0 277 223 500 481 500c152 0 274 -59 356 -155zM1277 1536h193l-154 -573h-125zM580 145c186 0 333 150 333 336c0 187 -147 336 -333 336c-187 0 -336 -149 -336 -336
c0 -186 149 -336 336 -336z" />
    <glyph glyph-name="gcommaaccent.ss01" horiz-adv-x="1253" 
d="M833 1535l-100 -416h-192l168 416h124zM909 963h170v-963c0 -279 -225 -500 -504 -500c-196 0 -368 113 -452 277l135 94c55 -121 174 -207 317 -207c185 0 334 150 334 336v125c-76 -89 -189 -143 -336 -143c-276 0 -499 223 -499 499c0 279 223 500 499 500
c147 0 260 -54 336 -143v125zM578 145c184 0 333 152 333 336c0 187 -149 336 -333 336c-189 0 -336 -149 -336 -336c0 -184 147 -336 336 -336z" />
    <glyph glyph-name="lcaron.ss01" horiz-adv-x="516" 
d="M174 0v1536h168v-1536h-168zM581 963h-125l86 573h193z" />
    <glyph glyph-name="tcaron.ss01" horiz-adv-x="633" 
d="M563 1638h193l-154 -573h-125zM401 1309v-346h201v-154h-201v-809h-170v809h-202v154h202v346h170z" />
    <glyph glyph-name="dcaron.ss02" horiz-adv-x="1255" 
d="M913 826v710h168v-1536h-168v137c-82 -96 -204 -155 -356 -155c-258 0 -481 223 -481 499c0 277 223 500 481 500c152 0 274 -59 356 -155zM1277 1536h193l-154 -573h-125zM580 145c186 0 333 150 333 336c0 187 -147 336 -333 336c-187 0 -336 -149 -336 -336
c0 -186 149 -336 336 -336z" />
    <glyph glyph-name="gcommaaccent.ss02" horiz-adv-x="1253" 
d="M833 1535l-100 -416h-192l168 416h124zM909 963h170v-963c0 -279 -225 -500 -504 -500c-196 0 -368 113 -452 277l135 94c55 -121 174 -207 317 -207c185 0 334 150 334 336v125c-76 -89 -189 -143 -336 -143c-276 0 -499 223 -499 499c0 279 223 500 499 500
c147 0 260 -54 336 -143v125zM578 145c184 0 333 152 333 336c0 187 -149 336 -333 336c-189 0 -336 -149 -336 -336c0 -184 147 -336 336 -336z" />
    <glyph glyph-name="lcaron.ss02" horiz-adv-x="516" 
d="M174 0v1536h168v-1536h-168zM581 963h-125l86 573h193z" />
    <glyph glyph-name="tcaron.ss02" horiz-adv-x="633" 
d="M563 1638h193l-154 -573h-125zM401 1309v-346h201v-154h-201v-809h-170v809h-202v154h202v346h170z" />
    <glyph glyph-name="f_t" horiz-adv-x="1219" 
d="M1188 963v-154h-201v-809h-170v809h-432v-809h-168v809h-162v154h162v297c0 184 113 299 287 299c55 0 106 -11 131 -29v-166c-29 22 -72 37 -111 37c-84 0 -139 -64 -139 -162v-276h432v346h170v-346h201z" />
    <glyph glyph-name="t_t" horiz-adv-x="1198" 
d="M1167 963v-154h-201v-809h-170v809h-395v-809h-170v809h-202v154h202v346h170v-346h395v346h170v-346h201z" />
    <glyph glyph-name="zero.lf" horiz-adv-x="1327" 
d="M664 -20c-318 0 -553 337 -553 788s215 788 553 788c335 0 553 -337 553 -788s-238 -788 -553 -788zM666 133c231 0 376 254 376 635c0 401 -165 614 -376 614c-213 0 -379 -213 -379 -614c0 -381 145 -635 379 -635z" />
    <glyph glyph-name="one.lf" horiz-adv-x="721" 
d="M338 0v1362h-318v174h492v-1536h-174z" />
    <glyph glyph-name="two.lf" horiz-adv-x="1157" 
d="M413 174h672v-174h-1044v16c700 719 788 924 788 1106c0 172 -127 262 -276 262c-170 0 -279 -116 -279 -284l-188 2c0 274 209 459 477 457c254 -3 441 -166 441 -424c0 -304 -245 -599 -591 -961z" />
    <glyph glyph-name="three.lf" horiz-adv-x="1204" 
d="M586 -20c-293 0 -527 178 -527 446l174 2c0 -176 152 -285 353 -285c205 0 352 113 352 301c0 191 -150 297 -352 297h-156v164h148c165 0 266 111 266 250s-101 238 -266 238c-160 0 -269 -93 -269 -226h-174c0 232 195 389 443 389c245 0 440 -155 440 -391
c0 -153 -82 -266 -219 -325c194 -60 313 -205 313 -404c0 -278 -233 -456 -526 -456z" />
    <glyph glyph-name="four.lf" horiz-adv-x="1249" 
d="M1221 487v-163h-273v-324h-174v324h-741v112l698 1100h217v-1049h273zM261 487h513v836z" />
    <glyph glyph-name="five.lf" horiz-adv-x="1247" 
d="M659 1022c283 0 492 -209 492 -506c0 -311 -229 -532 -535 -532c-251 0 -493 151 -520 448h185c32 -196 190 -278 337 -278c199 0 343 149 343 354c0 209 -148 354 -332 354c-113 0 -230 -55 -301 -153h-183l140 827h798v-168h-660l-77 -452c85 73 201 106 313 106z" />
    <glyph glyph-name="six.lf" horiz-adv-x="1202" 
d="M1139 528c12 -292 -228 -544 -521 -544c-299 0 -544 211 -557 499c-6 144 50 267 132 369l542 684h215l-449 -535c36 14 81 23 148 23c205 0 477 -190 490 -496zM616 154c215 0 365 170 353 372c-13 215 -176 351 -369 351c-233 0 -379 -177 -367 -392
c13 -204 170 -331 383 -331z" />
    <glyph glyph-name="seven.lf" horiz-adv-x="1128" 
d="M39 1536h1065v-115l-795 -1421h-205l783 1370h-848v166z" />
    <glyph glyph-name="eight.lf" horiz-adv-x="1180" 
d="M588 -20c-277 0 -492 204 -492 464c0 179 103 330 256 406c-112 65 -168 182 -168 324c0 215 174 382 406 382c229 0 403 -167 403 -382c0 -142 -55 -259 -168 -324c156 -76 256 -227 256 -406c0 -260 -213 -464 -493 -464zM590 905c135 0 241 107 241 242
c0 137 -106 244 -241 244c-137 0 -244 -107 -244 -244c0 -135 107 -242 244 -242zM588 133c178 0 317 148 317 324c0 178 -139 317 -317 317c-176 0 -316 -139 -316 -317c0 -176 140 -324 316 -324z" />
    <glyph glyph-name="nine.lf" horiz-adv-x="1204" 
d="M1129 1053c6 -144 -49 -267 -131 -369l-543 -684h-215l449 535c-37 -14 -81 -23 -148 -23c-205 0 -477 190 -489 496c-13 292 227 544 520 544c299 0 545 -211 557 -499zM590 659c234 0 379 177 367 392c-13 204 -170 331 -383 331c-215 0 -365 -170 -352 -372
c12 -215 176 -351 368 -351z" />
    <glyph glyph-name="zero.dnom" horiz-adv-x="809" 
d="M403 -12c-206 0 -340 188 -340 473c0 284 134 473 340 473c207 0 342 -189 342 -473c0 -285 -135 -473 -342 -473zM406 147c98 0 172 127 172 314c0 186 -74 313 -172 313c-103 0 -175 -127 -175 -313c0 -187 72 -314 175 -314z" />
    <glyph glyph-name="one.dnom" horiz-adv-x="477" 
d="M172 0v770h-133v152h299v-922h-166z" />
    <glyph glyph-name="two.dnom" horiz-adv-x="713" 
d="M297 152h346v-152h-604v86c375 399 418 487 418 567c0 99 -64 129 -121 129c-80 0 -123 -53 -123 -133h-166c0 176 119 287 291 287c162 0 278 -100 280 -268c3 -144 -79 -269 -321 -516z" />
    <glyph glyph-name="three.dnom" horiz-adv-x="707" 
d="M506 518c84 -47 139 -130 139 -235c0 -164 -133 -295 -307 -295c-164 0 -299 112 -299 274l168 2c0 -69 61 -119 133 -119c80 0 139 62 139 142s-59 133 -137 133h-86v141h76c63 0 110 51 110 113c0 63 -49 104 -110 104c-60 0 -101 -39 -101 -94l-163 2
c0 148 114 248 264 248c147 0 262 -107 262 -242c0 -74 -33 -135 -88 -174z" />
    <glyph glyph-name="four.dnom" horiz-adv-x="762" 
d="M688 346v-151h-84v-195h-166v195h-438v104l383 623h221v-576h84zM200 346h238v406z" />
    <glyph glyph-name="five.dnom" horiz-adv-x="807" 
d="M457 629c153 0 276 -119 276 -305c0 -203 -147 -336 -332 -336c-168 0 -319 104 -327 278l176 4c14 -84 84 -123 158 -123c88 0 155 68 155 172c0 103 -69 168 -155 168c-56 0 -115 -32 -150 -86l-170 2l90 519h520v-150h-398l-33 -204c38 31 103 61 190 61z" />
    <glyph glyph-name="six.dnom" horiz-adv-x="723" 
d="M692 313c2 -182 -151 -323 -334 -323c-186 0 -340 135 -340 315c0 78 31 148 74 209l305 408h195l-233 -295c14 1 30 1 47 0c145 -15 284 -144 286 -314zM358 139c103 0 172 78 170 174c-2 99 -75 170 -172 170c-106 0 -172 -77 -170 -178c2 -98 72 -166 172 -166z" />
    <glyph glyph-name="seven.dnom" horiz-adv-x="653" 
d="M33 922h629v-121l-435 -801h-190l430 772h-434v150z" />
    <glyph glyph-name="eight.dnom" horiz-adv-x="754" 
d="M377 -12c-182 0 -318 125 -318 286c0 103 54 189 140 238c-56 41 -84 104 -84 180c0 137 110 242 262 242c149 0 262 -105 262 -242c0 -76 -31 -139 -84 -180c86 -49 139 -135 139 -238c0 -161 -135 -286 -317 -286zM377 557c65 0 117 51 117 117c0 67 -52 119 -117 119
c-66 0 -117 -52 -117 -119c0 -66 51 -117 117 -117zM377 133c84 0 149 70 149 156c0 84 -65 147 -149 147s-150 -63 -150 -147c0 -86 66 -156 150 -156z" />
    <glyph glyph-name="nine.dnom" horiz-adv-x="723" 
d="M365 932c186 0 340 -135 340 -316c0 -77 -29 -147 -74 -208l-305 -408h-195l234 295c-14 -1 -30 -1 -48 0c-145 14 -284 143 -286 313c-2 183 151 324 334 324zM367 438c106 0 172 78 170 178c-2 99 -72 166 -172 166c-103 0 -172 -77 -170 -174c2 -98 75 -170 172 -170z
" />
    <glyph glyph-name="zero.numr" horiz-adv-x="809" 
d="M403 611c-206 0 -340 188 -340 473c0 284 134 473 340 473c207 0 342 -189 342 -473c0 -285 -135 -473 -342 -473zM406 770c98 0 172 127 172 314c0 186 -74 313 -172 313c-103 0 -175 -127 -175 -313c0 -187 72 -314 175 -314z" />
    <glyph glyph-name="one.numr" horiz-adv-x="477" 
d="M172 614v770h-133v152h299v-922h-166z" />
    <glyph glyph-name="two.numr" horiz-adv-x="713" 
d="M297 766h346v-152h-604v86c375 399 418 487 418 567c0 99 -64 129 -121 129c-80 0 -123 -53 -123 -133h-166c0 176 119 287 291 287c162 0 278 -100 280 -268c3 -144 -79 -269 -321 -516z" />
    <glyph glyph-name="three.numr" horiz-adv-x="707" 
d="M506 1132c84 -47 139 -130 139 -235c0 -164 -133 -295 -307 -295c-164 0 -299 112 -299 274l168 2c0 -69 61 -119 133 -119c80 0 139 62 139 142s-59 133 -137 133h-86v141h76c63 0 110 51 110 113c0 63 -49 104 -110 104c-60 0 -101 -39 -101 -94l-163 2
c0 148 114 248 264 248c147 0 262 -107 262 -242c0 -74 -33 -135 -88 -174z" />
    <glyph glyph-name="four.numr" horiz-adv-x="762" 
d="M688 960v-151h-84v-195h-166v195h-438v104l383 623h221v-576h84zM200 960h238v406z" />
    <glyph glyph-name="five.numr" horiz-adv-x="807" 
d="M457 1243c153 0 276 -119 276 -305c0 -203 -147 -336 -332 -336c-168 0 -319 104 -327 278l176 4c14 -84 84 -123 158 -123c88 0 155 68 155 172c0 103 -69 168 -155 168c-56 0 -115 -32 -150 -86l-170 2l90 519h520v-150h-398l-33 -204c38 31 103 61 190 61z" />
    <glyph glyph-name="six.numr" horiz-adv-x="723" 
d="M692 927c2 -182 -151 -323 -334 -323c-186 0 -340 135 -340 315c0 78 31 148 74 209l305 408h195l-233 -295c14 1 30 1 47 0c145 -15 284 -144 286 -314zM358 753c103 0 172 78 170 174c-2 99 -75 170 -172 170c-106 0 -172 -77 -170 -178c2 -98 72 -166 172 -166z" />
    <glyph glyph-name="seven.numr" horiz-adv-x="653" 
d="M33 1536h629v-121l-435 -801h-190l430 772h-434v150z" />
    <glyph glyph-name="eight.numr" horiz-adv-x="754" 
d="M377 602c-182 0 -318 125 -318 286c0 103 54 189 140 238c-56 41 -84 104 -84 180c0 137 110 242 262 242c149 0 262 -105 262 -242c0 -76 -31 -139 -84 -180c86 -49 139 -135 139 -238c0 -161 -135 -286 -317 -286zM377 1171c65 0 117 51 117 117c0 67 -52 119 -117 119
c-66 0 -117 -52 -117 -119c0 -66 51 -117 117 -117zM377 747c84 0 149 70 149 156c0 84 -65 147 -149 147s-150 -63 -150 -147c0 -86 66 -156 150 -156z" />
    <glyph glyph-name="nine.numr" horiz-adv-x="723" 
d="M365 1546c186 0 340 -135 340 -316c0 -77 -29 -147 -74 -208l-305 -408h-195l234 295c-14 -1 -30 -1 -48 0c-145 14 -284 143 -286 313c-2 183 151 324 334 324zM367 1052c106 0 172 78 170 178c-2 99 -72 166 -172 166c-103 0 -172 -77 -170 -174
c2 -98 75 -170 172 -170z" />
    <glyph glyph-name="comma.ss01" horiz-adv-x="645" 
d="M193 -377l100 627h192l-168 -627h-124z" />
    <glyph glyph-name="semicolon.ss01" horiz-adv-x="643" 
d="M385 815c-63 0 -115 51 -115 115c0 61 52 114 115 114c61 0 115 -53 115 -114c0 -64 -54 -115 -115 -115zM195 -377l100 627h192l-168 -627h-124z" />
    <glyph glyph-name="comma.ss02" horiz-adv-x="645" 
d="M193 -377l100 627h192l-168 -627h-124z" />
    <glyph glyph-name="semicolon.ss02" horiz-adv-x="643" 
d="M385 815c-63 0 -115 51 -115 115c0 61 52 114 115 114c61 0 115 -53 115 -114c0 -64 -54 -115 -115 -115zM195 -377l100 627h192l-168 -627h-124z" />
    <glyph glyph-name="quotedblbase.ss01" horiz-adv-x="909" 
d="M311 209c62 0 115 -53 115 -115c0 -11 -1 -21 -4 -31l-150 -440h-125l110 371c-36 19 -61 57 -61 100c0 62 54 115 115 115zM770 94c0 -11 -1 -21 -4 -31l-150 -440h-125l110 371c-36 19 -61 57 -61 100c0 62 54 115 115 115c62 0 115 -53 115 -115z" />
    <glyph glyph-name="quotedblleft.ss01" horiz-adv-x="942" 
d="M417 1536l-100 -627h-192l168 627h124zM784 1536l-100 -627h-192l168 627h124z" />
    <glyph glyph-name="quotedblright.ss01" horiz-adv-x="942" 
d="M158 909l100 627h192l-168 -627h-124zM525 909l100 627h192l-168 -627h-124z" />
    <glyph glyph-name="quoteleft.ss01" horiz-adv-x="575" 
d="M417 1536l-100 -627h-192l168 627h124z" />
    <glyph glyph-name="quoteright.ss01" horiz-adv-x="575" 
d="M158 909l100 627h192l-168 -627h-124z" />
    <glyph glyph-name="quotesinglbase.ss01" horiz-adv-x="575" 
d="M158 -377l100 627h192l-168 -627h-124z" />
    <glyph glyph-name="quotedblleft.ss02" horiz-adv-x="1016" 
d="M491 1536l-100 -627h-192l168 627h124zM858 1536l-100 -627h-192l168 627h124z" />
    <glyph glyph-name="quotedblright.ss02" horiz-adv-x="942" 
d="M158 909l100 627h192l-168 -627h-124zM525 909l100 627h192l-168 -627h-124z" />
    <glyph glyph-name="quoteleft.ss02" horiz-adv-x="575" 
d="M417 1536l-100 -627h-192l168 627h124z" />
    <glyph glyph-name="quoteright.ss02" horiz-adv-x="575" 
d="M158 909l100 627h192l-168 -627h-124z" />
    <glyph glyph-name="quotesinglbase.ss02" horiz-adv-x="575" 
d="M158 -377l100 627h192l-168 -627h-124z" />
    <glyph glyph-name="caroncomb.alt" 
d="M-143 1411l-1 -3l-3 -7l-146 -430h-125l110 370c-35 19 -60 57 -60 101c0 61 53 114 114 114c62 0 115 -53 115 -114c0 -11 -1 -21 -4 -31z" />
    <glyph glyph-name="uni0308.case" 
d="M-627 1079c-62 0 -115 51 -115 113c0 65 53 115 115 115c61 0 115 -50 115 -115c0 -62 -54 -113 -115 -113zM-250 1079c-62 0 -115 51 -115 113c0 65 53 115 115 115c63 0 114 -50 114 -115c0 -62 -51 -113 -114 -113z" />
    <glyph glyph-name="uni030A.case" 
d="M-330 1100c-119 0 -217 98 -217 215c0 119 98 215 217 215c117 0 213 -96 213 -215c0 -117 -96 -215 -213 -215zM-330 1190c67 0 123 53 123 125c0 67 -56 127 -123 127c-70 0 -123 -60 -123 -127c0 -72 53 -125 123 -125z" />
    <glyph glyph-name="caroncomb.alt.ss01" 
d="M-244 963h-125l86 573h193z" />
    <glyph glyph-name="uni03060301" 
d="M-424 1604l-66 71l303 326l96 -108zM-385 1200c-194 0 -338 121 -338 316h136c0 -115 67 -209 202 -209c138 0 205 94 205 209h135c0 -195 -143 -316 -340 -316z" />
    <glyph glyph-name="uni03060300" 
d="M-339 1604l-336 289l98 108l301 -326zM-343 1200c-194 0 -338 121 -338 316h136c0 -115 67 -209 202 -209c138 0 205 94 205 209h135c0 -195 -143 -316 -340 -316z" />
    <glyph glyph-name="uni03060309" 
d="M-408 1585v154c88 18 143 57 143 129c0 51 -39 92 -100 92c-41 0 -74 -13 -107 -35l-65 92c47 37 106 61 168 61c125 0 225 -88 225 -210c0 -84 -51 -162 -156 -193v-90h-108zM-355 1200c-194 0 -338 121 -338 316h136c0 -115 67 -209 202 -209c138 0 205 94 205 209h135
c0 -195 -143 -316 -340 -316z" />
    <glyph glyph-name="uni03060303" 
d="M-300 1589c-96 0 -151 58 -188 113c-27 41 -51 55 -82 55c-65 0 -98 -71 -98 -159h-125c0 159 82 282 219 282c90 0 147 -53 188 -112c19 -27 41 -56 86 -56c62 0 97 54 97 160h123c0 -158 -76 -283 -220 -283zM-437 1200c-194 0 -338 121 -338 316h136
c0 -115 67 -209 202 -209c138 0 205 94 205 209h135c0 -195 -143 -316 -340 -316z" />
    <glyph glyph-name="uni03020301" 
d="M-390 1655l-66 71l303 326l96 -108zM-551 1188l-84 51l200 297h173l202 -297l-86 -51l-200 237z" />
    <glyph glyph-name="uni03020300" 
d="M-285 1655l-336 289l98 108l301 -326zM-489 1188l-84 51l200 297h173l202 -297l-86 -51l-200 237z" />
    <glyph glyph-name="uni03020309" 
d="M-379 1636v154c88 18 143 57 143 129c0 51 -39 92 -100 92c-41 0 -74 -13 -107 -35l-65 92c47 37 106 61 168 61c125 0 225 -88 225 -210c0 -84 -51 -162 -156 -193v-90h-108zM-526 1188l-84 51l200 297h173l202 -297l-86 -51l-200 237z" />
    <glyph glyph-name="uni03020303" 
d="M-285 1640c-96 0 -151 58 -188 113c-27 41 -51 55 -82 55c-65 0 -98 -71 -98 -159h-125c0 159 82 282 219 282c90 0 147 -53 188 -112c19 -27 41 -56 86 -56c62 0 97 54 97 160h123c0 -158 -76 -283 -220 -283zM-622 1188l-84 51l200 297h173l202 -297l-86 -51l-200 237z
" />
    </font>
</defs>
</svg>
